0
SECTION
2
HEADER
0
ENDSEC
0
SECTION
2
TABLES
0
TABLE
2
LTYPE
0
LTYPE
72
65
70
64
2
CONTINUOUS
3
______
73
0
40
0
0
ENDTAB
0
TABLE
2
LAYER
0
ENDTAB
0
ENDSEC
0
SECTION
2
ENTITIES
0
CIRCLE
8
0
10
36
20
0
40
2
0
CIRCLE
8
0
10
36
20
0
40
2
0
LINE
8
layer0
10
24.6293264
20
-6.8274902
11
24.7637267
21
-6.5792946
0
LINE
8
layer0
10
24.7637267
20
-6.5792946
11
24.898162
21
-6.3540746
0
LINE
8
layer0
10
24.898162
20
-6.3540746
11
25.031745
21
-6.1501844
0
LINE
8
layer0
10
25.031745
20
-6.1501844
11
25.1616212
21
-5.9689903
0
LINE
8
layer0
10
25.1616212
20
-5.9689903
11
25.2876532
21
-5.8078867
0
LINE
8
layer0
10
25.2876532
20
-5.8078867
11
25.4058243
21
-5.6691975
0
LINE
8
layer0
10
25.4058243
20
-5.6691975
11
25.5174874
21
-5.5487147
0
LINE
8
layer0
10
25.5174874
20
-5.5487147
11
25.6192243
21
-5.4477242
0
LINE
8
layer0
10
25.6192243
20
-5.4477242
11
25.7106414
21
-5.3642568
0
LINE
8
layer0
10
25.7106414
20
-5.3642568
11
25.8591003
21
-5.2443356
0
LINE
8
layer0
10
25.8591003
20
-5.2443356
11
25.950794
21
-5.1820226
0
LINE
8
layer0
10
25.950794
20
-5.1820226
11
26.1109686
21
-5.0979899
0
LINE
8
layer0
10
26.1109686
20
-5.0979899
11
26.2492949
21
-5.0120098
0
LINE
8
layer0
10
26.2492949
20
-5.0120098
11
26.3632272
21
-4.9242603
0
LINE
8
layer0
10
26.3632272
20
-4.9242603
11
26.4528776
21
-4.8366323
0
LINE
8
layer0
10
26.4528776
20
-4.8366323
11
26.5185046
21
-4.7509778
0
LINE
8
layer0
10
26.5185046
20
-4.7509778
11
26.560469
21
-4.6691608
0
LINE
8
layer0
10
26.560469
20
-4.6691608
11
26.5727119
21
-4.6302541
0
LINE
8
layer0
10
26.5727119
20
-4.6302541
11
26.5792384
21
-4.5929899
0
LINE
8
layer0
10
26.5792384
20
-4.5929899
11
26.5800955
21
-4.557587
0
LINE
8
layer0
10
26.5800955
20
-4.557587
11
26.5753845
21
-4.5242633
0
LINE
8
layer0
10
26.5753845
20
-4.5242633
11
26.5617978
21
-4.4858701
0
LINE
8
layer0
10
26.5617978
20
-4.4858701
11
26.3987936
21
-4.1255299
0
LINE
8
layer0
10
26.3987936
20
-4.1255299
11
26.3454589
21
-3.9990419
0
LINE
8
layer0
10
26.3454589
20
-3.9990419
11
26.2937317
21
-3.871888
0
LINE
8
layer0
10
26.2937317
20
-3.871888
11
26.154194
21
-3.5018276
0
LINE
8
layer0
10
26.154194
20
-3.5018276
11
26.1366532
21
-3.4650723
0
LINE
8
layer0
10
26.1366532
20
-3.4650723
11
26.116421
21
-3.4381776
0
LINE
8
layer0
10
26.116421
20
-3.4381776
11
26.0907812
21
-3.4137501
0
LINE
8
layer0
10
26.0907812
20
-3.4137501
11
26.0598166
21
-3.3920153
0
LINE
8
layer0
10
26.0598166
20
-3.3920153
11
26.0236483
21
-3.3731611
0
LINE
8
layer0
10
26.0236483
20
-3.3731611
11
25.9361217
21
-3.344981
0
LINE
8
layer0
10
25.9361217
20
-3.344981
11
25.8291495
21
-3.3308195
0
LINE
8
layer0
10
25.8291495
20
-3.3308195
11
25.7037947
21
-3.3322496
0
LINE
8
layer0
10
25.7037947
20
-3.3322496
11
25.5611842
21
-3.3507636
0
LINE
8
layer0
10
25.5611842
20
-3.3507636
11
25.4025756
21
-3.387778
0
LINE
8
layer0
10
25.4025756
20
-3.387778
11
25.2298949
21
-3.4416184
0
LINE
8
layer0
10
25.2298949
20
-3.4416184
11
25.1209958
21
-3.4623937
0
LINE
8
layer0
10
25.1209958
20
-3.4623937
11
24.9312224
21
-3.4825729
0
LINE
8
layer0
10
24.9312224
20
-3.4825729
11
24.8075604
21
-3.4881942
0
LINE
8
layer0
10
24.8075604
20
-3.4881942
11
24.6642105
21
-3.488722
0
LINE
8
layer0
10
24.6642105
20
-3.488722
11
24.5000586
21
-3.4824855
0
LINE
8
layer0
10
24.5000586
20
-3.4824855
11
24.3184308
21
-3.467977
0
LINE
8
layer0
10
24.3184308
20
-3.467977
11
24.1153954
21
-3.4431776
0
LINE
8
layer0
10
24.1153954
20
-3.4431776
11
23.8954354
21
-3.4068904
0
LINE
8
layer0
10
23.8954354
20
-3.4068904
11
23.6568058
21
-3.3571757
0
LINE
8
layer0
10
23.6568058
20
-3.3571757
11
23.4024911
21
-3.2929812
0
LINE
8
layer0
10
23.4024911
20
-3.2929812
11
23.131955
21
-3.2125158
0
LINE
8
layer0
10
23.131955
20
-3.2125158
11
22.8658157
21
-3.1212705
0
ARC
8
layer0
10
36.0000316
20
0.0000068
40
13.5
50
189.131936
51
193.3680683
0
LINE
8
layer0
10
22.6711375
20
-2.1425568
11
22.8821
21
-1.95641
0
LINE
8
layer0
10
22.8821
20
-1.95641
11
23.10125
21
-1.77854
0
LINE
8
layer0
10
23.10125
20
-1.77854
11
23.31164
21
-1.62191
0
LINE
8
layer0
10
23.31164
20
-1.62191
11
23.51308
21
-1.48466
0
LINE
8
layer0
10
23.51308
20
-1.48466
11
23.70241
21
-1.36696
0
LINE
8
layer0
10
23.70241
20
-1.36696
11
23.8805
21
-1.26635
0
LINE
8
layer0
10
23.8805
20
-1.26635
11
24.04275
21
-1.18344
0
LINE
8
layer0
10
24.04275
20
-1.18344
11
24.19202
21
-1.11486
0
LINE
8
layer0
10
24.19202
20
-1.11486
11
24.32466
21
-1.06049
0
LINE
8
layer0
10
24.32466
20
-1.06049
11
24.44106
21
-1.01836
0
LINE
8
layer0
10
24.44106
20
-1.01836
11
24.62411
21
-0.96438
0
LINE
8
layer0
10
24.62411
20
-0.96438
11
24.73267
21
-0.9419
0
LINE
8
layer0
10
24.73267
20
-0.9419
11
24.91281
21
-0.92556
0
LINE
8
layer0
10
24.91281
20
-0.92556
11
25.07351
21
-0.89906
0
LINE
8
layer0
10
25.07351
20
-0.89906
11
25.21235
21
-0.86159
0
LINE
8
layer0
10
25.21235
20
-0.86159
11
25.32871
21
-0.81494
0
LINE
8
layer0
10
25.32871
20
-0.81494
11
25.42212
21
-0.76092
0
LINE
8
layer0
10
25.42212
20
-0.76092
11
25.4922
21
-0.70139
0
LINE
8
layer0
10
25.4922
20
-0.70139
11
25.5184
21
-0.67013
0
LINE
8
layer0
10
25.5184
20
-0.67013
11
25.53869
21
-0.6382
0
LINE
8
layer0
10
25.53869
20
-0.6382
11
25.55303
21
-0.60582
0
LINE
8
layer0
10
25.55303
20
-0.60582
11
25.56143
21
-0.57323
0
LINE
8
layer0
10
25.56143
20
-0.57323
11
25.56357
21
-0.53256
0
LINE
8
layer0
10
25.56357
20
-0.53256
11
25.55087
21
-0.13727
0
LINE
8
layer0
10
25.55087
20
-0.13727
11
25.55
21
0
0
LINE
8
layer0
10
25.55
20
0
11
25.55087
21
0.13727
0
LINE
8
layer0
10
25.55087
20
0.13727
11
25.56357
21
0.53256
0
LINE
8
layer0
10
25.56357
20
0.53256
11
25.56143
21
0.57323
0
LINE
8
layer0
10
25.56143
20
0.57323
11
25.55303
21
0.60582
0
LINE
8
layer0
10
25.55303
20
0.60582
11
25.53869
21
0.6382
0
LINE
8
layer0
10
25.53869
20
0.6382
11
25.5184
21
0.67013
0
LINE
8
layer0
10
25.5184
20
0.67013
11
25.4922
21
0.70139
0
LINE
8
layer0
10
25.4922
20
0.70139
11
25.42212
21
0.76092
0
LINE
8
layer0
10
25.42212
20
0.76092
11
25.32871
21
0.81494
0
LINE
8
layer0
10
25.32871
20
0.81494
11
25.21235
21
0.86159
0
LINE
8
layer0
10
25.21235
20
0.86159
11
25.07351
21
0.89906
0
LINE
8
layer0
10
25.07351
20
0.89906
11
24.91281
21
0.92556
0
LINE
8
layer0
10
24.91281
20
0.92556
11
24.73267
21
0.9419
0
LINE
8
layer0
10
24.73267
20
0.9419
11
24.62411
21
0.96438
0
LINE
8
layer0
10
24.62411
20
0.96438
11
24.44106
21
1.01836
0
LINE
8
layer0
10
24.44106
20
1.01836
11
24.32466
21
1.06049
0
LINE
8
layer0
10
24.32466
20
1.06049
11
24.19202
21
1.11486
0
LINE
8
layer0
10
24.19202
20
1.11486
11
24.04275
21
1.18344
0
LINE
8
layer0
10
24.04275
20
1.18344
11
23.8805
21
1.26635
0
LINE
8
layer0
10
23.8805
20
1.26635
11
23.70241
21
1.36696
0
LINE
8
layer0
10
23.70241
20
1.36696
11
23.51308
21
1.48466
0
LINE
8
layer0
10
23.51308
20
1.48466
11
23.31164
21
1.62191
0
LINE
8
layer0
10
23.31164
20
1.62191
11
23.10125
21
1.77854
0
LINE
8
layer0
10
23.10125
20
1.77854
11
22.8821
21
1.95641
0
LINE
8
layer0
10
22.8821
20
1.95641
11
22.6711375
21
2.1425568
0
ARC
8
layer0
10
36.0000317
20
-0.0000069
40
13.5
50
166.6319313
51
170.8680636
0
LINE
8
layer0
10
22.8658157
20
3.1212705
11
23.131955
21
3.2125158
0
LINE
8
layer0
10
23.131955
20
3.2125158
11
23.4024911
21
3.2929812
0
LINE
8
layer0
10
23.4024911
20
3.2929812
11
23.6568058
21
3.3571757
0
LINE
8
layer0
10
23.6568058
20
3.3571757
11
23.8954354
21
3.4068904
0
LINE
8
layer0
10
23.8954354
20
3.4068904
11
24.1153954
21
3.4431776
0
LINE
8
layer0
10
24.1153954
20
3.4431776
11
24.3184308
21
3.467977
0
LINE
8
layer0
10
24.3184308
20
3.467977
11
24.5000586
21
3.4824855
0
LINE
8
layer0
10
24.5000586
20
3.4824855
11
24.6642105
21
3.488722
0
LINE
8
layer0
10
24.6642105
20
3.488722
11
24.8075604
21
3.4881942
0
LINE
8
layer0
10
24.8075604
20
3.4881942
11
24.9312224
21
3.4825729
0
LINE
8
layer0
10
24.9312224
20
3.4825729
11
25.1209958
21
3.4623937
0
LINE
8
layer0
10
25.1209958
20
3.4623937
11
25.2298949
21
3.4416184
0
LINE
8
layer0
10
25.2298949
20
3.4416184
11
25.4025756
21
3.387778
0
LINE
8
layer0
10
25.4025756
20
3.387778
11
25.5611842
21
3.3507636
0
LINE
8
layer0
10
25.5611842
20
3.3507636
11
25.7037947
21
3.3322496
0
LINE
8
layer0
10
25.7037947
20
3.3322496
11
25.8291495
21
3.3308195
0
LINE
8
layer0
10
25.8291495
20
3.3308195
11
25.9361217
21
3.344981
0
LINE
8
layer0
10
25.9361217
20
3.344981
11
26.0236483
21
3.3731611
0
LINE
8
layer0
10
26.0236483
20
3.3731611
11
26.0598166
21
3.3920153
0
LINE
8
layer0
10
26.0598166
20
3.3920153
11
26.0907812
21
3.4137501
0
LINE
8
layer0
10
26.0907812
20
3.4137501
11
26.116421
21
3.4381776
0
LINE
8
layer0
10
26.116421
20
3.4381776
11
26.1366532
21
3.4650723
0
LINE
8
layer0
10
26.1366532
20
3.4650723
11
26.154194
21
3.5018276
0
LINE
8
layer0
10
26.154194
20
3.5018276
11
26.2937317
21
3.871888
0
LINE
8
layer0
10
26.2937317
20
3.871888
11
26.3454589
21
3.9990419
0
LINE
8
layer0
10
26.3454589
20
3.9990419
11
26.3987936
21
4.1255299
0
LINE
8
layer0
10
26.3987936
20
4.1255299
11
26.5617978
21
4.4858701
0
LINE
8
layer0
10
26.5617978
20
4.4858701
11
26.5753845
21
4.5242633
0
LINE
8
layer0
10
26.5753845
20
4.5242633
11
26.5800955
21
4.557587
0
LINE
8
layer0
10
26.5800955
20
4.557587
11
26.5792384
21
4.5929899
0
LINE
8
layer0
10
26.5792384
20
4.5929899
11
26.5727119
21
4.6302541
0
LINE
8
layer0
10
26.5727119
20
4.6302541
11
26.560469
21
4.6691608
0
LINE
8
layer0
10
26.560469
20
4.6691608
11
26.5185046
21
4.7509778
0
LINE
8
layer0
10
26.5185046
20
4.7509778
11
26.4528776
21
4.8366323
0
LINE
8
layer0
10
26.4528776
20
4.8366323
11
26.3632272
21
4.9242603
0
LINE
8
layer0
10
26.3632272
20
4.9242603
11
26.2492949
21
5.0120098
0
LINE
8
layer0
10
26.2492949
20
5.0120098
11
26.1109686
21
5.0979899
0
LINE
8
layer0
10
26.1109686
20
5.0979899
11
25.950794
21
5.1820226
0
LINE
8
layer0
10
25.950794
20
5.1820226
11
25.8591003
21
5.2443356
0
LINE
8
layer0
10
25.8591003
20
5.2443356
11
25.7106414
21
5.3642568
0
LINE
8
layer0
10
25.7106414
20
5.3642568
11
25.6192243
21
5.4477242
0
LINE
8
layer0
10
25.6192243
20
5.4477242
11
25.5174874
21
5.5487147
0
LINE
8
layer0
10
25.5174874
20
5.5487147
11
25.4058243
21
5.6691975
0
LINE
8
layer0
10
25.4058243
20
5.6691975
11
25.2876532
21
5.8078867
0
LINE
8
layer0
10
25.2876532
20
5.8078867
11
25.1616212
21
5.9689903
0
LINE
8
layer0
10
25.1616212
20
5.9689903
11
25.031745
21
6.1501844
0
LINE
8
layer0
10
25.031745
20
6.1501844
11
24.898162
21
6.3540746
0
LINE
8
layer0
10
24.898162
20
6.3540746
11
24.7637267
21
6.5792946
0
LINE
8
layer0
10
24.7637267
20
6.5792946
11
24.6293264
21
6.8274902
0
LINE
8
layer0
10
24.6293264
20
6.8274902
11
24.5056577
21
7.0801992
0
ARC
8
layer0
10
36.0000267
20
-0.0000183
40
13.5
50
144.1319323
51
148.3680646
0
LINE
8
layer0
10
25.0600545
20
7.9099126
11
25.3408532
21
7.8923653
0
LINE
8
layer0
10
25.3408532
20
7.8923653
11
25.6215887
21
7.8631759
0
LINE
8
layer0
10
25.6215887
20
7.8631759
11
25.881111
21
7.8251618
0
LINE
8
layer0
10
25.881111
20
7.8251618
11
26.120601
21
7.7797727
0
LINE
8
layer0
10
26.120601
20
7.7797727
11
26.337704
21
7.7291226
0
LINE
8
layer0
10
26.337704
20
7.7291226
11
26.5347747
21
7.674336
0
LINE
8
layer0
10
26.5347747
20
7.674336
11
26.708129
21
7.6182341
0
LINE
8
layer0
10
26.708129
20
7.6182341
11
26.8621722
21
7.5611777
0
LINE
8
layer0
10
26.8621722
20
7.5611777
11
26.9944082
21
7.5058324
0
LINE
8
layer0
10
26.9944082
20
7.5058324
11
27.1065059
21
7.4533156
0
LINE
8
layer0
10
27.1065059
20
7.4533156
11
27.2741114
21
7.3620493
0
LINE
8
layer0
10
27.2741114
20
7.3620493
11
27.3667707
21
7.3011816
0
LINE
8
layer0
10
27.3667707
20
7.3011816
11
27.505703
21
7.1853575
0
LINE
8
layer0
10
27.505703
20
7.1853575
11
27.6380734
21
7.0904638
0
LINE
8
layer0
10
27.6380734
20
7.0904638
11
27.7627434
21
7.0187843
0
LINE
8
layer0
10
27.7627434
20
7.0187843
11
27.8780089
21
6.9694919
0
LINE
8
layer0
10
27.8780089
20
6.9694919
11
27.9822576
21
6.941639
0
LINE
8
layer0
10
27.9822576
20
6.941639
11
28.0739057
21
6.934179
0
LINE
8
layer0
10
28.0739057
20
6.934179
11
28.1145361
21
6.937757
0
LINE
8
layer0
10
28.1145361
20
6.937757
11
28.1514612
21
6.9459877
0
LINE
8
layer0
10
28.1514612
20
6.9459877
11
28.1844972
21
6.9587439
0
LINE
8
layer0
10
28.1844972
20
6.9587439
11
28.2134815
21
6.9758488
0
LINE
8
layer0
10
28.2134815
20
6.9758488
11
28.2437528
21
7.0030936
0
LINE
8
layer0
10
28.2437528
20
7.0030936
11
28.5142848
21
7.2915861
0
LINE
8
layer0
10
28.5142848
20
7.2915861
11
28.6107341
21
7.3892659
0
LINE
8
layer0
10
28.6107341
20
7.3892659
11
28.7084139
21
7.4857152
0
LINE
8
layer0
10
28.7084139
20
7.4857152
11
28.9969064
21
7.7562472
0
LINE
8
layer0
10
28.9969064
20
7.7562472
11
29.0241512
21
7.7865185
0
LINE
8
layer0
10
29.0241512
20
7.7865185
11
29.0412561
21
7.8155028
0
LINE
8
layer0
10
29.0412561
20
7.8155028
11
29.0540123
21
7.8485388
0
LINE
8
layer0
10
29.0540123
20
7.8485388
11
29.062243
21
7.8854639
0
LINE
8
layer0
10
29.062243
20
7.8854639
11
29.065821
21
7.9260943
0
LINE
8
layer0
10
29.065821
20
7.9260943
11
29.058361
21
8.0177424
0
LINE
8
layer0
10
29.058361
20
8.0177424
11
29.0305081
21
8.1219911
0
LINE
8
layer0
10
29.0305081
20
8.1219911
11
28.9812157
21
8.2372566
0
LINE
8
layer0
10
28.9812157
20
8.2372566
11
28.9095362
21
8.3619266
0
LINE
8
layer0
10
28.9095362
20
8.3619266
11
28.8146425
21
8.494297
0
LINE
8
layer0
10
28.8146425
20
8.494297
11
28.6988184
21
8.6332293
0
LINE
8
layer0
10
28.6988184
20
8.6332293
11
28.6379507
21
8.7258886
0
LINE
8
layer0
10
28.6379507
20
8.7258886
11
28.5466844
21
8.8934941
0
LINE
8
layer0
10
28.5466844
20
8.8934941
11
28.4941676
21
9.0055918
0
LINE
8
layer0
10
28.4941676
20
9.0055918
11
28.4388223
21
9.1378278
0
LINE
8
layer0
10
28.4388223
20
9.1378278
11
28.3817659
21
9.291871
0
LINE
8
layer0
10
28.3817659
20
9.291871
11
28.325664
21
9.4652253
0
LINE
8
layer0
10
28.325664
20
9.4652253
11
28.2708774
21
9.662296
0
LINE
8
layer0
10
28.2708774
20
9.662296
11
28.2202273
21
9.879399
0
LINE
8
layer0
10
28.2202273
20
9.879399
11
28.1748382
21
10.118889
0
LINE
8
layer0
10
28.1748382
20
10.118889
11
28.1368241
21
10.3784113
0
LINE
8
layer0
10
28.1368241
20
10.3784113
11
28.1076347
21
10.6591468
0
LINE
8
layer0
10
28.1076347
20
10.6591468
11
28.0900874
21
10.9399455
0
ARC
8
layer0
10
36.0000183
20
-0.0000268
40
13.5
50
121.6319351
51
125.8680674
0
LINE
8
layer0
10
28.9198008
20
11.4943423
11
29.1725098
21
11.3706736
0
LINE
8
layer0
10
29.1725098
20
11.3706736
11
29.4207054
21
11.2362733
0
LINE
8
layer0
10
29.4207054
20
11.2362733
11
29.6459254
21
11.101838
0
LINE
8
layer0
10
29.6459254
20
11.101838
11
29.8498156
21
10.968255
0
LINE
8
layer0
10
29.8498156
20
10.968255
11
30.0310097
21
10.8383788
0
LINE
8
layer0
10
30.0310097
20
10.8383788
11
30.1921133
21
10.7123468
0
LINE
8
layer0
10
30.1921133
20
10.7123468
11
30.3308025
21
10.5941757
0
LINE
8
layer0
10
30.3308025
20
10.5941757
11
30.4512853
21
10.4825126
0
LINE
8
layer0
10
30.4512853
20
10.4825126
11
30.5522758
21
10.3807757
0
LINE
8
layer0
10
30.5522758
20
10.3807757
11
30.6357432
21
10.2893586
0
LINE
8
layer0
10
30.6357432
20
10.2893586
11
30.7556644
21
10.1408997
0
LINE
8
layer0
10
30.7556644
20
10.1408997
11
30.8179774
21
10.049206
0
LINE
8
layer0
10
30.8179774
20
10.049206
11
30.9020101
21
9.8890314
0
LINE
8
layer0
10
30.9020101
20
9.8890314
11
30.9879902
21
9.7507051
0
LINE
8
layer0
10
30.9879902
20
9.7507051
11
31.0757397
21
9.6367728
0
LINE
8
layer0
10
31.0757397
20
9.6367728
11
31.1633677
21
9.5471224
0
LINE
8
layer0
10
31.1633677
20
9.5471224
11
31.2490222
21
9.4814954
0
LINE
8
layer0
10
31.2490222
20
9.4814954
11
31.3308392
21
9.439531
0
LINE
8
layer0
10
31.3308392
20
9.439531
11
31.3697459
21
9.4272881
0
LINE
8
layer0
10
31.3697459
20
9.4272881
11
31.4070101
21
9.4207616
0
LINE
8
layer0
10
31.4070101
20
9.4207616
11
31.442413
21
9.4199045
0
LINE
8
layer0
10
31.442413
20
9.4199045
11
31.4757367
21
9.4246155
0
LINE
8
layer0
10
31.4757367
20
9.4246155
11
31.5141299
21
9.4382022
0
LINE
8
layer0
10
31.5141299
20
9.4382022
11
31.8744701
21
9.6012064
0
LINE
8
layer0
10
31.8744701
20
9.6012064
11
32.0009581
21
9.6545411
0
LINE
8
layer0
10
32.0009581
20
9.6545411
11
32.128112
21
9.7062683
0
LINE
8
layer0
10
32.128112
20
9.7062683
11
32.4981724
21
9.845806
0
LINE
8
layer0
10
32.4981724
20
9.845806
11
32.5349277
21
9.8633468
0
LINE
8
layer0
10
32.5349277
20
9.8633468
11
32.5618224
21
9.883579
0
LINE
8
layer0
10
32.5618224
20
9.883579
11
32.5862499
21
9.9092188
0
LINE
8
layer0
10
32.5862499
20
9.9092188
11
32.6079847
21
9.9401834
0
LINE
8
layer0
10
32.6079847
20
9.9401834
11
32.6268389
21
9.9763517
0
LINE
8
layer0
10
32.6268389
20
9.9763517
11
32.655019
21
10.0638783
0
LINE
8
layer0
10
32.655019
20
10.0638783
11
32.6691805
21
10.1708505
0
LINE
8
layer0
10
32.6691805
20
10.1708505
11
32.6677504
21
10.2962053
0
LINE
8
layer0
10
32.6677504
20
10.2962053
11
32.6492364
21
10.4388158
0
LINE
8
layer0
10
32.6492364
20
10.4388158
11
32.612222
21
10.5974244
0
LINE
8
layer0
10
32.612222
20
10.5974244
11
32.5583816
21
10.7701051
0
LINE
8
layer0
10
32.5583816
20
10.7701051
11
32.5376063
21
10.8790042
0
LINE
8
layer0
10
32.5376063
20
10.8790042
11
32.5174271
21
11.0687776
0
LINE
8
layer0
10
32.5174271
20
11.0687776
11
32.5118058
21
11.1924396
0
LINE
8
layer0
10
32.5118058
20
11.1924396
11
32.511278
21
11.3357895
0
LINE
8
layer0
10
32.511278
20
11.3357895
11
32.5175145
21
11.4999414
0
LINE
8
layer0
10
32.5175145
20
11.4999414
11
32.532023
21
11.6815692
0
LINE
8
layer0
10
32.532023
20
11.6815692
11
32.5568224
21
11.8846046
0
LINE
8
layer0
10
32.5568224
20
11.8846046
11
32.5931096
21
12.1045646
0
LINE
8
layer0
10
32.5931096
20
12.1045646
11
32.6428243
21
12.3431942
0
LINE
8
layer0
10
32.6428243
20
12.3431942
11
32.7070188
21
12.5975089
0
LINE
8
layer0
10
32.7070188
20
12.5975089
11
32.7874842
21
12.868045
0
LINE
8
layer0
10
32.7874842
20
12.868045
11
32.8787295
21
13.1341843
0
ARC
8
layer0
10
36.0000068
20
-0.0000316
40
13.5
50
99.131936
51
103.3680683
0
LINE
8
layer0
10
33.8574432
20
13.3288625
11
34.04359
21
13.1179
0
LINE
8
layer0
10
34.04359
20
13.1179
11
34.22146
21
12.89875
0
LINE
8
layer0
10
34.22146
20
12.89875
11
34.37809
21
12.68836
0
LINE
8
layer0
10
34.37809
20
12.68836
11
34.51534
21
12.48692
0
LINE
8
layer0
10
34.51534
20
12.48692
11
34.63304
21
12.29759
0
LINE
8
layer0
10
34.63304
20
12.29759
11
34.73365
21
12.1195
0
LINE
8
layer0
10
34.73365
20
12.1195
11
34.81656
21
11.95725
0
LINE
8
layer0
10
34.81656
20
11.95725
11
34.88514
21
11.80798
0
LINE
8
layer0
10
34.88514
20
11.80798
11
34.93951
21
11.67534
0
LINE
8
layer0
10
34.93951
20
11.67534
11
34.98164
21
11.55894
0
LINE
8
layer0
10
34.98164
20
11.55894
11
35.03562
21
11.37589
0
LINE
8
layer0
10
35.03562
20
11.37589
11
35.0581
21
11.26733
0
LINE
8
layer0
10
35.0581
20
11.26733
11
35.07444
21
11.08719
0
LINE
8
layer0
10
35.07444
20
11.08719
11
35.10094
21
10.92649
0
LINE
8
layer0
10
35.10094
20
10.92649
11
35.13841
21
10.78765
0
LINE
8
layer0
10
35.13841
20
10.78765
11
35.18506
21
10.67129
0
LINE
8
layer0
10
35.18506
20
10.67129
11
35.23908
21
10.57788
0
LINE
8
layer0
10
35.23908
20
10.57788
11
35.29861
21
10.5078
0
LINE
8
layer0
10
35.29861
20
10.5078
11
35.32987
21
10.4816
0
LINE
8
layer0
10
35.32987
20
10.4816
11
35.3618
21
10.46131
0
LINE
8
layer0
10
35.3618
20
10.46131
11
35.39418
21
10.44697
0
LINE
8
layer0
10
35.39418
20
10.44697
11
35.42677
21
10.43857
0
LINE
8
layer0
10
35.42677
20
10.43857
11
35.46744
21
10.43643
0
LINE
8
layer0
10
35.46744
20
10.43643
11
35.86273
21
10.44913
0
LINE
8
layer0
10
35.86273
20
10.44913
11
36
21
10.45
0
LINE
8
layer0
10
36
20
10.45
11
36.13727
21
10.44913
0
LINE
8
layer0
10
36.13727
20
10.44913
11
36.53256
21
10.43643
0
LINE
8
layer0
10
36.53256
20
10.43643
11
36.57323
21
10.43857
0
LINE
8
layer0
10
36.57323
20
10.43857
11
36.60582
21
10.44697
0
LINE
8
layer0
10
36.60582
20
10.44697
11
36.6382
21
10.46131
0
LINE
8
layer0
10
36.6382
20
10.46131
11
36.67013
21
10.4816
0
LINE
8
layer0
10
36.67013
20
10.4816
11
36.70139
21
10.5078
0
LINE
8
layer0
10
36.70139
20
10.5078
11
36.76092
21
10.57788
0
LINE
8
layer0
10
36.76092
20
10.57788
11
36.81494
21
10.67129
0
LINE
8
layer0
10
36.81494
20
10.67129
11
36.86159
21
10.78765
0
LINE
8
layer0
10
36.86159
20
10.78765
11
36.89906
21
10.92649
0
LINE
8
layer0
10
36.89906
20
10.92649
11
36.92556
21
11.08719
0
LINE
8
layer0
10
36.92556
20
11.08719
11
36.9419
21
11.26733
0
LINE
8
layer0
10
36.9419
20
11.26733
11
36.96438
21
11.37589
0
LINE
8
layer0
10
36.96438
20
11.37589
11
37.01836
21
11.55894
0
LINE
8
layer0
10
37.01836
20
11.55894
11
37.06049
21
11.67534
0
LINE
8
layer0
10
37.06049
20
11.67534
11
37.11486
21
11.80798
0
LINE
8
layer0
10
37.11486
20
11.80798
11
37.18344
21
11.95725
0
LINE
8
layer0
10
37.18344
20
11.95725
11
37.26635
21
12.1195
0
LINE
8
layer0
10
37.26635
20
12.1195
11
37.36696
21
12.29759
0
LINE
8
layer0
10
37.36696
20
12.29759
11
37.48466
21
12.48692
0
LINE
8
layer0
10
37.48466
20
12.48692
11
37.62191
21
12.68836
0
LINE
8
layer0
10
37.62191
20
12.68836
11
37.77854
21
12.89875
0
LINE
8
layer0
10
37.77854
20
12.89875
11
37.95641
21
13.1179
0
LINE
8
layer0
10
37.95641
20
13.1179
11
38.1425568
21
13.3288625
0
ARC
8
layer0
10
35.9999931
20
-0.0000317
40
13.5
50
76.6319313
51
80.8680636
0
LINE
8
layer0
10
39.1212705
20
13.1341843
11
39.2125158
21
12.868045
0
LINE
8
layer0
10
39.2125158
20
12.868045
11
39.2929812
21
12.5975089
0
LINE
8
layer0
10
39.2929812
20
12.5975089
11
39.3571757
21
12.3431942
0
LINE
8
layer0
10
39.3571757
20
12.3431942
11
39.4068904
21
12.1045646
0
LINE
8
layer0
10
39.4068904
20
12.1045646
11
39.4431776
21
11.8846046
0
LINE
8
layer0
10
39.4431776
20
11.8846046
11
39.467977
21
11.6815692
0
LINE
8
layer0
10
39.467977
20
11.6815692
11
39.4824855
21
11.4999414
0
LINE
8
layer0
10
39.4824855
20
11.4999414
11
39.488722
21
11.3357895
0
LINE
8
layer0
10
39.488722
20
11.3357895
11
39.4881942
21
11.1924396
0
LINE
8
layer0
10
39.4881942
20
11.1924396
11
39.4825729
21
11.0687776
0
LINE
8
layer0
10
39.4825729
20
11.0687776
11
39.4623937
21
10.8790042
0
LINE
8
layer0
10
39.4623937
20
10.8790042
11
39.4416184
21
10.7701051
0
LINE
8
layer0
10
39.4416184
20
10.7701051
11
39.387778
21
10.5974244
0
LINE
8
layer0
10
39.387778
20
10.5974244
11
39.3507636
21
10.4388158
0
LINE
8
layer0
10
39.3507636
20
10.4388158
11
39.3322496
21
10.2962053
0
LINE
8
layer0
10
39.3322496
20
10.2962053
11
39.3308195
21
10.1708505
0
LINE
8
layer0
10
39.3308195
20
10.1708505
11
39.344981
21
10.0638783
0
LINE
8
layer0
10
39.344981
20
10.0638783
11
39.3731611
21
9.9763517
0
LINE
8
layer0
10
39.3731611
20
9.9763517
11
39.3920153
21
9.9401834
0
LINE
8
layer0
10
39.3920153
20
9.9401834
11
39.4137501
21
9.9092188
0
LINE
8
layer0
10
39.4137501
20
9.9092188
11
39.4381776
21
9.883579
0
LINE
8
layer0
10
39.4381776
20
9.883579
11
39.4650723
21
9.8633468
0
LINE
8
layer0
10
39.4650723
20
9.8633468
11
39.5018276
21
9.845806
0
LINE
8
layer0
10
39.5018276
20
9.845806
11
39.871888
21
9.7062683
0
LINE
8
layer0
10
39.871888
20
9.7062683
11
39.9990419
21
9.6545411
0
LINE
8
layer0
10
39.9990419
20
9.6545411
11
40.1255299
21
9.6012064
0
LINE
8
layer0
10
40.1255299
20
9.6012064
11
40.4858701
21
9.4382022
0
LINE
8
layer0
10
40.4858701
20
9.4382022
11
40.5242633
21
9.4246155
0
LINE
8
layer0
10
40.5242633
20
9.4246155
11
40.557587
21
9.4199045
0
LINE
8
layer0
10
40.557587
20
9.4199045
11
40.5929899
21
9.4207616
0
LINE
8
layer0
10
40.5929899
20
9.4207616
11
40.6302541
21
9.4272881
0
LINE
8
layer0
10
40.6302541
20
9.4272881
11
40.6691608
21
9.439531
0
LINE
8
layer0
10
40.6691608
20
9.439531
11
40.7509778
21
9.4814954
0
LINE
8
layer0
10
40.7509778
20
9.4814954
11
40.8366323
21
9.5471224
0
LINE
8
layer0
10
40.8366323
20
9.5471224
11
40.9242603
21
9.6367728
0
LINE
8
layer0
10
40.9242603
20
9.6367728
11
41.0120098
21
9.7507051
0
LINE
8
layer0
10
41.0120098
20
9.7507051
11
41.0979899
21
9.8890314
0
LINE
8
layer0
10
41.0979899
20
9.8890314
11
41.1820226
21
10.049206
0
LINE
8
layer0
10
41.1820226
20
10.049206
11
41.2443356
21
10.1408997
0
LINE
8
layer0
10
41.2443356
20
10.1408997
11
41.3642568
21
10.2893586
0
LINE
8
layer0
10
41.3642568
20
10.2893586
11
41.4477242
21
10.3807757
0
LINE
8
layer0
10
41.4477242
20
10.3807757
11
41.5487147
21
10.4825126
0
LINE
8
layer0
10
41.5487147
20
10.4825126
11
41.6691975
21
10.5941757
0
LINE
8
layer0
10
41.6691975
20
10.5941757
11
41.8078867
21
10.7123468
0
LINE
8
layer0
10
41.8078867
20
10.7123468
11
41.9689903
21
10.8383788
0
LINE
8
layer0
10
41.9689903
20
10.8383788
11
42.1501844
21
10.968255
0
LINE
8
layer0
10
42.1501844
20
10.968255
11
42.3540746
21
11.101838
0
LINE
8
layer0
10
42.3540746
20
11.101838
11
42.5792946
21
11.2362733
0
LINE
8
layer0
10
42.5792946
20
11.2362733
11
42.8274902
21
11.3706736
0
LINE
8
layer0
10
42.8274902
20
11.3706736
11
43.0801992
21
11.4943423
0
ARC
8
layer0
10
35.9999817
20
-0.0000267
40
13.5
50
54.1319323
51
58.3680646
0
LINE
8
layer0
10
43.9099126
20
10.9399455
11
43.8923653
21
10.6591468
0
LINE
8
layer0
10
43.8923653
20
10.6591468
11
43.8631759
21
10.3784113
0
LINE
8
layer0
10
43.8631759
20
10.3784113
11
43.8251618
21
10.118889
0
LINE
8
layer0
10
43.8251618
20
10.118889
11
43.7797727
21
9.879399
0
LINE
8
layer0
10
43.7797727
20
9.879399
11
43.7291226
21
9.662296
0
LINE
8
layer0
10
43.7291226
20
9.662296
11
43.674336
21
9.4652253
0
LINE
8
layer0
10
43.674336
20
9.4652253
11
43.6182341
21
9.291871
0
LINE
8
layer0
10
43.6182341
20
9.291871
11
43.5611777
21
9.1378278
0
LINE
8
layer0
10
43.5611777
20
9.1378278
11
43.5058324
21
9.0055918
0
LINE
8
layer0
10
43.5058324
20
9.0055918
11
43.4533156
21
8.8934941
0
LINE
8
layer0
10
43.4533156
20
8.8934941
11
43.3620493
21
8.7258886
0
LINE
8
layer0
10
43.3620493
20
8.7258886
11
43.3011816
21
8.6332293
0
LINE
8
layer0
10
43.3011816
20
8.6332293
11
43.1853575
21
8.494297
0
LINE
8
layer0
10
43.1853575
20
8.494297
11
43.0904638
21
8.3619266
0
LINE
8
layer0
10
43.0904638
20
8.3619266
11
43.0187843
21
8.2372566
0
LINE
8
layer0
10
43.0187843
20
8.2372566
11
42.9694919
21
8.1219911
0
LINE
8
layer0
10
42.9694919
20
8.1219911
11
42.941639
21
8.0177424
0
LINE
8
layer0
10
42.941639
20
8.0177424
11
42.934179
21
7.9260943
0
LINE
8
layer0
10
42.934179
20
7.9260943
11
42.937757
21
7.8854639
0
LINE
8
layer0
10
42.937757
20
7.8854639
11
42.9459877
21
7.8485388
0
LINE
8
layer0
10
42.9459877
20
7.8485388
11
42.9587439
21
7.8155028
0
LINE
8
layer0
10
42.9587439
20
7.8155028
11
42.9758488
21
7.7865185
0
LINE
8
layer0
10
42.9758488
20
7.7865185
11
43.0030936
21
7.7562472
0
LINE
8
layer0
10
43.0030936
20
7.7562472
11
43.2915861
21
7.4857152
0
LINE
8
layer0
10
43.2915861
20
7.4857152
11
43.3892659
21
7.3892659
0
LINE
8
layer0
10
43.3892659
20
7.3892659
11
43.4857152
21
7.2915861
0
LINE
8
layer0
10
43.4857152
20
7.2915861
11
43.7562472
21
7.0030936
0
LINE
8
layer0
10
43.7562472
20
7.0030936
11
43.7865185
21
6.9758488
0
LINE
8
layer0
10
43.7865185
20
6.9758488
11
43.8155028
21
6.9587439
0
LINE
8
layer0
10
43.8155028
20
6.9587439
11
43.8485388
21
6.9459877
0
LINE
8
layer0
10
43.8485388
20
6.9459877
11
43.8854639
21
6.937757
0
LINE
8
layer0
10
43.8854639
20
6.937757
11
43.9260943
21
6.934179
0
LINE
8
layer0
10
43.9260943
20
6.934179
11
44.0177424
21
6.941639
0
LINE
8
layer0
10
44.0177424
20
6.941639
11
44.1219911
21
6.9694919
0
LINE
8
layer0
10
44.1219911
20
6.9694919
11
44.2372566
21
7.0187843
0
LINE
8
layer0
10
44.2372566
20
7.0187843
11
44.3619266
21
7.0904638
0
LINE
8
layer0
10
44.3619266
20
7.0904638
11
44.494297
21
7.1853575
0
LINE
8
layer0
10
44.494297
20
7.1853575
11
44.6332293
21
7.3011816
0
LINE
8
layer0
10
44.6332293
20
7.3011816
11
44.7258886
21
7.3620493
0
LINE
8
layer0
10
44.7258886
20
7.3620493
11
44.8934941
21
7.4533156
0
LINE
8
layer0
10
44.8934941
20
7.4533156
11
45.0055918
21
7.5058324
0
LINE
8
layer0
10
45.0055918
20
7.5058324
11
45.1378278
21
7.5611777
0
LINE
8
layer0
10
45.1378278
20
7.5611777
11
45.291871
21
7.6182341
0
LINE
8
layer0
10
45.291871
20
7.6182341
11
45.4652253
21
7.674336
0
LINE
8
layer0
10
45.4652253
20
7.674336
11
45.662296
21
7.7291226
0
LINE
8
layer0
10
45.662296
20
7.7291226
11
45.879399
21
7.7797727
0
LINE
8
layer0
10
45.879399
20
7.7797727
11
46.118889
21
7.8251618
0
LINE
8
layer0
10
46.118889
20
7.8251618
11
46.3784113
21
7.8631759
0
LINE
8
layer0
10
46.3784113
20
7.8631759
11
46.6591468
21
7.8923653
0
LINE
8
layer0
10
46.6591468
20
7.8923653
11
46.9399455
21
7.9099126
0
ARC
8
layer0
10
35.9999732
20
-0.0000183
40
13.5
50
31.6319351
51
35.8680674
0
LINE
8
layer0
10
47.4943423
20
7.0801992
11
47.3706736
21
6.8274902
0
LINE
8
layer0
10
47.3706736
20
6.8274902
11
47.2362733
21
6.5792946
0
LINE
8
layer0
10
47.2362733
20
6.5792946
11
47.101838
21
6.3540746
0
LINE
8
layer0
10
47.101838
20
6.3540746
11
46.968255
21
6.1501844
0
LINE
8
layer0
10
46.968255
20
6.1501844
11
46.8383788
21
5.9689903
0
LINE
8
layer0
10
46.8383788
20
5.9689903
11
46.7123468
21
5.8078867
0
LINE
8
layer0
10
46.7123468
20
5.8078867
11
46.5941757
21
5.6691975
0
LINE
8
layer0
10
46.5941757
20
5.6691975
11
46.4825126
21
5.5487147
0
LINE
8
layer0
10
46.4825126
20
5.5487147
11
46.3807757
21
5.4477242
0
LINE
8
layer0
10
46.3807757
20
5.4477242
11
46.2893586
21
5.3642568
0
LINE
8
layer0
10
46.2893586
20
5.3642568
11
46.1408997
21
5.2443356
0
LINE
8
layer0
10
46.1408997
20
5.2443356
11
46.049206
21
5.1820226
0
LINE
8
layer0
10
46.049206
20
5.1820226
11
45.8890314
21
5.0979899
0
LINE
8
layer0
10
45.8890314
20
5.0979899
11
45.7507051
21
5.0120098
0
LINE
8
layer0
10
45.7507051
20
5.0120098
11
45.6367728
21
4.9242603
0
LINE
8
layer0
10
45.6367728
20
4.9242603
11
45.5471224
21
4.8366323
0
LINE
8
layer0
10
45.5471224
20
4.8366323
11
45.4814954
21
4.7509778
0
LINE
8
layer0
10
45.4814954
20
4.7509778
11
45.439531
21
4.6691608
0
LINE
8
layer0
10
45.439531
20
4.6691608
11
45.4272881
21
4.6302541
0
LINE
8
layer0
10
45.4272881
20
4.6302541
11
45.4207616
21
4.5929899
0
LINE
8
layer0
10
45.4207616
20
4.5929899
11
45.4199045
21
4.557587
0
LINE
8
layer0
10
45.4199045
20
4.557587
11
45.4246155
21
4.5242633
0
LINE
8
layer0
10
45.4246155
20
4.5242633
11
45.4382022
21
4.4858701
0
LINE
8
layer0
10
45.4382022
20
4.4858701
11
45.6012064
21
4.1255299
0
LINE
8
layer0
10
45.6012064
20
4.1255299
11
45.6545411
21
3.9990419
0
LINE
8
layer0
10
45.6545411
20
3.9990419
11
45.7062683
21
3.871888
0
LINE
8
layer0
10
45.7062683
20
3.871888
11
45.845806
21
3.5018276
0
LINE
8
layer0
10
45.845806
20
3.5018276
11
45.8633468
21
3.4650723
0
LINE
8
layer0
10
45.8633468
20
3.4650723
11
45.883579
21
3.4381776
0
LINE
8
layer0
10
45.883579
20
3.4381776
11
45.9092188
21
3.4137501
0
LINE
8
layer0
10
45.9092188
20
3.4137501
11
45.9401834
21
3.3920153
0
LINE
8
layer0
10
45.9401834
20
3.3920153
11
45.9763517
21
3.3731611
0
LINE
8
layer0
10
45.9763517
20
3.3731611
11
46.0638783
21
3.344981
0
LINE
8
layer0
10
46.0638783
20
3.344981
11
46.1708505
21
3.3308195
0
LINE
8
layer0
10
46.1708505
20
3.3308195
11
46.2962053
21
3.3322496
0
LINE
8
layer0
10
46.2962053
20
3.3322496
11
46.4388158
21
3.3507636
0
LINE
8
layer0
10
46.4388158
20
3.3507636
11
46.5974244
21
3.387778
0
LINE
8
layer0
10
46.5974244
20
3.387778
11
46.7701051
21
3.4416184
0
LINE
8
layer0
10
46.7701051
20
3.4416184
11
46.8790042
21
3.4623937
0
LINE
8
layer0
10
46.8790042
20
3.4623937
11
47.0687776
21
3.4825729
0
LINE
8
layer0
10
47.0687776
20
3.4825729
11
47.1924396
21
3.4881942
0
LINE
8
layer0
10
47.1924396
20
3.4881942
11
47.3357895
21
3.488722
0
LINE
8
layer0
10
47.3357895
20
3.488722
11
47.4999414
21
3.4824855
0
LINE
8
layer0
10
47.4999414
20
3.4824855
11
47.6815692
21
3.467977
0
LINE
8
layer0
10
47.6815692
20
3.467977
11
47.8846046
21
3.4431776
0
LINE
8
layer0
10
47.8846046
20
3.4431776
11
48.1045646
21
3.4068904
0
LINE
8
layer0
10
48.1045646
20
3.4068904
11
48.3431942
21
3.3571757
0
LINE
8
layer0
10
48.3431942
20
3.3571757
11
48.5975089
21
3.2929812
0
LINE
8
layer0
10
48.5975089
20
3.2929812
11
48.868045
21
3.2125158
0
LINE
8
layer0
10
48.868045
20
3.2125158
11
49.1341843
21
3.1212705
0
ARC
8
layer0
10
35.9999684
20
-0.0000068
40
13.5
50
9.131936
51
13.3680683
0
LINE
8
layer0
10
49.3288625
20
2.1425568
11
49.1179
21
1.95641
0
LINE
8
layer0
10
49.1179
20
1.95641
11
48.89875
21
1.77854
0
LINE
8
layer0
10
48.89875
20
1.77854
11
48.68836
21
1.62191
0
LINE
8
layer0
10
48.68836
20
1.62191
11
48.48692
21
1.48466
0
LINE
8
layer0
10
48.48692
20
1.48466
11
48.29759
21
1.36696
0
LINE
8
layer0
10
48.29759
20
1.36696
11
48.1195
21
1.26635
0
LINE
8
layer0
10
48.1195
20
1.26635
11
47.95725
21
1.18344
0
LINE
8
layer0
10
47.95725
20
1.18344
11
47.80798
21
1.11486
0
LINE
8
layer0
10
47.80798
20
1.11486
11
47.67534
21
1.06049
0
LINE
8
layer0
10
47.67534
20
1.06049
11
47.55894
21
1.01836
0
LINE
8
layer0
10
47.55894
20
1.01836
11
47.37589
21
0.96438
0
LINE
8
layer0
10
47.37589
20
0.96438
11
47.26733
21
0.9419
0
LINE
8
layer0
10
47.26733
20
0.9419
11
47.08719
21
0.92556
0
LINE
8
layer0
10
47.08719
20
0.92556
11
46.92649
21
0.89906
0
LINE
8
layer0
10
46.92649
20
0.89906
11
46.78765
21
0.86159
0
LINE
8
layer0
10
46.78765
20
0.86159
11
46.67129
21
0.81494
0
LINE
8
layer0
10
46.67129
20
0.81494
11
46.57788
21
0.76092
0
LINE
8
layer0
10
46.57788
20
0.76092
11
46.5078
21
0.70139
0
LINE
8
layer0
10
46.5078
20
0.70139
11
46.4816
21
0.67013
0
LINE
8
layer0
10
46.4816
20
0.67013
11
46.46131
21
0.6382
0
LINE
8
layer0
10
46.46131
20
0.6382
11
46.44697
21
0.60582
0
LINE
8
layer0
10
46.44697
20
0.60582
11
46.43857
21
0.57323
0
LINE
8
layer0
10
46.43857
20
0.57323
11
46.43643
21
0.53256
0
LINE
8
layer0
10
46.43643
20
0.53256
11
46.44913
21
0.13727
0
LINE
8
layer0
10
46.44913
20
0.13727
11
46.45
21
0
0
LINE
8
layer0
10
46.45
20
0
11
46.44913
21
-0.13727
0
LINE
8
layer0
10
46.44913
20
-0.13727
11
46.43643
21
-0.53256
0
LINE
8
layer0
10
46.43643
20
-0.53256
11
46.43857
21
-0.57323
0
LINE
8
layer0
10
46.43857
20
-0.57323
11
46.44697
21
-0.60582
0
LINE
8
layer0
10
46.44697
20
-0.60582
11
46.46131
21
-0.6382
0
LINE
8
layer0
10
46.46131
20
-0.6382
11
46.4816
21
-0.67013
0
LINE
8
layer0
10
46.4816
20
-0.67013
11
46.5078
21
-0.70139
0
LINE
8
layer0
10
46.5078
20
-0.70139
11
46.57788
21
-0.76092
0
LINE
8
layer0
10
46.57788
20
-0.76092
11
46.67129
21
-0.81494
0
LINE
8
layer0
10
46.67129
20
-0.81494
11
46.78765
21
-0.86159
0
LINE
8
layer0
10
46.78765
20
-0.86159
11
46.92649
21
-0.89906
0
LINE
8
layer0
10
46.92649
20
-0.89906
11
47.08719
21
-0.92556
0
LINE
8
layer0
10
47.08719
20
-0.92556
11
47.26733
21
-0.9419
0
LINE
8
layer0
10
47.26733
20
-0.9419
11
47.37589
21
-0.96438
0
LINE
8
layer0
10
47.37589
20
-0.96438
11
47.55894
21
-1.01836
0
LINE
8
layer0
10
47.55894
20
-1.01836
11
47.67534
21
-1.06049
0
LINE
8
layer0
10
47.67534
20
-1.06049
11
47.80798
21
-1.11486
0
LINE
8
layer0
10
47.80798
20
-1.11486
11
47.95725
21
-1.18344
0
LINE
8
layer0
10
47.95725
20
-1.18344
11
48.1195
21
-1.26635
0
LINE
8
layer0
10
48.1195
20
-1.26635
11
48.29759
21
-1.36696
0
LINE
8
layer0
10
48.29759
20
-1.36696
11
48.48692
21
-1.48466
0
LINE
8
layer0
10
48.48692
20
-1.48466
11
48.68836
21
-1.62191
0
LINE
8
layer0
10
48.68836
20
-1.62191
11
48.89875
21
-1.77854
0
LINE
8
layer0
10
48.89875
20
-1.77854
11
49.1179
21
-1.95641
0
LINE
8
layer0
10
49.1179
20
-1.95641
11
49.3288625
21
-2.1425568
0
ARC
8
layer0
10
35.9999683
20
0.0000069
40
13.5
50
346.6319313
51
350.8680636
0
LINE
8
layer0
10
49.1341843
20
-3.1212705
11
48.868045
21
-3.2125158
0
LINE
8
layer0
10
48.868045
20
-3.2125158
11
48.5975089
21
-3.2929812
0
LINE
8
layer0
10
48.5975089
20
-3.2929812
11
48.3431942
21
-3.3571757
0
LINE
8
layer0
10
48.3431942
20
-3.3571757
11
48.1045646
21
-3.4068904
0
LINE
8
layer0
10
48.1045646
20
-3.4068904
11
47.8846046
21
-3.4431776
0
LINE
8
layer0
10
47.8846046
20
-3.4431776
11
47.6815692
21
-3.467977
0
LINE
8
layer0
10
47.6815692
20
-3.467977
11
47.4999414
21
-3.4824855
0
LINE
8
layer0
10
47.4999414
20
-3.4824855
11
47.3357895
21
-3.488722
0
LINE
8
layer0
10
47.3357895
20
-3.488722
11
47.1924396
21
-3.4881942
0
LINE
8
layer0
10
47.1924396
20
-3.4881942
11
47.0687776
21
-3.4825729
0
LINE
8
layer0
10
47.0687776
20
-3.4825729
11
46.8790042
21
-3.4623937
0
LINE
8
layer0
10
46.8790042
20
-3.4623937
11
46.7701051
21
-3.4416184
0
LINE
8
layer0
10
46.7701051
20
-3.4416184
11
46.5974244
21
-3.387778
0
LINE
8
layer0
10
46.5974244
20
-3.387778
11
46.4388158
21
-3.3507636
0
LINE
8
layer0
10
46.4388158
20
-3.3507636
11
46.2962053
21
-3.3322496
0
LINE
8
layer0
10
46.2962053
20
-3.3322496
11
46.1708505
21
-3.3308195
0
LINE
8
layer0
10
46.1708505
20
-3.3308195
11
46.0638783
21
-3.344981
0
LINE
8
layer0
10
46.0638783
20
-3.344981
11
45.9763517
21
-3.3731611
0
LINE
8
layer0
10
45.9763517
20
-3.3731611
11
45.9401834
21
-3.3920153
0
LINE
8
layer0
10
45.9401834
20
-3.3920153
11
45.9092188
21
-3.4137501
0
LINE
8
layer0
10
45.9092188
20
-3.4137501
11
45.883579
21
-3.4381776
0
LINE
8
layer0
10
45.883579
20
-3.4381776
11
45.8633468
21
-3.4650723
0
LINE
8
layer0
10
45.8633468
20
-3.4650723
11
45.845806
21
-3.5018276
0
LINE
8
layer0
10
45.845806
20
-3.5018276
11
45.7062683
21
-3.871888
0
LINE
8
layer0
10
45.7062683
20
-3.871888
11
45.6545411
21
-3.9990419
0
LINE
8
layer0
10
45.6545411
20
-3.9990419
11
45.6012064
21
-4.1255299
0
LINE
8
layer0
10
45.6012064
20
-4.1255299
11
45.4382022
21
-4.4858701
0
LINE
8
layer0
10
45.4382022
20
-4.4858701
11
45.4246155
21
-4.5242633
0
LINE
8
layer0
10
45.4246155
20
-4.5242633
11
45.4199045
21
-4.557587
0
LINE
8
layer0
10
45.4199045
20
-4.557587
11
45.4207616
21
-4.5929899
0
LINE
8
layer0
10
45.4207616
20
-4.5929899
11
45.4272881
21
-4.6302541
0
LINE
8
layer0
10
45.4272881
20
-4.6302541
11
45.439531
21
-4.6691608
0
LINE
8
layer0
10
45.439531
20
-4.6691608
11
45.4814954
21
-4.7509778
0
LINE
8
layer0
10
45.4814954
20
-4.7509778
11
45.5471224
21
-4.8366323
0
LINE
8
layer0
10
45.5471224
20
-4.8366323
11
45.6367728
21
-4.9242603
0
LINE
8
layer0
10
45.6367728
20
-4.9242603
11
45.7507051
21
-5.0120098
0
LINE
8
layer0
10
45.7507051
20
-5.0120098
11
45.8890314
21
-5.0979899
0
LINE
8
layer0
10
45.8890314
20
-5.0979899
11
46.049206
21
-5.1820226
0
LINE
8
layer0
10
46.049206
20
-5.1820226
11
46.1408997
21
-5.2443356
0
LINE
8
layer0
10
46.1408997
20
-5.2443356
11
46.2893586
21
-5.3642568
0
LINE
8
layer0
10
46.2893586
20
-5.3642568
11
46.3807757
21
-5.4477242
0
LINE
8
layer0
10
46.3807757
20
-5.4477242
11
46.4825126
21
-5.5487147
0
LINE
8
layer0
10
46.4825126
20
-5.5487147
11
46.5941757
21
-5.6691975
0
LINE
8
layer0
10
46.5941757
20
-5.6691975
11
46.7123468
21
-5.8078867
0
LINE
8
layer0
10
46.7123468
20
-5.8078867
11
46.8383788
21
-5.9689903
0
LINE
8
layer0
10
46.8383788
20
-5.9689903
11
46.968255
21
-6.1501844
0
LINE
8
layer0
10
46.968255
20
-6.1501844
11
47.101838
21
-6.3540746
0
LINE
8
layer0
10
47.101838
20
-6.3540746
11
47.2362733
21
-6.5792946
0
LINE
8
layer0
10
47.2362733
20
-6.5792946
11
47.3706736
21
-6.8274902
0
LINE
8
layer0
10
47.3706736
20
-6.8274902
11
47.4943423
21
-7.0801992
0
ARC
8
layer0
10
35.9999733
20
0.0000183
40
13.5
50
324.1319323
51
328.3680646
0
LINE
8
layer0
10
46.9399455
20
-7.9099126
11
46.6591468
21
-7.8923653
0
LINE
8
layer0
10
46.6591468
20
-7.8923653
11
46.3784113
21
-7.8631759
0
LINE
8
layer0
10
46.3784113
20
-7.8631759
11
46.118889
21
-7.8251618
0
LINE
8
layer0
10
46.118889
20
-7.8251618
11
45.879399
21
-7.7797727
0
LINE
8
layer0
10
45.879399
20
-7.7797727
11
45.662296
21
-7.7291226
0
LINE
8
layer0
10
45.662296
20
-7.7291226
11
45.4652253
21
-7.674336
0
LINE
8
layer0
10
45.4652253
20
-7.674336
11
45.291871
21
-7.6182341
0
LINE
8
layer0
10
45.291871
20
-7.6182341
11
45.1378278
21
-7.5611777
0
LINE
8
layer0
10
45.1378278
20
-7.5611777
11
45.0055918
21
-7.5058324
0
LINE
8
layer0
10
45.0055918
20
-7.5058324
11
44.8934941
21
-7.4533156
0
LINE
8
layer0
10
44.8934941
20
-7.4533156
11
44.7258886
21
-7.3620493
0
LINE
8
layer0
10
44.7258886
20
-7.3620493
11
44.6332293
21
-7.3011816
0
LINE
8
layer0
10
44.6332293
20
-7.3011816
11
44.494297
21
-7.1853575
0
LINE
8
layer0
10
44.494297
20
-7.1853575
11
44.3619266
21
-7.0904638
0
LINE
8
layer0
10
44.3619266
20
-7.0904638
11
44.2372566
21
-7.0187843
0
LINE
8
layer0
10
44.2372566
20
-7.0187843
11
44.1219911
21
-6.9694919
0
LINE
8
layer0
10
44.1219911
20
-6.9694919
11
44.0177424
21
-6.941639
0
LINE
8
layer0
10
44.0177424
20
-6.941639
11
43.9260943
21
-6.934179
0
LINE
8
layer0
10
43.9260943
20
-6.934179
11
43.8854639
21
-6.937757
0
LINE
8
layer0
10
43.8854639
20
-6.937757
11
43.8485388
21
-6.9459877
0
LINE
8
layer0
10
43.8485388
20
-6.9459877
11
43.8155028
21
-6.9587439
0
LINE
8
layer0
10
43.8155028
20
-6.9587439
11
43.7865185
21
-6.9758488
0
LINE
8
layer0
10
43.7865185
20
-6.9758488
11
43.7562472
21
-7.0030936
0
LINE
8
layer0
10
43.7562472
20
-7.0030936
11
43.4857152
21
-7.2915861
0
LINE
8
layer0
10
43.4857152
20
-7.2915861
11
43.3892659
21
-7.3892659
0
LINE
8
layer0
10
43.3892659
20
-7.3892659
11
43.2915861
21
-7.4857152
0
LINE
8
layer0
10
43.2915861
20
-7.4857152
11
43.0030936
21
-7.7562472
0
LINE
8
layer0
10
43.0030936
20
-7.7562472
11
42.9758488
21
-7.7865185
0
LINE
8
layer0
10
42.9758488
20
-7.7865185
11
42.9587439
21
-7.8155028
0
LINE
8
layer0
10
42.9587439
20
-7.8155028
11
42.9459877
21
-7.8485388
0
LINE
8
layer0
10
42.9459877
20
-7.8485388
11
42.937757
21
-7.8854639
0
LINE
8
layer0
10
42.937757
20
-7.8854639
11
42.934179
21
-7.9260943
0
LINE
8
layer0
10
42.934179
20
-7.9260943
11
42.941639
21
-8.0177424
0
LINE
8
layer0
10
42.941639
20
-8.0177424
11
42.9694919
21
-8.1219911
0
LINE
8
layer0
10
42.9694919
20
-8.1219911
11
43.0187843
21
-8.2372566
0
LINE
8
layer0
10
43.0187843
20
-8.2372566
11
43.0904638
21
-8.3619266
0
LINE
8
layer0
10
43.0904638
20
-8.3619266
11
43.1853575
21
-8.494297
0
LINE
8
layer0
10
43.1853575
20
-8.494297
11
43.3011816
21
-8.6332293
0
LINE
8
layer0
10
43.3011816
20
-8.6332293
11
43.3620493
21
-8.7258886
0
LINE
8
layer0
10
43.3620493
20
-8.7258886
11
43.4533156
21
-8.8934941
0
LINE
8
layer0
10
43.4533156
20
-8.8934941
11
43.5058324
21
-9.0055918
0
LINE
8
layer0
10
43.5058324
20
-9.0055918
11
43.5611777
21
-9.1378278
0
LINE
8
layer0
10
43.5611777
20
-9.1378278
11
43.6182341
21
-9.291871
0
LINE
8
layer0
10
43.6182341
20
-9.291871
11
43.674336
21
-9.4652253
0
LINE
8
layer0
10
43.674336
20
-9.4652253
11
43.7291226
21
-9.662296
0
LINE
8
layer0
10
43.7291226
20
-9.662296
11
43.7797727
21
-9.879399
0
LINE
8
layer0
10
43.7797727
20
-9.879399
11
43.8251618
21
-10.118889
0
LINE
8
layer0
10
43.8251618
20
-10.118889
11
43.8631759
21
-10.3784113
0
LINE
8
layer0
10
43.8631759
20
-10.3784113
11
43.8923653
21
-10.6591468
0
LINE
8
layer0
10
43.8923653
20
-10.6591468
11
43.9099126
21
-10.9399455
0
ARC
8
layer0
10
35.9999817
20
0.0000268
40
13.5
50
301.6319351
51
305.8680674
0
LINE
8
layer0
10
43.0801992
20
-11.4943423
11
42.8274902
21
-11.3706736
0
LINE
8
layer0
10
42.8274902
20
-11.3706736
11
42.5792946
21
-11.2362733
0
LINE
8
layer0
10
42.5792946
20
-11.2362733
11
42.3540746
21
-11.101838
0
LINE
8
layer0
10
42.3540746
20
-11.101838
11
42.1501844
21
-10.968255
0
LINE
8
layer0
10
42.1501844
20
-10.968255
11
41.9689903
21
-10.8383788
0
LINE
8
layer0
10
41.9689903
20
-10.8383788
11
41.8078867
21
-10.7123468
0
LINE
8
layer0
10
41.8078867
20
-10.7123468
11
41.6691975
21
-10.5941757
0
LINE
8
layer0
10
41.6691975
20
-10.5941757
11
41.5487147
21
-10.4825126
0
LINE
8
layer0
10
41.5487147
20
-10.4825126
11
41.4477242
21
-10.3807757
0
LINE
8
layer0
10
41.4477242
20
-10.3807757
11
41.3642568
21
-10.2893586
0
LINE
8
layer0
10
41.3642568
20
-10.2893586
11
41.2443356
21
-10.1408997
0
LINE
8
layer0
10
41.2443356
20
-10.1408997
11
41.1820226
21
-10.049206
0
LINE
8
layer0
10
41.1820226
20
-10.049206
11
41.0979899
21
-9.8890314
0
LINE
8
layer0
10
41.0979899
20
-9.8890314
11
41.0120098
21
-9.7507051
0
LINE
8
layer0
10
41.0120098
20
-9.7507051
11
40.9242603
21
-9.6367728
0
LINE
8
layer0
10
40.9242603
20
-9.6367728
11
40.8366323
21
-9.5471224
0
LINE
8
layer0
10
40.8366323
20
-9.5471224
11
40.7509778
21
-9.4814954
0
LINE
8
layer0
10
40.7509778
20
-9.4814954
11
40.6691608
21
-9.439531
0
LINE
8
layer0
10
40.6691608
20
-9.439531
11
40.6302541
21
-9.4272881
0
LINE
8
layer0
10
40.6302541
20
-9.4272881
11
40.5929899
21
-9.4207616
0
LINE
8
layer0
10
40.5929899
20
-9.4207616
11
40.557587
21
-9.4199045
0
LINE
8
layer0
10
40.557587
20
-9.4199045
11
40.5242633
21
-9.4246155
0
LINE
8
layer0
10
40.5242633
20
-9.4246155
11
40.4858701
21
-9.4382022
0
LINE
8
layer0
10
40.4858701
20
-9.4382022
11
40.1255299
21
-9.6012064
0
LINE
8
layer0
10
40.1255299
20
-9.6012064
11
39.9990419
21
-9.6545411
0
LINE
8
layer0
10
39.9990419
20
-9.6545411
11
39.871888
21
-9.7062683
0
LINE
8
layer0
10
39.871888
20
-9.7062683
11
39.5018276
21
-9.845806
0
LINE
8
layer0
10
39.5018276
20
-9.845806
11
39.4650723
21
-9.8633468
0
LINE
8
layer0
10
39.4650723
20
-9.8633468
11
39.4381776
21
-9.883579
0
LINE
8
layer0
10
39.4381776
20
-9.883579
11
39.4137501
21
-9.9092188
0
LINE
8
layer0
10
39.4137501
20
-9.9092188
11
39.3920153
21
-9.9401834
0
LINE
8
layer0
10
39.3920153
20
-9.9401834
11
39.3731611
21
-9.9763517
0
LINE
8
layer0
10
39.3731611
20
-9.9763517
11
39.344981
21
-10.0638783
0
LINE
8
layer0
10
39.344981
20
-10.0638783
11
39.3308195
21
-10.1708505
0
LINE
8
layer0
10
39.3308195
20
-10.1708505
11
39.3322496
21
-10.2962053
0
LINE
8
layer0
10
39.3322496
20
-10.2962053
11
39.3507636
21
-10.4388158
0
LINE
8
layer0
10
39.3507636
20
-10.4388158
11
39.387778
21
-10.5974244
0
LINE
8
layer0
10
39.387778
20
-10.5974244
11
39.4416184
21
-10.7701051
0
LINE
8
layer0
10
39.4416184
20
-10.7701051
11
39.4623937
21
-10.8790042
0
LINE
8
layer0
10
39.4623937
20
-10.8790042
11
39.4825729
21
-11.0687776
0
LINE
8
layer0
10
39.4825729
20
-11.0687776
11
39.4881942
21
-11.1924396
0
LINE
8
layer0
10
39.4881942
20
-11.1924396
11
39.488722
21
-11.3357895
0
LINE
8
layer0
10
39.488722
20
-11.3357895
11
39.4824855
21
-11.4999414
0
LINE
8
layer0
10
39.4824855
20
-11.4999414
11
39.467977
21
-11.6815692
0
LINE
8
layer0
10
39.467977
20
-11.6815692
11
39.4431776
21
-11.8846046
0
LINE
8
layer0
10
39.4431776
20
-11.8846046
11
39.4068904
21
-12.1045646
0
LINE
8
layer0
10
39.4068904
20
-12.1045646
11
39.3571757
21
-12.3431942
0
LINE
8
layer0
10
39.3571757
20
-12.3431942
11
39.2929812
21
-12.5975089
0
LINE
8
layer0
10
39.2929812
20
-12.5975089
11
39.2125158
21
-12.868045
0
LINE
8
layer0
10
39.2125158
20
-12.868045
11
39.1212705
21
-13.1341843
0
ARC
8
layer0
10
35.9999932
20
0.0000316
40
13.5
50
279.131936
51
283.3680683
0
LINE
8
layer0
10
38.1425568
20
-13.3288625
11
37.95641
21
-13.1179
0
LINE
8
layer0
10
37.95641
20
-13.1179
11
37.77854
21
-12.89875
0
LINE
8
layer0
10
37.77854
20
-12.89875
11
37.62191
21
-12.68836
0
LINE
8
layer0
10
37.62191
20
-12.68836
11
37.48466
21
-12.48692
0
LINE
8
layer0
10
37.48466
20
-12.48692
11
37.36696
21
-12.29759
0
LINE
8
layer0
10
37.36696
20
-12.29759
11
37.26635
21
-12.1195
0
LINE
8
layer0
10
37.26635
20
-12.1195
11
37.18344
21
-11.95725
0
LINE
8
layer0
10
37.18344
20
-11.95725
11
37.11486
21
-11.80798
0
LINE
8
layer0
10
37.11486
20
-11.80798
11
37.06049
21
-11.67534
0
LINE
8
layer0
10
37.06049
20
-11.67534
11
37.01836
21
-11.55894
0
LINE
8
layer0
10
37.01836
20
-11.55894
11
36.96438
21
-11.37589
0
LINE
8
layer0
10
36.96438
20
-11.37589
11
36.9419
21
-11.26733
0
LINE
8
layer0
10
36.9419
20
-11.26733
11
36.92556
21
-11.08719
0
LINE
8
layer0
10
36.92556
20
-11.08719
11
36.89906
21
-10.92649
0
LINE
8
layer0
10
36.89906
20
-10.92649
11
36.86159
21
-10.78765
0
LINE
8
layer0
10
36.86159
20
-10.78765
11
36.81494
21
-10.67129
0
LINE
8
layer0
10
36.81494
20
-10.67129
11
36.76092
21
-10.57788
0
LINE
8
layer0
10
36.76092
20
-10.57788
11
36.70139
21
-10.5078
0
LINE
8
layer0
10
36.70139
20
-10.5078
11
36.67013
21
-10.4816
0
LINE
8
layer0
10
36.67013
20
-10.4816
11
36.6382
21
-10.46131
0
LINE
8
layer0
10
36.6382
20
-10.46131
11
36.60582
21
-10.44697
0
LINE
8
layer0
10
36.60582
20
-10.44697
11
36.57323
21
-10.43857
0
LINE
8
layer0
10
36.57323
20
-10.43857
11
36.53256
21
-10.43643
0
LINE
8
layer0
10
36.53256
20
-10.43643
11
36.13727
21
-10.44913
0
LINE
8
layer0
10
36.13727
20
-10.44913
11
36
21
-10.45
0
LINE
8
layer0
10
36
20
-10.45
11
35.86273
21
-10.44913
0
LINE
8
layer0
10
35.86273
20
-10.44913
11
35.46744
21
-10.43643
0
LINE
8
layer0
10
35.46744
20
-10.43643
11
35.42677
21
-10.43857
0
LINE
8
layer0
10
35.42677
20
-10.43857
11
35.39418
21
-10.44697
0
LINE
8
layer0
10
35.39418
20
-10.44697
11
35.3618
21
-10.46131
0
LINE
8
layer0
10
35.3618
20
-10.46131
11
35.32987
21
-10.4816
0
LINE
8
layer0
10
35.32987
20
-10.4816
11
35.29861
21
-10.5078
0
LINE
8
layer0
10
35.29861
20
-10.5078
11
35.23908
21
-10.57788
0
LINE
8
layer0
10
35.23908
20
-10.57788
11
35.18506
21
-10.67129
0
LINE
8
layer0
10
35.18506
20
-10.67129
11
35.13841
21
-10.78765
0
LINE
8
layer0
10
35.13841
20
-10.78765
11
35.10094
21
-10.92649
0
LINE
8
layer0
10
35.10094
20
-10.92649
11
35.07444
21
-11.08719
0
LINE
8
layer0
10
35.07444
20
-11.08719
11
35.0581
21
-11.26733
0
LINE
8
layer0
10
35.0581
20
-11.26733
11
35.03562
21
-11.37589
0
LINE
8
layer0
10
35.03562
20
-11.37589
11
34.98164
21
-11.55894
0
LINE
8
layer0
10
34.98164
20
-11.55894
11
34.93951
21
-11.67534
0
LINE
8
layer0
10
34.93951
20
-11.67534
11
34.88514
21
-11.80798
0
LINE
8
layer0
10
34.88514
20
-11.80798
11
34.81656
21
-11.95725
0
LINE
8
layer0
10
34.81656
20
-11.95725
11
34.73365
21
-12.1195
0
LINE
8
layer0
10
34.73365
20
-12.1195
11
34.63304
21
-12.29759
0
LINE
8
layer0
10
34.63304
20
-12.29759
11
34.51534
21
-12.48692
0
LINE
8
layer0
10
34.51534
20
-12.48692
11
34.37809
21
-12.68836
0
LINE
8
layer0
10
34.37809
20
-12.68836
11
34.22146
21
-12.89875
0
LINE
8
layer0
10
34.22146
20
-12.89875
11
34.04359
21
-13.1179
0
LINE
8
layer0
10
34.04359
20
-13.1179
11
33.8574432
21
-13.3288625
0
ARC
8
layer0
10
36.0000069
20
0.0000317
40
13.5
50
256.6319313
51
260.8680636
0
LINE
8
layer0
10
32.8787295
20
-13.1341843
11
32.7874842
21
-12.868045
0
LINE
8
layer0
10
32.7874842
20
-12.868045
11
32.7070188
21
-12.5975089
0
LINE
8
layer0
10
32.7070188
20
-12.5975089
11
32.6428243
21
-12.3431942
0
LINE
8
layer0
10
32.6428243
20
-12.3431942
11
32.5931096
21
-12.1045646
0
LINE
8
layer0
10
32.5931096
20
-12.1045646
11
32.5568224
21
-11.8846046
0
LINE
8
layer0
10
32.5568224
20
-11.8846046
11
32.532023
21
-11.6815692
0
LINE
8
layer0
10
32.532023
20
-11.6815692
11
32.5175145
21
-11.4999414
0
LINE
8
layer0
10
32.5175145
20
-11.4999414
11
32.511278
21
-11.3357895
0
LINE
8
layer0
10
32.511278
20
-11.3357895
11
32.5118058
21
-11.1924396
0
LINE
8
layer0
10
32.5118058
20
-11.1924396
11
32.5174271
21
-11.0687776
0
LINE
8
layer0
10
32.5174271
20
-11.0687776
11
32.5376063
21
-10.8790042
0
LINE
8
layer0
10
32.5376063
20
-10.8790042
11
32.5583816
21
-10.7701051
0
LINE
8
layer0
10
32.5583816
20
-10.7701051
11
32.612222
21
-10.5974244
0
LINE
8
layer0
10
32.612222
20
-10.5974244
11
32.6492364
21
-10.4388158
0
LINE
8
layer0
10
32.6492364
20
-10.4388158
11
32.6677504
21
-10.2962053
0
LINE
8
layer0
10
32.6677504
20
-10.2962053
11
32.6691805
21
-10.1708505
0
LINE
8
layer0
10
32.6691805
20
-10.1708505
11
32.655019
21
-10.0638783
0
LINE
8
layer0
10
32.655019
20
-10.0638783
11
32.6268389
21
-9.9763517
0
LINE
8
layer0
10
32.6268389
20
-9.9763517
11
32.6079847
21
-9.9401834
0
LINE
8
layer0
10
32.6079847
20
-9.9401834
11
32.5862499
21
-9.9092188
0
LINE
8
layer0
10
32.5862499
20
-9.9092188
11
32.5618224
21
-9.883579
0
LINE
8
layer0
10
32.5618224
20
-9.883579
11
32.5349277
21
-9.8633468
0
LINE
8
layer0
10
32.5349277
20
-9.8633468
11
32.4981724
21
-9.845806
0
LINE
8
layer0
10
32.4981724
20
-9.845806
11
32.128112
21
-9.7062683
0
LINE
8
layer0
10
32.128112
20
-9.7062683
11
32.0009581
21
-9.6545411
0
LINE
8
layer0
10
32.0009581
20
-9.6545411
11
31.8744701
21
-9.6012064
0
LINE
8
layer0
10
31.8744701
20
-9.6012064
11
31.5141299
21
-9.4382022
0
LINE
8
layer0
10
31.5141299
20
-9.4382022
11
31.4757367
21
-9.4246155
0
LINE
8
layer0
10
31.4757367
20
-9.4246155
11
31.442413
21
-9.4199045
0
LINE
8
layer0
10
31.442413
20
-9.4199045
11
31.4070101
21
-9.4207616
0
LINE
8
layer0
10
31.4070101
20
-9.4207616
11
31.3697459
21
-9.4272881
0
LINE
8
layer0
10
31.3697459
20
-9.4272881
11
31.3308392
21
-9.439531
0
LINE
8
layer0
10
31.3308392
20
-9.439531
11
31.2490222
21
-9.4814954
0
LINE
8
layer0
10
31.2490222
20
-9.4814954
11
31.1633677
21
-9.5471224
0
LINE
8
layer0
10
31.1633677
20
-9.5471224
11
31.0757397
21
-9.6367728
0
LINE
8
layer0
10
31.0757397
20
-9.6367728
11
30.9879902
21
-9.7507051
0
LINE
8
layer0
10
30.9879902
20
-9.7507051
11
30.9020101
21
-9.8890314
0
LINE
8
layer0
10
30.9020101
20
-9.8890314
11
30.8179774
21
-10.049206
0
LINE
8
layer0
10
30.8179774
20
-10.049206
11
30.7556644
21
-10.1408997
0
LINE
8
layer0
10
30.7556644
20
-10.1408997
11
30.6357432
21
-10.2893586
0
LINE
8
layer0
10
30.6357432
20
-10.2893586
11
30.5522758
21
-10.3807757
0
LINE
8
layer0
10
30.5522758
20
-10.3807757
11
30.4512853
21
-10.4825126
0
LINE
8
layer0
10
30.4512853
20
-10.4825126
11
30.3308025
21
-10.5941757
0
LINE
8
layer0
10
30.3308025
20
-10.5941757
11
30.1921133
21
-10.7123468
0
LINE
8
layer0
10
30.1921133
20
-10.7123468
11
30.0310097
21
-10.8383788
0
LINE
8
layer0
10
30.0310097
20
-10.8383788
11
29.8498156
21
-10.968255
0
LINE
8
layer0
10
29.8498156
20
-10.968255
11
29.6459254
21
-11.101838
0
LINE
8
layer0
10
29.6459254
20
-11.101838
11
29.4207054
21
-11.2362733
0
LINE
8
layer0
10
29.4207054
20
-11.2362733
11
29.1725098
21
-11.3706736
0
LINE
8
layer0
10
29.1725098
20
-11.3706736
11
28.9198008
21
-11.4943423
0
ARC
8
layer0
10
36.0000183
20
0.0000267
40
13.5
50
234.1319323
51
238.3680646
0
LINE
8
layer0
10
28.0900874
20
-10.9399455
11
28.1076347
21
-10.6591468
0
LINE
8
layer0
10
28.1076347
20
-10.6591468
11
28.1368241
21
-10.3784113
0
LINE
8
layer0
10
28.1368241
20
-10.3784113
11
28.1748382
21
-10.118889
0
LINE
8
layer0
10
28.1748382
20
-10.118889
11
28.2202273
21
-9.879399
0
LINE
8
layer0
10
28.2202273
20
-9.879399
11
28.2708774
21
-9.662296
0
LINE
8
layer0
10
28.2708774
20
-9.662296
11
28.325664
21
-9.4652253
0
LINE
8
layer0
10
28.325664
20
-9.4652253
11
28.3817659
21
-9.291871
0
LINE
8
layer0
10
28.3817659
20
-9.291871
11
28.4388223
21
-9.1378278
0
LINE
8
layer0
10
28.4388223
20
-9.1378278
11
28.4941676
21
-9.0055918
0
LINE
8
layer0
10
28.4941676
20
-9.0055918
11
28.5466844
21
-8.8934941
0
LINE
8
layer0
10
28.5466844
20
-8.8934941
11
28.6379507
21
-8.7258886
0
LINE
8
layer0
10
28.6379507
20
-8.7258886
11
28.6988184
21
-8.6332293
0
LINE
8
layer0
10
28.6988184
20
-8.6332293
11
28.8146425
21
-8.494297
0
LINE
8
layer0
10
28.8146425
20
-8.494297
11
28.9095362
21
-8.3619266
0
LINE
8
layer0
10
28.9095362
20
-8.3619266
11
28.9812157
21
-8.2372566
0
LINE
8
layer0
10
28.9812157
20
-8.2372566
11
29.0305081
21
-8.1219911
0
LINE
8
layer0
10
29.0305081
20
-8.1219911
11
29.058361
21
-8.0177424
0
LINE
8
layer0
10
29.058361
20
-8.0177424
11
29.065821
21
-7.9260943
0
LINE
8
layer0
10
29.065821
20
-7.9260943
11
29.062243
21
-7.8854639
0
LINE
8
layer0
10
29.062243
20
-7.8854639
11
29.0540123
21
-7.8485388
0
LINE
8
layer0
10
29.0540123
20
-7.8485388
11
29.0412561
21
-7.8155028
0
LINE
8
layer0
10
29.0412561
20
-7.8155028
11
29.0241512
21
-7.7865185
0
LINE
8
layer0
10
29.0241512
20
-7.7865185
11
28.9969064
21
-7.7562472
0
LINE
8
layer0
10
28.9969064
20
-7.7562472
11
28.7084139
21
-7.4857152
0
LINE
8
layer0
10
28.7084139
20
-7.4857152
11
28.6107341
21
-7.3892659
0
LINE
8
layer0
10
28.6107341
20
-7.3892659
11
28.5142848
21
-7.2915861
0
LINE
8
layer0
10
28.5142848
20
-7.2915861
11
28.2437528
21
-7.0030936
0
LINE
8
layer0
10
28.2437528
20
-7.0030936
11
28.2134815
21
-6.9758488
0
LINE
8
layer0
10
28.2134815
20
-6.9758488
11
28.1844972
21
-6.9587439
0
LINE
8
layer0
10
28.1844972
20
-6.9587439
11
28.1514612
21
-6.9459877
0
LINE
8
layer0
10
28.1514612
20
-6.9459877
11
28.1145361
21
-6.937757
0
LINE
8
layer0
10
28.1145361
20
-6.937757
11
28.0739057
21
-6.934179
0
LINE
8
layer0
10
28.0739057
20
-6.934179
11
27.9822576
21
-6.941639
0
LINE
8
layer0
10
27.9822576
20
-6.941639
11
27.8780089
21
-6.9694919
0
LINE
8
layer0
10
27.8780089
20
-6.9694919
11
27.7627434
21
-7.0187843
0
LINE
8
layer0
10
27.7627434
20
-7.0187843
11
27.6380734
21
-7.0904638
0
LINE
8
layer0
10
27.6380734
20
-7.0904638
11
27.505703
21
-7.1853575
0
LINE
8
layer0
10
27.505703
20
-7.1853575
11
27.3667707
21
-7.3011816
0
LINE
8
layer0
10
27.3667707
20
-7.3011816
11
27.2741114
21
-7.3620493
0
LINE
8
layer0
10
27.2741114
20
-7.3620493
11
27.1065059
21
-7.4533156
0
LINE
8
layer0
10
27.1065059
20
-7.4533156
11
26.9944082
21
-7.5058324
0
LINE
8
layer0
10
26.9944082
20
-7.5058324
11
26.8621722
21
-7.5611777
0
LINE
8
layer0
10
26.8621722
20
-7.5611777
11
26.708129
21
-7.6182341
0
LINE
8
layer0
10
26.708129
20
-7.6182341
11
26.5347747
21
-7.674336
0
LINE
8
layer0
10
26.5347747
20
-7.674336
11
26.337704
21
-7.7291226
0
LINE
8
layer0
10
26.337704
20
-7.7291226
11
26.120601
21
-7.7797727
0
LINE
8
layer0
10
26.120601
20
-7.7797727
11
25.881111
21
-7.8251618
0
LINE
8
layer0
10
25.881111
20
-7.8251618
11
25.6215887
21
-7.8631759
0
LINE
8
layer0
10
25.6215887
20
-7.8631759
11
25.3408532
21
-7.8923653
0
LINE
8
layer0
10
25.3408532
20
-7.8923653
11
25.0600545
21
-7.9099126
0
ARC
8
layer0
10
36.0000268
20
0.0000183
40
13.5
50
211.6319351
51
215.8680674
0
LINE
8
layer0
10
24.5056577
20
-7.0801992
11
24.6293264
21
-6.8274902
0
LINE
8
layer1
10
24.6293264
20
-6.8274902
11
24.7637267
21
-6.5792946
0
LINE
8
layer1
10
24.7637267
20
-6.5792946
11
24.898162
21
-6.3540746
0
LINE
8
layer1
10
24.898162
20
-6.3540746
11
25.031745
21
-6.1501844
0
LINE
8
layer1
10
25.031745
20
-6.1501844
11
25.1616212
21
-5.9689903
0
LINE
8
layer1
10
25.1616212
20
-5.9689903
11
25.2876532
21
-5.8078867
0
LINE
8
layer1
10
25.2876532
20
-5.8078867
11
25.4058243
21
-5.6691975
0
LINE
8
layer1
10
25.4058243
20
-5.6691975
11
25.5174874
21
-5.5487147
0
LINE
8
layer1
10
25.5174874
20
-5.5487147
11
25.6192243
21
-5.4477242
0
LINE
8
layer1
10
25.6192243
20
-5.4477242
11
25.7106414
21
-5.3642568
0
LINE
8
layer1
10
25.7106414
20
-5.3642568
11
25.8591003
21
-5.2443356
0
LINE
8
layer1
10
25.8591003
20
-5.2443356
11
25.950794
21
-5.1820226
0
LINE
8
layer1
10
25.950794
20
-5.1820226
11
26.1109686
21
-5.0979899
0
LINE
8
layer1
10
26.1109686
20
-5.0979899
11
26.2492949
21
-5.0120098
0
LINE
8
layer1
10
26.2492949
20
-5.0120098
11
26.3632272
21
-4.9242603
0
LINE
8
layer1
10
26.3632272
20
-4.9242603
11
26.4528776
21
-4.8366323
0
LINE
8
layer1
10
26.4528776
20
-4.8366323
11
26.5185046
21
-4.7509778
0
LINE
8
layer1
10
26.5185046
20
-4.7509778
11
26.560469
21
-4.6691608
0
LINE
8
layer1
10
26.560469
20
-4.6691608
11
26.5727119
21
-4.6302541
0
LINE
8
layer1
10
26.5727119
20
-4.6302541
11
26.5792384
21
-4.5929899
0
LINE
8
layer1
10
26.5792384
20
-4.5929899
11
26.5800955
21
-4.557587
0
LINE
8
layer1
10
26.5800955
20
-4.557587
11
26.5753845
21
-4.5242633
0
LINE
8
layer1
10
26.5753845
20
-4.5242633
11
26.5617978
21
-4.4858701
0
LINE
8
layer1
10
26.5617978
20
-4.4858701
11
26.3987936
21
-4.1255299
0
LINE
8
layer1
10
26.3987936
20
-4.1255299
11
26.3454589
21
-3.9990419
0
LINE
8
layer1
10
26.3454589
20
-3.9990419
11
26.2937317
21
-3.871888
0
LINE
8
layer1
10
26.2937317
20
-3.871888
11
26.154194
21
-3.5018276
0
LINE
8
layer1
10
26.154194
20
-3.5018276
11
26.1366532
21
-3.4650723
0
LINE
8
layer1
10
26.1366532
20
-3.4650723
11
26.116421
21
-3.4381776
0
LINE
8
layer1
10
26.116421
20
-3.4381776
11
26.0907812
21
-3.4137501
0
LINE
8
layer1
10
26.0907812
20
-3.4137501
11
26.0598166
21
-3.3920153
0
LINE
8
layer1
10
26.0598166
20
-3.3920153
11
26.0236483
21
-3.3731611
0
LINE
8
layer1
10
26.0236483
20
-3.3731611
11
25.9361217
21
-3.344981
0
LINE
8
layer1
10
25.9361217
20
-3.344981
11
25.8291495
21
-3.3308195
0
LINE
8
layer1
10
25.8291495
20
-3.3308195
11
25.7037947
21
-3.3322496
0
LINE
8
layer1
10
25.7037947
20
-3.3322496
11
25.5611842
21
-3.3507636
0
LINE
8
layer1
10
25.5611842
20
-3.3507636
11
25.4025756
21
-3.387778
0
LINE
8
layer1
10
25.4025756
20
-3.387778
11
25.2298949
21
-3.4416184
0
LINE
8
layer1
10
25.2298949
20
-3.4416184
11
25.1209958
21
-3.4623937
0
LINE
8
layer1
10
25.1209958
20
-3.4623937
11
24.9312224
21
-3.4825729
0
LINE
8
layer1
10
24.9312224
20
-3.4825729
11
24.8075604
21
-3.4881942
0
LINE
8
layer1
10
24.8075604
20
-3.4881942
11
24.6642105
21
-3.488722
0
LINE
8
layer1
10
24.6642105
20
-3.488722
11
24.5000586
21
-3.4824855
0
LINE
8
layer1
10
24.5000586
20
-3.4824855
11
24.3184308
21
-3.467977
0
LINE
8
layer1
10
24.3184308
20
-3.467977
11
24.1153954
21
-3.4431776
0
LINE
8
layer1
10
24.1153954
20
-3.4431776
11
23.8954354
21
-3.4068904
0
LINE
8
layer1
10
23.8954354
20
-3.4068904
11
23.6568058
21
-3.3571757
0
LINE
8
layer1
10
23.6568058
20
-3.3571757
11
23.4024911
21
-3.2929812
0
LINE
8
layer1
10
23.4024911
20
-3.2929812
11
23.131955
21
-3.2125158
0
LINE
8
layer1
10
23.131955
20
-3.2125158
11
22.8658157
21
-3.1212705
0
ARC
8
layer1
10
36.0000316
20
0.0000068
40
13.5
50
189.131936
51
193.3680683
0
LINE
8
layer1
10
22.6711375
20
-2.1425568
11
22.8821
21
-1.95641
0
LINE
8
layer1
10
22.8821
20
-1.95641
11
23.10125
21
-1.77854
0
LINE
8
layer1
10
23.10125
20
-1.77854
11
23.31164
21
-1.62191
0
LINE
8
layer1
10
23.31164
20
-1.62191
11
23.51308
21
-1.48466
0
LINE
8
layer1
10
23.51308
20
-1.48466
11
23.70241
21
-1.36696
0
LINE
8
layer1
10
23.70241
20
-1.36696
11
23.8805
21
-1.26635
0
LINE
8
layer1
10
23.8805
20
-1.26635
11
24.04275
21
-1.18344
0
LINE
8
layer1
10
24.04275
20
-1.18344
11
24.19202
21
-1.11486
0
LINE
8
layer1
10
24.19202
20
-1.11486
11
24.32466
21
-1.06049
0
LINE
8
layer1
10
24.32466
20
-1.06049
11
24.44106
21
-1.01836
0
LINE
8
layer1
10
24.44106
20
-1.01836
11
24.62411
21
-0.96438
0
LINE
8
layer1
10
24.62411
20
-0.96438
11
24.73267
21
-0.9419
0
LINE
8
layer1
10
24.73267
20
-0.9419
11
24.91281
21
-0.92556
0
LINE
8
layer1
10
24.91281
20
-0.92556
11
25.07351
21
-0.89906
0
LINE
8
layer1
10
25.07351
20
-0.89906
11
25.21235
21
-0.86159
0
LINE
8
layer1
10
25.21235
20
-0.86159
11
25.32871
21
-0.81494
0
LINE
8
layer1
10
25.32871
20
-0.81494
11
25.42212
21
-0.76092
0
LINE
8
layer1
10
25.42212
20
-0.76092
11
25.4922
21
-0.70139
0
LINE
8
layer1
10
25.4922
20
-0.70139
11
25.5184
21
-0.67013
0
LINE
8
layer1
10
25.5184
20
-0.67013
11
25.53869
21
-0.6382
0
LINE
8
layer1
10
25.53869
20
-0.6382
11
25.55303
21
-0.60582
0
LINE
8
layer1
10
25.55303
20
-0.60582
11
25.56143
21
-0.57323
0
LINE
8
layer1
10
25.56143
20
-0.57323
11
25.56357
21
-0.53256
0
LINE
8
layer1
10
25.56357
20
-0.53256
11
25.55087
21
-0.13727
0
LINE
8
layer1
10
25.55087
20
-0.13727
11
25.55
21
0
0
LINE
8
layer1
10
25.55
20
0
11
25.55087
21
0.13727
0
LINE
8
layer1
10
25.55087
20
0.13727
11
25.56357
21
0.53256
0
LINE
8
layer1
10
25.56357
20
0.53256
11
25.56143
21
0.57323
0
LINE
8
layer1
10
25.56143
20
0.57323
11
25.55303
21
0.60582
0
LINE
8
layer1
10
25.55303
20
0.60582
11
25.53869
21
0.6382
0
LINE
8
layer1
10
25.53869
20
0.6382
11
25.5184
21
0.67013
0
LINE
8
layer1
10
25.5184
20
0.67013
11
25.4922
21
0.70139
0
LINE
8
layer1
10
25.4922
20
0.70139
11
25.42212
21
0.76092
0
LINE
8
layer1
10
25.42212
20
0.76092
11
25.32871
21
0.81494
0
LINE
8
layer1
10
25.32871
20
0.81494
11
25.21235
21
0.86159
0
LINE
8
layer1
10
25.21235
20
0.86159
11
25.07351
21
0.89906
0
LINE
8
layer1
10
25.07351
20
0.89906
11
24.91281
21
0.92556
0
LINE
8
layer1
10
24.91281
20
0.92556
11
24.73267
21
0.9419
0
LINE
8
layer1
10
24.73267
20
0.9419
11
24.62411
21
0.96438
0
LINE
8
layer1
10
24.62411
20
0.96438
11
24.44106
21
1.01836
0
LINE
8
layer1
10
24.44106
20
1.01836
11
24.32466
21
1.06049
0
LINE
8
layer1
10
24.32466
20
1.06049
11
24.19202
21
1.11486
0
LINE
8
layer1
10
24.19202
20
1.11486
11
24.04275
21
1.18344
0
LINE
8
layer1
10
24.04275
20
1.18344
11
23.8805
21
1.26635
0
LINE
8
layer1
10
23.8805
20
1.26635
11
23.70241
21
1.36696
0
LINE
8
layer1
10
23.70241
20
1.36696
11
23.51308
21
1.48466
0
LINE
8
layer1
10
23.51308
20
1.48466
11
23.31164
21
1.62191
0
LINE
8
layer1
10
23.31164
20
1.62191
11
23.10125
21
1.77854
0
LINE
8
layer1
10
23.10125
20
1.77854
11
22.8821
21
1.95641
0
LINE
8
layer1
10
22.8821
20
1.95641
11
22.6711375
21
2.1425568
0
ARC
8
layer1
10
36.0000317
20
-0.0000069
40
13.5
50
166.6319313
51
170.8680636
0
LINE
8
layer1
10
22.8658157
20
3.1212705
11
23.131955
21
3.2125158
0
LINE
8
layer1
10
23.131955
20
3.2125158
11
23.4024911
21
3.2929812
0
LINE
8
layer1
10
23.4024911
20
3.2929812
11
23.6568058
21
3.3571757
0
LINE
8
layer1
10
23.6568058
20
3.3571757
11
23.8954354
21
3.4068904
0
LINE
8
layer1
10
23.8954354
20
3.4068904
11
24.1153954
21
3.4431776
0
LINE
8
layer1
10
24.1153954
20
3.4431776
11
24.3184308
21
3.467977
0
LINE
8
layer1
10
24.3184308
20
3.467977
11
24.5000586
21
3.4824855
0
LINE
8
layer1
10
24.5000586
20
3.4824855
11
24.6642105
21
3.488722
0
LINE
8
layer1
10
24.6642105
20
3.488722
11
24.8075604
21
3.4881942
0
LINE
8
layer1
10
24.8075604
20
3.4881942
11
24.9312224
21
3.4825729
0
LINE
8
layer1
10
24.9312224
20
3.4825729
11
25.1209958
21
3.4623937
0
LINE
8
layer1
10
25.1209958
20
3.4623937
11
25.2298949
21
3.4416184
0
LINE
8
layer1
10
25.2298949
20
3.4416184
11
25.4025756
21
3.387778
0
LINE
8
layer1
10
25.4025756
20
3.387778
11
25.5611842
21
3.3507636
0
LINE
8
layer1
10
25.5611842
20
3.3507636
11
25.7037947
21
3.3322496
0
LINE
8
layer1
10
25.7037947
20
3.3322496
11
25.8291495
21
3.3308195
0
LINE
8
layer1
10
25.8291495
20
3.3308195
11
25.9361217
21
3.344981
0
LINE
8
layer1
10
25.9361217
20
3.344981
11
26.0236483
21
3.3731611
0
LINE
8
layer1
10
26.0236483
20
3.3731611
11
26.0598166
21
3.3920153
0
LINE
8
layer1
10
26.0598166
20
3.3920153
11
26.0907812
21
3.4137501
0
LINE
8
layer1
10
26.0907812
20
3.4137501
11
26.116421
21
3.4381776
0
LINE
8
layer1
10
26.116421
20
3.4381776
11
26.1366532
21
3.4650723
0
LINE
8
layer1
10
26.1366532
20
3.4650723
11
26.154194
21
3.5018276
0
LINE
8
layer1
10
26.154194
20
3.5018276
11
26.2937317
21
3.871888
0
LINE
8
layer1
10
26.2937317
20
3.871888
11
26.3454589
21
3.9990419
0
LINE
8
layer1
10
26.3454589
20
3.9990419
11
26.3987936
21
4.1255299
0
LINE
8
layer1
10
26.3987936
20
4.1255299
11
26.5617978
21
4.4858701
0
LINE
8
layer1
10
26.5617978
20
4.4858701
11
26.5753845
21
4.5242633
0
LINE
8
layer1
10
26.5753845
20
4.5242633
11
26.5800955
21
4.557587
0
LINE
8
layer1
10
26.5800955
20
4.557587
11
26.5792384
21
4.5929899
0
LINE
8
layer1
10
26.5792384
20
4.5929899
11
26.5727119
21
4.6302541
0
LINE
8
layer1
10
26.5727119
20
4.6302541
11
26.560469
21
4.6691608
0
LINE
8
layer1
10
26.560469
20
4.6691608
11
26.5185046
21
4.7509778
0
LINE
8
layer1
10
26.5185046
20
4.7509778
11
26.4528776
21
4.8366323
0
LINE
8
layer1
10
26.4528776
20
4.8366323
11
26.3632272
21
4.9242603
0
LINE
8
layer1
10
26.3632272
20
4.9242603
11
26.2492949
21
5.0120098
0
LINE
8
layer1
10
26.2492949
20
5.0120098
11
26.1109686
21
5.0979899
0
LINE
8
layer1
10
26.1109686
20
5.0979899
11
25.950794
21
5.1820226
0
LINE
8
layer1
10
25.950794
20
5.1820226
11
25.8591003
21
5.2443356
0
LINE
8
layer1
10
25.8591003
20
5.2443356
11
25.7106414
21
5.3642568
0
LINE
8
layer1
10
25.7106414
20
5.3642568
11
25.6192243
21
5.4477242
0
LINE
8
layer1
10
25.6192243
20
5.4477242
11
25.5174874
21
5.5487147
0
LINE
8
layer1
10
25.5174874
20
5.5487147
11
25.4058243
21
5.6691975
0
LINE
8
layer1
10
25.4058243
20
5.6691975
11
25.2876532
21
5.8078867
0
LINE
8
layer1
10
25.2876532
20
5.8078867
11
25.1616212
21
5.9689903
0
LINE
8
layer1
10
25.1616212
20
5.9689903
11
25.031745
21
6.1501844
0
LINE
8
layer1
10
25.031745
20
6.1501844
11
24.898162
21
6.3540746
0
LINE
8
layer1
10
24.898162
20
6.3540746
11
24.7637267
21
6.5792946
0
LINE
8
layer1
10
24.7637267
20
6.5792946
11
24.6293264
21
6.8274902
0
LINE
8
layer1
10
24.6293264
20
6.8274902
11
24.5056577
21
7.0801992
0
ARC
8
layer1
10
36.0000267
20
-0.0000183
40
13.5
50
144.1319323
51
148.3680646
0
LINE
8
layer1
10
25.0600545
20
7.9099126
11
25.3408532
21
7.8923653
0
LINE
8
layer1
10
25.3408532
20
7.8923653
11
25.6215887
21
7.8631759
0
LINE
8
layer1
10
25.6215887
20
7.8631759
11
25.881111
21
7.8251618
0
LINE
8
layer1
10
25.881111
20
7.8251618
11
26.120601
21
7.7797727
0
LINE
8
layer1
10
26.120601
20
7.7797727
11
26.337704
21
7.7291226
0
LINE
8
layer1
10
26.337704
20
7.7291226
11
26.5347747
21
7.674336
0
LINE
8
layer1
10
26.5347747
20
7.674336
11
26.708129
21
7.6182341
0
LINE
8
layer1
10
26.708129
20
7.6182341
11
26.8621722
21
7.5611777
0
LINE
8
layer1
10
26.8621722
20
7.5611777
11
26.9944082
21
7.5058324
0
LINE
8
layer1
10
26.9944082
20
7.5058324
11
27.1065059
21
7.4533156
0
LINE
8
layer1
10
27.1065059
20
7.4533156
11
27.2741114
21
7.3620493
0
LINE
8
layer1
10
27.2741114
20
7.3620493
11
27.3667707
21
7.3011816
0
LINE
8
layer1
10
27.3667707
20
7.3011816
11
27.505703
21
7.1853575
0
LINE
8
layer1
10
27.505703
20
7.1853575
11
27.6380734
21
7.0904638
0
LINE
8
layer1
10
27.6380734
20
7.0904638
11
27.7627434
21
7.0187843
0
LINE
8
layer1
10
27.7627434
20
7.0187843
11
27.8780089
21
6.9694919
0
LINE
8
layer1
10
27.8780089
20
6.9694919
11
27.9822576
21
6.941639
0
LINE
8
layer1
10
27.9822576
20
6.941639
11
28.0739057
21
6.934179
0
LINE
8
layer1
10
28.0739057
20
6.934179
11
28.1145361
21
6.937757
0
LINE
8
layer1
10
28.1145361
20
6.937757
11
28.1514612
21
6.9459877
0
LINE
8
layer1
10
28.1514612
20
6.9459877
11
28.1844972
21
6.9587439
0
LINE
8
layer1
10
28.1844972
20
6.9587439
11
28.2134815
21
6.9758488
0
LINE
8
layer1
10
28.2134815
20
6.9758488
11
28.2437528
21
7.0030936
0
LINE
8
layer1
10
28.2437528
20
7.0030936
11
28.5142848
21
7.2915861
0
LINE
8
layer1
10
28.5142848
20
7.2915861
11
28.6107341
21
7.3892659
0
LINE
8
layer1
10
28.6107341
20
7.3892659
11
28.7084139
21
7.4857152
0
LINE
8
layer1
10
28.7084139
20
7.4857152
11
28.9969064
21
7.7562472
0
LINE
8
layer1
10
28.9969064
20
7.7562472
11
29.0241512
21
7.7865185
0
LINE
8
layer1
10
29.0241512
20
7.7865185
11
29.0412561
21
7.8155028
0
LINE
8
layer1
10
29.0412561
20
7.8155028
11
29.0540123
21
7.8485388
0
LINE
8
layer1
10
29.0540123
20
7.8485388
11
29.062243
21
7.8854639
0
LINE
8
layer1
10
29.062243
20
7.8854639
11
29.065821
21
7.9260943
0
LINE
8
layer1
10
29.065821
20
7.9260943
11
29.058361
21
8.0177424
0
LINE
8
layer1
10
29.058361
20
8.0177424
11
29.0305081
21
8.1219911
0
LINE
8
layer1
10
29.0305081
20
8.1219911
11
28.9812157
21
8.2372566
0
LINE
8
layer1
10
28.9812157
20
8.2372566
11
28.9095362
21
8.3619266
0
LINE
8
layer1
10
28.9095362
20
8.3619266
11
28.8146425
21
8.494297
0
LINE
8
layer1
10
28.8146425
20
8.494297
11
28.6988184
21
8.6332293
0
LINE
8
layer1
10
28.6988184
20
8.6332293
11
28.6379507
21
8.7258886
0
LINE
8
layer1
10
28.6379507
20
8.7258886
11
28.5466844
21
8.8934941
0
LINE
8
layer1
10
28.5466844
20
8.8934941
11
28.4941676
21
9.0055918
0
LINE
8
layer1
10
28.4941676
20
9.0055918
11
28.4388223
21
9.1378278
0
LINE
8
layer1
10
28.4388223
20
9.1378278
11
28.3817659
21
9.291871
0
LINE
8
layer1
10
28.3817659
20
9.291871
11
28.325664
21
9.4652253
0
LINE
8
layer1
10
28.325664
20
9.4652253
11
28.2708774
21
9.662296
0
LINE
8
layer1
10
28.2708774
20
9.662296
11
28.2202273
21
9.879399
0
LINE
8
layer1
10
28.2202273
20
9.879399
11
28.1748382
21
10.118889
0
LINE
8
layer1
10
28.1748382
20
10.118889
11
28.1368241
21
10.3784113
0
LINE
8
layer1
10
28.1368241
20
10.3784113
11
28.1076347
21
10.6591468
0
LINE
8
layer1
10
28.1076347
20
10.6591468
11
28.0900874
21
10.9399455
0
ARC
8
layer1
10
36.0000183
20
-0.0000268
40
13.5
50
121.6319351
51
125.8680674
0
LINE
8
layer1
10
28.9198008
20
11.4943423
11
29.1725098
21
11.3706736
0
LINE
8
layer1
10
29.1725098
20
11.3706736
11
29.4207054
21
11.2362733
0
LINE
8
layer1
10
29.4207054
20
11.2362733
11
29.6459254
21
11.101838
0
LINE
8
layer1
10
29.6459254
20
11.101838
11
29.8498156
21
10.968255
0
LINE
8
layer1
10
29.8498156
20
10.968255
11
30.0310097
21
10.8383788
0
LINE
8
layer1
10
30.0310097
20
10.8383788
11
30.1921133
21
10.7123468
0
LINE
8
layer1
10
30.1921133
20
10.7123468
11
30.3308025
21
10.5941757
0
LINE
8
layer1
10
30.3308025
20
10.5941757
11
30.4512853
21
10.4825126
0
LINE
8
layer1
10
30.4512853
20
10.4825126
11
30.5522758
21
10.3807757
0
LINE
8
layer1
10
30.5522758
20
10.3807757
11
30.6357432
21
10.2893586
0
LINE
8
layer1
10
30.6357432
20
10.2893586
11
30.7556644
21
10.1408997
0
LINE
8
layer1
10
30.7556644
20
10.1408997
11
30.8179774
21
10.049206
0
LINE
8
layer1
10
30.8179774
20
10.049206
11
30.9020101
21
9.8890314
0
LINE
8
layer1
10
30.9020101
20
9.8890314
11
30.9879902
21
9.7507051
0
LINE
8
layer1
10
30.9879902
20
9.7507051
11
31.0757397
21
9.6367728
0
LINE
8
layer1
10
31.0757397
20
9.6367728
11
31.1633677
21
9.5471224
0
LINE
8
layer1
10
31.1633677
20
9.5471224
11
31.2490222
21
9.4814954
0
LINE
8
layer1
10
31.2490222
20
9.4814954
11
31.3308392
21
9.439531
0
LINE
8
layer1
10
31.3308392
20
9.439531
11
31.3697459
21
9.4272881
0
LINE
8
layer1
10
31.3697459
20
9.4272881
11
31.4070101
21
9.4207616
0
LINE
8
layer1
10
31.4070101
20
9.4207616
11
31.442413
21
9.4199045
0
LINE
8
layer1
10
31.442413
20
9.4199045
11
31.4757367
21
9.4246155
0
LINE
8
layer1
10
31.4757367
20
9.4246155
11
31.5141299
21
9.4382022
0
LINE
8
layer1
10
31.5141299
20
9.4382022
11
31.8744701
21
9.6012064
0
LINE
8
layer1
10
31.8744701
20
9.6012064
11
32.0009581
21
9.6545411
0
LINE
8
layer1
10
32.0009581
20
9.6545411
11
32.128112
21
9.7062683
0
LINE
8
layer1
10
32.128112
20
9.7062683
11
32.4981724
21
9.845806
0
LINE
8
layer1
10
32.4981724
20
9.845806
11
32.5349277
21
9.8633468
0
LINE
8
layer1
10
32.5349277
20
9.8633468
11
32.5618224
21
9.883579
0
LINE
8
layer1
10
32.5618224
20
9.883579
11
32.5862499
21
9.9092188
0
LINE
8
layer1
10
32.5862499
20
9.9092188
11
32.6079847
21
9.9401834
0
LINE
8
layer1
10
32.6079847
20
9.9401834
11
32.6268389
21
9.9763517
0
LINE
8
layer1
10
32.6268389
20
9.9763517
11
32.655019
21
10.0638783
0
LINE
8
layer1
10
32.655019
20
10.0638783
11
32.6691805
21
10.1708505
0
LINE
8
layer1
10
32.6691805
20
10.1708505
11
32.6677504
21
10.2962053
0
LINE
8
layer1
10
32.6677504
20
10.2962053
11
32.6492364
21
10.4388158
0
LINE
8
layer1
10
32.6492364
20
10.4388158
11
32.612222
21
10.5974244
0
LINE
8
layer1
10
32.612222
20
10.5974244
11
32.5583816
21
10.7701051
0
LINE
8
layer1
10
32.5583816
20
10.7701051
11
32.5376063
21
10.8790042
0
LINE
8
layer1
10
32.5376063
20
10.8790042
11
32.5174271
21
11.0687776
0
LINE
8
layer1
10
32.5174271
20
11.0687776
11
32.5118058
21
11.1924396
0
LINE
8
layer1
10
32.5118058
20
11.1924396
11
32.511278
21
11.3357895
0
LINE
8
layer1
10
32.511278
20
11.3357895
11
32.5175145
21
11.4999414
0
LINE
8
layer1
10
32.5175145
20
11.4999414
11
32.532023
21
11.6815692
0
LINE
8
layer1
10
32.532023
20
11.6815692
11
32.5568224
21
11.8846046
0
LINE
8
layer1
10
32.5568224
20
11.8846046
11
32.5931096
21
12.1045646
0
LINE
8
layer1
10
32.5931096
20
12.1045646
11
32.6428243
21
12.3431942
0
LINE
8
layer1
10
32.6428243
20
12.3431942
11
32.7070188
21
12.5975089
0
LINE
8
layer1
10
32.7070188
20
12.5975089
11
32.7874842
21
12.868045
0
LINE
8
layer1
10
32.7874842
20
12.868045
11
32.8787295
21
13.1341843
0
ARC
8
layer1
10
36.0000068
20
-0.0000316
40
13.5
50
99.131936
51
103.3680683
0
LINE
8
layer1
10
33.8574432
20
13.3288625
11
34.04359
21
13.1179
0
LINE
8
layer1
10
34.04359
20
13.1179
11
34.22146
21
12.89875
0
LINE
8
layer1
10
34.22146
20
12.89875
11
34.37809
21
12.68836
0
LINE
8
layer1
10
34.37809
20
12.68836
11
34.51534
21
12.48692
0
LINE
8
layer1
10
34.51534
20
12.48692
11
34.63304
21
12.29759
0
LINE
8
layer1
10
34.63304
20
12.29759
11
34.73365
21
12.1195
0
LINE
8
layer1
10
34.73365
20
12.1195
11
34.81656
21
11.95725
0
LINE
8
layer1
10
34.81656
20
11.95725
11
34.88514
21
11.80798
0
LINE
8
layer1
10
34.88514
20
11.80798
11
34.93951
21
11.67534
0
LINE
8
layer1
10
34.93951
20
11.67534
11
34.98164
21
11.55894
0
LINE
8
layer1
10
34.98164
20
11.55894
11
35.03562
21
11.37589
0
LINE
8
layer1
10
35.03562
20
11.37589
11
35.0581
21
11.26733
0
LINE
8
layer1
10
35.0581
20
11.26733
11
35.07444
21
11.08719
0
LINE
8
layer1
10
35.07444
20
11.08719
11
35.10094
21
10.92649
0
LINE
8
layer1
10
35.10094
20
10.92649
11
35.13841
21
10.78765
0
LINE
8
layer1
10
35.13841
20
10.78765
11
35.18506
21
10.67129
0
LINE
8
layer1
10
35.18506
20
10.67129
11
35.23908
21
10.57788
0
LINE
8
layer1
10
35.23908
20
10.57788
11
35.29861
21
10.5078
0
LINE
8
layer1
10
35.29861
20
10.5078
11
35.32987
21
10.4816
0
LINE
8
layer1
10
35.32987
20
10.4816
11
35.3618
21
10.46131
0
LINE
8
layer1
10
35.3618
20
10.46131
11
35.39418
21
10.44697
0
LINE
8
layer1
10
35.39418
20
10.44697
11
35.42677
21
10.43857
0
LINE
8
layer1
10
35.42677
20
10.43857
11
35.46744
21
10.43643
0
LINE
8
layer1
10
35.46744
20
10.43643
11
35.86273
21
10.44913
0
LINE
8
layer1
10
35.86273
20
10.44913
11
36
21
10.45
0
LINE
8
layer1
10
36
20
10.45
11
36.13727
21
10.44913
0
LINE
8
layer1
10
36.13727
20
10.44913
11
36.53256
21
10.43643
0
LINE
8
layer1
10
36.53256
20
10.43643
11
36.57323
21
10.43857
0
LINE
8
layer1
10
36.57323
20
10.43857
11
36.60582
21
10.44697
0
LINE
8
layer1
10
36.60582
20
10.44697
11
36.6382
21
10.46131
0
LINE
8
layer1
10
36.6382
20
10.46131
11
36.67013
21
10.4816
0
LINE
8
layer1
10
36.67013
20
10.4816
11
36.70139
21
10.5078
0
LINE
8
layer1
10
36.70139
20
10.5078
11
36.76092
21
10.57788
0
LINE
8
layer1
10
36.76092
20
10.57788
11
36.81494
21
10.67129
0
LINE
8
layer1
10
36.81494
20
10.67129
11
36.86159
21
10.78765
0
LINE
8
layer1
10
36.86159
20
10.78765
11
36.89906
21
10.92649
0
LINE
8
layer1
10
36.89906
20
10.92649
11
36.92556
21
11.08719
0
LINE
8
layer1
10
36.92556
20
11.08719
11
36.9419
21
11.26733
0
LINE
8
layer1
10
36.9419
20
11.26733
11
36.96438
21
11.37589
0
LINE
8
layer1
10
36.96438
20
11.37589
11
37.01836
21
11.55894
0
LINE
8
layer1
10
37.01836
20
11.55894
11
37.06049
21
11.67534
0
LINE
8
layer1
10
37.06049
20
11.67534
11
37.11486
21
11.80798
0
LINE
8
layer1
10
37.11486
20
11.80798
11
37.18344
21
11.95725
0
LINE
8
layer1
10
37.18344
20
11.95725
11
37.26635
21
12.1195
0
LINE
8
layer1
10
37.26635
20
12.1195
11
37.36696
21
12.29759
0
LINE
8
layer1
10
37.36696
20
12.29759
11
37.48466
21
12.48692
0
LINE
8
layer1
10
37.48466
20
12.48692
11
37.62191
21
12.68836
0
LINE
8
layer1
10
37.62191
20
12.68836
11
37.77854
21
12.89875
0
LINE
8
layer1
10
37.77854
20
12.89875
11
37.95641
21
13.1179
0
LINE
8
layer1
10
37.95641
20
13.1179
11
38.1425568
21
13.3288625
0
ARC
8
layer1
10
35.9999931
20
-0.0000317
40
13.5
50
76.6319313
51
80.8680636
0
LINE
8
layer1
10
39.1212705
20
13.1341843
11
39.2125158
21
12.868045
0
LINE
8
layer1
10
39.2125158
20
12.868045
11
39.2929812
21
12.5975089
0
LINE
8
layer1
10
39.2929812
20
12.5975089
11
39.3571757
21
12.3431942
0
LINE
8
layer1
10
39.3571757
20
12.3431942
11
39.4068904
21
12.1045646
0
LINE
8
layer1
10
39.4068904
20
12.1045646
11
39.4431776
21
11.8846046
0
LINE
8
layer1
10
39.4431776
20
11.8846046
11
39.467977
21
11.6815692
0
LINE
8
layer1
10
39.467977
20
11.6815692
11
39.4824855
21
11.4999414
0
LINE
8
layer1
10
39.4824855
20
11.4999414
11
39.488722
21
11.3357895
0
LINE
8
layer1
10
39.488722
20
11.3357895
11
39.4881942
21
11.1924396
0
LINE
8
layer1
10
39.4881942
20
11.1924396
11
39.4825729
21
11.0687776
0
LINE
8
layer1
10
39.4825729
20
11.0687776
11
39.4623937
21
10.8790042
0
LINE
8
layer1
10
39.4623937
20
10.8790042
11
39.4416184
21
10.7701051
0
LINE
8
layer1
10
39.4416184
20
10.7701051
11
39.387778
21
10.5974244
0
LINE
8
layer1
10
39.387778
20
10.5974244
11
39.3507636
21
10.4388158
0
LINE
8
layer1
10
39.3507636
20
10.4388158
11
39.3322496
21
10.2962053
0
LINE
8
layer1
10
39.3322496
20
10.2962053
11
39.3308195
21
10.1708505
0
LINE
8
layer1
10
39.3308195
20
10.1708505
11
39.344981
21
10.0638783
0
LINE
8
layer1
10
39.344981
20
10.0638783
11
39.3731611
21
9.9763517
0
LINE
8
layer1
10
39.3731611
20
9.9763517
11
39.3920153
21
9.9401834
0
LINE
8
layer1
10
39.3920153
20
9.9401834
11
39.4137501
21
9.9092188
0
LINE
8
layer1
10
39.4137501
20
9.9092188
11
39.4381776
21
9.883579
0
LINE
8
layer1
10
39.4381776
20
9.883579
11
39.4650723
21
9.8633468
0
LINE
8
layer1
10
39.4650723
20
9.8633468
11
39.5018276
21
9.845806
0
LINE
8
layer1
10
39.5018276
20
9.845806
11
39.871888
21
9.7062683
0
LINE
8
layer1
10
39.871888
20
9.7062683
11
39.9990419
21
9.6545411
0
LINE
8
layer1
10
39.9990419
20
9.6545411
11
40.1255299
21
9.6012064
0
LINE
8
layer1
10
40.1255299
20
9.6012064
11
40.4858701
21
9.4382022
0
LINE
8
layer1
10
40.4858701
20
9.4382022
11
40.5242633
21
9.4246155
0
LINE
8
layer1
10
40.5242633
20
9.4246155
11
40.557587
21
9.4199045
0
LINE
8
layer1
10
40.557587
20
9.4199045
11
40.5929899
21
9.4207616
0
LINE
8
layer1
10
40.5929899
20
9.4207616
11
40.6302541
21
9.4272881
0
LINE
8
layer1
10
40.6302541
20
9.4272881
11
40.6691608
21
9.439531
0
LINE
8
layer1
10
40.6691608
20
9.439531
11
40.7509778
21
9.4814954
0
LINE
8
layer1
10
40.7509778
20
9.4814954
11
40.8366323
21
9.5471224
0
LINE
8
layer1
10
40.8366323
20
9.5471224
11
40.9242603
21
9.6367728
0
LINE
8
layer1
10
40.9242603
20
9.6367728
11
41.0120098
21
9.7507051
0
LINE
8
layer1
10
41.0120098
20
9.7507051
11
41.0979899
21
9.8890314
0
LINE
8
layer1
10
41.0979899
20
9.8890314
11
41.1820226
21
10.049206
0
LINE
8
layer1
10
41.1820226
20
10.049206
11
41.2443356
21
10.1408997
0
LINE
8
layer1
10
41.2443356
20
10.1408997
11
41.3642568
21
10.2893586
0
LINE
8
layer1
10
41.3642568
20
10.2893586
11
41.4477242
21
10.3807757
0
LINE
8
layer1
10
41.4477242
20
10.3807757
11
41.5487147
21
10.4825126
0
LINE
8
layer1
10
41.5487147
20
10.4825126
11
41.6691975
21
10.5941757
0
LINE
8
layer1
10
41.6691975
20
10.5941757
11
41.8078867
21
10.7123468
0
LINE
8
layer1
10
41.8078867
20
10.7123468
11
41.9689903
21
10.8383788
0
LINE
8
layer1
10
41.9689903
20
10.8383788
11
42.1501844
21
10.968255
0
LINE
8
layer1
10
42.1501844
20
10.968255
11
42.3540746
21
11.101838
0
LINE
8
layer1
10
42.3540746
20
11.101838
11
42.5792946
21
11.2362733
0
LINE
8
layer1
10
42.5792946
20
11.2362733
11
42.8274902
21
11.3706736
0
LINE
8
layer1
10
42.8274902
20
11.3706736
11
43.0801992
21
11.4943423
0
ARC
8
layer1
10
35.9999817
20
-0.0000267
40
13.5
50
54.1319323
51
58.3680646
0
LINE
8
layer1
10
43.9099126
20
10.9399455
11
43.8923653
21
10.6591468
0
LINE
8
layer1
10
43.8923653
20
10.6591468
11
43.8631759
21
10.3784113
0
LINE
8
layer1
10
43.8631759
20
10.3784113
11
43.8251618
21
10.118889
0
LINE
8
layer1
10
43.8251618
20
10.118889
11
43.7797727
21
9.879399
0
LINE
8
layer1
10
43.7797727
20
9.879399
11
43.7291226
21
9.662296
0
LINE
8
layer1
10
43.7291226
20
9.662296
11
43.674336
21
9.4652253
0
LINE
8
layer1
10
43.674336
20
9.4652253
11
43.6182341
21
9.291871
0
LINE
8
layer1
10
43.6182341
20
9.291871
11
43.5611777
21
9.1378278
0
LINE
8
layer1
10
43.5611777
20
9.1378278
11
43.5058324
21
9.0055918
0
LINE
8
layer1
10
43.5058324
20
9.0055918
11
43.4533156
21
8.8934941
0
LINE
8
layer1
10
43.4533156
20
8.8934941
11
43.3620493
21
8.7258886
0
LINE
8
layer1
10
43.3620493
20
8.7258886
11
43.3011816
21
8.6332293
0
LINE
8
layer1
10
43.3011816
20
8.6332293
11
43.1853575
21
8.494297
0
LINE
8
layer1
10
43.1853575
20
8.494297
11
43.0904638
21
8.3619266
0
LINE
8
layer1
10
43.0904638
20
8.3619266
11
43.0187843
21
8.2372566
0
LINE
8
layer1
10
43.0187843
20
8.2372566
11
42.9694919
21
8.1219911
0
LINE
8
layer1
10
42.9694919
20
8.1219911
11
42.941639
21
8.0177424
0
LINE
8
layer1
10
42.941639
20
8.0177424
11
42.934179
21
7.9260943
0
LINE
8
layer1
10
42.934179
20
7.9260943
11
42.937757
21
7.8854639
0
LINE
8
layer1
10
42.937757
20
7.8854639
11
42.9459877
21
7.8485388
0
LINE
8
layer1
10
42.9459877
20
7.8485388
11
42.9587439
21
7.8155028
0
LINE
8
layer1
10
42.9587439
20
7.8155028
11
42.9758488
21
7.7865185
0
LINE
8
layer1
10
42.9758488
20
7.7865185
11
43.0030936
21
7.7562472
0
LINE
8
layer1
10
43.0030936
20
7.7562472
11
43.2915861
21
7.4857152
0
LINE
8
layer1
10
43.2915861
20
7.4857152
11
43.3892659
21
7.3892659
0
LINE
8
layer1
10
43.3892659
20
7.3892659
11
43.4857152
21
7.2915861
0
LINE
8
layer1
10
43.4857152
20
7.2915861
11
43.7562472
21
7.0030936
0
LINE
8
layer1
10
43.7562472
20
7.0030936
11
43.7865185
21
6.9758488
0
LINE
8
layer1
10
43.7865185
20
6.9758488
11
43.8155028
21
6.9587439
0
LINE
8
layer1
10
43.8155028
20
6.9587439
11
43.8485388
21
6.9459877
0
LINE
8
layer1
10
43.8485388
20
6.9459877
11
43.8854639
21
6.937757
0
LINE
8
layer1
10
43.8854639
20
6.937757
11
43.9260943
21
6.934179
0
LINE
8
layer1
10
43.9260943
20
6.934179
11
44.0177424
21
6.941639
0
LINE
8
layer1
10
44.0177424
20
6.941639
11
44.1219911
21
6.9694919
0
LINE
8
layer1
10
44.1219911
20
6.9694919
11
44.2372566
21
7.0187843
0
LINE
8
layer1
10
44.2372566
20
7.0187843
11
44.3619266
21
7.0904638
0
LINE
8
layer1
10
44.3619266
20
7.0904638
11
44.494297
21
7.1853575
0
LINE
8
layer1
10
44.494297
20
7.1853575
11
44.6332293
21
7.3011816
0
LINE
8
layer1
10
44.6332293
20
7.3011816
11
44.7258886
21
7.3620493
0
LINE
8
layer1
10
44.7258886
20
7.3620493
11
44.8934941
21
7.4533156
0
LINE
8
layer1
10
44.8934941
20
7.4533156
11
45.0055918
21
7.5058324
0
LINE
8
layer1
10
45.0055918
20
7.5058324
11
45.1378278
21
7.5611777
0
LINE
8
layer1
10
45.1378278
20
7.5611777
11
45.291871
21
7.6182341
0
LINE
8
layer1
10
45.291871
20
7.6182341
11
45.4652253
21
7.674336
0
LINE
8
layer1
10
45.4652253
20
7.674336
11
45.662296
21
7.7291226
0
LINE
8
layer1
10
45.662296
20
7.7291226
11
45.879399
21
7.7797727
0
LINE
8
layer1
10
45.879399
20
7.7797727
11
46.118889
21
7.8251618
0
LINE
8
layer1
10
46.118889
20
7.8251618
11
46.3784113
21
7.8631759
0
LINE
8
layer1
10
46.3784113
20
7.8631759
11
46.6591468
21
7.8923653
0
LINE
8
layer1
10
46.6591468
20
7.8923653
11
46.9399455
21
7.9099126
0
ARC
8
layer1
10
35.9999732
20
-0.0000183
40
13.5
50
31.6319351
51
35.8680674
0
LINE
8
layer1
10
47.4943423
20
7.0801992
11
47.3706736
21
6.8274902
0
LINE
8
layer1
10
47.3706736
20
6.8274902
11
47.2362733
21
6.5792946
0
LINE
8
layer1
10
47.2362733
20
6.5792946
11
47.101838
21
6.3540746
0
LINE
8
layer1
10
47.101838
20
6.3540746
11
46.968255
21
6.1501844
0
LINE
8
layer1
10
46.968255
20
6.1501844
11
46.8383788
21
5.9689903
0
LINE
8
layer1
10
46.8383788
20
5.9689903
11
46.7123468
21
5.8078867
0
LINE
8
layer1
10
46.7123468
20
5.8078867
11
46.5941757
21
5.6691975
0
LINE
8
layer1
10
46.5941757
20
5.6691975
11
46.4825126
21
5.5487147
0
LINE
8
layer1
10
46.4825126
20
5.5487147
11
46.3807757
21
5.4477242
0
LINE
8
layer1
10
46.3807757
20
5.4477242
11
46.2893586
21
5.3642568
0
LINE
8
layer1
10
46.2893586
20
5.3642568
11
46.1408997
21
5.2443356
0
LINE
8
layer1
10
46.1408997
20
5.2443356
11
46.049206
21
5.1820226
0
LINE
8
layer1
10
46.049206
20
5.1820226
11
45.8890314
21
5.0979899
0
LINE
8
layer1
10
45.8890314
20
5.0979899
11
45.7507051
21
5.0120098
0
LINE
8
layer1
10
45.7507051
20
5.0120098
11
45.6367728
21
4.9242603
0
LINE
8
layer1
10
45.6367728
20
4.9242603
11
45.5471224
21
4.8366323
0
LINE
8
layer1
10
45.5471224
20
4.8366323
11
45.4814954
21
4.7509778
0
LINE
8
layer1
10
45.4814954
20
4.7509778
11
45.439531
21
4.6691608
0
LINE
8
layer1
10
45.439531
20
4.6691608
11
45.4272881
21
4.6302541
0
LINE
8
layer1
10
45.4272881
20
4.6302541
11
45.4207616
21
4.5929899
0
LINE
8
layer1
10
45.4207616
20
4.5929899
11
45.4199045
21
4.557587
0
LINE
8
layer1
10
45.4199045
20
4.557587
11
45.4246155
21
4.5242633
0
LINE
8
layer1
10
45.4246155
20
4.5242633
11
45.4382022
21
4.4858701
0
LINE
8
layer1
10
45.4382022
20
4.4858701
11
45.6012064
21
4.1255299
0
LINE
8
layer1
10
45.6012064
20
4.1255299
11
45.6545411
21
3.9990419
0
LINE
8
layer1
10
45.6545411
20
3.9990419
11
45.7062683
21
3.871888
0
LINE
8
layer1
10
45.7062683
20
3.871888
11
45.845806
21
3.5018276
0
LINE
8
layer1
10
45.845806
20
3.5018276
11
45.8633468
21
3.4650723
0
LINE
8
layer1
10
45.8633468
20
3.4650723
11
45.883579
21
3.4381776
0
LINE
8
layer1
10
45.883579
20
3.4381776
11
45.9092188
21
3.4137501
0
LINE
8
layer1
10
45.9092188
20
3.4137501
11
45.9401834
21
3.3920153
0
LINE
8
layer1
10
45.9401834
20
3.3920153
11
45.9763517
21
3.3731611
0
LINE
8
layer1
10
45.9763517
20
3.3731611
11
46.0638783
21
3.344981
0
LINE
8
layer1
10
46.0638783
20
3.344981
11
46.1708505
21
3.3308195
0
LINE
8
layer1
10
46.1708505
20
3.3308195
11
46.2962053
21
3.3322496
0
LINE
8
layer1
10
46.2962053
20
3.3322496
11
46.4388158
21
3.3507636
0
LINE
8
layer1
10
46.4388158
20
3.3507636
11
46.5974244
21
3.387778
0
LINE
8
layer1
10
46.5974244
20
3.387778
11
46.7701051
21
3.4416184
0
LINE
8
layer1
10
46.7701051
20
3.4416184
11
46.8790042
21
3.4623937
0
LINE
8
layer1
10
46.8790042
20
3.4623937
11
47.0687776
21
3.4825729
0
LINE
8
layer1
10
47.0687776
20
3.4825729
11
47.1924396
21
3.4881942
0
LINE
8
layer1
10
47.1924396
20
3.4881942
11
47.3357895
21
3.488722
0
LINE
8
layer1
10
47.3357895
20
3.488722
11
47.4999414
21
3.4824855
0
LINE
8
layer1
10
47.4999414
20
3.4824855
11
47.6815692
21
3.467977
0
LINE
8
layer1
10
47.6815692
20
3.467977
11
47.8846046
21
3.4431776
0
LINE
8
layer1
10
47.8846046
20
3.4431776
11
48.1045646
21
3.4068904
0
LINE
8
layer1
10
48.1045646
20
3.4068904
11
48.3431942
21
3.3571757
0
LINE
8
layer1
10
48.3431942
20
3.3571757
11
48.5975089
21
3.2929812
0
LINE
8
layer1
10
48.5975089
20
3.2929812
11
48.868045
21
3.2125158
0
LINE
8
layer1
10
48.868045
20
3.2125158
11
49.1341843
21
3.1212705
0
ARC
8
layer1
10
35.9999684
20
-0.0000068
40
13.5
50
9.131936
51
13.3680683
0
LINE
8
layer1
10
49.3288625
20
2.1425568
11
49.1179
21
1.95641
0
LINE
8
layer1
10
49.1179
20
1.95641
11
48.89875
21
1.77854
0
LINE
8
layer1
10
48.89875
20
1.77854
11
48.68836
21
1.62191
0
LINE
8
layer1
10
48.68836
20
1.62191
11
48.48692
21
1.48466
0
LINE
8
layer1
10
48.48692
20
1.48466
11
48.29759
21
1.36696
0
LINE
8
layer1
10
48.29759
20
1.36696
11
48.1195
21
1.26635
0
LINE
8
layer1
10
48.1195
20
1.26635
11
47.95725
21
1.18344
0
LINE
8
layer1
10
47.95725
20
1.18344
11
47.80798
21
1.11486
0
LINE
8
layer1
10
47.80798
20
1.11486
11
47.67534
21
1.06049
0
LINE
8
layer1
10
47.67534
20
1.06049
11
47.55894
21
1.01836
0
LINE
8
layer1
10
47.55894
20
1.01836
11
47.37589
21
0.96438
0
LINE
8
layer1
10
47.37589
20
0.96438
11
47.26733
21
0.9419
0
LINE
8
layer1
10
47.26733
20
0.9419
11
47.08719
21
0.92556
0
LINE
8
layer1
10
47.08719
20
0.92556
11
46.92649
21
0.89906
0
LINE
8
layer1
10
46.92649
20
0.89906
11
46.78765
21
0.86159
0
LINE
8
layer1
10
46.78765
20
0.86159
11
46.67129
21
0.81494
0
LINE
8
layer1
10
46.67129
20
0.81494
11
46.57788
21
0.76092
0
LINE
8
layer1
10
46.57788
20
0.76092
11
46.5078
21
0.70139
0
LINE
8
layer1
10
46.5078
20
0.70139
11
46.4816
21
0.67013
0
LINE
8
layer1
10
46.4816
20
0.67013
11
46.46131
21
0.6382
0
LINE
8
layer1
10
46.46131
20
0.6382
11
46.44697
21
0.60582
0
LINE
8
layer1
10
46.44697
20
0.60582
11
46.43857
21
0.57323
0
LINE
8
layer1
10
46.43857
20
0.57323
11
46.43643
21
0.53256
0
LINE
8
layer1
10
46.43643
20
0.53256
11
46.44913
21
0.13727
0
LINE
8
layer1
10
46.44913
20
0.13727
11
46.45
21
0
0
LINE
8
layer1
10
46.45
20
0
11
46.44913
21
-0.13727
0
LINE
8
layer1
10
46.44913
20
-0.13727
11
46.43643
21
-0.53256
0
LINE
8
layer1
10
46.43643
20
-0.53256
11
46.43857
21
-0.57323
0
LINE
8
layer1
10
46.43857
20
-0.57323
11
46.44697
21
-0.60582
0
LINE
8
layer1
10
46.44697
20
-0.60582
11
46.46131
21
-0.6382
0
LINE
8
layer1
10
46.46131
20
-0.6382
11
46.4816
21
-0.67013
0
LINE
8
layer1
10
46.4816
20
-0.67013
11
46.5078
21
-0.70139
0
LINE
8
layer1
10
46.5078
20
-0.70139
11
46.57788
21
-0.76092
0
LINE
8
layer1
10
46.57788
20
-0.76092
11
46.67129
21
-0.81494
0
LINE
8
layer1
10
46.67129
20
-0.81494
11
46.78765
21
-0.86159
0
LINE
8
layer1
10
46.78765
20
-0.86159
11
46.92649
21
-0.89906
0
LINE
8
layer1
10
46.92649
20
-0.89906
11
47.08719
21
-0.92556
0
LINE
8
layer1
10
47.08719
20
-0.92556
11
47.26733
21
-0.9419
0
LINE
8
layer1
10
47.26733
20
-0.9419
11
47.37589
21
-0.96438
0
LINE
8
layer1
10
47.37589
20
-0.96438
11
47.55894
21
-1.01836
0
LINE
8
layer1
10
47.55894
20
-1.01836
11
47.67534
21
-1.06049
0
LINE
8
layer1
10
47.67534
20
-1.06049
11
47.80798
21
-1.11486
0
LINE
8
layer1
10
47.80798
20
-1.11486
11
47.95725
21
-1.18344
0
LINE
8
layer1
10
47.95725
20
-1.18344
11
48.1195
21
-1.26635
0
LINE
8
layer1
10
48.1195
20
-1.26635
11
48.29759
21
-1.36696
0
LINE
8
layer1
10
48.29759
20
-1.36696
11
48.48692
21
-1.48466
0
LINE
8
layer1
10
48.48692
20
-1.48466
11
48.68836
21
-1.62191
0
LINE
8
layer1
10
48.68836
20
-1.62191
11
48.89875
21
-1.77854
0
LINE
8
layer1
10
48.89875
20
-1.77854
11
49.1179
21
-1.95641
0
LINE
8
layer1
10
49.1179
20
-1.95641
11
49.3288625
21
-2.1425568
0
ARC
8
layer1
10
35.9999683
20
0.0000069
40
13.5
50
346.6319313
51
350.8680636
0
LINE
8
layer1
10
49.1341843
20
-3.1212705
11
48.868045
21
-3.2125158
0
LINE
8
layer1
10
48.868045
20
-3.2125158
11
48.5975089
21
-3.2929812
0
LINE
8
layer1
10
48.5975089
20
-3.2929812
11
48.3431942
21
-3.3571757
0
LINE
8
layer1
10
48.3431942
20
-3.3571757
11
48.1045646
21
-3.4068904
0
LINE
8
layer1
10
48.1045646
20
-3.4068904
11
47.8846046
21
-3.4431776
0
LINE
8
layer1
10
47.8846046
20
-3.4431776
11
47.6815692
21
-3.467977
0
LINE
8
layer1
10
47.6815692
20
-3.467977
11
47.4999414
21
-3.4824855
0
LINE
8
layer1
10
47.4999414
20
-3.4824855
11
47.3357895
21
-3.488722
0
LINE
8
layer1
10
47.3357895
20
-3.488722
11
47.1924396
21
-3.4881942
0
LINE
8
layer1
10
47.1924396
20
-3.4881942
11
47.0687776
21
-3.4825729
0
LINE
8
layer1
10
47.0687776
20
-3.4825729
11
46.8790042
21
-3.4623937
0
LINE
8
layer1
10
46.8790042
20
-3.4623937
11
46.7701051
21
-3.4416184
0
LINE
8
layer1
10
46.7701051
20
-3.4416184
11
46.5974244
21
-3.387778
0
LINE
8
layer1
10
46.5974244
20
-3.387778
11
46.4388158
21
-3.3507636
0
LINE
8
layer1
10
46.4388158
20
-3.3507636
11
46.2962053
21
-3.3322496
0
LINE
8
layer1
10
46.2962053
20
-3.3322496
11
46.1708505
21
-3.3308195
0
LINE
8
layer1
10
46.1708505
20
-3.3308195
11
46.0638783
21
-3.344981
0
LINE
8
layer1
10
46.0638783
20
-3.344981
11
45.9763517
21
-3.3731611
0
LINE
8
layer1
10
45.9763517
20
-3.3731611
11
45.9401834
21
-3.3920153
0
LINE
8
layer1
10
45.9401834
20
-3.3920153
11
45.9092188
21
-3.4137501
0
LINE
8
layer1
10
45.9092188
20
-3.4137501
11
45.883579
21
-3.4381776
0
LINE
8
layer1
10
45.883579
20
-3.4381776
11
45.8633468
21
-3.4650723
0
LINE
8
layer1
10
45.8633468
20
-3.4650723
11
45.845806
21
-3.5018276
0
LINE
8
layer1
10
45.845806
20
-3.5018276
11
45.7062683
21
-3.871888
0
LINE
8
layer1
10
45.7062683
20
-3.871888
11
45.6545411
21
-3.9990419
0
LINE
8
layer1
10
45.6545411
20
-3.9990419
11
45.6012064
21
-4.1255299
0
LINE
8
layer1
10
45.6012064
20
-4.1255299
11
45.4382022
21
-4.4858701
0
LINE
8
layer1
10
45.4382022
20
-4.4858701
11
45.4246155
21
-4.5242633
0
LINE
8
layer1
10
45.4246155
20
-4.5242633
11
45.4199045
21
-4.557587
0
LINE
8
layer1
10
45.4199045
20
-4.557587
11
45.4207616
21
-4.5929899
0
LINE
8
layer1
10
45.4207616
20
-4.5929899
11
45.4272881
21
-4.6302541
0
LINE
8
layer1
10
45.4272881
20
-4.6302541
11
45.439531
21
-4.6691608
0
LINE
8
layer1
10
45.439531
20
-4.6691608
11
45.4814954
21
-4.7509778
0
LINE
8
layer1
10
45.4814954
20
-4.7509778
11
45.5471224
21
-4.8366323
0
LINE
8
layer1
10
45.5471224
20
-4.8366323
11
45.6367728
21
-4.9242603
0
LINE
8
layer1
10
45.6367728
20
-4.9242603
11
45.7507051
21
-5.0120098
0
LINE
8
layer1
10
45.7507051
20
-5.0120098
11
45.8890314
21
-5.0979899
0
LINE
8
layer1
10
45.8890314
20
-5.0979899
11
46.049206
21
-5.1820226
0
LINE
8
layer1
10
46.049206
20
-5.1820226
11
46.1408997
21
-5.2443356
0
LINE
8
layer1
10
46.1408997
20
-5.2443356
11
46.2893586
21
-5.3642568
0
LINE
8
layer1
10
46.2893586
20
-5.3642568
11
46.3807757
21
-5.4477242
0
LINE
8
layer1
10
46.3807757
20
-5.4477242
11
46.4825126
21
-5.5487147
0
LINE
8
layer1
10
46.4825126
20
-5.5487147
11
46.5941757
21
-5.6691975
0
LINE
8
layer1
10
46.5941757
20
-5.6691975
11
46.7123468
21
-5.8078867
0
LINE
8
layer1
10
46.7123468
20
-5.8078867
11
46.8383788
21
-5.9689903
0
LINE
8
layer1
10
46.8383788
20
-5.9689903
11
46.968255
21
-6.1501844
0
LINE
8
layer1
10
46.968255
20
-6.1501844
11
47.101838
21
-6.3540746
0
LINE
8
layer1
10
47.101838
20
-6.3540746
11
47.2362733
21
-6.5792946
0
LINE
8
layer1
10
47.2362733
20
-6.5792946
11
47.3706736
21
-6.8274902
0
LINE
8
layer1
10
47.3706736
20
-6.8274902
11
47.4943423
21
-7.0801992
0
ARC
8
layer1
10
35.9999733
20
0.0000183
40
13.5
50
324.1319323
51
328.3680646
0
LINE
8
layer1
10
46.9399455
20
-7.9099126
11
46.6591468
21
-7.8923653
0
LINE
8
layer1
10
46.6591468
20
-7.8923653
11
46.3784113
21
-7.8631759
0
LINE
8
layer1
10
46.3784113
20
-7.8631759
11
46.118889
21
-7.8251618
0
LINE
8
layer1
10
46.118889
20
-7.8251618
11
45.879399
21
-7.7797727
0
LINE
8
layer1
10
45.879399
20
-7.7797727
11
45.662296
21
-7.7291226
0
LINE
8
layer1
10
45.662296
20
-7.7291226
11
45.4652253
21
-7.674336
0
LINE
8
layer1
10
45.4652253
20
-7.674336
11
45.291871
21
-7.6182341
0
LINE
8
layer1
10
45.291871
20
-7.6182341
11
45.1378278
21
-7.5611777
0
LINE
8
layer1
10
45.1378278
20
-7.5611777
11
45.0055918
21
-7.5058324
0
LINE
8
layer1
10
45.0055918
20
-7.5058324
11
44.8934941
21
-7.4533156
0
LINE
8
layer1
10
44.8934941
20
-7.4533156
11
44.7258886
21
-7.3620493
0
LINE
8
layer1
10
44.7258886
20
-7.3620493
11
44.6332293
21
-7.3011816
0
LINE
8
layer1
10
44.6332293
20
-7.3011816
11
44.494297
21
-7.1853575
0
LINE
8
layer1
10
44.494297
20
-7.1853575
11
44.3619266
21
-7.0904638
0
LINE
8
layer1
10
44.3619266
20
-7.0904638
11
44.2372566
21
-7.0187843
0
LINE
8
layer1
10
44.2372566
20
-7.0187843
11
44.1219911
21
-6.9694919
0
LINE
8
layer1
10
44.1219911
20
-6.9694919
11
44.0177424
21
-6.941639
0
LINE
8
layer1
10
44.0177424
20
-6.941639
11
43.9260943
21
-6.934179
0
LINE
8
layer1
10
43.9260943
20
-6.934179
11
43.8854639
21
-6.937757
0
LINE
8
layer1
10
43.8854639
20
-6.937757
11
43.8485388
21
-6.9459877
0
LINE
8
layer1
10
43.8485388
20
-6.9459877
11
43.8155028
21
-6.9587439
0
LINE
8
layer1
10
43.8155028
20
-6.9587439
11
43.7865185
21
-6.9758488
0
LINE
8
layer1
10
43.7865185
20
-6.9758488
11
43.7562472
21
-7.0030936
0
LINE
8
layer1
10
43.7562472
20
-7.0030936
11
43.4857152
21
-7.2915861
0
LINE
8
layer1
10
43.4857152
20
-7.2915861
11
43.3892659
21
-7.3892659
0
LINE
8
layer1
10
43.3892659
20
-7.3892659
11
43.2915861
21
-7.4857152
0
LINE
8
layer1
10
43.2915861
20
-7.4857152
11
43.0030936
21
-7.7562472
0
LINE
8
layer1
10
43.0030936
20
-7.7562472
11
42.9758488
21
-7.7865185
0
LINE
8
layer1
10
42.9758488
20
-7.7865185
11
42.9587439
21
-7.8155028
0
LINE
8
layer1
10
42.9587439
20
-7.8155028
11
42.9459877
21
-7.8485388
0
LINE
8
layer1
10
42.9459877
20
-7.8485388
11
42.937757
21
-7.8854639
0
LINE
8
layer1
10
42.937757
20
-7.8854639
11
42.934179
21
-7.9260943
0
LINE
8
layer1
10
42.934179
20
-7.9260943
11
42.941639
21
-8.0177424
0
LINE
8
layer1
10
42.941639
20
-8.0177424
11
42.9694919
21
-8.1219911
0
LINE
8
layer1
10
42.9694919
20
-8.1219911
11
43.0187843
21
-8.2372566
0
LINE
8
layer1
10
43.0187843
20
-8.2372566
11
43.0904638
21
-8.3619266
0
LINE
8
layer1
10
43.0904638
20
-8.3619266
11
43.1853575
21
-8.494297
0
LINE
8
layer1
10
43.1853575
20
-8.494297
11
43.3011816
21
-8.6332293
0
LINE
8
layer1
10
43.3011816
20
-8.6332293
11
43.3620493
21
-8.7258886
0
LINE
8
layer1
10
43.3620493
20
-8.7258886
11
43.4533156
21
-8.8934941
0
LINE
8
layer1
10
43.4533156
20
-8.8934941
11
43.5058324
21
-9.0055918
0
LINE
8
layer1
10
43.5058324
20
-9.0055918
11
43.5611777
21
-9.1378278
0
LINE
8
layer1
10
43.5611777
20
-9.1378278
11
43.6182341
21
-9.291871
0
LINE
8
layer1
10
43.6182341
20
-9.291871
11
43.674336
21
-9.4652253
0
LINE
8
layer1
10
43.674336
20
-9.4652253
11
43.7291226
21
-9.662296
0
LINE
8
layer1
10
43.7291226
20
-9.662296
11
43.7797727
21
-9.879399
0
LINE
8
layer1
10
43.7797727
20
-9.879399
11
43.8251618
21
-10.118889
0
LINE
8
layer1
10
43.8251618
20
-10.118889
11
43.8631759
21
-10.3784113
0
LINE
8
layer1
10
43.8631759
20
-10.3784113
11
43.8923653
21
-10.6591468
0
LINE
8
layer1
10
43.8923653
20
-10.6591468
11
43.9099126
21
-10.9399455
0
ARC
8
layer1
10
35.9999817
20
0.0000268
40
13.5
50
301.6319351
51
305.8680674
0
LINE
8
layer1
10
43.0801992
20
-11.4943423
11
42.8274902
21
-11.3706736
0
LINE
8
layer1
10
42.8274902
20
-11.3706736
11
42.5792946
21
-11.2362733
0
LINE
8
layer1
10
42.5792946
20
-11.2362733
11
42.3540746
21
-11.101838
0
LINE
8
layer1
10
42.3540746
20
-11.101838
11
42.1501844
21
-10.968255
0
LINE
8
layer1
10
42.1501844
20
-10.968255
11
41.9689903
21
-10.8383788
0
LINE
8
layer1
10
41.9689903
20
-10.8383788
11
41.8078867
21
-10.7123468
0
LINE
8
layer1
10
41.8078867
20
-10.7123468
11
41.6691975
21
-10.5941757
0
LINE
8
layer1
10
41.6691975
20
-10.5941757
11
41.5487147
21
-10.4825126
0
LINE
8
layer1
10
41.5487147
20
-10.4825126
11
41.4477242
21
-10.3807757
0
LINE
8
layer1
10
41.4477242
20
-10.3807757
11
41.3642568
21
-10.2893586
0
LINE
8
layer1
10
41.3642568
20
-10.2893586
11
41.2443356
21
-10.1408997
0
LINE
8
layer1
10
41.2443356
20
-10.1408997
11
41.1820226
21
-10.049206
0
LINE
8
layer1
10
41.1820226
20
-10.049206
11
41.0979899
21
-9.8890314
0
LINE
8
layer1
10
41.0979899
20
-9.8890314
11
41.0120098
21
-9.7507051
0
LINE
8
layer1
10
41.0120098
20
-9.7507051
11
40.9242603
21
-9.6367728
0
LINE
8
layer1
10
40.9242603
20
-9.6367728
11
40.8366323
21
-9.5471224
0
LINE
8
layer1
10
40.8366323
20
-9.5471224
11
40.7509778
21
-9.4814954
0
LINE
8
layer1
10
40.7509778
20
-9.4814954
11
40.6691608
21
-9.439531
0
LINE
8
layer1
10
40.6691608
20
-9.439531
11
40.6302541
21
-9.4272881
0
LINE
8
layer1
10
40.6302541
20
-9.4272881
11
40.5929899
21
-9.4207616
0
LINE
8
layer1
10
40.5929899
20
-9.4207616
11
40.557587
21
-9.4199045
0
LINE
8
layer1
10
40.557587
20
-9.4199045
11
40.5242633
21
-9.4246155
0
LINE
8
layer1
10
40.5242633
20
-9.4246155
11
40.4858701
21
-9.4382022
0
LINE
8
layer1
10
40.4858701
20
-9.4382022
11
40.1255299
21
-9.6012064
0
LINE
8
layer1
10
40.1255299
20
-9.6012064
11
39.9990419
21
-9.6545411
0
LINE
8
layer1
10
39.9990419
20
-9.6545411
11
39.871888
21
-9.7062683
0
LINE
8
layer1
10
39.871888
20
-9.7062683
11
39.5018276
21
-9.845806
0
LINE
8
layer1
10
39.5018276
20
-9.845806
11
39.4650723
21
-9.8633468
0
LINE
8
layer1
10
39.4650723
20
-9.8633468
11
39.4381776
21
-9.883579
0
LINE
8
layer1
10
39.4381776
20
-9.883579
11
39.4137501
21
-9.9092188
0
LINE
8
layer1
10
39.4137501
20
-9.9092188
11
39.3920153
21
-9.9401834
0
LINE
8
layer1
10
39.3920153
20
-9.9401834
11
39.3731611
21
-9.9763517
0
LINE
8
layer1
10
39.3731611
20
-9.9763517
11
39.344981
21
-10.0638783
0
LINE
8
layer1
10
39.344981
20
-10.0638783
11
39.3308195
21
-10.1708505
0
LINE
8
layer1
10
39.3308195
20
-10.1708505
11
39.3322496
21
-10.2962053
0
LINE
8
layer1
10
39.3322496
20
-10.2962053
11
39.3507636
21
-10.4388158
0
LINE
8
layer1
10
39.3507636
20
-10.4388158
11
39.387778
21
-10.5974244
0
LINE
8
layer1
10
39.387778
20
-10.5974244
11
39.4416184
21
-10.7701051
0
LINE
8
layer1
10
39.4416184
20
-10.7701051
11
39.4623937
21
-10.8790042
0
LINE
8
layer1
10
39.4623937
20
-10.8790042
11
39.4825729
21
-11.0687776
0
LINE
8
layer1
10
39.4825729
20
-11.0687776
11
39.4881942
21
-11.1924396
0
LINE
8
layer1
10
39.4881942
20
-11.1924396
11
39.488722
21
-11.3357895
0
LINE
8
layer1
10
39.488722
20
-11.3357895
11
39.4824855
21
-11.4999414
0
LINE
8
layer1
10
39.4824855
20
-11.4999414
11
39.467977
21
-11.6815692
0
LINE
8
layer1
10
39.467977
20
-11.6815692
11
39.4431776
21
-11.8846046
0
LINE
8
layer1
10
39.4431776
20
-11.8846046
11
39.4068904
21
-12.1045646
0
LINE
8
layer1
10
39.4068904
20
-12.1045646
11
39.3571757
21
-12.3431942
0
LINE
8
layer1
10
39.3571757
20
-12.3431942
11
39.2929812
21
-12.5975089
0
LINE
8
layer1
10
39.2929812
20
-12.5975089
11
39.2125158
21
-12.868045
0
LINE
8
layer1
10
39.2125158
20
-12.868045
11
39.1212705
21
-13.1341843
0
ARC
8
layer1
10
35.9999932
20
0.0000316
40
13.5
50
279.131936
51
283.3680683
0
LINE
8
layer1
10
38.1425568
20
-13.3288625
11
37.95641
21
-13.1179
0
LINE
8
layer1
10
37.95641
20
-13.1179
11
37.77854
21
-12.89875
0
LINE
8
layer1
10
37.77854
20
-12.89875
11
37.62191
21
-12.68836
0
LINE
8
layer1
10
37.62191
20
-12.68836
11
37.48466
21
-12.48692
0
LINE
8
layer1
10
37.48466
20
-12.48692
11
37.36696
21
-12.29759
0
LINE
8
layer1
10
37.36696
20
-12.29759
11
37.26635
21
-12.1195
0
LINE
8
layer1
10
37.26635
20
-12.1195
11
37.18344
21
-11.95725
0
LINE
8
layer1
10
37.18344
20
-11.95725
11
37.11486
21
-11.80798
0
LINE
8
layer1
10
37.11486
20
-11.80798
11
37.06049
21
-11.67534
0
LINE
8
layer1
10
37.06049
20
-11.67534
11
37.01836
21
-11.55894
0
LINE
8
layer1
10
37.01836
20
-11.55894
11
36.96438
21
-11.37589
0
LINE
8
layer1
10
36.96438
20
-11.37589
11
36.9419
21
-11.26733
0
LINE
8
layer1
10
36.9419
20
-11.26733
11
36.92556
21
-11.08719
0
LINE
8
layer1
10
36.92556
20
-11.08719
11
36.89906
21
-10.92649
0
LINE
8
layer1
10
36.89906
20
-10.92649
11
36.86159
21
-10.78765
0
LINE
8
layer1
10
36.86159
20
-10.78765
11
36.81494
21
-10.67129
0
LINE
8
layer1
10
36.81494
20
-10.67129
11
36.76092
21
-10.57788
0
LINE
8
layer1
10
36.76092
20
-10.57788
11
36.70139
21
-10.5078
0
LINE
8
layer1
10
36.70139
20
-10.5078
11
36.67013
21
-10.4816
0
LINE
8
layer1
10
36.67013
20
-10.4816
11
36.6382
21
-10.46131
0
LINE
8
layer1
10
36.6382
20
-10.46131
11
36.60582
21
-10.44697
0
LINE
8
layer1
10
36.60582
20
-10.44697
11
36.57323
21
-10.43857
0
LINE
8
layer1
10
36.57323
20
-10.43857
11
36.53256
21
-10.43643
0
LINE
8
layer1
10
36.53256
20
-10.43643
11
36.13727
21
-10.44913
0
LINE
8
layer1
10
36.13727
20
-10.44913
11
36
21
-10.45
0
LINE
8
layer1
10
36
20
-10.45
11
35.86273
21
-10.44913
0
LINE
8
layer1
10
35.86273
20
-10.44913
11
35.46744
21
-10.43643
0
LINE
8
layer1
10
35.46744
20
-10.43643
11
35.42677
21
-10.43857
0
LINE
8
layer1
10
35.42677
20
-10.43857
11
35.39418
21
-10.44697
0
LINE
8
layer1
10
35.39418
20
-10.44697
11
35.3618
21
-10.46131
0
LINE
8
layer1
10
35.3618
20
-10.46131
11
35.32987
21
-10.4816
0
LINE
8
layer1
10
35.32987
20
-10.4816
11
35.29861
21
-10.5078
0
LINE
8
layer1
10
35.29861
20
-10.5078
11
35.23908
21
-10.57788
0
LINE
8
layer1
10
35.23908
20
-10.57788
11
35.18506
21
-10.67129
0
LINE
8
layer1
10
35.18506
20
-10.67129
11
35.13841
21
-10.78765
0
LINE
8
layer1
10
35.13841
20
-10.78765
11
35.10094
21
-10.92649
0
LINE
8
layer1
10
35.10094
20
-10.92649
11
35.07444
21
-11.08719
0
LINE
8
layer1
10
35.07444
20
-11.08719
11
35.0581
21
-11.26733
0
LINE
8
layer1
10
35.0581
20
-11.26733
11
35.03562
21
-11.37589
0
LINE
8
layer1
10
35.03562
20
-11.37589
11
34.98164
21
-11.55894
0
LINE
8
layer1
10
34.98164
20
-11.55894
11
34.93951
21
-11.67534
0
LINE
8
layer1
10
34.93951
20
-11.67534
11
34.88514
21
-11.80798
0
LINE
8
layer1
10
34.88514
20
-11.80798
11
34.81656
21
-11.95725
0
LINE
8
layer1
10
34.81656
20
-11.95725
11
34.73365
21
-12.1195
0
LINE
8
layer1
10
34.73365
20
-12.1195
11
34.63304
21
-12.29759
0
LINE
8
layer1
10
34.63304
20
-12.29759
11
34.51534
21
-12.48692
0
LINE
8
layer1
10
34.51534
20
-12.48692
11
34.37809
21
-12.68836
0
LINE
8
layer1
10
34.37809
20
-12.68836
11
34.22146
21
-12.89875
0
LINE
8
layer1
10
34.22146
20
-12.89875
11
34.04359
21
-13.1179
0
LINE
8
layer1
10
34.04359
20
-13.1179
11
33.8574432
21
-13.3288625
0
ARC
8
layer1
10
36.0000069
20
0.0000317
40
13.5
50
256.6319313
51
260.8680636
0
LINE
8
layer1
10
32.8787295
20
-13.1341843
11
32.7874842
21
-12.868045
0
LINE
8
layer1
10
32.7874842
20
-12.868045
11
32.7070188
21
-12.5975089
0
LINE
8
layer1
10
32.7070188
20
-12.5975089
11
32.6428243
21
-12.3431942
0
LINE
8
layer1
10
32.6428243
20
-12.3431942
11
32.5931096
21
-12.1045646
0
LINE
8
layer1
10
32.5931096
20
-12.1045646
11
32.5568224
21
-11.8846046
0
LINE
8
layer1
10
32.5568224
20
-11.8846046
11
32.532023
21
-11.6815692
0
LINE
8
layer1
10
32.532023
20
-11.6815692
11
32.5175145
21
-11.4999414
0
LINE
8
layer1
10
32.5175145
20
-11.4999414
11
32.511278
21
-11.3357895
0
LINE
8
layer1
10
32.511278
20
-11.3357895
11
32.5118058
21
-11.1924396
0
LINE
8
layer1
10
32.5118058
20
-11.1924396
11
32.5174271
21
-11.0687776
0
LINE
8
layer1
10
32.5174271
20
-11.0687776
11
32.5376063
21
-10.8790042
0
LINE
8
layer1
10
32.5376063
20
-10.8790042
11
32.5583816
21
-10.7701051
0
LINE
8
layer1
10
32.5583816
20
-10.7701051
11
32.612222
21
-10.5974244
0
LINE
8
layer1
10
32.612222
20
-10.5974244
11
32.6492364
21
-10.4388158
0
LINE
8
layer1
10
32.6492364
20
-10.4388158
11
32.6677504
21
-10.2962053
0
LINE
8
layer1
10
32.6677504
20
-10.2962053
11
32.6691805
21
-10.1708505
0
LINE
8
layer1
10
32.6691805
20
-10.1708505
11
32.655019
21
-10.0638783
0
LINE
8
layer1
10
32.655019
20
-10.0638783
11
32.6268389
21
-9.9763517
0
LINE
8
layer1
10
32.6268389
20
-9.9763517
11
32.6079847
21
-9.9401834
0
LINE
8
layer1
10
32.6079847
20
-9.9401834
11
32.5862499
21
-9.9092188
0
LINE
8
layer1
10
32.5862499
20
-9.9092188
11
32.5618224
21
-9.883579
0
LINE
8
layer1
10
32.5618224
20
-9.883579
11
32.5349277
21
-9.8633468
0
LINE
8
layer1
10
32.5349277
20
-9.8633468
11
32.4981724
21
-9.845806
0
LINE
8
layer1
10
32.4981724
20
-9.845806
11
32.128112
21
-9.7062683
0
LINE
8
layer1
10
32.128112
20
-9.7062683
11
32.0009581
21
-9.6545411
0
LINE
8
layer1
10
32.0009581
20
-9.6545411
11
31.8744701
21
-9.6012064
0
LINE
8
layer1
10
31.8744701
20
-9.6012064
11
31.5141299
21
-9.4382022
0
LINE
8
layer1
10
31.5141299
20
-9.4382022
11
31.4757367
21
-9.4246155
0
LINE
8
layer1
10
31.4757367
20
-9.4246155
11
31.442413
21
-9.4199045
0
LINE
8
layer1
10
31.442413
20
-9.4199045
11
31.4070101
21
-9.4207616
0
LINE
8
layer1
10
31.4070101
20
-9.4207616
11
31.3697459
21
-9.4272881
0
LINE
8
layer1
10
31.3697459
20
-9.4272881
11
31.3308392
21
-9.439531
0
LINE
8
layer1
10
31.3308392
20
-9.439531
11
31.2490222
21
-9.4814954
0
LINE
8
layer1
10
31.2490222
20
-9.4814954
11
31.1633677
21
-9.5471224
0
LINE
8
layer1
10
31.1633677
20
-9.5471224
11
31.0757397
21
-9.6367728
0
LINE
8
layer1
10
31.0757397
20
-9.6367728
11
30.9879902
21
-9.7507051
0
LINE
8
layer1
10
30.9879902
20
-9.7507051
11
30.9020101
21
-9.8890314
0
LINE
8
layer1
10
30.9020101
20
-9.8890314
11
30.8179774
21
-10.049206
0
LINE
8
layer1
10
30.8179774
20
-10.049206
11
30.7556644
21
-10.1408997
0
LINE
8
layer1
10
30.7556644
20
-10.1408997
11
30.6357432
21
-10.2893586
0
LINE
8
layer1
10
30.6357432
20
-10.2893586
11
30.5522758
21
-10.3807757
0
LINE
8
layer1
10
30.5522758
20
-10.3807757
11
30.4512853
21
-10.4825126
0
LINE
8
layer1
10
30.4512853
20
-10.4825126
11
30.3308025
21
-10.5941757
0
LINE
8
layer1
10
30.3308025
20
-10.5941757
11
30.1921133
21
-10.7123468
0
LINE
8
layer1
10
30.1921133
20
-10.7123468
11
30.0310097
21
-10.8383788
0
LINE
8
layer1
10
30.0310097
20
-10.8383788
11
29.8498156
21
-10.968255
0
LINE
8
layer1
10
29.8498156
20
-10.968255
11
29.6459254
21
-11.101838
0
LINE
8
layer1
10
29.6459254
20
-11.101838
11
29.4207054
21
-11.2362733
0
LINE
8
layer1
10
29.4207054
20
-11.2362733
11
29.1725098
21
-11.3706736
0
LINE
8
layer1
10
29.1725098
20
-11.3706736
11
28.9198008
21
-11.4943423
0
ARC
8
layer1
10
36.0000183
20
0.0000267
40
13.5
50
234.1319323
51
238.3680646
0
LINE
8
layer1
10
28.0900874
20
-10.9399455
11
28.1076347
21
-10.6591468
0
LINE
8
layer1
10
28.1076347
20
-10.6591468
11
28.1368241
21
-10.3784113
0
LINE
8
layer1
10
28.1368241
20
-10.3784113
11
28.1748382
21
-10.118889
0
LINE
8
layer1
10
28.1748382
20
-10.118889
11
28.2202273
21
-9.879399
0
LINE
8
layer1
10
28.2202273
20
-9.879399
11
28.2708774
21
-9.662296
0
LINE
8
layer1
10
28.2708774
20
-9.662296
11
28.325664
21
-9.4652253
0
LINE
8
layer1
10
28.325664
20
-9.4652253
11
28.3817659
21
-9.291871
0
LINE
8
layer1
10
28.3817659
20
-9.291871
11
28.4388223
21
-9.1378278
0
LINE
8
layer1
10
28.4388223
20
-9.1378278
11
28.4941676
21
-9.0055918
0
LINE
8
layer1
10
28.4941676
20
-9.0055918
11
28.5466844
21
-8.8934941
0
LINE
8
layer1
10
28.5466844
20
-8.8934941
11
28.6379507
21
-8.7258886
0
LINE
8
layer1
10
28.6379507
20
-8.7258886
11
28.6988184
21
-8.6332293
0
LINE
8
layer1
10
28.6988184
20
-8.6332293
11
28.8146425
21
-8.494297
0
LINE
8
layer1
10
28.8146425
20
-8.494297
11
28.9095362
21
-8.3619266
0
LINE
8
layer1
10
28.9095362
20
-8.3619266
11
28.9812157
21
-8.2372566
0
LINE
8
layer1
10
28.9812157
20
-8.2372566
11
29.0305081
21
-8.1219911
0
LINE
8
layer1
10
29.0305081
20
-8.1219911
11
29.058361
21
-8.0177424
0
LINE
8
layer1
10
29.058361
20
-8.0177424
11
29.065821
21
-7.9260943
0
LINE
8
layer1
10
29.065821
20
-7.9260943
11
29.062243
21
-7.8854639
0
LINE
8
layer1
10
29.062243
20
-7.8854639
11
29.0540123
21
-7.8485388
0
LINE
8
layer1
10
29.0540123
20
-7.8485388
11
29.0412561
21
-7.8155028
0
LINE
8
layer1
10
29.0412561
20
-7.8155028
11
29.0241512
21
-7.7865185
0
LINE
8
layer1
10
29.0241512
20
-7.7865185
11
28.9969064
21
-7.7562472
0
LINE
8
layer1
10
28.9969064
20
-7.7562472
11
28.7084139
21
-7.4857152
0
LINE
8
layer1
10
28.7084139
20
-7.4857152
11
28.6107341
21
-7.3892659
0
LINE
8
layer1
10
28.6107341
20
-7.3892659
11
28.5142848
21
-7.2915861
0
LINE
8
layer1
10
28.5142848
20
-7.2915861
11
28.2437528
21
-7.0030936
0
LINE
8
layer1
10
28.2437528
20
-7.0030936
11
28.2134815
21
-6.9758488
0
LINE
8
layer1
10
28.2134815
20
-6.9758488
11
28.1844972
21
-6.9587439
0
LINE
8
layer1
10
28.1844972
20
-6.9587439
11
28.1514612
21
-6.9459877
0
LINE
8
layer1
10
28.1514612
20
-6.9459877
11
28.1145361
21
-6.937757
0
LINE
8
layer1
10
28.1145361
20
-6.937757
11
28.0739057
21
-6.934179
0
LINE
8
layer1
10
28.0739057
20
-6.934179
11
27.9822576
21
-6.941639
0
LINE
8
layer1
10
27.9822576
20
-6.941639
11
27.8780089
21
-6.9694919
0
LINE
8
layer1
10
27.8780089
20
-6.9694919
11
27.7627434
21
-7.0187843
0
LINE
8
layer1
10
27.7627434
20
-7.0187843
11
27.6380734
21
-7.0904638
0
LINE
8
layer1
10
27.6380734
20
-7.0904638
11
27.505703
21
-7.1853575
0
LINE
8
layer1
10
27.505703
20
-7.1853575
11
27.3667707
21
-7.3011816
0
LINE
8
layer1
10
27.3667707
20
-7.3011816
11
27.2741114
21
-7.3620493
0
LINE
8
layer1
10
27.2741114
20
-7.3620493
11
27.1065059
21
-7.4533156
0
LINE
8
layer1
10
27.1065059
20
-7.4533156
11
26.9944082
21
-7.5058324
0
LINE
8
layer1
10
26.9944082
20
-7.5058324
11
26.8621722
21
-7.5611777
0
LINE
8
layer1
10
26.8621722
20
-7.5611777
11
26.708129
21
-7.6182341
0
LINE
8
layer1
10
26.708129
20
-7.6182341
11
26.5347747
21
-7.674336
0
LINE
8
layer1
10
26.5347747
20
-7.674336
11
26.337704
21
-7.7291226
0
LINE
8
layer1
10
26.337704
20
-7.7291226
11
26.120601
21
-7.7797727
0
LINE
8
layer1
10
26.120601
20
-7.7797727
11
25.881111
21
-7.8251618
0
LINE
8
layer1
10
25.881111
20
-7.8251618
11
25.6215887
21
-7.8631759
0
LINE
8
layer1
10
25.6215887
20
-7.8631759
11
25.3408532
21
-7.8923653
0
LINE
8
layer1
10
25.3408532
20
-7.8923653
11
25.0600545
21
-7.9099126
0
ARC
8
layer1
10
36.0000268
20
0.0000183
40
13.5
50
211.6319351
51
215.8680674
0
LINE
8
layer1
10
24.5056577
20
-7.0801992
11
24.6293264
21
-6.8274902
0
ENDSEC
0
EOF