  0
SECTION
  2
HEADER
  9
$ACADVER
  1
AC1015
  9
$ACADMAINTVER
 70
     6
  9
$DWGCODEPAGE
  3
ANSI_1250
  9
$INSBASE
 10
0.0
 20
0.0
 30
0.0
  9
$EXTMIN
 10
-13.3288617889
 20
-13.3288572051
 30
0.0
  9
$EXTMAX
 10
13.3288632183
 20
13.3288624038
 30
0.0
  9
$LIMMIN
 10
0.0
 20
0.0
  9
$LIMMAX
 10
420.0
 20
297.0
  9
$ORTHOMODE
 70
     0
  9
$REGENMODE
 70
     1
  9
$FILLMODE
 70
     1
  9
$QTEXTMODE
 70
     0
  9
$MIRRTEXT
 70
     1
  9
$LTSCALE
 40
1.0
  9
$ATTMODE
 70
     1
  9
$TEXTSIZE
 40
3.5
  9
$TRACEWID
 40
1.0
  9
$TEXTSTYLE
  7
Standard
  9
$CLAYER
  8
0
  9
$CELTYPE
  6
ByLayer
  9
$CECOLOR
 62
   256
  9
$CELTSCALE
 40
1.0
  9
$DISPSILH
 70
     0
  9
$DIMSCALE
 40
1.0
  9
$DIMASZ
 40
3.302
  9
$DIMEXO
 40
0.0
  9
$DIMDLI
 40
3.75
  9
$DIMRND
 40
0.0
  9
$DIMDLE
 40
0.0
  9
$DIMEXE
 40
1.0
  9
$DIMTP
 40
0.0
  9
$DIMTM
 40
0.0
  9
$DIMTXT
 40
3.5
  9
$DIMCEN
 40
2.5
  9
$DIMTSZ
 40
0.0
  9
$DIMTOL
 70
     0
  9
$DIMLIM
 70
     0
  9
$DIMTIH
 70
     1
  9
$DIMTOH
 70
     1
  9
$DIMSE1
 70
     0
  9
$DIMSE2
 70
     0
  9
$DIMTAD
 70
     1
  9
$DIMZIN
 70
     1
  9
$DIMBLK
  1

  9
$DIMASO
 70
     1
  9
$DIMSHO
 70
     1
  9
$DIMPOST
  1

  9
$DIMAPOST
  1

  9
$DIMALT
 70
     0
  9
$DIMALTD
 70
     3
  9
$DIMALTF
 40
0.0393700787
  9
$DIMLFAC
 40
1.0
  9
$DIMTOFL
 70
     1
  9
$DIMTVP
 40
0.0
  9
$DIMTIX
 70
     0
  9
$DIMSOXD
 70
     0
  9
$DIMSAH
 70
     0
  9
$DIMBLK1
  1

  9
$DIMBLK2
  1

  9
$DIMSTYLE
  2
ISO-25
  9
$DIMCLRD
 70
     0
  9
$DIMCLRE
 70
     0
  9
$DIMCLRT
 70
     0
  9
$DIMTFAC
 40
1.0
  9
$DIMGAP
 40
1.524
  9
$DIMJUST
 70
     0
  9
$DIMSD1
 70
     0
  9
$DIMSD2
 70
     0
  9
$DIMTOLJ
 70
     0
  9
$DIMTZIN
 70
     1
  9
$DIMALTZ
 70
     0
  9
$DIMALTTZ
 70
     0
  9
$DIMUPT
 70
     0
  9
$DIMDEC
 70
     2
  9
$DIMTDEC
 70
     2
  9
$DIMALTU
 70
     2
  9
$DIMALTTD
 70
     3
  9
$DIMTXSTY
  7
Standard
  9
$DIMAUNIT
 70
     0
  9
$DIMADEC
 70
     2
  9
$DIMALTRND
 40
0.0
  9
$DIMAZIN
 70
     0
  9
$DIMDSEP
 70
    44
  9
$DIMATFIT
 70
     3
  9
$DIMFRAC
 70
     0
  9
$DIMLDRBLK
  1

  9
$DIMLUNIT
 70
     2
  9
$DIMLWD
 70
    -2
  9
$DIMLWE
 70
    -2
  9
$DIMTMOVE
 70
     0
  9
$LUNITS
 70
     2
  9
$LUPREC
 70
     2
  9
$SKETCHINC
 40
1.0
  9
$FILLETRAD
 40
0.0
  9
$AUNITS
 70
     0
  9
$AUPREC
 70
     2
  9
$MENU
  1
.
  9
$ELEVATION
 40
0.0
  9
$PELEVATION
 40
0.0
  9
$THICKNESS
 40
0.0
  9
$LIMCHECK
 70
     0
  9
$CHAMFERA
 40
0.0
  9
$CHAMFERB
 40
0.0
  9
$CHAMFERC
 40
0.0
  9
$CHAMFERD
 40
0.0
  9
$SKPOLY
 70
     0
  9
$TDCREATE
 40
2460778.70458316
  9
$TDUCREATE
 40
2460778.621249826
  9
$TDUPDATE
 40
2460778.704725602
  9
$TDUUPDATE
 40
2460778.621392269
  9
$TDINDWG
 40
0.0000000116
  9
$TDUSRTIMER
 40
0.0000000116
  9
$USRTIMER
 70
     1
  9
$ANGBASE
 50
0.0
  9
$ANGDIR
 70
     0
  9
$PDMODE
 70
     0
  9
$PDSIZE
 40
-1.0
  9
$PLINEWID
 40
0.0
  9
$SPLFRAME
 70
     0
  9
$SPLINETYPE
 70
     6
  9
$SPLINESEGS
 70
     8
  9
$HANDSEED
  5
39D
  9
$SURFTAB1
 70
     6
  9
$SURFTAB2
 70
     6
  9
$SURFTYPE
 70
     6
  9
$SURFU
 70
     6
  9
$SURFV
 70
     6
  9
$UCSBASE
  2

  9
$UCSNAME
  2

  9
$UCSORG
 10
0.0
 20
0.0
 30
0.0
  9
$UCSXDIR
 10
1.0
 20
0.0
 30
0.0
  9
$UCSYDIR
 10
0.0
 20
1.0
 30
0.0
  9
$UCSORTHOREF
  2

  9
$UCSORTHOVIEW
 70
     0
  9
$UCSORGTOP
 10
0.0
 20
0.0
 30
0.0
  9
$UCSORGBOTTOM
 10
0.0
 20
0.0
 30
0.0
  9
$UCSORGLEFT
 10
0.0
 20
0.0
 30
0.0
  9
$UCSORGRIGHT
 10
0.0
 20
0.0
 30
0.0
  9
$UCSORGFRONT
 10
0.0
 20
0.0
 30
0.0
  9
$UCSORGBACK
 10
0.0
 20
0.0
 30
0.0
  9
$PUCSBASE
  2

  9
$PUCSNAME
  2

  9
$PUCSORG
 10
0.0
 20
0.0
 30
0.0
  9
$PUCSXDIR
 10
1.0
 20
0.0
 30
0.0
  9
$PUCSYDIR
 10
0.0
 20
1.0
 30
0.0
  9
$PUCSORTHOREF
  2

  9
$PUCSORTHOVIEW
 70
     0
  9
$PUCSORGTOP
 10
0.0
 20
0.0
 30
0.0
  9
$PUCSORGBOTTOM
 10
0.0
 20
0.0
 30
0.0
  9
$PUCSORGLEFT
 10
0.0
 20
0.0
 30
0.0
  9
$PUCSORGRIGHT
 10
0.0
 20
0.0
 30
0.0
  9
$PUCSORGFRONT
 10
0.0
 20
0.0
 30
0.0
  9
$PUCSORGBACK
 10
0.0
 20
0.0
 30
0.0
  9
$USERI1
 70
     0
  9
$USERI2
 70
     0
  9
$USERI3
 70
     0
  9
$USERI4
 70
     0
  9
$USERI5
 70
     0
  9
$USERR1
 40
0.0
  9
$USERR2
 40
0.0
  9
$USERR3
 40
0.0
  9
$USERR4
 40
0.0
  9
$USERR5
 40
0.0
  9
$WORLDVIEW
 70
     1
  9
$SHADEDGE
 70
     3
  9
$SHADEDIF
 70
    70
  9
$TILEMODE
 70
     1
  9
$MAXACTVP
 70
    64
  9
$PINSBASE
 10
0.0
 20
0.0
 30
0.0
  9
$PLIMCHECK
 70
     0
  9
$PEXTMIN
 10
1.0000000000E+20
 20
1.0000000000E+20
 30
1.0000000000E+20
  9
$PEXTMAX
 10
-1.0000000000E+20
 20
-1.0000000000E+20
 30
-1.0000000000E+20
  9
$PLIMMIN
 10
0.0
 20
0.0
  9
$PLIMMAX
 10
420.0
 20
297.0
  9
$UNITMODE
 70
     0
  9
$VISRETAIN
 70
     1
  9
$PLINEGEN
 70
     0
  9
$PSLTSCALE
 70
     1
  9
$TREEDEPTH
 70
  3020
  9
$CMLSTYLE
  2
Standard
  9
$CMLJUST
 70
     0
  9
$CMLSCALE
 40
20.0
  9
$PROXYGRAPHICS
 70
     1
  9
$MEASUREMENT
 70
     1
  9
$CELWEIGHT
370
    -1
  9
$ENDCAPS
280
     0
  9
$JOINSTYLE
280
     0
  9
$LWDISPLAY
290
     1
  9
$INSUNITS
 70
     4
  9
$HYPERLINKBASE
  1

  9
$STYLESHEET
  1

  9
$XEDIT
290
     1
  9
$CEPSNTYPE
380
     0
  9
$PSTYLEMODE
290
     1
  9
$FINGERPRINTGUID
  2
{57e3790c-7cf0-44a6-8815-d7679e1e34ef}
  9
$VERSIONGUID
  2
{FAEB1C32-E019-11D5-929B-00C0DF256EC4}
  9
$EXTNAMES
290
     1
  9
$PSVPSCALE
 40
0.0
  9
$OLESTARTUP
290
     0
  0
ENDSEC
  0
SECTION
  2
CLASSES
  0
CLASS
  1
ACDBDICTIONARYWDFLT
  2
AcDbDictionaryWithDefault
  3
ObjectDBX Classes
 90
        0
280
     0
281
     0
  0
CLASS
  1
VISUALSTYLE
  2
AcDbVisualStyle
  3
ObjectDBX Classes
 90
     4095
280
     0
281
     0
  0
CLASS
  1
MATERIAL
  2
AcDbMaterial
  3
ObjectDBX Classes
 90
     1153
280
     0
281
     0
  0
CLASS
  1
SCALE
  2
AcDbScale
  3
ObjectDBX Classes
 90
     1153
280
     0
281
     0
  0
CLASS
  1
TABLESTYLE
  2
AcDbTableStyle
  3
ObjectDBX Classes
 90
     4095
280
     0
281
     0
  0
CLASS
  1
MLEADERSTYLE
  2
AcDbMLeaderStyle
  3
ACDB_MLEADERSTYLE_CLASS
 90
     4095
280
     0
281
     0
  0
CLASS
  1
SUN
  2
AcDbSun
  3
SCENEOE
 90
     1153
280
     0
281
     0
  0
CLASS
  1
ACDBPLACEHOLDER
  2
AcDbPlaceHolder
  3
ObjectDBX Classes
 90
        0
280
     0
281
     0
  0
CLASS
  1
LAYOUT
  2
AcDbLayout
  3
ObjectDBX Classes
 90
        0
280
     0
281
     0
  0
ENDSEC
  0
SECTION
  2
TABLES
  0
TABLE
  2
VPORT
  5
8
330
0
100
AcDbSymbolTable
 70
     1
  0
VPORT
  5
29
330
8
100
AcDbSymbolTableRecord
100
AcDbViewportTableRecord
  2
*Active
 70
     0
 10
0.0
 20
0.0
 11
1.0
 21
1.0
 12
0.0000007147
 22
0.0000025993
 13
0.0
 23
0.0
 14
10.0
 24
10.0
 15
10.0
 25
10.0
 16
0.0
 26
0.0
 36
1.0
 17
0.0
 27
0.0
 37
0.0
 40
27.1908740011
 41
1.0000002025
 42
50.0
 43
0.0
 44
0.0
 50
0.0
 51
0.0
 71
     0
 72
   100
 73
     1
 74
     3
 75
     0
 76
     0
 77
     0
 78
     0
281
     0
 65
     1
110
0.0
120
0.0
130
0.0
111
1.0
121
0.0
131
0.0
112
0.0
122
1.0
132
0.0
 79
     0
146
0.0
  0
ENDTAB
  0
TABLE
  2
LTYPE
  5
5
330
0
100
AcDbSymbolTable
 70
     6
  0
LTYPE
  5
14
330
5
100
AcDbSymbolTableRecord
100
AcDbLinetypeTableRecord
  2
ByBlock
 70
     0
  3

 72
    65
 73
     0
 40
0.0
  0
LTYPE
  5
15
330
5
100
AcDbSymbolTableRecord
100
AcDbLinetypeTableRecord
  2
ByLayer
 70
     0
  3

 72
    65
 73
     0
 40
0.0
  0
LTYPE
  5
16
330
5
100
AcDbSymbolTableRecord
100
AcDbLinetypeTableRecord
  2
Continuous
 70
     0
  3
Solid line
 72
    65
 73
     0
 40
0.0
  0
LTYPE
  5
5E
330
5
100
AcDbSymbolTableRecord
100
AcDbLinetypeTableRecord
  2
HIDDEN
 70
     0
  3
Hidden __ __ __ __ __ __ __ __ __ __ __ __ __ __
 72
    65
 73
     2
 40
1.905
 49
1.27
 74
     0
 49
-0.635
 74
     0
  0
LTYPE
  5
5F
330
5
100
AcDbSymbolTableRecord
100
AcDbLinetypeTableRecord
  2
PHANTOM
 70
     0
  3
Phantom ______  __  __  ______  __  __  ______
 72
    65
 73
     6
 40
12.7
 49
6.35
 74
     0
 49
-1.27
 74
     0
 49
1.27
 74
     0
 49
-1.27
 74
     0
 49
1.27
 74
     0
 49
-1.27
 74
     0
  0
LTYPE
  5
60
330
5
100
AcDbSymbolTableRecord
100
AcDbLinetypeTableRecord
  2
CENTER
 70
     0
  3
Center ____ _ ____ _ ____ _ ____ _ ____ _ ____
 72
    65
 73
     4
 40
10.16
 49
6.35
 74
     0
 49
-1.27
 74
     0
 49
1.27
 74
     0
 49
-1.27
 74
     0
  0
LTYPE
  5
61
330
5
100
AcDbSymbolTableRecord
100
AcDbLinetypeTableRecord
  2
CENTERX2
 70
     0
  3
Center (2x) ________  __  ________  __  _____
 72
    65
 73
     4
 40
20.32
 49
12.7
 74
     0
 49
-2.54
 74
     0
 49
2.54
 74
     0
 49
-2.54
 74
     0
  0
LTYPE
  5
62
330
5
100
AcDbSymbolTableRecord
100
AcDbLinetypeTableRecord
  2
DOT2
 70
     0
  3
Dot (.5x) ........................................
 72
    65
 73
     2
 40
0.635
 49
0.0
 74
     0
 49
-0.635
 74
     0
  0
ENDTAB
  0
TABLE
  2
LAYER
  5
2
330
0
100
AcDbSymbolTable
 70
     1
  0
LAYER
  5
10
330
2
100
AcDbSymbolTableRecord
100
AcDbLayerTableRecord
  2
0
 70
     0
 62
     7
  6
Continuous
370
    -3
390
F
  0
ENDTAB
  0
TABLE
  2
STYLE
  5
3
330
0
100
AcDbSymbolTable
 70
     3
  0
STYLE
  5
11
330
3
100
AcDbSymbolTableRecord
100
AcDbTextStyleTableRecord
  2
Standard
 70
     0
 40
0.0
 41
1.0
 50
0.0
 71
     0
 42
3.5
  3
txt
  4

  0
STYLE
  5
398
330
3
100
AcDbSymbolTableRecord
100
AcDbTextStyleTableRecord
  2
SLDTEXTSTYLE0
 70
     0
 40
0.0
 41
0.7
 50
0.0
 71
     0
 42
3.5
  3
TXT
  4

  0
STYLE
  5
39A
330
3
100
AcDbSymbolTableRecord
100
AcDbTextStyleTableRecord
  2
SLDTEXTSTYLE1
 70
     0
 40
0.0
 41
0.7
 50
0.0
 71
     0
 42
3.5
  3
TXT
  4
bigfont
  0
ENDTAB
  0
TABLE
  2
VIEW
  5
6
330
0
100
AcDbSymbolTable
 70
     0
  0
ENDTAB
  0
TABLE
  2
UCS
  5
7
330
0
100
AcDbSymbolTable
 70
     0
  0
ENDTAB
  0
TABLE
  2
APPID
  5
9
330
0
100
AcDbSymbolTable
 70
     1
  0
APPID
  5
12
330
9
100
AcDbSymbolTableRecord
100
AcDbRegAppTableRecord
  2
ACAD
 70
     0
  0
ENDTAB
  0
TABLE
  2
DIMSTYLE
  5
A
330
0
100
AcDbSymbolTable
 70
     1
100
AcDbDimStyleTable
  0
DIMSTYLE
105
27
330
A
100
AcDbSymbolTableRecord
100
AcDbDimStyleTableRecord
  2
ISO-25
 70
     0
 41
2.5
 42
0.625
 43
3.75
 44
1.25
 73
     0
 74
     0
 77
     1
 78
     8
140
2.5
141
2.5
143
0.0393700787
147
0.625
171
     3
172
     1
178
     0
271
     2
272
     2
274
     3
278
    44
283
     0
284
     8
340
11
  0
ENDTAB
  0
TABLE
  2
BLOCK_RECORD
  5
1
330
0
100
AcDbSymbolTable
 70
     1
  0
BLOCK_RECORD
  5
1F
330
1
100
AcDbSymbolTableRecord
100
AcDbBlockTableRecord
  2
*Model_Space
340
22
  0
BLOCK_RECORD
  5
1B
330
1
100
AcDbSymbolTableRecord
100
AcDbBlockTableRecord
  2
*Paper_Space
340
1E
  0
BLOCK_RECORD
  5
23
330
1
100
AcDbSymbolTableRecord
100
AcDbBlockTableRecord
  2
*Paper_Space0
340
26
  0
ENDTAB
  0
ENDSEC
  0
SECTION
  2
BLOCKS
  0
BLOCK
  5
20
330
1F
100
AcDbEntity
  8
0
100
AcDbBlockBegin
  2
*Model_Space
 70
     0
 10
0.0
 20
0.0
 30
0.0
  3
*Model_Space
  1

  0
ENDBLK
  5
21
330
1F
100
AcDbEntity
  8
0
100
AcDbBlockEnd
  0
BLOCK
  5
1C
330
1B
100
AcDbEntity
 67
     1
  8
0
100
AcDbBlockBegin
  2
*Paper_Space
 70
     0
 10
0.0
 20
0.0
 30
0.0
  3
*Paper_Space
  1

  0
ENDBLK
  5
1D
330
1B
100
AcDbEntity
 67
     1
  8
0
100
AcDbBlockEnd
  0
BLOCK
  5
24
330
23
100
AcDbEntity
  8
0
100
AcDbBlockBegin
  2
*Paper_Space0
 70
     0
 10
0.0
 20
0.0
 30
0.0
  3
*Paper_Space0
  1

  0
ENDBLK
  5
25
330
23
100
AcDbEntity
  8
0
100
AcDbBlockEnd
  0
ENDSEC
  0
SECTION
  2
ENTITIES
  0
CIRCLE
  5
63
330
1F
100
AcDbEntity
  8
0
  6
Continuous
 62
     7
370
    25
100
AcDbCircle
 10
6.9999820307
 20
0.0000187994
 30
0.0
 40
1.550000000000001
  0
CIRCLE
  5
64
330
1F
100
AcDbEntity
  8
0
  6
Continuous
 62
     7
370
    25
100
AcDbCircle
 10
-7.0000312068
 20
-0.0000050655
 30
0.0
 40
1.550000000000001
  0
ARC
  5
65
330
1F
100
AcDbEntity
  8
0
  6
Continuous
 62
     7
370
    25
100
AcDbCircle
 10
0.0000207616
 20
0.0000787369
 30
0.0
 40
13.5
100
AcDbArc
 50
189.1322481038
 51
193.3683609528
  0
LINE
  5
66
330
1F
100
AcDbEntity
  8
0
  6
Continuous
 62
     7
370
    25
100
AcDbLine
 10
-13.1341792203
 20
-3.1212656585
 30
0.0
 11
-12.8680399203
 21
-3.2125109585
 31
0.0
  0
LINE
  5
67
330
1F
100
AcDbEntity
  8
0
  6
Continuous
 62
     7
370
    25
100
AcDbLine
 10
-12.8680399203
 20
-3.2125109585
 30
0.0
 11
-12.5975038203
 21
-3.2929763585
 31
0.0
  0
LINE
  5
68
330
1F
100
AcDbEntity
  8
0
  6
Continuous
 62
     7
370
    25
100
AcDbLine
 10
-12.5975038203
 20
-3.2929763585
 30
0.0
 11
-12.3431891203
 21
-3.3571708585
 31
0.0
  0
LINE
  5
69
330
1F
100
AcDbEntity
  8
0
  6
Continuous
 62
     7
370
    25
100
AcDbLine
 10
-12.3431891203
 20
-3.3571708585
 30
0.0
 11
-12.1045595203
 21
-3.4068855585
 31
0.0
  0
LINE
  5
6A
330
1F
100
AcDbEntity
  8
0
  6
Continuous
 62
     7
370
    25
100
AcDbLine
 10
-12.1045595203
 20
-3.4068855585
 30
0.0
 11
-11.8845995203
 21
-3.4431727585
 31
0.0
  0
LINE
  5
6B
330
1F
100
AcDbEntity
  8
0
  6
Continuous
 62
     7
370
    25
100
AcDbLine
 10
-11.8845995203
 20
-3.4431727585
 30
0.0
 11
-11.6815641203
 21
-3.4679721585
 31
0.0
  0
LINE
  5
6C
330
1F
100
AcDbEntity
  8
0
  6
Continuous
 62
     7
370
    25
100
AcDbLine
 10
-11.6815641203
 20
-3.4679721585
 30
0.0
 11
-11.4999363203
 21
-3.4824806585
 31
0.0
  0
LINE
  5
6D
330
1F
100
AcDbEntity
  8
0
  6
Continuous
 62
     7
370
    25
100
AcDbLine
 10
-11.4999363203
 20
-3.4824806585
 30
0.0
 11
-11.3357844203
 21
-3.4887171585
 31
0.0
  0
LINE
  5
6E
330
1F
100
AcDbEntity
  8
0
  6
Continuous
 62
     7
370
    25
100
AcDbLine
 10
-11.3357844203
 20
-3.4887171585
 30
0.0
 11
-11.1924345203
 21
-3.4881893585
 31
0.0
  0
LINE
  5
6F
330
1F
100
AcDbEntity
  8
0
  6
Continuous
 62
     7
370
    25
100
AcDbLine
 10
-11.1924345203
 20
-3.4881893585
 30
0.0
 11
-11.0687725203
 21
-3.4825680585
 31
0.0
  0
LINE
  5
70
330
1F
100
AcDbEntity
  8
0
  6
Continuous
 62
     7
370
    25
100
AcDbLine
 10
-11.0687725203
 20
-3.4825680585
 30
0.0
 11
-10.8789991203
 21
-3.4623888585
 31
0.0
  0
LINE
  5
71
330
1F
100
AcDbEntity
  8
0
  6
Continuous
 62
     7
370
    25
100
AcDbLine
 10
-10.8789991203
 20
-3.4623888585
 30
0.0
 11
-10.7701000203
 21
-3.4416135585
 31
0.0
  0
LINE
  5
72
330
1F
100
AcDbEntity
  8
0
  6
Continuous
 62
     7
370
    25
100
AcDbLine
 10
-10.7701000203
 20
-3.4416135585
 30
0.0
 11
-10.5974193203
 21
-3.3877731585
 31
0.0
  0
LINE
  5
73
330
1F
100
AcDbEntity
  8
0
  6
Continuous
 62
     7
370
    25
100
AcDbLine
 10
-10.5974193203
 20
-3.3877731585
 30
0.0
 11
-10.4388107203
 21
-3.3507587585
 31
0.0
  0
LINE
  5
74
330
1F
100
AcDbEntity
  8
0
  6
Continuous
 62
     7
370
    25
100
AcDbLine
 10
-10.4388107203
 20
-3.3507587585
 30
0.0
 11
-10.2962002203
 21
-3.3322447585
 31
0.0
  0
LINE
  5
75
330
1F
100
AcDbEntity
  8
0
  6
Continuous
 62
     7
370
    25
100
AcDbLine
 10
-10.2962002203
 20
-3.3322447585
 30
0.0
 11
-10.1708454203
 21
-3.3308146585
 31
0.0
  0
LINE
  5
76
330
1F
100
AcDbEntity
  8
0
  6
Continuous
 62
     7
370
    25
100
AcDbLine
 10
-10.1708454203
 20
-3.3308146585
 30
0.0
 11
-10.0638732203
 21
-3.3449761585
 31
0.0
  0
LINE
  5
77
330
1F
100
AcDbEntity
  8
0
  6
Continuous
 62
     7
370
    25
100
AcDbLine
 10
-10.0638732203
 20
-3.3449761585
 30
0.0
 11
-9.9763466203
 21
-3.3731562585
 31
0.0
  0
LINE
  5
78
330
1F
100
AcDbEntity
  8
0
  6
Continuous
 62
     7
370
    25
100
AcDbLine
 10
-9.9763466203
 20
-3.3731562585
 30
0.0
 11
-9.9401783203
 21
-3.3920104585
 31
0.0
  0
LINE
  5
79
330
1F
100
AcDbEntity
  8
0
  6
Continuous
 62
     7
370
    25
100
AcDbLine
 10
-9.9401783203
 20
-3.3920104585
 30
0.0
 11
-9.9092137203
 21
-3.4137452585
 31
0.0
  0
LINE
  5
7A
330
1F
100
AcDbEntity
  8
0
  6
Continuous
 62
     7
370
    25
100
AcDbLine
 10
-9.9092137203
 20
-3.4137452585
 30
0.0
 11
-9.8835739203
 21
-3.4381727585
 31
0.0
  0
LINE
  5
7B
330
1F
100
AcDbEntity
  8
0
  6
Continuous
 62
     7
370
    25
100
AcDbLine
 10
-9.8835739203
 20
-3.4381727585
 30
0.0
 11
-9.8633417203
 21
-3.4650674585
 31
0.0
  0
LINE
  5
7C
330
1F
100
AcDbEntity
  8
0
  6
Continuous
 62
     7
370
    25
100
AcDbLine
 10
-9.8633417203
 20
-3.4650674585
 30
0.0
 11
-9.8458009203
 21
-3.5018227585
 31
0.0
  0
LINE
  5
7D
330
1F
100
AcDbEntity
  8
0
  6
Continuous
 62
     7
370
    25
100
AcDbLine
 10
-9.8458009203
 20
-3.5018227585
 30
0.0
 11
-9.7062632203
 21
-3.8718831585
 31
0.0
  0
LINE
  5
7E
330
1F
100
AcDbEntity
  8
0
  6
Continuous
 62
     7
370
    25
100
AcDbLine
 10
-9.7062632203
 20
-3.8718831585
 30
0.0
 11
-9.6545360203
 21
-3.9990370585
 31
0.0
  0
LINE
  5
7F
330
1F
100
AcDbEntity
  8
0
  6
Continuous
 62
     7
370
    25
100
AcDbLine
 10
-9.6545360203
 20
-3.9990370585
 30
0.0
 11
-9.6012013203
 21
-4.1255250585
 31
0.0
  0
LINE
  5
80
330
1F
100
AcDbEntity
  8
0
  6
Continuous
 62
     7
370
    25
100
AcDbLine
 10
-9.6012013203
 20
-4.1255250585
 30
0.0
 11
-9.4381971203
 21
-4.4858652585
 31
0.0
  0
LINE
  5
81
330
1F
100
AcDbEntity
  8
0
  6
Continuous
 62
     7
370
    25
100
AcDbLine
 10
-9.4381971203
 20
-4.4858652585
 30
0.0
 11
-9.4246104203
 21
-4.5242584585
 31
0.0
  0
LINE
  5
82
330
1F
100
AcDbEntity
  8
0
  6
Continuous
 62
     7
370
    25
100
AcDbLine
 10
-9.4246104203
 20
-4.5242584585
 30
0.0
 11
-9.4198994203
 21
-4.5575821585
 31
0.0
  0
LINE
  5
83
330
1F
100
AcDbEntity
  8
0
  6
Continuous
 62
     7
370
    25
100
AcDbLine
 10
-9.4198994203
 20
-4.5575821585
 30
0.0
 11
-9.4207565203
 21
-4.5929850585
 31
0.0
  0
LINE
  5
84
330
1F
100
AcDbEntity
  8
0
  6
Continuous
 62
     7
370
    25
100
AcDbLine
 10
-9.4207565203
 20
-4.5929850585
 30
0.0
 11
-9.4272830203
 21
-4.6302492585
 31
0.0
  0
LINE
  5
85
330
1F
100
AcDbEntity
  8
0
  6
Continuous
 62
     7
370
    25
100
AcDbLine
 10
-9.4272830203
 20
-4.6302492585
 30
0.0
 11
-9.4395259203
 21
-4.6691559585
 31
0.0
  0
LINE
  5
86
330
1F
100
AcDbEntity
  8
0
  6
Continuous
 62
     7
370
    25
100
AcDbLine
 10
-9.4395259203
 20
-4.6691559585
 30
0.0
 11
-9.4814903203
 21
-4.7509729585
 31
0.0
  0
LINE
  5
87
330
1F
100
AcDbEntity
  8
0
  6
Continuous
 62
     7
370
    25
100
AcDbLine
 10
-9.4814903203
 20
-4.7509729585
 30
0.0
 11
-9.5471173203
 21
-4.8366274585
 31
0.0
  0
LINE
  5
88
330
1F
100
AcDbEntity
  8
0
  6
Continuous
 62
     7
370
    25
100
AcDbLine
 10
-9.5471173203
 20
-4.8366274585
 30
0.0
 11
-9.6367677203
 21
-4.9242554585
 31
0.0
  0
LINE
  5
89
330
1F
100
AcDbEntity
  8
0
  6
Continuous
 62
     7
370
    25
100
AcDbLine
 10
-9.6367677203
 20
-4.9242554585
 30
0.0
 11
-9.7507000203
 21
-5.0120049585
 31
0.0
  0
LINE
  5
8A
330
1F
100
AcDbEntity
  8
0
  6
Continuous
 62
     7
370
    25
100
AcDbLine
 10
-9.7507000203
 20
-5.0120049585
 30
0.0
 11
-9.8890263203
 21
-5.0979850585
 31
0.0
  0
LINE
  5
8B
330
1F
100
AcDbEntity
  8
0
  6
Continuous
 62
     7
370
    25
100
AcDbLine
 10
-9.8890263203
 20
-5.0979850585
 30
0.0
 11
-10.0492009203
 21
-5.1820177585
 31
0.0
  0
LINE
  5
8C
330
1F
100
AcDbEntity
  8
0
  6
Continuous
 62
     7
370
    25
100
AcDbLine
 10
-10.0492009203
 20
-5.1820177585
 30
0.0
 11
-10.1408946203
 21
-5.2443307585
 31
0.0
  0
LINE
  5
8D
330
1F
100
AcDbEntity
  8
0
  6
Continuous
 62
     7
370
    25
100
AcDbLine
 10
-10.1408946203
 20
-5.2443307585
 30
0.0
 11
-10.2893535203
 21
-5.3642519585
 31
0.0
  0
LINE
  5
8E
330
1F
100
AcDbEntity
  8
0
  6
Continuous
 62
     7
370
    25
100
AcDbLine
 10
-10.2893535203
 20
-5.3642519585
 30
0.0
 11
-10.3807706203
 21
-5.4477193585
 31
0.0
  0
LINE
  5
8F
330
1F
100
AcDbEntity
  8
0
  6
Continuous
 62
     7
370
    25
100
AcDbLine
 10
-10.3807706203
 20
-5.4477193585
 30
0.0
 11
-10.4825075203
 21
-5.5487098585
 31
0.0
  0
LINE
  5
90
330
1F
100
AcDbEntity
  8
0
  6
Continuous
 62
     7
370
    25
100
AcDbLine
 10
-10.4825075203
 20
-5.5487098585
 30
0.0
 11
-10.5941706203
 21
-5.6691926585
 31
0.0
  0
LINE
  5
91
330
1F
100
AcDbEntity
  8
0
  6
Continuous
 62
     7
370
    25
100
AcDbLine
 10
-10.5941706203
 20
-5.6691926585
 30
0.0
 11
-10.7123417203
 21
-5.8078818585
 31
0.0
  0
LINE
  5
92
330
1F
100
AcDbEntity
  8
0
  6
Continuous
 62
     7
370
    25
100
AcDbLine
 10
-10.7123417203
 20
-5.8078818585
 30
0.0
 11
-10.8383737203
 21
-5.9689854585
 31
0.0
  0
LINE
  5
93
330
1F
100
AcDbEntity
  8
0
  6
Continuous
 62
     7
370
    25
100
AcDbLine
 10
-10.8383737203
 20
-5.9689854585
 30
0.0
 11
-10.9682499203
 21
-6.1501795585
 31
0.0
  0
LINE
  5
94
330
1F
100
AcDbEntity
  8
0
  6
Continuous
 62
     7
370
    25
100
AcDbLine
 10
-10.9682499203
 20
-6.1501795585
 30
0.0
 11
-11.1018329203
 21
-6.3540697585
 31
0.0
  0
LINE
  5
95
330
1F
100
AcDbEntity
  8
0
  6
Continuous
 62
     7
370
    25
100
AcDbLine
 10
-11.1018329203
 20
-6.3540697585
 30
0.0
 11
-11.2362682203
 21
-6.5792897585
 31
0.0
  0
LINE
  5
96
330
1F
100
AcDbEntity
  8
0
  6
Continuous
 62
     7
370
    25
100
AcDbLine
 10
-11.2362682203
 20
-6.5792897585
 30
0.0
 11
-11.3706685203
 21
-6.8274853585
 31
0.0
  0
LINE
  5
97
330
1F
100
AcDbEntity
  8
0
  6
Continuous
 62
     7
370
    25
100
AcDbLine
 10
-11.3706685203
 20
-6.8274853585
 30
0.0
 11
-11.4943372203
 21
-7.0801943585
 31
0.0
  0
ARC
  5
98
330
1F
100
AcDbEntity
  8
0
  6
Continuous
 62
     7
370
    25
100
AcDbCircle
 10
0.0000241352
 20
0.0000320457
 30
0.0
 40
13.49999810760213
100
AcDbArc
 50
211.631984547
 51
215.8681175671
  0
LINE
  5
99
330
1F
100
AcDbEntity
  8
0
  6
Continuous
 62
     7
370
    25
100
AcDbLine
 10
-10.9399396843
 20
-7.9099073051
 30
0.0
 11
-10.6591409843
 21
-7.8923600051
 31
0.0
  0
LINE
  5
9A
330
1F
100
AcDbEntity
  8
0
  6
Continuous
 62
     7
370
    25
100
AcDbLine
 10
-10.6591409843
 20
-7.8923600051
 30
0.0
 11
-10.3784054843
 21
-7.8631706051
 31
0.0
  0
LINE
  5
9B
330
1F
100
AcDbEntity
  8
0
  6
Continuous
 62
     7
370
    25
100
AcDbLine
 10
-10.3784054843
 20
-7.8631706051
 30
0.0
 11
-10.1188831843
 21
-7.8251565051
 31
0.0
  0
LINE
  5
9C
330
1F
100
AcDbEntity
  8
0
  6
Continuous
 62
     7
370
    25
100
AcDbLine
 10
-10.1188831843
 20
-7.8251565051
 30
0.0
 11
-9.8793931843
 21
-7.7797674051
 31
0.0
  0
LINE
  5
9D
330
1F
100
AcDbEntity
  8
0
  6
Continuous
 62
     7
370
    25
100
AcDbLine
 10
-9.8793931843
 20
-7.7797674051
 30
0.0
 11
-9.6622901843
 21
-7.7291173051
 31
0.0
  0
LINE
  5
9E
330
1F
100
AcDbEntity
  8
0
  6
Continuous
 62
     7
370
    25
100
AcDbLine
 10
-9.6622901843
 20
-7.7291173051
 30
0.0
 11
-9.4652194843
 21
-7.6743307051
 31
0.0
  0
LINE
  5
9F
330
1F
100
AcDbEntity
  8
0
  6
Continuous
 62
     7
370
    25
100
AcDbLine
 10
-9.4652194843
 20
-7.6743307051
 30
0.0
 11
-9.2918651843
 21
-7.6182288051
 31
0.0
  0
LINE
  5
A0
330
1F
100
AcDbEntity
  8
0
  6
Continuous
 62
     7
370
    25
100
AcDbLine
 10
-9.2918651843
 20
-7.6182288051
 30
0.0
 11
-9.1378219843
 21
-7.5611724051
 31
0.0
  0
LINE
  5
A1
330
1F
100
AcDbEntity
  8
0
  6
Continuous
 62
     7
370
    25
100
AcDbLine
 10
-9.1378219843
 20
-7.5611724051
 30
0.0
 11
-9.0055859843
 21
-7.5058271051
 31
0.0
  0
LINE
  5
A2
330
1F
100
AcDbEntity
  8
0
  6
Continuous
 62
     7
370
    25
100
AcDbLine
 10
-9.0055859843
 20
-7.5058271051
 30
0.0
 11
-8.8934882843
 21
-7.4533103051
 31
0.0
  0
LINE
  5
A3
330
1F
100
AcDbEntity
  8
0
  6
Continuous
 62
     7
370
    25
100
AcDbLine
 10
-8.8934882843
 20
-7.4533103051
 30
0.0
 11
-8.7258827843
 21
-7.3620440051
 31
0.0
  0
LINE
  5
A4
330
1F
100
AcDbEntity
  8
0
  6
Continuous
 62
     7
370
    25
100
AcDbLine
 10
-8.7258827843
 20
-7.3620440051
 30
0.0
 11
-8.6332234843
 21
-7.3011763051
 31
0.0
  0
LINE
  5
A5
330
1F
100
AcDbEntity
  8
0
  6
Continuous
 62
     7
370
    25
100
AcDbLine
 10
-8.6332234843
 20
-7.3011763051
 30
0.0
 11
-8.4942911843
 21
-7.1853522051
 31
0.0
  0
LINE
  5
A6
330
1F
100
AcDbEntity
  8
0
  6
Continuous
 62
     7
370
    25
100
AcDbLine
 10
-8.4942911843
 20
-7.1853522051
 30
0.0
 11
-8.3619207843
 21
-7.0904585051
 31
0.0
  0
LINE
  5
A7
330
1F
100
AcDbEntity
  8
0
  6
Continuous
 62
     7
370
    25
100
AcDbLine
 10
-8.3619207843
 20
-7.0904585051
 30
0.0
 11
-8.2372507843
 21
-7.0187790051
 31
0.0
  0
LINE
  5
A8
330
1F
100
AcDbEntity
  8
0
  6
Continuous
 62
     7
370
    25
100
AcDbLine
 10
-8.2372507843
 20
-7.0187790051
 30
0.0
 11
-8.1219852843
 21
-6.9694866051
 31
0.0
  0
LINE
  5
A9
330
1F
100
AcDbEntity
  8
0
  6
Continuous
 62
     7
370
    25
100
AcDbLine
 10
-8.1219852843
 20
-6.9694866051
 30
0.0
 11
-8.0177365843
 21
-6.9416337051
 31
0.0
  0
LINE
  5
AA
330
1F
100
AcDbEntity
  8
0
  6
Continuous
 62
     7
370
    25
100
AcDbLine
 10
-8.0177365843
 20
-6.9416337051
 30
0.0
 11
-7.9260884843
 21
-6.9341737051
 31
0.0
  0
LINE
  5
AB
330
1F
100
AcDbEntity
  8
0
  6
Continuous
 62
     7
370
    25
100
AcDbLine
 10
-7.9260884843
 20
-6.9341737051
 30
0.0
 11
-7.8854580843
 21
-6.9377517051
 31
0.0
  0
LINE
  5
AC
330
1F
100
AcDbEntity
  8
0
  6
Continuous
 62
     7
370
    25
100
AcDbLine
 10
-7.8854580843
 20
-6.9377517051
 30
0.0
 11
-7.8485329843
 21
-6.9459824051
 31
0.0
  0
LINE
  5
AD
330
1F
100
AcDbEntity
  8
0
  6
Continuous
 62
     7
370
    25
100
AcDbLine
 10
-7.8485329843
 20
-6.9459824051
 30
0.0
 11
-7.8154969843
 21
-6.9587386051
 31
0.0
  0
LINE
  5
AE
330
1F
100
AcDbEntity
  8
0
  6
Continuous
 62
     7
370
    25
100
AcDbLine
 10
-7.8154969843
 20
-6.9587386051
 30
0.0
 11
-7.7865126843
 21
-6.9758435051
 31
0.0
  0
LINE
  5
AF
330
1F
100
AcDbEntity
  8
0
  6
Continuous
 62
     7
370
    25
100
AcDbLine
 10
-7.7865126843
 20
-6.9758435051
 30
0.0
 11
-7.7562413843
 21
-7.0030883051
 31
0.0
  0
LINE
  5
B0
330
1F
100
AcDbEntity
  8
0
  6
Continuous
 62
     7
370
    25
100
AcDbLine
 10
-7.7562413843
 20
-7.0030883051
 30
0.0
 11
-7.4857093843
 21
-7.2915808051
 31
0.0
  0
LINE
  5
B1
330
1F
100
AcDbEntity
  8
0
  6
Continuous
 62
     7
370
    25
100
AcDbLine
 10
-7.4857093843
 20
-7.2915808051
 30
0.0
 11
-7.3892600843
 21
-7.3892606051
 31
0.0
  0
LINE
  5
B2
330
1F
100
AcDbEntity
  8
0
  6
Continuous
 62
     7
370
    25
100
AcDbLine
 10
-7.3892600843
 20
-7.3892606051
 30
0.0
 11
-7.2915802843
 21
-7.4857099051
 31
0.0
  0
LINE
  5
B3
330
1F
100
AcDbEntity
  8
0
  6
Continuous
 62
     7
370
    25
100
AcDbLine
 10
-7.2915802843
 20
-7.4857099051
 30
0.0
 11
-7.0030877843
 21
-7.7562419051
 31
0.0
  0
LINE
  5
B4
330
1F
100
AcDbEntity
  8
0
  6
Continuous
 62
     7
370
    25
100
AcDbLine
 10
-7.0030877843
 20
-7.7562419051
 30
0.0
 11
-6.9758429843
 21
-7.7865132051
 31
0.0
  0
LINE
  5
B5
330
1F
100
AcDbEntity
  8
0
  6
Continuous
 62
     7
370
    25
100
AcDbLine
 10
-6.9758429843
 20
-7.7865132051
 30
0.0
 11
-6.9587380843
 21
-7.8154975051
 31
0.0
  0
LINE
  5
B6
330
1F
100
AcDbEntity
  8
0
  6
Continuous
 62
     7
370
    25
100
AcDbLine
 10
-6.9587380843
 20
-7.8154975051
 30
0.0
 11
-6.9459818843
 21
-7.8485335051
 31
0.0
  0
LINE
  5
B7
330
1F
100
AcDbEntity
  8
0
  6
Continuous
 62
     7
370
    25
100
AcDbLine
 10
-6.9459818843
 20
-7.8485335051
 30
0.0
 11
-6.9377511843
 21
-7.8854586051
 31
0.0
  0
LINE
  5
B8
330
1F
100
AcDbEntity
  8
0
  6
Continuous
 62
     7
370
    25
100
AcDbLine
 10
-6.9377511843
 20
-7.8854586051
 30
0.0
 11
-6.9341731843
 21
-7.9260890051
 31
0.0
  0
LINE
  5
B9
330
1F
100
AcDbEntity
  8
0
  6
Continuous
 62
     7
370
    25
100
AcDbLine
 10
-6.9341731843
 20
-7.9260890051
 30
0.0
 11
-6.9416331843
 21
-8.0177371051
 31
0.0
  0
LINE
  5
BA
330
1F
100
AcDbEntity
  8
0
  6
Continuous
 62
     7
370
    25
100
AcDbLine
 10
-6.9416331843
 20
-8.0177371051
 30
0.0
 11
-6.9694860843
 21
-8.1219858051
 31
0.0
  0
LINE
  5
BB
330
1F
100
AcDbEntity
  8
0
  6
Continuous
 62
     7
370
    25
100
AcDbLine
 10
-6.9694860843
 20
-8.1219858051
 30
0.0
 11
-7.0187784843
 21
-8.2372513051
 31
0.0
  0
LINE
  5
BC
330
1F
100
AcDbEntity
  8
0
  6
Continuous
 62
     7
370
    25
100
AcDbLine
 10
-7.0187784843
 20
-8.2372513051
 30
0.0
 11
-7.0904579843
 21
-8.3619213051
 31
0.0
  0
LINE
  5
BD
330
1F
100
AcDbEntity
  8
0
  6
Continuous
 62
     7
370
    25
100
AcDbLine
 10
-7.0904579843
 20
-8.3619213051
 30
0.0
 11
-7.1853516843
 21
-8.4942917051
 31
0.0
  0
LINE
  5
BE
330
1F
100
AcDbEntity
  8
0
  6
Continuous
 62
     7
370
    25
100
AcDbLine
 10
-7.1853516843
 20
-8.4942917051
 30
0.0
 11
-7.3011757843
 21
-8.6332240051
 31
0.0
  0
LINE
  5
BF
330
1F
100
AcDbEntity
  8
0
  6
Continuous
 62
     7
370
    25
100
AcDbLine
 10
-7.3011757843
 20
-8.6332240051
 30
0.0
 11
-7.3620434843
 21
-8.7258833051
 31
0.0
  0
LINE
  5
C0
330
1F
100
AcDbEntity
  8
0
  6
Continuous
 62
     7
370
    25
100
AcDbLine
 10
-7.3620434843
 20
-8.7258833051
 30
0.0
 11
-7.4533097843
 21
-8.8934888051
 31
0.0
  0
LINE
  5
C1
330
1F
100
AcDbEntity
  8
0
  6
Continuous
 62
     7
370
    25
100
AcDbLine
 10
-7.4533097843
 20
-8.8934888051
 30
0.0
 11
-7.5058265843
 21
-9.0055865051
 31
0.0
  0
LINE
  5
C2
330
1F
100
AcDbEntity
  8
0
  6
Continuous
 62
     7
370
    25
100
AcDbLine
 10
-7.5058265843
 20
-9.0055865051
 30
0.0
 11
-7.5611718843
 21
-9.1378225051
 31
0.0
  0
LINE
  5
C3
330
1F
100
AcDbEntity
  8
0
  6
Continuous
 62
     7
370
    25
100
AcDbLine
 10
-7.5611718843
 20
-9.1378225051
 30
0.0
 11
-7.6182282843
 21
-9.2918657051
 31
0.0
  0
LINE
  5
C4
330
1F
100
AcDbEntity
  8
0
  6
Continuous
 62
     7
370
    25
100
AcDbLine
 10
-7.6182282843
 20
-9.2918657051
 30
0.0
 11
-7.6743301843
 21
-9.4652200051
 31
0.0
  0
LINE
  5
C5
330
1F
100
AcDbEntity
  8
0
  6
Continuous
 62
     7
370
    25
100
AcDbLine
 10
-7.6743301843
 20
-9.4652200051
 30
0.0
 11
-7.7291167843
 21
-9.6622907051
 31
0.0
  0
LINE
  5
C6
330
1F
100
AcDbEntity
  8
0
  6
Continuous
 62
     7
370
    25
100
AcDbLine
 10
-7.7291167843
 20
-9.6622907051
 30
0.0
 11
-7.7797668843
 21
-9.8793937051
 31
0.0
  0
LINE
  5
C7
330
1F
100
AcDbEntity
  8
0
  6
Continuous
 62
     7
370
    25
100
AcDbLine
 10
-7.7797668843
 20
-9.8793937051
 30
0.0
 11
-7.8251559843
 21
-10.1188837051
 31
0.0
  0
LINE
  5
C8
330
1F
100
AcDbEntity
  8
0
  6
Continuous
 62
     7
370
    25
100
AcDbLine
 10
-7.8251559843
 20
-10.1188837051
 30
0.0
 11
-7.8631700843
 21
-10.3784060051
 31
0.0
  0
LINE
  5
C9
330
1F
100
AcDbEntity
  8
0
  6
Continuous
 62
     7
370
    25
100
AcDbLine
 10
-7.8631700843
 20
-10.3784060051
 30
0.0
 11
-7.8923594843
 21
-10.6591415051
 31
0.0
  0
LINE
  5
CA
330
1F
100
AcDbEntity
  8
0
  6
Continuous
 62
     7
370
    25
100
AcDbLine
 10
-7.8923594843
 20
-10.6591415051
 30
0.0
 11
-7.9099067843
 21
-10.9399402051
 31
0.0
  0
ARC
  5
CB
330
1F
100
AcDbEntity
  8
0
  6
Continuous
 62
     7
370
    25
100
AcDbCircle
 10
0.0000241352
 20
0.0000320457
 30
0.0
 40
13.5
100
AcDbArc
 50
234.1319323976
 51
238.3680646879
  0
LINE
  5
CC
330
1F
100
AcDbEntity
  8
0
  6
Continuous
 62
     7
370
    25
100
AcDbLine
 10
-7.0801933843
 20
-11.4943370051
 30
0.0
 11
-6.8274843843
 21
-11.3706683051
 31
0.0
  0
LINE
  5
CD
330
1F
100
AcDbEntity
  8
0
  6
Continuous
 62
     7
370
    25
100
AcDbLine
 10
-6.8274843843
 20
-11.3706683051
 30
0.0
 11
-6.5792887843
 21
-11.2362680051
 31
0.0
  0
LINE
  5
CE
330
1F
100
AcDbEntity
  8
0
  6
Continuous
 62
     7
370
    25
100
AcDbLine
 10
-6.5792887843
 20
-11.2362680051
 30
0.0
 11
-6.3540687843
 21
-11.1018327051
 31
0.0
  0
LINE
  5
CF
330
1F
100
AcDbEntity
  8
0
  6
Continuous
 62
     7
370
    25
100
AcDbLine
 10
-6.3540687843
 20
-11.1018327051
 30
0.0
 11
-6.1501785843
 21
-10.9682497051
 31
0.0
  0
LINE
  5
D0
330
1F
100
AcDbEntity
  8
0
  6
Continuous
 62
     7
370
    25
100
AcDbLine
 10
-6.1501785843
 20
-10.9682497051
 30
0.0
 11
-5.9689844843
 21
-10.8383735051
 31
0.0
  0
LINE
  5
D1
330
1F
100
AcDbEntity
  8
0
  6
Continuous
 62
     7
370
    25
100
AcDbLine
 10
-5.9689844843
 20
-10.8383735051
 30
0.0
 11
-5.8078808843
 21
-10.7123415051
 31
0.0
  0
LINE
  5
D2
330
1F
100
AcDbEntity
  8
0
  6
Continuous
 62
     7
370
    25
100
AcDbLine
 10
-5.8078808843
 20
-10.7123415051
 30
0.0
 11
-5.6691916843
 21
-10.5941704051
 31
0.0
  0
LINE
  5
D3
330
1F
100
AcDbEntity
  8
0
  6
Continuous
 62
     7
370
    25
100
AcDbLine
 10
-5.6691916843
 20
-10.5941704051
 30
0.0
 11
-5.5487088843
 21
-10.4825073051
 31
0.0
  0
LINE
  5
D4
330
1F
100
AcDbEntity
  8
0
  6
Continuous
 62
     7
370
    25
100
AcDbLine
 10
-5.5487088843
 20
-10.4825073051
 30
0.0
 11
-5.4477183843
 21
-10.3807704051
 31
0.0
  0
LINE
  5
D5
330
1F
100
AcDbEntity
  8
0
  6
Continuous
 62
     7
370
    25
100
AcDbLine
 10
-5.4477183843
 20
-10.3807704051
 30
0.0
 11
-5.3642509843
 21
-10.2893533051
 31
0.0
  0
LINE
  5
D6
330
1F
100
AcDbEntity
  8
0
  6
Continuous
 62
     7
370
    25
100
AcDbLine
 10
-5.3642509843
 20
-10.2893533051
 30
0.0
 11
-5.2443297843
 21
-10.1408944051
 31
0.0
  0
LINE
  5
D7
330
1F
100
AcDbEntity
  8
0
  6
Continuous
 62
     7
370
    25
100
AcDbLine
 10
-5.2443297843
 20
-10.1408944051
 30
0.0
 11
-5.1820167843
 21
-10.0492007051
 31
0.0
  0
LINE
  5
D8
330
1F
100
AcDbEntity
  8
0
  6
Continuous
 62
     7
370
    25
100
AcDbLine
 10
-5.1820167843
 20
-10.0492007051
 30
0.0
 11
-5.0979840843
 21
-9.8890261051
 31
0.0
  0
LINE
  5
D9
330
1F
100
AcDbEntity
  8
0
  6
Continuous
 62
     7
370
    25
100
AcDbLine
 10
-5.0979840843
 20
-9.8890261051
 30
0.0
 11
-5.0120039843
 21
-9.7506998051
 31
0.0
  0
LINE
  5
DA
330
1F
100
AcDbEntity
  8
0
  6
Continuous
 62
     7
370
    25
100
AcDbLine
 10
-5.0120039843
 20
-9.7506998051
 30
0.0
 11
-4.9242544843
 21
-9.6367675051
 31
0.0
  0
LINE
  5
DB
330
1F
100
AcDbEntity
  8
0
  6
Continuous
 62
     7
370
    25
100
AcDbLine
 10
-4.9242544843
 20
-9.6367675051
 30
0.0
 11
-4.8366264843
 21
-9.5471171051
 31
0.0
  0
LINE
  5
DC
330
1F
100
AcDbEntity
  8
0
  6
Continuous
 62
     7
370
    25
100
AcDbLine
 10
-4.8366264843
 20
-9.5471171051
 30
0.0
 11
-4.7509719843
 21
-9.4814901051
 31
0.0
  0
LINE
  5
DD
330
1F
100
AcDbEntity
  8
0
  6
Continuous
 62
     7
370
    25
100
AcDbLine
 10
-4.7509719843
 20
-9.4814901051
 30
0.0
 11
-4.6691549843
 21
-9.4395257051
 31
0.0
  0
LINE
  5
DE
330
1F
100
AcDbEntity
  8
0
  6
Continuous
 62
     7
370
    25
100
AcDbLine
 10
-4.6691549843
 20
-9.4395257051
 30
0.0
 11
-4.6302482843
 21
-9.4272828051
 31
0.0
  0
LINE
  5
DF
330
1F
100
AcDbEntity
  8
0
  6
Continuous
 62
     7
370
    25
100
AcDbLine
 10
-4.6302482843
 20
-9.4272828051
 30
0.0
 11
-4.5929840843
 21
-9.4207563051
 31
0.0
  0
LINE
  5
E0
330
1F
100
AcDbEntity
  8
0
  6
Continuous
 62
     7
370
    25
100
AcDbLine
 10
-4.5929840843
 20
-9.4207563051
 30
0.0
 11
-4.5575811843
 21
-9.4198992051
 31
0.0
  0
LINE
  5
E1
330
1F
100
AcDbEntity
  8
0
  6
Continuous
 62
     7
370
    25
100
AcDbLine
 10
-4.5575811843
 20
-9.4198992051
 30
0.0
 11
-4.5242574843
 21
-9.4246102051
 31
0.0
  0
LINE
  5
E2
330
1F
100
AcDbEntity
  8
0
  6
Continuous
 62
     7
370
    25
100
AcDbLine
 10
-4.5242574843
 20
-9.4246102051
 30
0.0
 11
-4.4858642843
 21
-9.4381969051
 31
0.0
  0
LINE
  5
E3
330
1F
100
AcDbEntity
  8
0
  6
Continuous
 62
     7
370
    25
100
AcDbLine
 10
-4.4858642843
 20
-9.4381969051
 30
0.0
 11
-4.1255240843
 21
-9.6012011051
 31
0.0
  0
LINE
  5
E4
330
1F
100
AcDbEntity
  8
0
  6
Continuous
 62
     7
370
    25
100
AcDbLine
 10
-4.1255240843
 20
-9.6012011051
 30
0.0
 11
-3.9990360843
 21
-9.6545358051
 31
0.0
  0
LINE
  5
E5
330
1F
100
AcDbEntity
  8
0
  6
Continuous
 62
     7
370
    25
100
AcDbLine
 10
-3.9990360843
 20
-9.6545358051
 30
0.0
 11
-3.8718821843
 21
-9.7062630051
 31
0.0
  0
LINE
  5
E6
330
1F
100
AcDbEntity
  8
0
  6
Continuous
 62
     7
370
    25
100
AcDbLine
 10
-3.8718821843
 20
-9.7062630051
 30
0.0
 11
-3.5018217843
 21
-9.8458007051
 31
0.0
  0
LINE
  5
E7
330
1F
100
AcDbEntity
  8
0
  6
Continuous
 62
     7
370
    25
100
AcDbLine
 10
-3.5018217843
 20
-9.8458007051
 30
0.0
 11
-3.4650664843
 21
-9.8633415051
 31
0.0
  0
LINE
  5
E8
330
1F
100
AcDbEntity
  8
0
  6
Continuous
 62
     7
370
    25
100
AcDbLine
 10
-3.4650664843
 20
-9.8633415051
 30
0.0
 11
-3.4381717843
 21
-9.8835737051
 31
0.0
  0
LINE
  5
E9
330
1F
100
AcDbEntity
  8
0
  6
Continuous
 62
     7
370
    25
100
AcDbLine
 10
-3.4381717843
 20
-9.8835737051
 30
0.0
 11
-3.4137442843
 21
-9.9092135051
 31
0.0
  0
LINE
  5
EA
330
1F
100
AcDbEntity
  8
0
  6
Continuous
 62
     7
370
    25
100
AcDbLine
 10
-3.4137442843
 20
-9.9092135051
 30
0.0
 11
-3.3920094843
 21
-9.9401781051
 31
0.0
  0
LINE
  5
EB
330
1F
100
AcDbEntity
  8
0
  6
Continuous
 62
     7
370
    25
100
AcDbLine
 10
-3.3920094843
 20
-9.9401781051
 30
0.0
 11
-3.3731552843
 21
-9.9763464051
 31
0.0
  0
LINE
  5
EC
330
1F
100
AcDbEntity
  8
0
  6
Continuous
 62
     7
370
    25
100
AcDbLine
 10
-3.3731552843
 20
-9.9763464051
 30
0.0
 11
-3.3449751843
 21
-10.0638730051
 31
0.0
  0
LINE
  5
ED
330
1F
100
AcDbEntity
  8
0
  6
Continuous
 62
     7
370
    25
100
AcDbLine
 10
-3.3449751843
 20
-10.0638730051
 30
0.0
 11
-3.3308136843
 21
-10.1708452051
 31
0.0
  0
LINE
  5
EE
330
1F
100
AcDbEntity
  8
0
  6
Continuous
 62
     7
370
    25
100
AcDbLine
 10
-3.3308136843
 20
-10.1708452051
 30
0.0
 11
-3.3322437843
 21
-10.2962000051
 31
0.0
  0
LINE
  5
EF
330
1F
100
AcDbEntity
  8
0
  6
Continuous
 62
     7
370
    25
100
AcDbLine
 10
-3.3322437843
 20
-10.2962000051
 30
0.0
 11
-3.3507577843
 21
-10.4388105051
 31
0.0
  0
LINE
  5
F0
330
1F
100
AcDbEntity
  8
0
  6
Continuous
 62
     7
370
    25
100
AcDbLine
 10
-3.3507577843
 20
-10.4388105051
 30
0.0
 11
-3.3877721843
 21
-10.5974191051
 31
0.0
  0
LINE
  5
F1
330
1F
100
AcDbEntity
  8
0
  6
Continuous
 62
     7
370
    25
100
AcDbLine
 10
-3.3877721843
 20
-10.5974191051
 30
0.0
 11
-3.4416125843
 21
-10.7700998051
 31
0.0
  0
LINE
  5
F2
330
1F
100
AcDbEntity
  8
0
  6
Continuous
 62
     7
370
    25
100
AcDbLine
 10
-3.4416125843
 20
-10.7700998051
 30
0.0
 11
-3.4623878843
 21
-10.8789989051
 31
0.0
  0
LINE
  5
F3
330
1F
100
AcDbEntity
  8
0
  6
Continuous
 62
     7
370
    25
100
AcDbLine
 10
-3.4623878843
 20
-10.8789989051
 30
0.0
 11
-3.4825670843
 21
-11.0687723051
 31
0.0
  0
LINE
  5
F4
330
1F
100
AcDbEntity
  8
0
  6
Continuous
 62
     7
370
    25
100
AcDbLine
 10
-3.4825670843
 20
-11.0687723051
 30
0.0
 11
-3.4881883843
 21
-11.1924343051
 31
0.0
  0
LINE
  5
F5
330
1F
100
AcDbEntity
  8
0
  6
Continuous
 62
     7
370
    25
100
AcDbLine
 10
-3.4881883843
 20
-11.1924343051
 30
0.0
 11
-3.4887161843
 21
-11.3357842051
 31
0.0
  0
LINE
  5
F6
330
1F
100
AcDbEntity
  8
0
  6
Continuous
 62
     7
370
    25
100
AcDbLine
 10
-3.4887161843
 20
-11.3357842051
 30
0.0
 11
-3.4824796843
 21
-11.4999361051
 31
0.0
  0
LINE
  5
F7
330
1F
100
AcDbEntity
  8
0
  6
Continuous
 62
     7
370
    25
100
AcDbLine
 10
-3.4824796843
 20
-11.4999361051
 30
0.0
 11
-3.4679711843
 21
-11.6815639051
 31
0.0
  0
LINE
  5
F8
330
1F
100
AcDbEntity
  8
0
  6
Continuous
 62
     7
370
    25
100
AcDbLine
 10
-3.4679711843
 20
-11.6815639051
 30
0.0
 11
-3.4431717843
 21
-11.8845993051
 31
0.0
  0
LINE
  5
F9
330
1F
100
AcDbEntity
  8
0
  6
Continuous
 62
     7
370
    25
100
AcDbLine
 10
-3.4431717843
 20
-11.8845993051
 30
0.0
 11
-3.4068845843
 21
-12.1045593051
 31
0.0
  0
LINE
  5
FA
330
1F
100
AcDbEntity
  8
0
  6
Continuous
 62
     7
370
    25
100
AcDbLine
 10
-3.4068845843
 20
-12.1045593051
 30
0.0
 11
-3.3571698843
 21
-12.3431889051
 31
0.0
  0
LINE
  5
FB
330
1F
100
AcDbEntity
  8
0
  6
Continuous
 62
     7
370
    25
100
AcDbLine
 10
-3.3571698843
 20
-12.3431889051
 30
0.0
 11
-3.2929753843
 21
-12.5975036051
 31
0.0
  0
LINE
  5
FC
330
1F
100
AcDbEntity
  8
0
  6
Continuous
 62
     7
370
    25
100
AcDbLine
 10
-3.2929753843
 20
-12.5975036051
 30
0.0
 11
-3.2125099843
 21
-12.8680397051
 31
0.0
  0
LINE
  5
FD
330
1F
100
AcDbEntity
  8
0
  6
Continuous
 62
     7
370
    25
100
AcDbLine
 10
-3.2125099843
 20
-12.8680397051
 30
0.0
 11
-3.1212646843
 21
-13.1341790051
 31
0.0
  0
ARC
  5
FE
330
1F
100
AcDbEntity
  8
0
  6
Continuous
 62
     7
370
    25
100
AcDbCircle
 10
0.0000113612
 20
0.00003722
 30
0.0
 40
13.5
100
AcDbArc
 50
256.6319372122
 51
260.8680694389
  0
LINE
  5
FF
330
1F
100
AcDbEntity
  8
0
  6
Continuous
 62
     7
370
    25
100
AcDbLine
 10
-2.1425509843
 20
-13.3288572051
 30
0.0
 11
-1.9564041843
 21
-13.1178947051
 31
0.0
  0
LINE
  5
100
330
1F
100
AcDbEntity
  8
0
  6
Continuous
 62
     7
370
    25
100
AcDbLine
 10
-1.9564041843
 20
-13.1178947051
 30
0.0
 11
-1.7785341843
 21
-12.8987447051
 31
0.0
  0
LINE
  5
101
330
1F
100
AcDbEntity
  8
0
  6
Continuous
 62
     7
370
    25
100
AcDbLine
 10
-1.7785341843
 20
-12.8987447051
 30
0.0
 11
-1.6219041843
 21
-12.6883547051
 31
0.0
  0
LINE
  5
102
330
1F
100
AcDbEntity
  8
0
  6
Continuous
 62
     7
370
    25
100
AcDbLine
 10
-1.6219041843
 20
-12.6883547051
 30
0.0
 11
-1.4846541843
 21
-12.4869147051
 31
0.0
  0
LINE
  5
103
330
1F
100
AcDbEntity
  8
0
  6
Continuous
 62
     7
370
    25
100
AcDbLine
 10
-1.4846541843
 20
-12.4869147051
 30
0.0
 11
-1.3669541843
 21
-12.2975847051
 31
0.0
  0
LINE
  5
104
330
1F
100
AcDbEntity
  8
0
  6
Continuous
 62
     7
370
    25
100
AcDbLine
 10
-1.3669541843
 20
-12.2975847051
 30
0.0
 11
-1.2663441843
 21
-12.1194947051
 31
0.0
  0
LINE
  5
105
330
1F
100
AcDbEntity
  8
0
  6
Continuous
 62
     7
370
    25
100
AcDbLine
 10
-1.2663441843
 20
-12.1194947051
 30
0.0
 11
-1.1834341843
 21
-11.9572447051
 31
0.0
  0
LINE
  5
106
330
1F
100
AcDbEntity
  8
0
  6
Continuous
 62
     7
370
    25
100
AcDbLine
 10
-1.1834341843
 20
-11.9572447051
 30
0.0
 11
-1.1148541843
 21
-11.8079747051
 31
0.0
  0
LINE
  5
107
330
1F
100
AcDbEntity
  8
0
  6
Continuous
 62
     7
370
    25
100
AcDbLine
 10
-1.1148541843
 20
-11.8079747051
 30
0.0
 11
-1.0604841843
 21
-11.6753347051
 31
0.0
  0
LINE
  5
108
330
1F
100
AcDbEntity
  8
0
  6
Continuous
 62
     7
370
    25
100
AcDbLine
 10
-1.0604841843
 20
-11.6753347051
 30
0.0
 11
-1.0183541843
 21
-11.5589347051
 31
0.0
  0
LINE
  5
109
330
1F
100
AcDbEntity
  8
0
  6
Continuous
 62
     7
370
    25
100
AcDbLine
 10
-1.0183541843
 20
-11.5589347051
 30
0.0
 11
-0.9643741843
 21
-11.3758847051
 31
0.0
  0
LINE
  5
10A
330
1F
100
AcDbEntity
  8
0
  6
Continuous
 62
     7
370
    25
100
AcDbLine
 10
-0.9643741843
 20
-11.3758847051
 30
0.0
 11
-0.9418941843
 21
-11.2673247051
 31
0.0
  0
LINE
  5
10B
330
1F
100
AcDbEntity
  8
0
  6
Continuous
 62
     7
370
    25
100
AcDbLine
 10
-0.9418941843
 20
-11.2673247051
 30
0.0
 11
-0.9255541843
 21
-11.0871847051
 31
0.0
  0
LINE
  5
10C
330
1F
100
AcDbEntity
  8
0
  6
Continuous
 62
     7
370
    25
100
AcDbLine
 10
-0.9255541843
 20
-11.0871847051
 30
0.0
 11
-0.8990541843
 21
-10.9264847051
 31
0.0
  0
LINE
  5
10D
330
1F
100
AcDbEntity
  8
0
  6
Continuous
 62
     7
370
    25
100
AcDbLine
 10
-0.8990541843
 20
-10.9264847051
 30
0.0
 11
-0.8615841843
 21
-10.7876447051
 31
0.0
  0
LINE
  5
10E
330
1F
100
AcDbEntity
  8
0
  6
Continuous
 62
     7
370
    25
100
AcDbLine
 10
-0.8615841843
 20
-10.7876447051
 30
0.0
 11
-0.8149341843
 21
-10.6712847051
 31
0.0
  0
LINE
  5
10F
330
1F
100
AcDbEntity
  8
0
  6
Continuous
 62
     7
370
    25
100
AcDbLine
 10
-0.8149341843
 20
-10.6712847051
 30
0.0
 11
-0.7609141843
 21
-10.5778747051
 31
0.0
  0
LINE
  5
110
330
1F
100
AcDbEntity
  8
0
  6
Continuous
 62
     7
370
    25
100
AcDbLine
 10
-0.7609141843
 20
-10.5778747051
 30
0.0
 11
-0.7013841843
 21
-10.5077947051
 31
0.0
  0
LINE
  5
111
330
1F
100
AcDbEntity
  8
0
  6
Continuous
 62
     7
370
    25
100
AcDbLine
 10
-0.7013841843
 20
-10.5077947051
 30
0.0
 11
-0.6701241843
 21
-10.4815947051
 31
0.0
  0
LINE
  5
112
330
1F
100
AcDbEntity
  8
0
  6
Continuous
 62
     7
370
    25
100
AcDbLine
 10
-0.6701241843
 20
-10.4815947051
 30
0.0
 11
-0.6381941843
 21
-10.4613047051
 31
0.0
  0
LINE
  5
113
330
1F
100
AcDbEntity
  8
0
  6
Continuous
 62
     7
370
    25
100
AcDbLine
 10
-0.6381941843
 20
-10.4613047051
 30
0.0
 11
-0.6058141843
 21
-10.4469647051
 31
0.0
  0
LINE
  5
114
330
1F
100
AcDbEntity
  8
0
  6
Continuous
 62
     7
370
    25
100
AcDbLine
 10
-0.6058141843
 20
-10.4469647051
 30
0.0
 11
-0.5732241843
 21
-10.4385647051
 31
0.0
  0
LINE
  5
115
330
1F
100
AcDbEntity
  8
0
  6
Continuous
 62
     7
370
    25
100
AcDbLine
 10
-0.5732241843
 20
-10.4385647051
 30
0.0
 11
-0.5325541843
 21
-10.4364247051
 31
0.0
  0
LINE
  5
116
330
1F
100
AcDbEntity
  8
0
  6
Continuous
 62
     7
370
    25
100
AcDbLine
 10
-0.5325541843
 20
-10.4364247051
 30
0.0
 11
-0.1372641843
 21
-10.4491247051
 31
0.0
  0
LINE
  5
117
330
1F
100
AcDbEntity
  8
0
  6
Continuous
 62
     7
370
    25
100
AcDbLine
 10
-0.1372641843
 20
-10.4491247051
 30
0.0
 11
0.0000058157
 21
-10.4499947051
 31
0.0
  0
LINE
  5
118
330
1F
100
AcDbEntity
  8
0
  6
Continuous
 62
     7
370
    25
100
AcDbLine
 10
0.0000058157
 20
-10.4499947051
 30
0.0
 11
0.1372758157
 21
-10.4491247051
 31
0.0
  0
LINE
  5
119
330
1F
100
AcDbEntity
  8
0
  6
Continuous
 62
     7
370
    25
100
AcDbLine
 10
0.1372758157
 20
-10.4491247051
 30
0.0
 11
0.5325658157
 21
-10.4364247051
 31
0.0
  0
LINE
  5
11A
330
1F
100
AcDbEntity
  8
0
  6
Continuous
 62
     7
370
    25
100
AcDbLine
 10
0.5325658157
 20
-10.4364247051
 30
0.0
 11
0.5732358157
 21
-10.4385647051
 31
0.0
  0
LINE
  5
11B
330
1F
100
AcDbEntity
  8
0
  6
Continuous
 62
     7
370
    25
100
AcDbLine
 10
0.5732358157
 20
-10.4385647051
 30
0.0
 11
0.6058258157
 21
-10.4469647051
 31
0.0
  0
LINE
  5
11C
330
1F
100
AcDbEntity
  8
0
  6
Continuous
 62
     7
370
    25
100
AcDbLine
 10
0.6058258157
 20
-10.4469647051
 30
0.0
 11
0.6382058157
 21
-10.4613047051
 31
0.0
  0
LINE
  5
11D
330
1F
100
AcDbEntity
  8
0
  6
Continuous
 62
     7
370
    25
100
AcDbLine
 10
0.6382058157
 20
-10.4613047051
 30
0.0
 11
0.6701358157
 21
-10.4815947051
 31
0.0
  0
LINE
  5
11E
330
1F
100
AcDbEntity
  8
0
  6
Continuous
 62
     7
370
    25
100
AcDbLine
 10
0.6701358157
 20
-10.4815947051
 30
0.0
 11
0.7013958157
 21
-10.5077947051
 31
0.0
  0
LINE
  5
11F
330
1F
100
AcDbEntity
  8
0
  6
Continuous
 62
     7
370
    25
100
AcDbLine
 10
0.7013958157
 20
-10.5077947051
 30
0.0
 11
0.7609258157
 21
-10.5778747051
 31
0.0
  0
LINE
  5
120
330
1F
100
AcDbEntity
  8
0
  6
Continuous
 62
     7
370
    25
100
AcDbLine
 10
0.7609258157
 20
-10.5778747051
 30
0.0
 11
0.8149458157
 21
-10.6712847051
 31
0.0
  0
LINE
  5
121
330
1F
100
AcDbEntity
  8
0
  6
Continuous
 62
     7
370
    25
100
AcDbLine
 10
0.8149458157
 20
-10.6712847051
 30
0.0
 11
0.8615958157
 21
-10.7876447051
 31
0.0
  0
LINE
  5
122
330
1F
100
AcDbEntity
  8
0
  6
Continuous
 62
     7
370
    25
100
AcDbLine
 10
0.8615958157
 20
-10.7876447051
 30
0.0
 11
0.8990658157
 21
-10.9264847051
 31
0.0
  0
LINE
  5
123
330
1F
100
AcDbEntity
  8
0
  6
Continuous
 62
     7
370
    25
100
AcDbLine
 10
0.8990658157
 20
-10.9264847051
 30
0.0
 11
0.9255658157
 21
-11.0871847051
 31
0.0
  0
LINE
  5
124
330
1F
100
AcDbEntity
  8
0
  6
Continuous
 62
     7
370
    25
100
AcDbLine
 10
0.9255658157
 20
-11.0871847051
 30
0.0
 11
0.9419058157
 21
-11.2673247051
 31
0.0
  0
LINE
  5
125
330
1F
100
AcDbEntity
  8
0
  6
Continuous
 62
     7
370
    25
100
AcDbLine
 10
0.9419058157
 20
-11.2673247051
 30
0.0
 11
0.9643858157
 21
-11.3758847051
 31
0.0
  0
LINE
  5
126
330
1F
100
AcDbEntity
  8
0
  6
Continuous
 62
     7
370
    25
100
AcDbLine
 10
0.9643858157
 20
-11.3758847051
 30
0.0
 11
1.0183658157
 21
-11.5589347051
 31
0.0
  0
LINE
  5
127
330
1F
100
AcDbEntity
  8
0
  6
Continuous
 62
     7
370
    25
100
AcDbLine
 10
1.0183658157
 20
-11.5589347051
 30
0.0
 11
1.0604958157
 21
-11.6753347051
 31
0.0
  0
LINE
  5
128
330
1F
100
AcDbEntity
  8
0
  6
Continuous
 62
     7
370
    25
100
AcDbLine
 10
1.0604958157
 20
-11.6753347051
 30
0.0
 11
1.1148658157
 21
-11.8079747051
 31
0.0
  0
LINE
  5
129
330
1F
100
AcDbEntity
  8
0
  6
Continuous
 62
     7
370
    25
100
AcDbLine
 10
1.1148658157
 20
-11.8079747051
 30
0.0
 11
1.1834458157
 21
-11.9572447051
 31
0.0
  0
LINE
  5
12A
330
1F
100
AcDbEntity
  8
0
  6
Continuous
 62
     7
370
    25
100
AcDbLine
 10
1.1834458157
 20
-11.9572447051
 30
0.0
 11
1.2663558157
 21
-12.1194947051
 31
0.0
  0
LINE
  5
12B
330
1F
100
AcDbEntity
  8
0
  6
Continuous
 62
     7
370
    25
100
AcDbLine
 10
1.2663558157
 20
-12.1194947051
 30
0.0
 11
1.3669658157
 21
-12.2975847051
 31
0.0
  0
LINE
  5
12C
330
1F
100
AcDbEntity
  8
0
  6
Continuous
 62
     7
370
    25
100
AcDbLine
 10
1.3669658157
 20
-12.2975847051
 30
0.0
 11
1.4846658157
 21
-12.4869147051
 31
0.0
  0
LINE
  5
12D
330
1F
100
AcDbEntity
  8
0
  6
Continuous
 62
     7
370
    25
100
AcDbLine
 10
1.4846658157
 20
-12.4869147051
 30
0.0
 11
1.6219158157
 21
-12.6883547051
 31
0.0
  0
LINE
  5
12E
330
1F
100
AcDbEntity
  8
0
  6
Continuous
 62
     7
370
    25
100
AcDbLine
 10
1.6219158157
 20
-12.6883547051
 30
0.0
 11
1.7785458157
 21
-12.8987447051
 31
0.0
  0
LINE
  5
12F
330
1F
100
AcDbEntity
  8
0
  6
Continuous
 62
     7
370
    25
100
AcDbLine
 10
1.7785458157
 20
-12.8987447051
 30
0.0
 11
1.9564158157
 21
-13.1178947051
 31
0.0
  0
LINE
  5
130
330
1F
100
AcDbEntity
  8
0
  6
Continuous
 62
     7
370
    25
100
AcDbLine
 10
1.9564158157
 20
-13.1178947051
 30
0.0
 11
2.1425626157
 21
-13.3288572051
 31
0.0
  0
ARC
  5
131
330
1F
100
AcDbEntity
  8
0
  6
Continuous
 62
     7
370
    25
100
AcDbCircle
 10
0.0000002702
 20
0.00003722
 30
0.0
 40
13.5
100
AcDbArc
 50
279.1319305611
 51
283.3680627878
  0
LINE
  5
132
330
1F
100
AcDbEntity
  8
0
  6
Continuous
 62
     7
370
    25
100
AcDbLine
 10
3.1212763157
 20
-13.1341790051
 30
0.0
 11
3.2125216157
 21
-12.8680397051
 31
0.0
  0
LINE
  5
133
330
1F
100
AcDbEntity
  8
0
  6
Continuous
 62
     7
370
    25
100
AcDbLine
 10
3.2125216157
 20
-12.8680397051
 30
0.0
 11
3.2929870157
 21
-12.5975036051
 31
0.0
  0
LINE
  5
134
330
1F
100
AcDbEntity
  8
0
  6
Continuous
 62
     7
370
    25
100
AcDbLine
 10
3.2929870157
 20
-12.5975036051
 30
0.0
 11
3.3571815157
 21
-12.3431889051
 31
0.0
  0
LINE
  5
135
330
1F
100
AcDbEntity
  8
0
  6
Continuous
 62
     7
370
    25
100
AcDbLine
 10
3.3571815157
 20
-12.3431889051
 30
0.0
 11
3.4068962157
 21
-12.1045593051
 31
0.0
  0
LINE
  5
136
330
1F
100
AcDbEntity
  8
0
  6
Continuous
 62
     7
370
    25
100
AcDbLine
 10
3.4068962157
 20
-12.1045593051
 30
0.0
 11
3.4431834157
 21
-11.8845993051
 31
0.0
  0
LINE
  5
137
330
1F
100
AcDbEntity
  8
0
  6
Continuous
 62
     7
370
    25
100
AcDbLine
 10
3.4431834157
 20
-11.8845993051
 30
0.0
 11
3.4679828157
 21
-11.6815639051
 31
0.0
  0
LINE
  5
138
330
1F
100
AcDbEntity
  8
0
  6
Continuous
 62
     7
370
    25
100
AcDbLine
 10
3.4679828157
 20
-11.6815639051
 30
0.0
 11
3.4824913157
 21
-11.4999361051
 31
0.0
  0
LINE
  5
139
330
1F
100
AcDbEntity
  8
0
  6
Continuous
 62
     7
370
    25
100
AcDbLine
 10
3.4824913157
 20
-11.4999361051
 30
0.0
 11
3.4887278157
 21
-11.3357842051
 31
0.0
  0
LINE
  5
13A
330
1F
100
AcDbEntity
  8
0
  6
Continuous
 62
     7
370
    25
100
AcDbLine
 10
3.4887278157
 20
-11.3357842051
 30
0.0
 11
3.4882000157
 21
-11.1924343051
 31
0.0
  0
LINE
  5
13B
330
1F
100
AcDbEntity
  8
0
  6
Continuous
 62
     7
370
    25
100
AcDbLine
 10
3.4882000157
 20
-11.1924343051
 30
0.0
 11
3.4825787157
 21
-11.0687723051
 31
0.0
  0
LINE
  5
13C
330
1F
100
AcDbEntity
  8
0
  6
Continuous
 62
     7
370
    25
100
AcDbLine
 10
3.4825787157
 20
-11.0687723051
 30
0.0
 11
3.4623995157
 21
-10.8789989051
 31
0.0
  0
LINE
  5
13D
330
1F
100
AcDbEntity
  8
0
  6
Continuous
 62
     7
370
    25
100
AcDbLine
 10
3.4623995157
 20
-10.8789989051
 30
0.0
 11
3.4416242157
 21
-10.7700998051
 31
0.0
  0
LINE
  5
13E
330
1F
100
AcDbEntity
  8
0
  6
Continuous
 62
     7
370
    25
100
AcDbLine
 10
3.4416242157
 20
-10.7700998051
 30
0.0
 11
3.3877838157
 21
-10.5974191051
 31
0.0
  0
LINE
  5
13F
330
1F
100
AcDbEntity
  8
0
  6
Continuous
 62
     7
370
    25
100
AcDbLine
 10
3.3877838157
 20
-10.5974191051
 30
0.0
 11
3.3507694157
 21
-10.4388105051
 31
0.0
  0
LINE
  5
140
330
1F
100
AcDbEntity
  8
0
  6
Continuous
 62
     7
370
    25
100
AcDbLine
 10
3.3507694157
 20
-10.4388105051
 30
0.0
 11
3.3322554157
 21
-10.2962000051
 31
0.0
  0
LINE
  5
141
330
1F
100
AcDbEntity
  8
0
  6
Continuous
 62
     7
370
    25
100
AcDbLine
 10
3.3322554157
 20
-10.2962000051
 30
0.0
 11
3.3308253157
 21
-10.1708452051
 31
0.0
  0
LINE
  5
142
330
1F
100
AcDbEntity
  8
0
  6
Continuous
 62
     7
370
    25
100
AcDbLine
 10
3.3308253157
 20
-10.1708452051
 30
0.0
 11
3.3449868157
 21
-10.0638730051
 31
0.0
  0
LINE
  5
143
330
1F
100
AcDbEntity
  8
0
  6
Continuous
 62
     7
370
    25
100
AcDbLine
 10
3.3449868157
 20
-10.0638730051
 30
0.0
 11
3.3731669157
 21
-9.9763464051
 31
0.0
  0
LINE
  5
144
330
1F
100
AcDbEntity
  8
0
  6
Continuous
 62
     7
370
    25
100
AcDbLine
 10
3.3731669157
 20
-9.9763464051
 30
0.0
 11
3.3920211157
 21
-9.9401781051
 31
0.0
  0
LINE
  5
145
330
1F
100
AcDbEntity
  8
0
  6
Continuous
 62
     7
370
    25
100
AcDbLine
 10
3.3920211157
 20
-9.9401781051
 30
0.0
 11
3.4137559157
 21
-9.9092135051
 31
0.0
  0
LINE
  5
146
330
1F
100
AcDbEntity
  8
0
  6
Continuous
 62
     7
370
    25
100
AcDbLine
 10
3.4137559157
 20
-9.9092135051
 30
0.0
 11
3.4381834157
 21
-9.8835737051
 31
0.0
  0
LINE
  5
147
330
1F
100
AcDbEntity
  8
0
  6
Continuous
 62
     7
370
    25
100
AcDbLine
 10
3.4381834157
 20
-9.8835737051
 30
0.0
 11
3.4650781157
 21
-9.8633415051
 31
0.0
  0
LINE
  5
148
330
1F
100
AcDbEntity
  8
0
  6
Continuous
 62
     7
370
    25
100
AcDbLine
 10
3.4650781157
 20
-9.8633415051
 30
0.0
 11
3.5018334157
 21
-9.8458007051
 31
0.0
  0
LINE
  5
149
330
1F
100
AcDbEntity
  8
0
  6
Continuous
 62
     7
370
    25
100
AcDbLine
 10
3.5018334157
 20
-9.8458007051
 30
0.0
 11
3.8718938157
 21
-9.7062630051
 31
0.0
  0
LINE
  5
14A
330
1F
100
AcDbEntity
  8
0
  6
Continuous
 62
     7
370
    25
100
AcDbLine
 10
3.8718938157
 20
-9.7062630051
 30
0.0
 11
3.9990477157
 21
-9.6545358051
 31
0.0
  0
LINE
  5
14B
330
1F
100
AcDbEntity
  8
0
  6
Continuous
 62
     7
370
    25
100
AcDbLine
 10
3.9990477157
 20
-9.6545358051
 30
0.0
 11
4.1255357157
 21
-9.6012011051
 31
0.0
  0
LINE
  5
14C
330
1F
100
AcDbEntity
  8
0
  6
Continuous
 62
     7
370
    25
100
AcDbLine
 10
4.1255357157
 20
-9.6012011051
 30
0.0
 11
4.4858759157
 21
-9.4381969051
 31
0.0
  0
LINE
  5
14D
330
1F
100
AcDbEntity
  8
0
  6
Continuous
 62
     7
370
    25
100
AcDbLine
 10
4.4858759157
 20
-9.4381969051
 30
0.0
 11
4.5242691157
 21
-9.4246102051
 31
0.0
  0
LINE
  5
14E
330
1F
100
AcDbEntity
  8
0
  6
Continuous
 62
     7
370
    25
100
AcDbLine
 10
4.5242691157
 20
-9.4246102051
 30
0.0
 11
4.5575928157
 21
-9.4198992051
 31
0.0
  0
LINE
  5
14F
330
1F
100
AcDbEntity
  8
0
  6
Continuous
 62
     7
370
    25
100
AcDbLine
 10
4.5575928157
 20
-9.4198992051
 30
0.0
 11
4.5929957157
 21
-9.4207563051
 31
0.0
  0
LINE
  5
150
330
1F
100
AcDbEntity
  8
0
  6
Continuous
 62
     7
370
    25
100
AcDbLine
 10
4.5929957157
 20
-9.4207563051
 30
0.0
 11
4.6302599157
 21
-9.4272828051
 31
0.0
  0
LINE
  5
151
330
1F
100
AcDbEntity
  8
0
  6
Continuous
 62
     7
370
    25
100
AcDbLine
 10
4.6302599157
 20
-9.4272828051
 30
0.0
 11
4.6691666157
 21
-9.4395257051
 31
0.0
  0
LINE
  5
152
330
1F
100
AcDbEntity
  8
0
  6
Continuous
 62
     7
370
    25
100
AcDbLine
 10
4.6691666157
 20
-9.4395257051
 30
0.0
 11
4.7509836157
 21
-9.4814901051
 31
0.0
  0
LINE
  5
153
330
1F
100
AcDbEntity
  8
0
  6
Continuous
 62
     7
370
    25
100
AcDbLine
 10
4.7509836157
 20
-9.4814901051
 30
0.0
 11
4.8366381157
 21
-9.5471171051
 31
0.0
  0
LINE
  5
154
330
1F
100
AcDbEntity
  8
0
  6
Continuous
 62
     7
370
    25
100
AcDbLine
 10
4.8366381157
 20
-9.5471171051
 30
0.0
 11
4.9242661157
 21
-9.6367675051
 31
0.0
  0
LINE
  5
155
330
1F
100
AcDbEntity
  8
0
  6
Continuous
 62
     7
370
    25
100
AcDbLine
 10
4.9242661157
 20
-9.6367675051
 30
0.0
 11
5.0120156157
 21
-9.7506998051
 31
0.0
  0
LINE
  5
156
330
1F
100
AcDbEntity
  8
0
  6
Continuous
 62
     7
370
    25
100
AcDbLine
 10
5.0120156157
 20
-9.7506998051
 30
0.0
 11
5.0979957157
 21
-9.8890261051
 31
0.0
  0
LINE
  5
157
330
1F
100
AcDbEntity
  8
0
  6
Continuous
 62
     7
370
    25
100
AcDbLine
 10
5.0979957157
 20
-9.8890261051
 30
0.0
 11
5.1820284157
 21
-10.0492007051
 31
0.0
  0
LINE
  5
158
330
1F
100
AcDbEntity
  8
0
  6
Continuous
 62
     7
370
    25
100
AcDbLine
 10
5.1820284157
 20
-10.0492007051
 30
0.0
 11
5.2443414157
 21
-10.1408944051
 31
0.0
  0
LINE
  5
159
330
1F
100
AcDbEntity
  8
0
  6
Continuous
 62
     7
370
    25
100
AcDbLine
 10
5.2443414157
 20
-10.1408944051
 30
0.0
 11
5.3642626157
 21
-10.2893533051
 31
0.0
  0
LINE
  5
15A
330
1F
100
AcDbEntity
  8
0
  6
Continuous
 62
     7
370
    25
100
AcDbLine
 10
5.3642626157
 20
-10.2893533051
 30
0.0
 11
5.4477300157
 21
-10.3807704051
 31
0.0
  0
LINE
  5
15B
330
1F
100
AcDbEntity
  8
0
  6
Continuous
 62
     7
370
    25
100
AcDbLine
 10
5.4477300157
 20
-10.3807704051
 30
0.0
 11
5.5487205157
 21
-10.4825073051
 31
0.0
  0
LINE
  5
15C
330
1F
100
AcDbEntity
  8
0
  6
Continuous
 62
     7
370
    25
100
AcDbLine
 10
5.5487205157
 20
-10.4825073051
 30
0.0
 11
5.6692033157
 21
-10.5941704051
 31
0.0
  0
LINE
  5
15D
330
1F
100
AcDbEntity
  8
0
  6
Continuous
 62
     7
370
    25
100
AcDbLine
 10
5.6692033157
 20
-10.5941704051
 30
0.0
 11
5.8078925157
 21
-10.7123415051
 31
0.0
  0
LINE
  5
15E
330
1F
100
AcDbEntity
  8
0
  6
Continuous
 62
     7
370
    25
100
AcDbLine
 10
5.8078925157
 20
-10.7123415051
 30
0.0
 11
5.9689961157
 21
-10.8383735051
 31
0.0
  0
LINE
  5
15F
330
1F
100
AcDbEntity
  8
0
  6
Continuous
 62
     7
370
    25
100
AcDbLine
 10
5.9689961157
 20
-10.8383735051
 30
0.0
 11
6.1501902157
 21
-10.9682497051
 31
0.0
  0
LINE
  5
160
330
1F
100
AcDbEntity
  8
0
  6
Continuous
 62
     7
370
    25
100
AcDbLine
 10
6.1501902157
 20
-10.9682497051
 30
0.0
 11
6.3540804157
 21
-11.1018327051
 31
0.0
  0
LINE
  5
161
330
1F
100
AcDbEntity
  8
0
  6
Continuous
 62
     7
370
    25
100
AcDbLine
 10
6.3540804157
 20
-11.1018327051
 30
0.0
 11
6.5793004157
 21
-11.2362680051
 31
0.0
  0
LINE
  5
162
330
1F
100
AcDbEntity
  8
0
  6
Continuous
 62
     7
370
    25
100
AcDbLine
 10
6.5793004157
 20
-11.2362680051
 30
0.0
 11
6.8274960157
 21
-11.3706683051
 31
0.0
  0
LINE
  5
163
330
1F
100
AcDbEntity
  8
0
  6
Continuous
 62
     7
370
    25
100
AcDbLine
 10
6.8274960157
 20
-11.3706683051
 30
0.0
 11
7.0802050157
 21
-11.4943370051
 31
0.0
  0
ARC
  5
164
330
1F
100
AcDbEntity
  8
0
  6
Continuous
 62
     7
370
    25
100
AcDbCircle
 10
-0.0000179693
 20
0.0000187994
 30
0.0
 40
13.49999158808733
100
AcDbArc
 50
301.631984547
 51
305.8681084356
  0
LINE
  5
165
330
1F
100
AcDbEntity
  8
0
  6
Continuous
 62
     7
370
    25
100
AcDbLine
 10
7.9099158181
 20
-10.9399409975
 30
0.0
 11
7.8923685181
 21
-10.6591422975
 31
0.0
  0
LINE
  5
166
330
1F
100
AcDbEntity
  8
0
  6
Continuous
 62
     7
370
    25
100
AcDbLine
 10
7.8923685181
 20
-10.6591422975
 30
0.0
 11
7.8631791181
 21
-10.3784067975
 31
0.0
  0
LINE
  5
167
330
1F
100
AcDbEntity
  8
0
  6
Continuous
 62
     7
370
    25
100
AcDbLine
 10
7.8631791181
 20
-10.3784067975
 30
0.0
 11
7.8251650181
 21
-10.1188844975
 31
0.0
  0
LINE
  5
168
330
1F
100
AcDbEntity
  8
0
  6
Continuous
 62
     7
370
    25
100
AcDbLine
 10
7.8251650181
 20
-10.1188844975
 30
0.0
 11
7.7797759181
 21
-9.8793944975
 31
0.0
  0
LINE
  5
169
330
1F
100
AcDbEntity
  8
0
  6
Continuous
 62
     7
370
    25
100
AcDbLine
 10
7.7797759181
 20
-9.8793944975
 30
0.0
 11
7.7291258181
 21
-9.6622914975
 31
0.0
  0
LINE
  5
16A
330
1F
100
AcDbEntity
  8
0
  6
Continuous
 62
     7
370
    25
100
AcDbLine
 10
7.7291258181
 20
-9.6622914975
 30
0.0
 11
7.6743392181
 21
-9.4652207975
 31
0.0
  0
LINE
  5
16B
330
1F
100
AcDbEntity
  8
0
  6
Continuous
 62
     7
370
    25
100
AcDbLine
 10
7.6743392181
 20
-9.4652207975
 30
0.0
 11
7.6182373181
 21
-9.2918664975
 31
0.0
  0
LINE
  5
16C
330
1F
100
AcDbEntity
  8
0
  6
Continuous
 62
     7
370
    25
100
AcDbLine
 10
7.6182373181
 20
-9.2918664975
 30
0.0
 11
7.5611809181
 21
-9.1378232975
 31
0.0
  0
LINE
  5
16D
330
1F
100
AcDbEntity
  8
0
  6
Continuous
 62
     7
370
    25
100
AcDbLine
 10
7.5611809181
 20
-9.1378232975
 30
0.0
 11
7.5058356181
 21
-9.0055872975
 31
0.0
  0
LINE
  5
16E
330
1F
100
AcDbEntity
  8
0
  6
Continuous
 62
     7
370
    25
100
AcDbLine
 10
7.5058356181
 20
-9.0055872975
 30
0.0
 11
7.4533188181
 21
-8.8934895975
 31
0.0
  0
LINE
  5
16F
330
1F
100
AcDbEntity
  8
0
  6
Continuous
 62
     7
370
    25
100
AcDbLine
 10
7.4533188181
 20
-8.8934895975
 30
0.0
 11
7.3620525181
 21
-8.7258840975
 31
0.0
  0
LINE
  5
170
330
1F
100
AcDbEntity
  8
0
  6
Continuous
 62
     7
370
    25
100
AcDbLine
 10
7.3620525181
 20
-8.7258840975
 30
0.0
 11
7.3011848181
 21
-8.6332247975
 31
0.0
  0
LINE
  5
171
330
1F
100
AcDbEntity
  8
0
  6
Continuous
 62
     7
370
    25
100
AcDbLine
 10
7.3011848181
 20
-8.6332247975
 30
0.0
 11
7.1853607181
 21
-8.4942924975
 31
0.0
  0
LINE
  5
172
330
1F
100
AcDbEntity
  8
0
  6
Continuous
 62
     7
370
    25
100
AcDbLine
 10
7.1853607181
 20
-8.4942924975
 30
0.0
 11
7.0904670181
 21
-8.3619220975
 31
0.0
  0
LINE
  5
173
330
1F
100
AcDbEntity
  8
0
  6
Continuous
 62
     7
370
    25
100
AcDbLine
 10
7.0904670181
 20
-8.3619220975
 30
0.0
 11
7.0187875181
 21
-8.2372520975
 31
0.0
  0
LINE
  5
174
330
1F
100
AcDbEntity
  8
0
  6
Continuous
 62
     7
370
    25
100
AcDbLine
 10
7.0187875181
 20
-8.2372520975
 30
0.0
 11
6.9694951181
 21
-8.1219865975
 31
0.0
  0
LINE
  5
175
330
1F
100
AcDbEntity
  8
0
  6
Continuous
 62
     7
370
    25
100
AcDbLine
 10
6.9694951181
 20
-8.1219865975
 30
0.0
 11
6.9416422181
 21
-8.0177378975
 31
0.0
  0
LINE
  5
176
330
1F
100
AcDbEntity
  8
0
  6
Continuous
 62
     7
370
    25
100
AcDbLine
 10
6.9416422181
 20
-8.0177378975
 30
0.0
 11
6.9341822181
 21
-7.9260897975
 31
0.0
  0
LINE
  5
177
330
1F
100
AcDbEntity
  8
0
  6
Continuous
 62
     7
370
    25
100
AcDbLine
 10
6.9341822181
 20
-7.9260897975
 30
0.0
 11
6.9377602181
 21
-7.8854593975
 31
0.0
  0
LINE
  5
178
330
1F
100
AcDbEntity
  8
0
  6
Continuous
 62
     7
370
    25
100
AcDbLine
 10
6.9377602181
 20
-7.8854593975
 30
0.0
 11
6.9459909181
 21
-7.8485342975
 31
0.0
  0
LINE
  5
179
330
1F
100
AcDbEntity
  8
0
  6
Continuous
 62
     7
370
    25
100
AcDbLine
 10
6.9459909181
 20
-7.8485342975
 30
0.0
 11
6.9587471181
 21
-7.8154982975
 31
0.0
  0
LINE
  5
17A
330
1F
100
AcDbEntity
  8
0
  6
Continuous
 62
     7
370
    25
100
AcDbLine
 10
6.9587471181
 20
-7.8154982975
 30
0.0
 11
6.9758520181
 21
-7.7865139975
 31
0.0
  0
LINE
  5
17B
330
1F
100
AcDbEntity
  8
0
  6
Continuous
 62
     7
370
    25
100
AcDbLine
 10
6.9758520181
 20
-7.7865139975
 30
0.0
 11
7.0030968181
 21
-7.7562426975
 31
0.0
  0
LINE
  5
17C
330
1F
100
AcDbEntity
  8
0
  6
Continuous
 62
     7
370
    25
100
AcDbLine
 10
7.0030968181
 20
-7.7562426975
 30
0.0
 11
7.2915893181
 21
-7.4857106975
 31
0.0
  0
LINE
  5
17D
330
1F
100
AcDbEntity
  8
0
  6
Continuous
 62
     7
370
    25
100
AcDbLine
 10
7.2915893181
 20
-7.4857106975
 30
0.0
 11
7.3892691181
 21
-7.3892613975
 31
0.0
  0
LINE
  5
17E
330
1F
100
AcDbEntity
  8
0
  6
Continuous
 62
     7
370
    25
100
AcDbLine
 10
7.3892691181
 20
-7.3892613975
 30
0.0
 11
7.4857184181
 21
-7.2915815975
 31
0.0
  0
LINE
  5
17F
330
1F
100
AcDbEntity
  8
0
  6
Continuous
 62
     7
370
    25
100
AcDbLine
 10
7.4857184181
 20
-7.2915815975
 30
0.0
 11
7.7562504181
 21
-7.0030890975
 31
0.0
  0
LINE
  5
180
330
1F
100
AcDbEntity
  8
0
  6
Continuous
 62
     7
370
    25
100
AcDbLine
 10
7.7562504181
 20
-7.0030890975
 30
0.0
 11
7.7865217181
 21
-6.9758442975
 31
0.0
  0
LINE
  5
181
330
1F
100
AcDbEntity
  8
0
  6
Continuous
 62
     7
370
    25
100
AcDbLine
 10
7.7865217181
 20
-6.9758442975
 30
0.0
 11
7.8155060181
 21
-6.9587393975
 31
0.0
  0
LINE
  5
182
330
1F
100
AcDbEntity
  8
0
  6
Continuous
 62
     7
370
    25
100
AcDbLine
 10
7.8155060181
 20
-6.9587393975
 30
0.0
 11
7.8485420181
 21
-6.9459831975
 31
0.0
  0
LINE
  5
183
330
1F
100
AcDbEntity
  8
0
  6
Continuous
 62
     7
370
    25
100
AcDbLine
 10
7.8485420181
 20
-6.9459831975
 30
0.0
 11
7.8854671181
 21
-6.9377524975
 31
0.0
  0
LINE
  5
184
330
1F
100
AcDbEntity
  8
0
  6
Continuous
 62
     7
370
    25
100
AcDbLine
 10
7.8854671181
 20
-6.9377524975
 30
0.0
 11
7.9260975181
 21
-6.9341744975
 31
0.0
  0
LINE
  5
185
330
1F
100
AcDbEntity
  8
0
  6
Continuous
 62
     7
370
    25
100
AcDbLine
 10
7.9260975181
 20
-6.9341744975
 30
0.0
 11
8.0177456181
 21
-6.9416344975
 31
0.0
  0
LINE
  5
186
330
1F
100
AcDbEntity
  8
0
  6
Continuous
 62
     7
370
    25
100
AcDbLine
 10
8.0177456181
 20
-6.9416344975
 30
0.0
 11
8.1219943181
 21
-6.9694873975
 31
0.0
  0
LINE
  5
187
330
1F
100
AcDbEntity
  8
0
  6
Continuous
 62
     7
370
    25
100
AcDbLine
 10
8.1219943181
 20
-6.9694873975
 30
0.0
 11
8.2372598181
 21
-7.0187797975
 31
0.0
  0
LINE
  5
188
330
1F
100
AcDbEntity
  8
0
  6
Continuous
 62
     7
370
    25
100
AcDbLine
 10
8.2372598181
 20
-7.0187797975
 30
0.0
 11
8.3619298181
 21
-7.0904592975
 31
0.0
  0
LINE
  5
189
330
1F
100
AcDbEntity
  8
0
  6
Continuous
 62
     7
370
    25
100
AcDbLine
 10
8.3619298181
 20
-7.0904592975
 30
0.0
 11
8.4943002181
 21
-7.1853529975
 31
0.0
  0
LINE
  5
18A
330
1F
100
AcDbEntity
  8
0
  6
Continuous
 62
     7
370
    25
100
AcDbLine
 10
8.4943002181
 20
-7.1853529975
 30
0.0
 11
8.6332325181
 21
-7.3011770975
 31
0.0
  0
LINE
  5
18B
330
1F
100
AcDbEntity
  8
0
  6
Continuous
 62
     7
370
    25
100
AcDbLine
 10
8.6332325181
 20
-7.3011770975
 30
0.0
 11
8.7258918181
 21
-7.3620447975
 31
0.0
  0
LINE
  5
18C
330
1F
100
AcDbEntity
  8
0
  6
Continuous
 62
     7
370
    25
100
AcDbLine
 10
8.7258918181
 20
-7.3620447975
 30
0.0
 11
8.8934973181
 21
-7.4533110975
 31
0.0
  0
LINE
  5
18D
330
1F
100
AcDbEntity
  8
0
  6
Continuous
 62
     7
370
    25
100
AcDbLine
 10
8.8934973181
 20
-7.4533110975
 30
0.0
 11
9.0055950181
 21
-7.5058278975
 31
0.0
  0
LINE
  5
18E
330
1F
100
AcDbEntity
  8
0
  6
Continuous
 62
     7
370
    25
100
AcDbLine
 10
9.0055950181
 20
-7.5058278975
 30
0.0
 11
9.1378310181
 21
-7.5611731975
 31
0.0
  0
LINE
  5
18F
330
1F
100
AcDbEntity
  8
0
  6
Continuous
 62
     7
370
    25
100
AcDbLine
 10
9.1378310181
 20
-7.5611731975
 30
0.0
 11
9.2918742181
 21
-7.6182295975
 31
0.0
  0
LINE
  5
190
330
1F
100
AcDbEntity
  8
0
  6
Continuous
 62
     7
370
    25
100
AcDbLine
 10
9.2918742181
 20
-7.6182295975
 30
0.0
 11
9.4652285181
 21
-7.6743314975
 31
0.0
  0
LINE
  5
191
330
1F
100
AcDbEntity
  8
0
  6
Continuous
 62
     7
370
    25
100
AcDbLine
 10
9.4652285181
 20
-7.6743314975
 30
0.0
 11
9.6622992181
 21
-7.7291180975
 31
0.0
  0
LINE
  5
192
330
1F
100
AcDbEntity
  8
0
  6
Continuous
 62
     7
370
    25
100
AcDbLine
 10
9.6622992181
 20
-7.7291180975
 30
0.0
 11
9.8794022181
 21
-7.7797681975
 31
0.0
  0
LINE
  5
193
330
1F
100
AcDbEntity
  8
0
  6
Continuous
 62
     7
370
    25
100
AcDbLine
 10
9.8794022181
 20
-7.7797681975
 30
0.0
 11
10.1188922181
 21
-7.8251572975
 31
0.0
  0
LINE
  5
194
330
1F
100
AcDbEntity
  8
0
  6
Continuous
 62
     7
370
    25
100
AcDbLine
 10
10.1188922181
 20
-7.8251572975
 30
0.0
 11
10.3784145181
 21
-7.8631713975
 31
0.0
  0
LINE
  5
195
330
1F
100
AcDbEntity
  8
0
  6
Continuous
 62
     7
370
    25
100
AcDbLine
 10
10.3784145181
 20
-7.8631713975
 30
0.0
 11
10.6591500181
 21
-7.8923607975
 31
0.0
  0
LINE
  5
196
330
1F
100
AcDbEntity
  8
0
  6
Continuous
 62
     7
370
    25
100
AcDbLine
 10
10.6591500181
 20
-7.8923607975
 30
0.0
 11
10.9399487181
 21
-7.9099080975
 31
0.0
  0
ARC
  5
197
330
1F
100
AcDbEntity
  8
0
  6
Continuous
 62
     7
370
    25
100
AcDbCircle
 10
-0.0000179693
 20
0.0000187994
 30
0.0
 40
13.49999313463246
100
AcDbArc
 50
324.1319323976
 51
328.3680467399
  0
LINE
  5
198
330
1F
100
AcDbEntity
  8
0
  6
Continuous
 62
     7
370
    25
100
AcDbLine
 10
11.4943430183
 20
-7.0801987201
 30
0.0
 11
11.3706743183
 21
-6.8274897201
 31
0.0
  0
LINE
  5
199
330
1F
100
AcDbEntity
  8
0
  6
Continuous
 62
     7
370
    25
100
AcDbLine
 10
11.3706743183
 20
-6.8274897201
 30
0.0
 11
11.2362740183
 21
-6.5792941201
 31
0.0
  0
LINE
  5
19A
330
1F
100
AcDbEntity
  8
0
  6
Continuous
 62
     7
370
    25
100
AcDbLine
 10
11.2362740183
 20
-6.5792941201
 30
0.0
 11
11.1018387183
 21
-6.3540741201
 31
0.0
  0
LINE
  5
19B
330
1F
100
AcDbEntity
  8
0
  6
Continuous
 62
     7
370
    25
100
AcDbLine
 10
11.1018387183
 20
-6.3540741201
 30
0.0
 11
10.9682557183
 21
-6.1501839201
 31
0.0
  0
LINE
  5
19C
330
1F
100
AcDbEntity
  8
0
  6
Continuous
 62
     7
370
    25
100
AcDbLine
 10
10.9682557183
 20
-6.1501839201
 30
0.0
 11
10.8383795183
 21
-5.9689898201
 31
0.0
  0
LINE
  5
19D
330
1F
100
AcDbEntity
  8
0
  6
Continuous
 62
     7
370
    25
100
AcDbLine
 10
10.8383795183
 20
-5.9689898201
 30
0.0
 11
10.7123475183
 21
-5.8078862201
 31
0.0
  0
LINE
  5
19E
330
1F
100
AcDbEntity
  8
0
  6
Continuous
 62
     7
370
    25
100
AcDbLine
 10
10.7123475183
 20
-5.8078862201
 30
0.0
 11
10.5941764183
 21
-5.6691970201
 31
0.0
  0
LINE
  5
19F
330
1F
100
AcDbEntity
  8
0
  6
Continuous
 62
     7
370
    25
100
AcDbLine
 10
10.5941764183
 20
-5.6691970201
 30
0.0
 11
10.4825133183
 21
-5.5487142201
 31
0.0
  0
LINE
  5
1A0
330
1F
100
AcDbEntity
  8
0
  6
Continuous
 62
     7
370
    25
100
AcDbLine
 10
10.4825133183
 20
-5.5487142201
 30
0.0
 11
10.3807764183
 21
-5.4477237201
 31
0.0
  0
LINE
  5
1A1
330
1F
100
AcDbEntity
  8
0
  6
Continuous
 62
     7
370
    25
100
AcDbLine
 10
10.3807764183
 20
-5.4477237201
 30
0.0
 11
10.2893593183
 21
-5.3642563201
 31
0.0
  0
LINE
  5
1A2
330
1F
100
AcDbEntity
  8
0
  6
Continuous
 62
     7
370
    25
100
AcDbLine
 10
10.2893593183
 20
-5.3642563201
 30
0.0
 11
10.1409004183
 21
-5.2443351201
 31
0.0
  0
LINE
  5
1A3
330
1F
100
AcDbEntity
  8
0
  6
Continuous
 62
     7
370
    25
100
AcDbLine
 10
10.1409004183
 20
-5.2443351201
 30
0.0
 11
10.0492067183
 21
-5.1820221201
 31
0.0
  0
LINE
  5
1A4
330
1F
100
AcDbEntity
  8
0
  6
Continuous
 62
     7
370
    25
100
AcDbLine
 10
10.0492067183
 20
-5.1820221201
 30
0.0
 11
9.8890321183
 21
-5.0979894201
 31
0.0
  0
LINE
  5
1A5
330
1F
100
AcDbEntity
  8
0
  6
Continuous
 62
     7
370
    25
100
AcDbLine
 10
9.8890321183
 20
-5.0979894201
 30
0.0
 11
9.7507058183
 21
-5.0120093201
 31
0.0
  0
LINE
  5
1A6
330
1F
100
AcDbEntity
  8
0
  6
Continuous
 62
     7
370
    25
100
AcDbLine
 10
9.7507058183
 20
-5.0120093201
 30
0.0
 11
9.6367735183
 21
-4.9242598201
 31
0.0
  0
LINE
  5
1A7
330
1F
100
AcDbEntity
  8
0
  6
Continuous
 62
     7
370
    25
100
AcDbLine
 10
9.6367735183
 20
-4.9242598201
 30
0.0
 11
9.5471231183
 21
-4.8366318201
 31
0.0
  0
LINE
  5
1A8
330
1F
100
AcDbEntity
  8
0
  6
Continuous
 62
     7
370
    25
100
AcDbLine
 10
9.5471231183
 20
-4.8366318201
 30
0.0
 11
9.4814961183
 21
-4.7509773201
 31
0.0
  0
LINE
  5
1A9
330
1F
100
AcDbEntity
  8
0
  6
Continuous
 62
     7
370
    25
100
AcDbLine
 10
9.4814961183
 20
-4.7509773201
 30
0.0
 11
9.4395317183
 21
-4.6691603201
 31
0.0
  0
LINE
  5
1AA
330
1F
100
AcDbEntity
  8
0
  6
Continuous
 62
     7
370
    25
100
AcDbLine
 10
9.4395317183
 20
-4.6691603201
 30
0.0
 11
9.4272888183
 21
-4.6302536201
 31
0.0
  0
LINE
  5
1AB
330
1F
100
AcDbEntity
  8
0
  6
Continuous
 62
     7
370
    25
100
AcDbLine
 10
9.4272888183
 20
-4.6302536201
 30
0.0
 11
9.4207623183
 21
-4.5929894201
 31
0.0
  0
LINE
  5
1AC
330
1F
100
AcDbEntity
  8
0
  6
Continuous
 62
     7
370
    25
100
AcDbLine
 10
9.4207623183
 20
-4.5929894201
 30
0.0
 11
9.4199052183
 21
-4.5575865201
 31
0.0
  0
LINE
  5
1AD
330
1F
100
AcDbEntity
  8
0
  6
Continuous
 62
     7
370
    25
100
AcDbLine
 10
9.4199052183
 20
-4.5575865201
 30
0.0
 11
9.4246162183
 21
-4.5242628201
 31
0.0
  0
LINE
  5
1AE
330
1F
100
AcDbEntity
  8
0
  6
Continuous
 62
     7
370
    25
100
AcDbLine
 10
9.4246162183
 20
-4.5242628201
 30
0.0
 11
9.4382029183
 21
-4.4858696201
 31
0.0
  0
LINE
  5
1AF
330
1F
100
AcDbEntity
  8
0
  6
Continuous
 62
     7
370
    25
100
AcDbLine
 10
9.4382029183
 20
-4.4858696201
 30
0.0
 11
9.6012071183
 21
-4.1255294201
 31
0.0
  0
LINE
  5
1B0
330
1F
100
AcDbEntity
  8
0
  6
Continuous
 62
     7
370
    25
100
AcDbLine
 10
9.6012071183
 20
-4.1255294201
 30
0.0
 11
9.6545418183
 21
-3.9990414201
 31
0.0
  0
LINE
  5
1B1
330
1F
100
AcDbEntity
  8
0
  6
Continuous
 62
     7
370
    25
100
AcDbLine
 10
9.6545418183
 20
-3.9990414201
 30
0.0
 11
9.7062690183
 21
-3.8718875201
 31
0.0
  0
LINE
  5
1B2
330
1F
100
AcDbEntity
  8
0
  6
Continuous
 62
     7
370
    25
100
AcDbLine
 10
9.7062690183
 20
-3.8718875201
 30
0.0
 11
9.8458067183
 21
-3.5018271201
 31
0.0
  0
LINE
  5
1B3
330
1F
100
AcDbEntity
  8
0
  6
Continuous
 62
     7
370
    25
100
AcDbLine
 10
9.8458067183
 20
-3.5018271201
 30
0.0
 11
9.8633475183
 21
-3.4650718201
 31
0.0
  0
LINE
  5
1B4
330
1F
100
AcDbEntity
  8
0
  6
Continuous
 62
     7
370
    25
100
AcDbLine
 10
9.8633475183
 20
-3.4650718201
 30
0.0
 11
9.8835797183
 21
-3.4381771201
 31
0.0
  0
LINE
  5
1B5
330
1F
100
AcDbEntity
  8
0
  6
Continuous
 62
     7
370
    25
100
AcDbLine
 10
9.8835797183
 20
-3.4381771201
 30
0.0
 11
9.9092195183
 21
-3.4137496201
 31
0.0
  0
LINE
  5
1B6
330
1F
100
AcDbEntity
  8
0
  6
Continuous
 62
     7
370
    25
100
AcDbLine
 10
9.9092195183
 20
-3.4137496201
 30
0.0
 11
9.9401841183
 21
-3.3920148201
 31
0.0
  0
LINE
  5
1B7
330
1F
100
AcDbEntity
  8
0
  6
Continuous
 62
     7
370
    25
100
AcDbLine
 10
9.9401841183
 20
-3.3920148201
 30
0.0
 11
9.9763524183
 21
-3.3731606201
 31
0.0
  0
LINE
  5
1B8
330
1F
100
AcDbEntity
  8
0
  6
Continuous
 62
     7
370
    25
100
AcDbLine
 10
9.9763524183
 20
-3.3731606201
 30
0.0
 11
10.0638790183
 21
-3.3449805201
 31
0.0
  0
LINE
  5
1B9
330
1F
100
AcDbEntity
  8
0
  6
Continuous
 62
     7
370
    25
100
AcDbLine
 10
10.0638790183
 20
-3.3449805201
 30
0.0
 11
10.1708512183
 21
-3.3308190201
 31
0.0
  0
LINE
  5
1BA
330
1F
100
AcDbEntity
  8
0
  6
Continuous
 62
     7
370
    25
100
AcDbLine
 10
10.1708512183
 20
-3.3308190201
 30
0.0
 11
10.2962060183
 21
-3.3322491201
 31
0.0
  0
LINE
  5
1BB
330
1F
100
AcDbEntity
  8
0
  6
Continuous
 62
     7
370
    25
100
AcDbLine
 10
10.2962060183
 20
-3.3322491201
 30
0.0
 11
10.4388165183
 21
-3.3507631201
 31
0.0
  0
LINE
  5
1BC
330
1F
100
AcDbEntity
  8
0
  6
Continuous
 62
     7
370
    25
100
AcDbLine
 10
10.4388165183
 20
-3.3507631201
 30
0.0
 11
10.5974251183
 21
-3.3877775201
 31
0.0
  0
LINE
  5
1BD
330
1F
100
AcDbEntity
  8
0
  6
Continuous
 62
     7
370
    25
100
AcDbLine
 10
10.5974251183
 20
-3.3877775201
 30
0.0
 11
10.7701058183
 21
-3.4416179201
 31
0.0
  0
LINE
  5
1BE
330
1F
100
AcDbEntity
  8
0
  6
Continuous
 62
     7
370
    25
100
AcDbLine
 10
10.7701058183
 20
-3.4416179201
 30
0.0
 11
10.8790049183
 21
-3.4623932201
 31
0.0
  0
LINE
  5
1BF
330
1F
100
AcDbEntity
  8
0
  6
Continuous
 62
     7
370
    25
100
AcDbLine
 10
10.8790049183
 20
-3.4623932201
 30
0.0
 11
11.0687783183
 21
-3.4825724201
 31
0.0
  0
LINE
  5
1C0
330
1F
100
AcDbEntity
  8
0
  6
Continuous
 62
     7
370
    25
100
AcDbLine
 10
11.0687783183
 20
-3.4825724201
 30
0.0
 11
11.1924403183
 21
-3.4881937201
 31
0.0
  0
LINE
  5
1C1
330
1F
100
AcDbEntity
  8
0
  6
Continuous
 62
     7
370
    25
100
AcDbLine
 10
11.1924403183
 20
-3.4881937201
 30
0.0
 11
11.3357902183
 21
-3.4887215201
 31
0.0
  0
LINE
  5
1C2
330
1F
100
AcDbEntity
  8
0
  6
Continuous
 62
     7
370
    25
100
AcDbLine
 10
11.3357902183
 20
-3.4887215201
 30
0.0
 11
11.4999421183
 21
-3.4824850201
 31
0.0
  0
LINE
  5
1C3
330
1F
100
AcDbEntity
  8
0
  6
Continuous
 62
     7
370
    25
100
AcDbLine
 10
11.4999421183
 20
-3.4824850201
 30
0.0
 11
11.6815699183
 21
-3.4679765201
 31
0.0
  0
LINE
  5
1C4
330
1F
100
AcDbEntity
  8
0
  6
Continuous
 62
     7
370
    25
100
AcDbLine
 10
11.6815699183
 20
-3.4679765201
 30
0.0
 11
11.8846053183
 21
-3.4431771201
 31
0.0
  0
LINE
  5
1C5
330
1F
100
AcDbEntity
  8
0
  6
Continuous
 62
     7
370
    25
100
AcDbLine
 10
11.8846053183
 20
-3.4431771201
 30
0.0
 11
12.1045653183
 21
-3.4068899201
 31
0.0
  0
LINE
  5
1C6
330
1F
100
AcDbEntity
  8
0
  6
Continuous
 62
     7
370
    25
100
AcDbLine
 10
12.1045653183
 20
-3.4068899201
 30
0.0
 11
12.3431949183
 21
-3.3571752201
 31
0.0
  0
LINE
  5
1C7
330
1F
100
AcDbEntity
  8
0
  6
Continuous
 62
     7
370
    25
100
AcDbLine
 10
12.3431949183
 20
-3.3571752201
 30
0.0
 11
12.5975096183
 21
-3.2929807201
 31
0.0
  0
LINE
  5
1C8
330
1F
100
AcDbEntity
  8
0
  6
Continuous
 62
     7
370
    25
100
AcDbLine
 10
12.5975096183
 20
-3.2929807201
 30
0.0
 11
12.8680457183
 21
-3.2125153201
 31
0.0
  0
LINE
  5
1C9
330
1F
100
AcDbEntity
  8
0
  6
Continuous
 62
     7
370
    25
100
AcDbLine
 10
12.8680457183
 20
-3.2125153201
 30
0.0
 11
13.1341850183
 21
-3.1212700201
 31
0.0
  0
ARC
  5
1CA
330
1F
100
AcDbEntity
  8
0
  6
Continuous
 62
     7
370
    25
100
AcDbCircle
 10
-0.0000312068
 20
0.0000060254
 30
0.0
 40
13.5
100
AcDbArc
 50
346.6319372122
 51
350.8680694389
  0
LINE
  5
1CB
330
1F
100
AcDbEntity
  8
0
  6
Continuous
 62
     7
370
    25
100
AcDbLine
 10
13.3288632183
 20
-2.1425563201
 30
0.0
 11
13.1179007183
 21
-1.9564095201
 31
0.0
  0
LINE
  5
1CC
330
1F
100
AcDbEntity
  8
0
  6
Continuous
 62
     7
370
    25
100
AcDbLine
 10
13.1179007183
 20
-1.9564095201
 30
0.0
 11
12.8987507183
 21
-1.7785395201
 31
0.0
  0
LINE
  5
1CD
330
1F
100
AcDbEntity
  8
0
  6
Continuous
 62
     7
370
    25
100
AcDbLine
 10
12.8987507183
 20
-1.7785395201
 30
0.0
 11
12.6883607183
 21
-1.6219095201
 31
0.0
  0
LINE
  5
1CE
330
1F
100
AcDbEntity
  8
0
  6
Continuous
 62
     7
370
    25
100
AcDbLine
 10
12.6883607183
 20
-1.6219095201
 30
0.0
 11
12.4869207183
 21
-1.4846595201
 31
0.0
  0
LINE
  5
1CF
330
1F
100
AcDbEntity
  8
0
  6
Continuous
 62
     7
370
    25
100
AcDbLine
 10
12.4869207183
 20
-1.4846595201
 30
0.0
 11
12.2975907183
 21
-1.3669595201
 31
0.0
  0
LINE
  5
1D0
330
1F
100
AcDbEntity
  8
0
  6
Continuous
 62
     7
370
    25
100
AcDbLine
 10
12.2975907183
 20
-1.3669595201
 30
0.0
 11
12.1195007183
 21
-1.2663495201
 31
0.0
  0
LINE
  5
1D1
330
1F
100
AcDbEntity
  8
0
  6
Continuous
 62
     7
370
    25
100
AcDbLine
 10
12.1195007183
 20
-1.2663495201
 30
0.0
 11
11.9572507183
 21
-1.1834395201
 31
0.0
  0
LINE
  5
1D2
330
1F
100
AcDbEntity
  8
0
  6
Continuous
 62
     7
370
    25
100
AcDbLine
 10
11.9572507183
 20
-1.1834395201
 30
0.0
 11
11.8079807183
 21
-1.1148595201
 31
0.0
  0
LINE
  5
1D3
330
1F
100
AcDbEntity
  8
0
  6
Continuous
 62
     7
370
    25
100
AcDbLine
 10
11.8079807183
 20
-1.1148595201
 30
0.0
 11
11.6753407183
 21
-1.0604895201
 31
0.0
  0
LINE
  5
1D4
330
1F
100
AcDbEntity
  8
0
  6
Continuous
 62
     7
370
    25
100
AcDbLine
 10
11.6753407183
 20
-1.0604895201
 30
0.0
 11
11.5589407183
 21
-1.0183595201
 31
0.0
  0
LINE
  5
1D5
330
1F
100
AcDbEntity
  8
0
  6
Continuous
 62
     7
370
    25
100
AcDbLine
 10
11.5589407183
 20
-1.0183595201
 30
0.0
 11
11.3758907183
 21
-0.9643795201
 31
0.0
  0
LINE
  5
1D6
330
1F
100
AcDbEntity
  8
0
  6
Continuous
 62
     7
370
    25
100
AcDbLine
 10
11.3758907183
 20
-0.9643795201
 30
0.0
 11
11.2673307183
 21
-0.9418995201
 31
0.0
  0
LINE
  5
1D7
330
1F
100
AcDbEntity
  8
0
  6
Continuous
 62
     7
370
    25
100
AcDbLine
 10
11.2673307183
 20
-0.9418995201
 30
0.0
 11
11.0871907183
 21
-0.9255595201
 31
0.0
  0
LINE
  5
1D8
330
1F
100
AcDbEntity
  8
0
  6
Continuous
 62
     7
370
    25
100
AcDbLine
 10
11.0871907183
 20
-0.9255595201
 30
0.0
 11
10.9264907183
 21
-0.8990595201
 31
0.0
  0
LINE
  5
1D9
330
1F
100
AcDbEntity
  8
0
  6
Continuous
 62
     7
370
    25
100
AcDbLine
 10
10.9264907183
 20
-0.8990595201
 30
0.0
 11
10.7876507183
 21
-0.8615895201
 31
0.0
  0
LINE
  5
1DA
330
1F
100
AcDbEntity
  8
0
  6
Continuous
 62
     7
370
    25
100
AcDbLine
 10
10.7876507183
 20
-0.8615895201
 30
0.0
 11
10.6712907183
 21
-0.8149395201
 31
0.0
  0
LINE
  5
1DB
330
1F
100
AcDbEntity
  8
0
  6
Continuous
 62
     7
370
    25
100
AcDbLine
 10
10.6712907183
 20
-0.8149395201
 30
0.0
 11
10.5778807183
 21
-0.7609195201
 31
0.0
  0
LINE
  5
1DC
330
1F
100
AcDbEntity
  8
0
  6
Continuous
 62
     7
370
    25
100
AcDbLine
 10
10.5778807183
 20
-0.7609195201
 30
0.0
 11
10.5078007183
 21
-0.7013895201
 31
0.0
  0
LINE
  5
1DD
330
1F
100
AcDbEntity
  8
0
  6
Continuous
 62
     7
370
    25
100
AcDbLine
 10
10.5078007183
 20
-0.7013895201
 30
0.0
 11
10.4816007183
 21
-0.6701295201
 31
0.0
  0
LINE
  5
1DE
330
1F
100
AcDbEntity
  8
0
  6
Continuous
 62
     7
370
    25
100
AcDbLine
 10
10.4816007183
 20
-0.6701295201
 30
0.0
 11
10.4613107183
 21
-0.6381995201
 31
0.0
  0
LINE
  5
1DF
330
1F
100
AcDbEntity
  8
0
  6
Continuous
 62
     7
370
    25
100
AcDbLine
 10
10.4613107183
 20
-0.6381995201
 30
0.0
 11
10.4469707183
 21
-0.6058195201
 31
0.0
  0
LINE
  5
1E0
330
1F
100
AcDbEntity
  8
0
  6
Continuous
 62
     7
370
    25
100
AcDbLine
 10
10.4469707183
 20
-0.6058195201
 30
0.0
 11
10.4385707183
 21
-0.5732295201
 31
0.0
  0
LINE
  5
1E1
330
1F
100
AcDbEntity
  8
0
  6
Continuous
 62
     7
370
    25
100
AcDbLine
 10
10.4385707183
 20
-0.5732295201
 30
0.0
 11
10.4364307183
 21
-0.5325595201
 31
0.0
  0
LINE
  5
1E2
330
1F
100
AcDbEntity
  8
0
  6
Continuous
 62
     7
370
    25
100
AcDbLine
 10
10.4364307183
 20
-0.5325595201
 30
0.0
 11
10.4491307183
 21
-0.1372695201
 31
0.0
  0
LINE
  5
1E3
330
1F
100
AcDbEntity
  8
0
  6
Continuous
 62
     7
370
    25
100
AcDbLine
 10
10.4491307183
 20
-0.1372695201
 30
0.0
 11
10.4500007183
 21
0.0000004799
 31
0.0
  0
LINE
  5
1E4
330
1F
100
AcDbEntity
  8
0
  6
Continuous
 62
     7
370
    25
100
AcDbLine
 10
10.4500007183
 20
0.0000004799
 30
0.0
 11
10.4491307183
 21
0.1372704799
 31
0.0
  0
LINE
  5
1E5
330
1F
100
AcDbEntity
  8
0
  6
Continuous
 62
     7
370
    25
100
AcDbLine
 10
10.4491307183
 20
0.1372704799
 30
0.0
 11
10.4364307183
 21
0.5325604799
 31
0.0
  0
LINE
  5
1E6
330
1F
100
AcDbEntity
  8
0
  6
Continuous
 62
     7
370
    25
100
AcDbLine
 10
10.4364307183
 20
0.5325604799
 30
0.0
 11
10.4385707183
 21
0.5732304799
 31
0.0
  0
LINE
  5
1E7
330
1F
100
AcDbEntity
  8
0
  6
Continuous
 62
     7
370
    25
100
AcDbLine
 10
10.4385707183
 20
0.5732304799
 30
0.0
 11
10.4469707183
 21
0.6058204799
 31
0.0
  0
LINE
  5
1E8
330
1F
100
AcDbEntity
  8
0
  6
Continuous
 62
     7
370
    25
100
AcDbLine
 10
10.4469707183
 20
0.6058204799
 30
0.0
 11
10.4613107183
 21
0.6382004799
 31
0.0
  0
LINE
  5
1E9
330
1F
100
AcDbEntity
  8
0
  6
Continuous
 62
     7
370
    25
100
AcDbLine
 10
10.4613107183
 20
0.6382004799
 30
0.0
 11
10.4816007183
 21
0.6701304799
 31
0.0
  0
LINE
  5
1EA
330
1F
100
AcDbEntity
  8
0
  6
Continuous
 62
     7
370
    25
100
AcDbLine
 10
10.4816007183
 20
0.6701304799
 30
0.0
 11
10.5078007183
 21
0.7013904799
 31
0.0
  0
LINE
  5
1EB
330
1F
100
AcDbEntity
  8
0
  6
Continuous
 62
     7
370
    25
100
AcDbLine
 10
10.5078007183
 20
0.7013904799
 30
0.0
 11
10.5778807183
 21
0.7609204799
 31
0.0
  0
LINE
  5
1EC
330
1F
100
AcDbEntity
  8
0
  6
Continuous
 62
     7
370
    25
100
AcDbLine
 10
10.5778807183
 20
0.7609204799
 30
0.0
 11
10.6712907183
 21
0.8149404799
 31
0.0
  0
LINE
  5
1ED
330
1F
100
AcDbEntity
  8
0
  6
Continuous
 62
     7
370
    25
100
AcDbLine
 10
10.6712907183
 20
0.8149404799
 30
0.0
 11
10.7876507183
 21
0.8615904799
 31
0.0
  0
LINE
  5
1EE
330
1F
100
AcDbEntity
  8
0
  6
Continuous
 62
     7
370
    25
100
AcDbLine
 10
10.7876507183
 20
0.8615904799
 30
0.0
 11
10.9264907183
 21
0.8990604799
 31
0.0
  0
LINE
  5
1EF
330
1F
100
AcDbEntity
  8
0
  6
Continuous
 62
     7
370
    25
100
AcDbLine
 10
10.9264907183
 20
0.8990604799
 30
0.0
 11
11.0871907183
 21
0.9255604799
 31
0.0
  0
LINE
  5
1F0
330
1F
100
AcDbEntity
  8
0
  6
Continuous
 62
     7
370
    25
100
AcDbLine
 10
11.0871907183
 20
0.9255604799
 30
0.0
 11
11.2673307183
 21
0.9419004799
 31
0.0
  0
LINE
  5
1F1
330
1F
100
AcDbEntity
  8
0
  6
Continuous
 62
     7
370
    25
100
AcDbLine
 10
11.2673307183
 20
0.9419004799
 30
0.0
 11
11.3758907183
 21
0.9643804799
 31
0.0
  0
LINE
  5
1F2
330
1F
100
AcDbEntity
  8
0
  6
Continuous
 62
     7
370
    25
100
AcDbLine
 10
11.3758907183
 20
0.9643804799
 30
0.0
 11
11.5589407183
 21
1.0183604799
 31
0.0
  0
LINE
  5
1F3
330
1F
100
AcDbEntity
  8
0
  6
Continuous
 62
     7
370
    25
100
AcDbLine
 10
11.5589407183
 20
1.0183604799
 30
0.0
 11
11.6753407183
 21
1.0604904799
 31
0.0
  0
LINE
  5
1F4
330
1F
100
AcDbEntity
  8
0
  6
Continuous
 62
     7
370
    25
100
AcDbLine
 10
11.6753407183
 20
1.0604904799
 30
0.0
 11
11.8079807183
 21
1.1148604799
 31
0.0
  0
LINE
  5
1F5
330
1F
100
AcDbEntity
  8
0
  6
Continuous
 62
     7
370
    25
100
AcDbLine
 10
11.8079807183
 20
1.1148604799
 30
0.0
 11
11.9572507183
 21
1.1834404799
 31
0.0
  0
LINE
  5
1F6
330
1F
100
AcDbEntity
  8
0
  6
Continuous
 62
     7
370
    25
100
AcDbLine
 10
11.9572507183
 20
1.1834404799
 30
0.0
 11
12.1195007183
 21
1.2663504799
 31
0.0
  0
LINE
  5
1F7
330
1F
100
AcDbEntity
  8
0
  6
Continuous
 62
     7
370
    25
100
AcDbLine
 10
12.1195007183
 20
1.2663504799
 30
0.0
 11
12.2975907183
 21
1.3669604799
 31
0.0
  0
LINE
  5
1F8
330
1F
100
AcDbEntity
  8
0
  6
Continuous
 62
     7
370
    25
100
AcDbLine
 10
12.2975907183
 20
1.3669604799
 30
0.0
 11
12.4869207183
 21
1.4846604799
 31
0.0
  0
LINE
  5
1F9
330
1F
100
AcDbEntity
  8
0
  6
Continuous
 62
     7
370
    25
100
AcDbLine
 10
12.4869207183
 20
1.4846604799
 30
0.0
 11
12.6883607183
 21
1.6219104799
 31
0.0
  0
LINE
  5
1FA
330
1F
100
AcDbEntity
  8
0
  6
Continuous
 62
     7
370
    25
100
AcDbLine
 10
12.6883607183
 20
1.6219104799
 30
0.0
 11
12.8987507183
 21
1.7785404799
 31
0.0
  0
LINE
  5
1FB
330
1F
100
AcDbEntity
  8
0
  6
Continuous
 62
     7
370
    25
100
AcDbLine
 10
12.8987507183
 20
1.7785404799
 30
0.0
 11
13.1179007183
 21
1.9564104799
 31
0.0
  0
LINE
  5
1FC
330
1F
100
AcDbEntity
  8
0
  6
Continuous
 62
     7
370
    25
100
AcDbLine
 10
13.1179007183
 20
1.9564104799
 30
0.0
 11
13.3288632183
 21
2.1425572799
 31
0.0
  0
ARC
  5
1FD
330
1F
100
AcDbEntity
  8
0
  6
Continuous
 62
     7
370
    25
100
AcDbCircle
 10
-0.0000312068
 20
-0.0000050655
 30
0.0
 40
13.5
100
AcDbArc
 50
9.1319305611
 51
13.3680627878
  0
LINE
  5
1FE
330
1F
100
AcDbEntity
  8
0
  6
Continuous
 62
     7
370
    25
100
AcDbLine
 10
13.1341850183
 20
3.1212709799
 30
0.0
 11
12.8680457183
 21
3.2125162799
 31
0.0
  0
LINE
  5
1FF
330
1F
100
AcDbEntity
  8
0
  6
Continuous
 62
     7
370
    25
100
AcDbLine
 10
12.8680457183
 20
3.2125162799
 30
0.0
 11
12.5975096183
 21
3.2929816799
 31
0.0
  0
LINE
  5
200
330
1F
100
AcDbEntity
  8
0
  6
Continuous
 62
     7
370
    25
100
AcDbLine
 10
12.5975096183
 20
3.2929816799
 30
0.0
 11
12.3431949183
 21
3.3571761799
 31
0.0
  0
LINE
  5
201
330
1F
100
AcDbEntity
  8
0
  6
Continuous
 62
     7
370
    25
100
AcDbLine
 10
12.3431949183
 20
3.3571761799
 30
0.0
 11
12.1045653183
 21
3.4068908799
 31
0.0
  0
LINE
  5
202
330
1F
100
AcDbEntity
  8
0
  6
Continuous
 62
     7
370
    25
100
AcDbLine
 10
12.1045653183
 20
3.4068908799
 30
0.0
 11
11.8846053183
 21
3.4431780799
 31
0.0
  0
LINE
  5
203
330
1F
100
AcDbEntity
  8
0
  6
Continuous
 62
     7
370
    25
100
AcDbLine
 10
11.8846053183
 20
3.4431780799
 30
0.0
 11
11.6815699183
 21
3.4679774799
 31
0.0
  0
LINE
  5
204
330
1F
100
AcDbEntity
  8
0
  6
Continuous
 62
     7
370
    25
100
AcDbLine
 10
11.6815699183
 20
3.4679774799
 30
0.0
 11
11.4999421183
 21
3.4824859799
 31
0.0
  0
LINE
  5
205
330
1F
100
AcDbEntity
  8
0
  6
Continuous
 62
     7
370
    25
100
AcDbLine
 10
11.4999421183
 20
3.4824859799
 30
0.0
 11
11.3357902183
 21
3.4887224799
 31
0.0
  0
LINE
  5
206
330
1F
100
AcDbEntity
  8
0
  6
Continuous
 62
     7
370
    25
100
AcDbLine
 10
11.3357902183
 20
3.4887224799
 30
0.0
 11
11.1924403183
 21
3.4881946799
 31
0.0
  0
LINE
  5
207
330
1F
100
AcDbEntity
  8
0
  6
Continuous
 62
     7
370
    25
100
AcDbLine
 10
11.1924403183
 20
3.4881946799
 30
0.0
 11
11.0687783183
 21
3.4825733799
 31
0.0
  0
LINE
  5
208
330
1F
100
AcDbEntity
  8
0
  6
Continuous
 62
     7
370
    25
100
AcDbLine
 10
11.0687783183
 20
3.4825733799
 30
0.0
 11
10.8790049183
 21
3.4623941799
 31
0.0
  0
LINE
  5
209
330
1F
100
AcDbEntity
  8
0
  6
Continuous
 62
     7
370
    25
100
AcDbLine
 10
10.8790049183
 20
3.4623941799
 30
0.0
 11
10.7701058183
 21
3.4416188799
 31
0.0
  0
LINE
  5
20A
330
1F
100
AcDbEntity
  8
0
  6
Continuous
 62
     7
370
    25
100
AcDbLine
 10
10.7701058183
 20
3.4416188799
 30
0.0
 11
10.5974251183
 21
3.3877784799
 31
0.0
  0
LINE
  5
20B
330
1F
100
AcDbEntity
  8
0
  6
Continuous
 62
     7
370
    25
100
AcDbLine
 10
10.5974251183
 20
3.3877784799
 30
0.0
 11
10.4388165183
 21
3.3507640799
 31
0.0
  0
LINE
  5
20C
330
1F
100
AcDbEntity
  8
0
  6
Continuous
 62
     7
370
    25
100
AcDbLine
 10
10.4388165183
 20
3.3507640799
 30
0.0
 11
10.2962060183
 21
3.3322500799
 31
0.0
  0
LINE
  5
20D
330
1F
100
AcDbEntity
  8
0
  6
Continuous
 62
     7
370
    25
100
AcDbLine
 10
10.2962060183
 20
3.3322500799
 30
0.0
 11
10.1708512183
 21
3.3308199799
 31
0.0
  0
LINE
  5
20E
330
1F
100
AcDbEntity
  8
0
  6
Continuous
 62
     7
370
    25
100
AcDbLine
 10
10.1708512183
 20
3.3308199799
 30
0.0
 11
10.0638790183
 21
3.3449814799
 31
0.0
  0
LINE
  5
20F
330
1F
100
AcDbEntity
  8
0
  6
Continuous
 62
     7
370
    25
100
AcDbLine
 10
10.0638790183
 20
3.3449814799
 30
0.0
 11
9.9763524183
 21
3.3731615799
 31
0.0
  0
LINE
  5
210
330
1F
100
AcDbEntity
  8
0
  6
Continuous
 62
     7
370
    25
100
AcDbLine
 10
9.9763524183
 20
3.3731615799
 30
0.0
 11
9.9401841183
 21
3.3920157799
 31
0.0
  0
LINE
  5
211
330
1F
100
AcDbEntity
  8
0
  6
Continuous
 62
     7
370
    25
100
AcDbLine
 10
9.9401841183
 20
3.3920157799
 30
0.0
 11
9.9092195183
 21
3.4137505799
 31
0.0
  0
LINE
  5
212
330
1F
100
AcDbEntity
  8
0
  6
Continuous
 62
     7
370
    25
100
AcDbLine
 10
9.9092195183
 20
3.4137505799
 30
0.0
 11
9.8835797183
 21
3.4381780799
 31
0.0
  0
LINE
  5
213
330
1F
100
AcDbEntity
  8
0
  6
Continuous
 62
     7
370
    25
100
AcDbLine
 10
9.8835797183
 20
3.4381780799
 30
0.0
 11
9.8633475183
 21
3.4650727799
 31
0.0
  0
LINE
  5
214
330
1F
100
AcDbEntity
  8
0
  6
Continuous
 62
     7
370
    25
100
AcDbLine
 10
9.8633475183
 20
3.4650727799
 30
0.0
 11
9.8458067183
 21
3.5018280799
 31
0.0
  0
LINE
  5
215
330
1F
100
AcDbEntity
  8
0
  6
Continuous
 62
     7
370
    25
100
AcDbLine
 10
9.8458067183
 20
3.5018280799
 30
0.0
 11
9.7062690183
 21
3.8718884799
 31
0.0
  0
LINE
  5
216
330
1F
100
AcDbEntity
  8
0
  6
Continuous
 62
     7
370
    25
100
AcDbLine
 10
9.7062690183
 20
3.8718884799
 30
0.0
 11
9.6545418183
 21
3.9990423799
 31
0.0
  0
LINE
  5
217
330
1F
100
AcDbEntity
  8
0
  6
Continuous
 62
     7
370
    25
100
AcDbLine
 10
9.6545418183
 20
3.9990423799
 30
0.0
 11
9.6012071183
 21
4.1255303799
 31
0.0
  0
LINE
  5
218
330
1F
100
AcDbEntity
  8
0
  6
Continuous
 62
     7
370
    25
100
AcDbLine
 10
9.6012071183
 20
4.1255303799
 30
0.0
 11
9.4382029183
 21
4.4858705799
 31
0.0
  0
LINE
  5
219
330
1F
100
AcDbEntity
  8
0
  6
Continuous
 62
     7
370
    25
100
AcDbLine
 10
9.4382029183
 20
4.4858705799
 30
0.0
 11
9.4246162183
 21
4.5242637799
 31
0.0
  0
LINE
  5
21A
330
1F
100
AcDbEntity
  8
0
  6
Continuous
 62
     7
370
    25
100
AcDbLine
 10
9.4246162183
 20
4.5242637799
 30
0.0
 11
9.4199052183
 21
4.5575874799
 31
0.0
  0
LINE
  5
21B
330
1F
100
AcDbEntity
  8
0
  6
Continuous
 62
     7
370
    25
100
AcDbLine
 10
9.4199052183
 20
4.5575874799
 30
0.0
 11
9.4207623183
 21
4.5929903799
 31
0.0
  0
LINE
  5
21C
330
1F
100
AcDbEntity
  8
0
  6
Continuous
 62
     7
370
    25
100
AcDbLine
 10
9.4207623183
 20
4.5929903799
 30
0.0
 11
9.4272888183
 21
4.6302545799
 31
0.0
  0
LINE
  5
21D
330
1F
100
AcDbEntity
  8
0
  6
Continuous
 62
     7
370
    25
100
AcDbLine
 10
9.4272888183
 20
4.6302545799
 30
0.0
 11
9.4395317183
 21
4.6691612799
 31
0.0
  0
LINE
  5
21E
330
1F
100
AcDbEntity
  8
0
  6
Continuous
 62
     7
370
    25
100
AcDbLine
 10
9.4395317183
 20
4.6691612799
 30
0.0
 11
9.4814961183
 21
4.7509782799
 31
0.0
  0
LINE
  5
21F
330
1F
100
AcDbEntity
  8
0
  6
Continuous
 62
     7
370
    25
100
AcDbLine
 10
9.4814961183
 20
4.7509782799
 30
0.0
 11
9.5471231183
 21
4.8366327799
 31
0.0
  0
LINE
  5
220
330
1F
100
AcDbEntity
  8
0
  6
Continuous
 62
     7
370
    25
100
AcDbLine
 10
9.5471231183
 20
4.8366327799
 30
0.0
 11
9.6367735183
 21
4.9242607799
 31
0.0
  0
LINE
  5
221
330
1F
100
AcDbEntity
  8
0
  6
Continuous
 62
     7
370
    25
100
AcDbLine
 10
9.6367735183
 20
4.9242607799
 30
0.0
 11
9.7507058183
 21
5.0120102799
 31
0.0
  0
LINE
  5
222
330
1F
100
AcDbEntity
  8
0
  6
Continuous
 62
     7
370
    25
100
AcDbLine
 10
9.7507058183
 20
5.0120102799
 30
0.0
 11
9.8890321183
 21
5.0979903799
 31
0.0
  0
LINE
  5
223
330
1F
100
AcDbEntity
  8
0
  6
Continuous
 62
     7
370
    25
100
AcDbLine
 10
9.8890321183
 20
5.0979903799
 30
0.0
 11
10.0492067183
 21
5.1820230799
 31
0.0
  0
LINE
  5
224
330
1F
100
AcDbEntity
  8
0
  6
Continuous
 62
     7
370
    25
100
AcDbLine
 10
10.0492067183
 20
5.1820230799
 30
0.0
 11
10.1409004183
 21
5.2443360799
 31
0.0
  0
LINE
  5
225
330
1F
100
AcDbEntity
  8
0
  6
Continuous
 62
     7
370
    25
100
AcDbLine
 10
10.1409004183
 20
5.2443360799
 30
0.0
 11
10.2893593183
 21
5.3642572799
 31
0.0
  0
LINE
  5
226
330
1F
100
AcDbEntity
  8
0
  6
Continuous
 62
     7
370
    25
100
AcDbLine
 10
10.2893593183
 20
5.3642572799
 30
0.0
 11
10.3807764183
 21
5.4477246799
 31
0.0
  0
LINE
  5
227
330
1F
100
AcDbEntity
  8
0
  6
Continuous
 62
     7
370
    25
100
AcDbLine
 10
10.3807764183
 20
5.4477246799
 30
0.0
 11
10.4825133183
 21
5.5487151799
 31
0.0
  0
LINE
  5
228
330
1F
100
AcDbEntity
  8
0
  6
Continuous
 62
     7
370
    25
100
AcDbLine
 10
10.4825133183
 20
5.5487151799
 30
0.0
 11
10.5941764183
 21
5.6691979799
 31
0.0
  0
LINE
  5
229
330
1F
100
AcDbEntity
  8
0
  6
Continuous
 62
     7
370
    25
100
AcDbLine
 10
10.5941764183
 20
5.6691979799
 30
0.0
 11
10.7123475183
 21
5.8078871799
 31
0.0
  0
LINE
  5
22A
330
1F
100
AcDbEntity
  8
0
  6
Continuous
 62
     7
370
    25
100
AcDbLine
 10
10.7123475183
 20
5.8078871799
 30
0.0
 11
10.8383795183
 21
5.9689907799
 31
0.0
  0
LINE
  5
22B
330
1F
100
AcDbEntity
  8
0
  6
Continuous
 62
     7
370
    25
100
AcDbLine
 10
10.8383795183
 20
5.9689907799
 30
0.0
 11
10.9682557183
 21
6.1501848799
 31
0.0
  0
LINE
  5
22C
330
1F
100
AcDbEntity
  8
0
  6
Continuous
 62
     7
370
    25
100
AcDbLine
 10
10.9682557183
 20
6.1501848799
 30
0.0
 11
11.1018387183
 21
6.3540750799
 31
0.0
  0
LINE
  5
22D
330
1F
100
AcDbEntity
  8
0
  6
Continuous
 62
     7
370
    25
100
AcDbLine
 10
11.1018387183
 20
6.3540750799
 30
0.0
 11
11.2362740183
 21
6.5792950799
 31
0.0
  0
LINE
  5
22E
330
1F
100
AcDbEntity
  8
0
  6
Continuous
 62
     7
370
    25
100
AcDbLine
 10
11.2362740183
 20
6.5792950799
 30
0.0
 11
11.3706743183
 21
6.8274906799
 31
0.0
  0
LINE
  5
22F
330
1F
100
AcDbEntity
  8
0
  6
Continuous
 62
     7
370
    25
100
AcDbLine
 10
11.3706743183
 20
6.8274906799
 30
0.0
 11
11.4943430183
 21
7.0801996799
 31
0.0
  0
ARC
  5
230
330
1F
100
AcDbEntity
  8
0
  6
Continuous
 62
     7
370
    25
100
AcDbCircle
 10
-0.0000179692
 20
-0.0000264976
 30
0.0
 40
13.49999767538118
100
AcDbArc
 50
31.631984547
 51
35.8681175671
  0
LINE
  5
231
330
1F
100
AcDbEntity
  8
0
  6
Continuous
 62
     7
370
    25
100
AcDbLine
 10
10.9399455
 20
7.9099126
 30
0.0
 11
10.6591468
 21
7.8923653
 31
0.0
  0
LINE
  5
232
330
1F
100
AcDbEntity
  8
0
  6
Continuous
 62
     7
370
    25
100
AcDbLine
 10
10.6591468
 20
7.8923653
 30
0.0
 11
10.3784113
 21
7.8631759
 31
0.0
  0
LINE
  5
233
330
1F
100
AcDbEntity
  8
0
  6
Continuous
 62
     7
370
    25
100
AcDbLine
 10
10.3784113
 20
7.8631759
 30
0.0
 11
10.118889
 21
7.8251618
 31
0.0
  0
LINE
  5
234
330
1F
100
AcDbEntity
  8
0
  6
Continuous
 62
     7
370
    25
100
AcDbLine
 10
10.118889
 20
7.8251618
 30
0.0
 11
9.879399
 21
7.7797727
 31
0.0
  0
LINE
  5
235
330
1F
100
AcDbEntity
  8
0
  6
Continuous
 62
     7
370
    25
100
AcDbLine
 10
9.879399
 20
7.7797727
 30
0.0
 11
9.662296
 21
7.7291226
 31
0.0
  0
LINE
  5
236
330
1F
100
AcDbEntity
  8
0
  6
Continuous
 62
     7
370
    25
100
AcDbLine
 10
9.662296
 20
7.7291226
 30
0.0
 11
9.4652253
 21
7.674336
 31
0.0
  0
LINE
  5
237
330
1F
100
AcDbEntity
  8
0
  6
Continuous
 62
     7
370
    25
100
AcDbLine
 10
9.4652253
 20
7.674336
 30
0.0
 11
9.291871
 21
7.6182341
 31
0.0
  0
LINE
  5
238
330
1F
100
AcDbEntity
  8
0
  6
Continuous
 62
     7
370
    25
100
AcDbLine
 10
9.291871
 20
7.6182341
 30
0.0
 11
9.1378278
 21
7.5611777
 31
0.0
  0
LINE
  5
239
330
1F
100
AcDbEntity
  8
0
  6
Continuous
 62
     7
370
    25
100
AcDbLine
 10
9.1378278
 20
7.5611777
 30
0.0
 11
9.0055918
 21
7.5058324
 31
0.0
  0
LINE
  5
23A
330
1F
100
AcDbEntity
  8
0
  6
Continuous
 62
     7
370
    25
100
AcDbLine
 10
9.0055918
 20
7.5058324
 30
0.0
 11
8.8934941
 21
7.4533156
 31
0.0
  0
LINE
  5
23B
330
1F
100
AcDbEntity
  8
0
  6
Continuous
 62
     7
370
    25
100
AcDbLine
 10
8.8934941
 20
7.4533156
 30
0.0
 11
8.7258886
 21
7.3620493
 31
0.0
  0
LINE
  5
23C
330
1F
100
AcDbEntity
  8
0
  6
Continuous
 62
     7
370
    25
100
AcDbLine
 10
8.7258886
 20
7.3620493
 30
0.0
 11
8.6332293
 21
7.3011816
 31
0.0
  0
LINE
  5
23D
330
1F
100
AcDbEntity
  8
0
  6
Continuous
 62
     7
370
    25
100
AcDbLine
 10
8.6332293
 20
7.3011816
 30
0.0
 11
8.494297
 21
7.1853575
 31
0.0
  0
LINE
  5
23E
330
1F
100
AcDbEntity
  8
0
  6
Continuous
 62
     7
370
    25
100
AcDbLine
 10
8.494297
 20
7.1853575
 30
0.0
 11
8.3619266
 21
7.0904638
 31
0.0
  0
LINE
  5
23F
330
1F
100
AcDbEntity
  8
0
  6
Continuous
 62
     7
370
    25
100
AcDbLine
 10
8.3619266
 20
7.0904638
 30
0.0
 11
8.2372566
 21
7.0187843
 31
0.0
  0
LINE
  5
240
330
1F
100
AcDbEntity
  8
0
  6
Continuous
 62
     7
370
    25
100
AcDbLine
 10
8.2372566
 20
7.0187843
 30
0.0
 11
8.1219911
 21
6.9694919
 31
0.0
  0
LINE
  5
241
330
1F
100
AcDbEntity
  8
0
  6
Continuous
 62
     7
370
    25
100
AcDbLine
 10
8.1219911
 20
6.9694919
 30
0.0
 11
8.0177424
 21
6.941639
 31
0.0
  0
LINE
  5
242
330
1F
100
AcDbEntity
  8
0
  6
Continuous
 62
     7
370
    25
100
AcDbLine
 10
8.0177424
 20
6.941639
 30
0.0
 11
7.9260943
 21
6.934179
 31
0.0
  0
LINE
  5
243
330
1F
100
AcDbEntity
  8
0
  6
Continuous
 62
     7
370
    25
100
AcDbLine
 10
7.9260943
 20
6.934179
 30
0.0
 11
7.8854639
 21
6.937757
 31
0.0
  0
LINE
  5
244
330
1F
100
AcDbEntity
  8
0
  6
Continuous
 62
     7
370
    25
100
AcDbLine
 10
7.8854639
 20
6.937757
 30
0.0
 11
7.8485388
 21
6.9459877
 31
0.0
  0
LINE
  5
245
330
1F
100
AcDbEntity
  8
0
  6
Continuous
 62
     7
370
    25
100
AcDbLine
 10
7.8485388
 20
6.9459877
 30
0.0
 11
7.8155028
 21
6.9587439
 31
0.0
  0
LINE
  5
246
330
1F
100
AcDbEntity
  8
0
  6
Continuous
 62
     7
370
    25
100
AcDbLine
 10
7.8155028
 20
6.9587439
 30
0.0
 11
7.7865185
 21
6.9758488
 31
0.0
  0
LINE
  5
247
330
1F
100
AcDbEntity
  8
0
  6
Continuous
 62
     7
370
    25
100
AcDbLine
 10
7.7865185
 20
6.9758488
 30
0.0
 11
7.7562472
 21
7.0030936
 31
0.0
  0
LINE
  5
248
330
1F
100
AcDbEntity
  8
0
  6
Continuous
 62
     7
370
    25
100
AcDbLine
 10
7.7562472
 20
7.0030936
 30
0.0
 11
7.4857152
 21
7.2915861
 31
0.0
  0
LINE
  5
249
330
1F
100
AcDbEntity
  8
0
  6
Continuous
 62
     7
370
    25
100
AcDbLine
 10
7.4857152
 20
7.2915861
 30
0.0
 11
7.3892659
 21
7.3892659
 31
0.0
  0
LINE
  5
24A
330
1F
100
AcDbEntity
  8
0
  6
Continuous
 62
     7
370
    25
100
AcDbLine
 10
7.3892659
 20
7.3892659
 30
0.0
 11
7.2915861
 21
7.4857152
 31
0.0
  0
LINE
  5
24B
330
1F
100
AcDbEntity
  8
0
  6
Continuous
 62
     7
370
    25
100
AcDbLine
 10
7.2915861
 20
7.4857152
 30
0.0
 11
7.0030936
 21
7.7562472
 31
0.0
  0
LINE
  5
24C
330
1F
100
AcDbEntity
  8
0
  6
Continuous
 62
     7
370
    25
100
AcDbLine
 10
7.0030936
 20
7.7562472
 30
0.0
 11
6.9758488
 21
7.7865185
 31
0.0
  0
LINE
  5
24D
330
1F
100
AcDbEntity
  8
0
  6
Continuous
 62
     7
370
    25
100
AcDbLine
 10
6.9758488
 20
7.7865185
 30
0.0
 11
6.9587439
 21
7.8155028
 31
0.0
  0
LINE
  5
24E
330
1F
100
AcDbEntity
  8
0
  6
Continuous
 62
     7
370
    25
100
AcDbLine
 10
6.9587439
 20
7.8155028
 30
0.0
 11
6.9459877
 21
7.8485388
 31
0.0
  0
LINE
  5
24F
330
1F
100
AcDbEntity
  8
0
  6
Continuous
 62
     7
370
    25
100
AcDbLine
 10
6.9459877
 20
7.8485388
 30
0.0
 11
6.937757
 21
7.8854639
 31
0.0
  0
LINE
  5
250
330
1F
100
AcDbEntity
  8
0
  6
Continuous
 62
     7
370
    25
100
AcDbLine
 10
6.937757
 20
7.8854639
 30
0.0
 11
6.934179
 21
7.9260943
 31
0.0
  0
LINE
  5
251
330
1F
100
AcDbEntity
  8
0
  6
Continuous
 62
     7
370
    25
100
AcDbLine
 10
6.934179
 20
7.9260943
 30
0.0
 11
6.941639
 21
8.0177424
 31
0.0
  0
LINE
  5
252
330
1F
100
AcDbEntity
  8
0
  6
Continuous
 62
     7
370
    25
100
AcDbLine
 10
6.941639
 20
8.0177424
 30
0.0
 11
6.9694919
 21
8.1219911
 31
0.0
  0
LINE
  5
253
330
1F
100
AcDbEntity
  8
0
  6
Continuous
 62
     7
370
    25
100
AcDbLine
 10
6.9694919
 20
8.1219911
 30
0.0
 11
7.0187843
 21
8.2372566
 31
0.0
  0
LINE
  5
254
330
1F
100
AcDbEntity
  8
0
  6
Continuous
 62
     7
370
    25
100
AcDbLine
 10
7.0187843
 20
8.2372566
 30
0.0
 11
7.0904638
 21
8.3619266
 31
0.0
  0
LINE
  5
255
330
1F
100
AcDbEntity
  8
0
  6
Continuous
 62
     7
370
    25
100
AcDbLine
 10
7.0904638
 20
8.3619266
 30
0.0
 11
7.1853575
 21
8.494297
 31
0.0
  0
LINE
  5
256
330
1F
100
AcDbEntity
  8
0
  6
Continuous
 62
     7
370
    25
100
AcDbLine
 10
7.1853575
 20
8.494297
 30
0.0
 11
7.3011816
 21
8.6332293
 31
0.0
  0
LINE
  5
257
330
1F
100
AcDbEntity
  8
0
  6
Continuous
 62
     7
370
    25
100
AcDbLine
 10
7.3011816
 20
8.6332293
 30
0.0
 11
7.3620493
 21
8.7258886
 31
0.0
  0
LINE
  5
258
330
1F
100
AcDbEntity
  8
0
  6
Continuous
 62
     7
370
    25
100
AcDbLine
 10
7.3620493
 20
8.7258886
 30
0.0
 11
7.4533156
 21
8.8934941
 31
0.0
  0
LINE
  5
259
330
1F
100
AcDbEntity
  8
0
  6
Continuous
 62
     7
370
    25
100
AcDbLine
 10
7.4533156
 20
8.8934941
 30
0.0
 11
7.5058324
 21
9.0055918
 31
0.0
  0
LINE
  5
25A
330
1F
100
AcDbEntity
  8
0
  6
Continuous
 62
     7
370
    25
100
AcDbLine
 10
7.5058324
 20
9.0055918
 30
0.0
 11
7.5611777
 21
9.1378278
 31
0.0
  0
LINE
  5
25B
330
1F
100
AcDbEntity
  8
0
  6
Continuous
 62
     7
370
    25
100
AcDbLine
 10
7.5611777
 20
9.1378278
 30
0.0
 11
7.6182341
 21
9.291871
 31
0.0
  0
LINE
  5
25C
330
1F
100
AcDbEntity
  8
0
  6
Continuous
 62
     7
370
    25
100
AcDbLine
 10
7.6182341
 20
9.291871
 30
0.0
 11
7.674336
 21
9.4652253
 31
0.0
  0
LINE
  5
25D
330
1F
100
AcDbEntity
  8
0
  6
Continuous
 62
     7
370
    25
100
AcDbLine
 10
7.674336
 20
9.4652253
 30
0.0
 11
7.7291226
 21
9.662296
 31
0.0
  0
LINE
  5
25E
330
1F
100
AcDbEntity
  8
0
  6
Continuous
 62
     7
370
    25
100
AcDbLine
 10
7.7291226
 20
9.662296
 30
0.0
 11
7.7797727
 21
9.879399
 31
0.0
  0
LINE
  5
25F
330
1F
100
AcDbEntity
  8
0
  6
Continuous
 62
     7
370
    25
100
AcDbLine
 10
7.7797727
 20
9.879399
 30
0.0
 11
7.8251618
 21
10.118889
 31
0.0
  0
LINE
  5
260
330
1F
100
AcDbEntity
  8
0
  6
Continuous
 62
     7
370
    25
100
AcDbLine
 10
7.8251618
 20
10.118889
 30
0.0
 11
7.8631759
 21
10.3784113
 31
0.0
  0
LINE
  5
261
330
1F
100
AcDbEntity
  8
0
  6
Continuous
 62
     7
370
    25
100
AcDbLine
 10
7.8631759
 20
10.3784113
 30
0.0
 11
7.8923653
 21
10.6591468
 31
0.0
  0
LINE
  5
262
330
1F
100
AcDbEntity
  8
0
  6
Continuous
 62
     7
370
    25
100
AcDbLine
 10
7.8923653
 20
10.6591468
 30
0.0
 11
7.9099126
 21
10.9399455
 31
0.0
  0
ARC
  5
263
330
1F
100
AcDbEntity
  8
0
  6
Continuous
 62
     7
370
    25
100
AcDbCircle
 10
-0.0000179692
 20
-0.0000264976
 30
0.0
 40
13.49999958955278
100
AcDbArc
 50
54.1319329725
 51
58.3680646879
  0
LINE
  5
264
330
1F
100
AcDbEntity
  8
0
  6
Continuous
 62
     7
370
    25
100
AcDbLine
 10
7.080199335
 20
11.4943422038
 30
0.0
 11
6.827490335
 21
11.3706735038
 31
0.0
  0
LINE
  5
265
330
1F
100
AcDbEntity
  8
0
  6
Continuous
 62
     7
370
    25
100
AcDbLine
 10
6.827490335
 20
11.3706735038
 30
0.0
 11
6.579294735
 21
11.2362732038
 31
0.0
  0
LINE
  5
266
330
1F
100
AcDbEntity
  8
0
  6
Continuous
 62
     7
370
    25
100
AcDbLine
 10
6.579294735
 20
11.2362732038
 30
0.0
 11
6.354074735
 21
11.1018379038
 31
0.0
  0
LINE
  5
267
330
1F
100
AcDbEntity
  8
0
  6
Continuous
 62
     7
370
    25
100
AcDbLine
 10
6.354074735
 20
11.1018379038
 30
0.0
 11
6.150184535
 21
10.9682549038
 31
0.0
  0
LINE
  5
268
330
1F
100
AcDbEntity
  8
0
  6
Continuous
 62
     7
370
    25
100
AcDbLine
 10
6.150184535
 20
10.9682549038
 30
0.0
 11
5.968990435
 21
10.8383787038
 31
0.0
  0
LINE
  5
269
330
1F
100
AcDbEntity
  8
0
  6
Continuous
 62
     7
370
    25
100
AcDbLine
 10
5.968990435
 20
10.8383787038
 30
0.0
 11
5.807886835
 21
10.7123467038
 31
0.0
  0
LINE
  5
26A
330
1F
100
AcDbEntity
  8
0
  6
Continuous
 62
     7
370
    25
100
AcDbLine
 10
5.807886835
 20
10.7123467038
 30
0.0
 11
5.669197635
 21
10.5941756038
 31
0.0
  0
LINE
  5
26B
330
1F
100
AcDbEntity
  8
0
  6
Continuous
 62
     7
370
    25
100
AcDbLine
 10
5.669197635
 20
10.5941756038
 30
0.0
 11
5.548714835
 21
10.4825125038
 31
0.0
  0
LINE
  5
26C
330
1F
100
AcDbEntity
  8
0
  6
Continuous
 62
     7
370
    25
100
AcDbLine
 10
5.548714835
 20
10.4825125038
 30
0.0
 11
5.447724335
 21
10.3807756038
 31
0.0
  0
LINE
  5
26D
330
1F
100
AcDbEntity
  8
0
  6
Continuous
 62
     7
370
    25
100
AcDbLine
 10
5.447724335
 20
10.3807756038
 30
0.0
 11
5.364256935
 21
10.2893585038
 31
0.0
  0
LINE
  5
26E
330
1F
100
AcDbEntity
  8
0
  6
Continuous
 62
     7
370
    25
100
AcDbLine
 10
5.364256935
 20
10.2893585038
 30
0.0
 11
5.244335735
 21
10.1408996038
 31
0.0
  0
LINE
  5
26F
330
1F
100
AcDbEntity
  8
0
  6
Continuous
 62
     7
370
    25
100
AcDbLine
 10
5.244335735
 20
10.1408996038
 30
0.0
 11
5.182022735
 21
10.0492059038
 31
0.0
  0
LINE
  5
270
330
1F
100
AcDbEntity
  8
0
  6
Continuous
 62
     7
370
    25
100
AcDbLine
 10
5.182022735
 20
10.0492059038
 30
0.0
 11
5.097990035
 21
9.8890313038
 31
0.0
  0
LINE
  5
271
330
1F
100
AcDbEntity
  8
0
  6
Continuous
 62
     7
370
    25
100
AcDbLine
 10
5.097990035
 20
9.8890313038
 30
0.0
 11
5.012009935
 21
9.7507050038
 31
0.0
  0
LINE
  5
272
330
1F
100
AcDbEntity
  8
0
  6
Continuous
 62
     7
370
    25
100
AcDbLine
 10
5.012009935
 20
9.7507050038
 30
0.0
 11
4.924260435
 21
9.6367727038
 31
0.0
  0
LINE
  5
273
330
1F
100
AcDbEntity
  8
0
  6
Continuous
 62
     7
370
    25
100
AcDbLine
 10
4.924260435
 20
9.6367727038
 30
0.0
 11
4.836632435
 21
9.5471223038
 31
0.0
  0
LINE
  5
274
330
1F
100
AcDbEntity
  8
0
  6
Continuous
 62
     7
370
    25
100
AcDbLine
 10
4.836632435
 20
9.5471223038
 30
0.0
 11
4.750977935
 21
9.4814953038
 31
0.0
  0
LINE
  5
275
330
1F
100
AcDbEntity
  8
0
  6
Continuous
 62
     7
370
    25
100
AcDbLine
 10
4.750977935
 20
9.4814953038
 30
0.0
 11
4.669160935
 21
9.4395309038
 31
0.0
  0
LINE
  5
276
330
1F
100
AcDbEntity
  8
0
  6
Continuous
 62
     7
370
    25
100
AcDbLine
 10
4.669160935
 20
9.4395309038
 30
0.0
 11
4.630254235
 21
9.4272880038
 31
0.0
  0
LINE
  5
277
330
1F
100
AcDbEntity
  8
0
  6
Continuous
 62
     7
370
    25
100
AcDbLine
 10
4.630254235
 20
9.4272880038
 30
0.0
 11
4.592990035
 21
9.4207615038
 31
0.0
  0
LINE
  5
278
330
1F
100
AcDbEntity
  8
0
  6
Continuous
 62
     7
370
    25
100
AcDbLine
 10
4.592990035
 20
9.4207615038
 30
0.0
 11
4.557587135
 21
9.4199044038
 31
0.0
  0
LINE
  5
279
330
1F
100
AcDbEntity
  8
0
  6
Continuous
 62
     7
370
    25
100
AcDbLine
 10
4.557587135
 20
9.4199044038
 30
0.0
 11
4.524263435
 21
9.4246154038
 31
0.0
  0
LINE
  5
27A
330
1F
100
AcDbEntity
  8
0
  6
Continuous
 62
     7
370
    25
100
AcDbLine
 10
4.524263435
 20
9.4246154038
 30
0.0
 11
4.485870235
 21
9.4382021038
 31
0.0
  0
LINE
  5
27B
330
1F
100
AcDbEntity
  8
0
  6
Continuous
 62
     7
370
    25
100
AcDbLine
 10
4.485870235
 20
9.4382021038
 30
0.0
 11
4.125530035
 21
9.6012063038
 31
0.0
  0
LINE
  5
27C
330
1F
100
AcDbEntity
  8
0
  6
Continuous
 62
     7
370
    25
100
AcDbLine
 10
4.125530035
 20
9.6012063038
 30
0.0
 11
3.999042035
 21
9.6545410038
 31
0.0
  0
LINE
  5
27D
330
1F
100
AcDbEntity
  8
0
  6
Continuous
 62
     7
370
    25
100
AcDbLine
 10
3.999042035
 20
9.6545410038
 30
0.0
 11
3.871888135
 21
9.7062682038
 31
0.0
  0
LINE
  5
27E
330
1F
100
AcDbEntity
  8
0
  6
Continuous
 62
     7
370
    25
100
AcDbLine
 10
3.871888135
 20
9.7062682038
 30
0.0
 11
3.501827735
 21
9.8458059038
 31
0.0
  0
LINE
  5
27F
330
1F
100
AcDbEntity
  8
0
  6
Continuous
 62
     7
370
    25
100
AcDbLine
 10
3.501827735
 20
9.8458059038
 30
0.0
 11
3.465072435
 21
9.8633467038
 31
0.0
  0
LINE
  5
280
330
1F
100
AcDbEntity
  8
0
  6
Continuous
 62
     7
370
    25
100
AcDbLine
 10
3.465072435
 20
9.8633467038
 30
0.0
 11
3.438177735
 21
9.8835789038
 31
0.0
  0
LINE
  5
281
330
1F
100
AcDbEntity
  8
0
  6
Continuous
 62
     7
370
    25
100
AcDbLine
 10
3.438177735
 20
9.8835789038
 30
0.0
 11
3.413750235
 21
9.9092187038
 31
0.0
  0
LINE
  5
282
330
1F
100
AcDbEntity
  8
0
  6
Continuous
 62
     7
370
    25
100
AcDbLine
 10
3.413750235
 20
9.9092187038
 30
0.0
 11
3.392015435
 21
9.9401833038
 31
0.0
  0
LINE
  5
283
330
1F
100
AcDbEntity
  8
0
  6
Continuous
 62
     7
370
    25
100
AcDbLine
 10
3.392015435
 20
9.9401833038
 30
0.0
 11
3.373161235
 21
9.9763516038
 31
0.0
  0
LINE
  5
284
330
1F
100
AcDbEntity
  8
0
  6
Continuous
 62
     7
370
    25
100
AcDbLine
 10
3.373161235
 20
9.9763516038
 30
0.0
 11
3.344981135
 21
10.0638782038
 31
0.0
  0
LINE
  5
285
330
1F
100
AcDbEntity
  8
0
  6
Continuous
 62
     7
370
    25
100
AcDbLine
 10
3.344981135
 20
10.0638782038
 30
0.0
 11
3.330819635
 21
10.1708504038
 31
0.0
  0
LINE
  5
286
330
1F
100
AcDbEntity
  8
0
  6
Continuous
 62
     7
370
    25
100
AcDbLine
 10
3.330819635
 20
10.1708504038
 30
0.0
 11
3.332249735
 21
10.2962052038
 31
0.0
  0
LINE
  5
287
330
1F
100
AcDbEntity
  8
0
  6
Continuous
 62
     7
370
    25
100
AcDbLine
 10
3.332249735
 20
10.2962052038
 30
0.0
 11
3.350763735
 21
10.4388157038
 31
0.0
  0
LINE
  5
288
330
1F
100
AcDbEntity
  8
0
  6
Continuous
 62
     7
370
    25
100
AcDbLine
 10
3.350763735
 20
10.4388157038
 30
0.0
 11
3.387778135
 21
10.5974243038
 31
0.0
  0
LINE
  5
289
330
1F
100
AcDbEntity
  8
0
  6
Continuous
 62
     7
370
    25
100
AcDbLine
 10
3.387778135
 20
10.5974243038
 30
0.0
 11
3.441618535
 21
10.7701050038
 31
0.0
  0
LINE
  5
28A
330
1F
100
AcDbEntity
  8
0
  6
Continuous
 62
     7
370
    25
100
AcDbLine
 10
3.441618535
 20
10.7701050038
 30
0.0
 11
3.462393835
 21
10.8790041038
 31
0.0
  0
LINE
  5
28B
330
1F
100
AcDbEntity
  8
0
  6
Continuous
 62
     7
370
    25
100
AcDbLine
 10
3.462393835
 20
10.8790041038
 30
0.0
 11
3.482573035
 21
11.0687775038
 31
0.0
  0
LINE
  5
28C
330
1F
100
AcDbEntity
  8
0
  6
Continuous
 62
     7
370
    25
100
AcDbLine
 10
3.482573035
 20
11.0687775038
 30
0.0
 11
3.488194335
 21
11.1924395038
 31
0.0
  0
LINE
  5
28D
330
1F
100
AcDbEntity
  8
0
  6
Continuous
 62
     7
370
    25
100
AcDbLine
 10
3.488194335
 20
11.1924395038
 30
0.0
 11
3.488722135
 21
11.3357894038
 31
0.0
  0
LINE
  5
28E
330
1F
100
AcDbEntity
  8
0
  6
Continuous
 62
     7
370
    25
100
AcDbLine
 10
3.488722135
 20
11.3357894038
 30
0.0
 11
3.482485635
 21
11.4999413038
 31
0.0
  0
LINE
  5
28F
330
1F
100
AcDbEntity
  8
0
  6
Continuous
 62
     7
370
    25
100
AcDbLine
 10
3.482485635
 20
11.4999413038
 30
0.0
 11
3.467977135
 21
11.6815691038
 31
0.0
  0
LINE
  5
290
330
1F
100
AcDbEntity
  8
0
  6
Continuous
 62
     7
370
    25
100
AcDbLine
 10
3.467977135
 20
11.6815691038
 30
0.0
 11
3.443177735
 21
11.8846045038
 31
0.0
  0
LINE
  5
291
330
1F
100
AcDbEntity
  8
0
  6
Continuous
 62
     7
370
    25
100
AcDbLine
 10
3.443177735
 20
11.8846045038
 30
0.0
 11
3.406890535
 21
12.1045645038
 31
0.0
  0
LINE
  5
292
330
1F
100
AcDbEntity
  8
0
  6
Continuous
 62
     7
370
    25
100
AcDbLine
 10
3.406890535
 20
12.1045645038
 30
0.0
 11
3.357175835
 21
12.3431941038
 31
0.0
  0
LINE
  5
293
330
1F
100
AcDbEntity
  8
0
  6
Continuous
 62
     7
370
    25
100
AcDbLine
 10
3.357175835
 20
12.3431941038
 30
0.0
 11
3.292981335
 21
12.5975088038
 31
0.0
  0
LINE
  5
294
330
1F
100
AcDbEntity
  8
0
  6
Continuous
 62
     7
370
    25
100
AcDbLine
 10
3.292981335
 20
12.5975088038
 30
0.0
 11
3.212515935
 21
12.8680449038
 31
0.0
  0
LINE
  5
295
330
1F
100
AcDbEntity
  8
0
  6
Continuous
 62
     7
370
    25
100
AcDbLine
 10
3.212515935
 20
12.8680449038
 30
0.0
 11
3.121270635
 21
13.1341842038
 31
0.0
  0
ARC
  5
296
330
1F
100
AcDbEntity
  8
0
  6
Continuous
 62
     7
370
    25
100
AcDbCircle
 10
-0.0000054105
 20
-0.0000320213
 30
0.0
 40
13.5
100
AcDbArc
 50
76.6319372122
 51
80.8680694389
  0
LINE
  5
297
330
1F
100
AcDbEntity
  8
0
  6
Continuous
 62
     7
370
    25
100
AcDbLine
 10
2.142556935
 20
13.3288624038
 30
0.0
 11
1.956410135
 21
13.1178999038
 31
0.0
  0
LINE
  5
298
330
1F
100
AcDbEntity
  8
0
  6
Continuous
 62
     7
370
    25
100
AcDbLine
 10
1.956410135
 20
13.1178999038
 30
0.0
 11
1.778540135
 21
12.8987499038
 31
0.0
  0
LINE
  5
299
330
1F
100
AcDbEntity
  8
0
  6
Continuous
 62
     7
370
    25
100
AcDbLine
 10
1.778540135
 20
12.8987499038
 30
0.0
 11
1.621910135
 21
12.6883599038
 31
0.0
  0
LINE
  5
29A
330
1F
100
AcDbEntity
  8
0
  6
Continuous
 62
     7
370
    25
100
AcDbLine
 10
1.621910135
 20
12.6883599038
 30
0.0
 11
1.484660135
 21
12.4869199038
 31
0.0
  0
LINE
  5
29B
330
1F
100
AcDbEntity
  8
0
  6
Continuous
 62
     7
370
    25
100
AcDbLine
 10
1.484660135
 20
12.4869199038
 30
0.0
 11
1.366960135
 21
12.2975899038
 31
0.0
  0
LINE
  5
29C
330
1F
100
AcDbEntity
  8
0
  6
Continuous
 62
     7
370
    25
100
AcDbLine
 10
1.366960135
 20
12.2975899038
 30
0.0
 11
1.266350135
 21
12.1194999038
 31
0.0
  0
LINE
  5
29D
330
1F
100
AcDbEntity
  8
0
  6
Continuous
 62
     7
370
    25
100
AcDbLine
 10
1.266350135
 20
12.1194999038
 30
0.0
 11
1.183440135
 21
11.9572499038
 31
0.0
  0
LINE
  5
29E
330
1F
100
AcDbEntity
  8
0
  6
Continuous
 62
     7
370
    25
100
AcDbLine
 10
1.183440135
 20
11.9572499038
 30
0.0
 11
1.114860135
 21
11.8079799038
 31
0.0
  0
LINE
  5
29F
330
1F
100
AcDbEntity
  8
0
  6
Continuous
 62
     7
370
    25
100
AcDbLine
 10
1.114860135
 20
11.8079799038
 30
0.0
 11
1.060490135
 21
11.6753399038
 31
0.0
  0
LINE
  5
2A0
330
1F
100
AcDbEntity
  8
0
  6
Continuous
 62
     7
370
    25
100
AcDbLine
 10
1.060490135
 20
11.6753399038
 30
0.0
 11
1.018360135
 21
11.5589399038
 31
0.0
  0
LINE
  5
2A1
330
1F
100
AcDbEntity
  8
0
  6
Continuous
 62
     7
370
    25
100
AcDbLine
 10
1.018360135
 20
11.5589399038
 30
0.0
 11
0.964380135
 21
11.3758899038
 31
0.0
  0
LINE
  5
2A2
330
1F
100
AcDbEntity
  8
0
  6
Continuous
 62
     7
370
    25
100
AcDbLine
 10
0.964380135
 20
11.3758899038
 30
0.0
 11
0.941900135
 21
11.2673299038
 31
0.0
  0
LINE
  5
2A3
330
1F
100
AcDbEntity
  8
0
  6
Continuous
 62
     7
370
    25
100
AcDbLine
 10
0.941900135
 20
11.2673299038
 30
0.0
 11
0.925560135
 21
11.0871899038
 31
0.0
  0
LINE
  5
2A4
330
1F
100
AcDbEntity
  8
0
  6
Continuous
 62
     7
370
    25
100
AcDbLine
 10
0.925560135
 20
11.0871899038
 30
0.0
 11
0.899060135
 21
10.9264899038
 31
0.0
  0
LINE
  5
2A5
330
1F
100
AcDbEntity
  8
0
  6
Continuous
 62
     7
370
    25
100
AcDbLine
 10
0.899060135
 20
10.9264899038
 30
0.0
 11
0.861590135
 21
10.7876499038
 31
0.0
  0
LINE
  5
2A6
330
1F
100
AcDbEntity
  8
0
  6
Continuous
 62
     7
370
    25
100
AcDbLine
 10
0.861590135
 20
10.7876499038
 30
0.0
 11
0.814940135
 21
10.6712899038
 31
0.0
  0
LINE
  5
2A7
330
1F
100
AcDbEntity
  8
0
  6
Continuous
 62
     7
370
    25
100
AcDbLine
 10
0.814940135
 20
10.6712899038
 30
0.0
 11
0.760920135
 21
10.5778799038
 31
0.0
  0
LINE
  5
2A8
330
1F
100
AcDbEntity
  8
0
  6
Continuous
 62
     7
370
    25
100
AcDbLine
 10
0.760920135
 20
10.5778799038
 30
0.0
 11
0.701390135
 21
10.5077999038
 31
0.0
  0
LINE
  5
2A9
330
1F
100
AcDbEntity
  8
0
  6
Continuous
 62
     7
370
    25
100
AcDbLine
 10
0.701390135
 20
10.5077999038
 30
0.0
 11
0.670130135
 21
10.4815999038
 31
0.0
  0
LINE
  5
2AA
330
1F
100
AcDbEntity
  8
0
  6
Continuous
 62
     7
370
    25
100
AcDbLine
 10
0.670130135
 20
10.4815999038
 30
0.0
 11
0.638200135
 21
10.4613099038
 31
0.0
  0
LINE
  5
2AB
330
1F
100
AcDbEntity
  8
0
  6
Continuous
 62
     7
370
    25
100
AcDbLine
 10
0.638200135
 20
10.4613099038
 30
0.0
 11
0.605820135
 21
10.4469699038
 31
0.0
  0
LINE
  5
2AC
330
1F
100
AcDbEntity
  8
0
  6
Continuous
 62
     7
370
    25
100
AcDbLine
 10
0.605820135
 20
10.4469699038
 30
0.0
 11
0.573230135
 21
10.4385699038
 31
0.0
  0
LINE
  5
2AD
330
1F
100
AcDbEntity
  8
0
  6
Continuous
 62
     7
370
    25
100
AcDbLine
 10
0.573230135
 20
10.4385699038
 30
0.0
 11
0.532560135
 21
10.4364299038
 31
0.0
  0
LINE
  5
2AE
330
1F
100
AcDbEntity
  8
0
  6
Continuous
 62
     7
370
    25
100
AcDbLine
 10
0.532560135
 20
10.4364299038
 30
0.0
 11
0.137270135
 21
10.4491299038
 31
0.0
  0
LINE
  5
2AF
330
1F
100
AcDbEntity
  8
0
  6
Continuous
 62
     7
370
    25
100
AcDbLine
 10
0.137270135
 20
10.4491299038
 30
0.0
 11
0.000000135
 21
10.4499999038
 31
0.0
  0
LINE
  5
2B0
330
1F
100
AcDbEntity
  8
0
  6
Continuous
 62
     7
370
    25
100
AcDbLine
 10
0.000000135
 20
10.4499999038
 30
0.0
 11
-0.137269865
 21
10.4491299038
 31
0.0
  0
LINE
  5
2B1
330
1F
100
AcDbEntity
  8
0
  6
Continuous
 62
     7
370
    25
100
AcDbLine
 10
-0.137269865
 20
10.4491299038
 30
0.0
 11
-0.532559865
 21
10.4364299038
 31
0.0
  0
LINE
  5
2B2
330
1F
100
AcDbEntity
  8
0
  6
Continuous
 62
     7
370
    25
100
AcDbLine
 10
-0.532559865
 20
10.4364299038
 30
0.0
 11
-0.573229865
 21
10.4385699038
 31
0.0
  0
LINE
  5
2B3
330
1F
100
AcDbEntity
  8
0
  6
Continuous
 62
     7
370
    25
100
AcDbLine
 10
-0.573229865
 20
10.4385699038
 30
0.0
 11
-0.605819865
 21
10.4469699038
 31
0.0
  0
LINE
  5
2B4
330
1F
100
AcDbEntity
  8
0
  6
Continuous
 62
     7
370
    25
100
AcDbLine
 10
-0.605819865
 20
10.4469699038
 30
0.0
 11
-0.638199865
 21
10.4613099038
 31
0.0
  0
LINE
  5
2B5
330
1F
100
AcDbEntity
  8
0
  6
Continuous
 62
     7
370
    25
100
AcDbLine
 10
-0.638199865
 20
10.4613099038
 30
0.0
 11
-0.670129865
 21
10.4815999038
 31
0.0
  0
LINE
  5
2B6
330
1F
100
AcDbEntity
  8
0
  6
Continuous
 62
     7
370
    25
100
AcDbLine
 10
-0.670129865
 20
10.4815999038
 30
0.0
 11
-0.701389865
 21
10.5077999038
 31
0.0
  0
LINE
  5
2B7
330
1F
100
AcDbEntity
  8
0
  6
Continuous
 62
     7
370
    25
100
AcDbLine
 10
-0.701389865
 20
10.5077999038
 30
0.0
 11
-0.760919865
 21
10.5778799038
 31
0.0
  0
LINE
  5
2B8
330
1F
100
AcDbEntity
  8
0
  6
Continuous
 62
     7
370
    25
100
AcDbLine
 10
-0.760919865
 20
10.5778799038
 30
0.0
 11
-0.814939865
 21
10.6712899038
 31
0.0
  0
LINE
  5
2B9
330
1F
100
AcDbEntity
  8
0
  6
Continuous
 62
     7
370
    25
100
AcDbLine
 10
-0.814939865
 20
10.6712899038
 30
0.0
 11
-0.861589865
 21
10.7876499038
 31
0.0
  0
LINE
  5
2BA
330
1F
100
AcDbEntity
  8
0
  6
Continuous
 62
     7
370
    25
100
AcDbLine
 10
-0.861589865
 20
10.7876499038
 30
0.0
 11
-0.899059865
 21
10.9264899038
 31
0.0
  0
LINE
  5
2BB
330
1F
100
AcDbEntity
  8
0
  6
Continuous
 62
     7
370
    25
100
AcDbLine
 10
-0.899059865
 20
10.9264899038
 30
0.0
 11
-0.925559865
 21
11.0871899038
 31
0.0
  0
LINE
  5
2BC
330
1F
100
AcDbEntity
  8
0
  6
Continuous
 62
     7
370
    25
100
AcDbLine
 10
-0.925559865
 20
11.0871899038
 30
0.0
 11
-0.941899865
 21
11.2673299038
 31
0.0
  0
LINE
  5
2BD
330
1F
100
AcDbEntity
  8
0
  6
Continuous
 62
     7
370
    25
100
AcDbLine
 10
-0.941899865
 20
11.2673299038
 30
0.0
 11
-0.964379865
 21
11.3758899038
 31
0.0
  0
LINE
  5
2BE
330
1F
100
AcDbEntity
  8
0
  6
Continuous
 62
     7
370
    25
100
AcDbLine
 10
-0.964379865
 20
11.3758899038
 30
0.0
 11
-1.018359865
 21
11.5589399038
 31
0.0
  0
LINE
  5
2BF
330
1F
100
AcDbEntity
  8
0
  6
Continuous
 62
     7
370
    25
100
AcDbLine
 10
-1.018359865
 20
11.5589399038
 30
0.0
 11
-1.060489865
 21
11.6753399038
 31
0.0
  0
LINE
  5
2C0
330
1F
100
AcDbEntity
  8
0
  6
Continuous
 62
     7
370
    25
100
AcDbLine
 10
-1.060489865
 20
11.6753399038
 30
0.0
 11
-1.114859865
 21
11.8079799038
 31
0.0
  0
LINE
  5
2C1
330
1F
100
AcDbEntity
  8
0
  6
Continuous
 62
     7
370
    25
100
AcDbLine
 10
-1.114859865
 20
11.8079799038
 30
0.0
 11
-1.183439865
 21
11.9572499038
 31
0.0
  0
LINE
  5
2C2
330
1F
100
AcDbEntity
  8
0
  6
Continuous
 62
     7
370
    25
100
AcDbLine
 10
-1.183439865
 20
11.9572499038
 30
0.0
 11
-1.266349865
 21
12.1194999038
 31
0.0
  0
LINE
  5
2C3
330
1F
100
AcDbEntity
  8
0
  6
Continuous
 62
     7
370
    25
100
AcDbLine
 10
-1.266349865
 20
12.1194999038
 30
0.0
 11
-1.366959865
 21
12.2975899038
 31
0.0
  0
LINE
  5
2C4
330
1F
100
AcDbEntity
  8
0
  6
Continuous
 62
     7
370
    25
100
AcDbLine
 10
-1.366959865
 20
12.2975899038
 30
0.0
 11
-1.484659865
 21
12.4869199038
 31
0.0
  0
LINE
  5
2C5
330
1F
100
AcDbEntity
  8
0
  6
Continuous
 62
     7
370
    25
100
AcDbLine
 10
-1.484659865
 20
12.4869199038
 30
0.0
 11
-1.621909865
 21
12.6883599038
 31
0.0
  0
LINE
  5
2C6
330
1F
100
AcDbEntity
  8
0
  6
Continuous
 62
     7
370
    25
100
AcDbLine
 10
-1.621909865
 20
12.6883599038
 30
0.0
 11
-1.778539865
 21
12.8987499038
 31
0.0
  0
LINE
  5
2C7
330
1F
100
AcDbEntity
  8
0
  6
Continuous
 62
     7
370
    25
100
AcDbLine
 10
-1.778539865
 20
12.8987499038
 30
0.0
 11
-1.956409865
 21
13.1178999038
 31
0.0
  0
LINE
  5
2C8
330
1F
100
AcDbEntity
  8
0
  6
Continuous
 62
     7
370
    25
100
AcDbLine
 10
-1.956409865
 20
13.1178999038
 30
0.0
 11
-2.142556665
 21
13.3288624038
 31
0.0
  0
ARC
  5
2C9
330
1F
100
AcDbEntity
  8
0
  6
Continuous
 62
     7
370
    25
100
AcDbCircle
 10
0.0000056805
 20
-0.0000320213
 30
0.0
 40
13.5
100
AcDbArc
 50
99.1319305611
 51
103.3680627878
  0
LINE
  5
2CA
330
1F
100
AcDbEntity
  8
0
  6
Continuous
 62
     7
370
    25
100
AcDbLine
 10
-3.121270365
 20
13.1341842038
 30
0.0
 11
-3.212515665
 21
12.8680449038
 31
0.0
  0
LINE
  5
2CB
330
1F
100
AcDbEntity
  8
0
  6
Continuous
 62
     7
370
    25
100
AcDbLine
 10
-3.212515665
 20
12.8680449038
 30
0.0
 11
-3.292981065
 21
12.5975088038
 31
0.0
  0
LINE
  5
2CC
330
1F
100
AcDbEntity
  8
0
  6
Continuous
 62
     7
370
    25
100
AcDbLine
 10
-3.292981065
 20
12.5975088038
 30
0.0
 11
-3.357175565
 21
12.3431941038
 31
0.0
  0
LINE
  5
2CD
330
1F
100
AcDbEntity
  8
0
  6
Continuous
 62
     7
370
    25
100
AcDbLine
 10
-3.357175565
 20
12.3431941038
 30
0.0
 11
-3.406890265
 21
12.1045645038
 31
0.0
  0
LINE
  5
2CE
330
1F
100
AcDbEntity
  8
0
  6
Continuous
 62
     7
370
    25
100
AcDbLine
 10
-3.406890265
 20
12.1045645038
 30
0.0
 11
-3.443177465
 21
11.8846045038
 31
0.0
  0
LINE
  5
2CF
330
1F
100
AcDbEntity
  8
0
  6
Continuous
 62
     7
370
    25
100
AcDbLine
 10
-3.443177465
 20
11.8846045038
 30
0.0
 11
-3.467976865
 21
11.6815691038
 31
0.0
  0
LINE
  5
2D0
330
1F
100
AcDbEntity
  8
0
  6
Continuous
 62
     7
370
    25
100
AcDbLine
 10
-3.467976865
 20
11.6815691038
 30
0.0
 11
-3.482485365
 21
11.4999413038
 31
0.0
  0
LINE
  5
2D1
330
1F
100
AcDbEntity
  8
0
  6
Continuous
 62
     7
370
    25
100
AcDbLine
 10
-3.482485365
 20
11.4999413038
 30
0.0
 11
-3.488721865
 21
11.3357894038
 31
0.0
  0
LINE
  5
2D2
330
1F
100
AcDbEntity
  8
0
  6
Continuous
 62
     7
370
    25
100
AcDbLine
 10
-3.488721865
 20
11.3357894038
 30
0.0
 11
-3.488194065
 21
11.1924395038
 31
0.0
  0
LINE
  5
2D3
330
1F
100
AcDbEntity
  8
0
  6
Continuous
 62
     7
370
    25
100
AcDbLine
 10
-3.488194065
 20
11.1924395038
 30
0.0
 11
-3.482572765
 21
11.0687775038
 31
0.0
  0
LINE
  5
2D4
330
1F
100
AcDbEntity
  8
0
  6
Continuous
 62
     7
370
    25
100
AcDbLine
 10
-3.482572765
 20
11.0687775038
 30
0.0
 11
-3.462393565
 21
10.8790041038
 31
0.0
  0
LINE
  5
2D5
330
1F
100
AcDbEntity
  8
0
  6
Continuous
 62
     7
370
    25
100
AcDbLine
 10
-3.462393565
 20
10.8790041038
 30
0.0
 11
-3.441618265
 21
10.7701050038
 31
0.0
  0
LINE
  5
2D6
330
1F
100
AcDbEntity
  8
0
  6
Continuous
 62
     7
370
    25
100
AcDbLine
 10
-3.441618265
 20
10.7701050038
 30
0.0
 11
-3.387777865
 21
10.5974243038
 31
0.0
  0
LINE
  5
2D7
330
1F
100
AcDbEntity
  8
0
  6
Continuous
 62
     7
370
    25
100
AcDbLine
 10
-3.387777865
 20
10.5974243038
 30
0.0
 11
-3.350763465
 21
10.4388157038
 31
0.0
  0
LINE
  5
2D8
330
1F
100
AcDbEntity
  8
0
  6
Continuous
 62
     7
370
    25
100
AcDbLine
 10
-3.350763465
 20
10.4388157038
 30
0.0
 11
-3.332249465
 21
10.2962052038
 31
0.0
  0
LINE
  5
2D9
330
1F
100
AcDbEntity
  8
0
  6
Continuous
 62
     7
370
    25
100
AcDbLine
 10
-3.332249465
 20
10.2962052038
 30
0.0
 11
-3.330819365
 21
10.1708504038
 31
0.0
  0
LINE
  5
2DA
330
1F
100
AcDbEntity
  8
0
  6
Continuous
 62
     7
370
    25
100
AcDbLine
 10
-3.330819365
 20
10.1708504038
 30
0.0
 11
-3.344980865
 21
10.0638782038
 31
0.0
  0
LINE
  5
2DB
330
1F
100
AcDbEntity
  8
0
  6
Continuous
 62
     7
370
    25
100
AcDbLine
 10
-3.344980865
 20
10.0638782038
 30
0.0
 11
-3.373160965
 21
9.9763516038
 31
0.0
  0
LINE
  5
2DC
330
1F
100
AcDbEntity
  8
0
  6
Continuous
 62
     7
370
    25
100
AcDbLine
 10
-3.373160965
 20
9.9763516038
 30
0.0
 11
-3.392015165
 21
9.9401833038
 31
0.0
  0
LINE
  5
2DD
330
1F
100
AcDbEntity
  8
0
  6
Continuous
 62
     7
370
    25
100
AcDbLine
 10
-3.392015165
 20
9.9401833038
 30
0.0
 11
-3.413749965
 21
9.9092187038
 31
0.0
  0
LINE
  5
2DE
330
1F
100
AcDbEntity
  8
0
  6
Continuous
 62
     7
370
    25
100
AcDbLine
 10
-3.413749965
 20
9.9092187038
 30
0.0
 11
-3.438177465
 21
9.8835789038
 31
0.0
  0
LINE
  5
2DF
330
1F
100
AcDbEntity
  8
0
  6
Continuous
 62
     7
370
    25
100
AcDbLine
 10
-3.438177465
 20
9.8835789038
 30
0.0
 11
-3.465072165
 21
9.8633467038
 31
0.0
  0
LINE
  5
2E0
330
1F
100
AcDbEntity
  8
0
  6
Continuous
 62
     7
370
    25
100
AcDbLine
 10
-3.465072165
 20
9.8633467038
 30
0.0
 11
-3.501827465
 21
9.8458059038
 31
0.0
  0
LINE
  5
2E1
330
1F
100
AcDbEntity
  8
0
  6
Continuous
 62
     7
370
    25
100
AcDbLine
 10
-3.501827465
 20
9.8458059038
 30
0.0
 11
-3.871887865
 21
9.7062682038
 31
0.0
  0
LINE
  5
2E2
330
1F
100
AcDbEntity
  8
0
  6
Continuous
 62
     7
370
    25
100
AcDbLine
 10
-3.871887865
 20
9.7062682038
 30
0.0
 11
-3.999041765
 21
9.6545410038
 31
0.0
  0
LINE
  5
2E3
330
1F
100
AcDbEntity
  8
0
  6
Continuous
 62
     7
370
    25
100
AcDbLine
 10
-3.999041765
 20
9.6545410038
 30
0.0
 11
-4.125529765
 21
9.6012063038
 31
0.0
  0
LINE
  5
2E4
330
1F
100
AcDbEntity
  8
0
  6
Continuous
 62
     7
370
    25
100
AcDbLine
 10
-4.125529765
 20
9.6012063038
 30
0.0
 11
-4.485869965
 21
9.4382021038
 31
0.0
  0
LINE
  5
2E5
330
1F
100
AcDbEntity
  8
0
  6
Continuous
 62
     7
370
    25
100
AcDbLine
 10
-4.485869965
 20
9.4382021038
 30
0.0
 11
-4.524263165
 21
9.4246154038
 31
0.0
  0
LINE
  5
2E6
330
1F
100
AcDbEntity
  8
0
  6
Continuous
 62
     7
370
    25
100
AcDbLine
 10
-4.524263165
 20
9.4246154038
 30
0.0
 11
-4.557586865
 21
9.4199044038
 31
0.0
  0
LINE
  5
2E7
330
1F
100
AcDbEntity
  8
0
  6
Continuous
 62
     7
370
    25
100
AcDbLine
 10
-4.557586865
 20
9.4199044038
 30
0.0
 11
-4.592989765
 21
9.4207615038
 31
0.0
  0
LINE
  5
2E8
330
1F
100
AcDbEntity
  8
0
  6
Continuous
 62
     7
370
    25
100
AcDbLine
 10
-4.592989765
 20
9.4207615038
 30
0.0
 11
-4.630253965
 21
9.4272880038
 31
0.0
  0
LINE
  5
2E9
330
1F
100
AcDbEntity
  8
0
  6
Continuous
 62
     7
370
    25
100
AcDbLine
 10
-4.630253965
 20
9.4272880038
 30
0.0
 11
-4.669160665
 21
9.4395309038
 31
0.0
  0
LINE
  5
2EA
330
1F
100
AcDbEntity
  8
0
  6
Continuous
 62
     7
370
    25
100
AcDbLine
 10
-4.669160665
 20
9.4395309038
 30
0.0
 11
-4.750977665
 21
9.4814953038
 31
0.0
  0
LINE
  5
2EB
330
1F
100
AcDbEntity
  8
0
  6
Continuous
 62
     7
370
    25
100
AcDbLine
 10
-4.750977665
 20
9.4814953038
 30
0.0
 11
-4.836632165
 21
9.5471223038
 31
0.0
  0
LINE
  5
2EC
330
1F
100
AcDbEntity
  8
0
  6
Continuous
 62
     7
370
    25
100
AcDbLine
 10
-4.836632165
 20
9.5471223038
 30
0.0
 11
-4.924260165
 21
9.6367727038
 31
0.0
  0
LINE
  5
2ED
330
1F
100
AcDbEntity
  8
0
  6
Continuous
 62
     7
370
    25
100
AcDbLine
 10
-4.924260165
 20
9.6367727038
 30
0.0
 11
-5.012009665
 21
9.7507050038
 31
0.0
  0
LINE
  5
2EE
330
1F
100
AcDbEntity
  8
0
  6
Continuous
 62
     7
370
    25
100
AcDbLine
 10
-5.012009665
 20
9.7507050038
 30
0.0
 11
-5.097989765
 21
9.8890313038
 31
0.0
  0
LINE
  5
2EF
330
1F
100
AcDbEntity
  8
0
  6
Continuous
 62
     7
370
    25
100
AcDbLine
 10
-5.097989765
 20
9.8890313038
 30
0.0
 11
-5.182022465
 21
10.0492059038
 31
0.0
  0
LINE
  5
2F0
330
1F
100
AcDbEntity
  8
0
  6
Continuous
 62
     7
370
    25
100
AcDbLine
 10
-5.182022465
 20
10.0492059038
 30
0.0
 11
-5.244335465
 21
10.1408996038
 31
0.0
  0
LINE
  5
2F1
330
1F
100
AcDbEntity
  8
0
  6
Continuous
 62
     7
370
    25
100
AcDbLine
 10
-5.244335465
 20
10.1408996038
 30
0.0
 11
-5.364256665
 21
10.2893585038
 31
0.0
  0
LINE
  5
2F2
330
1F
100
AcDbEntity
  8
0
  6
Continuous
 62
     7
370
    25
100
AcDbLine
 10
-5.364256665
 20
10.2893585038
 30
0.0
 11
-5.447724065
 21
10.3807756038
 31
0.0
  0
LINE
  5
2F3
330
1F
100
AcDbEntity
  8
0
  6
Continuous
 62
     7
370
    25
100
AcDbLine
 10
-5.447724065
 20
10.3807756038
 30
0.0
 11
-5.548714565
 21
10.4825125038
 31
0.0
  0
LINE
  5
2F4
330
1F
100
AcDbEntity
  8
0
  6
Continuous
 62
     7
370
    25
100
AcDbLine
 10
-5.548714565
 20
10.4825125038
 30
0.0
 11
-5.669197365
 21
10.5941756038
 31
0.0
  0
LINE
  5
2F5
330
1F
100
AcDbEntity
  8
0
  6
Continuous
 62
     7
370
    25
100
AcDbLine
 10
-5.669197365
 20
10.5941756038
 30
0.0
 11
-5.807886565
 21
10.7123467038
 31
0.0
  0
LINE
  5
2F6
330
1F
100
AcDbEntity
  8
0
  6
Continuous
 62
     7
370
    25
100
AcDbLine
 10
-5.807886565
 20
10.7123467038
 30
0.0
 11
-5.968990165
 21
10.8383787038
 31
0.0
  0
LINE
  5
2F7
330
1F
100
AcDbEntity
  8
0
  6
Continuous
 62
     7
370
    25
100
AcDbLine
 10
-5.968990165
 20
10.8383787038
 30
0.0
 11
-6.150184265
 21
10.9682549038
 31
0.0
  0
LINE
  5
2F8
330
1F
100
AcDbEntity
  8
0
  6
Continuous
 62
     7
370
    25
100
AcDbLine
 10
-6.150184265
 20
10.9682549038
 30
0.0
 11
-6.354074465
 21
11.1018379038
 31
0.0
  0
LINE
  5
2F9
330
1F
100
AcDbEntity
  8
0
  6
Continuous
 62
     7
370
    25
100
AcDbLine
 10
-6.354074465
 20
11.1018379038
 30
0.0
 11
-6.579294465
 21
11.2362732038
 31
0.0
  0
LINE
  5
2FA
330
1F
100
AcDbEntity
  8
0
  6
Continuous
 62
     7
370
    25
100
AcDbLine
 10
-6.579294465
 20
11.2362732038
 30
0.0
 11
-6.827490065
 21
11.3706735038
 31
0.0
  0
LINE
  5
2FB
330
1F
100
AcDbEntity
  8
0
  6
Continuous
 62
     7
370
    25
100
AcDbLine
 10
-6.827490065
 20
11.3706735038
 30
0.0
 11
-7.080199065
 21
11.4943422038
 31
0.0
  0
ARC
  5
2FC
330
1F
100
AcDbEntity
  8
0
  6
Continuous
 62
     7
370
    25
100
AcDbCircle
 10
0.0000271125
 20
-0.0000187837
 30
0.0
 40
13.49999767538116
100
AcDbArc
 50
121.631984547
 51
125.8681175671
  0
LINE
  5
2FD
330
1F
100
AcDbEntity
  8
0
  6
Continuous
 62
     7
370
    25
100
AcDbLine
 10
-7.9099119851
 20
10.9399446855
 30
0.0
 11
-7.8923646851
 21
10.6591459855
 31
0.0
  0
LINE
  5
2FE
330
1F
100
AcDbEntity
  8
0
  6
Continuous
 62
     7
370
    25
100
AcDbLine
 10
-7.8923646851
 20
10.6591459855
 30
0.0
 11
-7.8631752851
 21
10.3784104855
 31
0.0
  0
LINE
  5
2FF
330
1F
100
AcDbEntity
  8
0
  6
Continuous
 62
     7
370
    25
100
AcDbLine
 10
-7.8631752851
 20
10.3784104855
 30
0.0
 11
-7.8251611851
 21
10.1188881855
 31
0.0
  0
LINE
  5
300
330
1F
100
AcDbEntity
  8
0
  6
Continuous
 62
     7
370
    25
100
AcDbLine
 10
-7.8251611851
 20
10.1188881855
 30
0.0
 11
-7.7797720851
 21
9.8793981855
 31
0.0
  0
LINE
  5
301
330
1F
100
AcDbEntity
  8
0
  6
Continuous
 62
     7
370
    25
100
AcDbLine
 10
-7.7797720851
 20
9.8793981855
 30
0.0
 11
-7.7291219851
 21
9.6622951855
 31
0.0
  0
LINE
  5
302
330
1F
100
AcDbEntity
  8
0
  6
Continuous
 62
     7
370
    25
100
AcDbLine
 10
-7.7291219851
 20
9.6622951855
 30
0.0
 11
-7.6743353851
 21
9.4652244855
 31
0.0
  0
LINE
  5
303
330
1F
100
AcDbEntity
  8
0
  6
Continuous
 62
     7
370
    25
100
AcDbLine
 10
-7.6743353851
 20
9.4652244855
 30
0.0
 11
-7.6182334851
 21
9.2918701855
 31
0.0
  0
LINE
  5
304
330
1F
100
AcDbEntity
  8
0
  6
Continuous
 62
     7
370
    25
100
AcDbLine
 10
-7.6182334851
 20
9.2918701855
 30
0.0
 11
-7.5611770851
 21
9.1378269855
 31
0.0
  0
LINE
  5
305
330
1F
100
AcDbEntity
  8
0
  6
Continuous
 62
     7
370
    25
100
AcDbLine
 10
-7.5611770851
 20
9.1378269855
 30
0.0
 11
-7.5058317851
 21
9.0055909855
 31
0.0
  0
LINE
  5
306
330
1F
100
AcDbEntity
  8
0
  6
Continuous
 62
     7
370
    25
100
AcDbLine
 10
-7.5058317851
 20
9.0055909855
 30
0.0
 11
-7.4533149851
 21
8.8934932855
 31
0.0
  0
LINE
  5
307
330
1F
100
AcDbEntity
  8
0
  6
Continuous
 62
     7
370
    25
100
AcDbLine
 10
-7.4533149851
 20
8.8934932855
 30
0.0
 11
-7.3620486851
 21
8.7258877855
 31
0.0
  0
LINE
  5
308
330
1F
100
AcDbEntity
  8
0
  6
Continuous
 62
     7
370
    25
100
AcDbLine
 10
-7.3620486851
 20
8.7258877855
 30
0.0
 11
-7.3011809851
 21
8.6332284855
 31
0.0
  0
LINE
  5
309
330
1F
100
AcDbEntity
  8
0
  6
Continuous
 62
     7
370
    25
100
AcDbLine
 10
-7.3011809851
 20
8.6332284855
 30
0.0
 11
-7.1853568851
 21
8.4942961855
 31
0.0
  0
LINE
  5
30A
330
1F
100
AcDbEntity
  8
0
  6
Continuous
 62
     7
370
    25
100
AcDbLine
 10
-7.1853568851
 20
8.4942961855
 30
0.0
 11
-7.0904631851
 21
8.3619257855
 31
0.0
  0
LINE
  5
30B
330
1F
100
AcDbEntity
  8
0
  6
Continuous
 62
     7
370
    25
100
AcDbLine
 10
-7.0904631851
 20
8.3619257855
 30
0.0
 11
-7.0187836851
 21
8.2372557855
 31
0.0
  0
LINE
  5
30C
330
1F
100
AcDbEntity
  8
0
  6
Continuous
 62
     7
370
    25
100
AcDbLine
 10
-7.0187836851
 20
8.2372557855
 30
0.0
 11
-6.9694912851
 21
8.1219902855
 31
0.0
  0
LINE
  5
30D
330
1F
100
AcDbEntity
  8
0
  6
Continuous
 62
     7
370
    25
100
AcDbLine
 10
-6.9694912851
 20
8.1219902855
 30
0.0
 11
-6.9416383851
 21
8.0177415855
 31
0.0
  0
LINE
  5
30E
330
1F
100
AcDbEntity
  8
0
  6
Continuous
 62
     7
370
    25
100
AcDbLine
 10
-6.9416383851
 20
8.0177415855
 30
0.0
 11
-6.9341783851
 21
7.9260934855
 31
0.0
  0
LINE
  5
30F
330
1F
100
AcDbEntity
  8
0
  6
Continuous
 62
     7
370
    25
100
AcDbLine
 10
-6.9341783851
 20
7.9260934855
 30
0.0
 11
-6.9377563851
 21
7.8854630855
 31
0.0
  0
LINE
  5
310
330
1F
100
AcDbEntity
  8
0
  6
Continuous
 62
     7
370
    25
100
AcDbLine
 10
-6.9377563851
 20
7.8854630855
 30
0.0
 11
-6.9459870851
 21
7.8485379855
 31
0.0
  0
LINE
  5
311
330
1F
100
AcDbEntity
  8
0
  6
Continuous
 62
     7
370
    25
100
AcDbLine
 10
-6.9459870851
 20
7.8485379855
 30
0.0
 11
-6.9587432851
 21
7.8155019855
 31
0.0
  0
LINE
  5
312
330
1F
100
AcDbEntity
  8
0
  6
Continuous
 62
     7
370
    25
100
AcDbLine
 10
-6.9587432851
 20
7.8155019855
 30
0.0
 11
-6.9758481851
 21
7.7865176855
 31
0.0
  0
LINE
  5
313
330
1F
100
AcDbEntity
  8
0
  6
Continuous
 62
     7
370
    25
100
AcDbLine
 10
-6.9758481851
 20
7.7865176855
 30
0.0
 11
-7.0030929851
 21
7.7562463855
 31
0.0
  0
LINE
  5
314
330
1F
100
AcDbEntity
  8
0
  6
Continuous
 62
     7
370
    25
100
AcDbLine
 10
-7.0030929851
 20
7.7562463855
 30
0.0
 11
-7.2915854851
 21
7.4857143855
 31
0.0
  0
LINE
  5
315
330
1F
100
AcDbEntity
  8
0
  6
Continuous
 62
     7
370
    25
100
AcDbLine
 10
-7.2915854851
 20
7.4857143855
 30
0.0
 11
-7.3892652851
 21
7.3892650855
 31
0.0
  0
LINE
  5
316
330
1F
100
AcDbEntity
  8
0
  6
Continuous
 62
     7
370
    25
100
AcDbLine
 10
-7.3892652851
 20
7.3892650855
 30
0.0
 11
-7.4857145851
 21
7.2915852855
 31
0.0
  0
LINE
  5
317
330
1F
100
AcDbEntity
  8
0
  6
Continuous
 62
     7
370
    25
100
AcDbLine
 10
-7.4857145851
 20
7.2915852855
 30
0.0
 11
-7.7562465851
 21
7.0030927855
 31
0.0
  0
LINE
  5
318
330
1F
100
AcDbEntity
  8
0
  6
Continuous
 62
     7
370
    25
100
AcDbLine
 10
-7.7562465851
 20
7.0030927855
 30
0.0
 11
-7.7865178851
 21
6.9758479855
 31
0.0
  0
LINE
  5
319
330
1F
100
AcDbEntity
  8
0
  6
Continuous
 62
     7
370
    25
100
AcDbLine
 10
-7.7865178851
 20
6.9758479855
 30
0.0
 11
-7.8155021851
 21
6.9587430855
 31
0.0
  0
LINE
  5
31A
330
1F
100
AcDbEntity
  8
0
  6
Continuous
 62
     7
370
    25
100
AcDbLine
 10
-7.8155021851
 20
6.9587430855
 30
0.0
 11
-7.8485381851
 21
6.9459868855
 31
0.0
  0
LINE
  5
31B
330
1F
100
AcDbEntity
  8
0
  6
Continuous
 62
     7
370
    25
100
AcDbLine
 10
-7.8485381851
 20
6.9459868855
 30
0.0
 11
-7.8854632851
 21
6.9377561855
 31
0.0
  0
LINE
  5
31C
330
1F
100
AcDbEntity
  8
0
  6
Continuous
 62
     7
370
    25
100
AcDbLine
 10
-7.8854632851
 20
6.9377561855
 30
0.0
 11
-7.9260936851
 21
6.9341781855
 31
0.0
  0
LINE
  5
31D
330
1F
100
AcDbEntity
  8
0
  6
Continuous
 62
     7
370
    25
100
AcDbLine
 10
-7.9260936851
 20
6.9341781855
 30
0.0
 11
-8.0177417851
 21
6.9416381855
 31
0.0
  0
LINE
  5
31E
330
1F
100
AcDbEntity
  8
0
  6
Continuous
 62
     7
370
    25
100
AcDbLine
 10
-8.0177417851
 20
6.9416381855
 30
0.0
 11
-8.1219904851
 21
6.9694910855
 31
0.0
  0
LINE
  5
31F
330
1F
100
AcDbEntity
  8
0
  6
Continuous
 62
     7
370
    25
100
AcDbLine
 10
-8.1219904851
 20
6.9694910855
 30
0.0
 11
-8.2372559851
 21
7.0187834855
 31
0.0
  0
LINE
  5
320
330
1F
100
AcDbEntity
  8
0
  6
Continuous
 62
     7
370
    25
100
AcDbLine
 10
-8.2372559851
 20
7.0187834855
 30
0.0
 11
-8.3619259851
 21
7.0904629855
 31
0.0
  0
LINE
  5
321
330
1F
100
AcDbEntity
  8
0
  6
Continuous
 62
     7
370
    25
100
AcDbLine
 10
-8.3619259851
 20
7.0904629855
 30
0.0
 11
-8.4942963851
 21
7.1853566855
 31
0.0
  0
LINE
  5
322
330
1F
100
AcDbEntity
  8
0
  6
Continuous
 62
     7
370
    25
100
AcDbLine
 10
-8.4942963851
 20
7.1853566855
 30
0.0
 11
-8.6332286851
 21
7.3011807855
 31
0.0
  0
LINE
  5
323
330
1F
100
AcDbEntity
  8
0
  6
Continuous
 62
     7
370
    25
100
AcDbLine
 10
-8.6332286851
 20
7.3011807855
 30
0.0
 11
-8.7258879851
 21
7.3620484855
 31
0.0
  0
LINE
  5
324
330
1F
100
AcDbEntity
  8
0
  6
Continuous
 62
     7
370
    25
100
AcDbLine
 10
-8.7258879851
 20
7.3620484855
 30
0.0
 11
-8.8934934851
 21
7.4533147855
 31
0.0
  0
LINE
  5
325
330
1F
100
AcDbEntity
  8
0
  6
Continuous
 62
     7
370
    25
100
AcDbLine
 10
-8.8934934851
 20
7.4533147855
 30
0.0
 11
-9.0055911851
 21
7.5058315855
 31
0.0
  0
LINE
  5
326
330
1F
100
AcDbEntity
  8
0
  6
Continuous
 62
     7
370
    25
100
AcDbLine
 10
-9.0055911851
 20
7.5058315855
 30
0.0
 11
-9.1378271851
 21
7.5611768855
 31
0.0
  0
LINE
  5
327
330
1F
100
AcDbEntity
  8
0
  6
Continuous
 62
     7
370
    25
100
AcDbLine
 10
-9.1378271851
 20
7.5611768855
 30
0.0
 11
-9.2918703851
 21
7.6182332855
 31
0.0
  0
LINE
  5
328
330
1F
100
AcDbEntity
  8
0
  6
Continuous
 62
     7
370
    25
100
AcDbLine
 10
-9.2918703851
 20
7.6182332855
 30
0.0
 11
-9.4652246851
 21
7.6743351855
 31
0.0
  0
LINE
  5
329
330
1F
100
AcDbEntity
  8
0
  6
Continuous
 62
     7
370
    25
100
AcDbLine
 10
-9.4652246851
 20
7.6743351855
 30
0.0
 11
-9.6622953851
 21
7.7291217855
 31
0.0
  0
LINE
  5
32A
330
1F
100
AcDbEntity
  8
0
  6
Continuous
 62
     7
370
    25
100
AcDbLine
 10
-9.6622953851
 20
7.7291217855
 30
0.0
 11
-9.8793983851
 21
7.7797718855
 31
0.0
  0
LINE
  5
32B
330
1F
100
AcDbEntity
  8
0
  6
Continuous
 62
     7
370
    25
100
AcDbLine
 10
-9.8793983851
 20
7.7797718855
 30
0.0
 11
-10.1188883851
 21
7.8251609855
 31
0.0
  0
LINE
  5
32C
330
1F
100
AcDbEntity
  8
0
  6
Continuous
 62
     7
370
    25
100
AcDbLine
 10
-10.1188883851
 20
7.8251609855
 30
0.0
 11
-10.3784106851
 21
7.8631750855
 31
0.0
  0
LINE
  5
32D
330
1F
100
AcDbEntity
  8
0
  6
Continuous
 62
     7
370
    25
100
AcDbLine
 10
-10.3784106851
 20
7.8631750855
 30
0.0
 11
-10.6591461851
 21
7.8923644855
 31
0.0
  0
LINE
  5
32E
330
1F
100
AcDbEntity
  8
0
  6
Continuous
 62
     7
370
    25
100
AcDbLine
 10
-10.6591461851
 20
7.8923644855
 30
0.0
 11
-10.9399448851
 21
7.9099117855
 31
0.0
  0
ARC
  5
32F
330
1F
100
AcDbEntity
  8
0
  6
Continuous
 62
     7
370
    25
100
AcDbCircle
 10
0.0000271125
 20
-0.0000187837
 30
0.0
 40
13.49999958955278
100
AcDbArc
 50
144.1319329725
 51
148.3680646879
  0
LINE
  5
330
330
1F
100
AcDbEntity
  8
0
  6
Continuous
 62
     7
370
    25
100
AcDbLine
 10
-11.4943415889
 20
7.0801985205
 30
0.0
 11
-11.3706728889
 21
6.8274895205
 31
0.0
  0
LINE
  5
331
330
1F
100
AcDbEntity
  8
0
  6
Continuous
 62
     7
370
    25
100
AcDbLine
 10
-11.3706728889
 20
6.8274895205
 30
0.0
 11
-11.2362725889
 21
6.5792939205
 31
0.0
  0
LINE
  5
332
330
1F
100
AcDbEntity
  8
0
  6
Continuous
 62
     7
370
    25
100
AcDbLine
 10
-11.2362725889
 20
6.5792939205
 30
0.0
 11
-11.1018372889
 21
6.3540739205
 31
0.0
  0
LINE
  5
333
330
1F
100
AcDbEntity
  8
0
  6
Continuous
 62
     7
370
    25
100
AcDbLine
 10
-11.1018372889
 20
6.3540739205
 30
0.0
 11
-10.9682542889
 21
6.1501837205
 31
0.0
  0
LINE
  5
334
330
1F
100
AcDbEntity
  8
0
  6
Continuous
 62
     7
370
    25
100
AcDbLine
 10
-10.9682542889
 20
6.1501837205
 30
0.0
 11
-10.8383780889
 21
5.9689896205
 31
0.0
  0
LINE
  5
335
330
1F
100
AcDbEntity
  8
0
  6
Continuous
 62
     7
370
    25
100
AcDbLine
 10
-10.8383780889
 20
5.9689896205
 30
0.0
 11
-10.7123460889
 21
5.8078860205
 31
0.0
  0
LINE
  5
336
330
1F
100
AcDbEntity
  8
0
  6
Continuous
 62
     7
370
    25
100
AcDbLine
 10
-10.7123460889
 20
5.8078860205
 30
0.0
 11
-10.5941749889
 21
5.6691968205
 31
0.0
  0
LINE
  5
337
330
1F
100
AcDbEntity
  8
0
  6
Continuous
 62
     7
370
    25
100
AcDbLine
 10
-10.5941749889
 20
5.6691968205
 30
0.0
 11
-10.4825118889
 21
5.5487140205
 31
0.0
  0
LINE
  5
338
330
1F
100
AcDbEntity
  8
0
  6
Continuous
 62
     7
370
    25
100
AcDbLine
 10
-10.4825118889
 20
5.5487140205
 30
0.0
 11
-10.3807749889
 21
5.4477235205
 31
0.0
  0
LINE
  5
339
330
1F
100
AcDbEntity
  8
0
  6
Continuous
 62
     7
370
    25
100
AcDbLine
 10
-10.3807749889
 20
5.4477235205
 30
0.0
 11
-10.2893578889
 21
5.3642561205
 31
0.0
  0
LINE
  5
33A
330
1F
100
AcDbEntity
  8
0
  6
Continuous
 62
     7
370
    25
100
AcDbLine
 10
-10.2893578889
 20
5.3642561205
 30
0.0
 11
-10.1408989889
 21
5.2443349205
 31
0.0
  0
LINE
  5
33B
330
1F
100
AcDbEntity
  8
0
  6
Continuous
 62
     7
370
    25
100
AcDbLine
 10
-10.1408989889
 20
5.2443349205
 30
0.0
 11
-10.0492052889
 21
5.1820219205
 31
0.0
  0
LINE
  5
33C
330
1F
100
AcDbEntity
  8
0
  6
Continuous
 62
     7
370
    25
100
AcDbLine
 10
-10.0492052889
 20
5.1820219205
 30
0.0
 11
-9.8890306889
 21
5.0979892205
 31
0.0
  0
LINE
  5
33D
330
1F
100
AcDbEntity
  8
0
  6
Continuous
 62
     7
370
    25
100
AcDbLine
 10
-9.8890306889
 20
5.0979892205
 30
0.0
 11
-9.7507043889
 21
5.0120091205
 31
0.0
  0
LINE
  5
33E
330
1F
100
AcDbEntity
  8
0
  6
Continuous
 62
     7
370
    25
100
AcDbLine
 10
-9.7507043889
 20
5.0120091205
 30
0.0
 11
-9.6367720889
 21
4.9242596205
 31
0.0
  0
LINE
  5
33F
330
1F
100
AcDbEntity
  8
0
  6
Continuous
 62
     7
370
    25
100
AcDbLine
 10
-9.6367720889
 20
4.9242596205
 30
0.0
 11
-9.5471216889
 21
4.8366316205
 31
0.0
  0
LINE
  5
340
330
1F
100
AcDbEntity
  8
0
  6
Continuous
 62
     7
370
    25
100
AcDbLine
 10
-9.5471216889
 20
4.8366316205
 30
0.0
 11
-9.4814946889
 21
4.7509771205
 31
0.0
  0
LINE
  5
341
330
1F
100
AcDbEntity
  8
0
  6
Continuous
 62
     7
370
    25
100
AcDbLine
 10
-9.4814946889
 20
4.7509771205
 30
0.0
 11
-9.4395302889
 21
4.6691601205
 31
0.0
  0
LINE
  5
342
330
1F
100
AcDbEntity
  8
0
  6
Continuous
 62
     7
370
    25
100
AcDbLine
 10
-9.4395302889
 20
4.6691601205
 30
0.0
 11
-9.4272873889
 21
4.6302534205
 31
0.0
  0
LINE
  5
343
330
1F
100
AcDbEntity
  8
0
  6
Continuous
 62
     7
370
    25
100
AcDbLine
 10
-9.4272873889
 20
4.6302534205
 30
0.0
 11
-9.4207608889
 21
4.5929892205
 31
0.0
  0
LINE
  5
344
330
1F
100
AcDbEntity
  8
0
  6
Continuous
 62
     7
370
    25
100
AcDbLine
 10
-9.4207608889
 20
4.5929892205
 30
0.0
 11
-9.4199037889
 21
4.5575863205
 31
0.0
  0
LINE
  5
345
330
1F
100
AcDbEntity
  8
0
  6
Continuous
 62
     7
370
    25
100
AcDbLine
 10
-9.4199037889
 20
4.5575863205
 30
0.0
 11
-9.4246147889
 21
4.5242626205
 31
0.0
  0
LINE
  5
346
330
1F
100
AcDbEntity
  8
0
  6
Continuous
 62
     7
370
    25
100
AcDbLine
 10
-9.4246147889
 20
4.5242626205
 30
0.0
 11
-9.4382014889
 21
4.4858694205
 31
0.0
  0
LINE
  5
347
330
1F
100
AcDbEntity
  8
0
  6
Continuous
 62
     7
370
    25
100
AcDbLine
 10
-9.4382014889
 20
4.4858694205
 30
0.0
 11
-9.6012056889
 21
4.1255292205
 31
0.0
  0
LINE
  5
348
330
1F
100
AcDbEntity
  8
0
  6
Continuous
 62
     7
370
    25
100
AcDbLine
 10
-9.6012056889
 20
4.1255292205
 30
0.0
 11
-9.6545403889
 21
3.9990412205
 31
0.0
  0
LINE
  5
349
330
1F
100
AcDbEntity
  8
0
  6
Continuous
 62
     7
370
    25
100
AcDbLine
 10
-9.6545403889
 20
3.9990412205
 30
0.0
 11
-9.7062675889
 21
3.8718873205
 31
0.0
  0
LINE
  5
34A
330
1F
100
AcDbEntity
  8
0
  6
Continuous
 62
     7
370
    25
100
AcDbLine
 10
-9.7062675889
 20
3.8718873205
 30
0.0
 11
-9.8458052889
 21
3.5018269205
 31
0.0
  0
LINE
  5
34B
330
1F
100
AcDbEntity
  8
0
  6
Continuous
 62
     7
370
    25
100
AcDbLine
 10
-9.8458052889
 20
3.5018269205
 30
0.0
 11
-9.8633460889
 21
3.4650716205
 31
0.0
  0
LINE
  5
34C
330
1F
100
AcDbEntity
  8
0
  6
Continuous
 62
     7
370
    25
100
AcDbLine
 10
-9.8633460889
 20
3.4650716205
 30
0.0
 11
-9.8835782889
 21
3.4381769205
 31
0.0
  0
LINE
  5
34D
330
1F
100
AcDbEntity
  8
0
  6
Continuous
 62
     7
370
    25
100
AcDbLine
 10
-9.8835782889
 20
3.4381769205
 30
0.0
 11
-9.9092180889
 21
3.4137494205
 31
0.0
  0
LINE
  5
34E
330
1F
100
AcDbEntity
  8
0
  6
Continuous
 62
     7
370
    25
100
AcDbLine
 10
-9.9092180889
 20
3.4137494205
 30
0.0
 11
-9.9401826889
 21
3.3920146205
 31
0.0
  0
LINE
  5
34F
330
1F
100
AcDbEntity
  8
0
  6
Continuous
 62
     7
370
    25
100
AcDbLine
 10
-9.9401826889
 20
3.3920146205
 30
0.0
 11
-9.9763509889
 21
3.3731604205
 31
0.0
  0
LINE
  5
350
330
1F
100
AcDbEntity
  8
0
  6
Continuous
 62
     7
370
    25
100
AcDbLine
 10
-9.9763509889
 20
3.3731604205
 30
0.0
 11
-10.0638775889
 21
3.3449803205
 31
0.0
  0
LINE
  5
351
330
1F
100
AcDbEntity
  8
0
  6
Continuous
 62
     7
370
    25
100
AcDbLine
 10
-10.0638775889
 20
3.3449803205
 30
0.0
 11
-10.1708497889
 21
3.3308188205
 31
0.0
  0
LINE
  5
352
330
1F
100
AcDbEntity
  8
0
  6
Continuous
 62
     7
370
    25
100
AcDbLine
 10
-10.1708497889
 20
3.3308188205
 30
0.0
 11
-10.2962045889
 21
3.3322489205
 31
0.0
  0
LINE
  5
353
330
1F
100
AcDbEntity
  8
0
  6
Continuous
 62
     7
370
    25
100
AcDbLine
 10
-10.2962045889
 20
3.3322489205
 30
0.0
 11
-10.4388150889
 21
3.3507629205
 31
0.0
  0
LINE
  5
354
330
1F
100
AcDbEntity
  8
0
  6
Continuous
 62
     7
370
    25
100
AcDbLine
 10
-10.4388150889
 20
3.3507629205
 30
0.0
 11
-10.5974236889
 21
3.3877773205
 31
0.0
  0
LINE
  5
355
330
1F
100
AcDbEntity
  8
0
  6
Continuous
 62
     7
370
    25
100
AcDbLine
 10
-10.5974236889
 20
3.3877773205
 30
0.0
 11
-10.7701043889
 21
3.4416177205
 31
0.0
  0
LINE
  5
356
330
1F
100
AcDbEntity
  8
0
  6
Continuous
 62
     7
370
    25
100
AcDbLine
 10
-10.7701043889
 20
3.4416177205
 30
0.0
 11
-10.8790034889
 21
3.4623930205
 31
0.0
  0
LINE
  5
357
330
1F
100
AcDbEntity
  8
0
  6
Continuous
 62
     7
370
    25
100
AcDbLine
 10
-10.8790034889
 20
3.4623930205
 30
0.0
 11
-11.0687768889
 21
3.4825722205
 31
0.0
  0
LINE
  5
358
330
1F
100
AcDbEntity
  8
0
  6
Continuous
 62
     7
370
    25
100
AcDbLine
 10
-11.0687768889
 20
3.4825722205
 30
0.0
 11
-11.1924388889
 21
3.4881935205
 31
0.0
  0
LINE
  5
359
330
1F
100
AcDbEntity
  8
0
  6
Continuous
 62
     7
370
    25
100
AcDbLine
 10
-11.1924388889
 20
3.4881935205
 30
0.0
 11
-11.3357887889
 21
3.4887213205
 31
0.0
  0
LINE
  5
35A
330
1F
100
AcDbEntity
  8
0
  6
Continuous
 62
     7
370
    25
100
AcDbLine
 10
-11.3357887889
 20
3.4887213205
 30
0.0
 11
-11.4999406889
 21
3.4824848205
 31
0.0
  0
LINE
  5
35B
330
1F
100
AcDbEntity
  8
0
  6
Continuous
 62
     7
370
    25
100
AcDbLine
 10
-11.4999406889
 20
3.4824848205
 30
0.0
 11
-11.6815684889
 21
3.4679763205
 31
0.0
  0
LINE
  5
35C
330
1F
100
AcDbEntity
  8
0
  6
Continuous
 62
     7
370
    25
100
AcDbLine
 10
-11.6815684889
 20
3.4679763205
 30
0.0
 11
-11.8846038889
 21
3.4431769205
 31
0.0
  0
LINE
  5
35D
330
1F
100
AcDbEntity
  8
0
  6
Continuous
 62
     7
370
    25
100
AcDbLine
 10
-11.8846038889
 20
3.4431769205
 30
0.0
 11
-12.1045638889
 21
3.4068897205
 31
0.0
  0
LINE
  5
35E
330
1F
100
AcDbEntity
  8
0
  6
Continuous
 62
     7
370
    25
100
AcDbLine
 10
-12.1045638889
 20
3.4068897205
 30
0.0
 11
-12.3431934889
 21
3.3571750205
 31
0.0
  0
LINE
  5
35F
330
1F
100
AcDbEntity
  8
0
  6
Continuous
 62
     7
370
    25
100
AcDbLine
 10
-12.3431934889
 20
3.3571750205
 30
0.0
 11
-12.5975081889
 21
3.2929805205
 31
0.0
  0
LINE
  5
360
330
1F
100
AcDbEntity
  8
0
  6
Continuous
 62
     7
370
    25
100
AcDbLine
 10
-12.5975081889
 20
3.2929805205
 30
0.0
 11
-12.8680442889
 21
3.2125151205
 31
0.0
  0
LINE
  5
361
330
1F
100
AcDbEntity
  8
0
  6
Continuous
 62
     7
370
    25
100
AcDbLine
 10
-12.8680442889
 20
3.2125151205
 30
0.0
 11
-13.1341835889
 21
3.1212698205
 31
0.0
  0
ARC
  5
362
330
1F
100
AcDbEntity
  8
0
  6
Continuous
 62
     7
370
    25
100
AcDbCircle
 10
0.0000326363
 20
-0.000006225
 30
0.0
 40
13.5
100
AcDbArc
 50
166.6319372122
 51
170.8680694389
  0
LINE
  5
363
330
1F
100
AcDbEntity
  8
0
  6
Continuous
 62
     7
370
    25
100
AcDbLine
 10
-13.3288617889
 20
2.1425561205
 30
0.0
 11
-13.1178992889
 21
1.9564093205
 31
0.0
  0
LINE
  5
364
330
1F
100
AcDbEntity
  8
0
  6
Continuous
 62
     7
370
    25
100
AcDbLine
 10
-13.1178992889
 20
1.9564093205
 30
0.0
 11
-12.8987492889
 21
1.7785393205
 31
0.0
  0
LINE
  5
365
330
1F
100
AcDbEntity
  8
0
  6
Continuous
 62
     7
370
    25
100
AcDbLine
 10
-12.8987492889
 20
1.7785393205
 30
0.0
 11
-12.6883592889
 21
1.6219093205
 31
0.0
  0
LINE
  5
366
330
1F
100
AcDbEntity
  8
0
  6
Continuous
 62
     7
370
    25
100
AcDbLine
 10
-12.6883592889
 20
1.6219093205
 30
0.0
 11
-12.4869192889
 21
1.4846593205
 31
0.0
  0
LINE
  5
367
330
1F
100
AcDbEntity
  8
0
  6
Continuous
 62
     7
370
    25
100
AcDbLine
 10
-12.4869192889
 20
1.4846593205
 30
0.0
 11
-12.2975892889
 21
1.3669593205
 31
0.0
  0
LINE
  5
368
330
1F
100
AcDbEntity
  8
0
  6
Continuous
 62
     7
370
    25
100
AcDbLine
 10
-12.2975892889
 20
1.3669593205
 30
0.0
 11
-12.1194992889
 21
1.2663493205
 31
0.0
  0
LINE
  5
369
330
1F
100
AcDbEntity
  8
0
  6
Continuous
 62
     7
370
    25
100
AcDbLine
 10
-12.1194992889
 20
1.2663493205
 30
0.0
 11
-11.9572492889
 21
1.1834393205
 31
0.0
  0
LINE
  5
36A
330
1F
100
AcDbEntity
  8
0
  6
Continuous
 62
     7
370
    25
100
AcDbLine
 10
-11.9572492889
 20
1.1834393205
 30
0.0
 11
-11.8079792889
 21
1.1148593205
 31
0.0
  0
LINE
  5
36B
330
1F
100
AcDbEntity
  8
0
  6
Continuous
 62
     7
370
    25
100
AcDbLine
 10
-11.8079792889
 20
1.1148593205
 30
0.0
 11
-11.6753392889
 21
1.0604893205
 31
0.0
  0
LINE
  5
36C
330
1F
100
AcDbEntity
  8
0
  6
Continuous
 62
     7
370
    25
100
AcDbLine
 10
-11.6753392889
 20
1.0604893205
 30
0.0
 11
-11.5589392889
 21
1.0183593205
 31
0.0
  0
LINE
  5
36D
330
1F
100
AcDbEntity
  8
0
  6
Continuous
 62
     7
370
    25
100
AcDbLine
 10
-11.5589392889
 20
1.0183593205
 30
0.0
 11
-11.3758892889
 21
0.9643793205
 31
0.0
  0
LINE
  5
36E
330
1F
100
AcDbEntity
  8
0
  6
Continuous
 62
     7
370
    25
100
AcDbLine
 10
-11.3758892889
 20
0.9643793205
 30
0.0
 11
-11.2673292889
 21
0.9418993205
 31
0.0
  0
LINE
  5
36F
330
1F
100
AcDbEntity
  8
0
  6
Continuous
 62
     7
370
    25
100
AcDbLine
 10
-11.2673292889
 20
0.9418993205
 30
0.0
 11
-11.0871892889
 21
0.9255593205
 31
0.0
  0
LINE
  5
370
330
1F
100
AcDbEntity
  8
0
  6
Continuous
 62
     7
370
    25
100
AcDbLine
 10
-11.0871892889
 20
0.9255593205
 30
0.0
 11
-10.9264892889
 21
0.8990593205
 31
0.0
  0
LINE
  5
371
330
1F
100
AcDbEntity
  8
0
  6
Continuous
 62
     7
370
    25
100
AcDbLine
 10
-10.9264892889
 20
0.8990593205
 30
0.0
 11
-10.7876492889
 21
0.8615893205
 31
0.0
  0
LINE
  5
372
330
1F
100
AcDbEntity
  8
0
  6
Continuous
 62
     7
370
    25
100
AcDbLine
 10
-10.7876492889
 20
0.8615893205
 30
0.0
 11
-10.6712892889
 21
0.8149393205
 31
0.0
  0
LINE
  5
373
330
1F
100
AcDbEntity
  8
0
  6
Continuous
 62
     7
370
    25
100
AcDbLine
 10
-10.6712892889
 20
0.8149393205
 30
0.0
 11
-10.5778792889
 21
0.7609193205
 31
0.0
  0
LINE
  5
374
330
1F
100
AcDbEntity
  8
0
  6
Continuous
 62
     7
370
    25
100
AcDbLine
 10
-10.5778792889
 20
0.7609193205
 30
0.0
 11
-10.5077992889
 21
0.7013893205
 31
0.0
  0
LINE
  5
375
330
1F
100
AcDbEntity
  8
0
  6
Continuous
 62
     7
370
    25
100
AcDbLine
 10
-10.5077992889
 20
0.7013893205
 30
0.0
 11
-10.4815992889
 21
0.6701293205
 31
0.0
  0
LINE
  5
376
330
1F
100
AcDbEntity
  8
0
  6
Continuous
 62
     7
370
    25
100
AcDbLine
 10
-10.4815992889
 20
0.6701293205
 30
0.0
 11
-10.4613092889
 21
0.6381993205
 31
0.0
  0
LINE
  5
377
330
1F
100
AcDbEntity
  8
0
  6
Continuous
 62
     7
370
    25
100
AcDbLine
 10
-10.4613092889
 20
0.6381993205
 30
0.0
 11
-10.4469692889
 21
0.6058193205
 31
0.0
  0
LINE
  5
378
330
1F
100
AcDbEntity
  8
0
  6
Continuous
 62
     7
370
    25
100
AcDbLine
 10
-10.4469692889
 20
0.6058193205
 30
0.0
 11
-10.4385692889
 21
0.5732293205
 31
0.0
  0
LINE
  5
379
330
1F
100
AcDbEntity
  8
0
  6
Continuous
 62
     7
370
    25
100
AcDbLine
 10
-10.4385692889
 20
0.5732293205
 30
0.0
 11
-10.4364292889
 21
0.5325593205
 31
0.0
  0
LINE
  5
37A
330
1F
100
AcDbEntity
  8
0
  6
Continuous
 62
     7
370
    25
100
AcDbLine
 10
-10.4364292889
 20
0.5325593205
 30
0.0
 11
-10.4491292889
 21
0.1372693205
 31
0.0
  0
LINE
  5
37B
330
1F
100
AcDbEntity
  8
0
  6
Continuous
 62
     7
370
    25
100
AcDbLine
 10
-10.4491292889
 20
0.1372693205
 30
0.0
 11
-10.4499992889
 21
-0.0000006795
 31
0.0
  0
LINE
  5
37C
330
1F
100
AcDbEntity
  8
0
  6
Continuous
 62
     7
370
    25
100
AcDbLine
 10
-10.4499992889
 20
-0.0000006795
 30
0.0
 11
-10.4491292889
 21
-0.1372706795
 31
0.0
  0
LINE
  5
37D
330
1F
100
AcDbEntity
  8
0
  6
Continuous
 62
     7
370
    25
100
AcDbLine
 10
-10.4491292889
 20
-0.1372706795
 30
0.0
 11
-10.4364292889
 21
-0.5325606795
 31
0.0
  0
LINE
  5
37E
330
1F
100
AcDbEntity
  8
0
  6
Continuous
 62
     7
370
    25
100
AcDbLine
 10
-10.4364292889
 20
-0.5325606795
 30
0.0
 11
-10.4385692889
 21
-0.5732306795
 31
0.0
  0
LINE
  5
37F
330
1F
100
AcDbEntity
  8
0
  6
Continuous
 62
     7
370
    25
100
AcDbLine
 10
-10.4385692889
 20
-0.5732306795
 30
0.0
 11
-10.4469692889
 21
-0.6058206795
 31
0.0
  0
LINE
  5
380
330
1F
100
AcDbEntity
  8
0
  6
Continuous
 62
     7
370
    25
100
AcDbLine
 10
-10.4469692889
 20
-0.6058206795
 30
0.0
 11
-10.4613092889
 21
-0.6382006795
 31
0.0
  0
LINE
  5
381
330
1F
100
AcDbEntity
  8
0
  6
Continuous
 62
     7
370
    25
100
AcDbLine
 10
-10.4613092889
 20
-0.6382006795
 30
0.0
 11
-10.4815992889
 21
-0.6701306795
 31
0.0
  0
LINE
  5
382
330
1F
100
AcDbEntity
  8
0
  6
Continuous
 62
     7
370
    25
100
AcDbLine
 10
-10.4815992889
 20
-0.6701306795
 30
0.0
 11
-10.5077992889
 21
-0.7013906795
 31
0.0
  0
LINE
  5
383
330
1F
100
AcDbEntity
  8
0
  6
Continuous
 62
     7
370
    25
100
AcDbLine
 10
-10.5077992889
 20
-0.7013906795
 30
0.0
 11
-10.5778792889
 21
-0.7609206795
 31
0.0
  0
LINE
  5
384
330
1F
100
AcDbEntity
  8
0
  6
Continuous
 62
     7
370
    25
100
AcDbLine
 10
-10.5778792889
 20
-0.7609206795
 30
0.0
 11
-10.6712892889
 21
-0.8149406795
 31
0.0
  0
LINE
  5
385
330
1F
100
AcDbEntity
  8
0
  6
Continuous
 62
     7
370
    25
100
AcDbLine
 10
-10.6712892889
 20
-0.8149406795
 30
0.0
 11
-10.7876492889
 21
-0.8615906795
 31
0.0
  0
LINE
  5
386
330
1F
100
AcDbEntity
  8
0
  6
Continuous
 62
     7
370
    25
100
AcDbLine
 10
-10.7876492889
 20
-0.8615906795
 30
0.0
 11
-10.9264892889
 21
-0.8990606795
 31
0.0
  0
LINE
  5
387
330
1F
100
AcDbEntity
  8
0
  6
Continuous
 62
     7
370
    25
100
AcDbLine
 10
-10.9264892889
 20
-0.8990606795
 30
0.0
 11
-11.0871892889
 21
-0.9255606795
 31
0.0
  0
LINE
  5
388
330
1F
100
AcDbEntity
  8
0
  6
Continuous
 62
     7
370
    25
100
AcDbLine
 10
-11.0871892889
 20
-0.9255606795
 30
0.0
 11
-11.2673292889
 21
-0.9419006795
 31
0.0
  0
LINE
  5
389
330
1F
100
AcDbEntity
  8
0
  6
Continuous
 62
     7
370
    25
100
AcDbLine
 10
-11.2673292889
 20
-0.9419006795
 30
0.0
 11
-11.3758892889
 21
-0.9643806795
 31
0.0
  0
LINE
  5
38A
330
1F
100
AcDbEntity
  8
0
  6
Continuous
 62
     7
370
    25
100
AcDbLine
 10
-11.3758892889
 20
-0.9643806795
 30
0.0
 11
-11.5589392889
 21
-1.0183606795
 31
0.0
  0
LINE
  5
38B
330
1F
100
AcDbEntity
  8
0
  6
Continuous
 62
     7
370
    25
100
AcDbLine
 10
-11.5589392889
 20
-1.0183606795
 30
0.0
 11
-11.6753392889
 21
-1.0604906795
 31
0.0
  0
LINE
  5
38C
330
1F
100
AcDbEntity
  8
0
  6
Continuous
 62
     7
370
    25
100
AcDbLine
 10
-11.6753392889
 20
-1.0604906795
 30
0.0
 11
-11.8079792889
 21
-1.1148606795
 31
0.0
  0
LINE
  5
38D
330
1F
100
AcDbEntity
  8
0
  6
Continuous
 62
     7
370
    25
100
AcDbLine
 10
-11.8079792889
 20
-1.1148606795
 30
0.0
 11
-11.9572492889
 21
-1.1834406795
 31
0.0
  0
LINE
  5
38E
330
1F
100
AcDbEntity
  8
0
  6
Continuous
 62
     7
370
    25
100
AcDbLine
 10
-11.9572492889
 20
-1.1834406795
 30
0.0
 11
-12.1194992889
 21
-1.2663506795
 31
0.0
  0
LINE
  5
38F
330
1F
100
AcDbEntity
  8
0
  6
Continuous
 62
     7
370
    25
100
AcDbLine
 10
-12.1194992889
 20
-1.2663506795
 30
0.0
 11
-12.2975892889
 21
-1.3669606795
 31
0.0
  0
LINE
  5
390
330
1F
100
AcDbEntity
  8
0
  6
Continuous
 62
     7
370
    25
100
AcDbLine
 10
-12.2975892889
 20
-1.3669606795
 30
0.0
 11
-12.4869192889
 21
-1.4846606795
 31
0.0
  0
LINE
  5
391
330
1F
100
AcDbEntity
  8
0
  6
Continuous
 62
     7
370
    25
100
AcDbLine
 10
-12.4869192889
 20
-1.4846606795
 30
0.0
 11
-12.6883592889
 21
-1.6219106795
 31
0.0
  0
LINE
  5
392
330
1F
100
AcDbEntity
  8
0
  6
Continuous
 62
     7
370
    25
100
AcDbLine
 10
-12.6883592889
 20
-1.6219106795
 30
0.0
 11
-12.8987492889
 21
-1.7785406795
 31
0.0
  0
LINE
  5
393
330
1F
100
AcDbEntity
  8
0
  6
Continuous
 62
     7
370
    25
100
AcDbLine
 10
-12.8987492889
 20
-1.7785406795
 30
0.0
 11
-13.1178992889
 21
-1.9564106795
 31
0.0
  0
LINE
  5
394
330
1F
100
AcDbEntity
  8
0
  6
Continuous
 62
     7
370
    25
100
AcDbLine
 10
-13.1178992889
 20
-1.9564106795
 30
0.0
 11
-13.3288617889
 21
-2.1425574795
 31
0.0
  0
CIRCLE
  5
395
330
1F
100
AcDbEntity
  8
0
  6
Continuous
 62
     7
370
    25
100
AcDbCircle
 10
-0.0000312068
 20
7.0000060254
 30
0.0
 40
1.55
  0
CIRCLE
  5
396
330
1F
100
AcDbEntity
  8
0
  6
Continuous
 62
     7
370
    25
100
AcDbCircle
 10
-0.000006507
 20
-6.9999812006
 30
0.0
 40
1.55
  0
CIRCLE
  5
397
330
1F
100
AcDbEntity
  8
0
  6
Continuous
 62
     7
370
    25
100
AcDbCircle
 10
-0.0000312068
 20
0.0000060254
 30
0.0
 40
2.55
  0
MTEXT
  5
399
330
1F
100
AcDbEntity
  8
0
  6
Continuous
 62
     7
100
AcDbMText
 10
-13.3288617889
 20
-14.3484235968
 30
0.0
 40
4.83362
 41
0.0
 71
     1
 72
     1
  1
Produkt SOLIDWORKS Educational.
  7
SLDTEXTSTYLE0
 73
     1
 44
1.0
  0
MTEXT
  5
39B
330
1F
100
AcDbEntity
  8
0
  6
Continuous
 62
     7
100
AcDbMText
 10
-13.3288617889
 20
-21.5988535968
 30
0.0
 40
4.83362
 41
0.0
 71
     1
 72
     1
  1
Tylko do uytku instruktaowego.
  7
SLDTEXTSTYLE1
 73
     1
 44
1.0
  0
ENDSEC
  0
SECTION
  2
OBJECTS
  0
DICTIONARY
  5
C
330
0
100
AcDbDictionary
281
     1
  3
ACAD_GROUP
350
D
  3
ACAD_LAYOUT
350
1A
  3
ACAD_MLINESTYLE
350
17
  3
ACAD_PLOTSETTINGS
350
19
  3
ACAD_PLOTSTYLENAME
350
E
  3
ACAD_SCALELIST
350
47
  3
DWGPROPS
350
39C
  0
DICTIONARY
  5
D
102
{ACAD_REACTORS
330
C
102
}
330
C
100
AcDbDictionary
281
     1
  0
DICTIONARY
  5
1A
102
{ACAD_REACTORS
330
C
102
}
330
C
100
AcDbDictionary
281
     1
  3
Layout1
350
1E
  3
Layout2
350
26
  3
Model
350
22
  0
DICTIONARY
  5
17
102
{ACAD_REACTORS
330
C
102
}
330
C
100
AcDbDictionary
281
     1
  3
Standard
350
18
  0
DICTIONARY
  5
19
102
{ACAD_REACTORS
330
C
102
}
330
C
100
AcDbDictionary
281
     1
  0
ACDBDICTIONARYWDFLT
  5
E
102
{ACAD_REACTORS
330
C
102
}
330
C
100
AcDbDictionary
281
     1
  3
Normal
350
F
100
AcDbDictionaryWithDefault
340
F
  0
DICTIONARY
  5
47
102
{ACAD_REACTORS
330
C
102
}
330
C
100
AcDbDictionary
281
     1
  3
A0
350
48
  3
A1
350
49
  3
A2
350
4A
  3
A3
350
4B
  3
A4
350
4C
  3
A5
350
4D
  3
A6
350
4E
  3
A7
350
4F
  3
A8
350
50
  3
A9
350
51
  3
B0
350
52
  3
B1
350
53
  3
B2
350
54
  3
B3
350
55
  3
B4
350
56
  3
B5
350
57
  3
B6
350
58
  0
XRECORD
  5
39C
102
{ACAD_REACTORS
330
C
102
}
330
C
100
AcDbXrecord
280
     1
  1
DWGPROPS COOKIE
  2

  3

  4

  6

  7

  8
patrick
  9

300
=
301
=
302
=
303
=
304
=
305
=
306
=
307
=
308
=
309
=
 40
0.0
 41
2460778.621249826
 42
2460778.621392269
  1

 90
        0
  0
LAYOUT
  5
1E
102
{ACAD_REACTORS
330
1A
102
}
330
1A
100
AcDbPlotSettings
  1

  2
none_device
  4

  6

 40
0.0
 41
0.0
 42
0.0
 43
0.0
 44
0.0
 45
0.0
 46
0.0
 47
0.0
 48
0.0
 49
0.0
140
0.0
141
0.0
142
1.0
143
1.0
 70
   688
 72
     1
 73
     0
 74
     5
  7

 75
    16
147
1.0
148
0.0
149
0.0
100
AcDbLayout
  1
Layout1
 70
     1
 71
     1
 10
0.0
 20
0.0
 11
420.0
 21
297.0
 12
0.0
 22
0.0
 32
0.0
 14
1.0000000000E+20
 24
1.0000000000E+20
 34
1.0000000000E+20
 15
-1.0000000000E+20
 25
-1.0000000000E+20
 35
-1.0000000000E+20
146
0.0
 13
0.0
 23
0.0
 33
0.0
 16
1.0
 26
0.0
 36
0.0
 17
0.0
 27
1.0
 37
0.0
 76
     0
330
1B
  0
LAYOUT
  5
26
102
{ACAD_REACTORS
330
1A
102
}
330
1A
100
AcDbPlotSettings
  1

  2
none_device
  4

  6

 40
0.0
 41
0.0
 42
0.0
 43
0.0
 44
0.0
 45
0.0
 46
0.0
 47
0.0
 48
0.0
 49
0.0
140
0.0
141
0.0
142
1.0
143
1.0
 70
   688
 72
     1
 73
     0
 74
     5
  7

 75
    16
147
1.0
148
0.0
149
0.0
100
AcDbLayout
  1
Layout2
 70
     1
 71
     2
 10
0.0
 20
0.0
 11
0.0
 21
0.0
 12
0.0
 22
0.0
 32
0.0
 14
0.0
 24
0.0
 34
0.0
 15
0.0
 25
0.0
 35
0.0
146
0.0
 13
0.0
 23
0.0
 33
0.0
 16
1.0
 26
0.0
 36
0.0
 17
0.0
 27
1.0
 37
0.0
 76
     0
330
23
  0
LAYOUT
  5
22
102
{ACAD_REACTORS
330
1A
102
}
330
1A
100
AcDbPlotSettings
  1

  2
none_device
  4
ANSI_A_(11.00_x_8.50_Inches)
  6

 40
6.35
 41
19.05
 42
6.35000508
 43
19.05000254
 44
279.4
 45
215.9
 46
133.3499917295
 47
88.8999778887
 48
0.0
 49
0.0
140
0.0
141
0.0
142
0.3156684114
143
1.0
 70
  1696
 72
     0
 73
     0
 74
     0
  7

 75
     0
147
0.0179189148
148
-1300.4909072572
149
0.0
100
AcDbLayout
  1
Model
 70
     1
 71
     0
 10
0.0
 20
0.0
 11
420.0
 21
297.0
 12
0.0
 22
0.0
 32
0.0
 14
-13.3288617889
 24
-13.3288572051
 34
0.0
 15
13.3288632183
 25
13.3288624038
 35
0.0
146
0.0
 13
0.0
 23
0.0
 33
0.0
 16
1.0
 26
0.0
 36
0.0
 17
0.0
 27
1.0
 37
0.0
 76
     0
330
1F
331
29
  0
MLINESTYLE
  5
18
102
{ACAD_REACTORS
330
17
102
}
330
17
100
AcDbMlineStyle
  2
Standard
 70
     0
  3

 62
   256
 51
90.0
 52
90.0
 71
     2
 49
0.5
 62
   256
  6
BYLAYER
 49
-0.5
 62
   256
  6
BYLAYER
  0
ACDBPLACEHOLDER
  5
F
102
{ACAD_REACTORS
330
E
102
}
330
E
  0
SCALE
  5
48
102
{ACAD_REACTORS
330
47
102
}
330
47
100
AcDbScale
 70
     0
300
1:1
140
1.0
141
1.0
290
     1
  0
SCALE
  5
49
102
{ACAD_REACTORS
330
47
102
}
330
47
100
AcDbScale
 70
     0
300
1:2
140
1.0
141
2.0
290
     0
  0
SCALE
  5
4A
102
{ACAD_REACTORS
330
47
102
}
330
47
100
AcDbScale
 70
     0
300
1:4
140
1.0
141
4.0
290
     0
  0
SCALE
  5
4B
102
{ACAD_REACTORS
330
47
102
}
330
47
100
AcDbScale
 70
     0
300
1:5
140
1.0
141
5.0
290
     0
  0
SCALE
  5
4C
102
{ACAD_REACTORS
330
47
102
}
330
47
100
AcDbScale
 70
     0
300
1:8
140
1.0
141
8.0
290
     0
  0
SCALE
  5
4D
102
{ACAD_REACTORS
330
47
102
}
330
47
100
AcDbScale
 70
     0
300
1:10
140
1.0
141
10.0
290
     0
  0
SCALE
  5
4E
102
{ACAD_REACTORS
330
47
102
}
330
47
100
AcDbScale
 70
     0
300
1:16
140
1.0
141
16.0
290
     0
  0
SCALE
  5
4F
102
{ACAD_REACTORS
330
47
102
}
330
47
100
AcDbScale
 70
     0
300
1:20
140
1.0
141
20.0
290
     0
  0
SCALE
  5
50
102
{ACAD_REACTORS
330
47
102
}
330
47
100
AcDbScale
 70
     0
300
1:30
140
1.0
141
30.0
290
     0
  0
SCALE
  5
51
102
{ACAD_REACTORS
330
47
102
}
330
47
100
AcDbScale
 70
     0
300
1:40
140
1.0
141
40.0
290
     0
  0
SCALE
  5
52
102
{ACAD_REACTORS
330
47
102
}
330
47
100
AcDbScale
 70
     0
300
1:50
140
1.0
141
50.0
290
     0
  0
SCALE
  5
53
102
{ACAD_REACTORS
330
47
102
}
330
47
100
AcDbScale
 70
     0
300
1:100
140
1.0
141
100.0
290
     0
  0
SCALE
  5
54
102
{ACAD_REACTORS
330
47
102
}
330
47
100
AcDbScale
 70
     0
300
2:1
140
2.0
141
1.0
290
     0
  0
SCALE
  5
55
102
{ACAD_REACTORS
330
47
102
}
330
47
100
AcDbScale
 70
     0
300
4:1
140
4.0
141
1.0
290
     0
  0
SCALE
  5
56
102
{ACAD_REACTORS
330
47
102
}
330
47
100
AcDbScale
 70
     0
300
8:1
140
8.0
141
1.0
290
     0
  0
SCALE
  5
57
102
{ACAD_REACTORS
330
47
102
}
330
47
100
AcDbScale
 70
     0
300
10:1
140
10.0
141
1.0
290
     0
  0
SCALE
  5
58
102
{ACAD_REACTORS
330
47
102
}
330
47
100
AcDbScale
 70
     0
300
100:1
140
100.0
141
1.0
290
     0
  0
ENDSEC
  0
EOF
