0
SECTION
2
HEADER
0
ENDSEC
0
SECTION
2
TABLES
0
TABLE
2
LTYPE
0
LTYPE
72
65
70
64
2
CONTINUOUS
3
______
73
0
40
0
0
ENDTAB
0
TABLE
2
LAYER
0
ENDTAB
0
ENDSEC
0
SECTION
2
ENTITIES
0
CIRCLE
8
0
10
36
20
0
40
2
0
CIRCLE
8
0
10
36
20
0
40
2
0
LINE
8
layer0
10
11.7581991
20
-6.5786374
11
12.098443
21
-6.2919301
0
LINE
8
layer0
10
12.098443
20
-6.2919301
11
12.4172878
21
-6.045318
0
LINE
8
layer0
10
12.4172878
20
-6.045318
11
12.715111
21
-5.8342907
0
LINE
8
layer0
10
12.715111
20
-5.8342907
11
12.9877443
21
-5.6577811
0
LINE
8
layer0
10
12.9877443
20
-5.6577811
11
13.2335923
21
-5.5128436
0
LINE
8
layer0
10
13.2335923
20
-5.5128436
11
13.448809
21
-5.3977759
0
LINE
8
layer0
10
13.448809
20
-5.3977759
11
13.6351173
21
-5.3079632
0
LINE
8
layer0
10
13.6351173
20
-5.3079632
11
13.8624281
21
-5.2063853
0
LINE
8
layer0
10
13.8624281
20
-5.2063853
11
13.9303242
21
-5.1683077
0
LINE
8
layer0
10
13.9303242
20
-5.1683077
11
13.986938
21
-5.1298948
0
LINE
8
layer0
10
13.986938
20
-5.1298948
11
14.032277
21
-5.0915937
0
LINE
8
layer0
10
14.032277
20
-5.0915937
11
14.0664015
21
-5.0538613
0
LINE
8
layer0
10
14.0664015
20
-5.0538613
11
14.0893325
21
-5.0171625
0
LINE
8
layer0
10
14.0893325
20
-5.0171625
11
14.1011442
21
-4.981921
0
LINE
8
layer0
10
14.1011442
20
-4.981921
11
14.1019106
21
-4.9486115
0
LINE
8
layer0
10
14.1019106
20
-4.9486115
11
14.0902967
21
-4.8960167
0
LINE
8
layer0
10
14.0902967
20
-4.8960167
11
13.9813705
21
-4.3797777
0
LINE
8
layer0
10
13.9813705
20
-4.3797777
11
13.8844491
21
-3.8611509
0
LINE
8
layer0
10
13.8844491
20
-3.8611509
11
13.8750517
21
-3.8081151
0
LINE
8
layer0
10
13.8750517
20
-3.8081151
11
13.8615967
21
-3.7776344
0
LINE
8
layer0
10
13.8615967
20
-3.7776344
11
13.8371978
21
-3.7495956
0
LINE
8
layer0
10
13.8371978
20
-3.7495956
11
13.8019683
21
-3.7244657
0
LINE
8
layer0
10
13.8019683
20
-3.7244657
11
13.7560018
21
-3.7026644
0
LINE
8
layer0
10
13.7560018
20
-3.7026644
11
13.6994568
21
-3.6846293
0
LINE
8
layer0
10
13.6994568
20
-3.6846293
11
13.6324525
21
-3.6708055
0
LINE
8
layer0
10
13.6324525
20
-3.6708055
11
13.5551531
21
-3.6616092
0
LINE
8
layer0
10
13.5551531
20
-3.6616092
11
13.3062731
21
-3.6547515
0
LINE
8
layer0
10
13.3062731
20
-3.6547515
11
13.0997768
21
-3.6430725
0
LINE
8
layer0
10
13.0997768
20
-3.6430725
11
12.856908
21
-3.6191237
0
LINE
8
layer0
10
12.856908
20
-3.6191237
11
12.5743089
21
-3.5793009
0
LINE
8
layer0
10
12.5743089
20
-3.5793009
11
12.2548813
21
-3.5205594
0
LINE
8
layer0
10
12.2548813
20
-3.5205594
11
11.8989719
21
-3.4395677
0
LINE
8
layer0
10
11.8989719
20
-3.4395677
11
11.5100232
21
-3.3337444
0
LINE
8
layer0
10
11.5100232
20
-3.3337444
11
11.0859608
21
-3.1990671
0
LINE
8
layer0
10
11.0859608
20
-3.1990671
11
10.6834678
21
-3.0532934
0
ARC
8
layer0
10
36.0000117
20
6e-7
40
25.5
50
184.3730721
51
186.8769255
0
LINE
8
layer0
10
10.5742499
20
-1.9443852
11
10.94057
21
-1.72289
0
LINE
8
layer0
10
10.94057
20
-1.72289
11
11.33021
21
-1.50807
0
LINE
8
layer0
10
11.33021
20
-1.50807
11
11.69104
21
-1.3284
0
LINE
8
layer0
10
11.69104
20
-1.3284
11
12.02431
21
-1.17953
0
LINE
8
layer0
10
12.02431
20
-1.17953
11
12.32614
21
-1.0596
0
LINE
8
layer0
10
12.32614
20
-1.0596
11
12.59554
21
-0.96541
0
LINE
8
layer0
10
12.59554
20
-0.96541
11
12.82907
21
-0.89454
0
LINE
8
layer0
10
12.82907
20
-0.89454
11
13.02932
21
-0.8428
0
LINE
8
layer0
10
13.02932
20
-0.8428
11
13.27208
21
-0.78752
0
LINE
8
layer0
10
13.27208
20
-0.78752
11
13.3461
21
-0.76342
0
LINE
8
layer0
10
13.3461
20
-0.76342
11
13.40912
21
-0.73679
0
LINE
8
layer0
10
13.40912
20
-0.73679
11
13.46106
21
-0.70807
0
LINE
8
layer0
10
13.46106
20
-0.70807
11
13.50189
21
-0.67772
0
LINE
8
layer0
10
13.50189
20
-0.67772
11
13.53154
21
-0.6462
0
LINE
8
layer0
10
13.53154
20
-0.6462
11
13.55
21
-0.61394
0
LINE
8
layer0
10
13.55
20
-0.61394
11
13.55725
21
-0.58142
0
LINE
8
layer0
10
13.55725
20
-0.58142
11
13.55612
21
-0.52757
0
LINE
8
layer0
10
13.55612
20
-0.52757
11
13.55
21
0
0
LINE
8
layer0
10
13.55
20
0
11
13.55612
21
0.52757
0
LINE
8
layer0
10
13.55612
20
0.52757
11
13.55725
21
0.58142
0
LINE
8
layer0
10
13.55725
20
0.58142
11
13.55
21
0.61394
0
LINE
8
layer0
10
13.55
20
0.61394
11
13.53154
21
0.6462
0
LINE
8
layer0
10
13.53154
20
0.6462
11
13.50189
21
0.67772
0
LINE
8
layer0
10
13.50189
20
0.67772
11
13.46106
21
0.70807
0
LINE
8
layer0
10
13.46106
20
0.70807
11
13.40912
21
0.73679
0
LINE
8
layer0
10
13.40912
20
0.73679
11
13.3461
21
0.76342
0
LINE
8
layer0
10
13.3461
20
0.76342
11
13.27208
21
0.78752
0
LINE
8
layer0
10
13.27208
20
0.78752
11
13.02932
21
0.8428
0
LINE
8
layer0
10
13.02932
20
0.8428
11
12.82907
21
0.89454
0
LINE
8
layer0
10
12.82907
20
0.89454
11
12.59554
21
0.96541
0
LINE
8
layer0
10
12.59554
20
0.96541
11
12.32614
21
1.0596
0
LINE
8
layer0
10
12.32614
20
1.0596
11
12.02431
21
1.17953
0
LINE
8
layer0
10
12.02431
20
1.17953
11
11.69104
21
1.3284
0
LINE
8
layer0
10
11.69104
20
1.3284
11
11.33021
21
1.50807
0
LINE
8
layer0
10
11.33021
20
1.50807
11
10.94057
21
1.72289
0
LINE
8
layer0
10
10.94057
20
1.72289
11
10.5742499
21
1.9443852
0
ARC
8
layer0
10
36.0000117
20
-6e-7
40
25.5
50
173.1230745
51
175.6269279
0
LINE
8
layer0
10
10.6834678
20
3.0532934
11
11.0859608
21
3.1990671
0
LINE
8
layer0
10
11.0859608
20
3.1990671
11
11.5100232
21
3.3337444
0
LINE
8
layer0
10
11.5100232
20
3.3337444
11
11.8989719
21
3.4395677
0
LINE
8
layer0
10
11.8989719
20
3.4395677
11
12.2548813
21
3.5205594
0
LINE
8
layer0
10
12.2548813
20
3.5205594
11
12.5743089
21
3.5793009
0
LINE
8
layer0
10
12.5743089
20
3.5793009
11
12.856908
21
3.6191237
0
LINE
8
layer0
10
12.856908
20
3.6191237
11
13.0997768
21
3.6430725
0
LINE
8
layer0
10
13.0997768
20
3.6430725
11
13.3062731
21
3.6547515
0
LINE
8
layer0
10
13.3062731
20
3.6547515
11
13.5551531
21
3.6616092
0
LINE
8
layer0
10
13.5551531
20
3.6616092
11
13.6324525
21
3.6708055
0
LINE
8
layer0
10
13.6324525
20
3.6708055
11
13.6994568
21
3.6846293
0
LINE
8
layer0
10
13.6994568
20
3.6846293
11
13.7560018
21
3.7026644
0
LINE
8
layer0
10
13.7560018
20
3.7026644
11
13.8019683
21
3.7244657
0
LINE
8
layer0
10
13.8019683
20
3.7244657
11
13.8371978
21
3.7495956
0
LINE
8
layer0
10
13.8371978
20
3.7495956
11
13.8615967
21
3.7776344
0
LINE
8
layer0
10
13.8615967
20
3.7776344
11
13.8750517
21
3.8081151
0
LINE
8
layer0
10
13.8750517
20
3.8081151
11
13.8844491
21
3.8611509
0
LINE
8
layer0
10
13.8844491
20
3.8611509
11
13.9813705
21
4.3797777
0
LINE
8
layer0
10
13.9813705
20
4.3797777
11
14.0902967
21
4.8960167
0
LINE
8
layer0
10
14.0902967
20
4.8960167
11
14.1019106
21
4.9486115
0
LINE
8
layer0
10
14.1019106
20
4.9486115
11
14.1011442
21
4.981921
0
LINE
8
layer0
10
14.1011442
20
4.981921
11
14.0893325
21
5.0171625
0
LINE
8
layer0
10
14.0893325
20
5.0171625
11
14.0664015
21
5.0538613
0
LINE
8
layer0
10
14.0664015
20
5.0538613
11
14.032277
21
5.0915937
0
LINE
8
layer0
10
14.032277
20
5.0915937
11
13.986938
21
5.1298948
0
LINE
8
layer0
10
13.986938
20
5.1298948
11
13.9303242
21
5.1683077
0
LINE
8
layer0
10
13.9303242
20
5.1683077
11
13.8624281
21
5.2063853
0
LINE
8
layer0
10
13.8624281
20
5.2063853
11
13.6351173
21
5.3079632
0
LINE
8
layer0
10
13.6351173
20
5.3079632
11
13.448809
21
5.3977759
0
LINE
8
layer0
10
13.448809
20
5.3977759
11
13.2335923
21
5.5128436
0
LINE
8
layer0
10
13.2335923
20
5.5128436
11
12.9877443
21
5.6577811
0
LINE
8
layer0
10
12.9877443
20
5.6577811
11
12.715111
21
5.8342907
0
LINE
8
layer0
10
12.715111
20
5.8342907
11
12.4172878
21
6.045318
0
LINE
8
layer0
10
12.4172878
20
6.045318
11
12.098443
21
6.2919301
0
LINE
8
layer0
10
12.098443
20
6.2919301
11
11.7581991
21
6.5786374
0
LINE
8
layer0
10
11.7581991
20
6.5786374
11
11.4421293
21
6.8673422
0
ARC
8
layer0
10
36.0000112
20
-0.0000034
40
25.5
50
161.8730731
51
164.3769266
0
LINE
8
layer0
10
11.7655858
20
7.9336356
11
12.1887841
21
7.9980859
0
LINE
8
layer0
10
12.1887841
20
7.9980859
11
12.6309725
21
8.0474449
0
LINE
8
layer0
10
12.6309725
20
8.0474449
11
13.0330927
21
8.0753547
0
LINE
8
layer0
10
13.0330927
20
8.0753547
11
13.3979641
21
8.0853557
0
LINE
8
layer0
10
13.3979641
20
8.0853557
11
13.7227139
21
8.0806512
0
LINE
8
layer0
10
13.7227139
20
8.0806512
11
14.007652
21
8.0645765
0
LINE
8
layer0
10
14.007652
20
8.0645765
11
14.2505264
21
8.0406838
0
LINE
8
layer0
10
14.2505264
20
8.0406838
11
14.4553333
21
8.011853
0
LINE
8
layer0
10
14.4553333
20
8.011853
11
14.700769
21
7.9700248
0
LINE
8
layer0
10
14.700769
20
7.9700248
11
14.7783773
21
7.9639641
0
LINE
8
layer0
10
14.7783773
20
7.9639641
11
14.846791
21
7.9644503
0
LINE
8
layer0
10
14.846791
20
7.9644503
11
14.905768
21
7.9711075
0
LINE
8
layer0
10
14.905768
20
7.9711075
11
14.9551044
21
7.9835223
0
LINE
8
layer0
10
14.9551044
20
7.9835223
11
14.9945596
21
8.0012964
0
LINE
8
layer0
10
14.9945596
20
8.0012964
11
15.0239598
21
8.0240365
0
LINE
8
layer0
10
15.0239598
20
8.0240365
11
15.0431028
21
8.0513066
0
LINE
8
layer0
10
15.0431028
20
8.0513066
11
15.0626663
21
8.1014899
0
LINE
8
layer0
10
15.0626663
20
8.1014899
11
15.2589045
21
8.5912431
0
LINE
8
layer0
10
15.2589045
20
8.5912431
11
15.4664509
21
9.0763122
0
LINE
8
layer0
10
15.4664509
20
9.0763122
11
15.4881024
21
9.1256306
0
LINE
8
layer0
10
15.4881024
20
9.1256306
11
15.4938492
21
9.1584497
0
LINE
8
layer0
10
15.4938492
20
9.1584497
11
15.4891397
21
9.1953183
0
LINE
8
layer0
10
15.4891397
20
9.1953183
11
15.4738089
21
9.2357856
0
LINE
8
layer0
10
15.4738089
20
9.2357856
11
15.4477013
21
9.2794503
0
LINE
8
layer0
10
15.4477013
20
9.2794503
11
15.4107057
21
9.3258607
0
LINE
8
layer0
10
15.4107057
20
9.3258607
11
15.3626736
21
9.3745803
0
LINE
8
layer0
10
15.3626736
20
9.3745803
11
15.3035108
21
9.425172
0
LINE
8
layer0
10
15.3035108
20
9.425172
11
15.1003845
21
9.5691443
0
LINE
8
layer0
10
15.1003845
20
9.5691443
11
14.9351777
21
9.6935782
0
LINE
8
layer0
10
14.9351777
20
9.6935782
11
14.7465448
21
9.8484216
0
LINE
8
layer0
10
14.7465448
20
9.8484216
11
14.5336967
21
10.0385368
0
LINE
8
layer0
10
14.5336967
20
10.0385368
11
14.3007373
21
10.264843
0
LINE
8
layer0
10
14.3007373
20
10.264843
11
14.0498061
21
10.5299178
0
LINE
8
layer0
10
14.0498061
20
10.5299178
11
13.7851994
21
10.8339949
0
LINE
8
layer0
10
13.7851994
20
10.8339949
11
13.507427
21
11.1815715
0
LINE
8
layer0
10
13.507427
20
11.1815715
11
13.2537539
21
11.526391
0
ARC
8
layer0
10
36.0000104
20
-0.0000055
40
25.5
50
150.6230734
51
153.1269268
0
LINE
8
layer0
10
13.7790188
20
12.5090927
11
14.2066591
21
12.4897427
0
LINE
8
layer0
10
14.2066591
20
12.4897427
11
14.6499805
21
12.4518866
0
LINE
8
layer0
10
14.6499805
20
12.4518866
11
15.049819
21
12.4008103
0
LINE
8
layer0
10
15.049819
20
12.4008103
11
15.4096306
21
12.3394363
0
LINE
8
layer0
10
15.4096306
20
12.3394363
11
15.7272226
21
12.2714667
0
LINE
8
layer0
10
15.7272226
20
12.2714667
11
16.0035497
21
12.2001122
0
LINE
8
layer0
10
16.0035497
20
12.2001122
11
16.237096
21
12.1292962
0
LINE
8
layer0
10
16.237096
20
12.1292962
11
16.432343
21
12.0610635
0
LINE
8
layer0
10
16.432343
20
12.0610635
11
16.6649025
21
11.9721569
0
LINE
8
layer0
10
16.6649025
20
11.9721569
11
16.7398371
21
11.951072
0
LINE
8
layer0
10
16.7398371
20
11.951072
11
16.8070312
21
11.938202
0
LINE
8
layer0
10
16.8070312
20
11.938202
11
16.8661737
21
11.9332255
0
LINE
8
layer0
10
16.8661737
20
11.9332255
11
16.9169841
21
11.9357766
0
LINE
8
layer0
10
16.9169841
20
11.9357766
11
16.9591488
21
11.9455119
0
LINE
8
layer0
10
16.9591488
20
11.9455119
11
16.9924204
21
11.9620793
0
LINE
8
layer0
10
16.9924204
20
11.9620793
11
17.0165157
21
11.9850908
0
LINE
8
layer0
10
17.0165157
20
11.9850908
11
17.0454936
21
12.0304932
0
LINE
8
layer0
10
17.0454936
20
12.0304932
11
17.3335072
21
12.4725517
0
LINE
8
layer0
10
17.3335072
20
12.4725517
11
17.631698
21
12.9078101
0
LINE
8
layer0
10
17.631698
20
12.9078101
11
17.662555
21
12.9519569
0
LINE
8
layer0
10
17.662555
20
12.9519569
11
17.674594
21
12.9830242
0
LINE
8
layer0
10
17.674594
20
12.9830242
11
17.6771678
21
13.0201032
0
LINE
8
layer0
10
17.6771678
20
13.0201032
11
17.6700263
21
13.0627838
0
LINE
8
layer0
10
17.6700263
20
13.0627838
11
17.6529389
21
13.1107028
0
LINE
8
layer0
10
17.6529389
20
13.1107028
11
17.6257084
21
13.163439
0
LINE
8
layer0
10
17.6257084
20
13.163439
11
17.588104
21
13.220593
0
LINE
8
layer0
10
17.588104
20
13.220593
11
17.5399478
21
13.2817548
0
LINE
8
layer0
10
17.5399478
20
13.2817548
11
17.3688122
21
13.4625886
0
LINE
8
layer0
10
17.3688122
20
13.4625886
11
17.2310556
21
13.6168618
0
LINE
8
layer0
10
17.2310556
20
13.6168618
11
17.0762558
21
13.8055304
0
LINE
8
layer0
10
17.0762558
20
13.8055304
11
16.904587
21
14.0335171
0
LINE
8
layer0
10
16.904587
20
14.0335171
11
16.7202541
21
14.300923
0
LINE
8
layer0
10
16.7202541
20
14.300923
11
16.525858
21
14.6098588
0
LINE
8
layer0
10
16.525858
20
14.6098588
11
16.3256581
21
14.9597154
0
LINE
8
layer0
10
16.3256581
20
14.9597154
11
16.1210319
21
15.354804
0
LINE
8
layer0
10
16.1210319
20
15.354804
11
15.9395039
21
15.7424871
0
ARC
8
layer0
10
36.0000083
20
-0.0000083
40
25.5
50
139.3730708
51
141.8769242
0
LINE
8
layer0
10
16.6463917
20
16.6038324
11
17.0620399
21
16.5014257
0
LINE
8
layer0
10
17.0620399
20
16.5014257
11
17.4894577
21
16.3778093
0
LINE
8
layer0
10
17.4894577
20
16.3778093
11
17.8716489
21
16.2497098
0
LINE
8
layer0
10
17.8716489
20
16.2497098
11
18.2125734
21
16.1193193
0
LINE
8
layer0
10
18.2125734
20
16.1193193
11
18.5108027
21
15.9906966
0
LINE
8
layer0
10
18.5108027
20
15.9906966
11
18.7678997
21
15.8668044
0
LINE
8
layer0
10
18.7678997
20
15.8668044
11
18.983143
21
15.7517864
0
LINE
8
layer0
10
18.983143
20
15.7517864
11
19.1613268
21
15.646774
0
LINE
8
layer0
10
19.1613268
20
15.646774
11
19.3720729
21
15.5142056
0
LINE
8
layer0
10
19.3720729
20
15.5142056
11
19.4414542
21
15.4789069
0
LINE
8
layer0
10
19.4414542
20
15.4789069
11
19.5048464
21
15.4531752
0
LINE
8
layer0
10
19.5048464
20
15.4531752
11
19.5618816
21
15.4367562
0
LINE
8
layer0
10
19.5618816
20
15.4367562
11
19.6122134
21
15.4293457
0
LINE
8
layer0
10
19.6122134
20
15.4293457
11
19.6554672
21
15.430668
0
LINE
8
layer0
10
19.6554672
20
15.430668
11
19.6913316
21
15.4404261
0
LINE
8
layer0
10
19.6913316
20
15.4404261
11
19.7194533
21
15.4582947
0
LINE
8
layer0
10
19.7194533
20
15.4582947
11
19.7567319
21
15.4971714
0
LINE
8
layer0
10
19.7567319
20
15.4971714
11
20.1254528
21
15.8745472
0
LINE
8
layer0
10
20.1254528
20
15.8745472
11
20.5028286
21
16.2432681
0
LINE
8
layer0
10
20.5028286
20
16.2432681
11
20.5417053
21
16.2805467
0
LINE
8
layer0
10
20.5417053
20
16.2805467
11
20.5595739
21
16.3086684
0
LINE
8
layer0
10
20.5595739
20
16.3086684
11
20.569332
21
16.3445328
0
LINE
8
layer0
10
20.569332
20
16.3445328
11
20.5706543
21
16.3877866
0
LINE
8
layer0
10
20.5706543
20
16.3877866
11
20.5632438
21
16.4381184
0
LINE
8
layer0
10
20.5632438
20
16.4381184
11
20.5468248
21
16.4951536
0
LINE
8
layer0
10
20.5468248
20
16.4951536
11
20.5210931
21
16.5585458
0
LINE
8
layer0
10
20.5210931
20
16.5585458
11
20.4857944
21
16.6279271
0
LINE
8
layer0
10
20.4857944
20
16.6279271
11
20.353226
21
16.8386732
0
LINE
8
layer0
10
20.353226
20
16.8386732
11
20.2482136
21
17.016857
0
LINE
8
layer0
10
20.2482136
20
17.016857
11
20.1331956
21
17.2321003
0
LINE
8
layer0
10
20.1331956
20
17.2321003
11
20.0093034
21
17.4891973
0
LINE
8
layer0
10
20.0093034
20
17.4891973
11
19.8806807
21
17.7874266
0
LINE
8
layer0
10
19.8806807
20
17.7874266
11
19.7502902
21
18.1283511
0
LINE
8
layer0
10
19.7502902
20
18.1283511
11
19.6221907
21
18.5105423
0
LINE
8
layer0
10
19.6221907
20
18.5105423
11
19.4985743
21
18.9379601
0
LINE
8
layer0
10
19.4985743
20
18.9379601
11
19.3961676
21
19.3536083
0
ARC
8
layer0
10
36.0000082
20
-0.0000083
40
25.5
50
128.1230758
51
130.6269292
0
LINE
8
layer0
10
20.2575129
20
20.0604961
11
20.645196
21
19.8789681
0
LINE
8
layer0
10
20.645196
20
19.8789681
11
21.0402846
21
19.6743419
0
LINE
8
layer0
10
21.0402846
20
19.6743419
11
21.3901412
21
19.474142
0
LINE
8
layer0
10
21.3901412
20
19.474142
11
21.699077
21
19.2797459
0
LINE
8
layer0
10
21.699077
20
19.2797459
11
21.9664829
21
19.095413
0
LINE
8
layer0
10
21.9664829
20
19.095413
11
22.1944696
21
18.9237442
0
LINE
8
layer0
10
22.1944696
20
18.9237442
11
22.3831382
21
18.7689444
0
LINE
8
layer0
10
22.3831382
20
18.7689444
11
22.5374114
21
18.6311878
0
LINE
8
layer0
10
22.5374114
20
18.6311878
11
22.7182452
21
18.4600522
0
LINE
8
layer0
10
22.7182452
20
18.4600522
11
22.779407
21
18.411896
0
LINE
8
layer0
10
22.779407
20
18.411896
11
22.836561
21
18.3742916
0
LINE
8
layer0
10
22.836561
20
18.3742916
11
22.8892972
21
18.3470611
0
LINE
8
layer0
10
22.8892972
20
18.3470611
11
22.9372162
21
18.3299737
0
LINE
8
layer0
10
22.9372162
20
18.3299737
11
22.9798968
21
18.3228322
0
LINE
8
layer0
10
22.9798968
20
18.3228322
11
23.0169758
21
18.325406
0
LINE
8
layer0
10
23.0169758
20
18.325406
11
23.0480431
21
18.337445
0
LINE
8
layer0
10
23.0480431
20
18.337445
11
23.0921899
21
18.368302
0
LINE
8
layer0
10
23.0921899
20
18.368302
11
23.5274483
21
18.6664928
0
LINE
8
layer0
10
23.5274483
20
18.6664928
11
23.9695068
21
18.9545064
0
LINE
8
layer0
10
23.9695068
20
18.9545064
11
24.0149092
21
18.9834843
0
LINE
8
layer0
10
24.0149092
20
18.9834843
11
24.0379207
21
19.0075796
0
LINE
8
layer0
10
24.0379207
20
19.0075796
11
24.0544881
21
19.0408512
0
LINE
8
layer0
10
24.0544881
20
19.0408512
11
24.0642234
21
19.0830159
0
LINE
8
layer0
10
24.0642234
20
19.0830159
11
24.0667745
21
19.1338263
0
LINE
8
layer0
10
24.0667745
20
19.1338263
11
24.061798
21
19.1929688
0
LINE
8
layer0
10
24.061798
20
19.1929688
11
24.048928
21
19.2601629
0
LINE
8
layer0
10
24.048928
20
19.2601629
11
24.0278431
21
19.3350975
0
LINE
8
layer0
10
24.0278431
20
19.3350975
11
23.9389365
21
19.567657
0
LINE
8
layer0
10
23.9389365
20
19.567657
11
23.8707038
21
19.762904
0
LINE
8
layer0
10
23.8707038
20
19.762904
11
23.7998878
21
19.9964503
0
LINE
8
layer0
10
23.7998878
20
19.9964503
11
23.7285333
21
20.2727774
0
LINE
8
layer0
10
23.7285333
20
20.2727774
11
23.6605637
21
20.5903694
0
LINE
8
layer0
10
23.6605637
20
20.5903694
11
23.5991897
21
20.950181
0
LINE
8
layer0
10
23.5991897
20
20.950181
11
23.5481134
21
21.3500195
0
LINE
8
layer0
10
23.5481134
20
21.3500195
11
23.5102573
21
21.7933409
0
LINE
8
layer0
10
23.5102573
20
21.7933409
11
23.4909073
21
22.2209812
0
ARC
8
layer0
10
36.0000055
20
-0.0000103
40
25.5
50
116.8730732
51
119.3769266
0
LINE
8
layer0
10
24.473609
20
22.7462461
11
24.8184285
21
22.492573
0
LINE
8
layer0
10
24.8184285
20
22.492573
11
25.1660051
21
22.2148006
0
LINE
8
layer0
10
25.1660051
20
22.2148006
11
25.4700822
21
21.9501939
0
LINE
8
layer0
10
25.4700822
20
21.9501939
11
25.735157
21
21.6992627
0
LINE
8
layer0
10
25.735157
20
21.6992627
11
25.9614632
21
21.4663033
0
LINE
8
layer0
10
25.9614632
20
21.4663033
11
26.1515784
21
21.2534552
0
LINE
8
layer0
10
26.1515784
20
21.2534552
11
26.3064218
21
21.0648223
0
LINE
8
layer0
10
26.3064218
20
21.0648223
11
26.4308557
21
20.8996155
0
LINE
8
layer0
10
26.4308557
20
20.8996155
11
26.574828
21
20.6964892
0
LINE
8
layer0
10
26.574828
20
20.6964892
11
26.6254197
21
20.6373264
0
LINE
8
layer0
10
26.6254197
20
20.6373264
11
26.6741393
21
20.5892943
0
LINE
8
layer0
10
26.6741393
20
20.5892943
11
26.7205497
21
20.5522987
0
LINE
8
layer0
10
26.7205497
20
20.5522987
11
26.7642144
21
20.5261911
0
LINE
8
layer0
10
26.7642144
20
20.5261911
11
26.8046817
21
20.5108603
0
LINE
8
layer0
10
26.8046817
20
20.5108603
11
26.8415503
21
20.5061508
0
LINE
8
layer0
10
26.8415503
20
20.5061508
11
26.8743694
21
20.5118976
0
LINE
8
layer0
10
26.8743694
20
20.5118976
11
26.9236878
21
20.5335491
0
LINE
8
layer0
10
26.9236878
20
20.5335491
11
27.4087569
21
20.7410955
0
LINE
8
layer0
10
27.4087569
20
20.7410955
11
27.8985101
21
20.9373337
0
LINE
8
layer0
10
27.8985101
20
20.9373337
11
27.9486934
21
20.9568972
0
LINE
8
layer0
10
27.9486934
20
20.9568972
11
27.9759635
21
20.9760402
0
LINE
8
layer0
10
27.9759635
20
20.9760402
11
27.9987036
21
21.0054404
0
LINE
8
layer0
10
27.9987036
20
21.0054404
11
28.0164777
21
21.0448956
0
LINE
8
layer0
10
28.0164777
20
21.0448956
11
28.0288925
21
21.094232
0
LINE
8
layer0
10
28.0288925
20
21.094232
11
28.0355497
21
21.153209
0
LINE
8
layer0
10
28.0355497
20
21.153209
11
28.0360359
21
21.2216227
0
LINE
8
layer0
10
28.0360359
20
21.2216227
11
28.0299752
21
21.299231
0
LINE
8
layer0
10
28.0299752
20
21.299231
11
27.988147
21
21.5446667
0
LINE
8
layer0
10
27.988147
20
21.5446667
11
27.9593162
21
21.7494736
0
LINE
8
layer0
10
27.9593162
20
21.7494736
11
27.9354235
21
21.992348
0
LINE
8
layer0
10
27.9354235
20
21.992348
11
27.9193488
21
22.2772861
0
LINE
8
layer0
10
27.9193488
20
22.2772861
11
27.9146443
21
22.6020359
0
LINE
8
layer0
10
27.9146443
20
22.6020359
11
27.9246453
21
22.9669073
0
LINE
8
layer0
10
27.9246453
20
22.9669073
11
27.9525551
21
23.3690275
0
LINE
8
layer0
10
27.9525551
20
23.3690275
11
28.0019141
21
23.8112159
0
LINE
8
layer0
10
28.0019141
20
23.8112159
11
28.0663644
21
24.2344142
0
ARC
8
layer0
10
36.0000035
20
-0.0000111
40
25.5
50
105.6230734
51
108.1269269
0
LINE
8
layer0
10
29.1326578
20
24.5578707
11
29.4213626
21
24.2418009
0
LINE
8
layer0
10
29.4213626
20
24.2418009
11
29.7080699
21
23.901557
0
LINE
8
layer0
10
29.7080699
20
23.901557
11
29.954682
21
23.5827122
0
LINE
8
layer0
10
29.954682
20
23.5827122
11
30.1657093
21
23.284889
0
LINE
8
layer0
10
30.1657093
20
23.284889
11
30.3422189
21
23.0122557
0
LINE
8
layer0
10
30.3422189
20
23.0122557
11
30.4871564
21
22.7664077
0
LINE
8
layer0
10
30.4871564
20
22.7664077
11
30.6022241
21
22.551191
0
LINE
8
layer0
10
30.6022241
20
22.551191
11
30.6920368
21
22.3648827
0
LINE
8
layer0
10
30.6920368
20
22.3648827
11
30.7936147
21
22.1375719
0
LINE
8
layer0
10
30.7936147
20
22.1375719
11
30.8316923
21
22.0696758
0
LINE
8
layer0
10
30.8316923
20
22.0696758
11
30.8701052
21
22.013062
0
LINE
8
layer0
10
30.8701052
20
22.013062
11
30.9084063
21
21.967723
0
LINE
8
layer0
10
30.9084063
20
21.967723
11
30.9461387
21
21.9335985
0
LINE
8
layer0
10
30.9461387
20
21.9335985
11
30.9828375
21
21.9106675
0
LINE
8
layer0
10
30.9828375
20
21.9106675
11
31.018079
21
21.8988558
0
LINE
8
layer0
10
31.018079
20
21.8988558
11
31.0513885
21
21.8980894
0
LINE
8
layer0
10
31.0513885
20
21.8980894
11
31.1039833
21
21.9097033
0
LINE
8
layer0
10
31.1039833
20
21.9097033
11
31.6202223
21
22.0186295
0
LINE
8
layer0
10
31.6202223
20
22.0186295
11
32.1388491
21
22.1155509
0
LINE
8
layer0
10
32.1388491
20
22.1155509
11
32.1918849
21
22.1249483
0
LINE
8
layer0
10
32.1918849
20
22.1249483
11
32.2223656
21
22.1384033
0
LINE
8
layer0
10
32.2223656
20
22.1384033
11
32.2504044
21
22.1628022
0
LINE
8
layer0
10
32.2504044
20
22.1628022
11
32.2755343
21
22.1980317
0
LINE
8
layer0
10
32.2755343
20
22.1980317
11
32.2973356
21
22.2439982
0
LINE
8
layer0
10
32.2973356
20
22.2439982
11
32.3153707
21
22.3005432
0
LINE
8
layer0
10
32.3153707
20
22.3005432
11
32.3291945
21
22.3675475
0
LINE
8
layer0
10
32.3291945
20
22.3675475
11
32.3383908
21
22.4448469
0
LINE
8
layer0
10
32.3383908
20
22.4448469
11
32.3452485
21
22.6937269
0
LINE
8
layer0
10
32.3452485
20
22.6937269
11
32.3569275
21
22.9002232
0
LINE
8
layer0
10
32.3569275
20
22.9002232
11
32.3808763
21
23.143092
0
LINE
8
layer0
10
32.3808763
20
23.143092
11
32.4206991
21
23.4256911
0
LINE
8
layer0
10
32.4206991
20
23.4256911
11
32.4794406
21
23.7451187
0
LINE
8
layer0
10
32.4794406
20
23.7451187
11
32.5604323
21
24.1010281
0
LINE
8
layer0
10
32.5604323
20
24.1010281
11
32.6662556
21
24.4899768
0
LINE
8
layer0
10
32.6662556
20
24.4899768
11
32.8009329
21
24.9140392
0
LINE
8
layer0
10
32.8009329
20
24.9140392
11
32.9467066
21
25.3165322
0
ARC
8
layer0
10
36.0000006
20
-0.0000117
40
25.5
50
94.3730721
51
96.8769255
0
LINE
8
layer0
10
34.0556148
20
25.4257501
11
34.27711
21
25.05943
0
LINE
8
layer0
10
34.27711
20
25.05943
11
34.49193
21
24.66979
0
LINE
8
layer0
10
34.49193
20
24.66979
11
34.6716
21
24.30896
0
LINE
8
layer0
10
34.6716
20
24.30896
11
34.82047
21
23.97569
0
LINE
8
layer0
10
34.82047
20
23.97569
11
34.9404
21
23.67386
0
LINE
8
layer0
10
34.9404
20
23.67386
11
35.03459
21
23.40446
0
LINE
8
layer0
10
35.03459
20
23.40446
11
35.10546
21
23.17093
0
LINE
8
layer0
10
35.10546
20
23.17093
11
35.1572
21
22.97068
0
LINE
8
layer0
10
35.1572
20
22.97068
11
35.21248
21
22.72792
0
LINE
8
layer0
10
35.21248
20
22.72792
11
35.23658
21
22.6539
0
LINE
8
layer0
10
35.23658
20
22.6539
11
35.26321
21
22.59088
0
LINE
8
layer0
10
35.26321
20
22.59088
11
35.29193
21
22.53894
0
LINE
8
layer0
10
35.29193
20
22.53894
11
35.32228
21
22.49811
0
LINE
8
layer0
10
35.32228
20
22.49811
11
35.3538
21
22.46846
0
LINE
8
layer0
10
35.3538
20
22.46846
11
35.38606
21
22.45
0
LINE
8
layer0
10
35.38606
20
22.45
11
35.41858
21
22.44275
0
LINE
8
layer0
10
35.41858
20
22.44275
11
35.47243
21
22.44388
0
LINE
8
layer0
10
35.47243
20
22.44388
11
36
21
22.45
0
LINE
8
layer0
10
36
20
22.45
11
36.52757
21
22.44388
0
LINE
8
layer0
10
36.52757
20
22.44388
11
36.58142
21
22.44275
0
LINE
8
layer0
10
36.58142
20
22.44275
11
36.61394
21
22.45
0
LINE
8
layer0
10
36.61394
20
22.45
11
36.6462
21
22.46846
0
LINE
8
layer0
10
36.6462
20
22.46846
11
36.67772
21
22.49811
0
LINE
8
layer0
10
36.67772
20
22.49811
11
36.70807
21
22.53894
0
LINE
8
layer0
10
36.70807
20
22.53894
11
36.73679
21
22.59088
0
LINE
8
layer0
10
36.73679
20
22.59088
11
36.76342
21
22.6539
0
LINE
8
layer0
10
36.76342
20
22.6539
11
36.78752
21
22.72792
0
LINE
8
layer0
10
36.78752
20
22.72792
11
36.8428
21
22.97068
0
LINE
8
layer0
10
36.8428
20
22.97068
11
36.89454
21
23.17093
0
LINE
8
layer0
10
36.89454
20
23.17093
11
36.96541
21
23.40446
0
LINE
8
layer0
10
36.96541
20
23.40446
11
37.0596
21
23.67386
0
LINE
8
layer0
10
37.0596
20
23.67386
11
37.17953
21
23.97569
0
LINE
8
layer0
10
37.17953
20
23.97569
11
37.3284
21
24.30896
0
LINE
8
layer0
10
37.3284
20
24.30896
11
37.50807
21
24.66979
0
LINE
8
layer0
10
37.50807
20
24.66979
11
37.72289
21
25.05943
0
LINE
8
layer0
10
37.72289
20
25.05943
11
37.9443852
21
25.4257501
0
ARC
8
layer0
10
35.9999994
20
-0.0000117
40
25.5
50
83.1230745
51
85.6269279
0
LINE
8
layer0
10
39.0532934
20
25.3165322
11
39.1990671
21
24.9140392
0
LINE
8
layer0
10
39.1990671
20
24.9140392
11
39.3337444
21
24.4899768
0
LINE
8
layer0
10
39.3337444
20
24.4899768
11
39.4395677
21
24.1010281
0
LINE
8
layer0
10
39.4395677
20
24.1010281
11
39.5205594
21
23.7451187
0
LINE
8
layer0
10
39.5205594
20
23.7451187
11
39.5793009
21
23.4256911
0
LINE
8
layer0
10
39.5793009
20
23.4256911
11
39.6191237
21
23.143092
0
LINE
8
layer0
10
39.6191237
20
23.143092
11
39.6430725
21
22.9002232
0
LINE
8
layer0
10
39.6430725
20
22.9002232
11
39.6547515
21
22.6937269
0
LINE
8
layer0
10
39.6547515
20
22.6937269
11
39.6616092
21
22.4448469
0
LINE
8
layer0
10
39.6616092
20
22.4448469
11
39.6708055
21
22.3675475
0
LINE
8
layer0
10
39.6708055
20
22.3675475
11
39.6846293
21
22.3005432
0
LINE
8
layer0
10
39.6846293
20
22.3005432
11
39.7026644
21
22.2439982
0
LINE
8
layer0
10
39.7026644
20
22.2439982
11
39.7244657
21
22.1980317
0
LINE
8
layer0
10
39.7244657
20
22.1980317
11
39.7495956
21
22.1628022
0
LINE
8
layer0
10
39.7495956
20
22.1628022
11
39.7776344
21
22.1384033
0
LINE
8
layer0
10
39.7776344
20
22.1384033
11
39.8081151
21
22.1249483
0
LINE
8
layer0
10
39.8081151
20
22.1249483
11
39.8611509
21
22.1155509
0
LINE
8
layer0
10
39.8611509
20
22.1155509
11
40.3797777
21
22.0186295
0
LINE
8
layer0
10
40.3797777
20
22.0186295
11
40.8960167
21
21.9097033
0
LINE
8
layer0
10
40.8960167
20
21.9097033
11
40.9486115
21
21.8980894
0
LINE
8
layer0
10
40.9486115
20
21.8980894
11
40.981921
21
21.8988558
0
LINE
8
layer0
10
40.981921
20
21.8988558
11
41.0171625
21
21.9106675
0
LINE
8
layer0
10
41.0171625
20
21.9106675
11
41.0538613
21
21.9335985
0
LINE
8
layer0
10
41.0538613
20
21.9335985
11
41.0915937
21
21.967723
0
LINE
8
layer0
10
41.0915937
20
21.967723
11
41.1298948
21
22.013062
0
LINE
8
layer0
10
41.1298948
20
22.013062
11
41.1683077
21
22.0696758
0
LINE
8
layer0
10
41.1683077
20
22.0696758
11
41.2063853
21
22.1375719
0
LINE
8
layer0
10
41.2063853
20
22.1375719
11
41.3079632
21
22.3648827
0
LINE
8
layer0
10
41.3079632
20
22.3648827
11
41.3977759
21
22.551191
0
LINE
8
layer0
10
41.3977759
20
22.551191
11
41.5128436
21
22.7664077
0
LINE
8
layer0
10
41.5128436
20
22.7664077
11
41.6577811
21
23.0122557
0
LINE
8
layer0
10
41.6577811
20
23.0122557
11
41.8342907
21
23.284889
0
LINE
8
layer0
10
41.8342907
20
23.284889
11
42.045318
21
23.5827122
0
LINE
8
layer0
10
42.045318
20
23.5827122
11
42.2919301
21
23.901557
0
LINE
8
layer0
10
42.2919301
20
23.901557
11
42.5786374
21
24.2418009
0
LINE
8
layer0
10
42.5786374
20
24.2418009
11
42.8673422
21
24.5578707
0
ARC
8
layer0
10
35.9999966
20
-0.0000112
40
25.5
50
71.8730731
51
74.3769266
0
LINE
8
layer0
10
43.9336356
20
24.2344142
11
43.9980859
21
23.8112159
0
LINE
8
layer0
10
43.9980859
20
23.8112159
11
44.0474449
21
23.3690275
0
LINE
8
layer0
10
44.0474449
20
23.3690275
11
44.0753547
21
22.9669073
0
LINE
8
layer0
10
44.0753547
20
22.9669073
11
44.0853557
21
22.6020359
0
LINE
8
layer0
10
44.0853557
20
22.6020359
11
44.0806512
21
22.2772861
0
LINE
8
layer0
10
44.0806512
20
22.2772861
11
44.0645765
21
21.992348
0
LINE
8
layer0
10
44.0645765
20
21.992348
11
44.0406838
21
21.7494736
0
LINE
8
layer0
10
44.0406838
20
21.7494736
11
44.011853
21
21.5446667
0
LINE
8
layer0
10
44.011853
20
21.5446667
11
43.9700248
21
21.299231
0
LINE
8
layer0
10
43.9700248
20
21.299231
11
43.9639641
21
21.2216227
0
LINE
8
layer0
10
43.9639641
20
21.2216227
11
43.9644503
21
21.153209
0
LINE
8
layer0
10
43.9644503
20
21.153209
11
43.9711075
21
21.094232
0
LINE
8
layer0
10
43.9711075
20
21.094232
11
43.9835223
21
21.0448956
0
LINE
8
layer0
10
43.9835223
20
21.0448956
11
44.0012964
21
21.0054404
0
LINE
8
layer0
10
44.0012964
20
21.0054404
11
44.0240365
21
20.9760402
0
LINE
8
layer0
10
44.0240365
20
20.9760402
11
44.0513066
21
20.9568972
0
LINE
8
layer0
10
44.0513066
20
20.9568972
11
44.1014899
21
20.9373337
0
LINE
8
layer0
10
44.1014899
20
20.9373337
11
44.5912431
21
20.7410955
0
LINE
8
layer0
10
44.5912431
20
20.7410955
11
45.0763122
21
20.5335491
0
LINE
8
layer0
10
45.0763122
20
20.5335491
11
45.1256306
21
20.5118976
0
LINE
8
layer0
10
45.1256306
20
20.5118976
11
45.1584497
21
20.5061508
0
LINE
8
layer0
10
45.1584497
20
20.5061508
11
45.1953183
21
20.5108603
0
LINE
8
layer0
10
45.1953183
20
20.5108603
11
45.2357856
21
20.5261911
0
LINE
8
layer0
10
45.2357856
20
20.5261911
11
45.2794503
21
20.5522987
0
LINE
8
layer0
10
45.2794503
20
20.5522987
11
45.3258607
21
20.5892943
0
LINE
8
layer0
10
45.3258607
20
20.5892943
11
45.3745803
21
20.6373264
0
LINE
8
layer0
10
45.3745803
20
20.6373264
11
45.425172
21
20.6964892
0
LINE
8
layer0
10
45.425172
20
20.6964892
11
45.5691443
21
20.8996155
0
LINE
8
layer0
10
45.5691443
20
20.8996155
11
45.6935782
21
21.0648223
0
LINE
8
layer0
10
45.6935782
20
21.0648223
11
45.8484216
21
21.2534552
0
LINE
8
layer0
10
45.8484216
20
21.2534552
11
46.0385368
21
21.4663033
0
LINE
8
layer0
10
46.0385368
20
21.4663033
11
46.264843
21
21.6992627
0
LINE
8
layer0
10
46.264843
20
21.6992627
11
46.5299178
21
21.9501939
0
LINE
8
layer0
10
46.5299178
20
21.9501939
11
46.8339949
21
22.2148006
0
LINE
8
layer0
10
46.8339949
20
22.2148006
11
47.1815715
21
22.492573
0
LINE
8
layer0
10
47.1815715
20
22.492573
11
47.526391
21
22.7462461
0
ARC
8
layer0
10
35.9999945
20
-0.0000104
40
25.5
50
60.6230734
51
63.1269268
0
LINE
8
layer0
10
48.5090927
20
22.2209812
11
48.4897427
21
21.7933409
0
LINE
8
layer0
10
48.4897427
20
21.7933409
11
48.4518866
21
21.3500195
0
LINE
8
layer0
10
48.4518866
20
21.3500195
11
48.4008103
21
20.950181
0
LINE
8
layer0
10
48.4008103
20
20.950181
11
48.3394363
21
20.5903694
0
LINE
8
layer0
10
48.3394363
20
20.5903694
11
48.2714667
21
20.2727774
0
LINE
8
layer0
10
48.2714667
20
20.2727774
11
48.2001122
21
19.9964503
0
LINE
8
layer0
10
48.2001122
20
19.9964503
11
48.1292962
21
19.762904
0
LINE
8
layer0
10
48.1292962
20
19.762904
11
48.0610635
21
19.567657
0
LINE
8
layer0
10
48.0610635
20
19.567657
11
47.9721569
21
19.3350975
0
LINE
8
layer0
10
47.9721569
20
19.3350975
11
47.951072
21
19.2601629
0
LINE
8
layer0
10
47.951072
20
19.2601629
11
47.938202
21
19.1929688
0
LINE
8
layer0
10
47.938202
20
19.1929688
11
47.9332255
21
19.1338263
0
LINE
8
layer0
10
47.9332255
20
19.1338263
11
47.9357766
21
19.0830159
0
LINE
8
layer0
10
47.9357766
20
19.0830159
11
47.9455119
21
19.0408512
0
LINE
8
layer0
10
47.9455119
20
19.0408512
11
47.9620793
21
19.0075796
0
LINE
8
layer0
10
47.9620793
20
19.0075796
11
47.9850908
21
18.9834843
0
LINE
8
layer0
10
47.9850908
20
18.9834843
11
48.0304932
21
18.9545064
0
LINE
8
layer0
10
48.0304932
20
18.9545064
11
48.4725517
21
18.6664928
0
LINE
8
layer0
10
48.4725517
20
18.6664928
11
48.9078101
21
18.368302
0
LINE
8
layer0
10
48.9078101
20
18.368302
11
48.9519569
21
18.337445
0
LINE
8
layer0
10
48.9519569
20
18.337445
11
48.9830242
21
18.325406
0
LINE
8
layer0
10
48.9830242
20
18.325406
11
49.0201032
21
18.3228322
0
LINE
8
layer0
10
49.0201032
20
18.3228322
11
49.0627838
21
18.3299737
0
LINE
8
layer0
10
49.0627838
20
18.3299737
11
49.1107028
21
18.3470611
0
LINE
8
layer0
10
49.1107028
20
18.3470611
11
49.163439
21
18.3742916
0
LINE
8
layer0
10
49.163439
20
18.3742916
11
49.220593
21
18.411896
0
LINE
8
layer0
10
49.220593
20
18.411896
11
49.2817548
21
18.4600522
0
LINE
8
layer0
10
49.2817548
20
18.4600522
11
49.4625886
21
18.6311878
0
LINE
8
layer0
10
49.4625886
20
18.6311878
11
49.6168618
21
18.7689444
0
LINE
8
layer0
10
49.6168618
20
18.7689444
11
49.8055304
21
18.9237442
0
LINE
8
layer0
10
49.8055304
20
18.9237442
11
50.0335171
21
19.095413
0
LINE
8
layer0
10
50.0335171
20
19.095413
11
50.300923
21
19.2797459
0
LINE
8
layer0
10
50.300923
20
19.2797459
11
50.6098588
21
19.474142
0
LINE
8
layer0
10
50.6098588
20
19.474142
11
50.9597154
21
19.6743419
0
LINE
8
layer0
10
50.9597154
20
19.6743419
11
51.354804
21
19.8789681
0
LINE
8
layer0
10
51.354804
20
19.8789681
11
51.7424871
21
20.0604961
0
ARC
8
layer0
10
35.9999917
20
-0.0000083
40
25.5
50
49.3730708
51
51.8769242
0
LINE
8
layer0
10
52.6038324
20
19.3536083
11
52.5014257
21
18.9379601
0
LINE
8
layer0
10
52.5014257
20
18.9379601
11
52.3778093
21
18.5105423
0
LINE
8
layer0
10
52.3778093
20
18.5105423
11
52.2497098
21
18.1283511
0
LINE
8
layer0
10
52.2497098
20
18.1283511
11
52.1193193
21
17.7874266
0
LINE
8
layer0
10
52.1193193
20
17.7874266
11
51.9906966
21
17.4891973
0
LINE
8
layer0
10
51.9906966
20
17.4891973
11
51.8668044
21
17.2321003
0
LINE
8
layer0
10
51.8668044
20
17.2321003
11
51.7517864
21
17.016857
0
LINE
8
layer0
10
51.7517864
20
17.016857
11
51.646774
21
16.8386732
0
LINE
8
layer0
10
51.646774
20
16.8386732
11
51.5142056
21
16.6279271
0
LINE
8
layer0
10
51.5142056
20
16.6279271
11
51.4789069
21
16.5585458
0
LINE
8
layer0
10
51.4789069
20
16.5585458
11
51.4531752
21
16.4951536
0
LINE
8
layer0
10
51.4531752
20
16.4951536
11
51.4367562
21
16.4381184
0
LINE
8
layer0
10
51.4367562
20
16.4381184
11
51.4293457
21
16.3877866
0
LINE
8
layer0
10
51.4293457
20
16.3877866
11
51.430668
21
16.3445328
0
LINE
8
layer0
10
51.430668
20
16.3445328
11
51.4404261
21
16.3086684
0
LINE
8
layer0
10
51.4404261
20
16.3086684
11
51.4582947
21
16.2805467
0
LINE
8
layer0
10
51.4582947
20
16.2805467
11
51.4971714
21
16.2432681
0
LINE
8
layer0
10
51.4971714
20
16.2432681
11
51.8745472
21
15.8745472
0
LINE
8
layer0
10
51.8745472
20
15.8745472
11
52.2432681
21
15.4971714
0
LINE
8
layer0
10
52.2432681
20
15.4971714
11
52.2805467
21
15.4582947
0
LINE
8
layer0
10
52.2805467
20
15.4582947
11
52.3086684
21
15.4404261
0
LINE
8
layer0
10
52.3086684
20
15.4404261
11
52.3445328
21
15.430668
0
LINE
8
layer0
10
52.3445328
20
15.430668
11
52.3877866
21
15.4293457
0
LINE
8
layer0
10
52.3877866
20
15.4293457
11
52.4381184
21
15.4367562
0
LINE
8
layer0
10
52.4381184
20
15.4367562
11
52.4951536
21
15.4531752
0
LINE
8
layer0
10
52.4951536
20
15.4531752
11
52.5585458
21
15.4789069
0
LINE
8
layer0
10
52.5585458
20
15.4789069
11
52.6279271
21
15.5142056
0
LINE
8
layer0
10
52.6279271
20
15.5142056
11
52.8386732
21
15.646774
0
LINE
8
layer0
10
52.8386732
20
15.646774
11
53.016857
21
15.7517864
0
LINE
8
layer0
10
53.016857
20
15.7517864
11
53.2321003
21
15.8668044
0
LINE
8
layer0
10
53.2321003
20
15.8668044
11
53.4891973
21
15.9906966
0
LINE
8
layer0
10
53.4891973
20
15.9906966
11
53.7874266
21
16.1193193
0
LINE
8
layer0
10
53.7874266
20
16.1193193
11
54.1283511
21
16.2497098
0
LINE
8
layer0
10
54.1283511
20
16.2497098
11
54.5105423
21
16.3778093
0
LINE
8
layer0
10
54.5105423
20
16.3778093
11
54.9379601
21
16.5014257
0
LINE
8
layer0
10
54.9379601
20
16.5014257
11
55.3536083
21
16.6038324
0
ARC
8
layer0
10
35.9999917
20
-0.0000082
40
25.5
50
38.1230758
51
40.6269292
0
LINE
8
layer0
10
56.0604961
20
15.7424871
11
55.8789681
21
15.354804
0
LINE
8
layer0
10
55.8789681
20
15.354804
11
55.6743419
21
14.9597154
0
LINE
8
layer0
10
55.6743419
20
14.9597154
11
55.474142
21
14.6098588
0
LINE
8
layer0
10
55.474142
20
14.6098588
11
55.2797459
21
14.300923
0
LINE
8
layer0
10
55.2797459
20
14.300923
11
55.095413
21
14.0335171
0
LINE
8
layer0
10
55.095413
20
14.0335171
11
54.9237442
21
13.8055304
0
LINE
8
layer0
10
54.9237442
20
13.8055304
11
54.7689444
21
13.6168618
0
LINE
8
layer0
10
54.7689444
20
13.6168618
11
54.6311878
21
13.4625886
0
LINE
8
layer0
10
54.6311878
20
13.4625886
11
54.4600522
21
13.2817548
0
LINE
8
layer0
10
54.4600522
20
13.2817548
11
54.411896
21
13.220593
0
LINE
8
layer0
10
54.411896
20
13.220593
11
54.3742916
21
13.163439
0
LINE
8
layer0
10
54.3742916
20
13.163439
11
54.3470611
21
13.1107028
0
LINE
8
layer0
10
54.3470611
20
13.1107028
11
54.3299737
21
13.0627838
0
LINE
8
layer0
10
54.3299737
20
13.0627838
11
54.3228322
21
13.0201032
0
LINE
8
layer0
10
54.3228322
20
13.0201032
11
54.325406
21
12.9830242
0
LINE
8
layer0
10
54.325406
20
12.9830242
11
54.337445
21
12.9519569
0
LINE
8
layer0
10
54.337445
20
12.9519569
11
54.368302
21
12.9078101
0
LINE
8
layer0
10
54.368302
20
12.9078101
11
54.6664928
21
12.4725517
0
LINE
8
layer0
10
54.6664928
20
12.4725517
11
54.9545064
21
12.0304932
0
LINE
8
layer0
10
54.9545064
20
12.0304932
11
54.9834843
21
11.9850908
0
LINE
8
layer0
10
54.9834843
20
11.9850908
11
55.0075796
21
11.9620793
0
LINE
8
layer0
10
55.0075796
20
11.9620793
11
55.0408512
21
11.9455119
0
LINE
8
layer0
10
55.0408512
20
11.9455119
11
55.0830159
21
11.9357766
0
LINE
8
layer0
10
55.0830159
20
11.9357766
11
55.1338263
21
11.9332255
0
LINE
8
layer0
10
55.1338263
20
11.9332255
11
55.1929688
21
11.938202
0
LINE
8
layer0
10
55.1929688
20
11.938202
11
55.2601629
21
11.951072
0
LINE
8
layer0
10
55.2601629
20
11.951072
11
55.3350975
21
11.9721569
0
LINE
8
layer0
10
55.3350975
20
11.9721569
11
55.567657
21
12.0610635
0
LINE
8
layer0
10
55.567657
20
12.0610635
11
55.762904
21
12.1292962
0
LINE
8
layer0
10
55.762904
20
12.1292962
11
55.9964503
21
12.2001122
0
LINE
8
layer0
10
55.9964503
20
12.2001122
11
56.2727774
21
12.2714667
0
LINE
8
layer0
10
56.2727774
20
12.2714667
11
56.5903694
21
12.3394363
0
LINE
8
layer0
10
56.5903694
20
12.3394363
11
56.950181
21
12.4008103
0
LINE
8
layer0
10
56.950181
20
12.4008103
11
57.3500195
21
12.4518866
0
LINE
8
layer0
10
57.3500195
20
12.4518866
11
57.7933409
21
12.4897427
0
LINE
8
layer0
10
57.7933409
20
12.4897427
11
58.2209812
21
12.5090927
0
ARC
8
layer0
10
35.9999897
20
-0.0000055
40
25.5
50
26.8730732
51
29.3769266
0
LINE
8
layer0
10
58.7462461
20
11.526391
11
58.492573
21
11.1815715
0
LINE
8
layer0
10
58.492573
20
11.1815715
11
58.2148006
21
10.8339949
0
LINE
8
layer0
10
58.2148006
20
10.8339949
11
57.9501939
21
10.5299178
0
LINE
8
layer0
10
57.9501939
20
10.5299178
11
57.6992627
21
10.264843
0
LINE
8
layer0
10
57.6992627
20
10.264843
11
57.4663033
21
10.0385368
0
LINE
8
layer0
10
57.4663033
20
10.0385368
11
57.2534552
21
9.8484216
0
LINE
8
layer0
10
57.2534552
20
9.8484216
11
57.0648223
21
9.6935782
0
LINE
8
layer0
10
57.0648223
20
9.6935782
11
56.8996155
21
9.5691443
0
LINE
8
layer0
10
56.8996155
20
9.5691443
11
56.6964892
21
9.425172
0
LINE
8
layer0
10
56.6964892
20
9.425172
11
56.6373264
21
9.3745803
0
LINE
8
layer0
10
56.6373264
20
9.3745803
11
56.5892943
21
9.3258607
0
LINE
8
layer0
10
56.5892943
20
9.3258607
11
56.5522987
21
9.2794503
0
LINE
8
layer0
10
56.5522987
20
9.2794503
11
56.5261911
21
9.2357856
0
LINE
8
layer0
10
56.5261911
20
9.2357856
11
56.5108603
21
9.1953183
0
LINE
8
layer0
10
56.5108603
20
9.1953183
11
56.5061508
21
9.1584497
0
LINE
8
layer0
10
56.5061508
20
9.1584497
11
56.5118976
21
9.1256306
0
LINE
8
layer0
10
56.5118976
20
9.1256306
11
56.5335491
21
9.0763122
0
LINE
8
layer0
10
56.5335491
20
9.0763122
11
56.7410955
21
8.5912431
0
LINE
8
layer0
10
56.7410955
20
8.5912431
11
56.9373337
21
8.1014899
0
LINE
8
layer0
10
56.9373337
20
8.1014899
11
56.9568972
21
8.0513066
0
LINE
8
layer0
10
56.9568972
20
8.0513066
11
56.9760402
21
8.0240365
0
LINE
8
layer0
10
56.9760402
20
8.0240365
11
57.0054404
21
8.0012964
0
LINE
8
layer0
10
57.0054404
20
8.0012964
11
57.0448956
21
7.9835223
0
LINE
8
layer0
10
57.0448956
20
7.9835223
11
57.094232
21
7.9711075
0
LINE
8
layer0
10
57.094232
20
7.9711075
11
57.153209
21
7.9644503
0
LINE
8
layer0
10
57.153209
20
7.9644503
11
57.2216227
21
7.9639641
0
LINE
8
layer0
10
57.2216227
20
7.9639641
11
57.299231
21
7.9700248
0
LINE
8
layer0
10
57.299231
20
7.9700248
11
57.5446667
21
8.011853
0
LINE
8
layer0
10
57.5446667
20
8.011853
11
57.7494736
21
8.0406838
0
LINE
8
layer0
10
57.7494736
20
8.0406838
11
57.992348
21
8.0645765
0
LINE
8
layer0
10
57.992348
20
8.0645765
11
58.2772861
21
8.0806512
0
LINE
8
layer0
10
58.2772861
20
8.0806512
11
58.6020359
21
8.0853557
0
LINE
8
layer0
10
58.6020359
20
8.0853557
11
58.9669073
21
8.0753547
0
LINE
8
layer0
10
58.9669073
20
8.0753547
11
59.3690275
21
8.0474449
0
LINE
8
layer0
10
59.3690275
20
8.0474449
11
59.8112159
21
7.9980859
0
LINE
8
layer0
10
59.8112159
20
7.9980859
11
60.2344142
21
7.9336356
0
ARC
8
layer0
10
35.9999889
20
-0.0000035
40
25.5
50
15.6230734
51
18.1269269
0
LINE
8
layer0
10
60.5578707
20
6.8673422
11
60.2418009
21
6.5786374
0
LINE
8
layer0
10
60.2418009
20
6.5786374
11
59.901557
21
6.2919301
0
LINE
8
layer0
10
59.901557
20
6.2919301
11
59.5827122
21
6.045318
0
LINE
8
layer0
10
59.5827122
20
6.045318
11
59.284889
21
5.8342907
0
LINE
8
layer0
10
59.284889
20
5.8342907
11
59.0122557
21
5.6577811
0
LINE
8
layer0
10
59.0122557
20
5.6577811
11
58.7664077
21
5.5128436
0
LINE
8
layer0
10
58.7664077
20
5.5128436
11
58.551191
21
5.3977759
0
LINE
8
layer0
10
58.551191
20
5.3977759
11
58.3648827
21
5.3079632
0
LINE
8
layer0
10
58.3648827
20
5.3079632
11
58.1375719
21
5.2063853
0
LINE
8
layer0
10
58.1375719
20
5.2063853
11
58.0696758
21
5.1683077
0
LINE
8
layer0
10
58.0696758
20
5.1683077
11
58.013062
21
5.1298948
0
LINE
8
layer0
10
58.013062
20
5.1298948
11
57.967723
21
5.0915937
0
LINE
8
layer0
10
57.967723
20
5.0915937
11
57.9335985
21
5.0538613
0
LINE
8
layer0
10
57.9335985
20
5.0538613
11
57.9106675
21
5.0171625
0
LINE
8
layer0
10
57.9106675
20
5.0171625
11
57.8988558
21
4.981921
0
LINE
8
layer0
10
57.8988558
20
4.981921
11
57.8980894
21
4.9486115
0
LINE
8
layer0
10
57.8980894
20
4.9486115
11
57.9097033
21
4.8960167
0
LINE
8
layer0
10
57.9097033
20
4.8960167
11
58.0186295
21
4.3797777
0
LINE
8
layer0
10
58.0186295
20
4.3797777
11
58.1155509
21
3.8611509
0
LINE
8
layer0
10
58.1155509
20
3.8611509
11
58.1249483
21
3.8081151
0
LINE
8
layer0
10
58.1249483
20
3.8081151
11
58.1384033
21
3.7776344
0
LINE
8
layer0
10
58.1384033
20
3.7776344
11
58.1628022
21
3.7495956
0
LINE
8
layer0
10
58.1628022
20
3.7495956
11
58.1980317
21
3.7244657
0
LINE
8
layer0
10
58.1980317
20
3.7244657
11
58.2439982
21
3.7026644
0
LINE
8
layer0
10
58.2439982
20
3.7026644
11
58.3005432
21
3.6846293
0
LINE
8
layer0
10
58.3005432
20
3.6846293
11
58.3675475
21
3.6708055
0
LINE
8
layer0
10
58.3675475
20
3.6708055
11
58.4448469
21
3.6616092
0
LINE
8
layer0
10
58.4448469
20
3.6616092
11
58.6937269
21
3.6547515
0
LINE
8
layer0
10
58.6937269
20
3.6547515
11
58.9002232
21
3.6430725
0
LINE
8
layer0
10
58.9002232
20
3.6430725
11
59.143092
21
3.6191237
0
LINE
8
layer0
10
59.143092
20
3.6191237
11
59.4256911
21
3.5793009
0
LINE
8
layer0
10
59.4256911
20
3.5793009
11
59.7451187
21
3.5205594
0
LINE
8
layer0
10
59.7451187
20
3.5205594
11
60.1010281
21
3.4395677
0
LINE
8
layer0
10
60.1010281
20
3.4395677
11
60.4899768
21
3.3337444
0
LINE
8
layer0
10
60.4899768
20
3.3337444
11
60.9140392
21
3.1990671
0
LINE
8
layer0
10
60.9140392
20
3.1990671
11
61.3165322
21
3.0532934
0
ARC
8
layer0
10
35.9999883
20
-6e-7
40
25.5
50
4.3730721
51
6.8769255
0
LINE
8
layer0
10
61.4257501
20
1.9443852
11
61.05943
21
1.72289
0
LINE
8
layer0
10
61.05943
20
1.72289
11
60.66979
21
1.50807
0
LINE
8
layer0
10
60.66979
20
1.50807
11
60.30896
21
1.3284
0
LINE
8
layer0
10
60.30896
20
1.3284
11
59.97569
21
1.17953
0
LINE
8
layer0
10
59.97569
20
1.17953
11
59.67386
21
1.0596
0
LINE
8
layer0
10
59.67386
20
1.0596
11
59.40446
21
0.96541
0
LINE
8
layer0
10
59.40446
20
0.96541
11
59.17093
21
0.89454
0
LINE
8
layer0
10
59.17093
20
0.89454
11
58.97068
21
0.8428
0
LINE
8
layer0
10
58.97068
20
0.8428
11
58.72792
21
0.78752
0
LINE
8
layer0
10
58.72792
20
0.78752
11
58.6539
21
0.76342
0
LINE
8
layer0
10
58.6539
20
0.76342
11
58.59088
21
0.73679
0
LINE
8
layer0
10
58.59088
20
0.73679
11
58.53894
21
0.70807
0
LINE
8
layer0
10
58.53894
20
0.70807
11
58.49811
21
0.67772
0
LINE
8
layer0
10
58.49811
20
0.67772
11
58.46846
21
0.6462
0
LINE
8
layer0
10
58.46846
20
0.6462
11
58.45
21
0.61394
0
LINE
8
layer0
10
58.45
20
0.61394
11
58.44275
21
0.58142
0
LINE
8
layer0
10
58.44275
20
0.58142
11
58.44388
21
0.52757
0
LINE
8
layer0
10
58.44388
20
0.52757
11
58.45
21
0
0
LINE
8
layer0
10
58.45
20
0
11
58.44388
21
-0.52757
0
LINE
8
layer0
10
58.44388
20
-0.52757
11
58.44275
21
-0.58142
0
LINE
8
layer0
10
58.44275
20
-0.58142
11
58.45
21
-0.61394
0
LINE
8
layer0
10
58.45
20
-0.61394
11
58.46846
21
-0.6462
0
LINE
8
layer0
10
58.46846
20
-0.6462
11
58.49811
21
-0.67772
0
LINE
8
layer0
10
58.49811
20
-0.67772
11
58.53894
21
-0.70807
0
LINE
8
layer0
10
58.53894
20
-0.70807
11
58.59088
21
-0.73679
0
LINE
8
layer0
10
58.59088
20
-0.73679
11
58.6539
21
-0.76342
0
LINE
8
layer0
10
58.6539
20
-0.76342
11
58.72792
21
-0.78752
0
LINE
8
layer0
10
58.72792
20
-0.78752
11
58.97068
21
-0.8428
0
LINE
8
layer0
10
58.97068
20
-0.8428
11
59.17093
21
-0.89454
0
LINE
8
layer0
10
59.17093
20
-0.89454
11
59.40446
21
-0.96541
0
LINE
8
layer0
10
59.40446
20
-0.96541
11
59.67386
21
-1.0596
0
LINE
8
layer0
10
59.67386
20
-1.0596
11
59.97569
21
-1.17953
0
LINE
8
layer0
10
59.97569
20
-1.17953
11
60.30896
21
-1.3284
0
LINE
8
layer0
10
60.30896
20
-1.3284
11
60.66979
21
-1.50807
0
LINE
8
layer0
10
60.66979
20
-1.50807
11
61.05943
21
-1.72289
0
LINE
8
layer0
10
61.05943
20
-1.72289
11
61.4257501
21
-1.9443852
0
ARC
8
layer0
10
35.9999883
20
6e-7
40
25.5
50
353.1230745
51
355.6269279
0
LINE
8
layer0
10
61.3165322
20
-3.0532934
11
60.9140392
21
-3.1990671
0
LINE
8
layer0
10
60.9140392
20
-3.1990671
11
60.4899768
21
-3.3337444
0
LINE
8
layer0
10
60.4899768
20
-3.3337444
11
60.1010281
21
-3.4395677
0
LINE
8
layer0
10
60.1010281
20
-3.4395677
11
59.7451187
21
-3.5205594
0
LINE
8
layer0
10
59.7451187
20
-3.5205594
11
59.4256911
21
-3.5793009
0
LINE
8
layer0
10
59.4256911
20
-3.5793009
11
59.143092
21
-3.6191237
0
LINE
8
layer0
10
59.143092
20
-3.6191237
11
58.9002232
21
-3.6430725
0
LINE
8
layer0
10
58.9002232
20
-3.6430725
11
58.6937269
21
-3.6547515
0
LINE
8
layer0
10
58.6937269
20
-3.6547515
11
58.4448469
21
-3.6616092
0
LINE
8
layer0
10
58.4448469
20
-3.6616092
11
58.3675475
21
-3.6708055
0
LINE
8
layer0
10
58.3675475
20
-3.6708055
11
58.3005432
21
-3.6846293
0
LINE
8
layer0
10
58.3005432
20
-3.6846293
11
58.2439982
21
-3.7026644
0
LINE
8
layer0
10
58.2439982
20
-3.7026644
11
58.1980317
21
-3.7244657
0
LINE
8
layer0
10
58.1980317
20
-3.7244657
11
58.1628022
21
-3.7495956
0
LINE
8
layer0
10
58.1628022
20
-3.7495956
11
58.1384033
21
-3.7776344
0
LINE
8
layer0
10
58.1384033
20
-3.7776344
11
58.1249483
21
-3.8081151
0
LINE
8
layer0
10
58.1249483
20
-3.8081151
11
58.1155509
21
-3.8611509
0
LINE
8
layer0
10
58.1155509
20
-3.8611509
11
58.0186295
21
-4.3797777
0
LINE
8
layer0
10
58.0186295
20
-4.3797777
11
57.9097033
21
-4.8960167
0
LINE
8
layer0
10
57.9097033
20
-4.8960167
11
57.8980894
21
-4.9486115
0
LINE
8
layer0
10
57.8980894
20
-4.9486115
11
57.8988558
21
-4.981921
0
LINE
8
layer0
10
57.8988558
20
-4.981921
11
57.9106675
21
-5.0171625
0
LINE
8
layer0
10
57.9106675
20
-5.0171625
11
57.9335985
21
-5.0538613
0
LINE
8
layer0
10
57.9335985
20
-5.0538613
11
57.967723
21
-5.0915937
0
LINE
8
layer0
10
57.967723
20
-5.0915937
11
58.013062
21
-5.1298948
0
LINE
8
layer0
10
58.013062
20
-5.1298948
11
58.0696758
21
-5.1683077
0
LINE
8
layer0
10
58.0696758
20
-5.1683077
11
58.1375719
21
-5.2063853
0
LINE
8
layer0
10
58.1375719
20
-5.2063853
11
58.3648827
21
-5.3079632
0
LINE
8
layer0
10
58.3648827
20
-5.3079632
11
58.551191
21
-5.3977759
0
LINE
8
layer0
10
58.551191
20
-5.3977759
11
58.7664077
21
-5.5128436
0
LINE
8
layer0
10
58.7664077
20
-5.5128436
11
59.0122557
21
-5.6577811
0
LINE
8
layer0
10
59.0122557
20
-5.6577811
11
59.284889
21
-5.8342907
0
LINE
8
layer0
10
59.284889
20
-5.8342907
11
59.5827122
21
-6.045318
0
LINE
8
layer0
10
59.5827122
20
-6.045318
11
59.901557
21
-6.2919301
0
LINE
8
layer0
10
59.901557
20
-6.2919301
11
60.2418009
21
-6.5786374
0
LINE
8
layer0
10
60.2418009
20
-6.5786374
11
60.5578707
21
-6.8673422
0
ARC
8
layer0
10
35.9999888
20
0.0000034
40
25.5
50
341.8730731
51
344.3769266
0
LINE
8
layer0
10
60.2344142
20
-7.9336356
11
59.8112159
21
-7.9980859
0
LINE
8
layer0
10
59.8112159
20
-7.9980859
11
59.3690275
21
-8.0474449
0
LINE
8
layer0
10
59.3690275
20
-8.0474449
11
58.9669073
21
-8.0753547
0
LINE
8
layer0
10
58.9669073
20
-8.0753547
11
58.6020359
21
-8.0853557
0
LINE
8
layer0
10
58.6020359
20
-8.0853557
11
58.2772861
21
-8.0806512
0
LINE
8
layer0
10
58.2772861
20
-8.0806512
11
57.992348
21
-8.0645765
0
LINE
8
layer0
10
57.992348
20
-8.0645765
11
57.7494736
21
-8.0406838
0
LINE
8
layer0
10
57.7494736
20
-8.0406838
11
57.5446667
21
-8.011853
0
LINE
8
layer0
10
57.5446667
20
-8.011853
11
57.299231
21
-7.9700248
0
LINE
8
layer0
10
57.299231
20
-7.9700248
11
57.2216227
21
-7.9639641
0
LINE
8
layer0
10
57.2216227
20
-7.9639641
11
57.153209
21
-7.9644503
0
LINE
8
layer0
10
57.153209
20
-7.9644503
11
57.094232
21
-7.9711075
0
LINE
8
layer0
10
57.094232
20
-7.9711075
11
57.0448956
21
-7.9835223
0
LINE
8
layer0
10
57.0448956
20
-7.9835223
11
57.0054404
21
-8.0012964
0
LINE
8
layer0
10
57.0054404
20
-8.0012964
11
56.9760402
21
-8.0240365
0
LINE
8
layer0
10
56.9760402
20
-8.0240365
11
56.9568972
21
-8.0513066
0
LINE
8
layer0
10
56.9568972
20
-8.0513066
11
56.9373337
21
-8.1014899
0
LINE
8
layer0
10
56.9373337
20
-8.1014899
11
56.7410955
21
-8.5912431
0
LINE
8
layer0
10
56.7410955
20
-8.5912431
11
56.5335491
21
-9.0763122
0
LINE
8
layer0
10
56.5335491
20
-9.0763122
11
56.5118976
21
-9.1256306
0
LINE
8
layer0
10
56.5118976
20
-9.1256306
11
56.5061508
21
-9.1584497
0
LINE
8
layer0
10
56.5061508
20
-9.1584497
11
56.5108603
21
-9.1953183
0
LINE
8
layer0
10
56.5108603
20
-9.1953183
11
56.5261911
21
-9.2357856
0
LINE
8
layer0
10
56.5261911
20
-9.2357856
11
56.5522987
21
-9.2794503
0
LINE
8
layer0
10
56.5522987
20
-9.2794503
11
56.5892943
21
-9.3258607
0
LINE
8
layer0
10
56.5892943
20
-9.3258607
11
56.6373264
21
-9.3745803
0
LINE
8
layer0
10
56.6373264
20
-9.3745803
11
56.6964892
21
-9.425172
0
LINE
8
layer0
10
56.6964892
20
-9.425172
11
56.8996155
21
-9.5691443
0
LINE
8
layer0
10
56.8996155
20
-9.5691443
11
57.0648223
21
-9.6935782
0
LINE
8
layer0
10
57.0648223
20
-9.6935782
11
57.2534552
21
-9.8484216
0
LINE
8
layer0
10
57.2534552
20
-9.8484216
11
57.4663033
21
-10.0385368
0
LINE
8
layer0
10
57.4663033
20
-10.0385368
11
57.6992627
21
-10.264843
0
LINE
8
layer0
10
57.6992627
20
-10.264843
11
57.9501939
21
-10.5299178
0
LINE
8
layer0
10
57.9501939
20
-10.5299178
11
58.2148006
21
-10.8339949
0
LINE
8
layer0
10
58.2148006
20
-10.8339949
11
58.492573
21
-11.1815715
0
LINE
8
layer0
10
58.492573
20
-11.1815715
11
58.7462461
21
-11.526391
0
ARC
8
layer0
10
35.9999896
20
0.0000055
40
25.5
50
330.6230734
51
333.1269268
0
LINE
8
layer0
10
58.2209812
20
-12.5090927
11
57.7933409
21
-12.4897427
0
LINE
8
layer0
10
57.7933409
20
-12.4897427
11
57.3500195
21
-12.4518866
0
LINE
8
layer0
10
57.3500195
20
-12.4518866
11
56.950181
21
-12.4008103
0
LINE
8
layer0
10
56.950181
20
-12.4008103
11
56.5903694
21
-12.3394363
0
LINE
8
layer0
10
56.5903694
20
-12.3394363
11
56.2727774
21
-12.2714667
0
LINE
8
layer0
10
56.2727774
20
-12.2714667
11
55.9964503
21
-12.2001122
0
LINE
8
layer0
10
55.9964503
20
-12.2001122
11
55.762904
21
-12.1292962
0
LINE
8
layer0
10
55.762904
20
-12.1292962
11
55.567657
21
-12.0610635
0
LINE
8
layer0
10
55.567657
20
-12.0610635
11
55.3350975
21
-11.9721569
0
LINE
8
layer0
10
55.3350975
20
-11.9721569
11
55.2601629
21
-11.951072
0
LINE
8
layer0
10
55.2601629
20
-11.951072
11
55.1929688
21
-11.938202
0
LINE
8
layer0
10
55.1929688
20
-11.938202
11
55.1338263
21
-11.9332255
0
LINE
8
layer0
10
55.1338263
20
-11.9332255
11
55.0830159
21
-11.9357766
0
LINE
8
layer0
10
55.0830159
20
-11.9357766
11
55.0408512
21
-11.9455119
0
LINE
8
layer0
10
55.0408512
20
-11.9455119
11
55.0075796
21
-11.9620793
0
LINE
8
layer0
10
55.0075796
20
-11.9620793
11
54.9834843
21
-11.9850908
0
LINE
8
layer0
10
54.9834843
20
-11.9850908
11
54.9545064
21
-12.0304932
0
LINE
8
layer0
10
54.9545064
20
-12.0304932
11
54.6664928
21
-12.4725517
0
LINE
8
layer0
10
54.6664928
20
-12.4725517
11
54.368302
21
-12.9078101
0
LINE
8
layer0
10
54.368302
20
-12.9078101
11
54.337445
21
-12.9519569
0
LINE
8
layer0
10
54.337445
20
-12.9519569
11
54.325406
21
-12.9830242
0
LINE
8
layer0
10
54.325406
20
-12.9830242
11
54.3228322
21
-13.0201032
0
LINE
8
layer0
10
54.3228322
20
-13.0201032
11
54.3299737
21
-13.0627838
0
LINE
8
layer0
10
54.3299737
20
-13.0627838
11
54.3470611
21
-13.1107028
0
LINE
8
layer0
10
54.3470611
20
-13.1107028
11
54.3742916
21
-13.163439
0
LINE
8
layer0
10
54.3742916
20
-13.163439
11
54.411896
21
-13.220593
0
LINE
8
layer0
10
54.411896
20
-13.220593
11
54.4600522
21
-13.2817548
0
LINE
8
layer0
10
54.4600522
20
-13.2817548
11
54.6311878
21
-13.4625886
0
LINE
8
layer0
10
54.6311878
20
-13.4625886
11
54.7689444
21
-13.6168618
0
LINE
8
layer0
10
54.7689444
20
-13.6168618
11
54.9237442
21
-13.8055304
0
LINE
8
layer0
10
54.9237442
20
-13.8055304
11
55.095413
21
-14.0335171
0
LINE
8
layer0
10
55.095413
20
-14.0335171
11
55.2797459
21
-14.300923
0
LINE
8
layer0
10
55.2797459
20
-14.300923
11
55.474142
21
-14.6098588
0
LINE
8
layer0
10
55.474142
20
-14.6098588
11
55.6743419
21
-14.9597154
0
LINE
8
layer0
10
55.6743419
20
-14.9597154
11
55.8789681
21
-15.354804
0
LINE
8
layer0
10
55.8789681
20
-15.354804
11
56.0604961
21
-15.7424871
0
ARC
8
layer0
10
35.9999917
20
0.0000083
40
25.5
50
319.3730708
51
321.8769242
0
LINE
8
layer0
10
55.3536083
20
-16.6038324
11
54.9379601
21
-16.5014257
0
LINE
8
layer0
10
54.9379601
20
-16.5014257
11
54.5105423
21
-16.3778093
0
LINE
8
layer0
10
54.5105423
20
-16.3778093
11
54.1283511
21
-16.2497098
0
LINE
8
layer0
10
54.1283511
20
-16.2497098
11
53.7874266
21
-16.1193193
0
LINE
8
layer0
10
53.7874266
20
-16.1193193
11
53.4891973
21
-15.9906966
0
LINE
8
layer0
10
53.4891973
20
-15.9906966
11
53.2321003
21
-15.8668044
0
LINE
8
layer0
10
53.2321003
20
-15.8668044
11
53.016857
21
-15.7517864
0
LINE
8
layer0
10
53.016857
20
-15.7517864
11
52.8386732
21
-15.646774
0
LINE
8
layer0
10
52.8386732
20
-15.646774
11
52.6279271
21
-15.5142056
0
LINE
8
layer0
10
52.6279271
20
-15.5142056
11
52.5585458
21
-15.4789069
0
LINE
8
layer0
10
52.5585458
20
-15.4789069
11
52.4951536
21
-15.4531752
0
LINE
8
layer0
10
52.4951536
20
-15.4531752
11
52.4381184
21
-15.4367562
0
LINE
8
layer0
10
52.4381184
20
-15.4367562
11
52.3877866
21
-15.4293457
0
LINE
8
layer0
10
52.3877866
20
-15.4293457
11
52.3445328
21
-15.430668
0
LINE
8
layer0
10
52.3445328
20
-15.430668
11
52.3086684
21
-15.4404261
0
LINE
8
layer0
10
52.3086684
20
-15.4404261
11
52.2805467
21
-15.4582947
0
LINE
8
layer0
10
52.2805467
20
-15.4582947
11
52.2432681
21
-15.4971714
0
LINE
8
layer0
10
52.2432681
20
-15.4971714
11
51.8745472
21
-15.8745472
0
LINE
8
layer0
10
51.8745472
20
-15.8745472
11
51.4971714
21
-16.2432681
0
LINE
8
layer0
10
51.4971714
20
-16.2432681
11
51.4582947
21
-16.2805467
0
LINE
8
layer0
10
51.4582947
20
-16.2805467
11
51.4404261
21
-16.3086684
0
LINE
8
layer0
10
51.4404261
20
-16.3086684
11
51.430668
21
-16.3445328
0
LINE
8
layer0
10
51.430668
20
-16.3445328
11
51.4293457
21
-16.3877866
0
LINE
8
layer0
10
51.4293457
20
-16.3877866
11
51.4367562
21
-16.4381184
0
LINE
8
layer0
10
51.4367562
20
-16.4381184
11
51.4531752
21
-16.4951536
0
LINE
8
layer0
10
51.4531752
20
-16.4951536
11
51.4789069
21
-16.5585458
0
LINE
8
layer0
10
51.4789069
20
-16.5585458
11
51.5142056
21
-16.6279271
0
LINE
8
layer0
10
51.5142056
20
-16.6279271
11
51.646774
21
-16.8386732
0
LINE
8
layer0
10
51.646774
20
-16.8386732
11
51.7517864
21
-17.016857
0
LINE
8
layer0
10
51.7517864
20
-17.016857
11
51.8668044
21
-17.2321003
0
LINE
8
layer0
10
51.8668044
20
-17.2321003
11
51.9906966
21
-17.4891973
0
LINE
8
layer0
10
51.9906966
20
-17.4891973
11
52.1193193
21
-17.7874266
0
LINE
8
layer0
10
52.1193193
20
-17.7874266
11
52.2497098
21
-18.1283511
0
LINE
8
layer0
10
52.2497098
20
-18.1283511
11
52.3778093
21
-18.5105423
0
LINE
8
layer0
10
52.3778093
20
-18.5105423
11
52.5014257
21
-18.9379601
0
LINE
8
layer0
10
52.5014257
20
-18.9379601
11
52.6038324
21
-19.3536083
0
ARC
8
layer0
10
35.9999918
20
0.0000083
40
25.5
50
308.1230758
51
310.6269292
0
LINE
8
layer0
10
51.7424871
20
-20.0604961
11
51.354804
21
-19.8789681
0
LINE
8
layer0
10
51.354804
20
-19.8789681
11
50.9597154
21
-19.6743419
0
LINE
8
layer0
10
50.9597154
20
-19.6743419
11
50.6098588
21
-19.474142
0
LINE
8
layer0
10
50.6098588
20
-19.474142
11
50.300923
21
-19.2797459
0
LINE
8
layer0
10
50.300923
20
-19.2797459
11
50.0335171
21
-19.095413
0
LINE
8
layer0
10
50.0335171
20
-19.095413
11
49.8055304
21
-18.9237442
0
LINE
8
layer0
10
49.8055304
20
-18.9237442
11
49.6168618
21
-18.7689444
0
LINE
8
layer0
10
49.6168618
20
-18.7689444
11
49.4625886
21
-18.6311878
0
LINE
8
layer0
10
49.4625886
20
-18.6311878
11
49.2817548
21
-18.4600522
0
LINE
8
layer0
10
49.2817548
20
-18.4600522
11
49.220593
21
-18.411896
0
LINE
8
layer0
10
49.220593
20
-18.411896
11
49.163439
21
-18.3742916
0
LINE
8
layer0
10
49.163439
20
-18.3742916
11
49.1107028
21
-18.3470611
0
LINE
8
layer0
10
49.1107028
20
-18.3470611
11
49.0627838
21
-18.3299737
0
LINE
8
layer0
10
49.0627838
20
-18.3299737
11
49.0201032
21
-18.3228322
0
LINE
8
layer0
10
49.0201032
20
-18.3228322
11
48.9830242
21
-18.325406
0
LINE
8
layer0
10
48.9830242
20
-18.325406
11
48.9519569
21
-18.337445
0
LINE
8
layer0
10
48.9519569
20
-18.337445
11
48.9078101
21
-18.368302
0
LINE
8
layer0
10
48.9078101
20
-18.368302
11
48.4725517
21
-18.6664928
0
LINE
8
layer0
10
48.4725517
20
-18.6664928
11
48.0304932
21
-18.9545064
0
LINE
8
layer0
10
48.0304932
20
-18.9545064
11
47.9850908
21
-18.9834843
0
LINE
8
layer0
10
47.9850908
20
-18.9834843
11
47.9620793
21
-19.0075796
0
LINE
8
layer0
10
47.9620793
20
-19.0075796
11
47.9455119
21
-19.0408512
0
LINE
8
layer0
10
47.9455119
20
-19.0408512
11
47.9357766
21
-19.0830159
0
LINE
8
layer0
10
47.9357766
20
-19.0830159
11
47.9332255
21
-19.1338263
0
LINE
8
layer0
10
47.9332255
20
-19.1338263
11
47.938202
21
-19.1929688
0
LINE
8
layer0
10
47.938202
20
-19.1929688
11
47.951072
21
-19.2601629
0
LINE
8
layer0
10
47.951072
20
-19.2601629
11
47.9721569
21
-19.3350975
0
LINE
8
layer0
10
47.9721569
20
-19.3350975
11
48.0610635
21
-19.567657
0
LINE
8
layer0
10
48.0610635
20
-19.567657
11
48.1292962
21
-19.762904
0
LINE
8
layer0
10
48.1292962
20
-19.762904
11
48.2001122
21
-19.9964503
0
LINE
8
layer0
10
48.2001122
20
-19.9964503
11
48.2714667
21
-20.2727774
0
LINE
8
layer0
10
48.2714667
20
-20.2727774
11
48.3394363
21
-20.5903694
0
LINE
8
layer0
10
48.3394363
20
-20.5903694
11
48.4008103
21
-20.950181
0
LINE
8
layer0
10
48.4008103
20
-20.950181
11
48.4518866
21
-21.3500195
0
LINE
8
layer0
10
48.4518866
20
-21.3500195
11
48.4897427
21
-21.7933409
0
LINE
8
layer0
10
48.4897427
20
-21.7933409
11
48.5090927
21
-22.2209812
0
ARC
8
layer0
10
35.9999945
20
0.0000103
40
25.5
50
296.8730732
51
299.3769266
0
LINE
8
layer0
10
47.526391
20
-22.7462461
11
47.1815715
21
-22.492573
0
LINE
8
layer0
10
47.1815715
20
-22.492573
11
46.8339949
21
-22.2148006
0
LINE
8
layer0
10
46.8339949
20
-22.2148006
11
46.5299178
21
-21.9501939
0
LINE
8
layer0
10
46.5299178
20
-21.9501939
11
46.264843
21
-21.6992627
0
LINE
8
layer0
10
46.264843
20
-21.6992627
11
46.0385368
21
-21.4663033
0
LINE
8
layer0
10
46.0385368
20
-21.4663033
11
45.8484216
21
-21.2534552
0
LINE
8
layer0
10
45.8484216
20
-21.2534552
11
45.6935782
21
-21.0648223
0
LINE
8
layer0
10
45.6935782
20
-21.0648223
11
45.5691443
21
-20.8996155
0
LINE
8
layer0
10
45.5691443
20
-20.8996155
11
45.425172
21
-20.6964892
0
LINE
8
layer0
10
45.425172
20
-20.6964892
11
45.3745803
21
-20.6373264
0
LINE
8
layer0
10
45.3745803
20
-20.6373264
11
45.3258607
21
-20.5892943
0
LINE
8
layer0
10
45.3258607
20
-20.5892943
11
45.2794503
21
-20.5522987
0
LINE
8
layer0
10
45.2794503
20
-20.5522987
11
45.2357856
21
-20.5261911
0
LINE
8
layer0
10
45.2357856
20
-20.5261911
11
45.1953183
21
-20.5108603
0
LINE
8
layer0
10
45.1953183
20
-20.5108603
11
45.1584497
21
-20.5061508
0
LINE
8
layer0
10
45.1584497
20
-20.5061508
11
45.1256306
21
-20.5118976
0
LINE
8
layer0
10
45.1256306
20
-20.5118976
11
45.0763122
21
-20.5335491
0
LINE
8
layer0
10
45.0763122
20
-20.5335491
11
44.5912431
21
-20.7410955
0
LINE
8
layer0
10
44.5912431
20
-20.7410955
11
44.1014899
21
-20.9373337
0
LINE
8
layer0
10
44.1014899
20
-20.9373337
11
44.0513066
21
-20.9568972
0
LINE
8
layer0
10
44.0513066
20
-20.9568972
11
44.0240365
21
-20.9760402
0
LINE
8
layer0
10
44.0240365
20
-20.9760402
11
44.0012964
21
-21.0054404
0
LINE
8
layer0
10
44.0012964
20
-21.0054404
11
43.9835223
21
-21.0448956
0
LINE
8
layer0
10
43.9835223
20
-21.0448956
11
43.9711075
21
-21.094232
0
LINE
8
layer0
10
43.9711075
20
-21.094232
11
43.9644503
21
-21.153209
0
LINE
8
layer0
10
43.9644503
20
-21.153209
11
43.9639641
21
-21.2216227
0
LINE
8
layer0
10
43.9639641
20
-21.2216227
11
43.9700248
21
-21.299231
0
LINE
8
layer0
10
43.9700248
20
-21.299231
11
44.011853
21
-21.5446667
0
LINE
8
layer0
10
44.011853
20
-21.5446667
11
44.0406838
21
-21.7494736
0
LINE
8
layer0
10
44.0406838
20
-21.7494736
11
44.0645765
21
-21.992348
0
LINE
8
layer0
10
44.0645765
20
-21.992348
11
44.0806512
21
-22.2772861
0
LINE
8
layer0
10
44.0806512
20
-22.2772861
11
44.0853557
21
-22.6020359
0
LINE
8
layer0
10
44.0853557
20
-22.6020359
11
44.0753547
21
-22.9669073
0
LINE
8
layer0
10
44.0753547
20
-22.9669073
11
44.0474449
21
-23.3690275
0
LINE
8
layer0
10
44.0474449
20
-23.3690275
11
43.9980859
21
-23.8112159
0
LINE
8
layer0
10
43.9980859
20
-23.8112159
11
43.9336356
21
-24.2344142
0
ARC
8
layer0
10
35.9999965
20
0.0000111
40
25.5
50
285.6230734
51
288.1269269
0
LINE
8
layer0
10
42.8673422
20
-24.5578707
11
42.5786374
21
-24.2418009
0
LINE
8
layer0
10
42.5786374
20
-24.2418009
11
42.2919301
21
-23.901557
0
LINE
8
layer0
10
42.2919301
20
-23.901557
11
42.045318
21
-23.5827122
0
LINE
8
layer0
10
42.045318
20
-23.5827122
11
41.8342907
21
-23.284889
0
LINE
8
layer0
10
41.8342907
20
-23.284889
11
41.6577811
21
-23.0122557
0
LINE
8
layer0
10
41.6577811
20
-23.0122557
11
41.5128436
21
-22.7664077
0
LINE
8
layer0
10
41.5128436
20
-22.7664077
11
41.3977759
21
-22.551191
0
LINE
8
layer0
10
41.3977759
20
-22.551191
11
41.3079632
21
-22.3648827
0
LINE
8
layer0
10
41.3079632
20
-22.3648827
11
41.2063853
21
-22.1375719
0
LINE
8
layer0
10
41.2063853
20
-22.1375719
11
41.1683077
21
-22.0696758
0
LINE
8
layer0
10
41.1683077
20
-22.0696758
11
41.1298948
21
-22.013062
0
LINE
8
layer0
10
41.1298948
20
-22.013062
11
41.0915937
21
-21.967723
0
LINE
8
layer0
10
41.0915937
20
-21.967723
11
41.0538613
21
-21.9335985
0
LINE
8
layer0
10
41.0538613
20
-21.9335985
11
41.0171625
21
-21.9106675
0
LINE
8
layer0
10
41.0171625
20
-21.9106675
11
40.981921
21
-21.8988558
0
LINE
8
layer0
10
40.981921
20
-21.8988558
11
40.9486115
21
-21.8980894
0
LINE
8
layer0
10
40.9486115
20
-21.8980894
11
40.8960167
21
-21.9097033
0
LINE
8
layer0
10
40.8960167
20
-21.9097033
11
40.3797777
21
-22.0186295
0
LINE
8
layer0
10
40.3797777
20
-22.0186295
11
39.8611509
21
-22.1155509
0
LINE
8
layer0
10
39.8611509
20
-22.1155509
11
39.8081151
21
-22.1249483
0
LINE
8
layer0
10
39.8081151
20
-22.1249483
11
39.7776344
21
-22.1384033
0
LINE
8
layer0
10
39.7776344
20
-22.1384033
11
39.7495956
21
-22.1628022
0
LINE
8
layer0
10
39.7495956
20
-22.1628022
11
39.7244657
21
-22.1980317
0
LINE
8
layer0
10
39.7244657
20
-22.1980317
11
39.7026644
21
-22.2439982
0
LINE
8
layer0
10
39.7026644
20
-22.2439982
11
39.6846293
21
-22.3005432
0
LINE
8
layer0
10
39.6846293
20
-22.3005432
11
39.6708055
21
-22.3675475
0
LINE
8
layer0
10
39.6708055
20
-22.3675475
11
39.6616092
21
-22.4448469
0
LINE
8
layer0
10
39.6616092
20
-22.4448469
11
39.6547515
21
-22.6937269
0
LINE
8
layer0
10
39.6547515
20
-22.6937269
11
39.6430725
21
-22.9002232
0
LINE
8
layer0
10
39.6430725
20
-22.9002232
11
39.6191237
21
-23.143092
0
LINE
8
layer0
10
39.6191237
20
-23.143092
11
39.5793009
21
-23.4256911
0
LINE
8
layer0
10
39.5793009
20
-23.4256911
11
39.5205594
21
-23.7451187
0
LINE
8
layer0
10
39.5205594
20
-23.7451187
11
39.4395677
21
-24.1010281
0
LINE
8
layer0
10
39.4395677
20
-24.1010281
11
39.3337444
21
-24.4899768
0
LINE
8
layer0
10
39.3337444
20
-24.4899768
11
39.1990671
21
-24.9140392
0
LINE
8
layer0
10
39.1990671
20
-24.9140392
11
39.0532934
21
-25.3165322
0
ARC
8
layer0
10
35.9999994
20
0.0000117
40
25.5
50
274.3730721
51
276.8769255
0
LINE
8
layer0
10
37.9443852
20
-25.4257501
11
37.72289
21
-25.05943
0
LINE
8
layer0
10
37.72289
20
-25.05943
11
37.50807
21
-24.66979
0
LINE
8
layer0
10
37.50807
20
-24.66979
11
37.3284
21
-24.30896
0
LINE
8
layer0
10
37.3284
20
-24.30896
11
37.17953
21
-23.97569
0
LINE
8
layer0
10
37.17953
20
-23.97569
11
37.0596
21
-23.67386
0
LINE
8
layer0
10
37.0596
20
-23.67386
11
36.96541
21
-23.40446
0
LINE
8
layer0
10
36.96541
20
-23.40446
11
36.89454
21
-23.17093
0
LINE
8
layer0
10
36.89454
20
-23.17093
11
36.8428
21
-22.97068
0
LINE
8
layer0
10
36.8428
20
-22.97068
11
36.78752
21
-22.72792
0
LINE
8
layer0
10
36.78752
20
-22.72792
11
36.76342
21
-22.6539
0
LINE
8
layer0
10
36.76342
20
-22.6539
11
36.73679
21
-22.59088
0
LINE
8
layer0
10
36.73679
20
-22.59088
11
36.70807
21
-22.53894
0
LINE
8
layer0
10
36.70807
20
-22.53894
11
36.67772
21
-22.49811
0
LINE
8
layer0
10
36.67772
20
-22.49811
11
36.6462
21
-22.46846
0
LINE
8
layer0
10
36.6462
20
-22.46846
11
36.61394
21
-22.45
0
LINE
8
layer0
10
36.61394
20
-22.45
11
36.58142
21
-22.44275
0
LINE
8
layer0
10
36.58142
20
-22.44275
11
36.52757
21
-22.44388
0
LINE
8
layer0
10
36.52757
20
-22.44388
11
36
21
-22.45
0
LINE
8
layer0
10
36
20
-22.45
11
35.47243
21
-22.44388
0
LINE
8
layer0
10
35.47243
20
-22.44388
11
35.41858
21
-22.44275
0
LINE
8
layer0
10
35.41858
20
-22.44275
11
35.38606
21
-22.45
0
LINE
8
layer0
10
35.38606
20
-22.45
11
35.3538
21
-22.46846
0
LINE
8
layer0
10
35.3538
20
-22.46846
11
35.32228
21
-22.49811
0
LINE
8
layer0
10
35.32228
20
-22.49811
11
35.29193
21
-22.53894
0
LINE
8
layer0
10
35.29193
20
-22.53894
11
35.26321
21
-22.59088
0
LINE
8
layer0
10
35.26321
20
-22.59088
11
35.23658
21
-22.6539
0
LINE
8
layer0
10
35.23658
20
-22.6539
11
35.21248
21
-22.72792
0
LINE
8
layer0
10
35.21248
20
-22.72792
11
35.1572
21
-22.97068
0
LINE
8
layer0
10
35.1572
20
-22.97068
11
35.10546
21
-23.17093
0
LINE
8
layer0
10
35.10546
20
-23.17093
11
35.03459
21
-23.40446
0
LINE
8
layer0
10
35.03459
20
-23.40446
11
34.9404
21
-23.67386
0
LINE
8
layer0
10
34.9404
20
-23.67386
11
34.82047
21
-23.97569
0
LINE
8
layer0
10
34.82047
20
-23.97569
11
34.6716
21
-24.30896
0
LINE
8
layer0
10
34.6716
20
-24.30896
11
34.49193
21
-24.66979
0
LINE
8
layer0
10
34.49193
20
-24.66979
11
34.27711
21
-25.05943
0
LINE
8
layer0
10
34.27711
20
-25.05943
11
34.0556148
21
-25.4257501
0
ARC
8
layer0
10
36.0000006
20
0.0000117
40
25.5
50
263.1230745
51
265.6269279
0
LINE
8
layer0
10
32.9467066
20
-25.3165322
11
32.8009329
21
-24.9140392
0
LINE
8
layer0
10
32.8009329
20
-24.9140392
11
32.6662556
21
-24.4899768
0
LINE
8
layer0
10
32.6662556
20
-24.4899768
11
32.5604323
21
-24.1010281
0
LINE
8
layer0
10
32.5604323
20
-24.1010281
11
32.4794406
21
-23.7451187
0
LINE
8
layer0
10
32.4794406
20
-23.7451187
11
32.4206991
21
-23.4256911
0
LINE
8
layer0
10
32.4206991
20
-23.4256911
11
32.3808763
21
-23.143092
0
LINE
8
layer0
10
32.3808763
20
-23.143092
11
32.3569275
21
-22.9002232
0
LINE
8
layer0
10
32.3569275
20
-22.9002232
11
32.3452485
21
-22.6937269
0
LINE
8
layer0
10
32.3452485
20
-22.6937269
11
32.3383908
21
-22.4448469
0
LINE
8
layer0
10
32.3383908
20
-22.4448469
11
32.3291945
21
-22.3675475
0
LINE
8
layer0
10
32.3291945
20
-22.3675475
11
32.3153707
21
-22.3005432
0
LINE
8
layer0
10
32.3153707
20
-22.3005432
11
32.2973356
21
-22.2439982
0
LINE
8
layer0
10
32.2973356
20
-22.2439982
11
32.2755343
21
-22.1980317
0
LINE
8
layer0
10
32.2755343
20
-22.1980317
11
32.2504044
21
-22.1628022
0
LINE
8
layer0
10
32.2504044
20
-22.1628022
11
32.2223656
21
-22.1384033
0
LINE
8
layer0
10
32.2223656
20
-22.1384033
11
32.1918849
21
-22.1249483
0
LINE
8
layer0
10
32.1918849
20
-22.1249483
11
32.1388491
21
-22.1155509
0
LINE
8
layer0
10
32.1388491
20
-22.1155509
11
31.6202223
21
-22.0186295
0
LINE
8
layer0
10
31.6202223
20
-22.0186295
11
31.1039833
21
-21.9097033
0
LINE
8
layer0
10
31.1039833
20
-21.9097033
11
31.0513885
21
-21.8980894
0
LINE
8
layer0
10
31.0513885
20
-21.8980894
11
31.018079
21
-21.8988558
0
LINE
8
layer0
10
31.018079
20
-21.8988558
11
30.9828375
21
-21.9106675
0
LINE
8
layer0
10
30.9828375
20
-21.9106675
11
30.9461387
21
-21.9335985
0
LINE
8
layer0
10
30.9461387
20
-21.9335985
11
30.9084063
21
-21.967723
0
LINE
8
layer0
10
30.9084063
20
-21.967723
11
30.8701052
21
-22.013062
0
LINE
8
layer0
10
30.8701052
20
-22.013062
11
30.8316923
21
-22.0696758
0
LINE
8
layer0
10
30.8316923
20
-22.0696758
11
30.7936147
21
-22.1375719
0
LINE
8
layer0
10
30.7936147
20
-22.1375719
11
30.6920368
21
-22.3648827
0
LINE
8
layer0
10
30.6920368
20
-22.3648827
11
30.6022241
21
-22.551191
0
LINE
8
layer0
10
30.6022241
20
-22.551191
11
30.4871564
21
-22.7664077
0
LINE
8
layer0
10
30.4871564
20
-22.7664077
11
30.3422189
21
-23.0122557
0
LINE
8
layer0
10
30.3422189
20
-23.0122557
11
30.1657093
21
-23.284889
0
LINE
8
layer0
10
30.1657093
20
-23.284889
11
29.954682
21
-23.5827122
0
LINE
8
layer0
10
29.954682
20
-23.5827122
11
29.7080699
21
-23.901557
0
LINE
8
layer0
10
29.7080699
20
-23.901557
11
29.4213626
21
-24.2418009
0
LINE
8
layer0
10
29.4213626
20
-24.2418009
11
29.1326578
21
-24.5578707
0
ARC
8
layer0
10
36.0000034
20
0.0000112
40
25.5
50
251.8730731
51
254.3769266
0
LINE
8
layer0
10
28.0663644
20
-24.2344142
11
28.0019141
21
-23.8112159
0
LINE
8
layer0
10
28.0019141
20
-23.8112159
11
27.9525551
21
-23.3690275
0
LINE
8
layer0
10
27.9525551
20
-23.3690275
11
27.9246453
21
-22.9669073
0
LINE
8
layer0
10
27.9246453
20
-22.9669073
11
27.9146443
21
-22.6020359
0
LINE
8
layer0
10
27.9146443
20
-22.6020359
11
27.9193488
21
-22.2772861
0
LINE
8
layer0
10
27.9193488
20
-22.2772861
11
27.9354235
21
-21.992348
0
LINE
8
layer0
10
27.9354235
20
-21.992348
11
27.9593162
21
-21.7494736
0
LINE
8
layer0
10
27.9593162
20
-21.7494736
11
27.988147
21
-21.5446667
0
LINE
8
layer0
10
27.988147
20
-21.5446667
11
28.0299752
21
-21.299231
0
LINE
8
layer0
10
28.0299752
20
-21.299231
11
28.0360359
21
-21.2216227
0
LINE
8
layer0
10
28.0360359
20
-21.2216227
11
28.0355497
21
-21.153209
0
LINE
8
layer0
10
28.0355497
20
-21.153209
11
28.0288925
21
-21.094232
0
LINE
8
layer0
10
28.0288925
20
-21.094232
11
28.0164777
21
-21.0448956
0
LINE
8
layer0
10
28.0164777
20
-21.0448956
11
27.9987036
21
-21.0054404
0
LINE
8
layer0
10
27.9987036
20
-21.0054404
11
27.9759635
21
-20.9760402
0
LINE
8
layer0
10
27.9759635
20
-20.9760402
11
27.9486934
21
-20.9568972
0
LINE
8
layer0
10
27.9486934
20
-20.9568972
11
27.8985101
21
-20.9373337
0
LINE
8
layer0
10
27.8985101
20
-20.9373337
11
27.4087569
21
-20.7410955
0
LINE
8
layer0
10
27.4087569
20
-20.7410955
11
26.9236878
21
-20.5335491
0
LINE
8
layer0
10
26.9236878
20
-20.5335491
11
26.8743694
21
-20.5118976
0
LINE
8
layer0
10
26.8743694
20
-20.5118976
11
26.8415503
21
-20.5061508
0
LINE
8
layer0
10
26.8415503
20
-20.5061508
11
26.8046817
21
-20.5108603
0
LINE
8
layer0
10
26.8046817
20
-20.5108603
11
26.7642144
21
-20.5261911
0
LINE
8
layer0
10
26.7642144
20
-20.5261911
11
26.7205497
21
-20.5522987
0
LINE
8
layer0
10
26.7205497
20
-20.5522987
11
26.6741393
21
-20.5892943
0
LINE
8
layer0
10
26.6741393
20
-20.5892943
11
26.6254197
21
-20.6373264
0
LINE
8
layer0
10
26.6254197
20
-20.6373264
11
26.574828
21
-20.6964892
0
LINE
8
layer0
10
26.574828
20
-20.6964892
11
26.4308557
21
-20.8996155
0
LINE
8
layer0
10
26.4308557
20
-20.8996155
11
26.3064218
21
-21.0648223
0
LINE
8
layer0
10
26.3064218
20
-21.0648223
11
26.1515784
21
-21.2534552
0
LINE
8
layer0
10
26.1515784
20
-21.2534552
11
25.9614632
21
-21.4663033
0
LINE
8
layer0
10
25.9614632
20
-21.4663033
11
25.735157
21
-21.6992627
0
LINE
8
layer0
10
25.735157
20
-21.6992627
11
25.4700822
21
-21.9501939
0
LINE
8
layer0
10
25.4700822
20
-21.9501939
11
25.1660051
21
-22.2148006
0
LINE
8
layer0
10
25.1660051
20
-22.2148006
11
24.8184285
21
-22.492573
0
LINE
8
layer0
10
24.8184285
20
-22.492573
11
24.473609
21
-22.7462461
0
ARC
8
layer0
10
36.0000055
20
0.0000104
40
25.5
50
240.6230734
51
243.1269268
0
LINE
8
layer0
10
23.4909073
20
-22.2209812
11
23.5102573
21
-21.7933409
0
LINE
8
layer0
10
23.5102573
20
-21.7933409
11
23.5481134
21
-21.3500195
0
LINE
8
layer0
10
23.5481134
20
-21.3500195
11
23.5991897
21
-20.950181
0
LINE
8
layer0
10
23.5991897
20
-20.950181
11
23.6605637
21
-20.5903694
0
LINE
8
layer0
10
23.6605637
20
-20.5903694
11
23.7285333
21
-20.2727774
0
LINE
8
layer0
10
23.7285333
20
-20.2727774
11
23.7998878
21
-19.9964503
0
LINE
8
layer0
10
23.7998878
20
-19.9964503
11
23.8707038
21
-19.762904
0
LINE
8
layer0
10
23.8707038
20
-19.762904
11
23.9389365
21
-19.567657
0
LINE
8
layer0
10
23.9389365
20
-19.567657
11
24.0278431
21
-19.3350975
0
LINE
8
layer0
10
24.0278431
20
-19.3350975
11
24.048928
21
-19.2601629
0
LINE
8
layer0
10
24.048928
20
-19.2601629
11
24.061798
21
-19.1929688
0
LINE
8
layer0
10
24.061798
20
-19.1929688
11
24.0667745
21
-19.1338263
0
LINE
8
layer0
10
24.0667745
20
-19.1338263
11
24.0642234
21
-19.0830159
0
LINE
8
layer0
10
24.0642234
20
-19.0830159
11
24.0544881
21
-19.0408512
0
LINE
8
layer0
10
24.0544881
20
-19.0408512
11
24.0379207
21
-19.0075796
0
LINE
8
layer0
10
24.0379207
20
-19.0075796
11
24.0149092
21
-18.9834843
0
LINE
8
layer0
10
24.0149092
20
-18.9834843
11
23.9695068
21
-18.9545064
0
LINE
8
layer0
10
23.9695068
20
-18.9545064
11
23.5274483
21
-18.6664928
0
LINE
8
layer0
10
23.5274483
20
-18.6664928
11
23.0921899
21
-18.368302
0
LINE
8
layer0
10
23.0921899
20
-18.368302
11
23.0480431
21
-18.337445
0
LINE
8
layer0
10
23.0480431
20
-18.337445
11
23.0169758
21
-18.325406
0
LINE
8
layer0
10
23.0169758
20
-18.325406
11
22.9798968
21
-18.3228322
0
LINE
8
layer0
10
22.9798968
20
-18.3228322
11
22.9372162
21
-18.3299737
0
LINE
8
layer0
10
22.9372162
20
-18.3299737
11
22.8892972
21
-18.3470611
0
LINE
8
layer0
10
22.8892972
20
-18.3470611
11
22.836561
21
-18.3742916
0
LINE
8
layer0
10
22.836561
20
-18.3742916
11
22.779407
21
-18.411896
0
LINE
8
layer0
10
22.779407
20
-18.411896
11
22.7182452
21
-18.4600522
0
LINE
8
layer0
10
22.7182452
20
-18.4600522
11
22.5374114
21
-18.6311878
0
LINE
8
layer0
10
22.5374114
20
-18.6311878
11
22.3831382
21
-18.7689444
0
LINE
8
layer0
10
22.3831382
20
-18.7689444
11
22.1944696
21
-18.9237442
0
LINE
8
layer0
10
22.1944696
20
-18.9237442
11
21.9664829
21
-19.095413
0
LINE
8
layer0
10
21.9664829
20
-19.095413
11
21.699077
21
-19.2797459
0
LINE
8
layer0
10
21.699077
20
-19.2797459
11
21.3901412
21
-19.474142
0
LINE
8
layer0
10
21.3901412
20
-19.474142
11
21.0402846
21
-19.6743419
0
LINE
8
layer0
10
21.0402846
20
-19.6743419
11
20.645196
21
-19.8789681
0
LINE
8
layer0
10
20.645196
20
-19.8789681
11
20.2575129
21
-20.0604961
0
ARC
8
layer0
10
36.0000083
20
0.0000083
40
25.5
50
229.3730708
51
231.8769242
0
LINE
8
layer0
10
19.3961676
20
-19.3536083
11
19.4985743
21
-18.9379601
0
LINE
8
layer0
10
19.4985743
20
-18.9379601
11
19.6221907
21
-18.5105423
0
LINE
8
layer0
10
19.6221907
20
-18.5105423
11
19.7502902
21
-18.1283511
0
LINE
8
layer0
10
19.7502902
20
-18.1283511
11
19.8806807
21
-17.7874266
0
LINE
8
layer0
10
19.8806807
20
-17.7874266
11
20.0093034
21
-17.4891973
0
LINE
8
layer0
10
20.0093034
20
-17.4891973
11
20.1331956
21
-17.2321003
0
LINE
8
layer0
10
20.1331956
20
-17.2321003
11
20.2482136
21
-17.016857
0
LINE
8
layer0
10
20.2482136
20
-17.016857
11
20.353226
21
-16.8386732
0
LINE
8
layer0
10
20.353226
20
-16.8386732
11
20.4857944
21
-16.6279271
0
LINE
8
layer0
10
20.4857944
20
-16.6279271
11
20.5210931
21
-16.5585458
0
LINE
8
layer0
10
20.5210931
20
-16.5585458
11
20.5468248
21
-16.4951536
0
LINE
8
layer0
10
20.5468248
20
-16.4951536
11
20.5632438
21
-16.4381184
0
LINE
8
layer0
10
20.5632438
20
-16.4381184
11
20.5706543
21
-16.3877866
0
LINE
8
layer0
10
20.5706543
20
-16.3877866
11
20.569332
21
-16.3445328
0
LINE
8
layer0
10
20.569332
20
-16.3445328
11
20.5595739
21
-16.3086684
0
LINE
8
layer0
10
20.5595739
20
-16.3086684
11
20.5417053
21
-16.2805467
0
LINE
8
layer0
10
20.5417053
20
-16.2805467
11
20.5028286
21
-16.2432681
0
LINE
8
layer0
10
20.5028286
20
-16.2432681
11
20.1254528
21
-15.8745472
0
LINE
8
layer0
10
20.1254528
20
-15.8745472
11
19.7567319
21
-15.4971714
0
LINE
8
layer0
10
19.7567319
20
-15.4971714
11
19.7194533
21
-15.4582947
0
LINE
8
layer0
10
19.7194533
20
-15.4582947
11
19.6913316
21
-15.4404261
0
LINE
8
layer0
10
19.6913316
20
-15.4404261
11
19.6554672
21
-15.430668
0
LINE
8
layer0
10
19.6554672
20
-15.430668
11
19.6122134
21
-15.4293457
0
LINE
8
layer0
10
19.6122134
20
-15.4293457
11
19.5618816
21
-15.4367562
0
LINE
8
layer0
10
19.5618816
20
-15.4367562
11
19.5048464
21
-15.4531752
0
LINE
8
layer0
10
19.5048464
20
-15.4531752
11
19.4414542
21
-15.4789069
0
LINE
8
layer0
10
19.4414542
20
-15.4789069
11
19.3720729
21
-15.5142056
0
LINE
8
layer0
10
19.3720729
20
-15.5142056
11
19.1613268
21
-15.646774
0
LINE
8
layer0
10
19.1613268
20
-15.646774
11
18.983143
21
-15.7517864
0
LINE
8
layer0
10
18.983143
20
-15.7517864
11
18.7678997
21
-15.8668044
0
LINE
8
layer0
10
18.7678997
20
-15.8668044
11
18.5108027
21
-15.9906966
0
LINE
8
layer0
10
18.5108027
20
-15.9906966
11
18.2125734
21
-16.1193193
0
LINE
8
layer0
10
18.2125734
20
-16.1193193
11
17.8716489
21
-16.2497098
0
LINE
8
layer0
10
17.8716489
20
-16.2497098
11
17.4894577
21
-16.3778093
0
LINE
8
layer0
10
17.4894577
20
-16.3778093
11
17.0620399
21
-16.5014257
0
LINE
8
layer0
10
17.0620399
20
-16.5014257
11
16.6463917
21
-16.6038324
0
ARC
8
layer0
10
36.0000083
20
0.0000082
40
25.5
50
218.1230758
51
220.6269292
0
LINE
8
layer0
10
15.9395039
20
-15.7424871
11
16.1210319
21
-15.354804
0
LINE
8
layer0
10
16.1210319
20
-15.354804
11
16.3256581
21
-14.9597154
0
LINE
8
layer0
10
16.3256581
20
-14.9597154
11
16.525858
21
-14.6098588
0
LINE
8
layer0
10
16.525858
20
-14.6098588
11
16.7202541
21
-14.300923
0
LINE
8
layer0
10
16.7202541
20
-14.300923
11
16.904587
21
-14.0335171
0
LINE
8
layer0
10
16.904587
20
-14.0335171
11
17.0762558
21
-13.8055304
0
LINE
8
layer0
10
17.0762558
20
-13.8055304
11
17.2310556
21
-13.6168618
0
LINE
8
layer0
10
17.2310556
20
-13.6168618
11
17.3688122
21
-13.4625886
0
LINE
8
layer0
10
17.3688122
20
-13.4625886
11
17.5399478
21
-13.2817548
0
LINE
8
layer0
10
17.5399478
20
-13.2817548
11
17.588104
21
-13.220593
0
LINE
8
layer0
10
17.588104
20
-13.220593
11
17.6257084
21
-13.163439
0
LINE
8
layer0
10
17.6257084
20
-13.163439
11
17.6529389
21
-13.1107028
0
LINE
8
layer0
10
17.6529389
20
-13.1107028
11
17.6700263
21
-13.0627838
0
LINE
8
layer0
10
17.6700263
20
-13.0627838
11
17.6771678
21
-13.0201032
0
LINE
8
layer0
10
17.6771678
20
-13.0201032
11
17.674594
21
-12.9830242
0
LINE
8
layer0
10
17.674594
20
-12.9830242
11
17.662555
21
-12.9519569
0
LINE
8
layer0
10
17.662555
20
-12.9519569
11
17.631698
21
-12.9078101
0
LINE
8
layer0
10
17.631698
20
-12.9078101
11
17.3335072
21
-12.4725517
0
LINE
8
layer0
10
17.3335072
20
-12.4725517
11
17.0454936
21
-12.0304932
0
LINE
8
layer0
10
17.0454936
20
-12.0304932
11
17.0165157
21
-11.9850908
0
LINE
8
layer0
10
17.0165157
20
-11.9850908
11
16.9924204
21
-11.9620793
0
LINE
8
layer0
10
16.9924204
20
-11.9620793
11
16.9591488
21
-11.9455119
0
LINE
8
layer0
10
16.9591488
20
-11.9455119
11
16.9169841
21
-11.9357766
0
LINE
8
layer0
10
16.9169841
20
-11.9357766
11
16.8661737
21
-11.9332255
0
LINE
8
layer0
10
16.8661737
20
-11.9332255
11
16.8070312
21
-11.938202
0
LINE
8
layer0
10
16.8070312
20
-11.938202
11
16.7398371
21
-11.951072
0
LINE
8
layer0
10
16.7398371
20
-11.951072
11
16.6649025
21
-11.9721569
0
LINE
8
layer0
10
16.6649025
20
-11.9721569
11
16.432343
21
-12.0610635
0
LINE
8
layer0
10
16.432343
20
-12.0610635
11
16.237096
21
-12.1292962
0
LINE
8
layer0
10
16.237096
20
-12.1292962
11
16.0035497
21
-12.2001122
0
LINE
8
layer0
10
16.0035497
20
-12.2001122
11
15.7272226
21
-12.2714667
0
LINE
8
layer0
10
15.7272226
20
-12.2714667
11
15.4096306
21
-12.3394363
0
LINE
8
layer0
10
15.4096306
20
-12.3394363
11
15.049819
21
-12.4008103
0
LINE
8
layer0
10
15.049819
20
-12.4008103
11
14.6499805
21
-12.4518866
0
LINE
8
layer0
10
14.6499805
20
-12.4518866
11
14.2066591
21
-12.4897427
0
LINE
8
layer0
10
14.2066591
20
-12.4897427
11
13.7790188
21
-12.5090927
0
ARC
8
layer0
10
36.0000103
20
0.0000055
40
25.5
50
206.8730732
51
209.3769266
0
LINE
8
layer0
10
13.2537539
20
-11.526391
11
13.507427
21
-11.1815715
0
LINE
8
layer0
10
13.507427
20
-11.1815715
11
13.7851994
21
-10.8339949
0
LINE
8
layer0
10
13.7851994
20
-10.8339949
11
14.0498061
21
-10.5299178
0
LINE
8
layer0
10
14.0498061
20
-10.5299178
11
14.3007373
21
-10.264843
0
LINE
8
layer0
10
14.3007373
20
-10.264843
11
14.5336967
21
-10.0385368
0
LINE
8
layer0
10
14.5336967
20
-10.0385368
11
14.7465448
21
-9.8484216
0
LINE
8
layer0
10
14.7465448
20
-9.8484216
11
14.9351777
21
-9.6935782
0
LINE
8
layer0
10
14.9351777
20
-9.6935782
11
15.1003845
21
-9.5691443
0
LINE
8
layer0
10
15.1003845
20
-9.5691443
11
15.3035108
21
-9.425172
0
LINE
8
layer0
10
15.3035108
20
-9.425172
11
15.3626736
21
-9.3745803
0
LINE
8
layer0
10
15.3626736
20
-9.3745803
11
15.4107057
21
-9.3258607
0
LINE
8
layer0
10
15.4107057
20
-9.3258607
11
15.4477013
21
-9.2794503
0
LINE
8
layer0
10
15.4477013
20
-9.2794503
11
15.4738089
21
-9.2357856
0
LINE
8
layer0
10
15.4738089
20
-9.2357856
11
15.4891397
21
-9.1953183
0
LINE
8
layer0
10
15.4891397
20
-9.1953183
11
15.4938492
21
-9.1584497
0
LINE
8
layer0
10
15.4938492
20
-9.1584497
11
15.4881024
21
-9.1256306
0
LINE
8
layer0
10
15.4881024
20
-9.1256306
11
15.4664509
21
-9.0763122
0
LINE
8
layer0
10
15.4664509
20
-9.0763122
11
15.2589045
21
-8.5912431
0
LINE
8
layer0
10
15.2589045
20
-8.5912431
11
15.0626663
21
-8.1014899
0
LINE
8
layer0
10
15.0626663
20
-8.1014899
11
15.0431028
21
-8.0513066
0
LINE
8
layer0
10
15.0431028
20
-8.0513066
11
15.0239598
21
-8.0240365
0
LINE
8
layer0
10
15.0239598
20
-8.0240365
11
14.9945596
21
-8.0012964
0
LINE
8
layer0
10
14.9945596
20
-8.0012964
11
14.9551044
21
-7.9835223
0
LINE
8
layer0
10
14.9551044
20
-7.9835223
11
14.905768
21
-7.9711075
0
LINE
8
layer0
10
14.905768
20
-7.9711075
11
14.846791
21
-7.9644503
0
LINE
8
layer0
10
14.846791
20
-7.9644503
11
14.7783773
21
-7.9639641
0
LINE
8
layer0
10
14.7783773
20
-7.9639641
11
14.700769
21
-7.9700248
0
LINE
8
layer0
10
14.700769
20
-7.9700248
11
14.4553333
21
-8.011853
0
LINE
8
layer0
10
14.4553333
20
-8.011853
11
14.2505264
21
-8.0406838
0
LINE
8
layer0
10
14.2505264
20
-8.0406838
11
14.007652
21
-8.0645765
0
LINE
8
layer0
10
14.007652
20
-8.0645765
11
13.7227139
21
-8.0806512
0
LINE
8
layer0
10
13.7227139
20
-8.0806512
11
13.3979641
21
-8.0853557
0
LINE
8
layer0
10
13.3979641
20
-8.0853557
11
13.0330927
21
-8.0753547
0
LINE
8
layer0
10
13.0330927
20
-8.0753547
11
12.6309725
21
-8.0474449
0
LINE
8
layer0
10
12.6309725
20
-8.0474449
11
12.1887841
21
-7.9980859
0
LINE
8
layer0
10
12.1887841
20
-7.9980859
11
11.7655858
21
-7.9336356
0
ARC
8
layer0
10
36.0000111
20
0.0000035
40
25.5
50
195.6230734
51
198.1269269
0
LINE
8
layer0
10
11.4421293
20
-6.8673422
11
11.7581991
21
-6.5786374
0
LINE
8
layer1
10
11.7581991
20
-6.5786374
11
12.098443
21
-6.2919301
0
LINE
8
layer1
10
12.098443
20
-6.2919301
11
12.4172878
21
-6.045318
0
LINE
8
layer1
10
12.4172878
20
-6.045318
11
12.715111
21
-5.8342907
0
LINE
8
layer1
10
12.715111
20
-5.8342907
11
12.9877443
21
-5.6577811
0
LINE
8
layer1
10
12.9877443
20
-5.6577811
11
13.2335923
21
-5.5128436
0
LINE
8
layer1
10
13.2335923
20
-5.5128436
11
13.448809
21
-5.3977759
0
LINE
8
layer1
10
13.448809
20
-5.3977759
11
13.6351173
21
-5.3079632
0
LINE
8
layer1
10
13.6351173
20
-5.3079632
11
13.8624281
21
-5.2063853
0
LINE
8
layer1
10
13.8624281
20
-5.2063853
11
13.9303242
21
-5.1683077
0
LINE
8
layer1
10
13.9303242
20
-5.1683077
11
13.986938
21
-5.1298948
0
LINE
8
layer1
10
13.986938
20
-5.1298948
11
14.032277
21
-5.0915937
0
LINE
8
layer1
10
14.032277
20
-5.0915937
11
14.0664015
21
-5.0538613
0
LINE
8
layer1
10
14.0664015
20
-5.0538613
11
14.0893325
21
-5.0171625
0
LINE
8
layer1
10
14.0893325
20
-5.0171625
11
14.1011442
21
-4.981921
0
LINE
8
layer1
10
14.1011442
20
-4.981921
11
14.1019106
21
-4.9486115
0
LINE
8
layer1
10
14.1019106
20
-4.9486115
11
14.0902967
21
-4.8960167
0
LINE
8
layer1
10
14.0902967
20
-4.8960167
11
13.9813705
21
-4.3797777
0
LINE
8
layer1
10
13.9813705
20
-4.3797777
11
13.8844491
21
-3.8611509
0
LINE
8
layer1
10
13.8844491
20
-3.8611509
11
13.8750517
21
-3.8081151
0
LINE
8
layer1
10
13.8750517
20
-3.8081151
11
13.8615967
21
-3.7776344
0
LINE
8
layer1
10
13.8615967
20
-3.7776344
11
13.8371978
21
-3.7495956
0
LINE
8
layer1
10
13.8371978
20
-3.7495956
11
13.8019683
21
-3.7244657
0
LINE
8
layer1
10
13.8019683
20
-3.7244657
11
13.7560018
21
-3.7026644
0
LINE
8
layer1
10
13.7560018
20
-3.7026644
11
13.6994568
21
-3.6846293
0
LINE
8
layer1
10
13.6994568
20
-3.6846293
11
13.6324525
21
-3.6708055
0
LINE
8
layer1
10
13.6324525
20
-3.6708055
11
13.5551531
21
-3.6616092
0
LINE
8
layer1
10
13.5551531
20
-3.6616092
11
13.3062731
21
-3.6547515
0
LINE
8
layer1
10
13.3062731
20
-3.6547515
11
13.0997768
21
-3.6430725
0
LINE
8
layer1
10
13.0997768
20
-3.6430725
11
12.856908
21
-3.6191237
0
LINE
8
layer1
10
12.856908
20
-3.6191237
11
12.5743089
21
-3.5793009
0
LINE
8
layer1
10
12.5743089
20
-3.5793009
11
12.2548813
21
-3.5205594
0
LINE
8
layer1
10
12.2548813
20
-3.5205594
11
11.8989719
21
-3.4395677
0
LINE
8
layer1
10
11.8989719
20
-3.4395677
11
11.5100232
21
-3.3337444
0
LINE
8
layer1
10
11.5100232
20
-3.3337444
11
11.0859608
21
-3.1990671
0
LINE
8
layer1
10
11.0859608
20
-3.1990671
11
10.6834678
21
-3.0532934
0
ARC
8
layer1
10
36.0000117
20
6e-7
40
25.5
50
184.3730721
51
186.8769255
0
LINE
8
layer1
10
10.5742499
20
-1.9443852
11
10.94057
21
-1.72289
0
LINE
8
layer1
10
10.94057
20
-1.72289
11
11.33021
21
-1.50807
0
LINE
8
layer1
10
11.33021
20
-1.50807
11
11.69104
21
-1.3284
0
LINE
8
layer1
10
11.69104
20
-1.3284
11
12.02431
21
-1.17953
0
LINE
8
layer1
10
12.02431
20
-1.17953
11
12.32614
21
-1.0596
0
LINE
8
layer1
10
12.32614
20
-1.0596
11
12.59554
21
-0.96541
0
LINE
8
layer1
10
12.59554
20
-0.96541
11
12.82907
21
-0.89454
0
LINE
8
layer1
10
12.82907
20
-0.89454
11
13.02932
21
-0.8428
0
LINE
8
layer1
10
13.02932
20
-0.8428
11
13.27208
21
-0.78752
0
LINE
8
layer1
10
13.27208
20
-0.78752
11
13.3461
21
-0.76342
0
LINE
8
layer1
10
13.3461
20
-0.76342
11
13.40912
21
-0.73679
0
LINE
8
layer1
10
13.40912
20
-0.73679
11
13.46106
21
-0.70807
0
LINE
8
layer1
10
13.46106
20
-0.70807
11
13.50189
21
-0.67772
0
LINE
8
layer1
10
13.50189
20
-0.67772
11
13.53154
21
-0.6462
0
LINE
8
layer1
10
13.53154
20
-0.6462
11
13.55
21
-0.61394
0
LINE
8
layer1
10
13.55
20
-0.61394
11
13.55725
21
-0.58142
0
LINE
8
layer1
10
13.55725
20
-0.58142
11
13.55612
21
-0.52757
0
LINE
8
layer1
10
13.55612
20
-0.52757
11
13.55
21
0
0
LINE
8
layer1
10
13.55
20
0
11
13.55612
21
0.52757
0
LINE
8
layer1
10
13.55612
20
0.52757
11
13.55725
21
0.58142
0
LINE
8
layer1
10
13.55725
20
0.58142
11
13.55
21
0.61394
0
LINE
8
layer1
10
13.55
20
0.61394
11
13.53154
21
0.6462
0
LINE
8
layer1
10
13.53154
20
0.6462
11
13.50189
21
0.67772
0
LINE
8
layer1
10
13.50189
20
0.67772
11
13.46106
21
0.70807
0
LINE
8
layer1
10
13.46106
20
0.70807
11
13.40912
21
0.73679
0
LINE
8
layer1
10
13.40912
20
0.73679
11
13.3461
21
0.76342
0
LINE
8
layer1
10
13.3461
20
0.76342
11
13.27208
21
0.78752
0
LINE
8
layer1
10
13.27208
20
0.78752
11
13.02932
21
0.8428
0
LINE
8
layer1
10
13.02932
20
0.8428
11
12.82907
21
0.89454
0
LINE
8
layer1
10
12.82907
20
0.89454
11
12.59554
21
0.96541
0
LINE
8
layer1
10
12.59554
20
0.96541
11
12.32614
21
1.0596
0
LINE
8
layer1
10
12.32614
20
1.0596
11
12.02431
21
1.17953
0
LINE
8
layer1
10
12.02431
20
1.17953
11
11.69104
21
1.3284
0
LINE
8
layer1
10
11.69104
20
1.3284
11
11.33021
21
1.50807
0
LINE
8
layer1
10
11.33021
20
1.50807
11
10.94057
21
1.72289
0
LINE
8
layer1
10
10.94057
20
1.72289
11
10.5742499
21
1.9443852
0
ARC
8
layer1
10
36.0000117
20
-6e-7
40
25.5
50
173.1230745
51
175.6269279
0
LINE
8
layer1
10
10.6834678
20
3.0532934
11
11.0859608
21
3.1990671
0
LINE
8
layer1
10
11.0859608
20
3.1990671
11
11.5100232
21
3.3337444
0
LINE
8
layer1
10
11.5100232
20
3.3337444
11
11.8989719
21
3.4395677
0
LINE
8
layer1
10
11.8989719
20
3.4395677
11
12.2548813
21
3.5205594
0
LINE
8
layer1
10
12.2548813
20
3.5205594
11
12.5743089
21
3.5793009
0
LINE
8
layer1
10
12.5743089
20
3.5793009
11
12.856908
21
3.6191237
0
LINE
8
layer1
10
12.856908
20
3.6191237
11
13.0997768
21
3.6430725
0
LINE
8
layer1
10
13.0997768
20
3.6430725
11
13.3062731
21
3.6547515
0
LINE
8
layer1
10
13.3062731
20
3.6547515
11
13.5551531
21
3.6616092
0
LINE
8
layer1
10
13.5551531
20
3.6616092
11
13.6324525
21
3.6708055
0
LINE
8
layer1
10
13.6324525
20
3.6708055
11
13.6994568
21
3.6846293
0
LINE
8
layer1
10
13.6994568
20
3.6846293
11
13.7560018
21
3.7026644
0
LINE
8
layer1
10
13.7560018
20
3.7026644
11
13.8019683
21
3.7244657
0
LINE
8
layer1
10
13.8019683
20
3.7244657
11
13.8371978
21
3.7495956
0
LINE
8
layer1
10
13.8371978
20
3.7495956
11
13.8615967
21
3.7776344
0
LINE
8
layer1
10
13.8615967
20
3.7776344
11
13.8750517
21
3.8081151
0
LINE
8
layer1
10
13.8750517
20
3.8081151
11
13.8844491
21
3.8611509
0
LINE
8
layer1
10
13.8844491
20
3.8611509
11
13.9813705
21
4.3797777
0
LINE
8
layer1
10
13.9813705
20
4.3797777
11
14.0902967
21
4.8960167
0
LINE
8
layer1
10
14.0902967
20
4.8960167
11
14.1019106
21
4.9486115
0
LINE
8
layer1
10
14.1019106
20
4.9486115
11
14.1011442
21
4.981921
0
LINE
8
layer1
10
14.1011442
20
4.981921
11
14.0893325
21
5.0171625
0
LINE
8
layer1
10
14.0893325
20
5.0171625
11
14.0664015
21
5.0538613
0
LINE
8
layer1
10
14.0664015
20
5.0538613
11
14.032277
21
5.0915937
0
LINE
8
layer1
10
14.032277
20
5.0915937
11
13.986938
21
5.1298948
0
LINE
8
layer1
10
13.986938
20
5.1298948
11
13.9303242
21
5.1683077
0
LINE
8
layer1
10
13.9303242
20
5.1683077
11
13.8624281
21
5.2063853
0
LINE
8
layer1
10
13.8624281
20
5.2063853
11
13.6351173
21
5.3079632
0
LINE
8
layer1
10
13.6351173
20
5.3079632
11
13.448809
21
5.3977759
0
LINE
8
layer1
10
13.448809
20
5.3977759
11
13.2335923
21
5.5128436
0
LINE
8
layer1
10
13.2335923
20
5.5128436
11
12.9877443
21
5.6577811
0
LINE
8
layer1
10
12.9877443
20
5.6577811
11
12.715111
21
5.8342907
0
LINE
8
layer1
10
12.715111
20
5.8342907
11
12.4172878
21
6.045318
0
LINE
8
layer1
10
12.4172878
20
6.045318
11
12.098443
21
6.2919301
0
LINE
8
layer1
10
12.098443
20
6.2919301
11
11.7581991
21
6.5786374
0
LINE
8
layer1
10
11.7581991
20
6.5786374
11
11.4421293
21
6.8673422
0
ARC
8
layer1
10
36.0000112
20
-0.0000034
40
25.5
50
161.8730731
51
164.3769266
0
LINE
8
layer1
10
11.7655858
20
7.9336356
11
12.1887841
21
7.9980859
0
LINE
8
layer1
10
12.1887841
20
7.9980859
11
12.6309725
21
8.0474449
0
LINE
8
layer1
10
12.6309725
20
8.0474449
11
13.0330927
21
8.0753547
0
LINE
8
layer1
10
13.0330927
20
8.0753547
11
13.3979641
21
8.0853557
0
LINE
8
layer1
10
13.3979641
20
8.0853557
11
13.7227139
21
8.0806512
0
LINE
8
layer1
10
13.7227139
20
8.0806512
11
14.007652
21
8.0645765
0
LINE
8
layer1
10
14.007652
20
8.0645765
11
14.2505264
21
8.0406838
0
LINE
8
layer1
10
14.2505264
20
8.0406838
11
14.4553333
21
8.011853
0
LINE
8
layer1
10
14.4553333
20
8.011853
11
14.700769
21
7.9700248
0
LINE
8
layer1
10
14.700769
20
7.9700248
11
14.7783773
21
7.9639641
0
LINE
8
layer1
10
14.7783773
20
7.9639641
11
14.846791
21
7.9644503
0
LINE
8
layer1
10
14.846791
20
7.9644503
11
14.905768
21
7.9711075
0
LINE
8
layer1
10
14.905768
20
7.9711075
11
14.9551044
21
7.9835223
0
LINE
8
layer1
10
14.9551044
20
7.9835223
11
14.9945596
21
8.0012964
0
LINE
8
layer1
10
14.9945596
20
8.0012964
11
15.0239598
21
8.0240365
0
LINE
8
layer1
10
15.0239598
20
8.0240365
11
15.0431028
21
8.0513066
0
LINE
8
layer1
10
15.0431028
20
8.0513066
11
15.0626663
21
8.1014899
0
LINE
8
layer1
10
15.0626663
20
8.1014899
11
15.2589045
21
8.5912431
0
LINE
8
layer1
10
15.2589045
20
8.5912431
11
15.4664509
21
9.0763122
0
LINE
8
layer1
10
15.4664509
20
9.0763122
11
15.4881024
21
9.1256306
0
LINE
8
layer1
10
15.4881024
20
9.1256306
11
15.4938492
21
9.1584497
0
LINE
8
layer1
10
15.4938492
20
9.1584497
11
15.4891397
21
9.1953183
0
LINE
8
layer1
10
15.4891397
20
9.1953183
11
15.4738089
21
9.2357856
0
LINE
8
layer1
10
15.4738089
20
9.2357856
11
15.4477013
21
9.2794503
0
LINE
8
layer1
10
15.4477013
20
9.2794503
11
15.4107057
21
9.3258607
0
LINE
8
layer1
10
15.4107057
20
9.3258607
11
15.3626736
21
9.3745803
0
LINE
8
layer1
10
15.3626736
20
9.3745803
11
15.3035108
21
9.425172
0
LINE
8
layer1
10
15.3035108
20
9.425172
11
15.1003845
21
9.5691443
0
LINE
8
layer1
10
15.1003845
20
9.5691443
11
14.9351777
21
9.6935782
0
LINE
8
layer1
10
14.9351777
20
9.6935782
11
14.7465448
21
9.8484216
0
LINE
8
layer1
10
14.7465448
20
9.8484216
11
14.5336967
21
10.0385368
0
LINE
8
layer1
10
14.5336967
20
10.0385368
11
14.3007373
21
10.264843
0
LINE
8
layer1
10
14.3007373
20
10.264843
11
14.0498061
21
10.5299178
0
LINE
8
layer1
10
14.0498061
20
10.5299178
11
13.7851994
21
10.8339949
0
LINE
8
layer1
10
13.7851994
20
10.8339949
11
13.507427
21
11.1815715
0
LINE
8
layer1
10
13.507427
20
11.1815715
11
13.2537539
21
11.526391
0
ARC
8
layer1
10
36.0000104
20
-0.0000055
40
25.5
50
150.6230734
51
153.1269268
0
LINE
8
layer1
10
13.7790188
20
12.5090927
11
14.2066591
21
12.4897427
0
LINE
8
layer1
10
14.2066591
20
12.4897427
11
14.6499805
21
12.4518866
0
LINE
8
layer1
10
14.6499805
20
12.4518866
11
15.049819
21
12.4008103
0
LINE
8
layer1
10
15.049819
20
12.4008103
11
15.4096306
21
12.3394363
0
LINE
8
layer1
10
15.4096306
20
12.3394363
11
15.7272226
21
12.2714667
0
LINE
8
layer1
10
15.7272226
20
12.2714667
11
16.0035497
21
12.2001122
0
LINE
8
layer1
10
16.0035497
20
12.2001122
11
16.237096
21
12.1292962
0
LINE
8
layer1
10
16.237096
20
12.1292962
11
16.432343
21
12.0610635
0
LINE
8
layer1
10
16.432343
20
12.0610635
11
16.6649025
21
11.9721569
0
LINE
8
layer1
10
16.6649025
20
11.9721569
11
16.7398371
21
11.951072
0
LINE
8
layer1
10
16.7398371
20
11.951072
11
16.8070312
21
11.938202
0
LINE
8
layer1
10
16.8070312
20
11.938202
11
16.8661737
21
11.9332255
0
LINE
8
layer1
10
16.8661737
20
11.9332255
11
16.9169841
21
11.9357766
0
LINE
8
layer1
10
16.9169841
20
11.9357766
11
16.9591488
21
11.9455119
0
LINE
8
layer1
10
16.9591488
20
11.9455119
11
16.9924204
21
11.9620793
0
LINE
8
layer1
10
16.9924204
20
11.9620793
11
17.0165157
21
11.9850908
0
LINE
8
layer1
10
17.0165157
20
11.9850908
11
17.0454936
21
12.0304932
0
LINE
8
layer1
10
17.0454936
20
12.0304932
11
17.3335072
21
12.4725517
0
LINE
8
layer1
10
17.3335072
20
12.4725517
11
17.631698
21
12.9078101
0
LINE
8
layer1
10
17.631698
20
12.9078101
11
17.662555
21
12.9519569
0
LINE
8
layer1
10
17.662555
20
12.9519569
11
17.674594
21
12.9830242
0
LINE
8
layer1
10
17.674594
20
12.9830242
11
17.6771678
21
13.0201032
0
LINE
8
layer1
10
17.6771678
20
13.0201032
11
17.6700263
21
13.0627838
0
LINE
8
layer1
10
17.6700263
20
13.0627838
11
17.6529389
21
13.1107028
0
LINE
8
layer1
10
17.6529389
20
13.1107028
11
17.6257084
21
13.163439
0
LINE
8
layer1
10
17.6257084
20
13.163439
11
17.588104
21
13.220593
0
LINE
8
layer1
10
17.588104
20
13.220593
11
17.5399478
21
13.2817548
0
LINE
8
layer1
10
17.5399478
20
13.2817548
11
17.3688122
21
13.4625886
0
LINE
8
layer1
10
17.3688122
20
13.4625886
11
17.2310556
21
13.6168618
0
LINE
8
layer1
10
17.2310556
20
13.6168618
11
17.0762558
21
13.8055304
0
LINE
8
layer1
10
17.0762558
20
13.8055304
11
16.904587
21
14.0335171
0
LINE
8
layer1
10
16.904587
20
14.0335171
11
16.7202541
21
14.300923
0
LINE
8
layer1
10
16.7202541
20
14.300923
11
16.525858
21
14.6098588
0
LINE
8
layer1
10
16.525858
20
14.6098588
11
16.3256581
21
14.9597154
0
LINE
8
layer1
10
16.3256581
20
14.9597154
11
16.1210319
21
15.354804
0
LINE
8
layer1
10
16.1210319
20
15.354804
11
15.9395039
21
15.7424871
0
ARC
8
layer1
10
36.0000083
20
-0.0000083
40
25.5
50
139.3730708
51
141.8769242
0
LINE
8
layer1
10
16.6463917
20
16.6038324
11
17.0620399
21
16.5014257
0
LINE
8
layer1
10
17.0620399
20
16.5014257
11
17.4894577
21
16.3778093
0
LINE
8
layer1
10
17.4894577
20
16.3778093
11
17.8716489
21
16.2497098
0
LINE
8
layer1
10
17.8716489
20
16.2497098
11
18.2125734
21
16.1193193
0
LINE
8
layer1
10
18.2125734
20
16.1193193
11
18.5108027
21
15.9906966
0
LINE
8
layer1
10
18.5108027
20
15.9906966
11
18.7678997
21
15.8668044
0
LINE
8
layer1
10
18.7678997
20
15.8668044
11
18.983143
21
15.7517864
0
LINE
8
layer1
10
18.983143
20
15.7517864
11
19.1613268
21
15.646774
0
LINE
8
layer1
10
19.1613268
20
15.646774
11
19.3720729
21
15.5142056
0
LINE
8
layer1
10
19.3720729
20
15.5142056
11
19.4414542
21
15.4789069
0
LINE
8
layer1
10
19.4414542
20
15.4789069
11
19.5048464
21
15.4531752
0
LINE
8
layer1
10
19.5048464
20
15.4531752
11
19.5618816
21
15.4367562
0
LINE
8
layer1
10
19.5618816
20
15.4367562
11
19.6122134
21
15.4293457
0
LINE
8
layer1
10
19.6122134
20
15.4293457
11
19.6554672
21
15.430668
0
LINE
8
layer1
10
19.6554672
20
15.430668
11
19.6913316
21
15.4404261
0
LINE
8
layer1
10
19.6913316
20
15.4404261
11
19.7194533
21
15.4582947
0
LINE
8
layer1
10
19.7194533
20
15.4582947
11
19.7567319
21
15.4971714
0
LINE
8
layer1
10
19.7567319
20
15.4971714
11
20.1254528
21
15.8745472
0
LINE
8
layer1
10
20.1254528
20
15.8745472
11
20.5028286
21
16.2432681
0
LINE
8
layer1
10
20.5028286
20
16.2432681
11
20.5417053
21
16.2805467
0
LINE
8
layer1
10
20.5417053
20
16.2805467
11
20.5595739
21
16.3086684
0
LINE
8
layer1
10
20.5595739
20
16.3086684
11
20.569332
21
16.3445328
0
LINE
8
layer1
10
20.569332
20
16.3445328
11
20.5706543
21
16.3877866
0
LINE
8
layer1
10
20.5706543
20
16.3877866
11
20.5632438
21
16.4381184
0
LINE
8
layer1
10
20.5632438
20
16.4381184
11
20.5468248
21
16.4951536
0
LINE
8
layer1
10
20.5468248
20
16.4951536
11
20.5210931
21
16.5585458
0
LINE
8
layer1
10
20.5210931
20
16.5585458
11
20.4857944
21
16.6279271
0
LINE
8
layer1
10
20.4857944
20
16.6279271
11
20.353226
21
16.8386732
0
LINE
8
layer1
10
20.353226
20
16.8386732
11
20.2482136
21
17.016857
0
LINE
8
layer1
10
20.2482136
20
17.016857
11
20.1331956
21
17.2321003
0
LINE
8
layer1
10
20.1331956
20
17.2321003
11
20.0093034
21
17.4891973
0
LINE
8
layer1
10
20.0093034
20
17.4891973
11
19.8806807
21
17.7874266
0
LINE
8
layer1
10
19.8806807
20
17.7874266
11
19.7502902
21
18.1283511
0
LINE
8
layer1
10
19.7502902
20
18.1283511
11
19.6221907
21
18.5105423
0
LINE
8
layer1
10
19.6221907
20
18.5105423
11
19.4985743
21
18.9379601
0
LINE
8
layer1
10
19.4985743
20
18.9379601
11
19.3961676
21
19.3536083
0
ARC
8
layer1
10
36.0000082
20
-0.0000083
40
25.5
50
128.1230758
51
130.6269292
0
LINE
8
layer1
10
20.2575129
20
20.0604961
11
20.645196
21
19.8789681
0
LINE
8
layer1
10
20.645196
20
19.8789681
11
21.0402846
21
19.6743419
0
LINE
8
layer1
10
21.0402846
20
19.6743419
11
21.3901412
21
19.474142
0
LINE
8
layer1
10
21.3901412
20
19.474142
11
21.699077
21
19.2797459
0
LINE
8
layer1
10
21.699077
20
19.2797459
11
21.9664829
21
19.095413
0
LINE
8
layer1
10
21.9664829
20
19.095413
11
22.1944696
21
18.9237442
0
LINE
8
layer1
10
22.1944696
20
18.9237442
11
22.3831382
21
18.7689444
0
LINE
8
layer1
10
22.3831382
20
18.7689444
11
22.5374114
21
18.6311878
0
LINE
8
layer1
10
22.5374114
20
18.6311878
11
22.7182452
21
18.4600522
0
LINE
8
layer1
10
22.7182452
20
18.4600522
11
22.779407
21
18.411896
0
LINE
8
layer1
10
22.779407
20
18.411896
11
22.836561
21
18.3742916
0
LINE
8
layer1
10
22.836561
20
18.3742916
11
22.8892972
21
18.3470611
0
LINE
8
layer1
10
22.8892972
20
18.3470611
11
22.9372162
21
18.3299737
0
LINE
8
layer1
10
22.9372162
20
18.3299737
11
22.9798968
21
18.3228322
0
LINE
8
layer1
10
22.9798968
20
18.3228322
11
23.0169758
21
18.325406
0
LINE
8
layer1
10
23.0169758
20
18.325406
11
23.0480431
21
18.337445
0
LINE
8
layer1
10
23.0480431
20
18.337445
11
23.0921899
21
18.368302
0
LINE
8
layer1
10
23.0921899
20
18.368302
11
23.5274483
21
18.6664928
0
LINE
8
layer1
10
23.5274483
20
18.6664928
11
23.9695068
21
18.9545064
0
LINE
8
layer1
10
23.9695068
20
18.9545064
11
24.0149092
21
18.9834843
0
LINE
8
layer1
10
24.0149092
20
18.9834843
11
24.0379207
21
19.0075796
0
LINE
8
layer1
10
24.0379207
20
19.0075796
11
24.0544881
21
19.0408512
0
LINE
8
layer1
10
24.0544881
20
19.0408512
11
24.0642234
21
19.0830159
0
LINE
8
layer1
10
24.0642234
20
19.0830159
11
24.0667745
21
19.1338263
0
LINE
8
layer1
10
24.0667745
20
19.1338263
11
24.061798
21
19.1929688
0
LINE
8
layer1
10
24.061798
20
19.1929688
11
24.048928
21
19.2601629
0
LINE
8
layer1
10
24.048928
20
19.2601629
11
24.0278431
21
19.3350975
0
LINE
8
layer1
10
24.0278431
20
19.3350975
11
23.9389365
21
19.567657
0
LINE
8
layer1
10
23.9389365
20
19.567657
11
23.8707038
21
19.762904
0
LINE
8
layer1
10
23.8707038
20
19.762904
11
23.7998878
21
19.9964503
0
LINE
8
layer1
10
23.7998878
20
19.9964503
11
23.7285333
21
20.2727774
0
LINE
8
layer1
10
23.7285333
20
20.2727774
11
23.6605637
21
20.5903694
0
LINE
8
layer1
10
23.6605637
20
20.5903694
11
23.5991897
21
20.950181
0
LINE
8
layer1
10
23.5991897
20
20.950181
11
23.5481134
21
21.3500195
0
LINE
8
layer1
10
23.5481134
20
21.3500195
11
23.5102573
21
21.7933409
0
LINE
8
layer1
10
23.5102573
20
21.7933409
11
23.4909073
21
22.2209812
0
ARC
8
layer1
10
36.0000055
20
-0.0000103
40
25.5
50
116.8730732
51
119.3769266
0
LINE
8
layer1
10
24.473609
20
22.7462461
11
24.8184285
21
22.492573
0
LINE
8
layer1
10
24.8184285
20
22.492573
11
25.1660051
21
22.2148006
0
LINE
8
layer1
10
25.1660051
20
22.2148006
11
25.4700822
21
21.9501939
0
LINE
8
layer1
10
25.4700822
20
21.9501939
11
25.735157
21
21.6992627
0
LINE
8
layer1
10
25.735157
20
21.6992627
11
25.9614632
21
21.4663033
0
LINE
8
layer1
10
25.9614632
20
21.4663033
11
26.1515784
21
21.2534552
0
LINE
8
layer1
10
26.1515784
20
21.2534552
11
26.3064218
21
21.0648223
0
LINE
8
layer1
10
26.3064218
20
21.0648223
11
26.4308557
21
20.8996155
0
LINE
8
layer1
10
26.4308557
20
20.8996155
11
26.574828
21
20.6964892
0
LINE
8
layer1
10
26.574828
20
20.6964892
11
26.6254197
21
20.6373264
0
LINE
8
layer1
10
26.6254197
20
20.6373264
11
26.6741393
21
20.5892943
0
LINE
8
layer1
10
26.6741393
20
20.5892943
11
26.7205497
21
20.5522987
0
LINE
8
layer1
10
26.7205497
20
20.5522987
11
26.7642144
21
20.5261911
0
LINE
8
layer1
10
26.7642144
20
20.5261911
11
26.8046817
21
20.5108603
0
LINE
8
layer1
10
26.8046817
20
20.5108603
11
26.8415503
21
20.5061508
0
LINE
8
layer1
10
26.8415503
20
20.5061508
11
26.8743694
21
20.5118976
0
LINE
8
layer1
10
26.8743694
20
20.5118976
11
26.9236878
21
20.5335491
0
LINE
8
layer1
10
26.9236878
20
20.5335491
11
27.4087569
21
20.7410955
0
LINE
8
layer1
10
27.4087569
20
20.7410955
11
27.8985101
21
20.9373337
0
LINE
8
layer1
10
27.8985101
20
20.9373337
11
27.9486934
21
20.9568972
0
LINE
8
layer1
10
27.9486934
20
20.9568972
11
27.9759635
21
20.9760402
0
LINE
8
layer1
10
27.9759635
20
20.9760402
11
27.9987036
21
21.0054404
0
LINE
8
layer1
10
27.9987036
20
21.0054404
11
28.0164777
21
21.0448956
0
LINE
8
layer1
10
28.0164777
20
21.0448956
11
28.0288925
21
21.094232
0
LINE
8
layer1
10
28.0288925
20
21.094232
11
28.0355497
21
21.153209
0
LINE
8
layer1
10
28.0355497
20
21.153209
11
28.0360359
21
21.2216227
0
LINE
8
layer1
10
28.0360359
20
21.2216227
11
28.0299752
21
21.299231
0
LINE
8
layer1
10
28.0299752
20
21.299231
11
27.988147
21
21.5446667
0
LINE
8
layer1
10
27.988147
20
21.5446667
11
27.9593162
21
21.7494736
0
LINE
8
layer1
10
27.9593162
20
21.7494736
11
27.9354235
21
21.992348
0
LINE
8
layer1
10
27.9354235
20
21.992348
11
27.9193488
21
22.2772861
0
LINE
8
layer1
10
27.9193488
20
22.2772861
11
27.9146443
21
22.6020359
0
LINE
8
layer1
10
27.9146443
20
22.6020359
11
27.9246453
21
22.9669073
0
LINE
8
layer1
10
27.9246453
20
22.9669073
11
27.9525551
21
23.3690275
0
LINE
8
layer1
10
27.9525551
20
23.3690275
11
28.0019141
21
23.8112159
0
LINE
8
layer1
10
28.0019141
20
23.8112159
11
28.0663644
21
24.2344142
0
ARC
8
layer1
10
36.0000035
20
-0.0000111
40
25.5
50
105.6230734
51
108.1269269
0
LINE
8
layer1
10
29.1326578
20
24.5578707
11
29.4213626
21
24.2418009
0
LINE
8
layer1
10
29.4213626
20
24.2418009
11
29.7080699
21
23.901557
0
LINE
8
layer1
10
29.7080699
20
23.901557
11
29.954682
21
23.5827122
0
LINE
8
layer1
10
29.954682
20
23.5827122
11
30.1657093
21
23.284889
0
LINE
8
layer1
10
30.1657093
20
23.284889
11
30.3422189
21
23.0122557
0
LINE
8
layer1
10
30.3422189
20
23.0122557
11
30.4871564
21
22.7664077
0
LINE
8
layer1
10
30.4871564
20
22.7664077
11
30.6022241
21
22.551191
0
LINE
8
layer1
10
30.6022241
20
22.551191
11
30.6920368
21
22.3648827
0
LINE
8
layer1
10
30.6920368
20
22.3648827
11
30.7936147
21
22.1375719
0
LINE
8
layer1
10
30.7936147
20
22.1375719
11
30.8316923
21
22.0696758
0
LINE
8
layer1
10
30.8316923
20
22.0696758
11
30.8701052
21
22.013062
0
LINE
8
layer1
10
30.8701052
20
22.013062
11
30.9084063
21
21.967723
0
LINE
8
layer1
10
30.9084063
20
21.967723
11
30.9461387
21
21.9335985
0
LINE
8
layer1
10
30.9461387
20
21.9335985
11
30.9828375
21
21.9106675
0
LINE
8
layer1
10
30.9828375
20
21.9106675
11
31.018079
21
21.8988558
0
LINE
8
layer1
10
31.018079
20
21.8988558
11
31.0513885
21
21.8980894
0
LINE
8
layer1
10
31.0513885
20
21.8980894
11
31.1039833
21
21.9097033
0
LINE
8
layer1
10
31.1039833
20
21.9097033
11
31.6202223
21
22.0186295
0
LINE
8
layer1
10
31.6202223
20
22.0186295
11
32.1388491
21
22.1155509
0
LINE
8
layer1
10
32.1388491
20
22.1155509
11
32.1918849
21
22.1249483
0
LINE
8
layer1
10
32.1918849
20
22.1249483
11
32.2223656
21
22.1384033
0
LINE
8
layer1
10
32.2223656
20
22.1384033
11
32.2504044
21
22.1628022
0
LINE
8
layer1
10
32.2504044
20
22.1628022
11
32.2755343
21
22.1980317
0
LINE
8
layer1
10
32.2755343
20
22.1980317
11
32.2973356
21
22.2439982
0
LINE
8
layer1
10
32.2973356
20
22.2439982
11
32.3153707
21
22.3005432
0
LINE
8
layer1
10
32.3153707
20
22.3005432
11
32.3291945
21
22.3675475
0
LINE
8
layer1
10
32.3291945
20
22.3675475
11
32.3383908
21
22.4448469
0
LINE
8
layer1
10
32.3383908
20
22.4448469
11
32.3452485
21
22.6937269
0
LINE
8
layer1
10
32.3452485
20
22.6937269
11
32.3569275
21
22.9002232
0
LINE
8
layer1
10
32.3569275
20
22.9002232
11
32.3808763
21
23.143092
0
LINE
8
layer1
10
32.3808763
20
23.143092
11
32.4206991
21
23.4256911
0
LINE
8
layer1
10
32.4206991
20
23.4256911
11
32.4794406
21
23.7451187
0
LINE
8
layer1
10
32.4794406
20
23.7451187
11
32.5604323
21
24.1010281
0
LINE
8
layer1
10
32.5604323
20
24.1010281
11
32.6662556
21
24.4899768
0
LINE
8
layer1
10
32.6662556
20
24.4899768
11
32.8009329
21
24.9140392
0
LINE
8
layer1
10
32.8009329
20
24.9140392
11
32.9467066
21
25.3165322
0
ARC
8
layer1
10
36.0000006
20
-0.0000117
40
25.5
50
94.3730721
51
96.8769255
0
LINE
8
layer1
10
34.0556148
20
25.4257501
11
34.27711
21
25.05943
0
LINE
8
layer1
10
34.27711
20
25.05943
11
34.49193
21
24.66979
0
LINE
8
layer1
10
34.49193
20
24.66979
11
34.6716
21
24.30896
0
LINE
8
layer1
10
34.6716
20
24.30896
11
34.82047
21
23.97569
0
LINE
8
layer1
10
34.82047
20
23.97569
11
34.9404
21
23.67386
0
LINE
8
layer1
10
34.9404
20
23.67386
11
35.03459
21
23.40446
0
LINE
8
layer1
10
35.03459
20
23.40446
11
35.10546
21
23.17093
0
LINE
8
layer1
10
35.10546
20
23.17093
11
35.1572
21
22.97068
0
LINE
8
layer1
10
35.1572
20
22.97068
11
35.21248
21
22.72792
0
LINE
8
layer1
10
35.21248
20
22.72792
11
35.23658
21
22.6539
0
LINE
8
layer1
10
35.23658
20
22.6539
11
35.26321
21
22.59088
0
LINE
8
layer1
10
35.26321
20
22.59088
11
35.29193
21
22.53894
0
LINE
8
layer1
10
35.29193
20
22.53894
11
35.32228
21
22.49811
0
LINE
8
layer1
10
35.32228
20
22.49811
11
35.3538
21
22.46846
0
LINE
8
layer1
10
35.3538
20
22.46846
11
35.38606
21
22.45
0
LINE
8
layer1
10
35.38606
20
22.45
11
35.41858
21
22.44275
0
LINE
8
layer1
10
35.41858
20
22.44275
11
35.47243
21
22.44388
0
LINE
8
layer1
10
35.47243
20
22.44388
11
36
21
22.45
0
LINE
8
layer1
10
36
20
22.45
11
36.52757
21
22.44388
0
LINE
8
layer1
10
36.52757
20
22.44388
11
36.58142
21
22.44275
0
LINE
8
layer1
10
36.58142
20
22.44275
11
36.61394
21
22.45
0
LINE
8
layer1
10
36.61394
20
22.45
11
36.6462
21
22.46846
0
LINE
8
layer1
10
36.6462
20
22.46846
11
36.67772
21
22.49811
0
LINE
8
layer1
10
36.67772
20
22.49811
11
36.70807
21
22.53894
0
LINE
8
layer1
10
36.70807
20
22.53894
11
36.73679
21
22.59088
0
LINE
8
layer1
10
36.73679
20
22.59088
11
36.76342
21
22.6539
0
LINE
8
layer1
10
36.76342
20
22.6539
11
36.78752
21
22.72792
0
LINE
8
layer1
10
36.78752
20
22.72792
11
36.8428
21
22.97068
0
LINE
8
layer1
10
36.8428
20
22.97068
11
36.89454
21
23.17093
0
LINE
8
layer1
10
36.89454
20
23.17093
11
36.96541
21
23.40446
0
LINE
8
layer1
10
36.96541
20
23.40446
11
37.0596
21
23.67386
0
LINE
8
layer1
10
37.0596
20
23.67386
11
37.17953
21
23.97569
0
LINE
8
layer1
10
37.17953
20
23.97569
11
37.3284
21
24.30896
0
LINE
8
layer1
10
37.3284
20
24.30896
11
37.50807
21
24.66979
0
LINE
8
layer1
10
37.50807
20
24.66979
11
37.72289
21
25.05943
0
LINE
8
layer1
10
37.72289
20
25.05943
11
37.9443852
21
25.4257501
0
ARC
8
layer1
10
35.9999994
20
-0.0000117
40
25.5
50
83.1230745
51
85.6269279
0
LINE
8
layer1
10
39.0532934
20
25.3165322
11
39.1990671
21
24.9140392
0
LINE
8
layer1
10
39.1990671
20
24.9140392
11
39.3337444
21
24.4899768
0
LINE
8
layer1
10
39.3337444
20
24.4899768
11
39.4395677
21
24.1010281
0
LINE
8
layer1
10
39.4395677
20
24.1010281
11
39.5205594
21
23.7451187
0
LINE
8
layer1
10
39.5205594
20
23.7451187
11
39.5793009
21
23.4256911
0
LINE
8
layer1
10
39.5793009
20
23.4256911
11
39.6191237
21
23.143092
0
LINE
8
layer1
10
39.6191237
20
23.143092
11
39.6430725
21
22.9002232
0
LINE
8
layer1
10
39.6430725
20
22.9002232
11
39.6547515
21
22.6937269
0
LINE
8
layer1
10
39.6547515
20
22.6937269
11
39.6616092
21
22.4448469
0
LINE
8
layer1
10
39.6616092
20
22.4448469
11
39.6708055
21
22.3675475
0
LINE
8
layer1
10
39.6708055
20
22.3675475
11
39.6846293
21
22.3005432
0
LINE
8
layer1
10
39.6846293
20
22.3005432
11
39.7026644
21
22.2439982
0
LINE
8
layer1
10
39.7026644
20
22.2439982
11
39.7244657
21
22.1980317
0
LINE
8
layer1
10
39.7244657
20
22.1980317
11
39.7495956
21
22.1628022
0
LINE
8
layer1
10
39.7495956
20
22.1628022
11
39.7776344
21
22.1384033
0
LINE
8
layer1
10
39.7776344
20
22.1384033
11
39.8081151
21
22.1249483
0
LINE
8
layer1
10
39.8081151
20
22.1249483
11
39.8611509
21
22.1155509
0
LINE
8
layer1
10
39.8611509
20
22.1155509
11
40.3797777
21
22.0186295
0
LINE
8
layer1
10
40.3797777
20
22.0186295
11
40.8960167
21
21.9097033
0
LINE
8
layer1
10
40.8960167
20
21.9097033
11
40.9486115
21
21.8980894
0
LINE
8
layer1
10
40.9486115
20
21.8980894
11
40.981921
21
21.8988558
0
LINE
8
layer1
10
40.981921
20
21.8988558
11
41.0171625
21
21.9106675
0
LINE
8
layer1
10
41.0171625
20
21.9106675
11
41.0538613
21
21.9335985
0
LINE
8
layer1
10
41.0538613
20
21.9335985
11
41.0915937
21
21.967723
0
LINE
8
layer1
10
41.0915937
20
21.967723
11
41.1298948
21
22.013062
0
LINE
8
layer1
10
41.1298948
20
22.013062
11
41.1683077
21
22.0696758
0
LINE
8
layer1
10
41.1683077
20
22.0696758
11
41.2063853
21
22.1375719
0
LINE
8
layer1
10
41.2063853
20
22.1375719
11
41.3079632
21
22.3648827
0
LINE
8
layer1
10
41.3079632
20
22.3648827
11
41.3977759
21
22.551191
0
LINE
8
layer1
10
41.3977759
20
22.551191
11
41.5128436
21
22.7664077
0
LINE
8
layer1
10
41.5128436
20
22.7664077
11
41.6577811
21
23.0122557
0
LINE
8
layer1
10
41.6577811
20
23.0122557
11
41.8342907
21
23.284889
0
LINE
8
layer1
10
41.8342907
20
23.284889
11
42.045318
21
23.5827122
0
LINE
8
layer1
10
42.045318
20
23.5827122
11
42.2919301
21
23.901557
0
LINE
8
layer1
10
42.2919301
20
23.901557
11
42.5786374
21
24.2418009
0
LINE
8
layer1
10
42.5786374
20
24.2418009
11
42.8673422
21
24.5578707
0
ARC
8
layer1
10
35.9999966
20
-0.0000112
40
25.5
50
71.8730731
51
74.3769266
0
LINE
8
layer1
10
43.9336356
20
24.2344142
11
43.9980859
21
23.8112159
0
LINE
8
layer1
10
43.9980859
20
23.8112159
11
44.0474449
21
23.3690275
0
LINE
8
layer1
10
44.0474449
20
23.3690275
11
44.0753547
21
22.9669073
0
LINE
8
layer1
10
44.0753547
20
22.9669073
11
44.0853557
21
22.6020359
0
LINE
8
layer1
10
44.0853557
20
22.6020359
11
44.0806512
21
22.2772861
0
LINE
8
layer1
10
44.0806512
20
22.2772861
11
44.0645765
21
21.992348
0
LINE
8
layer1
10
44.0645765
20
21.992348
11
44.0406838
21
21.7494736
0
LINE
8
layer1
10
44.0406838
20
21.7494736
11
44.011853
21
21.5446667
0
LINE
8
layer1
10
44.011853
20
21.5446667
11
43.9700248
21
21.299231
0
LINE
8
layer1
10
43.9700248
20
21.299231
11
43.9639641
21
21.2216227
0
LINE
8
layer1
10
43.9639641
20
21.2216227
11
43.9644503
21
21.153209
0
LINE
8
layer1
10
43.9644503
20
21.153209
11
43.9711075
21
21.094232
0
LINE
8
layer1
10
43.9711075
20
21.094232
11
43.9835223
21
21.0448956
0
LINE
8
layer1
10
43.9835223
20
21.0448956
11
44.0012964
21
21.0054404
0
LINE
8
layer1
10
44.0012964
20
21.0054404
11
44.0240365
21
20.9760402
0
LINE
8
layer1
10
44.0240365
20
20.9760402
11
44.0513066
21
20.9568972
0
LINE
8
layer1
10
44.0513066
20
20.9568972
11
44.1014899
21
20.9373337
0
LINE
8
layer1
10
44.1014899
20
20.9373337
11
44.5912431
21
20.7410955
0
LINE
8
layer1
10
44.5912431
20
20.7410955
11
45.0763122
21
20.5335491
0
LINE
8
layer1
10
45.0763122
20
20.5335491
11
45.1256306
21
20.5118976
0
LINE
8
layer1
10
45.1256306
20
20.5118976
11
45.1584497
21
20.5061508
0
LINE
8
layer1
10
45.1584497
20
20.5061508
11
45.1953183
21
20.5108603
0
LINE
8
layer1
10
45.1953183
20
20.5108603
11
45.2357856
21
20.5261911
0
LINE
8
layer1
10
45.2357856
20
20.5261911
11
45.2794503
21
20.5522987
0
LINE
8
layer1
10
45.2794503
20
20.5522987
11
45.3258607
21
20.5892943
0
LINE
8
layer1
10
45.3258607
20
20.5892943
11
45.3745803
21
20.6373264
0
LINE
8
layer1
10
45.3745803
20
20.6373264
11
45.425172
21
20.6964892
0
LINE
8
layer1
10
45.425172
20
20.6964892
11
45.5691443
21
20.8996155
0
LINE
8
layer1
10
45.5691443
20
20.8996155
11
45.6935782
21
21.0648223
0
LINE
8
layer1
10
45.6935782
20
21.0648223
11
45.8484216
21
21.2534552
0
LINE
8
layer1
10
45.8484216
20
21.2534552
11
46.0385368
21
21.4663033
0
LINE
8
layer1
10
46.0385368
20
21.4663033
11
46.264843
21
21.6992627
0
LINE
8
layer1
10
46.264843
20
21.6992627
11
46.5299178
21
21.9501939
0
LINE
8
layer1
10
46.5299178
20
21.9501939
11
46.8339949
21
22.2148006
0
LINE
8
layer1
10
46.8339949
20
22.2148006
11
47.1815715
21
22.492573
0
LINE
8
layer1
10
47.1815715
20
22.492573
11
47.526391
21
22.7462461
0
ARC
8
layer1
10
35.9999945
20
-0.0000104
40
25.5
50
60.6230734
51
63.1269268
0
LINE
8
layer1
10
48.5090927
20
22.2209812
11
48.4897427
21
21.7933409
0
LINE
8
layer1
10
48.4897427
20
21.7933409
11
48.4518866
21
21.3500195
0
LINE
8
layer1
10
48.4518866
20
21.3500195
11
48.4008103
21
20.950181
0
LINE
8
layer1
10
48.4008103
20
20.950181
11
48.3394363
21
20.5903694
0
LINE
8
layer1
10
48.3394363
20
20.5903694
11
48.2714667
21
20.2727774
0
LINE
8
layer1
10
48.2714667
20
20.2727774
11
48.2001122
21
19.9964503
0
LINE
8
layer1
10
48.2001122
20
19.9964503
11
48.1292962
21
19.762904
0
LINE
8
layer1
10
48.1292962
20
19.762904
11
48.0610635
21
19.567657
0
LINE
8
layer1
10
48.0610635
20
19.567657
11
47.9721569
21
19.3350975
0
LINE
8
layer1
10
47.9721569
20
19.3350975
11
47.951072
21
19.2601629
0
LINE
8
layer1
10
47.951072
20
19.2601629
11
47.938202
21
19.1929688
0
LINE
8
layer1
10
47.938202
20
19.1929688
11
47.9332255
21
19.1338263
0
LINE
8
layer1
10
47.9332255
20
19.1338263
11
47.9357766
21
19.0830159
0
LINE
8
layer1
10
47.9357766
20
19.0830159
11
47.9455119
21
19.0408512
0
LINE
8
layer1
10
47.9455119
20
19.0408512
11
47.9620793
21
19.0075796
0
LINE
8
layer1
10
47.9620793
20
19.0075796
11
47.9850908
21
18.9834843
0
LINE
8
layer1
10
47.9850908
20
18.9834843
11
48.0304932
21
18.9545064
0
LINE
8
layer1
10
48.0304932
20
18.9545064
11
48.4725517
21
18.6664928
0
LINE
8
layer1
10
48.4725517
20
18.6664928
11
48.9078101
21
18.368302
0
LINE
8
layer1
10
48.9078101
20
18.368302
11
48.9519569
21
18.337445
0
LINE
8
layer1
10
48.9519569
20
18.337445
11
48.9830242
21
18.325406
0
LINE
8
layer1
10
48.9830242
20
18.325406
11
49.0201032
21
18.3228322
0
LINE
8
layer1
10
49.0201032
20
18.3228322
11
49.0627838
21
18.3299737
0
LINE
8
layer1
10
49.0627838
20
18.3299737
11
49.1107028
21
18.3470611
0
LINE
8
layer1
10
49.1107028
20
18.3470611
11
49.163439
21
18.3742916
0
LINE
8
layer1
10
49.163439
20
18.3742916
11
49.220593
21
18.411896
0
LINE
8
layer1
10
49.220593
20
18.411896
11
49.2817548
21
18.4600522
0
LINE
8
layer1
10
49.2817548
20
18.4600522
11
49.4625886
21
18.6311878
0
LINE
8
layer1
10
49.4625886
20
18.6311878
11
49.6168618
21
18.7689444
0
LINE
8
layer1
10
49.6168618
20
18.7689444
11
49.8055304
21
18.9237442
0
LINE
8
layer1
10
49.8055304
20
18.9237442
11
50.0335171
21
19.095413
0
LINE
8
layer1
10
50.0335171
20
19.095413
11
50.300923
21
19.2797459
0
LINE
8
layer1
10
50.300923
20
19.2797459
11
50.6098588
21
19.474142
0
LINE
8
layer1
10
50.6098588
20
19.474142
11
50.9597154
21
19.6743419
0
LINE
8
layer1
10
50.9597154
20
19.6743419
11
51.354804
21
19.8789681
0
LINE
8
layer1
10
51.354804
20
19.8789681
11
51.7424871
21
20.0604961
0
ARC
8
layer1
10
35.9999917
20
-0.0000083
40
25.5
50
49.3730708
51
51.8769242
0
LINE
8
layer1
10
52.6038324
20
19.3536083
11
52.5014257
21
18.9379601
0
LINE
8
layer1
10
52.5014257
20
18.9379601
11
52.3778093
21
18.5105423
0
LINE
8
layer1
10
52.3778093
20
18.5105423
11
52.2497098
21
18.1283511
0
LINE
8
layer1
10
52.2497098
20
18.1283511
11
52.1193193
21
17.7874266
0
LINE
8
layer1
10
52.1193193
20
17.7874266
11
51.9906966
21
17.4891973
0
LINE
8
layer1
10
51.9906966
20
17.4891973
11
51.8668044
21
17.2321003
0
LINE
8
layer1
10
51.8668044
20
17.2321003
11
51.7517864
21
17.016857
0
LINE
8
layer1
10
51.7517864
20
17.016857
11
51.646774
21
16.8386732
0
LINE
8
layer1
10
51.646774
20
16.8386732
11
51.5142056
21
16.6279271
0
LINE
8
layer1
10
51.5142056
20
16.6279271
11
51.4789069
21
16.5585458
0
LINE
8
layer1
10
51.4789069
20
16.5585458
11
51.4531752
21
16.4951536
0
LINE
8
layer1
10
51.4531752
20
16.4951536
11
51.4367562
21
16.4381184
0
LINE
8
layer1
10
51.4367562
20
16.4381184
11
51.4293457
21
16.3877866
0
LINE
8
layer1
10
51.4293457
20
16.3877866
11
51.430668
21
16.3445328
0
LINE
8
layer1
10
51.430668
20
16.3445328
11
51.4404261
21
16.3086684
0
LINE
8
layer1
10
51.4404261
20
16.3086684
11
51.4582947
21
16.2805467
0
LINE
8
layer1
10
51.4582947
20
16.2805467
11
51.4971714
21
16.2432681
0
LINE
8
layer1
10
51.4971714
20
16.2432681
11
51.8745472
21
15.8745472
0
LINE
8
layer1
10
51.8745472
20
15.8745472
11
52.2432681
21
15.4971714
0
LINE
8
layer1
10
52.2432681
20
15.4971714
11
52.2805467
21
15.4582947
0
LINE
8
layer1
10
52.2805467
20
15.4582947
11
52.3086684
21
15.4404261
0
LINE
8
layer1
10
52.3086684
20
15.4404261
11
52.3445328
21
15.430668
0
LINE
8
layer1
10
52.3445328
20
15.430668
11
52.3877866
21
15.4293457
0
LINE
8
layer1
10
52.3877866
20
15.4293457
11
52.4381184
21
15.4367562
0
LINE
8
layer1
10
52.4381184
20
15.4367562
11
52.4951536
21
15.4531752
0
LINE
8
layer1
10
52.4951536
20
15.4531752
11
52.5585458
21
15.4789069
0
LINE
8
layer1
10
52.5585458
20
15.4789069
11
52.6279271
21
15.5142056
0
LINE
8
layer1
10
52.6279271
20
15.5142056
11
52.8386732
21
15.646774
0
LINE
8
layer1
10
52.8386732
20
15.646774
11
53.016857
21
15.7517864
0
LINE
8
layer1
10
53.016857
20
15.7517864
11
53.2321003
21
15.8668044
0
LINE
8
layer1
10
53.2321003
20
15.8668044
11
53.4891973
21
15.9906966
0
LINE
8
layer1
10
53.4891973
20
15.9906966
11
53.7874266
21
16.1193193
0
LINE
8
layer1
10
53.7874266
20
16.1193193
11
54.1283511
21
16.2497098
0
LINE
8
layer1
10
54.1283511
20
16.2497098
11
54.5105423
21
16.3778093
0
LINE
8
layer1
10
54.5105423
20
16.3778093
11
54.9379601
21
16.5014257
0
LINE
8
layer1
10
54.9379601
20
16.5014257
11
55.3536083
21
16.6038324
0
ARC
8
layer1
10
35.9999917
20
-0.0000082
40
25.5
50
38.1230758
51
40.6269292
0
LINE
8
layer1
10
56.0604961
20
15.7424871
11
55.8789681
21
15.354804
0
LINE
8
layer1
10
55.8789681
20
15.354804
11
55.6743419
21
14.9597154
0
LINE
8
layer1
10
55.6743419
20
14.9597154
11
55.474142
21
14.6098588
0
LINE
8
layer1
10
55.474142
20
14.6098588
11
55.2797459
21
14.300923
0
LINE
8
layer1
10
55.2797459
20
14.300923
11
55.095413
21
14.0335171
0
LINE
8
layer1
10
55.095413
20
14.0335171
11
54.9237442
21
13.8055304
0
LINE
8
layer1
10
54.9237442
20
13.8055304
11
54.7689444
21
13.6168618
0
LINE
8
layer1
10
54.7689444
20
13.6168618
11
54.6311878
21
13.4625886
0
LINE
8
layer1
10
54.6311878
20
13.4625886
11
54.4600522
21
13.2817548
0
LINE
8
layer1
10
54.4600522
20
13.2817548
11
54.411896
21
13.220593
0
LINE
8
layer1
10
54.411896
20
13.220593
11
54.3742916
21
13.163439
0
LINE
8
layer1
10
54.3742916
20
13.163439
11
54.3470611
21
13.1107028
0
LINE
8
layer1
10
54.3470611
20
13.1107028
11
54.3299737
21
13.0627838
0
LINE
8
layer1
10
54.3299737
20
13.0627838
11
54.3228322
21
13.0201032
0
LINE
8
layer1
10
54.3228322
20
13.0201032
11
54.325406
21
12.9830242
0
LINE
8
layer1
10
54.325406
20
12.9830242
11
54.337445
21
12.9519569
0
LINE
8
layer1
10
54.337445
20
12.9519569
11
54.368302
21
12.9078101
0
LINE
8
layer1
10
54.368302
20
12.9078101
11
54.6664928
21
12.4725517
0
LINE
8
layer1
10
54.6664928
20
12.4725517
11
54.9545064
21
12.0304932
0
LINE
8
layer1
10
54.9545064
20
12.0304932
11
54.9834843
21
11.9850908
0
LINE
8
layer1
10
54.9834843
20
11.9850908
11
55.0075796
21
11.9620793
0
LINE
8
layer1
10
55.0075796
20
11.9620793
11
55.0408512
21
11.9455119
0
LINE
8
layer1
10
55.0408512
20
11.9455119
11
55.0830159
21
11.9357766
0
LINE
8
layer1
10
55.0830159
20
11.9357766
11
55.1338263
21
11.9332255
0
LINE
8
layer1
10
55.1338263
20
11.9332255
11
55.1929688
21
11.938202
0
LINE
8
layer1
10
55.1929688
20
11.938202
11
55.2601629
21
11.951072
0
LINE
8
layer1
10
55.2601629
20
11.951072
11
55.3350975
21
11.9721569
0
LINE
8
layer1
10
55.3350975
20
11.9721569
11
55.567657
21
12.0610635
0
LINE
8
layer1
10
55.567657
20
12.0610635
11
55.762904
21
12.1292962
0
LINE
8
layer1
10
55.762904
20
12.1292962
11
55.9964503
21
12.2001122
0
LINE
8
layer1
10
55.9964503
20
12.2001122
11
56.2727774
21
12.2714667
0
LINE
8
layer1
10
56.2727774
20
12.2714667
11
56.5903694
21
12.3394363
0
LINE
8
layer1
10
56.5903694
20
12.3394363
11
56.950181
21
12.4008103
0
LINE
8
layer1
10
56.950181
20
12.4008103
11
57.3500195
21
12.4518866
0
LINE
8
layer1
10
57.3500195
20
12.4518866
11
57.7933409
21
12.4897427
0
LINE
8
layer1
10
57.7933409
20
12.4897427
11
58.2209812
21
12.5090927
0
ARC
8
layer1
10
35.9999897
20
-0.0000055
40
25.5
50
26.8730732
51
29.3769266
0
LINE
8
layer1
10
58.7462461
20
11.526391
11
58.492573
21
11.1815715
0
LINE
8
layer1
10
58.492573
20
11.1815715
11
58.2148006
21
10.8339949
0
LINE
8
layer1
10
58.2148006
20
10.8339949
11
57.9501939
21
10.5299178
0
LINE
8
layer1
10
57.9501939
20
10.5299178
11
57.6992627
21
10.264843
0
LINE
8
layer1
10
57.6992627
20
10.264843
11
57.4663033
21
10.0385368
0
LINE
8
layer1
10
57.4663033
20
10.0385368
11
57.2534552
21
9.8484216
0
LINE
8
layer1
10
57.2534552
20
9.8484216
11
57.0648223
21
9.6935782
0
LINE
8
layer1
10
57.0648223
20
9.6935782
11
56.8996155
21
9.5691443
0
LINE
8
layer1
10
56.8996155
20
9.5691443
11
56.6964892
21
9.425172
0
LINE
8
layer1
10
56.6964892
20
9.425172
11
56.6373264
21
9.3745803
0
LINE
8
layer1
10
56.6373264
20
9.3745803
11
56.5892943
21
9.3258607
0
LINE
8
layer1
10
56.5892943
20
9.3258607
11
56.5522987
21
9.2794503
0
LINE
8
layer1
10
56.5522987
20
9.2794503
11
56.5261911
21
9.2357856
0
LINE
8
layer1
10
56.5261911
20
9.2357856
11
56.5108603
21
9.1953183
0
LINE
8
layer1
10
56.5108603
20
9.1953183
11
56.5061508
21
9.1584497
0
LINE
8
layer1
10
56.5061508
20
9.1584497
11
56.5118976
21
9.1256306
0
LINE
8
layer1
10
56.5118976
20
9.1256306
11
56.5335491
21
9.0763122
0
LINE
8
layer1
10
56.5335491
20
9.0763122
11
56.7410955
21
8.5912431
0
LINE
8
layer1
10
56.7410955
20
8.5912431
11
56.9373337
21
8.1014899
0
LINE
8
layer1
10
56.9373337
20
8.1014899
11
56.9568972
21
8.0513066
0
LINE
8
layer1
10
56.9568972
20
8.0513066
11
56.9760402
21
8.0240365
0
LINE
8
layer1
10
56.9760402
20
8.0240365
11
57.0054404
21
8.0012964
0
LINE
8
layer1
10
57.0054404
20
8.0012964
11
57.0448956
21
7.9835223
0
LINE
8
layer1
10
57.0448956
20
7.9835223
11
57.094232
21
7.9711075
0
LINE
8
layer1
10
57.094232
20
7.9711075
11
57.153209
21
7.9644503
0
LINE
8
layer1
10
57.153209
20
7.9644503
11
57.2216227
21
7.9639641
0
LINE
8
layer1
10
57.2216227
20
7.9639641
11
57.299231
21
7.9700248
0
LINE
8
layer1
10
57.299231
20
7.9700248
11
57.5446667
21
8.011853
0
LINE
8
layer1
10
57.5446667
20
8.011853
11
57.7494736
21
8.0406838
0
LINE
8
layer1
10
57.7494736
20
8.0406838
11
57.992348
21
8.0645765
0
LINE
8
layer1
10
57.992348
20
8.0645765
11
58.2772861
21
8.0806512
0
LINE
8
layer1
10
58.2772861
20
8.0806512
11
58.6020359
21
8.0853557
0
LINE
8
layer1
10
58.6020359
20
8.0853557
11
58.9669073
21
8.0753547
0
LINE
8
layer1
10
58.9669073
20
8.0753547
11
59.3690275
21
8.0474449
0
LINE
8
layer1
10
59.3690275
20
8.0474449
11
59.8112159
21
7.9980859
0
LINE
8
layer1
10
59.8112159
20
7.9980859
11
60.2344142
21
7.9336356
0
ARC
8
layer1
10
35.9999889
20
-0.0000035
40
25.5
50
15.6230734
51
18.1269269
0
LINE
8
layer1
10
60.5578707
20
6.8673422
11
60.2418009
21
6.5786374
0
LINE
8
layer1
10
60.2418009
20
6.5786374
11
59.901557
21
6.2919301
0
LINE
8
layer1
10
59.901557
20
6.2919301
11
59.5827122
21
6.045318
0
LINE
8
layer1
10
59.5827122
20
6.045318
11
59.284889
21
5.8342907
0
LINE
8
layer1
10
59.284889
20
5.8342907
11
59.0122557
21
5.6577811
0
LINE
8
layer1
10
59.0122557
20
5.6577811
11
58.7664077
21
5.5128436
0
LINE
8
layer1
10
58.7664077
20
5.5128436
11
58.551191
21
5.3977759
0
LINE
8
layer1
10
58.551191
20
5.3977759
11
58.3648827
21
5.3079632
0
LINE
8
layer1
10
58.3648827
20
5.3079632
11
58.1375719
21
5.2063853
0
LINE
8
layer1
10
58.1375719
20
5.2063853
11
58.0696758
21
5.1683077
0
LINE
8
layer1
10
58.0696758
20
5.1683077
11
58.013062
21
5.1298948
0
LINE
8
layer1
10
58.013062
20
5.1298948
11
57.967723
21
5.0915937
0
LINE
8
layer1
10
57.967723
20
5.0915937
11
57.9335985
21
5.0538613
0
LINE
8
layer1
10
57.9335985
20
5.0538613
11
57.9106675
21
5.0171625
0
LINE
8
layer1
10
57.9106675
20
5.0171625
11
57.8988558
21
4.981921
0
LINE
8
layer1
10
57.8988558
20
4.981921
11
57.8980894
21
4.9486115
0
LINE
8
layer1
10
57.8980894
20
4.9486115
11
57.9097033
21
4.8960167
0
LINE
8
layer1
10
57.9097033
20
4.8960167
11
58.0186295
21
4.3797777
0
LINE
8
layer1
10
58.0186295
20
4.3797777
11
58.1155509
21
3.8611509
0
LINE
8
layer1
10
58.1155509
20
3.8611509
11
58.1249483
21
3.8081151
0
LINE
8
layer1
10
58.1249483
20
3.8081151
11
58.1384033
21
3.7776344
0
LINE
8
layer1
10
58.1384033
20
3.7776344
11
58.1628022
21
3.7495956
0
LINE
8
layer1
10
58.1628022
20
3.7495956
11
58.1980317
21
3.7244657
0
LINE
8
layer1
10
58.1980317
20
3.7244657
11
58.2439982
21
3.7026644
0
LINE
8
layer1
10
58.2439982
20
3.7026644
11
58.3005432
21
3.6846293
0
LINE
8
layer1
10
58.3005432
20
3.6846293
11
58.3675475
21
3.6708055
0
LINE
8
layer1
10
58.3675475
20
3.6708055
11
58.4448469
21
3.6616092
0
LINE
8
layer1
10
58.4448469
20
3.6616092
11
58.6937269
21
3.6547515
0
LINE
8
layer1
10
58.6937269
20
3.6547515
11
58.9002232
21
3.6430725
0
LINE
8
layer1
10
58.9002232
20
3.6430725
11
59.143092
21
3.6191237
0
LINE
8
layer1
10
59.143092
20
3.6191237
11
59.4256911
21
3.5793009
0
LINE
8
layer1
10
59.4256911
20
3.5793009
11
59.7451187
21
3.5205594
0
LINE
8
layer1
10
59.7451187
20
3.5205594
11
60.1010281
21
3.4395677
0
LINE
8
layer1
10
60.1010281
20
3.4395677
11
60.4899768
21
3.3337444
0
LINE
8
layer1
10
60.4899768
20
3.3337444
11
60.9140392
21
3.1990671
0
LINE
8
layer1
10
60.9140392
20
3.1990671
11
61.3165322
21
3.0532934
0
ARC
8
layer1
10
35.9999883
20
-6e-7
40
25.5
50
4.3730721
51
6.8769255
0
LINE
8
layer1
10
61.4257501
20
1.9443852
11
61.05943
21
1.72289
0
LINE
8
layer1
10
61.05943
20
1.72289
11
60.66979
21
1.50807
0
LINE
8
layer1
10
60.66979
20
1.50807
11
60.30896
21
1.3284
0
LINE
8
layer1
10
60.30896
20
1.3284
11
59.97569
21
1.17953
0
LINE
8
layer1
10
59.97569
20
1.17953
11
59.67386
21
1.0596
0
LINE
8
layer1
10
59.67386
20
1.0596
11
59.40446
21
0.96541
0
LINE
8
layer1
10
59.40446
20
0.96541
11
59.17093
21
0.89454
0
LINE
8
layer1
10
59.17093
20
0.89454
11
58.97068
21
0.8428
0
LINE
8
layer1
10
58.97068
20
0.8428
11
58.72792
21
0.78752
0
LINE
8
layer1
10
58.72792
20
0.78752
11
58.6539
21
0.76342
0
LINE
8
layer1
10
58.6539
20
0.76342
11
58.59088
21
0.73679
0
LINE
8
layer1
10
58.59088
20
0.73679
11
58.53894
21
0.70807
0
LINE
8
layer1
10
58.53894
20
0.70807
11
58.49811
21
0.67772
0
LINE
8
layer1
10
58.49811
20
0.67772
11
58.46846
21
0.6462
0
LINE
8
layer1
10
58.46846
20
0.6462
11
58.45
21
0.61394
0
LINE
8
layer1
10
58.45
20
0.61394
11
58.44275
21
0.58142
0
LINE
8
layer1
10
58.44275
20
0.58142
11
58.44388
21
0.52757
0
LINE
8
layer1
10
58.44388
20
0.52757
11
58.45
21
0
0
LINE
8
layer1
10
58.45
20
0
11
58.44388
21
-0.52757
0
LINE
8
layer1
10
58.44388
20
-0.52757
11
58.44275
21
-0.58142
0
LINE
8
layer1
10
58.44275
20
-0.58142
11
58.45
21
-0.61394
0
LINE
8
layer1
10
58.45
20
-0.61394
11
58.46846
21
-0.6462
0
LINE
8
layer1
10
58.46846
20
-0.6462
11
58.49811
21
-0.67772
0
LINE
8
layer1
10
58.49811
20
-0.67772
11
58.53894
21
-0.70807
0
LINE
8
layer1
10
58.53894
20
-0.70807
11
58.59088
21
-0.73679
0
LINE
8
layer1
10
58.59088
20
-0.73679
11
58.6539
21
-0.76342
0
LINE
8
layer1
10
58.6539
20
-0.76342
11
58.72792
21
-0.78752
0
LINE
8
layer1
10
58.72792
20
-0.78752
11
58.97068
21
-0.8428
0
LINE
8
layer1
10
58.97068
20
-0.8428
11
59.17093
21
-0.89454
0
LINE
8
layer1
10
59.17093
20
-0.89454
11
59.40446
21
-0.96541
0
LINE
8
layer1
10
59.40446
20
-0.96541
11
59.67386
21
-1.0596
0
LINE
8
layer1
10
59.67386
20
-1.0596
11
59.97569
21
-1.17953
0
LINE
8
layer1
10
59.97569
20
-1.17953
11
60.30896
21
-1.3284
0
LINE
8
layer1
10
60.30896
20
-1.3284
11
60.66979
21
-1.50807
0
LINE
8
layer1
10
60.66979
20
-1.50807
11
61.05943
21
-1.72289
0
LINE
8
layer1
10
61.05943
20
-1.72289
11
61.4257501
21
-1.9443852
0
ARC
8
layer1
10
35.9999883
20
6e-7
40
25.5
50
353.1230745
51
355.6269279
0
LINE
8
layer1
10
61.3165322
20
-3.0532934
11
60.9140392
21
-3.1990671
0
LINE
8
layer1
10
60.9140392
20
-3.1990671
11
60.4899768
21
-3.3337444
0
LINE
8
layer1
10
60.4899768
20
-3.3337444
11
60.1010281
21
-3.4395677
0
LINE
8
layer1
10
60.1010281
20
-3.4395677
11
59.7451187
21
-3.5205594
0
LINE
8
layer1
10
59.7451187
20
-3.5205594
11
59.4256911
21
-3.5793009
0
LINE
8
layer1
10
59.4256911
20
-3.5793009
11
59.143092
21
-3.6191237
0
LINE
8
layer1
10
59.143092
20
-3.6191237
11
58.9002232
21
-3.6430725
0
LINE
8
layer1
10
58.9002232
20
-3.6430725
11
58.6937269
21
-3.6547515
0
LINE
8
layer1
10
58.6937269
20
-3.6547515
11
58.4448469
21
-3.6616092
0
LINE
8
layer1
10
58.4448469
20
-3.6616092
11
58.3675475
21
-3.6708055
0
LINE
8
layer1
10
58.3675475
20
-3.6708055
11
58.3005432
21
-3.6846293
0
LINE
8
layer1
10
58.3005432
20
-3.6846293
11
58.2439982
21
-3.7026644
0
LINE
8
layer1
10
58.2439982
20
-3.7026644
11
58.1980317
21
-3.7244657
0
LINE
8
layer1
10
58.1980317
20
-3.7244657
11
58.1628022
21
-3.7495956
0
LINE
8
layer1
10
58.1628022
20
-3.7495956
11
58.1384033
21
-3.7776344
0
LINE
8
layer1
10
58.1384033
20
-3.7776344
11
58.1249483
21
-3.8081151
0
LINE
8
layer1
10
58.1249483
20
-3.8081151
11
58.1155509
21
-3.8611509
0
LINE
8
layer1
10
58.1155509
20
-3.8611509
11
58.0186295
21
-4.3797777
0
LINE
8
layer1
10
58.0186295
20
-4.3797777
11
57.9097033
21
-4.8960167
0
LINE
8
layer1
10
57.9097033
20
-4.8960167
11
57.8980894
21
-4.9486115
0
LINE
8
layer1
10
57.8980894
20
-4.9486115
11
57.8988558
21
-4.981921
0
LINE
8
layer1
10
57.8988558
20
-4.981921
11
57.9106675
21
-5.0171625
0
LINE
8
layer1
10
57.9106675
20
-5.0171625
11
57.9335985
21
-5.0538613
0
LINE
8
layer1
10
57.9335985
20
-5.0538613
11
57.967723
21
-5.0915937
0
LINE
8
layer1
10
57.967723
20
-5.0915937
11
58.013062
21
-5.1298948
0
LINE
8
layer1
10
58.013062
20
-5.1298948
11
58.0696758
21
-5.1683077
0
LINE
8
layer1
10
58.0696758
20
-5.1683077
11
58.1375719
21
-5.2063853
0
LINE
8
layer1
10
58.1375719
20
-5.2063853
11
58.3648827
21
-5.3079632
0
LINE
8
layer1
10
58.3648827
20
-5.3079632
11
58.551191
21
-5.3977759
0
LINE
8
layer1
10
58.551191
20
-5.3977759
11
58.7664077
21
-5.5128436
0
LINE
8
layer1
10
58.7664077
20
-5.5128436
11
59.0122557
21
-5.6577811
0
LINE
8
layer1
10
59.0122557
20
-5.6577811
11
59.284889
21
-5.8342907
0
LINE
8
layer1
10
59.284889
20
-5.8342907
11
59.5827122
21
-6.045318
0
LINE
8
layer1
10
59.5827122
20
-6.045318
11
59.901557
21
-6.2919301
0
LINE
8
layer1
10
59.901557
20
-6.2919301
11
60.2418009
21
-6.5786374
0
LINE
8
layer1
10
60.2418009
20
-6.5786374
11
60.5578707
21
-6.8673422
0
ARC
8
layer1
10
35.9999888
20
0.0000034
40
25.5
50
341.8730731
51
344.3769266
0
LINE
8
layer1
10
60.2344142
20
-7.9336356
11
59.8112159
21
-7.9980859
0
LINE
8
layer1
10
59.8112159
20
-7.9980859
11
59.3690275
21
-8.0474449
0
LINE
8
layer1
10
59.3690275
20
-8.0474449
11
58.9669073
21
-8.0753547
0
LINE
8
layer1
10
58.9669073
20
-8.0753547
11
58.6020359
21
-8.0853557
0
LINE
8
layer1
10
58.6020359
20
-8.0853557
11
58.2772861
21
-8.0806512
0
LINE
8
layer1
10
58.2772861
20
-8.0806512
11
57.992348
21
-8.0645765
0
LINE
8
layer1
10
57.992348
20
-8.0645765
11
57.7494736
21
-8.0406838
0
LINE
8
layer1
10
57.7494736
20
-8.0406838
11
57.5446667
21
-8.011853
0
LINE
8
layer1
10
57.5446667
20
-8.011853
11
57.299231
21
-7.9700248
0
LINE
8
layer1
10
57.299231
20
-7.9700248
11
57.2216227
21
-7.9639641
0
LINE
8
layer1
10
57.2216227
20
-7.9639641
11
57.153209
21
-7.9644503
0
LINE
8
layer1
10
57.153209
20
-7.9644503
11
57.094232
21
-7.9711075
0
LINE
8
layer1
10
57.094232
20
-7.9711075
11
57.0448956
21
-7.9835223
0
LINE
8
layer1
10
57.0448956
20
-7.9835223
11
57.0054404
21
-8.0012964
0
LINE
8
layer1
10
57.0054404
20
-8.0012964
11
56.9760402
21
-8.0240365
0
LINE
8
layer1
10
56.9760402
20
-8.0240365
11
56.9568972
21
-8.0513066
0
LINE
8
layer1
10
56.9568972
20
-8.0513066
11
56.9373337
21
-8.1014899
0
LINE
8
layer1
10
56.9373337
20
-8.1014899
11
56.7410955
21
-8.5912431
0
LINE
8
layer1
10
56.7410955
20
-8.5912431
11
56.5335491
21
-9.0763122
0
LINE
8
layer1
10
56.5335491
20
-9.0763122
11
56.5118976
21
-9.1256306
0
LINE
8
layer1
10
56.5118976
20
-9.1256306
11
56.5061508
21
-9.1584497
0
LINE
8
layer1
10
56.5061508
20
-9.1584497
11
56.5108603
21
-9.1953183
0
LINE
8
layer1
10
56.5108603
20
-9.1953183
11
56.5261911
21
-9.2357856
0
LINE
8
layer1
10
56.5261911
20
-9.2357856
11
56.5522987
21
-9.2794503
0
LINE
8
layer1
10
56.5522987
20
-9.2794503
11
56.5892943
21
-9.3258607
0
LINE
8
layer1
10
56.5892943
20
-9.3258607
11
56.6373264
21
-9.3745803
0
LINE
8
layer1
10
56.6373264
20
-9.3745803
11
56.6964892
21
-9.425172
0
LINE
8
layer1
10
56.6964892
20
-9.425172
11
56.8996155
21
-9.5691443
0
LINE
8
layer1
10
56.8996155
20
-9.5691443
11
57.0648223
21
-9.6935782
0
LINE
8
layer1
10
57.0648223
20
-9.6935782
11
57.2534552
21
-9.8484216
0
LINE
8
layer1
10
57.2534552
20
-9.8484216
11
57.4663033
21
-10.0385368
0
LINE
8
layer1
10
57.4663033
20
-10.0385368
11
57.6992627
21
-10.264843
0
LINE
8
layer1
10
57.6992627
20
-10.264843
11
57.9501939
21
-10.5299178
0
LINE
8
layer1
10
57.9501939
20
-10.5299178
11
58.2148006
21
-10.8339949
0
LINE
8
layer1
10
58.2148006
20
-10.8339949
11
58.492573
21
-11.1815715
0
LINE
8
layer1
10
58.492573
20
-11.1815715
11
58.7462461
21
-11.526391
0
ARC
8
layer1
10
35.9999896
20
0.0000055
40
25.5
50
330.6230734
51
333.1269268
0
LINE
8
layer1
10
58.2209812
20
-12.5090927
11
57.7933409
21
-12.4897427
0
LINE
8
layer1
10
57.7933409
20
-12.4897427
11
57.3500195
21
-12.4518866
0
LINE
8
layer1
10
57.3500195
20
-12.4518866
11
56.950181
21
-12.4008103
0
LINE
8
layer1
10
56.950181
20
-12.4008103
11
56.5903694
21
-12.3394363
0
LINE
8
layer1
10
56.5903694
20
-12.3394363
11
56.2727774
21
-12.2714667
0
LINE
8
layer1
10
56.2727774
20
-12.2714667
11
55.9964503
21
-12.2001122
0
LINE
8
layer1
10
55.9964503
20
-12.2001122
11
55.762904
21
-12.1292962
0
LINE
8
layer1
10
55.762904
20
-12.1292962
11
55.567657
21
-12.0610635
0
LINE
8
layer1
10
55.567657
20
-12.0610635
11
55.3350975
21
-11.9721569
0
LINE
8
layer1
10
55.3350975
20
-11.9721569
11
55.2601629
21
-11.951072
0
LINE
8
layer1
10
55.2601629
20
-11.951072
11
55.1929688
21
-11.938202
0
LINE
8
layer1
10
55.1929688
20
-11.938202
11
55.1338263
21
-11.9332255
0
LINE
8
layer1
10
55.1338263
20
-11.9332255
11
55.0830159
21
-11.9357766
0
LINE
8
layer1
10
55.0830159
20
-11.9357766
11
55.0408512
21
-11.9455119
0
LINE
8
layer1
10
55.0408512
20
-11.9455119
11
55.0075796
21
-11.9620793
0
LINE
8
layer1
10
55.0075796
20
-11.9620793
11
54.9834843
21
-11.9850908
0
LINE
8
layer1
10
54.9834843
20
-11.9850908
11
54.9545064
21
-12.0304932
0
LINE
8
layer1
10
54.9545064
20
-12.0304932
11
54.6664928
21
-12.4725517
0
LINE
8
layer1
10
54.6664928
20
-12.4725517
11
54.368302
21
-12.9078101
0
LINE
8
layer1
10
54.368302
20
-12.9078101
11
54.337445
21
-12.9519569
0
LINE
8
layer1
10
54.337445
20
-12.9519569
11
54.325406
21
-12.9830242
0
LINE
8
layer1
10
54.325406
20
-12.9830242
11
54.3228322
21
-13.0201032
0
LINE
8
layer1
10
54.3228322
20
-13.0201032
11
54.3299737
21
-13.0627838
0
LINE
8
layer1
10
54.3299737
20
-13.0627838
11
54.3470611
21
-13.1107028
0
LINE
8
layer1
10
54.3470611
20
-13.1107028
11
54.3742916
21
-13.163439
0
LINE
8
layer1
10
54.3742916
20
-13.163439
11
54.411896
21
-13.220593
0
LINE
8
layer1
10
54.411896
20
-13.220593
11
54.4600522
21
-13.2817548
0
LINE
8
layer1
10
54.4600522
20
-13.2817548
11
54.6311878
21
-13.4625886
0
LINE
8
layer1
10
54.6311878
20
-13.4625886
11
54.7689444
21
-13.6168618
0
LINE
8
layer1
10
54.7689444
20
-13.6168618
11
54.9237442
21
-13.8055304
0
LINE
8
layer1
10
54.9237442
20
-13.8055304
11
55.095413
21
-14.0335171
0
LINE
8
layer1
10
55.095413
20
-14.0335171
11
55.2797459
21
-14.300923
0
LINE
8
layer1
10
55.2797459
20
-14.300923
11
55.474142
21
-14.6098588
0
LINE
8
layer1
10
55.474142
20
-14.6098588
11
55.6743419
21
-14.9597154
0
LINE
8
layer1
10
55.6743419
20
-14.9597154
11
55.8789681
21
-15.354804
0
LINE
8
layer1
10
55.8789681
20
-15.354804
11
56.0604961
21
-15.7424871
0
ARC
8
layer1
10
35.9999917
20
0.0000083
40
25.5
50
319.3730708
51
321.8769242
0
LINE
8
layer1
10
55.3536083
20
-16.6038324
11
54.9379601
21
-16.5014257
0
LINE
8
layer1
10
54.9379601
20
-16.5014257
11
54.5105423
21
-16.3778093
0
LINE
8
layer1
10
54.5105423
20
-16.3778093
11
54.1283511
21
-16.2497098
0
LINE
8
layer1
10
54.1283511
20
-16.2497098
11
53.7874266
21
-16.1193193
0
LINE
8
layer1
10
53.7874266
20
-16.1193193
11
53.4891973
21
-15.9906966
0
LINE
8
layer1
10
53.4891973
20
-15.9906966
11
53.2321003
21
-15.8668044
0
LINE
8
layer1
10
53.2321003
20
-15.8668044
11
53.016857
21
-15.7517864
0
LINE
8
layer1
10
53.016857
20
-15.7517864
11
52.8386732
21
-15.646774
0
LINE
8
layer1
10
52.8386732
20
-15.646774
11
52.6279271
21
-15.5142056
0
LINE
8
layer1
10
52.6279271
20
-15.5142056
11
52.5585458
21
-15.4789069
0
LINE
8
layer1
10
52.5585458
20
-15.4789069
11
52.4951536
21
-15.4531752
0
LINE
8
layer1
10
52.4951536
20
-15.4531752
11
52.4381184
21
-15.4367562
0
LINE
8
layer1
10
52.4381184
20
-15.4367562
11
52.3877866
21
-15.4293457
0
LINE
8
layer1
10
52.3877866
20
-15.4293457
11
52.3445328
21
-15.430668
0
LINE
8
layer1
10
52.3445328
20
-15.430668
11
52.3086684
21
-15.4404261
0
LINE
8
layer1
10
52.3086684
20
-15.4404261
11
52.2805467
21
-15.4582947
0
LINE
8
layer1
10
52.2805467
20
-15.4582947
11
52.2432681
21
-15.4971714
0
LINE
8
layer1
10
52.2432681
20
-15.4971714
11
51.8745472
21
-15.8745472
0
LINE
8
layer1
10
51.8745472
20
-15.8745472
11
51.4971714
21
-16.2432681
0
LINE
8
layer1
10
51.4971714
20
-16.2432681
11
51.4582947
21
-16.2805467
0
LINE
8
layer1
10
51.4582947
20
-16.2805467
11
51.4404261
21
-16.3086684
0
LINE
8
layer1
10
51.4404261
20
-16.3086684
11
51.430668
21
-16.3445328
0
LINE
8
layer1
10
51.430668
20
-16.3445328
11
51.4293457
21
-16.3877866
0
LINE
8
layer1
10
51.4293457
20
-16.3877866
11
51.4367562
21
-16.4381184
0
LINE
8
layer1
10
51.4367562
20
-16.4381184
11
51.4531752
21
-16.4951536
0
LINE
8
layer1
10
51.4531752
20
-16.4951536
11
51.4789069
21
-16.5585458
0
LINE
8
layer1
10
51.4789069
20
-16.5585458
11
51.5142056
21
-16.6279271
0
LINE
8
layer1
10
51.5142056
20
-16.6279271
11
51.646774
21
-16.8386732
0
LINE
8
layer1
10
51.646774
20
-16.8386732
11
51.7517864
21
-17.016857
0
LINE
8
layer1
10
51.7517864
20
-17.016857
11
51.8668044
21
-17.2321003
0
LINE
8
layer1
10
51.8668044
20
-17.2321003
11
51.9906966
21
-17.4891973
0
LINE
8
layer1
10
51.9906966
20
-17.4891973
11
52.1193193
21
-17.7874266
0
LINE
8
layer1
10
52.1193193
20
-17.7874266
11
52.2497098
21
-18.1283511
0
LINE
8
layer1
10
52.2497098
20
-18.1283511
11
52.3778093
21
-18.5105423
0
LINE
8
layer1
10
52.3778093
20
-18.5105423
11
52.5014257
21
-18.9379601
0
LINE
8
layer1
10
52.5014257
20
-18.9379601
11
52.6038324
21
-19.3536083
0
ARC
8
layer1
10
35.9999918
20
0.0000083
40
25.5
50
308.1230758
51
310.6269292
0
LINE
8
layer1
10
51.7424871
20
-20.0604961
11
51.354804
21
-19.8789681
0
LINE
8
layer1
10
51.354804
20
-19.8789681
11
50.9597154
21
-19.6743419
0
LINE
8
layer1
10
50.9597154
20
-19.6743419
11
50.6098588
21
-19.474142
0
LINE
8
layer1
10
50.6098588
20
-19.474142
11
50.300923
21
-19.2797459
0
LINE
8
layer1
10
50.300923
20
-19.2797459
11
50.0335171
21
-19.095413
0
LINE
8
layer1
10
50.0335171
20
-19.095413
11
49.8055304
21
-18.9237442
0
LINE
8
layer1
10
49.8055304
20
-18.9237442
11
49.6168618
21
-18.7689444
0
LINE
8
layer1
10
49.6168618
20
-18.7689444
11
49.4625886
21
-18.6311878
0
LINE
8
layer1
10
49.4625886
20
-18.6311878
11
49.2817548
21
-18.4600522
0
LINE
8
layer1
10
49.2817548
20
-18.4600522
11
49.220593
21
-18.411896
0
LINE
8
layer1
10
49.220593
20
-18.411896
11
49.163439
21
-18.3742916
0
LINE
8
layer1
10
49.163439
20
-18.3742916
11
49.1107028
21
-18.3470611
0
LINE
8
layer1
10
49.1107028
20
-18.3470611
11
49.0627838
21
-18.3299737
0
LINE
8
layer1
10
49.0627838
20
-18.3299737
11
49.0201032
21
-18.3228322
0
LINE
8
layer1
10
49.0201032
20
-18.3228322
11
48.9830242
21
-18.325406
0
LINE
8
layer1
10
48.9830242
20
-18.325406
11
48.9519569
21
-18.337445
0
LINE
8
layer1
10
48.9519569
20
-18.337445
11
48.9078101
21
-18.368302
0
LINE
8
layer1
10
48.9078101
20
-18.368302
11
48.4725517
21
-18.6664928
0
LINE
8
layer1
10
48.4725517
20
-18.6664928
11
48.0304932
21
-18.9545064
0
LINE
8
layer1
10
48.0304932
20
-18.9545064
11
47.9850908
21
-18.9834843
0
LINE
8
layer1
10
47.9850908
20
-18.9834843
11
47.9620793
21
-19.0075796
0
LINE
8
layer1
10
47.9620793
20
-19.0075796
11
47.9455119
21
-19.0408512
0
LINE
8
layer1
10
47.9455119
20
-19.0408512
11
47.9357766
21
-19.0830159
0
LINE
8
layer1
10
47.9357766
20
-19.0830159
11
47.9332255
21
-19.1338263
0
LINE
8
layer1
10
47.9332255
20
-19.1338263
11
47.938202
21
-19.1929688
0
LINE
8
layer1
10
47.938202
20
-19.1929688
11
47.951072
21
-19.2601629
0
LINE
8
layer1
10
47.951072
20
-19.2601629
11
47.9721569
21
-19.3350975
0
LINE
8
layer1
10
47.9721569
20
-19.3350975
11
48.0610635
21
-19.567657
0
LINE
8
layer1
10
48.0610635
20
-19.567657
11
48.1292962
21
-19.762904
0
LINE
8
layer1
10
48.1292962
20
-19.762904
11
48.2001122
21
-19.9964503
0
LINE
8
layer1
10
48.2001122
20
-19.9964503
11
48.2714667
21
-20.2727774
0
LINE
8
layer1
10
48.2714667
20
-20.2727774
11
48.3394363
21
-20.5903694
0
LINE
8
layer1
10
48.3394363
20
-20.5903694
11
48.4008103
21
-20.950181
0
LINE
8
layer1
10
48.4008103
20
-20.950181
11
48.4518866
21
-21.3500195
0
LINE
8
layer1
10
48.4518866
20
-21.3500195
11
48.4897427
21
-21.7933409
0
LINE
8
layer1
10
48.4897427
20
-21.7933409
11
48.5090927
21
-22.2209812
0
ARC
8
layer1
10
35.9999945
20
0.0000103
40
25.5
50
296.8730732
51
299.3769266
0
LINE
8
layer1
10
47.526391
20
-22.7462461
11
47.1815715
21
-22.492573
0
LINE
8
layer1
10
47.1815715
20
-22.492573
11
46.8339949
21
-22.2148006
0
LINE
8
layer1
10
46.8339949
20
-22.2148006
11
46.5299178
21
-21.9501939
0
LINE
8
layer1
10
46.5299178
20
-21.9501939
11
46.264843
21
-21.6992627
0
LINE
8
layer1
10
46.264843
20
-21.6992627
11
46.0385368
21
-21.4663033
0
LINE
8
layer1
10
46.0385368
20
-21.4663033
11
45.8484216
21
-21.2534552
0
LINE
8
layer1
10
45.8484216
20
-21.2534552
11
45.6935782
21
-21.0648223
0
LINE
8
layer1
10
45.6935782
20
-21.0648223
11
45.5691443
21
-20.8996155
0
LINE
8
layer1
10
45.5691443
20
-20.8996155
11
45.425172
21
-20.6964892
0
LINE
8
layer1
10
45.425172
20
-20.6964892
11
45.3745803
21
-20.6373264
0
LINE
8
layer1
10
45.3745803
20
-20.6373264
11
45.3258607
21
-20.5892943
0
LINE
8
layer1
10
45.3258607
20
-20.5892943
11
45.2794503
21
-20.5522987
0
LINE
8
layer1
10
45.2794503
20
-20.5522987
11
45.2357856
21
-20.5261911
0
LINE
8
layer1
10
45.2357856
20
-20.5261911
11
45.1953183
21
-20.5108603
0
LINE
8
layer1
10
45.1953183
20
-20.5108603
11
45.1584497
21
-20.5061508
0
LINE
8
layer1
10
45.1584497
20
-20.5061508
11
45.1256306
21
-20.5118976
0
LINE
8
layer1
10
45.1256306
20
-20.5118976
11
45.0763122
21
-20.5335491
0
LINE
8
layer1
10
45.0763122
20
-20.5335491
11
44.5912431
21
-20.7410955
0
LINE
8
layer1
10
44.5912431
20
-20.7410955
11
44.1014899
21
-20.9373337
0
LINE
8
layer1
10
44.1014899
20
-20.9373337
11
44.0513066
21
-20.9568972
0
LINE
8
layer1
10
44.0513066
20
-20.9568972
11
44.0240365
21
-20.9760402
0
LINE
8
layer1
10
44.0240365
20
-20.9760402
11
44.0012964
21
-21.0054404
0
LINE
8
layer1
10
44.0012964
20
-21.0054404
11
43.9835223
21
-21.0448956
0
LINE
8
layer1
10
43.9835223
20
-21.0448956
11
43.9711075
21
-21.094232
0
LINE
8
layer1
10
43.9711075
20
-21.094232
11
43.9644503
21
-21.153209
0
LINE
8
layer1
10
43.9644503
20
-21.153209
11
43.9639641
21
-21.2216227
0
LINE
8
layer1
10
43.9639641
20
-21.2216227
11
43.9700248
21
-21.299231
0
LINE
8
layer1
10
43.9700248
20
-21.299231
11
44.011853
21
-21.5446667
0
LINE
8
layer1
10
44.011853
20
-21.5446667
11
44.0406838
21
-21.7494736
0
LINE
8
layer1
10
44.0406838
20
-21.7494736
11
44.0645765
21
-21.992348
0
LINE
8
layer1
10
44.0645765
20
-21.992348
11
44.0806512
21
-22.2772861
0
LINE
8
layer1
10
44.0806512
20
-22.2772861
11
44.0853557
21
-22.6020359
0
LINE
8
layer1
10
44.0853557
20
-22.6020359
11
44.0753547
21
-22.9669073
0
LINE
8
layer1
10
44.0753547
20
-22.9669073
11
44.0474449
21
-23.3690275
0
LINE
8
layer1
10
44.0474449
20
-23.3690275
11
43.9980859
21
-23.8112159
0
LINE
8
layer1
10
43.9980859
20
-23.8112159
11
43.9336356
21
-24.2344142
0
ARC
8
layer1
10
35.9999965
20
0.0000111
40
25.5
50
285.6230734
51
288.1269269
0
LINE
8
layer1
10
42.8673422
20
-24.5578707
11
42.5786374
21
-24.2418009
0
LINE
8
layer1
10
42.5786374
20
-24.2418009
11
42.2919301
21
-23.901557
0
LINE
8
layer1
10
42.2919301
20
-23.901557
11
42.045318
21
-23.5827122
0
LINE
8
layer1
10
42.045318
20
-23.5827122
11
41.8342907
21
-23.284889
0
LINE
8
layer1
10
41.8342907
20
-23.284889
11
41.6577811
21
-23.0122557
0
LINE
8
layer1
10
41.6577811
20
-23.0122557
11
41.5128436
21
-22.7664077
0
LINE
8
layer1
10
41.5128436
20
-22.7664077
11
41.3977759
21
-22.551191
0
LINE
8
layer1
10
41.3977759
20
-22.551191
11
41.3079632
21
-22.3648827
0
LINE
8
layer1
10
41.3079632
20
-22.3648827
11
41.2063853
21
-22.1375719
0
LINE
8
layer1
10
41.2063853
20
-22.1375719
11
41.1683077
21
-22.0696758
0
LINE
8
layer1
10
41.1683077
20
-22.0696758
11
41.1298948
21
-22.013062
0
LINE
8
layer1
10
41.1298948
20
-22.013062
11
41.0915937
21
-21.967723
0
LINE
8
layer1
10
41.0915937
20
-21.967723
11
41.0538613
21
-21.9335985
0
LINE
8
layer1
10
41.0538613
20
-21.9335985
11
41.0171625
21
-21.9106675
0
LINE
8
layer1
10
41.0171625
20
-21.9106675
11
40.981921
21
-21.8988558
0
LINE
8
layer1
10
40.981921
20
-21.8988558
11
40.9486115
21
-21.8980894
0
LINE
8
layer1
10
40.9486115
20
-21.8980894
11
40.8960167
21
-21.9097033
0
LINE
8
layer1
10
40.8960167
20
-21.9097033
11
40.3797777
21
-22.0186295
0
LINE
8
layer1
10
40.3797777
20
-22.0186295
11
39.8611509
21
-22.1155509
0
LINE
8
layer1
10
39.8611509
20
-22.1155509
11
39.8081151
21
-22.1249483
0
LINE
8
layer1
10
39.8081151
20
-22.1249483
11
39.7776344
21
-22.1384033
0
LINE
8
layer1
10
39.7776344
20
-22.1384033
11
39.7495956
21
-22.1628022
0
LINE
8
layer1
10
39.7495956
20
-22.1628022
11
39.7244657
21
-22.1980317
0
LINE
8
layer1
10
39.7244657
20
-22.1980317
11
39.7026644
21
-22.2439982
0
LINE
8
layer1
10
39.7026644
20
-22.2439982
11
39.6846293
21
-22.3005432
0
LINE
8
layer1
10
39.6846293
20
-22.3005432
11
39.6708055
21
-22.3675475
0
LINE
8
layer1
10
39.6708055
20
-22.3675475
11
39.6616092
21
-22.4448469
0
LINE
8
layer1
10
39.6616092
20
-22.4448469
11
39.6547515
21
-22.6937269
0
LINE
8
layer1
10
39.6547515
20
-22.6937269
11
39.6430725
21
-22.9002232
0
LINE
8
layer1
10
39.6430725
20
-22.9002232
11
39.6191237
21
-23.143092
0
LINE
8
layer1
10
39.6191237
20
-23.143092
11
39.5793009
21
-23.4256911
0
LINE
8
layer1
10
39.5793009
20
-23.4256911
11
39.5205594
21
-23.7451187
0
LINE
8
layer1
10
39.5205594
20
-23.7451187
11
39.4395677
21
-24.1010281
0
LINE
8
layer1
10
39.4395677
20
-24.1010281
11
39.3337444
21
-24.4899768
0
LINE
8
layer1
10
39.3337444
20
-24.4899768
11
39.1990671
21
-24.9140392
0
LINE
8
layer1
10
39.1990671
20
-24.9140392
11
39.0532934
21
-25.3165322
0
ARC
8
layer1
10
35.9999994
20
0.0000117
40
25.5
50
274.3730721
51
276.8769255
0
LINE
8
layer1
10
37.9443852
20
-25.4257501
11
37.72289
21
-25.05943
0
LINE
8
layer1
10
37.72289
20
-25.05943
11
37.50807
21
-24.66979
0
LINE
8
layer1
10
37.50807
20
-24.66979
11
37.3284
21
-24.30896
0
LINE
8
layer1
10
37.3284
20
-24.30896
11
37.17953
21
-23.97569
0
LINE
8
layer1
10
37.17953
20
-23.97569
11
37.0596
21
-23.67386
0
LINE
8
layer1
10
37.0596
20
-23.67386
11
36.96541
21
-23.40446
0
LINE
8
layer1
10
36.96541
20
-23.40446
11
36.89454
21
-23.17093
0
LINE
8
layer1
10
36.89454
20
-23.17093
11
36.8428
21
-22.97068
0
LINE
8
layer1
10
36.8428
20
-22.97068
11
36.78752
21
-22.72792
0
LINE
8
layer1
10
36.78752
20
-22.72792
11
36.76342
21
-22.6539
0
LINE
8
layer1
10
36.76342
20
-22.6539
11
36.73679
21
-22.59088
0
LINE
8
layer1
10
36.73679
20
-22.59088
11
36.70807
21
-22.53894
0
LINE
8
layer1
10
36.70807
20
-22.53894
11
36.67772
21
-22.49811
0
LINE
8
layer1
10
36.67772
20
-22.49811
11
36.6462
21
-22.46846
0
LINE
8
layer1
10
36.6462
20
-22.46846
11
36.61394
21
-22.45
0
LINE
8
layer1
10
36.61394
20
-22.45
11
36.58142
21
-22.44275
0
LINE
8
layer1
10
36.58142
20
-22.44275
11
36.52757
21
-22.44388
0
LINE
8
layer1
10
36.52757
20
-22.44388
11
36
21
-22.45
0
LINE
8
layer1
10
36
20
-22.45
11
35.47243
21
-22.44388
0
LINE
8
layer1
10
35.47243
20
-22.44388
11
35.41858
21
-22.44275
0
LINE
8
layer1
10
35.41858
20
-22.44275
11
35.38606
21
-22.45
0
LINE
8
layer1
10
35.38606
20
-22.45
11
35.3538
21
-22.46846
0
LINE
8
layer1
10
35.3538
20
-22.46846
11
35.32228
21
-22.49811
0
LINE
8
layer1
10
35.32228
20
-22.49811
11
35.29193
21
-22.53894
0
LINE
8
layer1
10
35.29193
20
-22.53894
11
35.26321
21
-22.59088
0
LINE
8
layer1
10
35.26321
20
-22.59088
11
35.23658
21
-22.6539
0
LINE
8
layer1
10
35.23658
20
-22.6539
11
35.21248
21
-22.72792
0
LINE
8
layer1
10
35.21248
20
-22.72792
11
35.1572
21
-22.97068
0
LINE
8
layer1
10
35.1572
20
-22.97068
11
35.10546
21
-23.17093
0
LINE
8
layer1
10
35.10546
20
-23.17093
11
35.03459
21
-23.40446
0
LINE
8
layer1
10
35.03459
20
-23.40446
11
34.9404
21
-23.67386
0
LINE
8
layer1
10
34.9404
20
-23.67386
11
34.82047
21
-23.97569
0
LINE
8
layer1
10
34.82047
20
-23.97569
11
34.6716
21
-24.30896
0
LINE
8
layer1
10
34.6716
20
-24.30896
11
34.49193
21
-24.66979
0
LINE
8
layer1
10
34.49193
20
-24.66979
11
34.27711
21
-25.05943
0
LINE
8
layer1
10
34.27711
20
-25.05943
11
34.0556148
21
-25.4257501
0
ARC
8
layer1
10
36.0000006
20
0.0000117
40
25.5
50
263.1230745
51
265.6269279
0
LINE
8
layer1
10
32.9467066
20
-25.3165322
11
32.8009329
21
-24.9140392
0
LINE
8
layer1
10
32.8009329
20
-24.9140392
11
32.6662556
21
-24.4899768
0
LINE
8
layer1
10
32.6662556
20
-24.4899768
11
32.5604323
21
-24.1010281
0
LINE
8
layer1
10
32.5604323
20
-24.1010281
11
32.4794406
21
-23.7451187
0
LINE
8
layer1
10
32.4794406
20
-23.7451187
11
32.4206991
21
-23.4256911
0
LINE
8
layer1
10
32.4206991
20
-23.4256911
11
32.3808763
21
-23.143092
0
LINE
8
layer1
10
32.3808763
20
-23.143092
11
32.3569275
21
-22.9002232
0
LINE
8
layer1
10
32.3569275
20
-22.9002232
11
32.3452485
21
-22.6937269
0
LINE
8
layer1
10
32.3452485
20
-22.6937269
11
32.3383908
21
-22.4448469
0
LINE
8
layer1
10
32.3383908
20
-22.4448469
11
32.3291945
21
-22.3675475
0
LINE
8
layer1
10
32.3291945
20
-22.3675475
11
32.3153707
21
-22.3005432
0
LINE
8
layer1
10
32.3153707
20
-22.3005432
11
32.2973356
21
-22.2439982
0
LINE
8
layer1
10
32.2973356
20
-22.2439982
11
32.2755343
21
-22.1980317
0
LINE
8
layer1
10
32.2755343
20
-22.1980317
11
32.2504044
21
-22.1628022
0
LINE
8
layer1
10
32.2504044
20
-22.1628022
11
32.2223656
21
-22.1384033
0
LINE
8
layer1
10
32.2223656
20
-22.1384033
11
32.1918849
21
-22.1249483
0
LINE
8
layer1
10
32.1918849
20
-22.1249483
11
32.1388491
21
-22.1155509
0
LINE
8
layer1
10
32.1388491
20
-22.1155509
11
31.6202223
21
-22.0186295
0
LINE
8
layer1
10
31.6202223
20
-22.0186295
11
31.1039833
21
-21.9097033
0
LINE
8
layer1
10
31.1039833
20
-21.9097033
11
31.0513885
21
-21.8980894
0
LINE
8
layer1
10
31.0513885
20
-21.8980894
11
31.018079
21
-21.8988558
0
LINE
8
layer1
10
31.018079
20
-21.8988558
11
30.9828375
21
-21.9106675
0
LINE
8
layer1
10
30.9828375
20
-21.9106675
11
30.9461387
21
-21.9335985
0
LINE
8
layer1
10
30.9461387
20
-21.9335985
11
30.9084063
21
-21.967723
0
LINE
8
layer1
10
30.9084063
20
-21.967723
11
30.8701052
21
-22.013062
0
LINE
8
layer1
10
30.8701052
20
-22.013062
11
30.8316923
21
-22.0696758
0
LINE
8
layer1
10
30.8316923
20
-22.0696758
11
30.7936147
21
-22.1375719
0
LINE
8
layer1
10
30.7936147
20
-22.1375719
11
30.6920368
21
-22.3648827
0
LINE
8
layer1
10
30.6920368
20
-22.3648827
11
30.6022241
21
-22.551191
0
LINE
8
layer1
10
30.6022241
20
-22.551191
11
30.4871564
21
-22.7664077
0
LINE
8
layer1
10
30.4871564
20
-22.7664077
11
30.3422189
21
-23.0122557
0
LINE
8
layer1
10
30.3422189
20
-23.0122557
11
30.1657093
21
-23.284889
0
LINE
8
layer1
10
30.1657093
20
-23.284889
11
29.954682
21
-23.5827122
0
LINE
8
layer1
10
29.954682
20
-23.5827122
11
29.7080699
21
-23.901557
0
LINE
8
layer1
10
29.7080699
20
-23.901557
11
29.4213626
21
-24.2418009
0
LINE
8
layer1
10
29.4213626
20
-24.2418009
11
29.1326578
21
-24.5578707
0
ARC
8
layer1
10
36.0000034
20
0.0000112
40
25.5
50
251.8730731
51
254.3769266
0
LINE
8
layer1
10
28.0663644
20
-24.2344142
11
28.0019141
21
-23.8112159
0
LINE
8
layer1
10
28.0019141
20
-23.8112159
11
27.9525551
21
-23.3690275
0
LINE
8
layer1
10
27.9525551
20
-23.3690275
11
27.9246453
21
-22.9669073
0
LINE
8
layer1
10
27.9246453
20
-22.9669073
11
27.9146443
21
-22.6020359
0
LINE
8
layer1
10
27.9146443
20
-22.6020359
11
27.9193488
21
-22.2772861
0
LINE
8
layer1
10
27.9193488
20
-22.2772861
11
27.9354235
21
-21.992348
0
LINE
8
layer1
10
27.9354235
20
-21.992348
11
27.9593162
21
-21.7494736
0
LINE
8
layer1
10
27.9593162
20
-21.7494736
11
27.988147
21
-21.5446667
0
LINE
8
layer1
10
27.988147
20
-21.5446667
11
28.0299752
21
-21.299231
0
LINE
8
layer1
10
28.0299752
20
-21.299231
11
28.0360359
21
-21.2216227
0
LINE
8
layer1
10
28.0360359
20
-21.2216227
11
28.0355497
21
-21.153209
0
LINE
8
layer1
10
28.0355497
20
-21.153209
11
28.0288925
21
-21.094232
0
LINE
8
layer1
10
28.0288925
20
-21.094232
11
28.0164777
21
-21.0448956
0
LINE
8
layer1
10
28.0164777
20
-21.0448956
11
27.9987036
21
-21.0054404
0
LINE
8
layer1
10
27.9987036
20
-21.0054404
11
27.9759635
21
-20.9760402
0
LINE
8
layer1
10
27.9759635
20
-20.9760402
11
27.9486934
21
-20.9568972
0
LINE
8
layer1
10
27.9486934
20
-20.9568972
11
27.8985101
21
-20.9373337
0
LINE
8
layer1
10
27.8985101
20
-20.9373337
11
27.4087569
21
-20.7410955
0
LINE
8
layer1
10
27.4087569
20
-20.7410955
11
26.9236878
21
-20.5335491
0
LINE
8
layer1
10
26.9236878
20
-20.5335491
11
26.8743694
21
-20.5118976
0
LINE
8
layer1
10
26.8743694
20
-20.5118976
11
26.8415503
21
-20.5061508
0
LINE
8
layer1
10
26.8415503
20
-20.5061508
11
26.8046817
21
-20.5108603
0
LINE
8
layer1
10
26.8046817
20
-20.5108603
11
26.7642144
21
-20.5261911
0
LINE
8
layer1
10
26.7642144
20
-20.5261911
11
26.7205497
21
-20.5522987
0
LINE
8
layer1
10
26.7205497
20
-20.5522987
11
26.6741393
21
-20.5892943
0
LINE
8
layer1
10
26.6741393
20
-20.5892943
11
26.6254197
21
-20.6373264
0
LINE
8
layer1
10
26.6254197
20
-20.6373264
11
26.574828
21
-20.6964892
0
LINE
8
layer1
10
26.574828
20
-20.6964892
11
26.4308557
21
-20.8996155
0
LINE
8
layer1
10
26.4308557
20
-20.8996155
11
26.3064218
21
-21.0648223
0
LINE
8
layer1
10
26.3064218
20
-21.0648223
11
26.1515784
21
-21.2534552
0
LINE
8
layer1
10
26.1515784
20
-21.2534552
11
25.9614632
21
-21.4663033
0
LINE
8
layer1
10
25.9614632
20
-21.4663033
11
25.735157
21
-21.6992627
0
LINE
8
layer1
10
25.735157
20
-21.6992627
11
25.4700822
21
-21.9501939
0
LINE
8
layer1
10
25.4700822
20
-21.9501939
11
25.1660051
21
-22.2148006
0
LINE
8
layer1
10
25.1660051
20
-22.2148006
11
24.8184285
21
-22.492573
0
LINE
8
layer1
10
24.8184285
20
-22.492573
11
24.473609
21
-22.7462461
0
ARC
8
layer1
10
36.0000055
20
0.0000104
40
25.5
50
240.6230734
51
243.1269268
0
LINE
8
layer1
10
23.4909073
20
-22.2209812
11
23.5102573
21
-21.7933409
0
LINE
8
layer1
10
23.5102573
20
-21.7933409
11
23.5481134
21
-21.3500195
0
LINE
8
layer1
10
23.5481134
20
-21.3500195
11
23.5991897
21
-20.950181
0
LINE
8
layer1
10
23.5991897
20
-20.950181
11
23.6605637
21
-20.5903694
0
LINE
8
layer1
10
23.6605637
20
-20.5903694
11
23.7285333
21
-20.2727774
0
LINE
8
layer1
10
23.7285333
20
-20.2727774
11
23.7998878
21
-19.9964503
0
LINE
8
layer1
10
23.7998878
20
-19.9964503
11
23.8707038
21
-19.762904
0
LINE
8
layer1
10
23.8707038
20
-19.762904
11
23.9389365
21
-19.567657
0
LINE
8
layer1
10
23.9389365
20
-19.567657
11
24.0278431
21
-19.3350975
0
LINE
8
layer1
10
24.0278431
20
-19.3350975
11
24.048928
21
-19.2601629
0
LINE
8
layer1
10
24.048928
20
-19.2601629
11
24.061798
21
-19.1929688
0
LINE
8
layer1
10
24.061798
20
-19.1929688
11
24.0667745
21
-19.1338263
0
LINE
8
layer1
10
24.0667745
20
-19.1338263
11
24.0642234
21
-19.0830159
0
LINE
8
layer1
10
24.0642234
20
-19.0830159
11
24.0544881
21
-19.0408512
0
LINE
8
layer1
10
24.0544881
20
-19.0408512
11
24.0379207
21
-19.0075796
0
LINE
8
layer1
10
24.0379207
20
-19.0075796
11
24.0149092
21
-18.9834843
0
LINE
8
layer1
10
24.0149092
20
-18.9834843
11
23.9695068
21
-18.9545064
0
LINE
8
layer1
10
23.9695068
20
-18.9545064
11
23.5274483
21
-18.6664928
0
LINE
8
layer1
10
23.5274483
20
-18.6664928
11
23.0921899
21
-18.368302
0
LINE
8
layer1
10
23.0921899
20
-18.368302
11
23.0480431
21
-18.337445
0
LINE
8
layer1
10
23.0480431
20
-18.337445
11
23.0169758
21
-18.325406
0
LINE
8
layer1
10
23.0169758
20
-18.325406
11
22.9798968
21
-18.3228322
0
LINE
8
layer1
10
22.9798968
20
-18.3228322
11
22.9372162
21
-18.3299737
0
LINE
8
layer1
10
22.9372162
20
-18.3299737
11
22.8892972
21
-18.3470611
0
LINE
8
layer1
10
22.8892972
20
-18.3470611
11
22.836561
21
-18.3742916
0
LINE
8
layer1
10
22.836561
20
-18.3742916
11
22.779407
21
-18.411896
0
LINE
8
layer1
10
22.779407
20
-18.411896
11
22.7182452
21
-18.4600522
0
LINE
8
layer1
10
22.7182452
20
-18.4600522
11
22.5374114
21
-18.6311878
0
LINE
8
layer1
10
22.5374114
20
-18.6311878
11
22.3831382
21
-18.7689444
0
LINE
8
layer1
10
22.3831382
20
-18.7689444
11
22.1944696
21
-18.9237442
0
LINE
8
layer1
10
22.1944696
20
-18.9237442
11
21.9664829
21
-19.095413
0
LINE
8
layer1
10
21.9664829
20
-19.095413
11
21.699077
21
-19.2797459
0
LINE
8
layer1
10
21.699077
20
-19.2797459
11
21.3901412
21
-19.474142
0
LINE
8
layer1
10
21.3901412
20
-19.474142
11
21.0402846
21
-19.6743419
0
LINE
8
layer1
10
21.0402846
20
-19.6743419
11
20.645196
21
-19.8789681
0
LINE
8
layer1
10
20.645196
20
-19.8789681
11
20.2575129
21
-20.0604961
0
ARC
8
layer1
10
36.0000083
20
0.0000083
40
25.5
50
229.3730708
51
231.8769242
0
LINE
8
layer1
10
19.3961676
20
-19.3536083
11
19.4985743
21
-18.9379601
0
LINE
8
layer1
10
19.4985743
20
-18.9379601
11
19.6221907
21
-18.5105423
0
LINE
8
layer1
10
19.6221907
20
-18.5105423
11
19.7502902
21
-18.1283511
0
LINE
8
layer1
10
19.7502902
20
-18.1283511
11
19.8806807
21
-17.7874266
0
LINE
8
layer1
10
19.8806807
20
-17.7874266
11
20.0093034
21
-17.4891973
0
LINE
8
layer1
10
20.0093034
20
-17.4891973
11
20.1331956
21
-17.2321003
0
LINE
8
layer1
10
20.1331956
20
-17.2321003
11
20.2482136
21
-17.016857
0
LINE
8
layer1
10
20.2482136
20
-17.016857
11
20.353226
21
-16.8386732
0
LINE
8
layer1
10
20.353226
20
-16.8386732
11
20.4857944
21
-16.6279271
0
LINE
8
layer1
10
20.4857944
20
-16.6279271
11
20.5210931
21
-16.5585458
0
LINE
8
layer1
10
20.5210931
20
-16.5585458
11
20.5468248
21
-16.4951536
0
LINE
8
layer1
10
20.5468248
20
-16.4951536
11
20.5632438
21
-16.4381184
0
LINE
8
layer1
10
20.5632438
20
-16.4381184
11
20.5706543
21
-16.3877866
0
LINE
8
layer1
10
20.5706543
20
-16.3877866
11
20.569332
21
-16.3445328
0
LINE
8
layer1
10
20.569332
20
-16.3445328
11
20.5595739
21
-16.3086684
0
LINE
8
layer1
10
20.5595739
20
-16.3086684
11
20.5417053
21
-16.2805467
0
LINE
8
layer1
10
20.5417053
20
-16.2805467
11
20.5028286
21
-16.2432681
0
LINE
8
layer1
10
20.5028286
20
-16.2432681
11
20.1254528
21
-15.8745472
0
LINE
8
layer1
10
20.1254528
20
-15.8745472
11
19.7567319
21
-15.4971714
0
LINE
8
layer1
10
19.7567319
20
-15.4971714
11
19.7194533
21
-15.4582947
0
LINE
8
layer1
10
19.7194533
20
-15.4582947
11
19.6913316
21
-15.4404261
0
LINE
8
layer1
10
19.6913316
20
-15.4404261
11
19.6554672
21
-15.430668
0
LINE
8
layer1
10
19.6554672
20
-15.430668
11
19.6122134
21
-15.4293457
0
LINE
8
layer1
10
19.6122134
20
-15.4293457
11
19.5618816
21
-15.4367562
0
LINE
8
layer1
10
19.5618816
20
-15.4367562
11
19.5048464
21
-15.4531752
0
LINE
8
layer1
10
19.5048464
20
-15.4531752
11
19.4414542
21
-15.4789069
0
LINE
8
layer1
10
19.4414542
20
-15.4789069
11
19.3720729
21
-15.5142056
0
LINE
8
layer1
10
19.3720729
20
-15.5142056
11
19.1613268
21
-15.646774
0
LINE
8
layer1
10
19.1613268
20
-15.646774
11
18.983143
21
-15.7517864
0
LINE
8
layer1
10
18.983143
20
-15.7517864
11
18.7678997
21
-15.8668044
0
LINE
8
layer1
10
18.7678997
20
-15.8668044
11
18.5108027
21
-15.9906966
0
LINE
8
layer1
10
18.5108027
20
-15.9906966
11
18.2125734
21
-16.1193193
0
LINE
8
layer1
10
18.2125734
20
-16.1193193
11
17.8716489
21
-16.2497098
0
LINE
8
layer1
10
17.8716489
20
-16.2497098
11
17.4894577
21
-16.3778093
0
LINE
8
layer1
10
17.4894577
20
-16.3778093
11
17.0620399
21
-16.5014257
0
LINE
8
layer1
10
17.0620399
20
-16.5014257
11
16.6463917
21
-16.6038324
0
ARC
8
layer1
10
36.0000083
20
0.0000082
40
25.5
50
218.1230758
51
220.6269292
0
LINE
8
layer1
10
15.9395039
20
-15.7424871
11
16.1210319
21
-15.354804
0
LINE
8
layer1
10
16.1210319
20
-15.354804
11
16.3256581
21
-14.9597154
0
LINE
8
layer1
10
16.3256581
20
-14.9597154
11
16.525858
21
-14.6098588
0
LINE
8
layer1
10
16.525858
20
-14.6098588
11
16.7202541
21
-14.300923
0
LINE
8
layer1
10
16.7202541
20
-14.300923
11
16.904587
21
-14.0335171
0
LINE
8
layer1
10
16.904587
20
-14.0335171
11
17.0762558
21
-13.8055304
0
LINE
8
layer1
10
17.0762558
20
-13.8055304
11
17.2310556
21
-13.6168618
0
LINE
8
layer1
10
17.2310556
20
-13.6168618
11
17.3688122
21
-13.4625886
0
LINE
8
layer1
10
17.3688122
20
-13.4625886
11
17.5399478
21
-13.2817548
0
LINE
8
layer1
10
17.5399478
20
-13.2817548
11
17.588104
21
-13.220593
0
LINE
8
layer1
10
17.588104
20
-13.220593
11
17.6257084
21
-13.163439
0
LINE
8
layer1
10
17.6257084
20
-13.163439
11
17.6529389
21
-13.1107028
0
LINE
8
layer1
10
17.6529389
20
-13.1107028
11
17.6700263
21
-13.0627838
0
LINE
8
layer1
10
17.6700263
20
-13.0627838
11
17.6771678
21
-13.0201032
0
LINE
8
layer1
10
17.6771678
20
-13.0201032
11
17.674594
21
-12.9830242
0
LINE
8
layer1
10
17.674594
20
-12.9830242
11
17.662555
21
-12.9519569
0
LINE
8
layer1
10
17.662555
20
-12.9519569
11
17.631698
21
-12.9078101
0
LINE
8
layer1
10
17.631698
20
-12.9078101
11
17.3335072
21
-12.4725517
0
LINE
8
layer1
10
17.3335072
20
-12.4725517
11
17.0454936
21
-12.0304932
0
LINE
8
layer1
10
17.0454936
20
-12.0304932
11
17.0165157
21
-11.9850908
0
LINE
8
layer1
10
17.0165157
20
-11.9850908
11
16.9924204
21
-11.9620793
0
LINE
8
layer1
10
16.9924204
20
-11.9620793
11
16.9591488
21
-11.9455119
0
LINE
8
layer1
10
16.9591488
20
-11.9455119
11
16.9169841
21
-11.9357766
0
LINE
8
layer1
10
16.9169841
20
-11.9357766
11
16.8661737
21
-11.9332255
0
LINE
8
layer1
10
16.8661737
20
-11.9332255
11
16.8070312
21
-11.938202
0
LINE
8
layer1
10
16.8070312
20
-11.938202
11
16.7398371
21
-11.951072
0
LINE
8
layer1
10
16.7398371
20
-11.951072
11
16.6649025
21
-11.9721569
0
LINE
8
layer1
10
16.6649025
20
-11.9721569
11
16.432343
21
-12.0610635
0
LINE
8
layer1
10
16.432343
20
-12.0610635
11
16.237096
21
-12.1292962
0
LINE
8
layer1
10
16.237096
20
-12.1292962
11
16.0035497
21
-12.2001122
0
LINE
8
layer1
10
16.0035497
20
-12.2001122
11
15.7272226
21
-12.2714667
0
LINE
8
layer1
10
15.7272226
20
-12.2714667
11
15.4096306
21
-12.3394363
0
LINE
8
layer1
10
15.4096306
20
-12.3394363
11
15.049819
21
-12.4008103
0
LINE
8
layer1
10
15.049819
20
-12.4008103
11
14.6499805
21
-12.4518866
0
LINE
8
layer1
10
14.6499805
20
-12.4518866
11
14.2066591
21
-12.4897427
0
LINE
8
layer1
10
14.2066591
20
-12.4897427
11
13.7790188
21
-12.5090927
0
ARC
8
layer1
10
36.0000103
20
0.0000055
40
25.5
50
206.8730732
51
209.3769266
0
LINE
8
layer1
10
13.2537539
20
-11.526391
11
13.507427
21
-11.1815715
0
LINE
8
layer1
10
13.507427
20
-11.1815715
11
13.7851994
21
-10.8339949
0
LINE
8
layer1
10
13.7851994
20
-10.8339949
11
14.0498061
21
-10.5299178
0
LINE
8
layer1
10
14.0498061
20
-10.5299178
11
14.3007373
21
-10.264843
0
LINE
8
layer1
10
14.3007373
20
-10.264843
11
14.5336967
21
-10.0385368
0
LINE
8
layer1
10
14.5336967
20
-10.0385368
11
14.7465448
21
-9.8484216
0
LINE
8
layer1
10
14.7465448
20
-9.8484216
11
14.9351777
21
-9.6935782
0
LINE
8
layer1
10
14.9351777
20
-9.6935782
11
15.1003845
21
-9.5691443
0
LINE
8
layer1
10
15.1003845
20
-9.5691443
11
15.3035108
21
-9.425172
0
LINE
8
layer1
10
15.3035108
20
-9.425172
11
15.3626736
21
-9.3745803
0
LINE
8
layer1
10
15.3626736
20
-9.3745803
11
15.4107057
21
-9.3258607
0
LINE
8
layer1
10
15.4107057
20
-9.3258607
11
15.4477013
21
-9.2794503
0
LINE
8
layer1
10
15.4477013
20
-9.2794503
11
15.4738089
21
-9.2357856
0
LINE
8
layer1
10
15.4738089
20
-9.2357856
11
15.4891397
21
-9.1953183
0
LINE
8
layer1
10
15.4891397
20
-9.1953183
11
15.4938492
21
-9.1584497
0
LINE
8
layer1
10
15.4938492
20
-9.1584497
11
15.4881024
21
-9.1256306
0
LINE
8
layer1
10
15.4881024
20
-9.1256306
11
15.4664509
21
-9.0763122
0
LINE
8
layer1
10
15.4664509
20
-9.0763122
11
15.2589045
21
-8.5912431
0
LINE
8
layer1
10
15.2589045
20
-8.5912431
11
15.0626663
21
-8.1014899
0
LINE
8
layer1
10
15.0626663
20
-8.1014899
11
15.0431028
21
-8.0513066
0
LINE
8
layer1
10
15.0431028
20
-8.0513066
11
15.0239598
21
-8.0240365
0
LINE
8
layer1
10
15.0239598
20
-8.0240365
11
14.9945596
21
-8.0012964
0
LINE
8
layer1
10
14.9945596
20
-8.0012964
11
14.9551044
21
-7.9835223
0
LINE
8
layer1
10
14.9551044
20
-7.9835223
11
14.905768
21
-7.9711075
0
LINE
8
layer1
10
14.905768
20
-7.9711075
11
14.846791
21
-7.9644503
0
LINE
8
layer1
10
14.846791
20
-7.9644503
11
14.7783773
21
-7.9639641
0
LINE
8
layer1
10
14.7783773
20
-7.9639641
11
14.700769
21
-7.9700248
0
LINE
8
layer1
10
14.700769
20
-7.9700248
11
14.4553333
21
-8.011853
0
LINE
8
layer1
10
14.4553333
20
-8.011853
11
14.2505264
21
-8.0406838
0
LINE
8
layer1
10
14.2505264
20
-8.0406838
11
14.007652
21
-8.0645765
0
LINE
8
layer1
10
14.007652
20
-8.0645765
11
13.7227139
21
-8.0806512
0
LINE
8
layer1
10
13.7227139
20
-8.0806512
11
13.3979641
21
-8.0853557
0
LINE
8
layer1
10
13.3979641
20
-8.0853557
11
13.0330927
21
-8.0753547
0
LINE
8
layer1
10
13.0330927
20
-8.0753547
11
12.6309725
21
-8.0474449
0
LINE
8
layer1
10
12.6309725
20
-8.0474449
11
12.1887841
21
-7.9980859
0
LINE
8
layer1
10
12.1887841
20
-7.9980859
11
11.7655858
21
-7.9336356
0
ARC
8
layer1
10
36.0000111
20
0.0000035
40
25.5
50
195.6230734
51
198.1269269
0
LINE
8
layer1
10
11.4421293
20
-6.8673422
11
11.7581991
21
-6.5786374
0
ENDSEC
0
EOF