999
dxfrw 0.6.3
  0
SECTION
  2
HEADER
  9
$ACADVER
  1
AC1021
  9
$DWGCODEPAGE
  3
ANSI_1250
  9
$INSBASE
 10
0
 20
0
 30
0
  9
$EXTMIN
 10
10.57425048218332
 20
-40.14048174476689
 30
0
  9
$EXTMAX
 10
122.4206880673109
 20
25.4258416656
 30
0
  9
$LIMMIN
 10
0
 20
0
  9
$LIMMAX
 10
420
 20
297
  9
$ORTHOMODE
 70
    0
  9
$REGENMODE
 70
    1
  9
$FILLMODE
 70
    1
  9
$QTEXTMODE
 70
    0
  9
$MIRRTEXT
 70
    1
  9
$LTSCALE
 40
1
  9
$ATTMODE
 70
    1
  9
$TEXTSIZE
 40
3.5
  9
$TRACEWID
 40
1
  9
$TEXTSTYLE
  7
Standard
  9
$CLAYER
  8
0
  9
$CELTYPE
  6
ByLayer
  9
$CECOLOR
 62
  256
  9
$CELTSCALE
 40
1
  9
$DISPSILH
 70
    0
  9
$DIMSCALE
 40
1
  9
$DIMASZ
 40
3.302
  9
$DIMEXO
 40
0
  9
$DIMDLI
 40
3.75
  9
$DIMRND
 40
0
  9
$DIMDLE
 40
0
  9
$DIMEXE
 40
1
  9
$DIMTP
 40
0
  9
$DIMTM
 40
0
  9
$DIMTXT
 40
3.5
  9
$DIMCEN
 40
2.5
  9
$DIMTSZ
 40
0
  9
$DIMTOL
 70
    0
  9
$DIMLIM
 70
    0
  9
$DIMTIH
 70
    1
  9
$DIMTOH
 70
    1
  9
$DIMSE1
 70
    0
  9
$DIMSE2
 70
    0
  9
$DIMTAD
 70
    1
  9
$DIMZIN
 70
    1
  9
$DIMBLK
  1

  9
$DIMASO
 70
    1
  9
$DIMSHO
 70
    1
  9
$DIMPOST
  1

  9
$DIMAPOST
  1

  9
$DIMALT
 70
    0
  9
$DIMALTD
 70
    3
  9
$DIMALTF
 40
0.0393700787
  9
$DIMLFAC
 40
1
  9
$DIMTOFL
 70
    1
  9
$DIMTVP
 40
0
  9
$DIMTIX
 70
    0
  9
$DIMSOXD
 70
    0
  9
$DIMSAH
 70
    0
  9
$DIMBLK1
  1

  9
$DIMBLK2
  1

  9
$DIMSTYLE
  2
ISO-25
  9
$DIMCLRD
 70
    0
  9
$DIMCLRE
 70
    0
  9
$DIMCLRT
 70
    0
  9
$DIMTFAC
 40
1
  9
$DIMGAP
 40
1.524
  9
$DIMJUST
 70
    0
  9
$DIMSD1
 70
    0
  9
$DIMSD2
 70
    0
  9
$DIMTOLJ
 70
    0
  9
$DIMTZIN
 70
    1
  9
$DIMALTZ
 70
    0
  9
$DIMALTTZ
 70
    0
  9
$DIMUPT
 70
    0
  9
$DIMDEC
 70
    2
  9
$DIMTDEC
 70
    2
  9
$DIMALTU
 70
    2
  9
$DIMALTTD
 70
    3
  9
$DIMTXSTY
  7
Standard
  9
$DIMAUNIT
 70
    0
  9
$DIMADEC
 70
    0
  9
$DIMALTRND
 40
0
  9
$DIMAZIN
 70
    0
  9
$DIMDSEP
 70
   44
  9
$DIMATFIT
 70
    3
  9
$DIMFRAC
 70
    0
  9
$DIMLDRBLK
  1

  9
$DIMLUNIT
 70
    2
  9
$DIMLWD
 70
   -2
  9
$DIMLWE
 70
   -2
  9
$DIMTMOVE
 70
    0
  9
$DIMFXL
 40
1
  9
$DIMFXLON
 70
    0
  9
$DIMJOGANG
 40
0.7854
  9
$DIMTFILL
 70
    0
  9
$DIMTFILLCLR
 70
    0
  9
$DIMARCSYM
 70
    0
  9
$DIMLTYPE
  6

  9
$DIMLTEX1
  6

  9
$DIMLTEX2
  6

  9
$LUNITS
 70
    2
  9
$LUPREC
 70
    2
  9
$SKETCHINC
 40
1
  9
$FILLETRAD
 40
0
  9
$AUNITS
 70
    0
  9
$AUPREC
 70
    2
  9
$MENU
  1
.
  9
$ELEVATION
 40
0
  9
$PELEVATION
 40
0
  9
$THICKNESS
 40
0
  9
$LIMCHECK
 70
    0
  9
$CHAMFERA
 40
0
  9
$CHAMFERB
 40
0
  9
$CHAMFERC
 40
0
  9
$CHAMFERD
 40
0
  9
$SKPOLY
 70
    0
  9
$USRTIMER
 70
    1
  9
$ANGBASE
 50
0
  9
$ANGDIR
 70
    0
  9
$PDMODE
 70
    0
  9
$PDSIZE
 40
-1
  9
$PLINEWID
 40
0
  9
$SPLFRAME
 70
    0
  9
$SPLINETYPE
 70
    6
  9
$SPLINESEGS
 70
    8
  9
$HANDSEED
  5
20000
  9
$SURFTAB1
 70
    6
  9
$SURFTAB2
 70
    6
  9
$SURFTYPE
 70
    6
  9
$SURFU
 70
    6
  9
$SURFV
 70
    6
  9
$UCSBASE
  2

  9
$UCSNAME
  2

  9
$UCSORG
 10
0
 20
0
 30
0
  9
$UCSXDIR
 10
1
 20
0
 30
0
  9
$UCSYDIR
 10
0
 20
1
 30
0
  9
$UCSORTHOREF
  2

  9
$UCSORTHOVIEW
 70
    0
  9
$UCSORGTOP
 10
0
 20
0
 30
0
  9
$UCSORGBOTTOM
 10
0
 20
0
 30
0
  9
$UCSORGLEFT
 10
0
 20
0
 30
0
  9
$UCSORGRIGHT
 10
0
 20
0
 30
0
  9
$UCSORGFRONT
 10
0
 20
0
 30
0
  9
$UCSORGBACK
 10
0
 20
0
 30
0
  9
$PUCSBASE
  2

  9
$PUCSNAME
  2

  9
$PUCSORG
 10
0
 20
0
 30
0
  9
$PUCSXDIR
 10
1
 20
0
 30
0
  9
$PUCSYDIR
 10
0
 20
1
 30
0
  9
$PUCSORTHOREF
  2

  9
$PUCSORTHOVIEW
 70
    0
  9
$PUCSORGTOP
 10
0
 20
0
 30
0
  9
$PUCSORGBOTTOM
 10
0
 20
0
 30
0
  9
$PUCSORGLEFT
 10
0
 20
0
 30
0
  9
$PUCSORGRIGHT
 10
0
 20
0
 30
0
  9
$PUCSORGFRONT
 10
0
 20
0
 30
0
  9
$PUCSORGBACK
 10
0
 20
0
 30
0
  9
$USERI1
 70
    0
  9
$USERI2
 70
    0
  9
$USERI3
 70
    0
  9
$USERI4
 70
    0
  9
$USERI5
 70
    0
  9
$USERR1
 40
0
  9
$USERR2
 40
0
  9
$USERR3
 40
0
  9
$USERR4
 40
0
  9
$USERR5
 40
0
  9
$WORLDVIEW
 70
    1
  9
$SHADEDGE
 70
    3
  9
$SHADEDIF
 70
   70
  9
$TILEMODE
 70
    1
  9
$MAXACTVP
 70
   64
  9
$PINSBASE
 10
0
 20
0
 30
0
  9
$PLIMCHECK
 70
    0
  9
$PEXTMIN
 10
1e+20
 20
1e+20
 30
1e+20
  9
$PEXTMAX
 10
-1e+20
 20
-1e+20
 30
-1e+20
  9
$GRIDMODE
 70
    0
  9
$SNAPSTYLE
 70
    0
  9
$PLIMMIN
 10
0
 20
0
  9
$PLIMMAX
 10
420
 20
297
  9
$UNITMODE
 70
    0
  9
$VISRETAIN
 70
    1
  9
$PLINEGEN
 70
    0
  9
$PSLTSCALE
 70
    1
  9
$TREEDEPTH
 70
 3020
  9
$CMLSTYLE
  2
Standard
  9
$CMLJUST
 70
    0
  9
$CMLSCALE
 40
20
  9
$PROXYGRAPHICS
 70
    1
  9
$MEASUREMENT
 70
    1
  9
$CELWEIGHT
370
   -1
  9
$ENDCAPS
280
    0
  9
$JOINSTYLE
280
    0
  9
$LWDISPLAY
290
    1
  9
$INSUNITS
 70
    4
  9
$HYPERLINKBASE
  1

  9
$STYLESHEET
  1

  9
$XEDIT
290
    1
  9
$CEPSNTYPE
380
    0
  9
$PSTYLEMODE
290
    1
  9
$EXTNAMES
290
    1
  9
$PSVPSCALE
 40
0
  9
$OLESTARTUP
290
    0
  9
$SORTENTS
280
  127
  9
$INDEXCTL
280
    0
  9
$HIDETEXT
280
    1
  9
$XCLIPFRAME
290
    0
  9
$HALOGAP
280
    0
  9
$OBSCOLOR
 70
  257
  9
$OBSLTYPE
280
    0
  9
$INTERSECTIONDISPLAY
280
    0
  9
$INTERSECTIONCOLOR
 70
  257
  9
$DIMASSOC
280
    1
  9
$PROJECTNAME
  1

  9
$CAMERADISPLAY
290
    0
  9
$LENSLENGTH
 40
50
  9
$CAMERAHEIGHT
 40
0
  9
$STEPSPERSEC
 40
2
  9
$STEPSIZE
 40
50
  9
$3DDWFPREC
 40
2
  9
$PSOLWIDTH
 40
5
  9
$PSOLHEIGHT
 40
80
  9
$LOFTANG1
 40
1.570796326794897
  9
$LOFTANG2
 40
1.570796326794897
  9
$LOFTMAG1
 40
0
  9
$LOFTMAG2
 40
0
  9
$LOFTPARAM
 70
    7
  9
$LOFTNORMALS
280
    1
  9
$LATITUDE
 40
1
  9
$LONGITUDE
 40
1
  9
$NORTHDIRECTION
 40
0
  9
$TIMEZONE
 70
-8000
  9
$LIGHTGLYPHDISPLAY
280
    1
  9
$TILEMODELIGHTSYNCH
280
    1
  9
$SOLIDHIST
280
    1
  9
$SHOWHIST
280
    1
  9
$DWFFRAME
280
    2
  9
$DGNFRAME
280
    0
  9
$REALWORLDSCALE
290
    1
  9
$INTERFERECOLOR
 62
    1
  9
$CSHADOW
280
    0
  9
$SHADOWPLANELOCATION
 40
0
  0
ENDSEC
  0
SECTION
  2
CLASSES
  0
ENDSEC
  0
SECTION
  2
TABLES
  0
TABLE
  2
VPORT
  5
8
330
0
100
AcDbSymbolTable
 70
    1
  0
VPORT
  5
31
330
2
100
AcDbSymbolTableRecord
100
AcDbViewportTableRecord
  2
*ACTIVE
 70
    0
 10
0
 20
0
 11
1
 21
1
 12
45.42639016108223
 22
15.57356942103279
 13
0
 23
0
 14
10
 24
10
 15
10
 25
10
 16
0
 26
0
 36
1
 17
0
 27
0
 37
0
 40
67.05402812380336
 41
1.831880448318804
 42
50
 43
0
 44
0
 50
0
 51
0
 71
    0
 72
  100
 73
    1
 74
    3
 75
    0
 76
    0
 77
    0
 78
    0
281
    0
 65
    1
110
0
120
0
130
0
111
1
121
0
131
0
112
0
122
1
132
0
 79
    0
146
0
348
10020
 60
    7
 61
    5
292
1
282
    1
141
0
142
0
 63
  250
421
3358443
  0
ENDTAB
  0
TABLE
  2
LTYPE
  5
5
330
0
100
AcDbSymbolTable
 70
    4
  0
LTYPE
  5
14
330
5
100
AcDbSymbolTableRecord
100
AcDbLinetypeTableRecord
  2
ByBlock
 70
    0
  3

 72
   65
 73
    0
 40
0
  0
LTYPE
  5
15
330
5
100
AcDbSymbolTableRecord
100
AcDbLinetypeTableRecord
  2
ByLayer
 70
    0
  3

 72
   65
 73
    0
 40
0
  0
LTYPE
  5
16
330
5
100
AcDbSymbolTableRecord
100
AcDbLinetypeTableRecord
  2
Continuous
 70
    0
  3
Solid line
 72
   65
 73
    0
 40
0
  0
LTYPE
  5
32
330
5
100
AcDbSymbolTableRecord
100
AcDbLinetypeTableRecord
  2
DOT
 70
    0
  3
Dot . . . . . . . . . . . . . . . . . . . . . .
 72
   65
 73
    2
 40
6.35
 49
0
 74
    0
 49
-6.35
 74
    0
  0
LTYPE
  5
33
330
5
100
AcDbSymbolTableRecord
100
AcDbLinetypeTableRecord
  2
DOTTINY
 70
    0
  3
Dot (.15x) .....................................
 72
   65
 73
    2
 40
0.9525
 49
0
 74
    0
 49
-0.9525
 74
    0
  0
LTYPE
  5
34
330
5
100
AcDbSymbolTableRecord
100
AcDbLinetypeTableRecord
  2
DOT2
 70
    0
  3
Dot (.5x) .....................................
 72
   65
 73
    2
 40
3.175
 49
0
 74
    0
 49
-3.175
 74
    0
  0
LTYPE
  5
35
330
5
100
AcDbSymbolTableRecord
100
AcDbLinetypeTableRecord
  2
DOTX2
 70
    0
  3
Dot (2x) .  .  .  .  .  .  .  .  .  .  .  .  .
 72
   65
 73
    2
 40
12.7
 49
0
 74
    0
 49
-12.7
 74
    0
  0
LTYPE
  5
36
330
5
100
AcDbSymbolTableRecord
100
AcDbLinetypeTableRecord
  2
DASHED
 70
    0
  3
Dashed _ _ _ _ _ _ _ _ _ _ _ _ _ _ _ _ _
 72
   65
 73
    2
 40
19.05
 49
12.7
 74
    0
 49
-6.35
 74
    0
  0
LTYPE
  5
37
330
5
100
AcDbSymbolTableRecord
100
AcDbLinetypeTableRecord
  2
DASHEDTINY
 70
    0
  3
Dashed (.15x) _ _ _ _ _ _ _ _ _ _ _ _ _ _ _ _ _
 72
   65
 73
    2
 40
2.8575
 49
1.905
 74
    0
 49
-0.9525
 74
    0
  0
LTYPE
  5
38
330
5
100
AcDbSymbolTableRecord
100
AcDbLinetypeTableRecord
  2
DASHED2
 70
    0
  3
Dashed (.5x) _ _ _ _ _ _ _ _ _ _ _ _ _ _ _ _ _
 72
   65
 73
    2
 40
9.524999999999999
 49
6.35
 74
    0
 49
-3.175
 74
    0
  0
LTYPE
  5
39
330
5
100
AcDbSymbolTableRecord
100
AcDbLinetypeTableRecord
  2
DASHEDX2
 70
    0
  3
Dashed (2x) ____  ____  ____  ____  ____  ___
 72
   65
 73
    2
 40
38.09999999999999
 49
25.4
 74
    0
 49
-12.7
 74
    0
  0
LTYPE
  5
3A
330
5
100
AcDbSymbolTableRecord
100
AcDbLinetypeTableRecord
  2
DASHDOT
 70
    0
  3
Dash dot __ . __ . __ . __ . __ . __ . __ . __
 72
   65
 73
    4
 40
25.4
 49
12.7
 74
    0
 49
-6.35
 74
    0
 49
0
 74
    0
 49
-6.35
 74
    0
  0
LTYPE
  5
3B
330
5
100
AcDbSymbolTableRecord
100
AcDbLinetypeTableRecord
  2
DASHDOTTINY
 70
    0
  3
Dash dot (.15x) _._._._._._._._._._._._._._._.
 72
   65
 73
    4
 40
3.81
 49
1.905
 74
    0
 49
-0.9525
 74
    0
 49
0
 74
    0
 49
-0.9525
 74
    0
  0
LTYPE
  5
3C
330
5
100
AcDbSymbolTableRecord
100
AcDbLinetypeTableRecord
  2
DASHDOT2
 70
    0
  3
Dash dot (.5x) _._._._._._._._._._._._._._._.
 72
   65
 73
    4
 40
12.7
 49
6.35
 74
    0
 49
-3.175
 74
    0
 49
0
 74
    0
 49
-3.175
 74
    0
  0
LTYPE
  5
3D
330
5
100
AcDbSymbolTableRecord
100
AcDbLinetypeTableRecord
  2
DASHDOTX2
 70
    0
  3
Dash dot (2x) ____  .  ____  .  ____  .  ___
 72
   65
 73
    4
 40
50.8
 49
25.4
 74
    0
 49
-12.7
 74
    0
 49
0
 74
    0
 49
-12.7
 74
    0
  0
LTYPE
  5
3E
330
5
100
AcDbSymbolTableRecord
100
AcDbLinetypeTableRecord
  2
DIVIDE
 70
    0
  3
Divide ____ . . ____ . . ____ . . ____ . . ____
 72
   65
 73
    6
 40
31.75
 49
12.7
 74
    0
 49
-6.35
 74
    0
 49
0
 74
    0
 49
-6.35
 74
    0
 49
0
 74
    0
 49
-6.35
 74
    0
  0
LTYPE
  5
3F
330
5
100
AcDbSymbolTableRecord
100
AcDbLinetypeTableRecord
  2
DIVIDETINY
 70
    0
  3
Divide (.15x) __..__..__..__..__..__..__..__.._
 72
   65
 73
    6
 40
4.7625
 49
1.905
 74
    0
 49
-0.9525
 74
    0
 49
0
 74
    0
 49
-0.9525
 74
    0
 49
0
 74
    0
 49
-0.9525
 74
    0
  0
LTYPE
  5
40
330
5
100
AcDbSymbolTableRecord
100
AcDbLinetypeTableRecord
  2
DIVIDE2
 70
    0
  3
Divide (.5x) __..__..__..__..__..__..__..__.._
 72
   65
 73
    6
 40
15.875
 49
6.35
 74
    0
 49
-3.175
 74
    0
 49
0
 74
    0
 49
-3.175
 74
    0
 49
0
 74
    0
 49
-3.175
 74
    0
  0
LTYPE
  5
41
330
5
100
AcDbSymbolTableRecord
100
AcDbLinetypeTableRecord
  2
DIVIDEX2
 70
    0
  3
Divide (2x) ________  .  .  ________  .  .  _
 72
   65
 73
    6
 40
63.5
 49
25.4
 74
    0
 49
-12.7
 74
    0
 49
0
 74
    0
 49
-12.7
 74
    0
 49
0
 74
    0
 49
-12.7
 74
    0
  0
LTYPE
  5
42
330
5
100
AcDbSymbolTableRecord
100
AcDbLinetypeTableRecord
  2
BORDER
 70
    0
  3
Border __ __ . __ __ . __ __ . __ __ . __ __ .
 72
   65
 73
    6
 40
44.45
 49
12.7
 74
    0
 49
-6.35
 74
    0
 49
12.7
 74
    0
 49
-6.35
 74
    0
 49
0
 74
    0
 49
-6.35
 74
    0
  0
LTYPE
  5
43
330
5
100
AcDbSymbolTableRecord
100
AcDbLinetypeTableRecord
  2
BORDERTINY
 70
    0
  3
Border (.15x) __.__.__.__.__.__.__.__.__.__.__.
 72
   65
 73
    6
 40
6.6675
 49
1.905
 74
    0
 49
-0.9525
 74
    0
 49
1.905
 74
    0
 49
-0.9525
 74
    0
 49
0
 74
    0
 49
-0.9525
 74
    0
  0
LTYPE
  5
44
330
5
100
AcDbSymbolTableRecord
100
AcDbLinetypeTableRecord
  2
BORDER2
 70
    0
  3
Border (.5x) __.__.__.__.__.__.__.__.__.__.__.
 72
   65
 73
    6
 40
22.225
 49
6.35
 74
    0
 49
-3.175
 74
    0
 49
6.35
 74
    0
 49
-3.175
 74
    0
 49
0
 74
    0
 49
-3.175
 74
    0
  0
LTYPE
  5
45
330
5
100
AcDbSymbolTableRecord
100
AcDbLinetypeTableRecord
  2
BORDERX2
 70
    0
  3
Border (2x) ____  ____  .  ____  ____  .  ___
 72
   65
 73
    6
 40
88.89999999999999
 49
25.4
 74
    0
 49
-12.7
 74
    0
 49
25.4
 74
    0
 49
-12.7
 74
    0
 49
0
 74
    0
 49
-12.7
 74
    0
  0
LTYPE
  5
46
330
5
100
AcDbSymbolTableRecord
100
AcDbLinetypeTableRecord
  2
CENTER
 70
    0
  3
Center ____ _ ____ _ ____ _ ____ _ ____ _ ____
 72
   65
 73
    4
 40
50.8
 49
31.75
 74
    0
 49
-6.35
 74
    0
 49
6.35
 74
    0
 49
-6.35
 74
    0
  0
LTYPE
  5
47
330
5
100
AcDbSymbolTableRecord
100
AcDbLinetypeTableRecord
  2
CENTERTINY
 70
    0
  3
Center (.15x) ___ _ ___ _ ___ _ ___ _ ___ _ ___
 72
   65
 73
    4
 40
7.62
 49
4.7625
 74
    0
 49
-0.9525
 74
    0
 49
0.9525
 74
    0
 49
-0.9525
 74
    0
  0
LTYPE
  5
48
330
5
100
AcDbSymbolTableRecord
100
AcDbLinetypeTableRecord
  2
CENTER2
 70
    0
  3
Center (.5x) ___ _ ___ _ ___ _ ___ _ ___ _ ___
 72
   65
 73
    4
 40
28.575
 49
19.05
 74
    0
 49
-3.175
 74
    0
 49
3.175
 74
    0
 49
-3.175
 74
    0
  0
LTYPE
  5
49
330
5
100
AcDbSymbolTableRecord
100
AcDbLinetypeTableRecord
  2
CENTERX2
 70
    0
  3
Center (2x) ________  __  ________  __  _____
 72
   65
 73
    4
 40
101.6
 49
63.5
 74
    0
 49
-12.7
 74
    0
 49
12.7
 74
    0
 49
-12.7
 74
    0
  0
ENDTAB
  0
TABLE
  2
LAYER
  5
2
330
0
100
AcDbSymbolTable
 70
    1
  0
LAYER
  5
10
330
2
100
AcDbSymbolTableRecord
100
AcDbLayerTableRecord
  2
0
 70
    0
 62
    7
  6
CONTINUOUS
370
   -3
390
F
  0
ENDTAB
  0
TABLE
  2
STYLE
  5
3
330
0
100
AcDbSymbolTable
 70
    3
  0
STYLE
  5
4A
330
2
100
AcDbSymbolTableRecord
100
AcDbTextStyleTableRecord
  2
Standard
 70
    0
 40
0
 41
1
 50
0
 71
    0
 42
1
  3
txt
  4

  0
ENDTAB
  0
TABLE
  2
VIEW
  5
6
330
0
100
AcDbSymbolTable
 70
    0
  0
ENDTAB
  0
TABLE
  2
UCS
  5
7
330
0
100
AcDbSymbolTable
 70
    0
  0
ENDTAB
  0
TABLE
  2
APPID
  5
9
330
0
100
AcDbSymbolTable
 70
    1
  0
APPID
  5
12
330
9
100
AcDbSymbolTableRecord
100
AcDbRegAppTableRecord
  2
ACAD
 70
    0
  0
APPID
  5
4B
330
9
100
AcDbSymbolTableRecord
100
AcDbRegAppTableRecord
  2
LibreCad
 70
    0
  0
ENDTAB
  0
TABLE
  2
DIMSTYLE
  5
A
330
0
100
AcDbSymbolTable
 70
    1
100
AcDbDimStyleTable
 71
    1
  0
DIMSTYLE
105
4C
330
A
100
AcDbSymbolTableRecord
100
AcDbDimStyleTableRecord
  2
Standard
 70
    0
 40
1
 41
3.302
 42
0
 43
0.38
 44
1
 45
0
 46
0
 47
0
 48
0
 49
1
140
3.5
141
0.09
142
0
143
25.4
144
1
145
0
146
1
147
1.524
148
0
 71
    0
 72
    0
 73
    1
 74
    1
 75
    0
 76
    0
 77
    0
 78
    1
 79
    0
170
    0
171
    2
172
    0
173
    0
174
    0
175
    0
176
    0
177
    0
178
    0
179
    0
271
    2
272
    4
273
    2
274
    2
275
    0
276
    0
277
    2
278
   44
279
    0
280
    0
281
    0
282
    0
283
    1
284
    0
285
    0
286
    0
288
    0
289
    3
340
4A
  0
ENDTAB
  0
TABLE
  2
BLOCK_RECORD
  5
1
330
0
100
AcDbSymbolTable
 70
    2
  0
BLOCK_RECORD
  5
1F
330
1
100
AcDbSymbolTableRecord
100
AcDbBlockTableRecord
  2
*Model_Space
 70
    0
280
    1
281
    0
  0
BLOCK_RECORD
  5
1E
330
1
100
AcDbSymbolTableRecord
100
AcDbBlockTableRecord
  2
*Paper_Space
 70
    0
280
    1
281
    0
  0
ENDTAB
  0
ENDSEC
  0
SECTION
  2
BLOCKS
  0
BLOCK
  5
20
330
1F
100
AcDbEntity
  8
0
100
AcDbBlockBegin
  2
*Model_Space
 70
    0
 10
0
 20
0
 30
0
  3
*Model_Space
  1

  0
ENDBLK
  5
21
330
1F
100
AcDbEntity
  8
0
100
AcDbBlockEnd
  0
BLOCK
  5
1C
330
1B
100
AcDbEntity
  8
0
100
AcDbBlockBegin
  2
*Paper_Space
 70
    0
 10
0
 20
0
 30
0
  3
*Paper_Space
  1

  0
ENDBLK
  5
1D
330
1F
100
AcDbEntity
  8
0
100
AcDbBlockEnd
  0
ENDSEC
  0
SECTION
  2
ENTITIES
  0
ARC
  5
4D
100
AcDbEntity
  8
0
  6
CONTINUOUS
 62
    7
370
   25
100
AcDbCircle
 10
36.0000116446
 20
9.15747e-05
 40
25.49999934444015
100
AcDbArc
 50
184.3730720169
 51
186.8769252171
  0
LINE
  5
4E
100
AcDbEntity
  8
0
  6
CONTINUOUS
 62
    7
370
   25
100
AcDbLine
 10
10.6834683673
 20
-3.0532022295
 11
11.0859613673
 21
-3.1989759295
  0
LINE
  5
4F
100
AcDbEntity
  8
0
  6
CONTINUOUS
 62
    7
370
   25
100
AcDbLine
 10
11.0859613673
 20
-3.1989759295
 11
11.5100237673
 21
-3.3336532295
  0
LINE
  5
50
100
AcDbEntity
  8
0
  6
CONTINUOUS
 62
    7
370
   25
100
AcDbLine
 10
11.5100237673
 20
-3.3336532295
 11
11.8989724673
 21
-3.4394765295
  0
LINE
  5
51
100
AcDbEntity
  8
0
  6
CONTINUOUS
 62
    7
370
   25
100
AcDbLine
 10
11.8989724673
 20
-3.4394765295
 11
12.2548818673
 21
-3.5204682295
  0
LINE
  5
52
100
AcDbEntity
  8
0
  6
CONTINUOUS
 62
    7
370
   25
100
AcDbLine
 10
12.2548818673
 20
-3.5204682295
 11
12.5743094673
 21
-3.5792097295
  0
LINE
  5
53
100
AcDbEntity
  8
0
  6
CONTINUOUS
 62
    7
370
   25
100
AcDbLine
 10
12.5743094673
 20
-3.5792097295
 11
12.8569085673
 21
-3.6190325295
  0
LINE
  5
54
100
AcDbEntity
  8
0
  6
CONTINUOUS
 62
    7
370
   25
100
AcDbLine
 10
12.8569085673
 20
-3.6190325295
 11
13.0997773673
 21
-3.6429813295
  0
LINE
  5
55
100
AcDbEntity
  8
0
  6
CONTINUOUS
 62
    7
370
   25
100
AcDbLine
 10
13.0997773673
 20
-3.6429813295
 11
13.3062736673
 21
-3.6546603295
  0
LINE
  5
56
100
AcDbEntity
  8
0
  6
CONTINUOUS
 62
    7
370
   25
100
AcDbLine
 10
13.3062736673
 20
-3.6546603295
 11
13.5551536673
 21
-3.6615180295
  0
LINE
  5
57
100
AcDbEntity
  8
0
  6
CONTINUOUS
 62
    7
370
   25
100
AcDbLine
 10
13.5551536673
 20
-3.6615180295
 11
13.6324530673
 21
-3.6707143295
  0
LINE
  5
58
100
AcDbEntity
  8
0
  6
CONTINUOUS
 62
    7
370
   25
100
AcDbLine
 10
13.6324530673
 20
-3.6707143295
 11
13.6994573673
 21
-3.6845381295
  0
LINE
  5
59
100
AcDbEntity
  8
0
  6
CONTINUOUS
 62
    7
370
   25
100
AcDbLine
 10
13.6994573673
 20
-3.6845381295
 11
13.7560023673
 21
-3.7025732295
  0
LINE
  5
5A
100
AcDbEntity
  8
0
  6
CONTINUOUS
 62
    7
370
   25
100
AcDbLine
 10
13.7560023673
 20
-3.7025732295
 11
13.8019688673
 21
-3.7243745295
  0
LINE
  5
5B
100
AcDbEntity
  8
0
  6
CONTINUOUS
 62
    7
370
   25
100
AcDbLine
 10
13.8019688673
 20
-3.7243745295
 11
13.8371983673
 21
-3.7495044295
  0
LINE
  5
5C
100
AcDbEntity
  8
0
  6
CONTINUOUS
 62
    7
370
   25
100
AcDbLine
 10
13.8371983673
 20
-3.7495044295
 11
13.8615972673
 21
-3.7775432295
  0
LINE
  5
5D
100
AcDbEntity
  8
0
  6
CONTINUOUS
 62
    7
370
   25
100
AcDbLine
 10
13.8615972673
 20
-3.7775432295
 11
13.8750522673
 21
-3.8080239295
  0
LINE
  5
5E
100
AcDbEntity
  8
0
  6
CONTINUOUS
 62
    7
370
   25
100
AcDbLine
 10
13.8750522673
 20
-3.8080239295
 11
13.9813710673
 21
-4.3796865295
  0
LINE
  5
5F
100
AcDbEntity
  8
0
  6
CONTINUOUS
 62
    7
370
   25
100
AcDbLine
 10
13.9813710673
 20
-4.3796865295
 11
14.1019111673
 21
-4.9485203295
  0
LINE
  5
60
100
AcDbEntity
  8
0
  6
CONTINUOUS
 62
    7
370
   25
100
AcDbLine
 10
14.1019111673
 20
-4.9485203295
 11
14.1011447673
 21
-4.9818298295
  0
LINE
  5
61
100
AcDbEntity
  8
0
  6
CONTINUOUS
 62
    7
370
   25
100
AcDbLine
 10
14.1011447673
 20
-4.9818298295
 11
14.0893330673
 21
-5.0170713295
  0
LINE
  5
62
100
AcDbEntity
  8
0
  6
CONTINUOUS
 62
    7
370
   25
100
AcDbLine
 10
14.0893330673
 20
-5.0170713295
 11
14.0664020673
 21
-5.0537701295
  0
LINE
  5
63
100
AcDbEntity
  8
0
  6
CONTINUOUS
 62
    7
370
   25
100
AcDbLine
 10
14.0664020673
 20
-5.0537701295
 11
14.0322775673
 21
-5.0915025295
  0
LINE
  5
64
100
AcDbEntity
  8
0
  6
CONTINUOUS
 62
    7
370
   25
100
AcDbLine
 10
14.0322775673
 20
-5.0915025295
 11
13.9869385673
 21
-5.1298036295
  0
LINE
  5
65
100
AcDbEntity
  8
0
  6
CONTINUOUS
 62
    7
370
   25
100
AcDbLine
 10
13.9869385673
 20
-5.1298036295
 11
13.9303247673
 21
-5.1682165295
  0
LINE
  5
66
100
AcDbEntity
  8
0
  6
CONTINUOUS
 62
    7
370
   25
100
AcDbLine
 10
13.9303247673
 20
-5.1682165295
 11
13.8624286673
 21
-5.2062941295
  0
LINE
  5
67
100
AcDbEntity
  8
0
  6
CONTINUOUS
 62
    7
370
   25
100
AcDbLine
 10
13.8624286673
 20
-5.2062941295
 11
13.6351178673
 21
-5.3078720295
  0
LINE
  5
68
100
AcDbEntity
  8
0
  6
CONTINUOUS
 62
    7
370
   25
100
AcDbLine
 10
13.6351178673
 20
-5.3078720295
 11
13.4488095673
 21
-5.3976847295
  0
LINE
  5
69
100
AcDbEntity
  8
0
  6
CONTINUOUS
 62
    7
370
   25
100
AcDbLine
 10
13.4488095673
 20
-5.3976847295
 11
13.2335928673
 21
-5.5127524295
  0
LINE
  5
6A
100
AcDbEntity
  8
0
  6
CONTINUOUS
 62
    7
370
   25
100
AcDbLine
 10
13.2335928673
 20
-5.5127524295
 11
12.9877448673
 21
-5.6576899295
  0
LINE
  5
6B
100
AcDbEntity
  8
0
  6
CONTINUOUS
 62
    7
370
   25
100
AcDbLine
 10
12.9877448673
 20
-5.6576899295
 11
12.7151115673
 21
-5.8341995295
  0
LINE
  5
6C
100
AcDbEntity
  8
0
  6
CONTINUOUS
 62
    7
370
   25
100
AcDbLine
 10
12.7151115673
 20
-5.8341995295
 11
12.4172883673
 21
-6.0452268295
  0
LINE
  5
6D
100
AcDbEntity
  8
0
  6
CONTINUOUS
 62
    7
370
   25
100
AcDbLine
 10
12.4172883673
 20
-6.0452268295
 11
12.0984435673
 21
-6.2918389295
  0
LINE
  5
6E
100
AcDbEntity
  8
0
  6
CONTINUOUS
 62
    7
370
   25
100
AcDbLine
 10
12.0984435673
 20
-6.2918389295
 11
11.7581996673
 21
-6.5785462295
  0
LINE
  5
6F
100
AcDbEntity
  8
0
  6
CONTINUOUS
 62
    7
370
   25
100
AcDbLine
 10
11.7581996673
 20
-6.5785462295
 11
11.4421298673
 21
-6.8672510295
  0
ARC
  5
70
100
AcDbEntity
  8
0
  6
CONTINUOUS
 62
    7
370
   25
100
AcDbCircle
 10
36.0000116446
 20
9.15747e-05
 40
25.4999990555293
100
AcDbArc
 50
195.6230669847
 51
198.1269200085
  0
LINE
  5
71
100
AcDbEntity
  8
0
  6
CONTINUOUS
 62
    7
370
   25
100
AcDbLine
 10
11.7655862724
 20
-7.9335443326
 11
12.1887845724
 21
-7.9979946326
  0
LINE
  5
72
100
AcDbEntity
  8
0
  6
CONTINUOUS
 62
    7
370
   25
100
AcDbLine
 10
12.1887845724
 20
-7.9979946326
 11
12.6309729724
 21
-8.0473536326
  0
LINE
  5
73
100
AcDbEntity
  8
0
  6
CONTINUOUS
 62
    7
370
   25
100
AcDbLine
 10
12.6309729724
 20
-8.0473536326
 11
13.0330931724
 21
-8.0752634326
  0
LINE
  5
74
100
AcDbEntity
  8
0
  6
CONTINUOUS
 62
    7
370
   25
100
AcDbLine
 10
13.0330931724
 20
-8.0752634326
 11
13.3979645724
 21
-8.085264432600001
  0
LINE
  5
75
100
AcDbEntity
  8
0
  6
CONTINUOUS
 62
    7
370
   25
100
AcDbLine
 10
13.3979645724
 20
-8.085264432600001
 11
13.7227143724
 21
-8.0805599326
  0
LINE
  5
76
100
AcDbEntity
  8
0
  6
CONTINUOUS
 62
    7
370
   25
100
AcDbLine
 10
13.7227143724
 20
-8.0805599326
 11
14.0076524724
 21
-8.064485232599999
  0
LINE
  5
77
100
AcDbEntity
  8
0
  6
CONTINUOUS
 62
    7
370
   25
100
AcDbLine
 10
14.0076524724
 20
-8.064485232599999
 11
14.2505268724
 21
-8.0405925326
  0
LINE
  5
78
100
AcDbEntity
  8
0
  6
CONTINUOUS
 62
    7
370
   25
100
AcDbLine
 10
14.2505268724
 20
-8.0405925326
 11
14.4553337724
 21
-8.0117617326
  0
LINE
  5
79
100
AcDbEntity
  8
0
  6
CONTINUOUS
 62
    7
370
   25
100
AcDbLine
 10
14.4553337724
 20
-8.0117617326
 11
14.7007694724
 21
-7.9699335326
  0
LINE
  5
7A
100
AcDbEntity
  8
0
  6
CONTINUOUS
 62
    7
370
   25
100
AcDbLine
 10
14.7007694724
 20
-7.9699335326
 11
14.7783777724
 21
-7.9638728326
  0
LINE
  5
7B
100
AcDbEntity
  8
0
  6
CONTINUOUS
 62
    7
370
   25
100
AcDbLine
 10
14.7783777724
 20
-7.9638728326
 11
14.8467914724
 21
-7.9643590326
  0
LINE
  5
7C
100
AcDbEntity
  8
0
  6
CONTINUOUS
 62
    7
370
   25
100
AcDbLine
 10
14.8467914724
 20
-7.9643590326
 11
14.9057684724
 21
-7.9710162326
  0
LINE
  5
7D
100
AcDbEntity
  8
0
  6
CONTINUOUS
 62
    7
370
   25
100
AcDbLine
 10
14.9057684724
 20
-7.9710162326
 11
14.9551048724
 21
-7.9834310326
  0
LINE
  5
7E
100
AcDbEntity
  8
0
  6
CONTINUOUS
 62
    7
370
   25
100
AcDbLine
 10
14.9551048724
 20
-7.9834310326
 11
14.9945600724
 21
-8.001205132600001
  0
LINE
  5
7F
100
AcDbEntity
  8
0
  6
CONTINUOUS
 62
    7
370
   25
100
AcDbLine
 10
14.9945600724
 20
-8.001205132600001
 11
15.0239602724
 21
-8.023945232599999
  0
LINE
  5
80
100
AcDbEntity
  8
0
  6
CONTINUOUS
 62
    7
370
   25
100
AcDbLine
 10
15.0239602724
 20
-8.023945232599999
 11
15.0431032724
 21
-8.0512153326
  0
LINE
  5
81
100
AcDbEntity
  8
0
  6
CONTINUOUS
 62
    7
370
   25
100
AcDbLine
 10
15.0431032724
 20
-8.0512153326
 11
15.2589049724
 21
-8.5911518326
  0
LINE
  5
82
100
AcDbEntity
  8
0
  6
CONTINUOUS
 62
    7
370
   25
100
AcDbLine
 10
15.2589049724
 20
-8.5911518326
 11
15.4881028724
 21
-9.125539332600001
  0
LINE
  5
83
100
AcDbEntity
  8
0
  6
CONTINUOUS
 62
    7
370
   25
100
AcDbLine
 10
15.4881028724
 20
-9.125539332600001
 11
15.4938496724
 21
-9.1583584326
  0
LINE
  5
84
100
AcDbEntity
  8
0
  6
CONTINUOUS
 62
    7
370
   25
100
AcDbLine
 10
15.4938496724
 20
-9.1583584326
 11
15.4891401724
 21
-9.1952270326
  0
LINE
  5
85
100
AcDbEntity
  8
0
  6
CONTINUOUS
 62
    7
370
   25
100
AcDbLine
 10
15.4891401724
 20
-9.1952270326
 11
15.4738093724
 21
-9.2356943326
  0
LINE
  5
86
100
AcDbEntity
  8
0
  6
CONTINUOUS
 62
    7
370
   25
100
AcDbLine
 10
15.4738093724
 20
-9.2356943326
 11
15.4477017724
 21
-9.2793590326
  0
LINE
  5
87
100
AcDbEntity
  8
0
  6
CONTINUOUS
 62
    7
370
   25
100
AcDbLine
 10
15.4477017724
 20
-9.2793590326
 11
15.4107061724
 21
-9.3257694326
  0
LINE
  5
88
100
AcDbEntity
  8
0
  6
CONTINUOUS
 62
    7
370
   25
100
AcDbLine
 10
15.4107061724
 20
-9.3257694326
 11
15.3626740724
 21
-9.3744890326
  0
LINE
  5
89
100
AcDbEntity
  8
0
  6
CONTINUOUS
 62
    7
370
   25
100
AcDbLine
 10
15.3626740724
 20
-9.3744890326
 11
15.3035112724
 21
-9.4250807326
  0
LINE
  5
8A
100
AcDbEntity
  8
0
  6
CONTINUOUS
 62
    7
370
   25
100
AcDbLine
 10
15.3035112724
 20
-9.4250807326
 11
15.1003849724
 21
-9.569053032599999
  0
LINE
  5
8B
100
AcDbEntity
  8
0
  6
CONTINUOUS
 62
    7
370
   25
100
AcDbLine
 10
15.1003849724
 20
-9.569053032599999
 11
14.9351781724
 21
-9.693486932600001
  0
LINE
  5
8C
100
AcDbEntity
  8
0
  6
CONTINUOUS
 62
    7
370
   25
100
AcDbLine
 10
14.9351781724
 20
-9.693486932600001
 11
14.7465452724
 21
-9.8483303326
  0
LINE
  5
8D
100
AcDbEntity
  8
0
  6
CONTINUOUS
 62
    7
370
   25
100
AcDbLine
 10
14.7465452724
 20
-9.8483303326
 11
14.5336971724
 21
-10.0384455326
  0
LINE
  5
8E
100
AcDbEntity
  8
0
  6
CONTINUOUS
 62
    7
370
   25
100
AcDbLine
 10
14.5336971724
 20
-10.0384455326
 11
14.3007377724
 21
-10.2647517326
  0
LINE
  5
8F
100
AcDbEntity
  8
0
  6
CONTINUOUS
 62
    7
370
   25
100
AcDbLine
 10
14.3007377724
 20
-10.2647517326
 11
14.0498065724
 21
-10.5298265326
  0
LINE
  5
90
100
AcDbEntity
  8
0
  6
CONTINUOUS
 62
    7
370
   25
100
AcDbLine
 10
14.0498065724
 20
-10.5298265326
 11
13.7851998724
 21
-10.8339036326
  0
LINE
  5
91
100
AcDbEntity
  8
0
  6
CONTINUOUS
 62
    7
370
   25
100
AcDbLine
 10
13.7851998724
 20
-10.8339036326
 11
13.5074274724
 21
-11.1814802326
  0
LINE
  5
92
100
AcDbEntity
  8
0
  6
CONTINUOUS
 62
    7
370
   25
100
AcDbLine
 10
13.5074274724
 20
-11.1814802326
 11
13.2537543724
 21
-11.5262997326
  0
ARC
  5
93
100
AcDbEntity
  8
0
  6
CONTINUOUS
 62
    7
370
   25
100
AcDbCircle
 10
36.0000116446
 20
9.15747e-05
 40
25.49999836203249
100
AcDbArc
 50
206.8730619848
 51
209.376915253
  0
LINE
  5
94
100
AcDbEntity
  8
0
  6
CONTINUOUS
 62
    7
370
   25
100
AcDbLine
 10
13.7790191105
 20
-12.5090014084
 11
14.2066594105
 21
-12.4896514084
  0
LINE
  5
95
100
AcDbEntity
  8
0
  6
CONTINUOUS
 62
    7
370
   25
100
AcDbLine
 10
14.2066594105
 20
-12.4896514084
 11
14.6499808105
 21
-12.4517953084
  0
LINE
  5
96
100
AcDbEntity
  8
0
  6
CONTINUOUS
 62
    7
370
   25
100
AcDbLine
 10
14.6499808105
 20
-12.4517953084
 11
15.0498193105
 21
-12.4007190084
  0
LINE
  5
97
100
AcDbEntity
  8
0
  6
CONTINUOUS
 62
    7
370
   25
100
AcDbLine
 10
15.0498193105
 20
-12.4007190084
 11
15.4096309105
 21
-12.3393450084
  0
LINE
  5
98
100
AcDbEntity
  8
0
  6
CONTINUOUS
 62
    7
370
   25
100
AcDbLine
 10
15.4096309105
 20
-12.3393450084
 11
15.7272229105
 21
-12.2713754084
  0
LINE
  5
99
100
AcDbEntity
  8
0
  6
CONTINUOUS
 62
    7
370
   25
100
AcDbLine
 10
15.7272229105
 20
-12.2713754084
 11
16.0035500105
 21
-12.2000209084
  0
LINE
  5
9A
100
AcDbEntity
  8
0
  6
CONTINUOUS
 62
    7
370
   25
100
AcDbLine
 10
16.0035500105
 20
-12.2000209084
 11
16.2370963105
 21
-12.1292049084
  0
LINE
  5
9B
100
AcDbEntity
  8
0
  6
CONTINUOUS
 62
    7
370
   25
100
AcDbLine
 10
16.2370963105
 20
-12.1292049084
 11
16.4323433105
 21
-12.0609722084
  0
LINE
  5
9C
100
AcDbEntity
  8
0
  6
CONTINUOUS
 62
    7
370
   25
100
AcDbLine
 10
16.4323433105
 20
-12.0609722084
 11
16.6649028105
 21
-11.9720656084
  0
LINE
  5
9D
100
AcDbEntity
  8
0
  6
CONTINUOUS
 62
    7
370
   25
100
AcDbLine
 10
16.6649028105
 20
-11.9720656084
 11
16.7398374105
 21
-11.9509807084
  0
LINE
  5
9E
100
AcDbEntity
  8
0
  6
CONTINUOUS
 62
    7
370
   25
100
AcDbLine
 10
16.7398374105
 20
-11.9509807084
 11
16.8070315105
 21
-11.9381107084
  0
LINE
  5
9F
100
AcDbEntity
  8
0
  6
CONTINUOUS
 62
    7
370
   25
100
AcDbLine
 10
16.8070315105
 20
-11.9381107084
 11
16.8661740105
 21
-11.9331342084
  0
LINE
  5
A0
100
AcDbEntity
  8
0
  6
CONTINUOUS
 62
    7
370
   25
100
AcDbLine
 10
16.8661740105
 20
-11.9331342084
 11
16.9169844105
 21
-11.9356853084
  0
LINE
  5
A1
100
AcDbEntity
  8
0
  6
CONTINUOUS
 62
    7
370
   25
100
AcDbLine
 10
16.9169844105
 20
-11.9356853084
 11
16.9591491105
 21
-11.9454206084
  0
LINE
  5
A2
100
AcDbEntity
  8
0
  6
CONTINUOUS
 62
    7
370
   25
100
AcDbLine
 10
16.9591491105
 20
-11.9454206084
 11
16.9924207105
 21
-11.9619880084
  0
LINE
  5
A3
100
AcDbEntity
  8
0
  6
CONTINUOUS
 62
    7
370
   25
100
AcDbLine
 10
16.9924207105
 20
-11.9619880084
 11
17.0165160105
 21
-11.9849995084
  0
LINE
  5
A4
100
AcDbEntity
  8
0
  6
CONTINUOUS
 62
    7
370
   25
100
AcDbLine
 10
17.0165160105
 20
-11.9849995084
 11
17.3335075105
 21
-12.4724604084
  0
LINE
  5
A5
100
AcDbEntity
  8
0
  6
CONTINUOUS
 62
    7
370
   25
100
AcDbLine
 10
17.3335075105
 20
-12.4724604084
 11
17.6625553105
 21
-12.9518656084
  0
LINE
  5
A6
100
AcDbEntity
  8
0
  6
CONTINUOUS
 62
    7
370
   25
100
AcDbLine
 10
17.6625553105
 20
-12.9518656084
 11
17.6745943105
 21
-12.9829329084
  0
LINE
  5
A7
100
AcDbEntity
  8
0
  6
CONTINUOUS
 62
    7
370
   25
100
AcDbLine
 10
17.6745943105
 20
-12.9829329084
 11
17.6771681105
 21
-13.0200119084
  0
LINE
  5
A8
100
AcDbEntity
  8
0
  6
CONTINUOUS
 62
    7
370
   25
100
AcDbLine
 10
17.6771681105
 20
-13.0200119084
 11
17.6700266105
 21
-13.0626925084
  0
LINE
  5
A9
100
AcDbEntity
  8
0
  6
CONTINUOUS
 62
    7
370
   25
100
AcDbLine
 10
17.6700266105
 20
-13.0626925084
 11
17.6529392105
 21
-13.1106115084
  0
LINE
  5
AA
100
AcDbEntity
  8
0
  6
CONTINUOUS
 62
    7
370
   25
100
AcDbLine
 10
17.6529392105
 20
-13.1106115084
 11
17.6257087105
 21
-13.1633477084
  0
LINE
  5
AB
100
AcDbEntity
  8
0
  6
CONTINUOUS
 62
    7
370
   25
100
AcDbLine
 10
17.6257087105
 20
-13.1633477084
 11
17.5881043105
 21
-13.2205017084
  0
LINE
  5
AC
100
AcDbEntity
  8
0
  6
CONTINUOUS
 62
    7
370
   25
100
AcDbLine
 10
17.5881043105
 20
-13.2205017084
 11
17.5399481105
 21
-13.2816635084
  0
LINE
  5
AD
100
AcDbEntity
  8
0
  6
CONTINUOUS
 62
    7
370
   25
100
AcDbLine
 10
17.5399481105
 20
-13.2816635084
 11
17.3688125105
 21
-13.4624973084
  0
LINE
  5
AE
100
AcDbEntity
  8
0
  6
CONTINUOUS
 62
    7
370
   25
100
AcDbLine
 10
17.3688125105
 20
-13.4624973084
 11
17.2310559105
 21
-13.6167705084
  0
LINE
  5
AF
100
AcDbEntity
  8
0
  6
CONTINUOUS
 62
    7
370
   25
100
AcDbLine
 10
17.2310559105
 20
-13.6167705084
 11
17.0762561105
 21
-13.8054391084
  0
LINE
  5
B0
100
AcDbEntity
  8
0
  6
CONTINUOUS
 62
    7
370
   25
100
AcDbLine
 10
17.0762561105
 20
-13.8054391084
 11
16.9045873105
 21
-14.0334258084
  0
LINE
  5
B1
100
AcDbEntity
  8
0
  6
CONTINUOUS
 62
    7
370
   25
100
AcDbLine
 10
16.9045873105
 20
-14.0334258084
 11
16.7202544105
 21
-14.3008317084
  0
LINE
  5
B2
100
AcDbEntity
  8
0
  6
CONTINUOUS
 62
    7
370
   25
100
AcDbLine
 10
16.7202544105
 20
-14.3008317084
 11
16.5258583105
 21
-14.6097675084
  0
LINE
  5
B3
100
AcDbEntity
  8
0
  6
CONTINUOUS
 62
    7
370
   25
100
AcDbLine
 10
16.5258583105
 20
-14.6097675084
 11
16.3256584105
 21
-14.9596241084
  0
LINE
  5
B4
100
AcDbEntity
  8
0
  6
CONTINUOUS
 62
    7
370
   25
100
AcDbLine
 10
16.3256584105
 20
-14.9596241084
 11
16.1210322105
 21
-15.3547127084
  0
LINE
  5
B5
100
AcDbEntity
  8
0
  6
CONTINUOUS
 62
    7
370
   25
100
AcDbLine
 10
16.1210322105
 20
-15.3547127084
 11
15.9395042105
 21
-15.7423958084
  0
ARC
  5
B6
100
AcDbEntity
  8
0
  6
CONTINUOUS
 62
    7
370
   25
100
AcDbCircle
 10
36.0000116446
 20
9.15747e-05
 40
25.49999740243435
100
AcDbArc
 50
218.1230573844
 51
220.6269111088
  0
LINE
  5
B7
100
AcDbEntity
  8
0
  6
CONTINUOUS
 62
    7
370
   25
100
AcDbLine
 10
16.6463917568
 20
-16.6037412587
 11
17.0620399568
 21
-16.5013345587
  0
LINE
  5
B8
100
AcDbEntity
  8
0
  6
CONTINUOUS
 62
    7
370
   25
100
AcDbLine
 10
17.0620399568
 20
-16.5013345587
 11
17.4894577568
 21
-16.3777181587
  0
LINE
  5
B9
100
AcDbEntity
  8
0
  6
CONTINUOUS
 62
    7
370
   25
100
AcDbLine
 10
17.4894577568
 20
-16.3777181587
 11
17.8716489568
 21
-16.2496186587
  0
LINE
  5
BA
100
AcDbEntity
  8
0
  6
CONTINUOUS
 62
    7
370
   25
100
AcDbLine
 10
17.8716489568
 20
-16.2496186587
 11
18.2125734568
 21
-16.1192281587
  0
LINE
  5
BB
100
AcDbEntity
  8
0
  6
CONTINUOUS
 62
    7
370
   25
100
AcDbLine
 10
18.2125734568
 20
-16.1192281587
 11
18.5108027568
 21
-15.9906054587
  0
LINE
  5
BC
100
AcDbEntity
  8
0
  6
CONTINUOUS
 62
    7
370
   25
100
AcDbLine
 10
18.5108027568
 20
-15.9906054587
 11
18.7678997568
 21
-15.8667132587
  0
LINE
  5
BD
100
AcDbEntity
  8
0
  6
CONTINUOUS
 62
    7
370
   25
100
AcDbLine
 10
18.7678997568
 20
-15.8667132587
 11
18.9831430568
 21
-15.7516952587
  0
LINE
  5
BE
100
AcDbEntity
  8
0
  6
CONTINUOUS
 62
    7
370
   25
100
AcDbLine
 10
18.9831430568
 20
-15.7516952587
 11
19.1613268568
 21
-15.6466828587
  0
LINE
  5
BF
100
AcDbEntity
  8
0
  6
CONTINUOUS
 62
    7
370
   25
100
AcDbLine
 10
19.1613268568
 20
-15.6466828587
 11
19.3720729568
 21
-15.5141144587
  0
LINE
  5
C0
100
AcDbEntity
  8
0
  6
CONTINUOUS
 62
    7
370
   25
100
AcDbLine
 10
19.3720729568
 20
-15.5141144587
 11
19.4414542568
 21
-15.4788157587
  0
LINE
  5
C1
100
AcDbEntity
  8
0
  6
CONTINUOUS
 62
    7
370
   25
100
AcDbLine
 10
19.4414542568
 20
-15.4788157587
 11
19.5048464568
 21
-15.4530840587
  0
LINE
  5
C2
100
AcDbEntity
  8
0
  6
CONTINUOUS
 62
    7
370
   25
100
AcDbLine
 10
19.5048464568
 20
-15.4530840587
 11
19.5618816568
 21
-15.4366650587
  0
LINE
  5
C3
100
AcDbEntity
  8
0
  6
CONTINUOUS
 62
    7
370
   25
100
AcDbLine
 10
19.5618816568
 20
-15.4366650587
 11
19.6122134568
 21
-15.4292545587
  0
LINE
  5
C4
100
AcDbEntity
  8
0
  6
CONTINUOUS
 62
    7
370
   25
100
AcDbLine
 10
19.6122134568
 20
-15.4292545587
 11
19.6554672568
 21
-15.4305768587
  0
LINE
  5
C5
100
AcDbEntity
  8
0
  6
CONTINUOUS
 62
    7
370
   25
100
AcDbLine
 10
19.6554672568
 20
-15.4305768587
 11
19.6913316568
 21
-15.4403349587
  0
LINE
  5
C6
100
AcDbEntity
  8
0
  6
CONTINUOUS
 62
    7
370
   25
100
AcDbLine
 10
19.6913316568
 20
-15.4403349587
 11
19.7194533568
 21
-15.4582035587
  0
LINE
  5
C7
100
AcDbEntity
  8
0
  6
CONTINUOUS
 62
    7
370
   25
100
AcDbLine
 10
19.7194533568
 20
-15.4582035587
 11
20.1254528568
 21
-15.8744560587
  0
LINE
  5
C8
100
AcDbEntity
  8
0
  6
CONTINUOUS
 62
    7
370
   25
100
AcDbLine
 10
20.1254528568
 20
-15.8744560587
 11
20.5417053568
 21
-16.2804555587
  0
LINE
  5
C9
100
AcDbEntity
  8
0
  6
CONTINUOUS
 62
    7
370
   25
100
AcDbLine
 10
20.5417053568
 20
-16.2804555587
 11
20.5595739568
 21
-16.3085772587
  0
LINE
  5
CA
100
AcDbEntity
  8
0
  6
CONTINUOUS
 62
    7
370
   25
100
AcDbLine
 10
20.5595739568
 20
-16.3085772587
 11
20.5693320568
 21
-16.3444416587
  0
LINE
  5
CB
100
AcDbEntity
  8
0
  6
CONTINUOUS
 62
    7
370
   25
100
AcDbLine
 10
20.5693320568
 20
-16.3444416587
 11
20.5706543568
 21
-16.3876954587
  0
LINE
  5
CC
100
AcDbEntity
  8
0
  6
CONTINUOUS
 62
    7
370
   25
100
AcDbLine
 10
20.5706543568
 20
-16.3876954587
 11
20.5632438568
 21
-16.4380272587
  0
LINE
  5
CD
100
AcDbEntity
  8
0
  6
CONTINUOUS
 62
    7
370
   25
100
AcDbLine
 10
20.5632438568
 20
-16.4380272587
 11
20.5468248568
 21
-16.4950624587
  0
LINE
  5
CE
100
AcDbEntity
  8
0
  6
CONTINUOUS
 62
    7
370
   25
100
AcDbLine
 10
20.5468248568
 20
-16.4950624587
 11
20.5210931568
 21
-16.5584546587
  0
LINE
  5
CF
100
AcDbEntity
  8
0
  6
CONTINUOUS
 62
    7
370
   25
100
AcDbLine
 10
20.5210931568
 20
-16.5584546587
 11
20.4857944568
 21
-16.6278359587
  0
LINE
  5
D0
100
AcDbEntity
  8
0
  6
CONTINUOUS
 62
    7
370
   25
100
AcDbLine
 10
20.4857944568
 20
-16.6278359587
 11
20.3532260568
 21
-16.8385820587
  0
LINE
  5
D1
100
AcDbEntity
  8
0
  6
CONTINUOUS
 62
    7
370
   25
100
AcDbLine
 10
20.3532260568
 20
-16.8385820587
 11
20.2482136568
 21
-17.0167658587
  0
LINE
  5
D2
100
AcDbEntity
  8
0
  6
CONTINUOUS
 62
    7
370
   25
100
AcDbLine
 10
20.2482136568
 20
-17.0167658587
 11
20.1331956568
 21
-17.2320091587
  0
LINE
  5
D3
100
AcDbEntity
  8
0
  6
CONTINUOUS
 62
    7
370
   25
100
AcDbLine
 10
20.1331956568
 20
-17.2320091587
 11
20.0093034568
 21
-17.4891061587
  0
LINE
  5
D4
100
AcDbEntity
  8
0
  6
CONTINUOUS
 62
    7
370
   25
100
AcDbLine
 10
20.0093034568
 20
-17.4891061587
 11
19.8806807568
 21
-17.7873354587
  0
LINE
  5
D5
100
AcDbEntity
  8
0
  6
CONTINUOUS
 62
    7
370
   25
100
AcDbLine
 10
19.8806807568
 20
-17.7873354587
 11
19.7502902568
 21
-18.1282599587
  0
LINE
  5
D6
100
AcDbEntity
  8
0
  6
CONTINUOUS
 62
    7
370
   25
100
AcDbLine
 10
19.7502902568
 20
-18.1282599587
 11
19.6221907568
 21
-18.5104511587
  0
LINE
  5
D7
100
AcDbEntity
  8
0
  6
CONTINUOUS
 62
    7
370
   25
100
AcDbLine
 10
19.6221907568
 20
-18.5104511587
 11
19.4985743568
 21
-18.9378689587
  0
LINE
  5
D8
100
AcDbEntity
  8
0
  6
CONTINUOUS
 62
    7
370
   25
100
AcDbLine
 10
19.4985743568
 20
-18.9378689587
 11
19.3961676568
 21
-19.3535171587
  0
ARC
  5
D9
100
AcDbEntity
  8
0
  6
CONTINUOUS
 62
    7
370
   25
100
AcDbCircle
 10
36.0000116446
 20
9.15747e-05
 40
25.49999619960443
100
AcDbArc
 50
229.3730535502
 51
231.8769074934
  0
LINE
  5
DA
100
AcDbEntity
  8
0
  6
CONTINUOUS
 62
    7
370
   25
100
AcDbLine
 10
20.257512707
 20
-20.0604052631
 11
20.645195807
 21
-19.8788772631
  0
LINE
  5
DB
100
AcDbEntity
  8
0
  6
CONTINUOUS
 62
    7
370
   25
100
AcDbLine
 10
20.645195807
 20
-19.8788772631
 11
21.040284407
 21
-19.6742510631
  0
LINE
  5
DC
100
AcDbEntity
  8
0
  6
CONTINUOUS
 62
    7
370
   25
100
AcDbLine
 10
21.040284407
 20
-19.6742510631
 11
21.390141007
 21
-19.4740511631
  0
LINE
  5
DD
100
AcDbEntity
  8
0
  6
CONTINUOUS
 62
    7
370
   25
100
AcDbLine
 10
21.390141007
 20
-19.4740511631
 11
21.699076807
 21
-19.2796550631
  0
LINE
  5
DE
100
AcDbEntity
  8
0
  6
CONTINUOUS
 62
    7
370
   25
100
AcDbLine
 10
21.699076807
 20
-19.2796550631
 11
21.966482707
 21
-19.0953221631
  0
LINE
  5
DF
100
AcDbEntity
  8
0
  6
CONTINUOUS
 62
    7
370
   25
100
AcDbLine
 10
21.966482707
 20
-19.0953221631
 11
22.194469407
 21
-18.9236533631
  0
LINE
  5
E0
100
AcDbEntity
  8
0
  6
CONTINUOUS
 62
    7
370
   25
100
AcDbLine
 10
22.194469407
 20
-18.9236533631
 11
22.383138007
 21
-18.7688535631
  0
LINE
  5
E1
100
AcDbEntity
  8
0
  6
CONTINUOUS
 62
    7
370
   25
100
AcDbLine
 10
22.383138007
 20
-18.7688535631
 11
22.537411207
 21
-18.6310969631
  0
LINE
  5
E2
100
AcDbEntity
  8
0
  6
CONTINUOUS
 62
    7
370
   25
100
AcDbLine
 10
22.537411207
 20
-18.6310969631
 11
22.718245007
 21
-18.4599613631
  0
LINE
  5
E3
100
AcDbEntity
  8
0
  6
CONTINUOUS
 62
    7
370
   25
100
AcDbLine
 10
22.718245007
 20
-18.4599613631
 11
22.779406807
 21
-18.4118051631
  0
LINE
  5
E4
100
AcDbEntity
  8
0
  6
CONTINUOUS
 62
    7
370
   25
100
AcDbLine
 10
22.779406807
 20
-18.4118051631
 11
22.836560807
 21
-18.3742007631
  0
LINE
  5
E5
100
AcDbEntity
  8
0
  6
CONTINUOUS
 62
    7
370
   25
100
AcDbLine
 10
22.836560807
 20
-18.3742007631
 11
22.889297007
 21
-18.3469702631
  0
LINE
  5
E6
100
AcDbEntity
  8
0
  6
CONTINUOUS
 62
    7
370
   25
100
AcDbLine
 10
22.889297007
 20
-18.3469702631
 11
22.937216007
 21
-18.3298828631
  0
LINE
  5
E7
100
AcDbEntity
  8
0
  6
CONTINUOUS
 62
    7
370
   25
100
AcDbLine
 10
22.937216007
 20
-18.3298828631
 11
22.979896607
 21
-18.3227413631
  0
LINE
  5
E8
100
AcDbEntity
  8
0
  6
CONTINUOUS
 62
    7
370
   25
100
AcDbLine
 10
22.979896607
 20
-18.3227413631
 11
23.016975607
 21
-18.3253151631
  0
LINE
  5
E9
100
AcDbEntity
  8
0
  6
CONTINUOUS
 62
    7
370
   25
100
AcDbLine
 10
23.016975607
 20
-18.3253151631
 11
23.048042907
 21
-18.3373541631
  0
LINE
  5
EA
100
AcDbEntity
  8
0
  6
CONTINUOUS
 62
    7
370
   25
100
AcDbLine
 10
23.048042907
 20
-18.3373541631
 11
23.527448107
 21
-18.6664019631
  0
LINE
  5
EB
100
AcDbEntity
  8
0
  6
CONTINUOUS
 62
    7
370
   25
100
AcDbLine
 10
23.527448107
 20
-18.6664019631
 11
24.014909007
 21
-18.9833934631
  0
LINE
  5
EC
100
AcDbEntity
  8
0
  6
CONTINUOUS
 62
    7
370
   25
100
AcDbLine
 10
24.014909007
 20
-18.9833934631
 11
24.037920507
 21
-19.0074887631
  0
LINE
  5
ED
100
AcDbEntity
  8
0
  6
CONTINUOUS
 62
    7
370
   25
100
AcDbLine
 10
24.037920507
 20
-19.0074887631
 11
24.054487907
 21
-19.0407603631
  0
LINE
  5
EE
100
AcDbEntity
  8
0
  6
CONTINUOUS
 62
    7
370
   25
100
AcDbLine
 10
24.054487907
 20
-19.0407603631
 11
24.064223207
 21
-19.0829250631
  0
LINE
  5
EF
100
AcDbEntity
  8
0
  6
CONTINUOUS
 62
    7
370
   25
100
AcDbLine
 10
24.064223207
 20
-19.0829250631
 11
24.066774307
 21
-19.1337354631
  0
LINE
  5
F0
100
AcDbEntity
  8
0
  6
CONTINUOUS
 62
    7
370
   25
100
AcDbLine
 10
24.066774307
 20
-19.1337354631
 11
24.061797807
 21
-19.1928779631
  0
LINE
  5
F1
100
AcDbEntity
  8
0
  6
CONTINUOUS
 62
    7
370
   25
100
AcDbLine
 10
24.061797807
 20
-19.1928779631
 11
24.048927807
 21
-19.2600720631
  0
LINE
  5
F2
100
AcDbEntity
  8
0
  6
CONTINUOUS
 62
    7
370
   25
100
AcDbLine
 10
24.048927807
 20
-19.2600720631
 11
24.027842907
 21
-19.3350066631
  0
LINE
  5
F3
100
AcDbEntity
  8
0
  6
CONTINUOUS
 62
    7
370
   25
100
AcDbLine
 10
24.027842907
 20
-19.3350066631
 11
23.938936307
 21
-19.5675661631
  0
LINE
  5
F4
100
AcDbEntity
  8
0
  6
CONTINUOUS
 62
    7
370
   25
100
AcDbLine
 10
23.938936307
 20
-19.5675661631
 11
23.870703607
 21
-19.7628131631
  0
LINE
  5
F5
100
AcDbEntity
  8
0
  6
CONTINUOUS
 62
    7
370
   25
100
AcDbLine
 10
23.870703607
 20
-19.7628131631
 11
23.799887607
 21
-19.9963594631
  0
LINE
  5
F6
100
AcDbEntity
  8
0
  6
CONTINUOUS
 62
    7
370
   25
100
AcDbLine
 10
23.799887607
 20
-19.9963594631
 11
23.728533107
 21
-20.2726865631
  0
LINE
  5
F7
100
AcDbEntity
  8
0
  6
CONTINUOUS
 62
    7
370
   25
100
AcDbLine
 10
23.728533107
 20
-20.2726865631
 11
23.660563507
 21
-20.5902785631
  0
LINE
  5
F8
100
AcDbEntity
  8
0
  6
CONTINUOUS
 62
    7
370
   25
100
AcDbLine
 10
23.660563507
 20
-20.5902785631
 11
23.599189507
 21
-20.9500901631
  0
LINE
  5
F9
100
AcDbEntity
  8
0
  6
CONTINUOUS
 62
    7
370
   25
100
AcDbLine
 10
23.599189507
 20
-20.9500901631
 11
23.548113207
 21
-21.3499286631
  0
LINE
  5
FA
100
AcDbEntity
  8
0
  6
CONTINUOUS
 62
    7
370
   25
100
AcDbLine
 10
23.548113207
 20
-21.3499286631
 11
23.510257107
 21
-21.7932500631
  0
LINE
  5
FB
100
AcDbEntity
  8
0
  6
CONTINUOUS
 62
    7
370
   25
100
AcDbLine
 10
23.510257107
 20
-21.7932500631
 11
23.490907107
 21
-22.2208903631
  0
ARC
  5
FC
100
AcDbEntity
  8
0
  6
CONTINUOUS
 62
    7
370
   25
100
AcDbCircle
 10
35.9999965327
 20
0.0001029061
 40
25.49999725743117
100
AcDbArc
 50
240.6230925225
 51
243.1269464074
  0
LINE
  5
FD
100
AcDbEntity
  8
0
  6
CONTINUOUS
 62
    7
370
   25
100
AcDbLine
 10
24.4736090564
 20
-22.7461550691
 11
24.8184285564
 21
-22.4924819691
  0
LINE
  5
FE
100
AcDbEntity
  8
0
  6
CONTINUOUS
 62
    7
370
   25
100
AcDbLine
 10
24.8184285564
 20
-22.4924819691
 11
25.1660051564
 21
-22.2147095691
  0
LINE
  5
FF
100
AcDbEntity
  8
0
  6
CONTINUOUS
 62
    7
370
   25
100
AcDbLine
 10
25.1660051564
 20
-22.2147095691
 11
25.4700822564
 21
-21.9501028691
  0
LINE
  5
100
100
AcDbEntity
  8
0
  6
CONTINUOUS
 62
    7
370
   25
100
AcDbLine
 10
25.4700822564
 20
-21.9501028691
 11
25.7351570564
 21
-21.6991716691
  0
LINE
  5
101
100
AcDbEntity
  8
0
  6
CONTINUOUS
 62
    7
370
   25
100
AcDbLine
 10
25.7351570564
 20
-21.6991716691
 11
25.9614632564
 21
-21.4662122691
  0
LINE
  5
102
100
AcDbEntity
  8
0
  6
CONTINUOUS
 62
    7
370
   25
100
AcDbLine
 10
25.9614632564
 20
-21.4662122691
 11
26.1515784564
 21
-21.2533641691
  0
LINE
  5
103
100
AcDbEntity
  8
0
  6
CONTINUOUS
 62
    7
370
   25
100
AcDbLine
 10
26.1515784564
 20
-21.2533641691
 11
26.3064218564
 21
-21.0647312691
  0
LINE
  5
104
100
AcDbEntity
  8
0
  6
CONTINUOUS
 62
    7
370
   25
100
AcDbLine
 10
26.3064218564
 20
-21.0647312691
 11
26.4308557564
 21
-20.8995244691
  0
LINE
  5
105
100
AcDbEntity
  8
0
  6
CONTINUOUS
 62
    7
370
   25
100
AcDbLine
 10
26.4308557564
 20
-20.8995244691
 11
26.5748280564
 21
-20.6963981691
  0
LINE
  5
106
100
AcDbEntity
  8
0
  6
CONTINUOUS
 62
    7
370
   25
100
AcDbLine
 10
26.5748280564
 20
-20.6963981691
 11
26.6254197564
 21
-20.6372353691
  0
LINE
  5
107
100
AcDbEntity
  8
0
  6
CONTINUOUS
 62
    7
370
   25
100
AcDbLine
 10
26.6254197564
 20
-20.6372353691
 11
26.6741393564
 21
-20.5892032691
  0
LINE
  5
108
100
AcDbEntity
  8
0
  6
CONTINUOUS
 62
    7
370
   25
100
AcDbLine
 10
26.6741393564
 20
-20.5892032691
 11
26.7205497564
 21
-20.5522076691
  0
LINE
  5
109
100
AcDbEntity
  8
0
  6
CONTINUOUS
 62
    7
370
   25
100
AcDbLine
 10
26.7205497564
 20
-20.5522076691
 11
26.7642144564
 21
-20.5261000691
  0
LINE
  5
10A
100
AcDbEntity
  8
0
  6
CONTINUOUS
 62
    7
370
   25
100
AcDbLine
 10
26.7642144564
 20
-20.5261000691
 11
26.8046817564
 21
-20.5107692691
  0
LINE
  5
10B
100
AcDbEntity
  8
0
  6
CONTINUOUS
 62
    7
370
   25
100
AcDbLine
 10
26.8046817564
 20
-20.5107692691
 11
26.8415503564
 21
-20.5060597691
  0
LINE
  5
10C
100
AcDbEntity
  8
0
  6
CONTINUOUS
 62
    7
370
   25
100
AcDbLine
 10
26.8415503564
 20
-20.5060597691
 11
26.8743694564
 21
-20.5118065691
  0
LINE
  5
10D
100
AcDbEntity
  8
0
  6
CONTINUOUS
 62
    7
370
   25
100
AcDbLine
 10
26.8743694564
 20
-20.5118065691
 11
27.4087569564
 21
-20.7410044691
  0
LINE
  5
10E
100
AcDbEntity
  8
0
  6
CONTINUOUS
 62
    7
370
   25
100
AcDbLine
 10
27.4087569564
 20
-20.7410044691
 11
27.9486934564
 21
-20.9568061691
  0
LINE
  5
10F
100
AcDbEntity
  8
0
  6
CONTINUOUS
 62
    7
370
   25
100
AcDbLine
 10
27.9486934564
 20
-20.9568061691
 11
27.9759635564
 21
-20.9759491691
  0
LINE
  5
110
100
AcDbEntity
  8
0
  6
CONTINUOUS
 62
    7
370
   25
100
AcDbLine
 10
27.9759635564
 20
-20.9759491691
 11
27.9987036564
 21
-21.0053493691
  0
LINE
  5
111
100
AcDbEntity
  8
0
  6
CONTINUOUS
 62
    7
370
   25
100
AcDbLine
 10
27.9987036564
 20
-21.0053493691
 11
28.0164777564
 21
-21.0448045691
  0
LINE
  5
112
100
AcDbEntity
  8
0
  6
CONTINUOUS
 62
    7
370
   25
100
AcDbLine
 10
28.0164777564
 20
-21.0448045691
 11
28.0288925564
 21
-21.0941409691
  0
LINE
  5
113
100
AcDbEntity
  8
0
  6
CONTINUOUS
 62
    7
370
   25
100
AcDbLine
 10
28.0288925564
 20
-21.0941409691
 11
28.0355497564
 21
-21.1531179691
  0
LINE
  5
114
100
AcDbEntity
  8
0
  6
CONTINUOUS
 62
    7
370
   25
100
AcDbLine
 10
28.0355497564
 20
-21.1531179691
 11
28.0360359564
 21
-21.2215316691
  0
LINE
  5
115
100
AcDbEntity
  8
0
  6
CONTINUOUS
 62
    7
370
   25
100
AcDbLine
 10
28.0360359564
 20
-21.2215316691
 11
28.0299752564
 21
-21.2991399691
  0
LINE
  5
116
100
AcDbEntity
  8
0
  6
CONTINUOUS
 62
    7
370
   25
100
AcDbLine
 10
28.0299752564
 20
-21.2991399691
 11
27.9881470564
 21
-21.5445756691
  0
LINE
  5
117
100
AcDbEntity
  8
0
  6
CONTINUOUS
 62
    7
370
   25
100
AcDbLine
 10
27.9881470564
 20
-21.5445756691
 11
27.9593162564
 21
-21.7493825691
  0
LINE
  5
118
100
AcDbEntity
  8
0
  6
CONTINUOUS
 62
    7
370
   25
100
AcDbLine
 10
27.9593162564
 20
-21.7493825691
 11
27.9354235564
 21
-21.9922569691
  0
LINE
  5
119
100
AcDbEntity
  8
0
  6
CONTINUOUS
 62
    7
370
   25
100
AcDbLine
 10
27.9354235564
 20
-21.9922569691
 11
27.9193488564
 21
-22.2771950691
  0
LINE
  5
11A
100
AcDbEntity
  8
0
  6
CONTINUOUS
 62
    7
370
   25
100
AcDbLine
 10
27.9193488564
 20
-22.2771950691
 11
27.9146443564
 21
-22.6019448691
  0
LINE
  5
11B
100
AcDbEntity
  8
0
  6
CONTINUOUS
 62
    7
370
   25
100
AcDbLine
 10
27.9146443564
 20
-22.6019448691
 11
27.9246453564
 21
-22.9668162691
  0
LINE
  5
11C
100
AcDbEntity
  8
0
  6
CONTINUOUS
 62
    7
370
   25
100
AcDbLine
 10
27.9246453564
 20
-22.9668162691
 11
27.9525551564
 21
-23.3689364691
  0
LINE
  5
11D
100
AcDbEntity
  8
0
  6
CONTINUOUS
 62
    7
370
   25
100
AcDbLine
 10
27.9525551564
 20
-23.3689364691
 11
28.0019141564
 21
-23.8111248691
  0
LINE
  5
11E
100
AcDbEntity
  8
0
  6
CONTINUOUS
 62
    7
370
   25
100
AcDbLine
 10
28.0019141564
 20
-23.8111248691
 11
28.0663644564
 21
-24.2343231691
  0
ARC
  5
11F
100
AcDbEntity
  8
0
  6
CONTINUOUS
 62
    7
370
   25
100
AcDbCircle
 10
35.9999965327
 20
0.0001029061
 40
25.49999853171128
100
AcDbArc
 50
251.8730886635
 51
254.3769421945
  0
LINE
  5
120
100
AcDbEntity
  8
0
  6
CONTINUOUS
 62
    7
370
   25
100
AcDbLine
 10
29.1326580039
 20
-24.5577794669
 11
29.4213628039
 21
-24.2417096669
  0
LINE
  5
121
100
AcDbEntity
  8
0
  6
CONTINUOUS
 62
    7
370
   25
100
AcDbLine
 10
29.4213628039
 20
-24.2417096669
 11
29.7080701039
 21
-23.9014657669
  0
LINE
  5
122
100
AcDbEntity
  8
0
  6
CONTINUOUS
 62
    7
370
   25
100
AcDbLine
 10
29.7080701039
 20
-23.9014657669
 11
29.9546822039
 21
-23.5826209669
  0
LINE
  5
123
100
AcDbEntity
  8
0
  6
CONTINUOUS
 62
    7
370
   25
100
AcDbLine
 10
29.9546822039
 20
-23.5826209669
 11
30.1657095039
 21
-23.2847977669
  0
LINE
  5
124
100
AcDbEntity
  8
0
  6
CONTINUOUS
 62
    7
370
   25
100
AcDbLine
 10
30.1657095039
 20
-23.2847977669
 11
30.3422191039
 21
-23.0121644669
  0
LINE
  5
125
100
AcDbEntity
  8
0
  6
CONTINUOUS
 62
    7
370
   25
100
AcDbLine
 10
30.3422191039
 20
-23.0121644669
 11
30.4871566039
 21
-22.7663164669
  0
LINE
  5
126
100
AcDbEntity
  8
0
  6
CONTINUOUS
 62
    7
370
   25
100
AcDbLine
 10
30.4871566039
 20
-22.7663164669
 11
30.6022243039
 21
-22.5510997669
  0
LINE
  5
127
100
AcDbEntity
  8
0
  6
CONTINUOUS
 62
    7
370
   25
100
AcDbLine
 10
30.6022243039
 20
-22.5510997669
 11
30.6920370039
 21
-22.3647914669
  0
LINE
  5
128
100
AcDbEntity
  8
0
  6
CONTINUOUS
 62
    7
370
   25
100
AcDbLine
 10
30.6920370039
 20
-22.3647914669
 11
30.7936149039
 21
-22.1374806669
  0
LINE
  5
129
100
AcDbEntity
  8
0
  6
CONTINUOUS
 62
    7
370
   25
100
AcDbLine
 10
30.7936149039
 20
-22.1374806669
 11
30.8316925039
 21
-22.0695845669
  0
LINE
  5
12A
100
AcDbEntity
  8
0
  6
CONTINUOUS
 62
    7
370
   25
100
AcDbLine
 10
30.8316925039
 20
-22.0695845669
 11
30.8701054039
 21
-22.0129707669
  0
LINE
  5
12B
100
AcDbEntity
  8
0
  6
CONTINUOUS
 62
    7
370
   25
100
AcDbLine
 10
30.8701054039
 20
-22.0129707669
 11
30.9084065039
 21
-21.9676317669
  0
LINE
  5
12C
100
AcDbEntity
  8
0
  6
CONTINUOUS
 62
    7
370
   25
100
AcDbLine
 10
30.9084065039
 20
-21.9676317669
 11
30.9461389039
 21
-21.9335072669
  0
LINE
  5
12D
100
AcDbEntity
  8
0
  6
CONTINUOUS
 62
    7
370
   25
100
AcDbLine
 10
30.9461389039
 20
-21.9335072669
 11
30.9828377039
 21
-21.9105762669
  0
LINE
  5
12E
100
AcDbEntity
  8
0
  6
CONTINUOUS
 62
    7
370
   25
100
AcDbLine
 10
30.9828377039
 20
-21.9105762669
 11
31.0180792039
 21
-21.8987645669
  0
LINE
  5
12F
100
AcDbEntity
  8
0
  6
CONTINUOUS
 62
    7
370
   25
100
AcDbLine
 10
31.0180792039
 20
-21.8987645669
 11
31.0513887039
 21
-21.8979981669
  0
LINE
  5
130
100
AcDbEntity
  8
0
  6
CONTINUOUS
 62
    7
370
   25
100
AcDbLine
 10
31.0513887039
 20
-21.8979981669
 11
31.6202225039
 21
-22.0185382669
  0
LINE
  5
131
100
AcDbEntity
  8
0
  6
CONTINUOUS
 62
    7
370
   25
100
AcDbLine
 10
31.6202225039
 20
-22.0185382669
 11
32.1918851039
 21
-22.1248570669
  0
LINE
  5
132
100
AcDbEntity
  8
0
  6
CONTINUOUS
 62
    7
370
   25
100
AcDbLine
 10
32.1918851039
 20
-22.1248570669
 11
32.2223658039
 21
-22.1383120669
  0
LINE
  5
133
100
AcDbEntity
  8
0
  6
CONTINUOUS
 62
    7
370
   25
100
AcDbLine
 10
32.2223658039
 20
-22.1383120669
 11
32.2504046039
 21
-22.1627109669
  0
LINE
  5
134
100
AcDbEntity
  8
0
  6
CONTINUOUS
 62
    7
370
   25
100
AcDbLine
 10
32.2504046039
 20
-22.1627109669
 11
32.2755345039
 21
-22.1979404669
  0
LINE
  5
135
100
AcDbEntity
  8
0
  6
CONTINUOUS
 62
    7
370
   25
100
AcDbLine
 10
32.2755345039
 20
-22.1979404669
 11
32.2973358039
 21
-22.2439069669
  0
LINE
  5
136
100
AcDbEntity
  8
0
  6
CONTINUOUS
 62
    7
370
   25
100
AcDbLine
 10
32.2973358039
 20
-22.2439069669
 11
32.3153709039
 21
-22.3004519669
  0
LINE
  5
137
100
AcDbEntity
  8
0
  6
CONTINUOUS
 62
    7
370
   25
100
AcDbLine
 10
32.3153709039
 20
-22.3004519669
 11
32.3291947039
 21
-22.3674562669
  0
LINE
  5
138
100
AcDbEntity
  8
0
  6
CONTINUOUS
 62
    7
370
   25
100
AcDbLine
 10
32.3291947039
 20
-22.3674562669
 11
32.3383910039
 21
-22.4447556669
  0
LINE
  5
139
100
AcDbEntity
  8
0
  6
CONTINUOUS
 62
    7
370
   25
100
AcDbLine
 10
32.3383910039
 20
-22.4447556669
 11
32.3452487039
 21
-22.6936356669
  0
LINE
  5
13A
100
AcDbEntity
  8
0
  6
CONTINUOUS
 62
    7
370
   25
100
AcDbLine
 10
32.3452487039
 20
-22.6936356669
 11
32.3569277039
 21
-22.9001319669
  0
LINE
  5
13B
100
AcDbEntity
  8
0
  6
CONTINUOUS
 62
    7
370
   25
100
AcDbLine
 10
32.3569277039
 20
-22.9001319669
 11
32.3808765039
 21
-23.1430007669
  0
LINE
  5
13C
100
AcDbEntity
  8
0
  6
CONTINUOUS
 62
    7
370
   25
100
AcDbLine
 10
32.3808765039
 20
-23.1430007669
 11
32.4206993039
 21
-23.4255998669
  0
LINE
  5
13D
100
AcDbEntity
  8
0
  6
CONTINUOUS
 62
    7
370
   25
100
AcDbLine
 10
32.4206993039
 20
-23.4255998669
 11
32.4794408039
 21
-23.7450274669
  0
LINE
  5
13E
100
AcDbEntity
  8
0
  6
CONTINUOUS
 62
    7
370
   25
100
AcDbLine
 10
32.4794408039
 20
-23.7450274669
 11
32.5604325039
 21
-24.1009368669
  0
LINE
  5
13F
100
AcDbEntity
  8
0
  6
CONTINUOUS
 62
    7
370
   25
100
AcDbLine
 10
32.5604325039
 20
-24.1009368669
 11
32.6662558039
 21
-24.4898855669
  0
LINE
  5
140
100
AcDbEntity
  8
0
  6
CONTINUOUS
 62
    7
370
   25
100
AcDbLine
 10
32.6662558039
 20
-24.4898855669
 11
32.8009331039
 21
-24.9139479669
  0
LINE
  5
141
100
AcDbEntity
  8
0
  6
CONTINUOUS
 62
    7
370
   25
100
AcDbLine
 10
32.8009331039
 20
-24.9139479669
 11
32.9467068039
 21
-25.3164409669
  0
ARC
  5
142
100
AcDbEntity
  8
0
  6
CONTINUOUS
 62
    7
370
   25
100
AcDbCircle
 10
35.9999965327
 20
0.0001029061
 40
25.4999994479104
100
AcDbArc
 50
263.1230840343
 51
265.6269376181
  0
LINE
  5
143
100
AcDbEntity
  8
0
  6
CONTINUOUS
 62
    7
370
   25
100
AcDbLine
 10
34.0556150676
 20
-25.4256586865
 11
34.2771102676
 21
-25.0593385865
  0
LINE
  5
144
100
AcDbEntity
  8
0
  6
CONTINUOUS
 62
    7
370
   25
100
AcDbLine
 10
34.2771102676
 20
-25.0593385865
 11
34.4919302676
 21
-24.6696985865
  0
LINE
  5
145
100
AcDbEntity
  8
0
  6
CONTINUOUS
 62
    7
370
   25
100
AcDbLine
 10
34.4919302676
 20
-24.6696985865
 11
34.6716002676
 21
-24.3088685865
  0
LINE
  5
146
100
AcDbEntity
  8
0
  6
CONTINUOUS
 62
    7
370
   25
100
AcDbLine
 10
34.6716002676
 20
-24.3088685865
 11
34.8204702676
 21
-23.9755985865
  0
LINE
  5
147
100
AcDbEntity
  8
0
  6
CONTINUOUS
 62
    7
370
   25
100
AcDbLine
 10
34.8204702676
 20
-23.9755985865
 11
34.9404002676
 21
-23.6737685865
  0
LINE
  5
148
100
AcDbEntity
  8
0
  6
CONTINUOUS
 62
    7
370
   25
100
AcDbLine
 10
34.9404002676
 20
-23.6737685865
 11
35.0345902676
 21
-23.4043685865
  0
LINE
  5
149
100
AcDbEntity
  8
0
  6
CONTINUOUS
 62
    7
370
   25
100
AcDbLine
 10
35.0345902676
 20
-23.4043685865
 11
35.1054602676
 21
-23.1708385865
  0
LINE
  5
14A
100
AcDbEntity
  8
0
  6
CONTINUOUS
 62
    7
370
   25
100
AcDbLine
 10
35.1054602676
 20
-23.1708385865
 11
35.1572002676
 21
-22.9705885865
  0
LINE
  5
14B
100
AcDbEntity
  8
0
  6
CONTINUOUS
 62
    7
370
   25
100
AcDbLine
 10
35.1572002676
 20
-22.9705885865
 11
35.2124802676
 21
-22.7278285865
  0
LINE
  5
14C
100
AcDbEntity
  8
0
  6
CONTINUOUS
 62
    7
370
   25
100
AcDbLine
 10
35.2124802676
 20
-22.7278285865
 11
35.2365802676
 21
-22.6538085865
  0
LINE
  5
14D
100
AcDbEntity
  8
0
  6
CONTINUOUS
 62
    7
370
   25
100
AcDbLine
 10
35.2365802676
 20
-22.6538085865
 11
35.2632102676
 21
-22.5907885865
  0
LINE
  5
14E
100
AcDbEntity
  8
0
  6
CONTINUOUS
 62
    7
370
   25
100
AcDbLine
 10
35.2632102676
 20
-22.5907885865
 11
35.2919302676
 21
-22.5388485865
  0
LINE
  5
14F
100
AcDbEntity
  8
0
  6
CONTINUOUS
 62
    7
370
   25
100
AcDbLine
 10
35.2919302676
 20
-22.5388485865
 11
35.3222802676
 21
-22.4980185865
  0
LINE
  5
150
100
AcDbEntity
  8
0
  6
CONTINUOUS
 62
    7
370
   25
100
AcDbLine
 10
35.3222802676
 20
-22.4980185865
 11
35.3538002676
 21
-22.4683685865
  0
LINE
  5
151
100
AcDbEntity
  8
0
  6
CONTINUOUS
 62
    7
370
   25
100
AcDbLine
 10
35.3538002676
 20
-22.4683685865
 11
35.3860602676
 21
-22.4499085865
  0
LINE
  5
152
100
AcDbEntity
  8
0
  6
CONTINUOUS
 62
    7
370
   25
100
AcDbLine
 10
35.3860602676
 20
-22.4499085865
 11
35.4185802676
 21
-22.4426585865
  0
LINE
  5
153
100
AcDbEntity
  8
0
  6
CONTINUOUS
 62
    7
370
   25
100
AcDbLine
 10
35.4185802676
 20
-22.4426585865
 11
36.0000002676
 21
-22.4499085865
  0
LINE
  5
154
100
AcDbEntity
  8
0
  6
CONTINUOUS
 62
    7
370
   25
100
AcDbLine
 10
36.0000002676
 20
-22.4499085865
 11
36.5814202676
 21
-22.4426585865
  0
LINE
  5
155
100
AcDbEntity
  8
0
  6
CONTINUOUS
 62
    7
370
   25
100
AcDbLine
 10
36.5814202676
 20
-22.4426585865
 11
36.6139402676
 21
-22.4499085865
  0
LINE
  5
156
100
AcDbEntity
  8
0
  6
CONTINUOUS
 62
    7
370
   25
100
AcDbLine
 10
36.6139402676
 20
-22.4499085865
 11
36.6462002676
 21
-22.4683685865
  0
LINE
  5
157
100
AcDbEntity
  8
0
  6
CONTINUOUS
 62
    7
370
   25
100
AcDbLine
 10
36.6462002676
 20
-22.4683685865
 11
36.6777202676
 21
-22.4980185865
  0
LINE
  5
158
100
AcDbEntity
  8
0
  6
CONTINUOUS
 62
    7
370
   25
100
AcDbLine
 10
36.6777202676
 20
-22.4980185865
 11
36.7080702676
 21
-22.5388485865
  0
LINE
  5
159
100
AcDbEntity
  8
0
  6
CONTINUOUS
 62
    7
370
   25
100
AcDbLine
 10
36.7080702676
 20
-22.5388485865
 11
36.7367902676
 21
-22.5907885865
  0
LINE
  5
15A
100
AcDbEntity
  8
0
  6
CONTINUOUS
 62
    7
370
   25
100
AcDbLine
 10
36.7367902676
 20
-22.5907885865
 11
36.7634202676
 21
-22.6538085865
  0
LINE
  5
15B
100
AcDbEntity
  8
0
  6
CONTINUOUS
 62
    7
370
   25
100
AcDbLine
 10
36.7634202676
 20
-22.6538085865
 11
36.7875202676
 21
-22.7278285865
  0
LINE
  5
15C
100
AcDbEntity
  8
0
  6
CONTINUOUS
 62
    7
370
   25
100
AcDbLine
 10
36.7875202676
 20
-22.7278285865
 11
36.8428002676
 21
-22.9705885865
  0
LINE
  5
15D
100
AcDbEntity
  8
0
  6
CONTINUOUS
 62
    7
370
   25
100
AcDbLine
 10
36.8428002676
 20
-22.9705885865
 11
36.8945402676
 21
-23.1708385865
  0
LINE
  5
15E
100
AcDbEntity
  8
0
  6
CONTINUOUS
 62
    7
370
   25
100
AcDbLine
 10
36.8945402676
 20
-23.1708385865
 11
36.9654102676
 21
-23.4043685865
  0
LINE
  5
15F
100
AcDbEntity
  8
0
  6
CONTINUOUS
 62
    7
370
   25
100
AcDbLine
 10
36.9654102676
 20
-23.4043685865
 11
37.0596002676
 21
-23.6737685865
  0
LINE
  5
160
100
AcDbEntity
  8
0
  6
CONTINUOUS
 62
    7
370
   25
100
AcDbLine
 10
37.0596002676
 20
-23.6737685865
 11
37.1795302676
 21
-23.9755985865
  0
LINE
  5
161
100
AcDbEntity
  8
0
  6
CONTINUOUS
 62
    7
370
   25
100
AcDbLine
 10
37.1795302676
 20
-23.9755985865
 11
37.3284002676
 21
-24.3088685865
  0
LINE
  5
162
100
AcDbEntity
  8
0
  6
CONTINUOUS
 62
    7
370
   25
100
AcDbLine
 10
37.3284002676
 20
-24.3088685865
 11
37.5080702676
 21
-24.6696985865
  0
LINE
  5
163
100
AcDbEntity
  8
0
  6
CONTINUOUS
 62
    7
370
   25
100
AcDbLine
 10
37.5080702676
 20
-24.6696985865
 11
37.7228902676
 21
-25.0593385865
  0
LINE
  5
164
100
AcDbEntity
  8
0
  6
CONTINUOUS
 62
    7
370
   25
100
AcDbLine
 10
37.7228902676
 20
-25.0593385865
 11
37.9443854676
 21
-25.4256586865
  0
ARC
  5
165
100
AcDbEntity
  8
0
  6
CONTINUOUS
 62
    7
370
   25
100
AcDbCircle
 10
35.9999965327
 20
0.0001029061
 40
25.50000001747932
100
AcDbArc
 50
274.3730791167
 51
276.876932582
  0
LINE
  5
166
100
AcDbEntity
  8
0
  6
CONTINUOUS
 62
    7
370
   25
100
AcDbLine
 10
39.0532936718
 20
-25.3164406469
 11
39.1990673718
 21
-24.9139476469
  0
LINE
  5
167
100
AcDbEntity
  8
0
  6
CONTINUOUS
 62
    7
370
   25
100
AcDbLine
 10
39.1990673718
 20
-24.9139476469
 11
39.3337446718
 21
-24.4898852469
  0
LINE
  5
168
100
AcDbEntity
  8
0
  6
CONTINUOUS
 62
    7
370
   25
100
AcDbLine
 10
39.3337446718
 20
-24.4898852469
 11
39.4395679718
 21
-24.1009365469
  0
LINE
  5
169
100
AcDbEntity
  8
0
  6
CONTINUOUS
 62
    7
370
   25
100
AcDbLine
 10
39.4395679718
 20
-24.1009365469
 11
39.5205596718
 21
-23.7450271469
  0
LINE
  5
16A
100
AcDbEntity
  8
0
  6
CONTINUOUS
 62
    7
370
   25
100
AcDbLine
 10
39.5205596718
 20
-23.7450271469
 11
39.5793011718
 21
-23.4255995469
  0
LINE
  5
16B
100
AcDbEntity
  8
0
  6
CONTINUOUS
 62
    7
370
   25
100
AcDbLine
 10
39.5793011718
 20
-23.4255995469
 11
39.6191239718
 21
-23.1430004469
  0
LINE
  5
16C
100
AcDbEntity
  8
0
  6
CONTINUOUS
 62
    7
370
   25
100
AcDbLine
 10
39.6191239718
 20
-23.1430004469
 11
39.6430727718
 21
-22.9001316469
  0
LINE
  5
16D
100
AcDbEntity
  8
0
  6
CONTINUOUS
 62
    7
370
   25
100
AcDbLine
 10
39.6430727718
 20
-22.9001316469
 11
39.6547517718
 21
-22.6936353469
  0
LINE
  5
16E
100
AcDbEntity
  8
0
  6
CONTINUOUS
 62
    7
370
   25
100
AcDbLine
 10
39.6547517718
 20
-22.6936353469
 11
39.6616094718
 21
-22.4447553469
  0
LINE
  5
16F
100
AcDbEntity
  8
0
  6
CONTINUOUS
 62
    7
370
   25
100
AcDbLine
 10
39.6616094718
 20
-22.4447553469
 11
39.6708057718
 21
-22.3674559469
  0
LINE
  5
170
100
AcDbEntity
  8
0
  6
CONTINUOUS
 62
    7
370
   25
100
AcDbLine
 10
39.6708057718
 20
-22.3674559469
 11
39.6846295718
 21
-22.3004516469
  0
LINE
  5
171
100
AcDbEntity
  8
0
  6
CONTINUOUS
 62
    7
370
   25
100
AcDbLine
 10
39.6846295718
 20
-22.3004516469
 11
39.7026646718
 21
-22.2439066469
  0
LINE
  5
172
100
AcDbEntity
  8
0
  6
CONTINUOUS
 62
    7
370
   25
100
AcDbLine
 10
39.7026646718
 20
-22.2439066469
 11
39.7244659718
 21
-22.1979401469
  0
LINE
  5
173
100
AcDbEntity
  8
0
  6
CONTINUOUS
 62
    7
370
   25
100
AcDbLine
 10
39.7244659718
 20
-22.1979401469
 11
39.7495958718
 21
-22.1627106469
  0
LINE
  5
174
100
AcDbEntity
  8
0
  6
CONTINUOUS
 62
    7
370
   25
100
AcDbLine
 10
39.7495958718
 20
-22.1627106469
 11
39.7776346718
 21
-22.1383117469
  0
LINE
  5
175
100
AcDbEntity
  8
0
  6
CONTINUOUS
 62
    7
370
   25
100
AcDbLine
 10
39.7776346718
 20
-22.1383117469
 11
39.8081153718
 21
-22.1248567469
  0
LINE
  5
176
100
AcDbEntity
  8
0
  6
CONTINUOUS
 62
    7
370
   25
100
AcDbLine
 10
39.8081153718
 20
-22.1248567469
 11
40.3797779718
 21
-22.0185379469
  0
LINE
  5
177
100
AcDbEntity
  8
0
  6
CONTINUOUS
 62
    7
370
   25
100
AcDbLine
 10
40.3797779718
 20
-22.0185379469
 11
40.9486117718
 21
-21.8979978469
  0
LINE
  5
178
100
AcDbEntity
  8
0
  6
CONTINUOUS
 62
    7
370
   25
100
AcDbLine
 10
40.9486117718
 20
-21.8979978469
 11
40.9819212718
 21
-21.8987642469
  0
LINE
  5
179
100
AcDbEntity
  8
0
  6
CONTINUOUS
 62
    7
370
   25
100
AcDbLine
 10
40.9819212718
 20
-21.8987642469
 11
41.0171627718
 21
-21.9105759469
  0
LINE
  5
17A
100
AcDbEntity
  8
0
  6
CONTINUOUS
 62
    7
370
   25
100
AcDbLine
 10
41.0171627718
 20
-21.9105759469
 11
41.0538615718
 21
-21.9335069469
  0
LINE
  5
17B
100
AcDbEntity
  8
0
  6
CONTINUOUS
 62
    7
370
   25
100
AcDbLine
 10
41.0538615718
 20
-21.9335069469
 11
41.0915939718
 21
-21.9676314469
  0
LINE
  5
17C
100
AcDbEntity
  8
0
  6
CONTINUOUS
 62
    7
370
   25
100
AcDbLine
 10
41.0915939718
 20
-21.9676314469
 11
41.1298950718
 21
-22.0129704469
  0
LINE
  5
17D
100
AcDbEntity
  8
0
  6
CONTINUOUS
 62
    7
370
   25
100
AcDbLine
 10
41.1298950718
 20
-22.0129704469
 11
41.1683079718
 21
-22.0695842469
  0
LINE
  5
17E
100
AcDbEntity
  8
0
  6
CONTINUOUS
 62
    7
370
   25
100
AcDbLine
 10
41.1683079718
 20
-22.0695842469
 11
41.2063855718
 21
-22.1374803469
  0
LINE
  5
17F
100
AcDbEntity
  8
0
  6
CONTINUOUS
 62
    7
370
   25
100
AcDbLine
 10
41.2063855718
 20
-22.1374803469
 11
41.3079634718
 21
-22.3647911469
  0
LINE
  5
180
100
AcDbEntity
  8
0
  6
CONTINUOUS
 62
    7
370
   25
100
AcDbLine
 10
41.3079634718
 20
-22.3647911469
 11
41.3977761718
 21
-22.5510994469
  0
LINE
  5
181
100
AcDbEntity
  8
0
  6
CONTINUOUS
 62
    7
370
   25
100
AcDbLine
 10
41.3977761718
 20
-22.5510994469
 11
41.5128438718
 21
-22.7663161469
  0
LINE
  5
182
100
AcDbEntity
  8
0
  6
CONTINUOUS
 62
    7
370
   25
100
AcDbLine
 10
41.5128438718
 20
-22.7663161469
 11
41.6577813718
 21
-23.0121641469
  0
LINE
  5
183
100
AcDbEntity
  8
0
  6
CONTINUOUS
 62
    7
370
   25
100
AcDbLine
 10
41.6577813718
 20
-23.0121641469
 11
41.8342909718
 21
-23.2847974469
  0
LINE
  5
184
100
AcDbEntity
  8
0
  6
CONTINUOUS
 62
    7
370
   25
100
AcDbLine
 10
41.8342909718
 20
-23.2847974469
 11
42.0453182718
 21
-23.5826206469
  0
LINE
  5
185
100
AcDbEntity
  8
0
  6
CONTINUOUS
 62
    7
370
   25
100
AcDbLine
 10
42.0453182718
 20
-23.5826206469
 11
42.2919303718
 21
-23.9014654469
  0
LINE
  5
186
100
AcDbEntity
  8
0
  6
CONTINUOUS
 62
    7
370
   25
100
AcDbLine
 10
42.2919303718
 20
-23.9014654469
 11
42.5786376718
 21
-24.2417093469
  0
LINE
  5
187
100
AcDbEntity
  8
0
  6
CONTINUOUS
 62
    7
370
   25
100
AcDbLine
 10
42.5786376718
 20
-24.2417093469
 11
42.8673424718
 21
-24.5577791469
  0
ARC
  5
188
100
AcDbEntity
  8
0
  6
CONTINUOUS
 62
    7
370
   25
100
AcDbCircle
 10
35.9999965327
 20
0.0001029061
 40
25.50000021915266
100
AcDbArc
 50
285.623074034
 51
288.1269272177
  0
LINE
  5
189
100
AcDbEntity
  8
0
  6
CONTINUOUS
 62
    7
370
   25
100
AcDbLine
 10
43.9336358513
 20
-24.2343225738
 11
43.9980861513
 21
-23.8111242738
  0
LINE
  5
18A
100
AcDbEntity
  8
0
  6
CONTINUOUS
 62
    7
370
   25
100
AcDbLine
 10
43.9980861513
 20
-23.8111242738
 11
44.0474451513
 21
-23.3689358738
  0
LINE
  5
18B
100
AcDbEntity
  8
0
  6
CONTINUOUS
 62
    7
370
   25
100
AcDbLine
 10
44.0474451513
 20
-23.3689358738
 11
44.0753549513
 21
-22.9668156738
  0
LINE
  5
18C
100
AcDbEntity
  8
0
  6
CONTINUOUS
 62
    7
370
   25
100
AcDbLine
 10
44.0753549513
 20
-22.9668156738
 11
44.0853559513
 21
-22.6019442738
  0
LINE
  5
18D
100
AcDbEntity
  8
0
  6
CONTINUOUS
 62
    7
370
   25
100
AcDbLine
 10
44.0853559513
 20
-22.6019442738
 11
44.0806514513
 21
-22.2771944738
  0
LINE
  5
18E
100
AcDbEntity
  8
0
  6
CONTINUOUS
 62
    7
370
   25
100
AcDbLine
 10
44.0806514513
 20
-22.2771944738
 11
44.0645767513
 21
-21.9922563738
  0
LINE
  5
18F
100
AcDbEntity
  8
0
  6
CONTINUOUS
 62
    7
370
   25
100
AcDbLine
 10
44.0645767513
 20
-21.9922563738
 11
44.0406840513
 21
-21.7493819738
  0
LINE
  5
190
100
AcDbEntity
  8
0
  6
CONTINUOUS
 62
    7
370
   25
100
AcDbLine
 10
44.0406840513
 20
-21.7493819738
 11
44.0118532513
 21
-21.5445750738
  0
LINE
  5
191
100
AcDbEntity
  8
0
  6
CONTINUOUS
 62
    7
370
   25
100
AcDbLine
 10
44.0118532513
 20
-21.5445750738
 11
43.9700250513
 21
-21.2991393738
  0
LINE
  5
192
100
AcDbEntity
  8
0
  6
CONTINUOUS
 62
    7
370
   25
100
AcDbLine
 10
43.9700250513
 20
-21.2991393738
 11
43.9639643513
 21
-21.2215310738
  0
LINE
  5
193
100
AcDbEntity
  8
0
  6
CONTINUOUS
 62
    7
370
   25
100
AcDbLine
 10
43.9639643513
 20
-21.2215310738
 11
43.9644505513
 21
-21.1531173738
  0
LINE
  5
194
100
AcDbEntity
  8
0
  6
CONTINUOUS
 62
    7
370
   25
100
AcDbLine
 10
43.9644505513
 20
-21.1531173738
 11
43.9711077513
 21
-21.0941403738
  0
LINE
  5
195
100
AcDbEntity
  8
0
  6
CONTINUOUS
 62
    7
370
   25
100
AcDbLine
 10
43.9711077513
 20
-21.0941403738
 11
43.9835225513
 21
-21.0448039738
  0
LINE
  5
196
100
AcDbEntity
  8
0
  6
CONTINUOUS
 62
    7
370
   25
100
AcDbLine
 10
43.9835225513
 20
-21.0448039738
 11
44.0012966513
 21
-21.0053487738
  0
LINE
  5
197
100
AcDbEntity
  8
0
  6
CONTINUOUS
 62
    7
370
   25
100
AcDbLine
 10
44.0012966513
 20
-21.0053487738
 11
44.0240367513
 21
-20.9759485738
  0
LINE
  5
198
100
AcDbEntity
  8
0
  6
CONTINUOUS
 62
    7
370
   25
100
AcDbLine
 10
44.0240367513
 20
-20.9759485738
 11
44.0513068513
 21
-20.9568055738
  0
LINE
  5
199
100
AcDbEntity
  8
0
  6
CONTINUOUS
 62
    7
370
   25
100
AcDbLine
 10
44.0513068513
 20
-20.9568055738
 11
44.5912433513
 21
-20.7410038738
  0
LINE
  5
19A
100
AcDbEntity
  8
0
  6
CONTINUOUS
 62
    7
370
   25
100
AcDbLine
 10
44.5912433513
 20
-20.7410038738
 11
45.1256308513
 21
-20.5118059738
  0
LINE
  5
19B
100
AcDbEntity
  8
0
  6
CONTINUOUS
 62
    7
370
   25
100
AcDbLine
 10
45.1256308513
 20
-20.5118059738
 11
45.1584499513
 21
-20.5060591738
  0
LINE
  5
19C
100
AcDbEntity
  8
0
  6
CONTINUOUS
 62
    7
370
   25
100
AcDbLine
 10
45.1584499513
 20
-20.5060591738
 11
45.1953185513
 21
-20.5107686738
  0
LINE
  5
19D
100
AcDbEntity
  8
0
  6
CONTINUOUS
 62
    7
370
   25
100
AcDbLine
 10
45.1953185513
 20
-20.5107686738
 11
45.2357858513
 21
-20.5260994738
  0
LINE
  5
19E
100
AcDbEntity
  8
0
  6
CONTINUOUS
 62
    7
370
   25
100
AcDbLine
 10
45.2357858513
 20
-20.5260994738
 11
45.2794505513
 21
-20.5522070738
  0
LINE
  5
19F
100
AcDbEntity
  8
0
  6
CONTINUOUS
 62
    7
370
   25
100
AcDbLine
 10
45.2794505513
 20
-20.5522070738
 11
45.3258609513
 21
-20.5892026738
  0
LINE
  5
1A0
100
AcDbEntity
  8
0
  6
CONTINUOUS
 62
    7
370
   25
100
AcDbLine
 10
45.3258609513
 20
-20.5892026738
 11
45.3745805513
 21
-20.6372347738
  0
LINE
  5
1A1
100
AcDbEntity
  8
0
  6
CONTINUOUS
 62
    7
370
   25
100
AcDbLine
 10
45.3745805513
 20
-20.6372347738
 11
45.4251722513
 21
-20.6963975738
  0
LINE
  5
1A2
100
AcDbEntity
  8
0
  6
CONTINUOUS
 62
    7
370
   25
100
AcDbLine
 10
45.4251722513
 20
-20.6963975738
 11
45.5691445513
 21
-20.8995238738
  0
LINE
  5
1A3
100
AcDbEntity
  8
0
  6
CONTINUOUS
 62
    7
370
   25
100
AcDbLine
 10
45.5691445513
 20
-20.8995238738
 11
45.6935784513
 21
-21.0647306738
  0
LINE
  5
1A4
100
AcDbEntity
  8
0
  6
CONTINUOUS
 62
    7
370
   25
100
AcDbLine
 10
45.6935784513
 20
-21.0647306738
 11
45.8484218513
 21
-21.2533635738
  0
LINE
  5
1A5
100
AcDbEntity
  8
0
  6
CONTINUOUS
 62
    7
370
   25
100
AcDbLine
 10
45.8484218513
 20
-21.2533635738
 11
46.0385370513
 21
-21.4662116738
  0
LINE
  5
1A6
100
AcDbEntity
  8
0
  6
CONTINUOUS
 62
    7
370
   25
100
AcDbLine
 10
46.0385370513
 20
-21.4662116738
 11
46.2648432513
 21
-21.6991710738
  0
LINE
  5
1A7
100
AcDbEntity
  8
0
  6
CONTINUOUS
 62
    7
370
   25
100
AcDbLine
 10
46.2648432513
 20
-21.6991710738
 11
46.5299180513
 21
-21.9501022738
  0
LINE
  5
1A8
100
AcDbEntity
  8
0
  6
CONTINUOUS
 62
    7
370
   25
100
AcDbLine
 10
46.5299180513
 20
-21.9501022738
 11
46.8339951513
 21
-22.2147089738
  0
LINE
  5
1A9
100
AcDbEntity
  8
0
  6
CONTINUOUS
 62
    7
370
   25
100
AcDbLine
 10
46.8339951513
 20
-22.2147089738
 11
47.1815717513
 21
-22.4924813738
  0
LINE
  5
1AA
100
AcDbEntity
  8
0
  6
CONTINUOUS
 62
    7
370
   25
100
AcDbLine
 10
47.1815717513
 20
-22.4924813738
 11
47.5263912513
 21
-22.7461544738
  0
ARC
  5
1AB
100
AcDbEntity
  8
0
  6
CONTINUOUS
 62
    7
370
   25
100
AcDbCircle
 10
35.9999965327
 20
0.0001029061
 40
25.49999999999999
100
AcDbArc
 50
296.8730687126
 51
299.3769220393
  0
LINE
  5
1AC
100
AcDbEntity
  8
0
  6
CONTINUOUS
 62
    7
370
   25
100
AcDbLine
 10
48.5090929513
 20
-22.2208895738
 11
48.4897429513
 21
-21.7932492738
  0
LINE
  5
1AD
100
AcDbEntity
  8
0
  6
CONTINUOUS
 62
    7
370
   25
100
AcDbLine
 10
48.4897429513
 20
-21.7932492738
 11
48.4518868513
 21
-21.3499278738
  0
LINE
  5
1AE
100
AcDbEntity
  8
0
  6
CONTINUOUS
 62
    7
370
   25
100
AcDbLine
 10
48.4518868513
 20
-21.3499278738
 11
48.4008105513
 21
-20.9500893738
  0
LINE
  5
1AF
100
AcDbEntity
  8
0
  6
CONTINUOUS
 62
    7
370
   25
100
AcDbLine
 10
48.4008105513
 20
-20.9500893738
 11
48.3394365513
 21
-20.5902777738
  0
LINE
  5
1B0
100
AcDbEntity
  8
0
  6
CONTINUOUS
 62
    7
370
   25
100
AcDbLine
 10
48.3394365513
 20
-20.5902777738
 11
48.2714669513
 21
-20.2726857738
  0
LINE
  5
1B1
100
AcDbEntity
  8
0
  6
CONTINUOUS
 62
    7
370
   25
100
AcDbLine
 10
48.2714669513
 20
-20.2726857738
 11
48.2001124513
 21
-19.9963586738
  0
LINE
  5
1B2
100
AcDbEntity
  8
0
  6
CONTINUOUS
 62
    7
370
   25
100
AcDbLine
 10
48.2001124513
 20
-19.9963586738
 11
48.1292964513
 21
-19.7628123738
  0
LINE
  5
1B3
100
AcDbEntity
  8
0
  6
CONTINUOUS
 62
    7
370
   25
100
AcDbLine
 10
48.1292964513
 20
-19.7628123738
 11
48.0610637513
 21
-19.5675653738
  0
LINE
  5
1B4
100
AcDbEntity
  8
0
  6
CONTINUOUS
 62
    7
370
   25
100
AcDbLine
 10
48.0610637513
 20
-19.5675653738
 11
47.9721571513
 21
-19.3350058738
  0
LINE
  5
1B5
100
AcDbEntity
  8
0
  6
CONTINUOUS
 62
    7
370
   25
100
AcDbLine
 10
47.9721571513
 20
-19.3350058738
 11
47.9510722513
 21
-19.2600712738
  0
LINE
  5
1B6
100
AcDbEntity
  8
0
  6
CONTINUOUS
 62
    7
370
   25
100
AcDbLine
 10
47.9510722513
 20
-19.2600712738
 11
47.9382022513
 21
-19.1928771738
  0
LINE
  5
1B7
100
AcDbEntity
  8
0
  6
CONTINUOUS
 62
    7
370
   25
100
AcDbLine
 10
47.9382022513
 20
-19.1928771738
 11
47.9332257513
 21
-19.1337346738
  0
LINE
  5
1B8
100
AcDbEntity
  8
0
  6
CONTINUOUS
 62
    7
370
   25
100
AcDbLine
 10
47.9332257513
 20
-19.1337346738
 11
47.9357768513
 21
-19.0829242738
  0
LINE
  5
1B9
100
AcDbEntity
  8
0
  6
CONTINUOUS
 62
    7
370
   25
100
AcDbLine
 10
47.9357768513
 20
-19.0829242738
 11
47.9455121513
 21
-19.0407595738
  0
LINE
  5
1BA
100
AcDbEntity
  8
0
  6
CONTINUOUS
 62
    7
370
   25
100
AcDbLine
 10
47.9455121513
 20
-19.0407595738
 11
47.9620795513
 21
-19.0074879738
  0
LINE
  5
1BB
100
AcDbEntity
  8
0
  6
CONTINUOUS
 62
    7
370
   25
100
AcDbLine
 10
47.9620795513
 20
-19.0074879738
 11
47.9850910513
 21
-18.9833926738
  0
LINE
  5
1BC
100
AcDbEntity
  8
0
  6
CONTINUOUS
 62
    7
370
   25
100
AcDbLine
 10
47.9850910513
 20
-18.9833926738
 11
48.4725519513
 21
-18.6664011738
  0
LINE
  5
1BD
100
AcDbEntity
  8
0
  6
CONTINUOUS
 62
    7
370
   25
100
AcDbLine
 10
48.4725519513
 20
-18.6664011738
 11
48.9519571513
 21
-18.3373533738
  0
LINE
  5
1BE
100
AcDbEntity
  8
0
  6
CONTINUOUS
 62
    7
370
   25
100
AcDbLine
 10
48.9519571513
 20
-18.3373533738
 11
48.9830244513
 21
-18.3253143738
  0
LINE
  5
1BF
100
AcDbEntity
  8
0
  6
CONTINUOUS
 62
    7
370
   25
100
AcDbLine
 10
48.9830244513
 20
-18.3253143738
 11
49.0201034513
 21
-18.3227405738
  0
LINE
  5
1C0
100
AcDbEntity
  8
0
  6
CONTINUOUS
 62
    7
370
   25
100
AcDbLine
 10
49.0201034513
 20
-18.3227405738
 11
49.0627840513
 21
-18.3298820738
  0
LINE
  5
1C1
100
AcDbEntity
  8
0
  6
CONTINUOUS
 62
    7
370
   25
100
AcDbLine
 10
49.0627840513
 20
-18.3298820738
 11
49.1107030513
 21
-18.3469694738
  0
LINE
  5
1C2
100
AcDbEntity
  8
0
  6
CONTINUOUS
 62
    7
370
   25
100
AcDbLine
 10
49.1107030513
 20
-18.3469694738
 11
49.1634392513
 21
-18.3741999738
  0
LINE
  5
1C3
100
AcDbEntity
  8
0
  6
CONTINUOUS
 62
    7
370
   25
100
AcDbLine
 10
49.1634392513
 20
-18.3741999738
 11
49.2205932513
 21
-18.4118043738
  0
LINE
  5
1C4
100
AcDbEntity
  8
0
  6
CONTINUOUS
 62
    7
370
   25
100
AcDbLine
 10
49.2205932513
 20
-18.4118043738
 11
49.2817550513
 21
-18.4599605738
  0
LINE
  5
1C5
100
AcDbEntity
  8
0
  6
CONTINUOUS
 62
    7
370
   25
100
AcDbLine
 10
49.2817550513
 20
-18.4599605738
 11
49.4625888513
 21
-18.6310961738
  0
LINE
  5
1C6
100
AcDbEntity
  8
0
  6
CONTINUOUS
 62
    7
370
   25
100
AcDbLine
 10
49.4625888513
 20
-18.6310961738
 11
49.6168620513
 21
-18.7688527738
  0
LINE
  5
1C7
100
AcDbEntity
  8
0
  6
CONTINUOUS
 62
    7
370
   25
100
AcDbLine
 10
49.6168620513
 20
-18.7688527738
 11
49.8055306513
 21
-18.9236525738
  0
LINE
  5
1C8
100
AcDbEntity
  8
0
  6
CONTINUOUS
 62
    7
370
   25
100
AcDbLine
 10
49.8055306513
 20
-18.9236525738
 11
50.0335173513
 21
-19.0953213738
  0
LINE
  5
1C9
100
AcDbEntity
  8
0
  6
CONTINUOUS
 62
    7
370
   25
100
AcDbLine
 10
50.0335173513
 20
-19.0953213738
 11
50.3009232513
 21
-19.2796542738
  0
LINE
  5
1CA
100
AcDbEntity
  8
0
  6
CONTINUOUS
 62
    7
370
   25
100
AcDbLine
 10
50.3009232513
 20
-19.2796542738
 11
50.6098590513
 21
-19.4740503738
  0
LINE
  5
1CB
100
AcDbEntity
  8
0
  6
CONTINUOUS
 62
    7
370
   25
100
AcDbLine
 10
50.6098590513
 20
-19.4740503738
 11
50.9597156513
 21
-19.6742502738
  0
LINE
  5
1CC
100
AcDbEntity
  8
0
  6
CONTINUOUS
 62
    7
370
   25
100
AcDbLine
 10
50.9597156513
 20
-19.6742502738
 11
51.3548042513
 21
-19.8788764738
  0
LINE
  5
1CD
100
AcDbEntity
  8
0
  6
CONTINUOUS
 62
    7
370
   25
100
AcDbLine
 10
51.3548042513
 20
-19.8788764738
 11
51.7424873513
 21
-20.0604044738
  0
ARC
  5
1CE
100
AcDbEntity
  8
0
  6
CONTINUOUS
 62
    7
370
   25
100
AcDbCircle
 10
36.0000002469
 20
9.16319e-05
 40
25.49998831840257
100
AcDbArc
 50
308.1230726058
 51
310.6269273206
  0
LINE
  5
1CF
100
AcDbEntity
  8
0
  6
CONTINUOUS
 62
    7
370
   25
100
AcDbLine
 10
52.6038326415
 20
-19.3535166635
 11
52.5014259415
 21
-18.9378684635
  0
LINE
  5
1D0
100
AcDbEntity
  8
0
  6
CONTINUOUS
 62
    7
370
   25
100
AcDbLine
 10
52.5014259415
 20
-18.9378684635
 11
52.3778095415
 21
-18.5104506635
  0
LINE
  5
1D1
100
AcDbEntity
  8
0
  6
CONTINUOUS
 62
    7
370
   25
100
AcDbLine
 10
52.3778095415
 20
-18.5104506635
 11
52.2497100415
 21
-18.1282594635
  0
LINE
  5
1D2
100
AcDbEntity
  8
0
  6
CONTINUOUS
 62
    7
370
   25
100
AcDbLine
 10
52.2497100415
 20
-18.1282594635
 11
52.1193195415
 21
-17.7873349635
  0
LINE
  5
1D3
100
AcDbEntity
  8
0
  6
CONTINUOUS
 62
    7
370
   25
100
AcDbLine
 10
52.1193195415
 20
-17.7873349635
 11
51.9906968415
 21
-17.4891056635
  0
LINE
  5
1D4
100
AcDbEntity
  8
0
  6
CONTINUOUS
 62
    7
370
   25
100
AcDbLine
 10
51.9906968415
 20
-17.4891056635
 11
51.8668046415
 21
-17.2320086635
  0
LINE
  5
1D5
100
AcDbEntity
  8
0
  6
CONTINUOUS
 62
    7
370
   25
100
AcDbLine
 10
51.8668046415
 20
-17.2320086635
 11
51.7517866415
 21
-17.0167653635
  0
LINE
  5
1D6
100
AcDbEntity
  8
0
  6
CONTINUOUS
 62
    7
370
   25
100
AcDbLine
 10
51.7517866415
 20
-17.0167653635
 11
51.6467742415
 21
-16.8385815635
  0
LINE
  5
1D7
100
AcDbEntity
  8
0
  6
CONTINUOUS
 62
    7
370
   25
100
AcDbLine
 10
51.6467742415
 20
-16.8385815635
 11
51.5142058415
 21
-16.6278354635
  0
LINE
  5
1D8
100
AcDbEntity
  8
0
  6
CONTINUOUS
 62
    7
370
   25
100
AcDbLine
 10
51.5142058415
 20
-16.6278354635
 11
51.4789071415
 21
-16.5584541635
  0
LINE
  5
1D9
100
AcDbEntity
  8
0
  6
CONTINUOUS
 62
    7
370
   25
100
AcDbLine
 10
51.4789071415
 20
-16.5584541635
 11
51.4531754415
 21
-16.4950619635
  0
LINE
  5
1DA
100
AcDbEntity
  8
0
  6
CONTINUOUS
 62
    7
370
   25
100
AcDbLine
 10
51.4531754415
 20
-16.4950619635
 11
51.4367564415
 21
-16.4380267635
  0
LINE
  5
1DB
100
AcDbEntity
  8
0
  6
CONTINUOUS
 62
    7
370
   25
100
AcDbLine
 10
51.4367564415
 20
-16.4380267635
 11
51.4293459415
 21
-16.3876949635
  0
LINE
  5
1DC
100
AcDbEntity
  8
0
  6
CONTINUOUS
 62
    7
370
   25
100
AcDbLine
 10
51.4293459415
 20
-16.3876949635
 11
51.4306682415
 21
-16.3444411635
  0
LINE
  5
1DD
100
AcDbEntity
  8
0
  6
CONTINUOUS
 62
    7
370
   25
100
AcDbLine
 10
51.4306682415
 20
-16.3444411635
 11
51.4404263415
 21
-16.3085767635
  0
LINE
  5
1DE
100
AcDbEntity
  8
0
  6
CONTINUOUS
 62
    7
370
   25
100
AcDbLine
 10
51.4404263415
 20
-16.3085767635
 11
51.4582949415
 21
-16.2804550635
  0
LINE
  5
1DF
100
AcDbEntity
  8
0
  6
CONTINUOUS
 62
    7
370
   25
100
AcDbLine
 10
51.4582949415
 20
-16.2804550635
 11
51.8745474415
 21
-15.8744555635
  0
LINE
  5
1E0
100
AcDbEntity
  8
0
  6
CONTINUOUS
 62
    7
370
   25
100
AcDbLine
 10
51.8745474415
 20
-15.8744555635
 11
52.2805469415
 21
-15.4582030635
  0
LINE
  5
1E1
100
AcDbEntity
  8
0
  6
CONTINUOUS
 62
    7
370
   25
100
AcDbLine
 10
52.2805469415
 20
-15.4582030635
 11
52.3086686415
 21
-15.4403344635
  0
LINE
  5
1E2
100
AcDbEntity
  8
0
  6
CONTINUOUS
 62
    7
370
   25
100
AcDbLine
 10
52.3086686415
 20
-15.4403344635
 11
52.3445330415
 21
-15.4305763635
  0
LINE
  5
1E3
100
AcDbEntity
  8
0
  6
CONTINUOUS
 62
    7
370
   25
100
AcDbLine
 10
52.3445330415
 20
-15.4305763635
 11
52.3877868415
 21
-15.4292540635
  0
LINE
  5
1E4
100
AcDbEntity
  8
0
  6
CONTINUOUS
 62
    7
370
   25
100
AcDbLine
 10
52.3877868415
 20
-15.4292540635
 11
52.4381186415
 21
-15.4366645635
  0
LINE
  5
1E5
100
AcDbEntity
  8
0
  6
CONTINUOUS
 62
    7
370
   25
100
AcDbLine
 10
52.4381186415
 20
-15.4366645635
 11
52.4951538415
 21
-15.4530835635
  0
LINE
  5
1E6
100
AcDbEntity
  8
0
  6
CONTINUOUS
 62
    7
370
   25
100
AcDbLine
 10
52.4951538415
 20
-15.4530835635
 11
52.5585460415
 21
-15.4788152635
  0
LINE
  5
1E7
100
AcDbEntity
  8
0
  6
CONTINUOUS
 62
    7
370
   25
100
AcDbLine
 10
52.5585460415
 20
-15.4788152635
 11
52.6279273415
 21
-15.5141139635
  0
LINE
  5
1E8
100
AcDbEntity
  8
0
  6
CONTINUOUS
 62
    7
370
   25
100
AcDbLine
 10
52.6279273415
 20
-15.5141139635
 11
52.8386734415
 21
-15.6466823635
  0
LINE
  5
1E9
100
AcDbEntity
  8
0
  6
CONTINUOUS
 62
    7
370
   25
100
AcDbLine
 10
52.8386734415
 20
-15.6466823635
 11
53.0168572415
 21
-15.7516947635
  0
LINE
  5
1EA
100
AcDbEntity
  8
0
  6
CONTINUOUS
 62
    7
370
   25
100
AcDbLine
 10
53.0168572415
 20
-15.7516947635
 11
53.2321005415
 21
-15.8667127635
  0
LINE
  5
1EB
100
AcDbEntity
  8
0
  6
CONTINUOUS
 62
    7
370
   25
100
AcDbLine
 10
53.2321005415
 20
-15.8667127635
 11
53.4891975415
 21
-15.9906049635
  0
LINE
  5
1EC
100
AcDbEntity
  8
0
  6
CONTINUOUS
 62
    7
370
   25
100
AcDbLine
 10
53.4891975415
 20
-15.9906049635
 11
53.7874268415
 21
-16.1192276635
  0
LINE
  5
1ED
100
AcDbEntity
  8
0
  6
CONTINUOUS
 62
    7
370
   25
100
AcDbLine
 10
53.7874268415
 20
-16.1192276635
 11
54.1283513415
 21
-16.2496181635
  0
LINE
  5
1EE
100
AcDbEntity
  8
0
  6
CONTINUOUS
 62
    7
370
   25
100
AcDbLine
 10
54.1283513415
 20
-16.2496181635
 11
54.5105425415
 21
-16.3777176635
  0
LINE
  5
1EF
100
AcDbEntity
  8
0
  6
CONTINUOUS
 62
    7
370
   25
100
AcDbLine
 10
54.5105425415
 20
-16.3777176635
 11
54.9379603415
 21
-16.5013340635
  0
LINE
  5
1F0
100
AcDbEntity
  8
0
  6
CONTINUOUS
 62
    7
370
   25
100
AcDbLine
 10
54.9379603415
 20
-16.5013340635
 11
55.3536085415
 21
-16.6037407635
  0
ARC
  5
1F1
100
AcDbEntity
  8
0
  6
CONTINUOUS
 62
    7
370
   25
100
AcDbCircle
 10
36.0000002469
 20
9.16319e-05
 40
25.49998831831989
100
AcDbArc
 50
319.373072677
 51
321.8769273942
  0
LINE
  5
1F2
100
AcDbEntity
  8
0
  6
CONTINUOUS
 62
    7
370
   25
100
AcDbLine
 10
56.0604963525
 20
-15.7423954725
 11
55.8789683525
 21
-15.3547123725
  0
LINE
  5
1F3
100
AcDbEntity
  8
0
  6
CONTINUOUS
 62
    7
370
   25
100
AcDbLine
 10
55.8789683525
 20
-15.3547123725
 11
55.6743421525
 21
-14.9596237725
  0
LINE
  5
1F4
100
AcDbEntity
  8
0
  6
CONTINUOUS
 62
    7
370
   25
100
AcDbLine
 10
55.6743421525
 20
-14.9596237725
 11
55.4741422525
 21
-14.6097671725
  0
LINE
  5
1F5
100
AcDbEntity
  8
0
  6
CONTINUOUS
 62
    7
370
   25
100
AcDbLine
 10
55.4741422525
 20
-14.6097671725
 11
55.2797461525
 21
-14.3008313725
  0
LINE
  5
1F6
100
AcDbEntity
  8
0
  6
CONTINUOUS
 62
    7
370
   25
100
AcDbLine
 10
55.2797461525
 20
-14.3008313725
 11
55.0954132525
 21
-14.0334254725
  0
LINE
  5
1F7
100
AcDbEntity
  8
0
  6
CONTINUOUS
 62
    7
370
   25
100
AcDbLine
 10
55.0954132525
 20
-14.0334254725
 11
54.9237444525
 21
-13.8054387725
  0
LINE
  5
1F8
100
AcDbEntity
  8
0
  6
CONTINUOUS
 62
    7
370
   25
100
AcDbLine
 10
54.9237444525
 20
-13.8054387725
 11
54.7689446525
 21
-13.6167701725
  0
LINE
  5
1F9
100
AcDbEntity
  8
0
  6
CONTINUOUS
 62
    7
370
   25
100
AcDbLine
 10
54.7689446525
 20
-13.6167701725
 11
54.6311880525
 21
-13.4624969725
  0
LINE
  5
1FA
100
AcDbEntity
  8
0
  6
CONTINUOUS
 62
    7
370
   25
100
AcDbLine
 10
54.6311880525
 20
-13.4624969725
 11
54.4600524525
 21
-13.2816631725
  0
LINE
  5
1FB
100
AcDbEntity
  8
0
  6
CONTINUOUS
 62
    7
370
   25
100
AcDbLine
 10
54.4600524525
 20
-13.2816631725
 11
54.4118962525
 21
-13.2205013725
  0
LINE
  5
1FC
100
AcDbEntity
  8
0
  6
CONTINUOUS
 62
    7
370
   25
100
AcDbLine
 10
54.4118962525
 20
-13.2205013725
 11
54.3742918525
 21
-13.1633473725
  0
LINE
  5
1FD
100
AcDbEntity
  8
0
  6
CONTINUOUS
 62
    7
370
   25
100
AcDbLine
 10
54.3742918525
 20
-13.1633473725
 11
54.3470613525
 21
-13.1106111725
  0
LINE
  5
1FE
100
AcDbEntity
  8
0
  6
CONTINUOUS
 62
    7
370
   25
100
AcDbLine
 10
54.3470613525
 20
-13.1106111725
 11
54.3299739525
 21
-13.0626921725
  0
LINE
  5
1FF
100
AcDbEntity
  8
0
  6
CONTINUOUS
 62
    7
370
   25
100
AcDbLine
 10
54.3299739525
 20
-13.0626921725
 11
54.3228324525
 21
-13.0200115725
  0
LINE
  5
200
100
AcDbEntity
  8
0
  6
CONTINUOUS
 62
    7
370
   25
100
AcDbLine
 10
54.3228324525
 20
-13.0200115725
 11
54.3254062525
 21
-12.9829325725
  0
LINE
  5
201
100
AcDbEntity
  8
0
  6
CONTINUOUS
 62
    7
370
   25
100
AcDbLine
 10
54.3254062525
 20
-12.9829325725
 11
54.3374452525
 21
-12.9518652725
  0
LINE
  5
202
100
AcDbEntity
  8
0
  6
CONTINUOUS
 62
    7
370
   25
100
AcDbLine
 10
54.3374452525
 20
-12.9518652725
 11
54.6664930525
 21
-12.4724600725
  0
LINE
  5
203
100
AcDbEntity
  8
0
  6
CONTINUOUS
 62
    7
370
   25
100
AcDbLine
 10
54.6664930525
 20
-12.4724600725
 11
54.9834845525
 21
-11.9849991725
  0
LINE
  5
204
100
AcDbEntity
  8
0
  6
CONTINUOUS
 62
    7
370
   25
100
AcDbLine
 10
54.9834845525
 20
-11.9849991725
 11
55.0075798525
 21
-11.9619876725
  0
LINE
  5
205
100
AcDbEntity
  8
0
  6
CONTINUOUS
 62
    7
370
   25
100
AcDbLine
 10
55.0075798525
 20
-11.9619876725
 11
55.0408514525
 21
-11.9454202725
  0
LINE
  5
206
100
AcDbEntity
  8
0
  6
CONTINUOUS
 62
    7
370
   25
100
AcDbLine
 10
55.0408514525
 20
-11.9454202725
 11
55.0830161525
 21
-11.9356849725
  0
LINE
  5
207
100
AcDbEntity
  8
0
  6
CONTINUOUS
 62
    7
370
   25
100
AcDbLine
 10
55.0830161525
 20
-11.9356849725
 11
55.1338265525
 21
-11.9331338725
  0
LINE
  5
208
100
AcDbEntity
  8
0
  6
CONTINUOUS
 62
    7
370
   25
100
AcDbLine
 10
55.1338265525
 20
-11.9331338725
 11
55.1929690525
 21
-11.9381103725
  0
LINE
  5
209
100
AcDbEntity
  8
0
  6
CONTINUOUS
 62
    7
370
   25
100
AcDbLine
 10
55.1929690525
 20
-11.9381103725
 11
55.2601631525
 21
-11.9509803725
  0
LINE
  5
20A
100
AcDbEntity
  8
0
  6
CONTINUOUS
 62
    7
370
   25
100
AcDbLine
 10
55.2601631525
 20
-11.9509803725
 11
55.3350977525
 21
-11.9720652725
  0
LINE
  5
20B
100
AcDbEntity
  8
0
  6
CONTINUOUS
 62
    7
370
   25
100
AcDbLine
 10
55.3350977525
 20
-11.9720652725
 11
55.5676572525
 21
-12.0609718725
  0
LINE
  5
20C
100
AcDbEntity
  8
0
  6
CONTINUOUS
 62
    7
370
   25
100
AcDbLine
 10
55.5676572525
 20
-12.0609718725
 11
55.7629042525
 21
-12.1292045725
  0
LINE
  5
20D
100
AcDbEntity
  8
0
  6
CONTINUOUS
 62
    7
370
   25
100
AcDbLine
 10
55.7629042525
 20
-12.1292045725
 11
55.9964505525
 21
-12.2000205725
  0
LINE
  5
20E
100
AcDbEntity
  8
0
  6
CONTINUOUS
 62
    7
370
   25
100
AcDbLine
 10
55.9964505525
 20
-12.2000205725
 11
56.2727776525
 21
-12.2713750725
  0
LINE
  5
20F
100
AcDbEntity
  8
0
  6
CONTINUOUS
 62
    7
370
   25
100
AcDbLine
 10
56.2727776525
 20
-12.2713750725
 11
56.5903696525
 21
-12.3393446725
  0
LINE
  5
210
100
AcDbEntity
  8
0
  6
CONTINUOUS
 62
    7
370
   25
100
AcDbLine
 10
56.5903696525
 20
-12.3393446725
 11
56.9501812525
 21
-12.4007186725
  0
LINE
  5
211
100
AcDbEntity
  8
0
  6
CONTINUOUS
 62
    7
370
   25
100
AcDbLine
 10
56.9501812525
 20
-12.4007186725
 11
57.3500197525
 21
-12.4517949725
  0
LINE
  5
212
100
AcDbEntity
  8
0
  6
CONTINUOUS
 62
    7
370
   25
100
AcDbLine
 10
57.3500197525
 20
-12.4517949725
 11
57.7933411525
 21
-12.4896510725
  0
LINE
  5
213
100
AcDbEntity
  8
0
  6
CONTINUOUS
 62
    7
370
   25
100
AcDbLine
 10
57.7933411525
 20
-12.4896510725
 11
58.2209814525
 21
-12.5090010725
  0
ARC
  5
214
100
AcDbEntity
  8
0
  6
CONTINUOUS
 62
    7
370
   25
100
AcDbCircle
 10
35.9999888477
 20
8.797920000000001e-05
 40
25.49999649497245
100
AcDbArc
 50
330.6230925225
 51
333.1269461934
  0
LINE
  5
215
100
AcDbEntity
  8
0
  6
CONTINUOUS
 62
    7
370
   25
100
AcDbLine
 10
58.7462460998
 20
-11.5262992374
 11
58.4925729998
 21
-11.1814797374
  0
LINE
  5
216
100
AcDbEntity
  8
0
  6
CONTINUOUS
 62
    7
370
   25
100
AcDbLine
 10
58.4925729998
 20
-11.1814797374
 11
58.2148005998
 21
-10.8339031374
  0
LINE
  5
217
100
AcDbEntity
  8
0
  6
CONTINUOUS
 62
    7
370
   25
100
AcDbLine
 10
58.2148005998
 20
-10.8339031374
 11
57.9501938998
 21
-10.5298260374
  0
LINE
  5
218
100
AcDbEntity
  8
0
  6
CONTINUOUS
 62
    7
370
   25
100
AcDbLine
 10
57.9501938998
 20
-10.5298260374
 11
57.6992626998
 21
-10.2647512374
  0
LINE
  5
219
100
AcDbEntity
  8
0
  6
CONTINUOUS
 62
    7
370
   25
100
AcDbLine
 10
57.6992626998
 20
-10.2647512374
 11
57.4663032998
 21
-10.0384450374
  0
LINE
  5
21A
100
AcDbEntity
  8
0
  6
CONTINUOUS
 62
    7
370
   25
100
AcDbLine
 10
57.4663032998
 20
-10.0384450374
 11
57.2534551998
 21
-9.8483298374
  0
LINE
  5
21B
100
AcDbEntity
  8
0
  6
CONTINUOUS
 62
    7
370
   25
100
AcDbLine
 10
57.2534551998
 20
-9.8483298374
 11
57.0648222998
 21
-9.693486437400001
  0
LINE
  5
21C
100
AcDbEntity
  8
0
  6
CONTINUOUS
 62
    7
370
   25
100
AcDbLine
 10
57.0648222998
 20
-9.693486437400001
 11
56.8996154998
 21
-9.569052537399999
  0
LINE
  5
21D
100
AcDbEntity
  8
0
  6
CONTINUOUS
 62
    7
370
   25
100
AcDbLine
 10
56.8996154998
 20
-9.569052537399999
 11
56.6964891998
 21
-9.4250802374
  0
LINE
  5
21E
100
AcDbEntity
  8
0
  6
CONTINUOUS
 62
    7
370
   25
100
AcDbLine
 10
56.6964891998
 20
-9.4250802374
 11
56.6373263998
 21
-9.3744885374
  0
LINE
  5
21F
100
AcDbEntity
  8
0
  6
CONTINUOUS
 62
    7
370
   25
100
AcDbLine
 10
56.6373263998
 20
-9.3744885374
 11
56.5892942998
 21
-9.325768937399999
  0
LINE
  5
220
100
AcDbEntity
  8
0
  6
CONTINUOUS
 62
    7
370
   25
100
AcDbLine
 10
56.5892942998
 20
-9.325768937399999
 11
56.5522986998
 21
-9.2793585374
  0
LINE
  5
221
100
AcDbEntity
  8
0
  6
CONTINUOUS
 62
    7
370
   25
100
AcDbLine
 10
56.5522986998
 20
-9.2793585374
 11
56.5261910998
 21
-9.235693837399999
  0
LINE
  5
222
100
AcDbEntity
  8
0
  6
CONTINUOUS
 62
    7
370
   25
100
AcDbLine
 10
56.5261910998
 20
-9.235693837399999
 11
56.5108602998
 21
-9.1952265374
  0
LINE
  5
223
100
AcDbEntity
  8
0
  6
CONTINUOUS
 62
    7
370
   25
100
AcDbLine
 10
56.5108602998
 20
-9.1952265374
 11
56.5061507998
 21
-9.1583579374
  0
LINE
  5
224
100
AcDbEntity
  8
0
  6
CONTINUOUS
 62
    7
370
   25
100
AcDbLine
 10
56.5061507998
 20
-9.1583579374
 11
56.5118975998
 21
-9.125538837400001
  0
LINE
  5
225
100
AcDbEntity
  8
0
  6
CONTINUOUS
 62
    7
370
   25
100
AcDbLine
 10
56.5118975998
 20
-9.125538837400001
 11
56.7410954998
 21
-8.591151337399999
  0
LINE
  5
226
100
AcDbEntity
  8
0
  6
CONTINUOUS
 62
    7
370
   25
100
AcDbLine
 10
56.7410954998
 20
-8.591151337399999
 11
56.9568971998
 21
-8.0512148374
  0
LINE
  5
227
100
AcDbEntity
  8
0
  6
CONTINUOUS
 62
    7
370
   25
100
AcDbLine
 10
56.9568971998
 20
-8.0512148374
 11
56.9760401998
 21
-8.023944737400001
  0
LINE
  5
228
100
AcDbEntity
  8
0
  6
CONTINUOUS
 62
    7
370
   25
100
AcDbLine
 10
56.9760401998
 20
-8.023944737400001
 11
57.0054403998
 21
-8.001204637400001
  0
LINE
  5
229
100
AcDbEntity
  8
0
  6
CONTINUOUS
 62
    7
370
   25
100
AcDbLine
 10
57.0054403998
 20
-8.001204637400001
 11
57.0448955998
 21
-7.9834305374
  0
LINE
  5
22A
100
AcDbEntity
  8
0
  6
CONTINUOUS
 62
    7
370
   25
100
AcDbLine
 10
57.0448955998
 20
-7.9834305374
 11
57.0942319998
 21
-7.9710157374
  0
LINE
  5
22B
100
AcDbEntity
  8
0
  6
CONTINUOUS
 62
    7
370
   25
100
AcDbLine
 10
57.0942319998
 20
-7.9710157374
 11
57.1532089998
 21
-7.9643585374
  0
LINE
  5
22C
100
AcDbEntity
  8
0
  6
CONTINUOUS
 62
    7
370
   25
100
AcDbLine
 10
57.1532089998
 20
-7.9643585374
 11
57.2216226998
 21
-7.9638723374
  0
LINE
  5
22D
100
AcDbEntity
  8
0
  6
CONTINUOUS
 62
    7
370
   25
100
AcDbLine
 10
57.2216226998
 20
-7.9638723374
 11
57.2992309998
 21
-7.9699330374
  0
LINE
  5
22E
100
AcDbEntity
  8
0
  6
CONTINUOUS
 62
    7
370
   25
100
AcDbLine
 10
57.2992309998
 20
-7.9699330374
 11
57.5446666998
 21
-8.0117612374
  0
LINE
  5
22F
100
AcDbEntity
  8
0
  6
CONTINUOUS
 62
    7
370
   25
100
AcDbLine
 10
57.5446666998
 20
-8.0117612374
 11
57.7494735998
 21
-8.0405920374
  0
LINE
  5
230
100
AcDbEntity
  8
0
  6
CONTINUOUS
 62
    7
370
   25
100
AcDbLine
 10
57.7494735998
 20
-8.0405920374
 11
57.9923479998
 21
-8.064484737400001
  0
LINE
  5
231
100
AcDbEntity
  8
0
  6
CONTINUOUS
 62
    7
370
   25
100
AcDbLine
 10
57.9923479998
 20
-8.064484737400001
 11
58.2772860998
 21
-8.0805594374
  0
LINE
  5
232
100
AcDbEntity
  8
0
  6
CONTINUOUS
 62
    7
370
   25
100
AcDbLine
 10
58.2772860998
 20
-8.0805594374
 11
58.6020358998
 21
-8.085263937400001
  0
LINE
  5
233
100
AcDbEntity
  8
0
  6
CONTINUOUS
 62
    7
370
   25
100
AcDbLine
 10
58.6020358998
 20
-8.085263937400001
 11
58.9669072998
 21
-8.0752629374
  0
LINE
  5
234
100
AcDbEntity
  8
0
  6
CONTINUOUS
 62
    7
370
   25
100
AcDbLine
 10
58.9669072998
 20
-8.0752629374
 11
59.3690274998
 21
-8.0473531374
  0
LINE
  5
235
100
AcDbEntity
  8
0
  6
CONTINUOUS
 62
    7
370
   25
100
AcDbLine
 10
59.3690274998
 20
-8.0473531374
 11
59.8112158998
 21
-7.9979941374
  0
LINE
  5
236
100
AcDbEntity
  8
0
  6
CONTINUOUS
 62
    7
370
   25
100
AcDbLine
 10
59.8112158998
 20
-7.9979941374
 11
60.2344141998
 21
-7.9335438374
  0
ARC
  5
237
100
AcDbEntity
  8
0
  6
CONTINUOUS
 62
    7
370
   25
100
AcDbCircle
 10
35.9999888477
 20
8.797920000000001e-05
 40
25.49999776363456
100
AcDbArc
 50
341.8730887125
 51
344.3769420592
  0
LINE
  5
238
100
AcDbEntity
  8
0
  6
CONTINUOUS
 62
    7
370
   25
100
AcDbLine
 10
60.5578704649
 20
-6.8672504008
 11
60.2418006649
 21
-6.5785456008
  0
LINE
  5
239
100
AcDbEntity
  8
0
  6
CONTINUOUS
 62
    7
370
   25
100
AcDbLine
 10
60.2418006649
 20
-6.5785456008
 11
59.9015567649
 21
-6.2918383008
  0
LINE
  5
23A
100
AcDbEntity
  8
0
  6
CONTINUOUS
 62
    7
370
   25
100
AcDbLine
 10
59.9015567649
 20
-6.2918383008
 11
59.5827119649
 21
-6.0452262008
  0
LINE
  5
23B
100
AcDbEntity
  8
0
  6
CONTINUOUS
 62
    7
370
   25
100
AcDbLine
 10
59.5827119649
 20
-6.0452262008
 11
59.2848887649
 21
-5.8341989008
  0
LINE
  5
23C
100
AcDbEntity
  8
0
  6
CONTINUOUS
 62
    7
370
   25
100
AcDbLine
 10
59.2848887649
 20
-5.8341989008
 11
59.0122554649
 21
-5.6576893008
  0
LINE
  5
23D
100
AcDbEntity
  8
0
  6
CONTINUOUS
 62
    7
370
   25
100
AcDbLine
 10
59.0122554649
 20
-5.6576893008
 11
58.7664074649
 21
-5.5127518008
  0
LINE
  5
23E
100
AcDbEntity
  8
0
  6
CONTINUOUS
 62
    7
370
   25
100
AcDbLine
 10
58.7664074649
 20
-5.5127518008
 11
58.5511907649
 21
-5.3976841008
  0
LINE
  5
23F
100
AcDbEntity
  8
0
  6
CONTINUOUS
 62
    7
370
   25
100
AcDbLine
 10
58.5511907649
 20
-5.3976841008
 11
58.3648824649
 21
-5.3078714008
  0
LINE
  5
240
100
AcDbEntity
  8
0
  6
CONTINUOUS
 62
    7
370
   25
100
AcDbLine
 10
58.3648824649
 20
-5.3078714008
 11
58.1375716649
 21
-5.2062935008
  0
LINE
  5
241
100
AcDbEntity
  8
0
  6
CONTINUOUS
 62
    7
370
   25
100
AcDbLine
 10
58.1375716649
 20
-5.2062935008
 11
58.0696755649
 21
-5.1682159008
  0
LINE
  5
242
100
AcDbEntity
  8
0
  6
CONTINUOUS
 62
    7
370
   25
100
AcDbLine
 10
58.0696755649
 20
-5.1682159008
 11
58.0130617649
 21
-5.1298030008
  0
LINE
  5
243
100
AcDbEntity
  8
0
  6
CONTINUOUS
 62
    7
370
   25
100
AcDbLine
 10
58.0130617649
 20
-5.1298030008
 11
57.9677227649
 21
-5.0915019008
  0
LINE
  5
244
100
AcDbEntity
  8
0
  6
CONTINUOUS
 62
    7
370
   25
100
AcDbLine
 10
57.9677227649
 20
-5.0915019008
 11
57.9335982649
 21
-5.0537695008
  0
LINE
  5
245
100
AcDbEntity
  8
0
  6
CONTINUOUS
 62
    7
370
   25
100
AcDbLine
 10
57.9335982649
 20
-5.0537695008
 11
57.9106672649
 21
-5.0170707008
  0
LINE
  5
246
100
AcDbEntity
  8
0
  6
CONTINUOUS
 62
    7
370
   25
100
AcDbLine
 10
57.9106672649
 20
-5.0170707008
 11
57.8988555649
 21
-4.9818292008
  0
LINE
  5
247
100
AcDbEntity
  8
0
  6
CONTINUOUS
 62
    7
370
   25
100
AcDbLine
 10
57.8988555649
 20
-4.9818292008
 11
57.8980891649
 21
-4.9485197008
  0
LINE
  5
248
100
AcDbEntity
  8
0
  6
CONTINUOUS
 62
    7
370
   25
100
AcDbLine
 10
57.8980891649
 20
-4.9485197008
 11
58.0186292649
 21
-4.3796859008
  0
LINE
  5
249
100
AcDbEntity
  8
0
  6
CONTINUOUS
 62
    7
370
   25
100
AcDbLine
 10
58.0186292649
 20
-4.3796859008
 11
58.1249480649
 21
-3.8080233008
  0
LINE
  5
24A
100
AcDbEntity
  8
0
  6
CONTINUOUS
 62
    7
370
   25
100
AcDbLine
 10
58.1249480649
 20
-3.8080233008
 11
58.1384030649
 21
-3.7775426008
  0
LINE
  5
24B
100
AcDbEntity
  8
0
  6
CONTINUOUS
 62
    7
370
   25
100
AcDbLine
 10
58.1384030649
 20
-3.7775426008
 11
58.1628019649
 21
-3.7495038008
  0
LINE
  5
24C
100
AcDbEntity
  8
0
  6
CONTINUOUS
 62
    7
370
   25
100
AcDbLine
 10
58.1628019649
 20
-3.7495038008
 11
58.1980314649
 21
-3.7243739008
  0
LINE
  5
24D
100
AcDbEntity
  8
0
  6
CONTINUOUS
 62
    7
370
   25
100
AcDbLine
 10
58.1980314649
 20
-3.7243739008
 11
58.2439979649
 21
-3.7025726008
  0
LINE
  5
24E
100
AcDbEntity
  8
0
  6
CONTINUOUS
 62
    7
370
   25
100
AcDbLine
 10
58.2439979649
 20
-3.7025726008
 11
58.3005429649
 21
-3.6845375008
  0
LINE
  5
24F
100
AcDbEntity
  8
0
  6
CONTINUOUS
 62
    7
370
   25
100
AcDbLine
 10
58.3005429649
 20
-3.6845375008
 11
58.3675472649
 21
-3.6707137008
  0
LINE
  5
250
100
AcDbEntity
  8
0
  6
CONTINUOUS
 62
    7
370
   25
100
AcDbLine
 10
58.3675472649
 20
-3.6707137008
 11
58.4448466649
 21
-3.6615174008
  0
LINE
  5
251
100
AcDbEntity
  8
0
  6
CONTINUOUS
 62
    7
370
   25
100
AcDbLine
 10
58.4448466649
 20
-3.6615174008
 11
58.6937266649
 21
-3.6546597008
  0
LINE
  5
252
100
AcDbEntity
  8
0
  6
CONTINUOUS
 62
    7
370
   25
100
AcDbLine
 10
58.6937266649
 20
-3.6546597008
 11
58.9002229649
 21
-3.6429807008
  0
LINE
  5
253
100
AcDbEntity
  8
0
  6
CONTINUOUS
 62
    7
370
   25
100
AcDbLine
 10
58.9002229649
 20
-3.6429807008
 11
59.1430917649
 21
-3.6190319008
  0
LINE
  5
254
100
AcDbEntity
  8
0
  6
CONTINUOUS
 62
    7
370
   25
100
AcDbLine
 10
59.1430917649
 20
-3.6190319008
 11
59.4256908649
 21
-3.5792091008
  0
LINE
  5
255
100
AcDbEntity
  8
0
  6
CONTINUOUS
 62
    7
370
   25
100
AcDbLine
 10
59.4256908649
 20
-3.5792091008
 11
59.7451184649
 21
-3.5204676008
  0
LINE
  5
256
100
AcDbEntity
  8
0
  6
CONTINUOUS
 62
    7
370
   25
100
AcDbLine
 10
59.7451184649
 20
-3.5204676008
 11
60.1010278649
 21
-3.4394759008
  0
LINE
  5
257
100
AcDbEntity
  8
0
  6
CONTINUOUS
 62
    7
370
   25
100
AcDbLine
 10
60.1010278649
 20
-3.4394759008
 11
60.4899765649
 21
-3.3336526008
  0
LINE
  5
258
100
AcDbEntity
  8
0
  6
CONTINUOUS
 62
    7
370
   25
100
AcDbLine
 10
60.4899765649
 20
-3.3336526008
 11
60.9140389649
 21
-3.1989753008
  0
LINE
  5
259
100
AcDbEntity
  8
0
  6
CONTINUOUS
 62
    7
370
   25
100
AcDbLine
 10
60.9140389649
 20
-3.1989753008
 11
61.3165319649
 21
-3.0532016008
  0
ARC
  5
25A
100
AcDbEntity
  8
0
  6
CONTINUOUS
 62
    7
370
   25
100
AcDbCircle
 10
35.9999888477
 20
8.797920000000001e-05
 40
25.49999867960866
100
AcDbArc
 50
353.123084163
 51
355.6269375452
  0
LINE
  5
25B
100
AcDbEntity
  8
0
  6
CONTINUOUS
 62
    7
370
   25
100
AcDbLine
 10
61.4257496718
 20
-1.9442934597
 11
61.0594295718
 21
-1.7227982597
  0
LINE
  5
25C
100
AcDbEntity
  8
0
  6
CONTINUOUS
 62
    7
370
   25
100
AcDbLine
 10
61.0594295718
 20
-1.7227982597
 11
60.6697895718
 21
-1.5079782597
  0
LINE
  5
25D
100
AcDbEntity
  8
0
  6
CONTINUOUS
 62
    7
370
   25
100
AcDbLine
 10
60.6697895718
 20
-1.5079782597
 11
60.3089595718
 21
-1.3283082597
  0
LINE
  5
25E
100
AcDbEntity
  8
0
  6
CONTINUOUS
 62
    7
370
   25
100
AcDbLine
 10
60.3089595718
 20
-1.3283082597
 11
59.9756895718
 21
-1.1794382597
  0
LINE
  5
25F
100
AcDbEntity
  8
0
  6
CONTINUOUS
 62
    7
370
   25
100
AcDbLine
 10
59.9756895718
 20
-1.1794382597
 11
59.6738595718
 21
-1.0595082597
  0
LINE
  5
260
100
AcDbEntity
  8
0
  6
CONTINUOUS
 62
    7
370
   25
100
AcDbLine
 10
59.6738595718
 20
-1.0595082597
 11
59.4044595718
 21
-0.9653182597
  0
LINE
  5
261
100
AcDbEntity
  8
0
  6
CONTINUOUS
 62
    7
370
   25
100
AcDbLine
 10
59.4044595718
 20
-0.9653182597
 11
59.1709295718
 21
-0.8944482597
  0
LINE
  5
262
100
AcDbEntity
  8
0
  6
CONTINUOUS
 62
    7
370
   25
100
AcDbLine
 10
59.1709295718
 20
-0.8944482597
 11
58.9706795718
 21
-0.8427082597
  0
LINE
  5
263
100
AcDbEntity
  8
0
  6
CONTINUOUS
 62
    7
370
   25
100
AcDbLine
 10
58.9706795718
 20
-0.8427082597
 11
58.7279195718
 21
-0.7874282597
  0
LINE
  5
264
100
AcDbEntity
  8
0
  6
CONTINUOUS
 62
    7
370
   25
100
AcDbLine
 10
58.7279195718
 20
-0.7874282597
 11
58.6538995718
 21
-0.7633282597
  0
LINE
  5
265
100
AcDbEntity
  8
0
  6
CONTINUOUS
 62
    7
370
   25
100
AcDbLine
 10
58.6538995718
 20
-0.7633282597
 11
58.5908795718
 21
-0.7366982597
  0
LINE
  5
266
100
AcDbEntity
  8
0
  6
CONTINUOUS
 62
    7
370
   25
100
AcDbLine
 10
58.5908795718
 20
-0.7366982597
 11
58.5389395718
 21
-0.7079782596999999
  0
LINE
  5
267
100
AcDbEntity
  8
0
  6
CONTINUOUS
 62
    7
370
   25
100
AcDbLine
 10
58.5389395718
 20
-0.7079782596999999
 11
58.4981095718
 21
-0.6776282597
  0
LINE
  5
268
100
AcDbEntity
  8
0
  6
CONTINUOUS
 62
    7
370
   25
100
AcDbLine
 10
58.4981095718
 20
-0.6776282597
 11
58.4684595718
 21
-0.6461082597
  0
LINE
  5
269
100
AcDbEntity
  8
0
  6
CONTINUOUS
 62
    7
370
   25
100
AcDbLine
 10
58.4684595718
 20
-0.6461082597
 11
58.4499995718
 21
-0.6138482597
  0
LINE
  5
26A
100
AcDbEntity
  8
0
  6
CONTINUOUS
 62
    7
370
   25
100
AcDbLine
 10
58.4499995718
 20
-0.6138482597
 11
58.4427495718
 21
-0.5813282597
  0
LINE
  5
26B
100
AcDbEntity
  8
0
  6
CONTINUOUS
 62
    7
370
   25
100
AcDbLine
 10
58.4427495718
 20
-0.5813282597
 11
58.4499995718
 21
9.174030000000001e-05
  0
LINE
  5
26C
100
AcDbEntity
  8
0
  6
CONTINUOUS
 62
    7
370
   25
100
AcDbLine
 10
58.4499995718
 20
9.174030000000001e-05
 11
58.4427495718
 21
0.5815117403
  0
LINE
  5
26D
100
AcDbEntity
  8
0
  6
CONTINUOUS
 62
    7
370
   25
100
AcDbLine
 10
58.4427495718
 20
0.5815117403
 11
58.4499995718
 21
0.6140317403
  0
LINE
  5
26E
100
AcDbEntity
  8
0
  6
CONTINUOUS
 62
    7
370
   25
100
AcDbLine
 10
58.4499995718
 20
0.6140317403
 11
58.4684595718
 21
0.6462917403
  0
LINE
  5
26F
100
AcDbEntity
  8
0
  6
CONTINUOUS
 62
    7
370
   25
100
AcDbLine
 10
58.4684595718
 20
0.6462917403
 11
58.4981095718
 21
0.6778117403
  0
LINE
  5
270
100
AcDbEntity
  8
0
  6
CONTINUOUS
 62
    7
370
   25
100
AcDbLine
 10
58.4981095718
 20
0.6778117403
 11
58.5389395718
 21
0.7081617403
  0
LINE
  5
271
100
AcDbEntity
  8
0
  6
CONTINUOUS
 62
    7
370
   25
100
AcDbLine
 10
58.5389395718
 20
0.7081617403
 11
58.5908795718
 21
0.7368817403
  0
LINE
  5
272
100
AcDbEntity
  8
0
  6
CONTINUOUS
 62
    7
370
   25
100
AcDbLine
 10
58.5908795718
 20
0.7368817403
 11
58.6538995718
 21
0.7635117403
  0
LINE
  5
273
100
AcDbEntity
  8
0
  6
CONTINUOUS
 62
    7
370
   25
100
AcDbLine
 10
58.6538995718
 20
0.7635117403
 11
58.7279195718
 21
0.7876117403
  0
LINE
  5
274
100
AcDbEntity
  8
0
  6
CONTINUOUS
 62
    7
370
   25
100
AcDbLine
 10
58.7279195718
 20
0.7876117403
 11
58.9706795718
 21
0.8428917403
  0
LINE
  5
275
100
AcDbEntity
  8
0
  6
CONTINUOUS
 62
    7
370
   25
100
AcDbLine
 10
58.9706795718
 20
0.8428917403
 11
59.1709295718
 21
0.8946317403
  0
LINE
  5
276
100
AcDbEntity
  8
0
  6
CONTINUOUS
 62
    7
370
   25
100
AcDbLine
 10
59.1709295718
 20
0.8946317403
 11
59.4044595718
 21
0.9655017403
  0
LINE
  5
277
100
AcDbEntity
  8
0
  6
CONTINUOUS
 62
    7
370
   25
100
AcDbLine
 10
59.4044595718
 20
0.9655017403
 11
59.6738595718
 21
1.0596917403
  0
LINE
  5
278
100
AcDbEntity
  8
0
  6
CONTINUOUS
 62
    7
370
   25
100
AcDbLine
 10
59.6738595718
 20
1.0596917403
 11
59.9756895718
 21
1.1796217403
  0
LINE
  5
279
100
AcDbEntity
  8
0
  6
CONTINUOUS
 62
    7
370
   25
100
AcDbLine
 10
59.9756895718
 20
1.1796217403
 11
60.3089595718
 21
1.3284917403
  0
LINE
  5
27A
100
AcDbEntity
  8
0
  6
CONTINUOUS
 62
    7
370
   25
100
AcDbLine
 10
60.3089595718
 20
1.3284917403
 11
60.6697895718
 21
1.5081617403
  0
LINE
  5
27B
100
AcDbEntity
  8
0
  6
CONTINUOUS
 62
    7
370
   25
100
AcDbLine
 10
60.6697895718
 20
1.5081617403
 11
61.0594295718
 21
1.7229817403
  0
LINE
  5
27C
100
AcDbEntity
  8
0
  6
CONTINUOUS
 62
    7
370
   25
100
AcDbLine
 10
61.0594295718
 20
1.7229817403
 11
61.4257507998
 21
1.9444769415
  0
ARC
  5
27D
100
AcDbEntity
  8
0
  6
CONTINUOUS
 62
    7
370
   25
100
AcDbCircle
 10
35.9999888477
 20
8.797920000000001e-05
 40
25.50000037800327
100
AcDbArc
 50
4.3730791167
 51
6.8769327066
  0
LINE
  5
27E
100
AcDbEntity
  8
0
  6
CONTINUOUS
 62
    7
370
   25
100
AcDbLine
 10
61.316532752
 20
3.0533852165
 11
60.914039752
 21
3.1991589165
  0
LINE
  5
27F
100
AcDbEntity
  8
0
  6
CONTINUOUS
 62
    7
370
   25
100
AcDbLine
 10
60.914039752
 20
3.1991589165
 11
60.489977352
 21
3.3338362165
  0
LINE
  5
280
100
AcDbEntity
  8
0
  6
CONTINUOUS
 62
    7
370
   25
100
AcDbLine
 10
60.489977352
 20
3.3338362165
 11
60.101028652
 21
3.4396595165
  0
LINE
  5
281
100
AcDbEntity
  8
0
  6
CONTINUOUS
 62
    7
370
   25
100
AcDbLine
 10
60.101028652
 20
3.4396595165
 11
59.745119252
 21
3.5206512165
  0
LINE
  5
282
100
AcDbEntity
  8
0
  6
CONTINUOUS
 62
    7
370
   25
100
AcDbLine
 10
59.745119252
 20
3.5206512165
 11
59.425691652
 21
3.5793927165
  0
LINE
  5
283
100
AcDbEntity
  8
0
  6
CONTINUOUS
 62
    7
370
   25
100
AcDbLine
 10
59.425691652
 20
3.5793927165
 11
59.143092552
 21
3.6192155165
  0
LINE
  5
284
100
AcDbEntity
  8
0
  6
CONTINUOUS
 62
    7
370
   25
100
AcDbLine
 10
59.143092552
 20
3.6192155165
 11
58.900223752
 21
3.6431643165
  0
LINE
  5
285
100
AcDbEntity
  8
0
  6
CONTINUOUS
 62
    7
370
   25
100
AcDbLine
 10
58.900223752
 20
3.6431643165
 11
58.693727452
 21
3.6548433165
  0
LINE
  5
286
100
AcDbEntity
  8
0
  6
CONTINUOUS
 62
    7
370
   25
100
AcDbLine
 10
58.693727452
 20
3.6548433165
 11
58.444847452
 21
3.6617010165
  0
LINE
  5
287
100
AcDbEntity
  8
0
  6
CONTINUOUS
 62
    7
370
   25
100
AcDbLine
 10
58.444847452
 20
3.6617010165
 11
58.367548052
 21
3.6708973165
  0
LINE
  5
288
100
AcDbEntity
  8
0
  6
CONTINUOUS
 62
    7
370
   25
100
AcDbLine
 10
58.367548052
 20
3.6708973165
 11
58.300543752
 21
3.6847211165
  0
LINE
  5
289
100
AcDbEntity
  8
0
  6
CONTINUOUS
 62
    7
370
   25
100
AcDbLine
 10
58.300543752
 20
3.6847211165
 11
58.243998752
 21
3.7027562165
  0
LINE
  5
28A
100
AcDbEntity
  8
0
  6
CONTINUOUS
 62
    7
370
   25
100
AcDbLine
 10
58.243998752
 20
3.7027562165
 11
58.198032252
 21
3.7245575165
  0
LINE
  5
28B
100
AcDbEntity
  8
0
  6
CONTINUOUS
 62
    7
370
   25
100
AcDbLine
 10
58.198032252
 20
3.7245575165
 11
58.162802752
 21
3.7496874165
  0
LINE
  5
28C
100
AcDbEntity
  8
0
  6
CONTINUOUS
 62
    7
370
   25
100
AcDbLine
 10
58.162802752
 20
3.7496874165
 11
58.138403852
 21
3.7777262165
  0
LINE
  5
28D
100
AcDbEntity
  8
0
  6
CONTINUOUS
 62
    7
370
   25
100
AcDbLine
 10
58.138403852
 20
3.7777262165
 11
58.124948852
 21
3.8082069165
  0
LINE
  5
28E
100
AcDbEntity
  8
0
  6
CONTINUOUS
 62
    7
370
   25
100
AcDbLine
 10
58.124948852
 20
3.8082069165
 11
58.018630052
 21
4.3798695165
  0
LINE
  5
28F
100
AcDbEntity
  8
0
  6
CONTINUOUS
 62
    7
370
   25
100
AcDbLine
 10
58.018630052
 20
4.3798695165
 11
57.898089952
 21
4.9487033165
  0
LINE
  5
290
100
AcDbEntity
  8
0
  6
CONTINUOUS
 62
    7
370
   25
100
AcDbLine
 10
57.898089952
 20
4.9487033165
 11
57.898856352
 21
4.9820128165
  0
LINE
  5
291
100
AcDbEntity
  8
0
  6
CONTINUOUS
 62
    7
370
   25
100
AcDbLine
 10
57.898856352
 20
4.9820128165
 11
57.910668052
 21
5.0172543165
  0
LINE
  5
292
100
AcDbEntity
  8
0
  6
CONTINUOUS
 62
    7
370
   25
100
AcDbLine
 10
57.910668052
 20
5.0172543165
 11
57.933599052
 21
5.0539531165
  0
LINE
  5
293
100
AcDbEntity
  8
0
  6
CONTINUOUS
 62
    7
370
   25
100
AcDbLine
 10
57.933599052
 20
5.0539531165
 11
57.967723552
 21
5.0916855165
  0
LINE
  5
294
100
AcDbEntity
  8
0
  6
CONTINUOUS
 62
    7
370
   25
100
AcDbLine
 10
57.967723552
 20
5.0916855165
 11
58.013062552
 21
5.1299866165
  0
LINE
  5
295
100
AcDbEntity
  8
0
  6
CONTINUOUS
 62
    7
370
   25
100
AcDbLine
 10
58.013062552
 20
5.1299866165
 11
58.069676352
 21
5.1683995165
  0
LINE
  5
296
100
AcDbEntity
  8
0
  6
CONTINUOUS
 62
    7
370
   25
100
AcDbLine
 10
58.069676352
 20
5.1683995165
 11
58.137572452
 21
5.2064771165
  0
LINE
  5
297
100
AcDbEntity
  8
0
  6
CONTINUOUS
 62
    7
370
   25
100
AcDbLine
 10
58.137572452
 20
5.2064771165
 11
58.364883252
 21
5.3080550165
  0
LINE
  5
298
100
AcDbEntity
  8
0
  6
CONTINUOUS
 62
    7
370
   25
100
AcDbLine
 10
58.364883252
 20
5.3080550165
 11
58.551191552
 21
5.3978677165
  0
LINE
  5
299
100
AcDbEntity
  8
0
  6
CONTINUOUS
 62
    7
370
   25
100
AcDbLine
 10
58.551191552
 20
5.3978677165
 11
58.766408252
 21
5.5129354165
  0
LINE
  5
29A
100
AcDbEntity
  8
0
  6
CONTINUOUS
 62
    7
370
   25
100
AcDbLine
 10
58.766408252
 20
5.5129354165
 11
59.012256252
 21
5.6578729165
  0
LINE
  5
29B
100
AcDbEntity
  8
0
  6
CONTINUOUS
 62
    7
370
   25
100
AcDbLine
 10
59.012256252
 20
5.6578729165
 11
59.284889552
 21
5.8343825165
  0
LINE
  5
29C
100
AcDbEntity
  8
0
  6
CONTINUOUS
 62
    7
370
   25
100
AcDbLine
 10
59.284889552
 20
5.8343825165
 11
59.582712752
 21
6.0454098165
  0
LINE
  5
29D
100
AcDbEntity
  8
0
  6
CONTINUOUS
 62
    7
370
   25
100
AcDbLine
 10
59.582712752
 20
6.0454098165
 11
59.901557552
 21
6.2920219165
  0
LINE
  5
29E
100
AcDbEntity
  8
0
  6
CONTINUOUS
 62
    7
370
   25
100
AcDbLine
 10
59.901557552
 20
6.2920219165
 11
60.241801452
 21
6.5787292165
  0
LINE
  5
29F
100
AcDbEntity
  8
0
  6
CONTINUOUS
 62
    7
370
   25
100
AcDbLine
 10
60.241801452
 20
6.5787292165
 11
60.557871252
 21
6.8674340165
  0
ARC
  5
2A0
100
AcDbEntity
  8
0
  6
CONTINUOUS
 62
    7
370
   25
100
AcDbCircle
 10
35.9999888477
 20
8.797920000000001e-05
 40
25.5000005839182
100
AcDbArc
 50
15.623074034
 51
18.1269273438
  0
LINE
  5
2A1
100
AcDbEntity
  8
0
  6
CONTINUOUS
 62
    7
370
   25
100
AcDbLine
 10
60.2344146568
 20
7.9337274646
 11
59.8112163568
 21
7.9981777646
  0
LINE
  5
2A2
100
AcDbEntity
  8
0
  6
CONTINUOUS
 62
    7
370
   25
100
AcDbLine
 10
59.8112163568
 20
7.9981777646
 11
59.3690279568
 21
8.0475367646
  0
LINE
  5
2A3
100
AcDbEntity
  8
0
  6
CONTINUOUS
 62
    7
370
   25
100
AcDbLine
 10
59.3690279568
 20
8.0475367646
 11
58.9669077568
 21
8.0754465646
  0
LINE
  5
2A4
100
AcDbEntity
  8
0
  6
CONTINUOUS
 62
    7
370
   25
100
AcDbLine
 10
58.9669077568
 20
8.0754465646
 11
58.6020363568
 21
8.085447564600001
  0
LINE
  5
2A5
100
AcDbEntity
  8
0
  6
CONTINUOUS
 62
    7
370
   25
100
AcDbLine
 10
58.6020363568
 20
8.085447564600001
 11
58.2772865568
 21
8.0807430646
  0
LINE
  5
2A6
100
AcDbEntity
  8
0
  6
CONTINUOUS
 62
    7
370
   25
100
AcDbLine
 10
58.2772865568
 20
8.0807430646
 11
57.9923484568
 21
8.064668364599999
  0
LINE
  5
2A7
100
AcDbEntity
  8
0
  6
CONTINUOUS
 62
    7
370
   25
100
AcDbLine
 10
57.9923484568
 20
8.064668364599999
 11
57.7494740568
 21
8.0407756646
  0
LINE
  5
2A8
100
AcDbEntity
  8
0
  6
CONTINUOUS
 62
    7
370
   25
100
AcDbLine
 10
57.7494740568
 20
8.0407756646
 11
57.5446671568
 21
8.0119448646
  0
LINE
  5
2A9
100
AcDbEntity
  8
0
  6
CONTINUOUS
 62
    7
370
   25
100
AcDbLine
 10
57.5446671568
 20
8.0119448646
 11
57.2992314568
 21
7.9701166646
  0
LINE
  5
2AA
100
AcDbEntity
  8
0
  6
CONTINUOUS
 62
    7
370
   25
100
AcDbLine
 10
57.2992314568
 20
7.9701166646
 11
57.2216231568
 21
7.9640559646
  0
LINE
  5
2AB
100
AcDbEntity
  8
0
  6
CONTINUOUS
 62
    7
370
   25
100
AcDbLine
 10
57.2216231568
 20
7.9640559646
 11
57.1532094568
 21
7.9645421646
  0
LINE
  5
2AC
100
AcDbEntity
  8
0
  6
CONTINUOUS
 62
    7
370
   25
100
AcDbLine
 10
57.1532094568
 20
7.9645421646
 11
57.0942324568
 21
7.9711993646
  0
LINE
  5
2AD
100
AcDbEntity
  8
0
  6
CONTINUOUS
 62
    7
370
   25
100
AcDbLine
 10
57.0942324568
 20
7.9711993646
 11
57.0448960568
 21
7.9836141646
  0
LINE
  5
2AE
100
AcDbEntity
  8
0
  6
CONTINUOUS
 62
    7
370
   25
100
AcDbLine
 10
57.0448960568
 20
7.9836141646
 11
57.0054408568
 21
8.001388264599999
  0
LINE
  5
2AF
100
AcDbEntity
  8
0
  6
CONTINUOUS
 62
    7
370
   25
100
AcDbLine
 10
57.0054408568
 20
8.001388264599999
 11
56.9760406568
 21
8.024128364599999
  0
LINE
  5
2B0
100
AcDbEntity
  8
0
  6
CONTINUOUS
 62
    7
370
   25
100
AcDbLine
 10
56.9760406568
 20
8.024128364599999
 11
56.9568976568
 21
8.0513984646
  0
LINE
  5
2B1
100
AcDbEntity
  8
0
  6
CONTINUOUS
 62
    7
370
   25
100
AcDbLine
 10
56.9568976568
 20
8.0513984646
 11
56.7410959568
 21
8.5913349646
  0
LINE
  5
2B2
100
AcDbEntity
  8
0
  6
CONTINUOUS
 62
    7
370
   25
100
AcDbLine
 10
56.7410959568
 20
8.5913349646
 11
56.5118980568
 21
9.125722464600001
  0
LINE
  5
2B3
100
AcDbEntity
  8
0
  6
CONTINUOUS
 62
    7
370
   25
100
AcDbLine
 10
56.5118980568
 20
9.125722464600001
 11
56.5061512568
 21
9.1585415646
  0
LINE
  5
2B4
100
AcDbEntity
  8
0
  6
CONTINUOUS
 62
    7
370
   25
100
AcDbLine
 10
56.5061512568
 20
9.1585415646
 11
56.5108607568
 21
9.1954101646
  0
LINE
  5
2B5
100
AcDbEntity
  8
0
  6
CONTINUOUS
 62
    7
370
   25
100
AcDbLine
 10
56.5108607568
 20
9.1954101646
 11
56.5261915568
 21
9.2358774646
  0
LINE
  5
2B6
100
AcDbEntity
  8
0
  6
CONTINUOUS
 62
    7
370
   25
100
AcDbLine
 10
56.5261915568
 20
9.2358774646
 11
56.5522991568
 21
9.2795421646
  0
LINE
  5
2B7
100
AcDbEntity
  8
0
  6
CONTINUOUS
 62
    7
370
   25
100
AcDbLine
 10
56.5522991568
 20
9.2795421646
 11
56.5892947568
 21
9.3259525646
  0
LINE
  5
2B8
100
AcDbEntity
  8
0
  6
CONTINUOUS
 62
    7
370
   25
100
AcDbLine
 10
56.5892947568
 20
9.3259525646
 11
56.6373268568
 21
9.3746721646
  0
LINE
  5
2B9
100
AcDbEntity
  8
0
  6
CONTINUOUS
 62
    7
370
   25
100
AcDbLine
 10
56.6373268568
 20
9.3746721646
 11
56.6964896568
 21
9.4252638646
  0
LINE
  5
2BA
100
AcDbEntity
  8
0
  6
CONTINUOUS
 62
    7
370
   25
100
AcDbLine
 10
56.6964896568
 20
9.4252638646
 11
56.8996159568
 21
9.569236164599999
  0
LINE
  5
2BB
100
AcDbEntity
  8
0
  6
CONTINUOUS
 62
    7
370
   25
100
AcDbLine
 10
56.8996159568
 20
9.569236164599999
 11
57.0648227568
 21
9.693670064599999
  0
LINE
  5
2BC
100
AcDbEntity
  8
0
  6
CONTINUOUS
 62
    7
370
   25
100
AcDbLine
 10
57.0648227568
 20
9.693670064599999
 11
57.2534556568
 21
9.8485134646
  0
LINE
  5
2BD
100
AcDbEntity
  8
0
  6
CONTINUOUS
 62
    7
370
   25
100
AcDbLine
 10
57.2534556568
 20
9.8485134646
 11
57.4663037568
 21
10.0386286646
  0
LINE
  5
2BE
100
AcDbEntity
  8
0
  6
CONTINUOUS
 62
    7
370
   25
100
AcDbLine
 10
57.4663037568
 20
10.0386286646
 11
57.6992631568
 21
10.2649348646
  0
LINE
  5
2BF
100
AcDbEntity
  8
0
  6
CONTINUOUS
 62
    7
370
   25
100
AcDbLine
 10
57.6992631568
 20
10.2649348646
 11
57.9501943568
 21
10.5300096646
  0
LINE
  5
2C0
100
AcDbEntity
  8
0
  6
CONTINUOUS
 62
    7
370
   25
100
AcDbLine
 10
57.9501943568
 20
10.5300096646
 11
58.2148010568
 21
10.8340867646
  0
LINE
  5
2C1
100
AcDbEntity
  8
0
  6
CONTINUOUS
 62
    7
370
   25
100
AcDbLine
 10
58.2148010568
 20
10.8340867646
 11
58.4925734568
 21
11.1816633646
  0
LINE
  5
2C2
100
AcDbEntity
  8
0
  6
CONTINUOUS
 62
    7
370
   25
100
AcDbLine
 10
58.4925734568
 20
11.1816633646
 11
58.7462465568
 21
11.5264828646
  0
ARC
  5
2C3
100
AcDbEntity
  8
0
  6
CONTINUOUS
 62
    7
370
   25
100
AcDbCircle
 10
35.9999888477
 20
8.797920000000001e-05
 40
25.50000036905701
100
AcDbArc
 50
26.8730687126
 51
29.3769218816
  0
LINE
  5
2C4
100
AcDbEntity
  8
0
  6
CONTINUOUS
 62
    7
370
   25
100
AcDbLine
 10
58.2209816836
 20
12.5091845177
 11
57.7933413836
 21
12.4898345177
  0
LINE
  5
2C5
100
AcDbEntity
  8
0
  6
CONTINUOUS
 62
    7
370
   25
100
AcDbLine
 10
57.7933413836
 20
12.4898345177
 11
57.3500199836
 21
12.4519784177
  0
LINE
  5
2C6
100
AcDbEntity
  8
0
  6
CONTINUOUS
 62
    7
370
   25
100
AcDbLine
 10
57.3500199836
 20
12.4519784177
 11
56.9501814836
 21
12.4009021177
  0
LINE
  5
2C7
100
AcDbEntity
  8
0
  6
CONTINUOUS
 62
    7
370
   25
100
AcDbLine
 10
56.9501814836
 20
12.4009021177
 11
56.5903698836
 21
12.3395281177
  0
LINE
  5
2C8
100
AcDbEntity
  8
0
  6
CONTINUOUS
 62
    7
370
   25
100
AcDbLine
 10
56.5903698836
 20
12.3395281177
 11
56.2727778836
 21
12.2715585177
  0
LINE
  5
2C9
100
AcDbEntity
  8
0
  6
CONTINUOUS
 62
    7
370
   25
100
AcDbLine
 10
56.2727778836
 20
12.2715585177
 11
55.9964507836
 21
12.2002040177
  0
LINE
  5
2CA
100
AcDbEntity
  8
0
  6
CONTINUOUS
 62
    7
370
   25
100
AcDbLine
 10
55.9964507836
 20
12.2002040177
 11
55.7629044836
 21
12.1293880177
  0
LINE
  5
2CB
100
AcDbEntity
  8
0
  6
CONTINUOUS
 62
    7
370
   25
100
AcDbLine
 10
55.7629044836
 20
12.1293880177
 11
55.5676574836
 21
12.0611553177
  0
LINE
  5
2CC
100
AcDbEntity
  8
0
  6
CONTINUOUS
 62
    7
370
   25
100
AcDbLine
 10
55.5676574836
 20
12.0611553177
 11
55.3350979836
 21
11.9722487177
  0
LINE
  5
2CD
100
AcDbEntity
  8
0
  6
CONTINUOUS
 62
    7
370
   25
100
AcDbLine
 10
55.3350979836
 20
11.9722487177
 11
55.2601633836
 21
11.9511638177
  0
LINE
  5
2CE
100
AcDbEntity
  8
0
  6
CONTINUOUS
 62
    7
370
   25
100
AcDbLine
 10
55.2601633836
 20
11.9511638177
 11
55.1929692836
 21
11.9382938177
  0
LINE
  5
2CF
100
AcDbEntity
  8
0
  6
CONTINUOUS
 62
    7
370
   25
100
AcDbLine
 10
55.1929692836
 20
11.9382938177
 11
55.1338267836
 21
11.9333173177
  0
LINE
  5
2D0
100
AcDbEntity
  8
0
  6
CONTINUOUS
 62
    7
370
   25
100
AcDbLine
 10
55.1338267836
 20
11.9333173177
 11
55.0830163836
 21
11.9358684177
  0
LINE
  5
2D1
100
AcDbEntity
  8
0
  6
CONTINUOUS
 62
    7
370
   25
100
AcDbLine
 10
55.0830163836
 20
11.9358684177
 11
55.0408516836
 21
11.9456037177
  0
LINE
  5
2D2
100
AcDbEntity
  8
0
  6
CONTINUOUS
 62
    7
370
   25
100
AcDbLine
 10
55.0408516836
 20
11.9456037177
 11
55.0075800836
 21
11.9621711177
  0
LINE
  5
2D3
100
AcDbEntity
  8
0
  6
CONTINUOUS
 62
    7
370
   25
100
AcDbLine
 10
55.0075800836
 20
11.9621711177
 11
54.9834847836
 21
11.9851826177
  0
LINE
  5
2D4
100
AcDbEntity
  8
0
  6
CONTINUOUS
 62
    7
370
   25
100
AcDbLine
 10
54.9834847836
 20
11.9851826177
 11
54.6664932836
 21
12.4726435177
  0
LINE
  5
2D5
100
AcDbEntity
  8
0
  6
CONTINUOUS
 62
    7
370
   25
100
AcDbLine
 10
54.6664932836
 20
12.4726435177
 11
54.3374454836
 21
12.9520487177
  0
LINE
  5
2D6
100
AcDbEntity
  8
0
  6
CONTINUOUS
 62
    7
370
   25
100
AcDbLine
 10
54.3374454836
 20
12.9520487177
 11
54.3254064836
 21
12.9831160177
  0
LINE
  5
2D7
100
AcDbEntity
  8
0
  6
CONTINUOUS
 62
    7
370
   25
100
AcDbLine
 10
54.3254064836
 20
12.9831160177
 11
54.3228326836
 21
13.0201950177
  0
LINE
  5
2D8
100
AcDbEntity
  8
0
  6
CONTINUOUS
 62
    7
370
   25
100
AcDbLine
 10
54.3228326836
 20
13.0201950177
 11
54.3299741836
 21
13.0628756177
  0
LINE
  5
2D9
100
AcDbEntity
  8
0
  6
CONTINUOUS
 62
    7
370
   25
100
AcDbLine
 10
54.3299741836
 20
13.0628756177
 11
54.3470615836
 21
13.1107946177
  0
LINE
  5
2DA
100
AcDbEntity
  8
0
  6
CONTINUOUS
 62
    7
370
   25
100
AcDbLine
 10
54.3470615836
 20
13.1107946177
 11
54.3742920836
 21
13.1635308177
  0
LINE
  5
2DB
100
AcDbEntity
  8
0
  6
CONTINUOUS
 62
    7
370
   25
100
AcDbLine
 10
54.3742920836
 20
13.1635308177
 11
54.4118964836
 21
13.2206848177
  0
LINE
  5
2DC
100
AcDbEntity
  8
0
  6
CONTINUOUS
 62
    7
370
   25
100
AcDbLine
 10
54.4118964836
 20
13.2206848177
 11
54.4600526836
 21
13.2818466177
  0
LINE
  5
2DD
100
AcDbEntity
  8
0
  6
CONTINUOUS
 62
    7
370
   25
100
AcDbLine
 10
54.4600526836
 20
13.2818466177
 11
54.6311882836
 21
13.4626804177
  0
LINE
  5
2DE
100
AcDbEntity
  8
0
  6
CONTINUOUS
 62
    7
370
   25
100
AcDbLine
 10
54.6311882836
 20
13.4626804177
 11
54.7689448836
 21
13.6169536177
  0
LINE
  5
2DF
100
AcDbEntity
  8
0
  6
CONTINUOUS
 62
    7
370
   25
100
AcDbLine
 10
54.7689448836
 20
13.6169536177
 11
54.9237446836
 21
13.8056222177
  0
LINE
  5
2E0
100
AcDbEntity
  8
0
  6
CONTINUOUS
 62
    7
370
   25
100
AcDbLine
 10
54.9237446836
 20
13.8056222177
 11
55.0954134836
 21
14.0336089177
  0
LINE
  5
2E1
100
AcDbEntity
  8
0
  6
CONTINUOUS
 62
    7
370
   25
100
AcDbLine
 10
55.0954134836
 20
14.0336089177
 11
55.2797463836
 21
14.3010148177
  0
LINE
  5
2E2
100
AcDbEntity
  8
0
  6
CONTINUOUS
 62
    7
370
   25
100
AcDbLine
 10
55.2797463836
 20
14.3010148177
 11
55.4741424836
 21
14.6099506177
  0
LINE
  5
2E3
100
AcDbEntity
  8
0
  6
CONTINUOUS
 62
    7
370
   25
100
AcDbLine
 10
55.4741424836
 20
14.6099506177
 11
55.6743423836
 21
14.9598072177
  0
LINE
  5
2E4
100
AcDbEntity
  8
0
  6
CONTINUOUS
 62
    7
370
   25
100
AcDbLine
 10
55.6743423836
 20
14.9598072177
 11
55.8789685836
 21
15.3548958177
  0
LINE
  5
2E5
100
AcDbEntity
  8
0
  6
CONTINUOUS
 62
    7
370
   25
100
AcDbLine
 10
55.8789685836
 20
15.3548958177
 11
56.0604965836
 21
15.7425789177
  0
ARC
  5
2E6
100
AcDbEntity
  8
0
  6
CONTINUOUS
 62
    7
370
   25
100
AcDbCircle
 10
36.0000002469
 20
9.16319e-05
 40
25.49998861215207
100
AcDbArc
 50
38.1230726058
 51
40.6269274221
  0
LINE
  5
2E7
100
AcDbEntity
  8
0
  6
CONTINUOUS
 62
    7
370
   25
100
AcDbLine
 10
55.3536087358
 20
16.6039242521
 11
54.9379605358
 21
16.5015175521
  0
LINE
  5
2E8
100
AcDbEntity
  8
0
  6
CONTINUOUS
 62
    7
370
   25
100
AcDbLine
 10
54.9379605358
 20
16.5015175521
 11
54.5105427358
 21
16.3779011521
  0
LINE
  5
2E9
100
AcDbEntity
  8
0
  6
CONTINUOUS
 62
    7
370
   25
100
AcDbLine
 10
54.5105427358
 20
16.3779011521
 11
54.1283515358
 21
16.2498016521
  0
LINE
  5
2EA
100
AcDbEntity
  8
0
  6
CONTINUOUS
 62
    7
370
   25
100
AcDbLine
 10
54.1283515358
 20
16.2498016521
 11
53.7874270358
 21
16.1194111521
  0
LINE
  5
2EB
100
AcDbEntity
  8
0
  6
CONTINUOUS
 62
    7
370
   25
100
AcDbLine
 10
53.7874270358
 20
16.1194111521
 11
53.4891977358
 21
15.9907884521
  0
LINE
  5
2EC
100
AcDbEntity
  8
0
  6
CONTINUOUS
 62
    7
370
   25
100
AcDbLine
 10
53.4891977358
 20
15.9907884521
 11
53.2321007358
 21
15.8668962521
  0
LINE
  5
2ED
100
AcDbEntity
  8
0
  6
CONTINUOUS
 62
    7
370
   25
100
AcDbLine
 10
53.2321007358
 20
15.8668962521
 11
53.0168574358
 21
15.7518782521
  0
LINE
  5
2EE
100
AcDbEntity
  8
0
  6
CONTINUOUS
 62
    7
370
   25
100
AcDbLine
 10
53.0168574358
 20
15.7518782521
 11
52.8386736358
 21
15.6468658521
  0
LINE
  5
2EF
100
AcDbEntity
  8
0
  6
CONTINUOUS
 62
    7
370
   25
100
AcDbLine
 10
52.8386736358
 20
15.6468658521
 11
52.6279275358
 21
15.5142974521
  0
LINE
  5
2F0
100
AcDbEntity
  8
0
  6
CONTINUOUS
 62
    7
370
   25
100
AcDbLine
 10
52.6279275358
 20
15.5142974521
 11
52.5585462358
 21
15.4789987521
  0
LINE
  5
2F1
100
AcDbEntity
  8
0
  6
CONTINUOUS
 62
    7
370
   25
100
AcDbLine
 10
52.5585462358
 20
15.4789987521
 11
52.4951540358
 21
15.4532670521
  0
LINE
  5
2F2
100
AcDbEntity
  8
0
  6
CONTINUOUS
 62
    7
370
   25
100
AcDbLine
 10
52.4951540358
 20
15.4532670521
 11
52.4381188358
 21
15.4368480521
  0
LINE
  5
2F3
100
AcDbEntity
  8
0
  6
CONTINUOUS
 62
    7
370
   25
100
AcDbLine
 10
52.4381188358
 20
15.4368480521
 11
52.3877870358
 21
15.4294375521
  0
LINE
  5
2F4
100
AcDbEntity
  8
0
  6
CONTINUOUS
 62
    7
370
   25
100
AcDbLine
 10
52.3877870358
 20
15.4294375521
 11
52.3445332358
 21
15.4307598521
  0
LINE
  5
2F5
100
AcDbEntity
  8
0
  6
CONTINUOUS
 62
    7
370
   25
100
AcDbLine
 10
52.3445332358
 20
15.4307598521
 11
52.3086688358
 21
15.4405179521
  0
LINE
  5
2F6
100
AcDbEntity
  8
0
  6
CONTINUOUS
 62
    7
370
   25
100
AcDbLine
 10
52.3086688358
 20
15.4405179521
 11
52.2805471358
 21
15.4583865521
  0
LINE
  5
2F7
100
AcDbEntity
  8
0
  6
CONTINUOUS
 62
    7
370
   25
100
AcDbLine
 10
52.2805471358
 20
15.4583865521
 11
51.8745476358
 21
15.8746390521
  0
LINE
  5
2F8
100
AcDbEntity
  8
0
  6
CONTINUOUS
 62
    7
370
   25
100
AcDbLine
 10
51.8745476358
 20
15.8746390521
 11
51.4582951358
 21
16.2806385521
  0
LINE
  5
2F9
100
AcDbEntity
  8
0
  6
CONTINUOUS
 62
    7
370
   25
100
AcDbLine
 10
51.4582951358
 20
16.2806385521
 11
51.4404265358
 21
16.3087602521
  0
LINE
  5
2FA
100
AcDbEntity
  8
0
  6
CONTINUOUS
 62
    7
370
   25
100
AcDbLine
 10
51.4404265358
 20
16.3087602521
 11
51.4306684358
 21
16.3446246521
  0
LINE
  5
2FB
100
AcDbEntity
  8
0
  6
CONTINUOUS
 62
    7
370
   25
100
AcDbLine
 10
51.4306684358
 20
16.3446246521
 11
51.4293461358
 21
16.3878784521
  0
LINE
  5
2FC
100
AcDbEntity
  8
0
  6
CONTINUOUS
 62
    7
370
   25
100
AcDbLine
 10
51.4293461358
 20
16.3878784521
 11
51.4367566358
 21
16.4382102521
  0
LINE
  5
2FD
100
AcDbEntity
  8
0
  6
CONTINUOUS
 62
    7
370
   25
100
AcDbLine
 10
51.4367566358
 20
16.4382102521
 11
51.4531756358
 21
16.4952454521
  0
LINE
  5
2FE
100
AcDbEntity
  8
0
  6
CONTINUOUS
 62
    7
370
   25
100
AcDbLine
 10
51.4531756358
 20
16.4952454521
 11
51.4789073358
 21
16.5586376521
  0
LINE
  5
2FF
100
AcDbEntity
  8
0
  6
CONTINUOUS
 62
    7
370
   25
100
AcDbLine
 10
51.4789073358
 20
16.5586376521
 11
51.5142060358
 21
16.6280189521
  0
LINE
  5
300
100
AcDbEntity
  8
0
  6
CONTINUOUS
 62
    7
370
   25
100
AcDbLine
 10
51.5142060358
 20
16.6280189521
 11
51.6467744358
 21
16.8387650521
  0
LINE
  5
301
100
AcDbEntity
  8
0
  6
CONTINUOUS
 62
    7
370
   25
100
AcDbLine
 10
51.6467744358
 20
16.8387650521
 11
51.7517868358
 21
17.0169488521
  0
LINE
  5
302
100
AcDbEntity
  8
0
  6
CONTINUOUS
 62
    7
370
   25
100
AcDbLine
 10
51.7517868358
 20
17.0169488521
 11
51.8668048358
 21
17.2321921521
  0
LINE
  5
303
100
AcDbEntity
  8
0
  6
CONTINUOUS
 62
    7
370
   25
100
AcDbLine
 10
51.8668048358
 20
17.2321921521
 11
51.9906970358
 21
17.4892891521
  0
LINE
  5
304
100
AcDbEntity
  8
0
  6
CONTINUOUS
 62
    7
370
   25
100
AcDbLine
 10
51.9906970358
 20
17.4892891521
 11
52.1193197358
 21
17.7875184521
  0
LINE
  5
305
100
AcDbEntity
  8
0
  6
CONTINUOUS
 62
    7
370
   25
100
AcDbLine
 10
52.1193197358
 20
17.7875184521
 11
52.2497102358
 21
18.1284429521
  0
LINE
  5
306
100
AcDbEntity
  8
0
  6
CONTINUOUS
 62
    7
370
   25
100
AcDbLine
 10
52.2497102358
 20
18.1284429521
 11
52.3778097358
 21
18.5106341521
  0
LINE
  5
307
100
AcDbEntity
  8
0
  6
CONTINUOUS
 62
    7
370
   25
100
AcDbLine
 10
52.3778097358
 20
18.5106341521
 11
52.5014261358
 21
18.9380519521
  0
LINE
  5
308
100
AcDbEntity
  8
0
  6
CONTINUOUS
 62
    7
370
   25
100
AcDbLine
 10
52.5014261358
 20
18.9380519521
 11
52.6038328358
 21
19.3537001521
  0
ARC
  5
309
100
AcDbEntity
  8
0
  6
CONTINUOUS
 62
    7
370
   25
100
AcDbCircle
 10
36.0000002469
 20
9.16319e-05
 40
25.49998861552536
100
AcDbArc
 50
49.373072677
 51
51.8769283802
  0
LINE
  5
30A
100
AcDbEntity
  8
0
  6
CONTINUOUS
 62
    7
370
   25
100
AcDbLine
 10
51.7424871895
 20
20.0605882422
 11
51.3548040895
 21
19.8790602422
  0
LINE
  5
30B
100
AcDbEntity
  8
0
  6
CONTINUOUS
 62
    7
370
   25
100
AcDbLine
 10
51.3548040895
 20
19.8790602422
 11
50.9597154895
 21
19.6744340422
  0
LINE
  5
30C
100
AcDbEntity
  8
0
  6
CONTINUOUS
 62
    7
370
   25
100
AcDbLine
 10
50.9597154895
 20
19.6744340422
 11
50.6098588895
 21
19.4742341422
  0
LINE
  5
30D
100
AcDbEntity
  8
0
  6
CONTINUOUS
 62
    7
370
   25
100
AcDbLine
 10
50.6098588895
 20
19.4742341422
 11
50.3009230895
 21
19.2798380422
  0
LINE
  5
30E
100
AcDbEntity
  8
0
  6
CONTINUOUS
 62
    7
370
   25
100
AcDbLine
 10
50.3009230895
 20
19.2798380422
 11
50.0335171895
 21
19.0955051422
  0
LINE
  5
30F
100
AcDbEntity
  8
0
  6
CONTINUOUS
 62
    7
370
   25
100
AcDbLine
 10
50.0335171895
 20
19.0955051422
 11
49.8055304895
 21
18.9238363422
  0
LINE
  5
310
100
AcDbEntity
  8
0
  6
CONTINUOUS
 62
    7
370
   25
100
AcDbLine
 10
49.8055304895
 20
18.9238363422
 11
49.6168618895
 21
18.7690365422
  0
LINE
  5
311
100
AcDbEntity
  8
0
  6
CONTINUOUS
 62
    7
370
   25
100
AcDbLine
 10
49.6168618895
 20
18.7690365422
 11
49.4625886895
 21
18.6312799422
  0
LINE
  5
312
100
AcDbEntity
  8
0
  6
CONTINUOUS
 62
    7
370
   25
100
AcDbLine
 10
49.4625886895
 20
18.6312799422
 11
49.2817548895
 21
18.4601443422
  0
LINE
  5
313
100
AcDbEntity
  8
0
  6
CONTINUOUS
 62
    7
370
   25
100
AcDbLine
 10
49.2817548895
 20
18.4601443422
 11
49.2205930895
 21
18.4119881422
  0
LINE
  5
314
100
AcDbEntity
  8
0
  6
CONTINUOUS
 62
    7
370
   25
100
AcDbLine
 10
49.2205930895
 20
18.4119881422
 11
49.1634390895
 21
18.3743837422
  0
LINE
  5
315
100
AcDbEntity
  8
0
  6
CONTINUOUS
 62
    7
370
   25
100
AcDbLine
 10
49.1634390895
 20
18.3743837422
 11
49.1107028895
 21
18.3471532422
  0
LINE
  5
316
100
AcDbEntity
  8
0
  6
CONTINUOUS
 62
    7
370
   25
100
AcDbLine
 10
49.1107028895
 20
18.3471532422
 11
49.0627838895
 21
18.3300658422
  0
LINE
  5
317
100
AcDbEntity
  8
0
  6
CONTINUOUS
 62
    7
370
   25
100
AcDbLine
 10
49.0627838895
 20
18.3300658422
 11
49.0201032895
 21
18.3229243422
  0
LINE
  5
318
100
AcDbEntity
  8
0
  6
CONTINUOUS
 62
    7
370
   25
100
AcDbLine
 10
49.0201032895
 20
18.3229243422
 11
48.9830242895
 21
18.3254981422
  0
LINE
  5
319
100
AcDbEntity
  8
0
  6
CONTINUOUS
 62
    7
370
   25
100
AcDbLine
 10
48.9830242895
 20
18.3254981422
 11
48.9519569895
 21
18.3375371422
  0
LINE
  5
31A
100
AcDbEntity
  8
0
  6
CONTINUOUS
 62
    7
370
   25
100
AcDbLine
 10
48.9519569895
 20
18.3375371422
 11
48.4725517895
 21
18.6665849422
  0
LINE
  5
31B
100
AcDbEntity
  8
0
  6
CONTINUOUS
 62
    7
370
   25
100
AcDbLine
 10
48.4725517895
 20
18.6665849422
 11
47.9850908895
 21
18.9835764422
  0
LINE
  5
31C
100
AcDbEntity
  8
0
  6
CONTINUOUS
 62
    7
370
   25
100
AcDbLine
 10
47.9850908895
 20
18.9835764422
 11
47.9620793895
 21
19.0076717422
  0
LINE
  5
31D
100
AcDbEntity
  8
0
  6
CONTINUOUS
 62
    7
370
   25
100
AcDbLine
 10
47.9620793895
 20
19.0076717422
 11
47.9455119895
 21
19.0409433422
  0
LINE
  5
31E
100
AcDbEntity
  8
0
  6
CONTINUOUS
 62
    7
370
   25
100
AcDbLine
 10
47.9455119895
 20
19.0409433422
 11
47.9357766895
 21
19.0831080422
  0
LINE
  5
31F
100
AcDbEntity
  8
0
  6
CONTINUOUS
 62
    7
370
   25
100
AcDbLine
 10
47.9357766895
 20
19.0831080422
 11
47.9332255895
 21
19.1339184422
  0
LINE
  5
320
100
AcDbEntity
  8
0
  6
CONTINUOUS
 62
    7
370
   25
100
AcDbLine
 10
47.9332255895
 20
19.1339184422
 11
47.9382020895
 21
19.1930609422
  0
LINE
  5
321
100
AcDbEntity
  8
0
  6
CONTINUOUS
 62
    7
370
   25
100
AcDbLine
 10
47.9382020895
 20
19.1930609422
 11
47.9510720895
 21
19.2602550422
  0
LINE
  5
322
100
AcDbEntity
  8
0
  6
CONTINUOUS
 62
    7
370
   25
100
AcDbLine
 10
47.9510720895
 20
19.2602550422
 11
47.9721569895
 21
19.3351896422
  0
LINE
  5
323
100
AcDbEntity
  8
0
  6
CONTINUOUS
 62
    7
370
   25
100
AcDbLine
 10
47.9721569895
 20
19.3351896422
 11
48.0610635895
 21
19.5677491422
  0
LINE
  5
324
100
AcDbEntity
  8
0
  6
CONTINUOUS
 62
    7
370
   25
100
AcDbLine
 10
48.0610635895
 20
19.5677491422
 11
48.1292962895
 21
19.7629961422
  0
LINE
  5
325
100
AcDbEntity
  8
0
  6
CONTINUOUS
 62
    7
370
   25
100
AcDbLine
 10
48.1292962895
 20
19.7629961422
 11
48.2001122895
 21
19.9965424422
  0
LINE
  5
326
100
AcDbEntity
  8
0
  6
CONTINUOUS
 62
    7
370
   25
100
AcDbLine
 10
48.2001122895
 20
19.9965424422
 11
48.2714667895
 21
20.2728695422
  0
LINE
  5
327
100
AcDbEntity
  8
0
  6
CONTINUOUS
 62
    7
370
   25
100
AcDbLine
 10
48.2714667895
 20
20.2728695422
 11
48.3394363895
 21
20.5904615422
  0
LINE
  5
328
100
AcDbEntity
  8
0
  6
CONTINUOUS
 62
    7
370
   25
100
AcDbLine
 10
48.3394363895
 20
20.5904615422
 11
48.4008103895
 21
20.9502731422
  0
LINE
  5
329
100
AcDbEntity
  8
0
  6
CONTINUOUS
 62
    7
370
   25
100
AcDbLine
 10
48.4008103895
 20
20.9502731422
 11
48.4518866895
 21
21.3501116422
  0
LINE
  5
32A
100
AcDbEntity
  8
0
  6
CONTINUOUS
 62
    7
370
   25
100
AcDbLine
 10
48.4518866895
 20
21.3501116422
 11
48.4897427895
 21
21.7934330422
  0
LINE
  5
32B
100
AcDbEntity
  8
0
  6
CONTINUOUS
 62
    7
370
   25
100
AcDbLine
 10
48.4897427895
 20
21.7934330422
 11
48.5090927895
 21
22.2210733422
  0
ARC
  5
32C
100
AcDbEntity
  8
0
  6
CONTINUOUS
 62
    7
370
   25
100
AcDbCircle
 10
36.0000033638
 20
8.0073e-05
 40
25.4999972574312
100
AcDbArc
 50
60.6230925225
 51
63.1269464074
  0
LINE
  5
32D
100
AcDbEntity
  8
0
  6
CONTINUOUS
 62
    7
370
   25
100
AcDbLine
 10
47.5263908401
 20
22.7463380482
 11
47.1815713401
 21
22.4926649482
  0
LINE
  5
32E
100
AcDbEntity
  8
0
  6
CONTINUOUS
 62
    7
370
   25
100
AcDbLine
 10
47.1815713401
 20
22.4926649482
 11
46.8339947401
 21
22.2148925482
  0
LINE
  5
32F
100
AcDbEntity
  8
0
  6
CONTINUOUS
 62
    7
370
   25
100
AcDbLine
 10
46.8339947401
 20
22.2148925482
 11
46.5299176401
 21
21.9502858482
  0
LINE
  5
330
100
AcDbEntity
  8
0
  6
CONTINUOUS
 62
    7
370
   25
100
AcDbLine
 10
46.5299176401
 20
21.9502858482
 11
46.2648428401
 21
21.6993546482
  0
LINE
  5
331
100
AcDbEntity
  8
0
  6
CONTINUOUS
 62
    7
370
   25
100
AcDbLine
 10
46.2648428401
 20
21.6993546482
 11
46.0385366401
 21
21.4663952482
  0
LINE
  5
332
100
AcDbEntity
  8
0
  6
CONTINUOUS
 62
    7
370
   25
100
AcDbLine
 10
46.0385366401
 20
21.4663952482
 11
45.8484214401
 21
21.2535471482
  0
LINE
  5
333
100
AcDbEntity
  8
0
  6
CONTINUOUS
 62
    7
370
   25
100
AcDbLine
 10
45.8484214401
 20
21.2535471482
 11
45.6935780401
 21
21.0649142482
  0
LINE
  5
334
100
AcDbEntity
  8
0
  6
CONTINUOUS
 62
    7
370
   25
100
AcDbLine
 10
45.6935780401
 20
21.0649142482
 11
45.5691441401
 21
20.8997074482
  0
LINE
  5
335
100
AcDbEntity
  8
0
  6
CONTINUOUS
 62
    7
370
   25
100
AcDbLine
 10
45.5691441401
 20
20.8997074482
 11
45.4251718401
 21
20.6965811482
  0
LINE
  5
336
100
AcDbEntity
  8
0
  6
CONTINUOUS
 62
    7
370
   25
100
AcDbLine
 10
45.4251718401
 20
20.6965811482
 11
45.3745801401
 21
20.6374183482
  0
LINE
  5
337
100
AcDbEntity
  8
0
  6
CONTINUOUS
 62
    7
370
   25
100
AcDbLine
 10
45.3745801401
 20
20.6374183482
 11
45.3258605401
 21
20.5893862482
  0
LINE
  5
338
100
AcDbEntity
  8
0
  6
CONTINUOUS
 62
    7
370
   25
100
AcDbLine
 10
45.3258605401
 20
20.5893862482
 11
45.2794501401
 21
20.5523906482
  0
LINE
  5
339
100
AcDbEntity
  8
0
  6
CONTINUOUS
 62
    7
370
   25
100
AcDbLine
 10
45.2794501401
 20
20.5523906482
 11
45.2357854401
 21
20.5262830482
  0
LINE
  5
33A
100
AcDbEntity
  8
0
  6
CONTINUOUS
 62
    7
370
   25
100
AcDbLine
 10
45.2357854401
 20
20.5262830482
 11
45.1953181401
 21
20.5109522482
  0
LINE
  5
33B
100
AcDbEntity
  8
0
  6
CONTINUOUS
 62
    7
370
   25
100
AcDbLine
 10
45.1953181401
 20
20.5109522482
 11
45.1584495401
 21
20.5062427482
  0
LINE
  5
33C
100
AcDbEntity
  8
0
  6
CONTINUOUS
 62
    7
370
   25
100
AcDbLine
 10
45.1584495401
 20
20.5062427482
 11
45.1256304401
 21
20.5119895482
  0
LINE
  5
33D
100
AcDbEntity
  8
0
  6
CONTINUOUS
 62
    7
370
   25
100
AcDbLine
 10
45.1256304401
 20
20.5119895482
 11
44.5912429401
 21
20.7411874482
  0
LINE
  5
33E
100
AcDbEntity
  8
0
  6
CONTINUOUS
 62
    7
370
   25
100
AcDbLine
 10
44.5912429401
 20
20.7411874482
 11
44.0513064401
 21
20.9569891482
  0
LINE
  5
33F
100
AcDbEntity
  8
0
  6
CONTINUOUS
 62
    7
370
   25
100
AcDbLine
 10
44.0513064401
 20
20.9569891482
 11
44.0240363401
 21
20.9761321482
  0
LINE
  5
340
100
AcDbEntity
  8
0
  6
CONTINUOUS
 62
    7
370
   25
100
AcDbLine
 10
44.0240363401
 20
20.9761321482
 11
44.0012962401
 21
21.0055323482
  0
LINE
  5
341
100
AcDbEntity
  8
0
  6
CONTINUOUS
 62
    7
370
   25
100
AcDbLine
 10
44.0012962401
 20
21.0055323482
 11
43.9835221401
 21
21.0449875482
  0
LINE
  5
342
100
AcDbEntity
  8
0
  6
CONTINUOUS
 62
    7
370
   25
100
AcDbLine
 10
43.9835221401
 20
21.0449875482
 11
43.9711073401
 21
21.0943239482
  0
LINE
  5
343
100
AcDbEntity
  8
0
  6
CONTINUOUS
 62
    7
370
   25
100
AcDbLine
 10
43.9711073401
 20
21.0943239482
 11
43.9644501401
 21
21.1533009482
  0
LINE
  5
344
100
AcDbEntity
  8
0
  6
CONTINUOUS
 62
    7
370
   25
100
AcDbLine
 10
43.9644501401
 20
21.1533009482
 11
43.9639639401
 21
21.2217146482
  0
LINE
  5
345
100
AcDbEntity
  8
0
  6
CONTINUOUS
 62
    7
370
   25
100
AcDbLine
 10
43.9639639401
 20
21.2217146482
 11
43.9700246401
 21
21.2993229482
  0
LINE
  5
346
100
AcDbEntity
  8
0
  6
CONTINUOUS
 62
    7
370
   25
100
AcDbLine
 10
43.9700246401
 20
21.2993229482
 11
44.0118528401
 21
21.5447586482
  0
LINE
  5
347
100
AcDbEntity
  8
0
  6
CONTINUOUS
 62
    7
370
   25
100
AcDbLine
 10
44.0118528401
 20
21.5447586482
 11
44.0406836401
 21
21.7495655482
  0
LINE
  5
348
100
AcDbEntity
  8
0
  6
CONTINUOUS
 62
    7
370
   25
100
AcDbLine
 10
44.0406836401
 20
21.7495655482
 11
44.0645763401
 21
21.9924399482
  0
LINE
  5
349
100
AcDbEntity
  8
0
  6
CONTINUOUS
 62
    7
370
   25
100
AcDbLine
 10
44.0645763401
 20
21.9924399482
 11
44.0806510401
 21
22.2773780482
  0
LINE
  5
34A
100
AcDbEntity
  8
0
  6
CONTINUOUS
 62
    7
370
   25
100
AcDbLine
 10
44.0806510401
 20
22.2773780482
 11
44.0853555401
 21
22.6021278482
  0
LINE
  5
34B
100
AcDbEntity
  8
0
  6
CONTINUOUS
 62
    7
370
   25
100
AcDbLine
 10
44.0853555401
 20
22.6021278482
 11
44.0753545401
 21
22.9669992482
  0
LINE
  5
34C
100
AcDbEntity
  8
0
  6
CONTINUOUS
 62
    7
370
   25
100
AcDbLine
 10
44.0753545401
 20
22.9669992482
 11
44.0474447401
 21
23.3691194482
  0
LINE
  5
34D
100
AcDbEntity
  8
0
  6
CONTINUOUS
 62
    7
370
   25
100
AcDbLine
 10
44.0474447401
 20
23.3691194482
 11
43.9980857401
 21
23.8113078482
  0
LINE
  5
34E
100
AcDbEntity
  8
0
  6
CONTINUOUS
 62
    7
370
   25
100
AcDbLine
 10
43.9980857401
 20
23.8113078482
 11
43.9336354401
 21
24.2345061482
  0
ARC
  5
34F
100
AcDbEntity
  8
0
  6
CONTINUOUS
 62
    7
370
   25
100
AcDbCircle
 10
36.0000033638
 20
8.0073e-05
 40
25.49999853171131
100
AcDbArc
 50
71.8730886635
 51
74.3769421945
  0
LINE
  5
350
100
AcDbEntity
  8
0
  6
CONTINUOUS
 62
    7
370
   25
100
AcDbLine
 10
42.8673418926
 20
24.5579624461
 11
42.5786370926
 21
24.2418926461
  0
LINE
  5
351
100
AcDbEntity
  8
0
  6
CONTINUOUS
 62
    7
370
   25
100
AcDbLine
 10
42.5786370926
 20
24.2418926461
 11
42.2919297926
 21
23.9016487461
  0
LINE
  5
352
100
AcDbEntity
  8
0
  6
CONTINUOUS
 62
    7
370
   25
100
AcDbLine
 10
42.2919297926
 20
23.9016487461
 11
42.0453176926
 21
23.5828039461
  0
LINE
  5
353
100
AcDbEntity
  8
0
  6
CONTINUOUS
 62
    7
370
   25
100
AcDbLine
 10
42.0453176926
 20
23.5828039461
 11
41.8342903926
 21
23.2849807461
  0
LINE
  5
354
100
AcDbEntity
  8
0
  6
CONTINUOUS
 62
    7
370
   25
100
AcDbLine
 10
41.8342903926
 20
23.2849807461
 11
41.6577807926
 21
23.0123474461
  0
LINE
  5
355
100
AcDbEntity
  8
0
  6
CONTINUOUS
 62
    7
370
   25
100
AcDbLine
 10
41.6577807926
 20
23.0123474461
 11
41.5128432926
 21
22.7664994461
  0
LINE
  5
356
100
AcDbEntity
  8
0
  6
CONTINUOUS
 62
    7
370
   25
100
AcDbLine
 10
41.5128432926
 20
22.7664994461
 11
41.3977755926
 21
22.5512827461
  0
LINE
  5
357
100
AcDbEntity
  8
0
  6
CONTINUOUS
 62
    7
370
   25
100
AcDbLine
 10
41.3977755926
 20
22.5512827461
 11
41.3079628926
 21
22.3649744461
  0
LINE
  5
358
100
AcDbEntity
  8
0
  6
CONTINUOUS
 62
    7
370
   25
100
AcDbLine
 10
41.3079628926
 20
22.3649744461
 11
41.2063849926
 21
22.1376636461
  0
LINE
  5
359
100
AcDbEntity
  8
0
  6
CONTINUOUS
 62
    7
370
   25
100
AcDbLine
 10
41.2063849926
 20
22.1376636461
 11
41.1683073926
 21
22.0697675461
  0
LINE
  5
35A
100
AcDbEntity
  8
0
  6
CONTINUOUS
 62
    7
370
   25
100
AcDbLine
 10
41.1683073926
 20
22.0697675461
 11
41.1298944926
 21
22.0131537461
  0
LINE
  5
35B
100
AcDbEntity
  8
0
  6
CONTINUOUS
 62
    7
370
   25
100
AcDbLine
 10
41.1298944926
 20
22.0131537461
 11
41.0915933926
 21
21.9678147461
  0
LINE
  5
35C
100
AcDbEntity
  8
0
  6
CONTINUOUS
 62
    7
370
   25
100
AcDbLine
 10
41.0915933926
 20
21.9678147461
 11
41.0538609926
 21
21.9336902461
  0
LINE
  5
35D
100
AcDbEntity
  8
0
  6
CONTINUOUS
 62
    7
370
   25
100
AcDbLine
 10
41.0538609926
 20
21.9336902461
 11
41.0171621926
 21
21.9107592461
  0
LINE
  5
35E
100
AcDbEntity
  8
0
  6
CONTINUOUS
 62
    7
370
   25
100
AcDbLine
 10
41.0171621926
 20
21.9107592461
 11
40.9819206926
 21
21.8989475461
  0
LINE
  5
35F
100
AcDbEntity
  8
0
  6
CONTINUOUS
 62
    7
370
   25
100
AcDbLine
 10
40.9819206926
 20
21.8989475461
 11
40.9486111926
 21
21.8981811461
  0
LINE
  5
360
100
AcDbEntity
  8
0
  6
CONTINUOUS
 62
    7
370
   25
100
AcDbLine
 10
40.9486111926
 20
21.8981811461
 11
40.3797773926
 21
22.0187212461
  0
LINE
  5
361
100
AcDbEntity
  8
0
  6
CONTINUOUS
 62
    7
370
   25
100
AcDbLine
 10
40.3797773926
 20
22.0187212461
 11
39.8081147926
 21
22.1250400461
  0
LINE
  5
362
100
AcDbEntity
  8
0
  6
CONTINUOUS
 62
    7
370
   25
100
AcDbLine
 10
39.8081147926
 20
22.1250400461
 11
39.7776340926
 21
22.1384950461
  0
LINE
  5
363
100
AcDbEntity
  8
0
  6
CONTINUOUS
 62
    7
370
   25
100
AcDbLine
 10
39.7776340926
 20
22.1384950461
 11
39.7495952926
 21
22.1628939461
  0
LINE
  5
364
100
AcDbEntity
  8
0
  6
CONTINUOUS
 62
    7
370
   25
100
AcDbLine
 10
39.7495952926
 20
22.1628939461
 11
39.7244653926
 21
22.1981234461
  0
LINE
  5
365
100
AcDbEntity
  8
0
  6
CONTINUOUS
 62
    7
370
   25
100
AcDbLine
 10
39.7244653926
 20
22.1981234461
 11
39.7026640926
 21
22.2440899461
  0
LINE
  5
366
100
AcDbEntity
  8
0
  6
CONTINUOUS
 62
    7
370
   25
100
AcDbLine
 10
39.7026640926
 20
22.2440899461
 11
39.6846289926
 21
22.3006349461
  0
LINE
  5
367
100
AcDbEntity
  8
0
  6
CONTINUOUS
 62
    7
370
   25
100
AcDbLine
 10
39.6846289926
 20
22.3006349461
 11
39.6708051926
 21
22.3676392461
  0
LINE
  5
368
100
AcDbEntity
  8
0
  6
CONTINUOUS
 62
    7
370
   25
100
AcDbLine
 10
39.6708051926
 20
22.3676392461
 11
39.6616088926
 21
22.4449386461
  0
LINE
  5
369
100
AcDbEntity
  8
0
  6
CONTINUOUS
 62
    7
370
   25
100
AcDbLine
 10
39.6616088926
 20
22.4449386461
 11
39.6547511926
 21
22.6938186461
  0
LINE
  5
36A
100
AcDbEntity
  8
0
  6
CONTINUOUS
 62
    7
370
   25
100
AcDbLine
 10
39.6547511926
 20
22.6938186461
 11
39.6430721926
 21
22.9003149461
  0
LINE
  5
36B
100
AcDbEntity
  8
0
  6
CONTINUOUS
 62
    7
370
   25
100
AcDbLine
 10
39.6430721926
 20
22.9003149461
 11
39.6191233926
 21
23.1431837461
  0
LINE
  5
36C
100
AcDbEntity
  8
0
  6
CONTINUOUS
 62
    7
370
   25
100
AcDbLine
 10
39.6191233926
 20
23.1431837461
 11
39.5793005926
 21
23.4257828461
  0
LINE
  5
36D
100
AcDbEntity
  8
0
  6
CONTINUOUS
 62
    7
370
   25
100
AcDbLine
 10
39.5793005926
 20
23.4257828461
 11
39.5205590926
 21
23.7452104461
  0
LINE
  5
36E
100
AcDbEntity
  8
0
  6
CONTINUOUS
 62
    7
370
   25
100
AcDbLine
 10
39.5205590926
 20
23.7452104461
 11
39.4395673926
 21
24.1011198461
  0
LINE
  5
36F
100
AcDbEntity
  8
0
  6
CONTINUOUS
 62
    7
370
   25
100
AcDbLine
 10
39.4395673926
 20
24.1011198461
 11
39.3337440926
 21
24.4900685461
  0
LINE
  5
370
100
AcDbEntity
  8
0
  6
CONTINUOUS
 62
    7
370
   25
100
AcDbLine
 10
39.3337440926
 20
24.4900685461
 11
39.1990667926
 21
24.9141309461
  0
LINE
  5
371
100
AcDbEntity
  8
0
  6
CONTINUOUS
 62
    7
370
   25
100
AcDbLine
 10
39.1990667926
 20
24.9141309461
 11
39.0532930926
 21
25.3166239461
  0
ARC
  5
372
100
AcDbEntity
  8
0
  6
CONTINUOUS
 62
    7
370
   25
100
AcDbCircle
 10
36.0000033638
 20
8.0073e-05
 40
25.49999944791042
100
AcDbArc
 50
83.12308403430001
 51
85.6269376181
  0
LINE
  5
373
100
AcDbEntity
  8
0
  6
CONTINUOUS
 62
    7
370
   25
100
AcDbLine
 10
37.944384829
 20
25.4258416656
 11
37.722889629
 21
25.0595215656
  0
LINE
  5
374
100
AcDbEntity
  8
0
  6
CONTINUOUS
 62
    7
370
   25
100
AcDbLine
 10
37.722889629
 20
25.0595215656
 11
37.508069629
 21
24.6698815656
  0
LINE
  5
375
100
AcDbEntity
  8
0
  6
CONTINUOUS
 62
    7
370
   25
100
AcDbLine
 10
37.508069629
 20
24.6698815656
 11
37.328399629
 21
24.3090515656
  0
LINE
  5
376
100
AcDbEntity
  8
0
  6
CONTINUOUS
 62
    7
370
   25
100
AcDbLine
 10
37.328399629
 20
24.3090515656
 11
37.179529629
 21
23.9757815656
  0
LINE
  5
377
100
AcDbEntity
  8
0
  6
CONTINUOUS
 62
    7
370
   25
100
AcDbLine
 10
37.179529629
 20
23.9757815656
 11
37.059599629
 21
23.6739515656
  0
LINE
  5
378
100
AcDbEntity
  8
0
  6
CONTINUOUS
 62
    7
370
   25
100
AcDbLine
 10
37.059599629
 20
23.6739515656
 11
36.965409629
 21
23.4045515656
  0
LINE
  5
379
100
AcDbEntity
  8
0
  6
CONTINUOUS
 62
    7
370
   25
100
AcDbLine
 10
36.965409629
 20
23.4045515656
 11
36.894539629
 21
23.1710215656
  0
LINE
  5
37A
100
AcDbEntity
  8
0
  6
CONTINUOUS
 62
    7
370
   25
100
AcDbLine
 10
36.894539629
 20
23.1710215656
 11
36.842799629
 21
22.9707715656
  0
LINE
  5
37B
100
AcDbEntity
  8
0
  6
CONTINUOUS
 62
    7
370
   25
100
AcDbLine
 10
36.842799629
 20
22.9707715656
 11
36.787519629
 21
22.7280115656
  0
LINE
  5
37C
100
AcDbEntity
  8
0
  6
CONTINUOUS
 62
    7
370
   25
100
AcDbLine
 10
36.787519629
 20
22.7280115656
 11
36.763419629
 21
22.6539915656
  0
LINE
  5
37D
100
AcDbEntity
  8
0
  6
CONTINUOUS
 62
    7
370
   25
100
AcDbLine
 10
36.763419629
 20
22.6539915656
 11
36.736789629
 21
22.5909715656
  0
LINE
  5
37E
100
AcDbEntity
  8
0
  6
CONTINUOUS
 62
    7
370
   25
100
AcDbLine
 10
36.736789629
 20
22.5909715656
 11
36.708069629
 21
22.5390315656
  0
LINE
  5
37F
100
AcDbEntity
  8
0
  6
CONTINUOUS
 62
    7
370
   25
100
AcDbLine
 10
36.708069629
 20
22.5390315656
 11
36.677719629
 21
22.4982015656
  0
LINE
  5
380
100
AcDbEntity
  8
0
  6
CONTINUOUS
 62
    7
370
   25
100
AcDbLine
 10
36.677719629
 20
22.4982015656
 11
36.646199629
 21
22.4685515656
  0
LINE
  5
381
100
AcDbEntity
  8
0
  6
CONTINUOUS
 62
    7
370
   25
100
AcDbLine
 10
36.646199629
 20
22.4685515656
 11
36.613939629
 21
22.4500915656
  0
LINE
  5
382
100
AcDbEntity
  8
0
  6
CONTINUOUS
 62
    7
370
   25
100
AcDbLine
 10
36.613939629
 20
22.4500915656
 11
36.581419629
 21
22.4428415656
  0
LINE
  5
383
100
AcDbEntity
  8
0
  6
CONTINUOUS
 62
    7
370
   25
100
AcDbLine
 10
36.581419629
 20
22.4428415656
 11
35.999999629
 21
22.4500915656
  0
LINE
  5
384
100
AcDbEntity
  8
0
  6
CONTINUOUS
 62
    7
370
   25
100
AcDbLine
 10
35.999999629
 20
22.4500915656
 11
35.418579629
 21
22.4428415656
  0
LINE
  5
385
100
AcDbEntity
  8
0
  6
CONTINUOUS
 62
    7
370
   25
100
AcDbLine
 10
35.418579629
 20
22.4428415656
 11
35.386059629
 21
22.4500915656
  0
LINE
  5
386
100
AcDbEntity
  8
0
  6
CONTINUOUS
 62
    7
370
   25
100
AcDbLine
 10
35.386059629
 20
22.4500915656
 11
35.353799629
 21
22.4685515656
  0
LINE
  5
387
100
AcDbEntity
  8
0
  6
CONTINUOUS
 62
    7
370
   25
100
AcDbLine
 10
35.353799629
 20
22.4685515656
 11
35.322279629
 21
22.4982015656
  0
LINE
  5
388
100
AcDbEntity
  8
0
  6
CONTINUOUS
 62
    7
370
   25
100
AcDbLine
 10
35.322279629
 20
22.4982015656
 11
35.291929629
 21
22.5390315656
  0
LINE
  5
389
100
AcDbEntity
  8
0
  6
CONTINUOUS
 62
    7
370
   25
100
AcDbLine
 10
35.291929629
 20
22.5390315656
 11
35.263209629
 21
22.5909715656
  0
LINE
  5
38A
100
AcDbEntity
  8
0
  6
CONTINUOUS
 62
    7
370
   25
100
AcDbLine
 10
35.263209629
 20
22.5909715656
 11
35.236579629
 21
22.6539915656
  0
LINE
  5
38B
100
AcDbEntity
  8
0
  6
CONTINUOUS
 62
    7
370
   25
100
AcDbLine
 10
35.236579629
 20
22.6539915656
 11
35.212479629
 21
22.7280115656
  0
LINE
  5
38C
100
AcDbEntity
  8
0
  6
CONTINUOUS
 62
    7
370
   25
100
AcDbLine
 10
35.212479629
 20
22.7280115656
 11
35.157199629
 21
22.9707715656
  0
LINE
  5
38D
100
AcDbEntity
  8
0
  6
CONTINUOUS
 62
    7
370
   25
100
AcDbLine
 10
35.157199629
 20
22.9707715656
 11
35.105459629
 21
23.1710215656
  0
LINE
  5
38E
100
AcDbEntity
  8
0
  6
CONTINUOUS
 62
    7
370
   25
100
AcDbLine
 10
35.105459629
 20
23.1710215656
 11
35.034589629
 21
23.4045515656
  0
LINE
  5
38F
100
AcDbEntity
  8
0
  6
CONTINUOUS
 62
    7
370
   25
100
AcDbLine
 10
35.034589629
 20
23.4045515656
 11
34.940399629
 21
23.6739515656
  0
LINE
  5
390
100
AcDbEntity
  8
0
  6
CONTINUOUS
 62
    7
370
   25
100
AcDbLine
 10
34.940399629
 20
23.6739515656
 11
34.820469629
 21
23.9757815656
  0
LINE
  5
391
100
AcDbEntity
  8
0
  6
CONTINUOUS
 62
    7
370
   25
100
AcDbLine
 10
34.820469629
 20
23.9757815656
 11
34.671599629
 21
24.3090515656
  0
LINE
  5
392
100
AcDbEntity
  8
0
  6
CONTINUOUS
 62
    7
370
   25
100
AcDbLine
 10
34.671599629
 20
24.3090515656
 11
34.491929629
 21
24.6698815656
  0
LINE
  5
393
100
AcDbEntity
  8
0
  6
CONTINUOUS
 62
    7
370
   25
100
AcDbLine
 10
34.491929629
 20
24.6698815656
 11
34.277109629
 21
25.0595215656
  0
LINE
  5
394
100
AcDbEntity
  8
0
  6
CONTINUOUS
 62
    7
370
   25
100
AcDbLine
 10
34.277109629
 20
25.0595215656
 11
34.055614429
 21
25.4258416656
  0
ARC
  5
395
100
AcDbEntity
  8
0
  6
CONTINUOUS
 62
    7
370
   25
100
AcDbCircle
 10
36.0000033638
 20
8.0073e-05
 40
25.50000001747934
100
AcDbArc
 50
94.3730791167
 51
96.87693258199999
  0
LINE
  5
396
100
AcDbEntity
  8
0
  6
CONTINUOUS
 62
    7
370
   25
100
AcDbLine
 10
32.9467062248
 20
25.3166236261
 11
32.8009325248
 21
24.9141306261
  0
LINE
  5
397
100
AcDbEntity
  8
0
  6
CONTINUOUS
 62
    7
370
   25
100
AcDbLine
 10
32.8009325248
 20
24.9141306261
 11
32.6662552248
 21
24.4900682261
  0
LINE
  5
398
100
AcDbEntity
  8
0
  6
CONTINUOUS
 62
    7
370
   25
100
AcDbLine
 10
32.6662552248
 20
24.4900682261
 11
32.5604319248
 21
24.1011195261
  0
LINE
  5
399
100
AcDbEntity
  8
0
  6
CONTINUOUS
 62
    7
370
   25
100
AcDbLine
 10
32.5604319248
 20
24.1011195261
 11
32.4794402248
 21
23.7452101261
  0
LINE
  5
39A
100
AcDbEntity
  8
0
  6
CONTINUOUS
 62
    7
370
   25
100
AcDbLine
 10
32.4794402248
 20
23.7452101261
 11
32.4206987248
 21
23.4257825261
  0
LINE
  5
39B
100
AcDbEntity
  8
0
  6
CONTINUOUS
 62
    7
370
   25
100
AcDbLine
 10
32.4206987248
 20
23.4257825261
 11
32.3808759248
 21
23.1431834261
  0
LINE
  5
39C
100
AcDbEntity
  8
0
  6
CONTINUOUS
 62
    7
370
   25
100
AcDbLine
 10
32.3808759248
 20
23.1431834261
 11
32.3569271248
 21
22.9003146261
  0
LINE
  5
39D
100
AcDbEntity
  8
0
  6
CONTINUOUS
 62
    7
370
   25
100
AcDbLine
 10
32.3569271248
 20
22.9003146261
 11
32.3452481248
 21
22.6938183261
  0
LINE
  5
39E
100
AcDbEntity
  8
0
  6
CONTINUOUS
 62
    7
370
   25
100
AcDbLine
 10
32.3452481248
 20
22.6938183261
 11
32.3383904248
 21
22.4449383261
  0
LINE
  5
39F
100
AcDbEntity
  8
0
  6
CONTINUOUS
 62
    7
370
   25
100
AcDbLine
 10
32.3383904248
 20
22.4449383261
 11
32.3291941248
 21
22.3676389261
  0
LINE
  5
3A0
100
AcDbEntity
  8
0
  6
CONTINUOUS
 62
    7
370
   25
100
AcDbLine
 10
32.3291941248
 20
22.3676389261
 11
32.3153703248
 21
22.3006346261
  0
LINE
  5
3A1
100
AcDbEntity
  8
0
  6
CONTINUOUS
 62
    7
370
   25
100
AcDbLine
 10
32.3153703248
 20
22.3006346261
 11
32.2973352248
 21
22.2440896261
  0
LINE
  5
3A2
100
AcDbEntity
  8
0
  6
CONTINUOUS
 62
    7
370
   25
100
AcDbLine
 10
32.2973352248
 20
22.2440896261
 11
32.2755339248
 21
22.1981231261
  0
LINE
  5
3A3
100
AcDbEntity
  8
0
  6
CONTINUOUS
 62
    7
370
   25
100
AcDbLine
 10
32.2755339248
 20
22.1981231261
 11
32.2504040248
 21
22.1628936261
  0
LINE
  5
3A4
100
AcDbEntity
  8
0
  6
CONTINUOUS
 62
    7
370
   25
100
AcDbLine
 10
32.2504040248
 20
22.1628936261
 11
32.2223652248
 21
22.1384947261
  0
LINE
  5
3A5
100
AcDbEntity
  8
0
  6
CONTINUOUS
 62
    7
370
   25
100
AcDbLine
 10
32.2223652248
 20
22.1384947261
 11
32.1918845248
 21
22.1250397261
  0
LINE
  5
3A6
100
AcDbEntity
  8
0
  6
CONTINUOUS
 62
    7
370
   25
100
AcDbLine
 10
32.1918845248
 20
22.1250397261
 11
31.6202219248
 21
22.0187209261
  0
LINE
  5
3A7
100
AcDbEntity
  8
0
  6
CONTINUOUS
 62
    7
370
   25
100
AcDbLine
 10
31.6202219248
 20
22.0187209261
 11
31.0513881248
 21
21.8981808261
  0
LINE
  5
3A8
100
AcDbEntity
  8
0
  6
CONTINUOUS
 62
    7
370
   25
100
AcDbLine
 10
31.0513881248
 20
21.8981808261
 11
31.0180786248
 21
21.8989472261
  0
LINE
  5
3A9
100
AcDbEntity
  8
0
  6
CONTINUOUS
 62
    7
370
   25
100
AcDbLine
 10
31.0180786248
 20
21.8989472261
 11
30.9828371248
 21
21.9107589261
  0
LINE
  5
3AA
100
AcDbEntity
  8
0
  6
CONTINUOUS
 62
    7
370
   25
100
AcDbLine
 10
30.9828371248
 20
21.9107589261
 11
30.9461383248
 21
21.9336899261
  0
LINE
  5
3AB
100
AcDbEntity
  8
0
  6
CONTINUOUS
 62
    7
370
   25
100
AcDbLine
 10
30.9461383248
 20
21.9336899261
 11
30.9084059248
 21
21.9678144261
  0
LINE
  5
3AC
100
AcDbEntity
  8
0
  6
CONTINUOUS
 62
    7
370
   25
100
AcDbLine
 10
30.9084059248
 20
21.9678144261
 11
30.8701048248
 21
22.0131534261
  0
LINE
  5
3AD
100
AcDbEntity
  8
0
  6
CONTINUOUS
 62
    7
370
   25
100
AcDbLine
 10
30.8701048248
 20
22.0131534261
 11
30.8316919248
 21
22.0697672261
  0
LINE
  5
3AE
100
AcDbEntity
  8
0
  6
CONTINUOUS
 62
    7
370
   25
100
AcDbLine
 10
30.8316919248
 20
22.0697672261
 11
30.7936143248
 21
22.1376633261
  0
LINE
  5
3AF
100
AcDbEntity
  8
0
  6
CONTINUOUS
 62
    7
370
   25
100
AcDbLine
 10
30.7936143248
 20
22.1376633261
 11
30.6920364248
 21
22.3649741261
  0
LINE
  5
3B0
100
AcDbEntity
  8
0
  6
CONTINUOUS
 62
    7
370
   25
100
AcDbLine
 10
30.6920364248
 20
22.3649741261
 11
30.6022237248
 21
22.5512824261
  0
LINE
  5
3B1
100
AcDbEntity
  8
0
  6
CONTINUOUS
 62
    7
370
   25
100
AcDbLine
 10
30.6022237248
 20
22.5512824261
 11
30.4871560248
 21
22.7664991261
  0
LINE
  5
3B2
100
AcDbEntity
  8
0
  6
CONTINUOUS
 62
    7
370
   25
100
AcDbLine
 10
30.4871560248
 20
22.7664991261
 11
30.3422185248
 21
23.0123471261
  0
LINE
  5
3B3
100
AcDbEntity
  8
0
  6
CONTINUOUS
 62
    7
370
   25
100
AcDbLine
 10
30.3422185248
 20
23.0123471261
 11
30.1657089248
 21
23.2849804261
  0
LINE
  5
3B4
100
AcDbEntity
  8
0
  6
CONTINUOUS
 62
    7
370
   25
100
AcDbLine
 10
30.1657089248
 20
23.2849804261
 11
29.9546816248
 21
23.5828036261
  0
LINE
  5
3B5
100
AcDbEntity
  8
0
  6
CONTINUOUS
 62
    7
370
   25
100
AcDbLine
 10
29.9546816248
 20
23.5828036261
 11
29.7080695248
 21
23.9016484261
  0
LINE
  5
3B6
100
AcDbEntity
  8
0
  6
CONTINUOUS
 62
    7
370
   25
100
AcDbLine
 10
29.7080695248
 20
23.9016484261
 11
29.4213622248
 21
24.2418923261
  0
LINE
  5
3B7
100
AcDbEntity
  8
0
  6
CONTINUOUS
 62
    7
370
   25
100
AcDbLine
 10
29.4213622248
 20
24.2418923261
 11
29.1326574248
 21
24.5579621261
  0
ARC
  5
3B8
100
AcDbEntity
  8
0
  6
CONTINUOUS
 62
    7
370
   25
100
AcDbCircle
 10
36.0000033638
 20
8.0073e-05
 40
25.50000021915267
100
AcDbArc
 50
105.623074034
 51
108.1269272177
  0
LINE
  5
3B9
100
AcDbEntity
  8
0
  6
CONTINUOUS
 62
    7
370
   25
100
AcDbLine
 10
28.0663640452
 20
24.2345055529
 11
28.0019137452
 21
23.8113072529
  0
LINE
  5
3BA
100
AcDbEntity
  8
0
  6
CONTINUOUS
 62
    7
370
   25
100
AcDbLine
 10
28.0019137452
 20
23.8113072529
 11
27.9525547452
 21
23.3691188529
  0
LINE
  5
3BB
100
AcDbEntity
  8
0
  6
CONTINUOUS
 62
    7
370
   25
100
AcDbLine
 10
27.9525547452
 20
23.3691188529
 11
27.9246449452
 21
22.9669986529
  0
LINE
  5
3BC
100
AcDbEntity
  8
0
  6
CONTINUOUS
 62
    7
370
   25
100
AcDbLine
 10
27.9246449452
 20
22.9669986529
 11
27.9146439452
 21
22.6021272529
  0
LINE
  5
3BD
100
AcDbEntity
  8
0
  6
CONTINUOUS
 62
    7
370
   25
100
AcDbLine
 10
27.9146439452
 20
22.6021272529
 11
27.9193484452
 21
22.2773774529
  0
LINE
  5
3BE
100
AcDbEntity
  8
0
  6
CONTINUOUS
 62
    7
370
   25
100
AcDbLine
 10
27.9193484452
 20
22.2773774529
 11
27.9354231452
 21
21.9924393529
  0
LINE
  5
3BF
100
AcDbEntity
  8
0
  6
CONTINUOUS
 62
    7
370
   25
100
AcDbLine
 10
27.9354231452
 20
21.9924393529
 11
27.9593158452
 21
21.7495649529
  0
LINE
  5
3C0
100
AcDbEntity
  8
0
  6
CONTINUOUS
 62
    7
370
   25
100
AcDbLine
 10
27.9593158452
 20
21.7495649529
 11
27.9881466452
 21
21.5447580529
  0
LINE
  5
3C1
100
AcDbEntity
  8
0
  6
CONTINUOUS
 62
    7
370
   25
100
AcDbLine
 10
27.9881466452
 20
21.5447580529
 11
28.0299748452
 21
21.2993223529
  0
LINE
  5
3C2
100
AcDbEntity
  8
0
  6
CONTINUOUS
 62
    7
370
   25
100
AcDbLine
 10
28.0299748452
 20
21.2993223529
 11
28.0360355452
 21
21.2217140529
  0
LINE
  5
3C3
100
AcDbEntity
  8
0
  6
CONTINUOUS
 62
    7
370
   25
100
AcDbLine
 10
28.0360355452
 20
21.2217140529
 11
28.0355493452
 21
21.1533003529
  0
LINE
  5
3C4
100
AcDbEntity
  8
0
  6
CONTINUOUS
 62
    7
370
   25
100
AcDbLine
 10
28.0355493452
 20
21.1533003529
 11
28.0288921452
 21
21.0943233529
  0
LINE
  5
3C5
100
AcDbEntity
  8
0
  6
CONTINUOUS
 62
    7
370
   25
100
AcDbLine
 10
28.0288921452
 20
21.0943233529
 11
28.0164773452
 21
21.0449869529
  0
LINE
  5
3C6
100
AcDbEntity
  8
0
  6
CONTINUOUS
 62
    7
370
   25
100
AcDbLine
 10
28.0164773452
 20
21.0449869529
 11
27.9987032452
 21
21.0055317529
  0
LINE
  5
3C7
100
AcDbEntity
  8
0
  6
CONTINUOUS
 62
    7
370
   25
100
AcDbLine
 10
27.9987032452
 20
21.0055317529
 11
27.9759631452
 21
20.9761315529
  0
LINE
  5
3C8
100
AcDbEntity
  8
0
  6
CONTINUOUS
 62
    7
370
   25
100
AcDbLine
 10
27.9759631452
 20
20.9761315529
 11
27.9486930452
 21
20.9569885529
  0
LINE
  5
3C9
100
AcDbEntity
  8
0
  6
CONTINUOUS
 62
    7
370
   25
100
AcDbLine
 10
27.9486930452
 20
20.9569885529
 11
27.4087565452
 21
20.7411868529
  0
LINE
  5
3CA
100
AcDbEntity
  8
0
  6
CONTINUOUS
 62
    7
370
   25
100
AcDbLine
 10
27.4087565452
 20
20.7411868529
 11
26.8743690452
 21
20.5119889529
  0
LINE
  5
3CB
100
AcDbEntity
  8
0
  6
CONTINUOUS
 62
    7
370
   25
100
AcDbLine
 10
26.8743690452
 20
20.5119889529
 11
26.8415499452
 21
20.5062421529
  0
LINE
  5
3CC
100
AcDbEntity
  8
0
  6
CONTINUOUS
 62
    7
370
   25
100
AcDbLine
 10
26.8415499452
 20
20.5062421529
 11
26.8046813452
 21
20.5109516529
  0
LINE
  5
3CD
100
AcDbEntity
  8
0
  6
CONTINUOUS
 62
    7
370
   25
100
AcDbLine
 10
26.8046813452
 20
20.5109516529
 11
26.7642140452
 21
20.5262824529
  0
LINE
  5
3CE
100
AcDbEntity
  8
0
  6
CONTINUOUS
 62
    7
370
   25
100
AcDbLine
 10
26.7642140452
 20
20.5262824529
 11
26.7205493452
 21
20.5523900529
  0
LINE
  5
3CF
100
AcDbEntity
  8
0
  6
CONTINUOUS
 62
    7
370
   25
100
AcDbLine
 10
26.7205493452
 20
20.5523900529
 11
26.6741389452
 21
20.5893856529
  0
LINE
  5
3D0
100
AcDbEntity
  8
0
  6
CONTINUOUS
 62
    7
370
   25
100
AcDbLine
 10
26.6741389452
 20
20.5893856529
 11
26.6254193452
 21
20.6374177529
  0
LINE
  5
3D1
100
AcDbEntity
  8
0
  6
CONTINUOUS
 62
    7
370
   25
100
AcDbLine
 10
26.6254193452
 20
20.6374177529
 11
26.5748276452
 21
20.6965805529
  0
LINE
  5
3D2
100
AcDbEntity
  8
0
  6
CONTINUOUS
 62
    7
370
   25
100
AcDbLine
 10
26.5748276452
 20
20.6965805529
 11
26.4308553452
 21
20.8997068529
  0
LINE
  5
3D3
100
AcDbEntity
  8
0
  6
CONTINUOUS
 62
    7
370
   25
100
AcDbLine
 10
26.4308553452
 20
20.8997068529
 11
26.3064214452
 21
21.0649136529
  0
LINE
  5
3D4
100
AcDbEntity
  8
0
  6
CONTINUOUS
 62
    7
370
   25
100
AcDbLine
 10
26.3064214452
 20
21.0649136529
 11
26.1515780452
 21
21.2535465529
  0
LINE
  5
3D5
100
AcDbEntity
  8
0
  6
CONTINUOUS
 62
    7
370
   25
100
AcDbLine
 10
26.1515780452
 20
21.2535465529
 11
25.9614628452
 21
21.4663946529
  0
LINE
  5
3D6
100
AcDbEntity
  8
0
  6
CONTINUOUS
 62
    7
370
   25
100
AcDbLine
 10
25.9614628452
 20
21.4663946529
 11
25.7351566452
 21
21.6993540529
  0
LINE
  5
3D7
100
AcDbEntity
  8
0
  6
CONTINUOUS
 62
    7
370
   25
100
AcDbLine
 10
25.7351566452
 20
21.6993540529
 11
25.4700818452
 21
21.9502852529
  0
LINE
  5
3D8
100
AcDbEntity
  8
0
  6
CONTINUOUS
 62
    7
370
   25
100
AcDbLine
 10
25.4700818452
 20
21.9502852529
 11
25.1660047452
 21
22.2148919529
  0
LINE
  5
3D9
100
AcDbEntity
  8
0
  6
CONTINUOUS
 62
    7
370
   25
100
AcDbLine
 10
25.1660047452
 20
22.2148919529
 11
24.8184281452
 21
22.4926643529
  0
LINE
  5
3DA
100
AcDbEntity
  8
0
  6
CONTINUOUS
 62
    7
370
   25
100
AcDbLine
 10
24.8184281452
 20
22.4926643529
 11
24.4736086452
 21
22.7463374529
  0
ARC
  5
3DB
100
AcDbEntity
  8
0
  6
CONTINUOUS
 62
    7
370
   25
100
AcDbCircle
 10
36.0000033638
 20
8.0073e-05
 40
25.5
100
AcDbArc
 50
116.8730687126
 51
119.3769220393
  0
LINE
  5
3DC
100
AcDbEntity
  8
0
  6
CONTINUOUS
 62
    7
370
   25
100
AcDbLine
 10
23.4909069452
 20
22.2210725529
 11
23.5102569452
 21
21.7934322529
  0
LINE
  5
3DD
100
AcDbEntity
  8
0
  6
CONTINUOUS
 62
    7
370
   25
100
AcDbLine
 10
23.5102569452
 20
21.7934322529
 11
23.5481130452
 21
21.3501108529
  0
LINE
  5
3DE
100
AcDbEntity
  8
0
  6
CONTINUOUS
 62
    7
370
   25
100
AcDbLine
 10
23.5481130452
 20
21.3501108529
 11
23.5991893452
 21
20.9502723529
  0
LINE
  5
3DF
100
AcDbEntity
  8
0
  6
CONTINUOUS
 62
    7
370
   25
100
AcDbLine
 10
23.5991893452
 20
20.9502723529
 11
23.6605633452
 21
20.5904607529
  0
LINE
  5
3E0
100
AcDbEntity
  8
0
  6
CONTINUOUS
 62
    7
370
   25
100
AcDbLine
 10
23.6605633452
 20
20.5904607529
 11
23.7285329452
 21
20.2728687529
  0
LINE
  5
3E1
100
AcDbEntity
  8
0
  6
CONTINUOUS
 62
    7
370
   25
100
AcDbLine
 10
23.7285329452
 20
20.2728687529
 11
23.7998874452
 21
19.9965416529
  0
LINE
  5
3E2
100
AcDbEntity
  8
0
  6
CONTINUOUS
 62
    7
370
   25
100
AcDbLine
 10
23.7998874452
 20
19.9965416529
 11
23.8707034452
 21
19.7629953529
  0
LINE
  5
3E3
100
AcDbEntity
  8
0
  6
CONTINUOUS
 62
    7
370
   25
100
AcDbLine
 10
23.8707034452
 20
19.7629953529
 11
23.9389361452
 21
19.5677483529
  0
LINE
  5
3E4
100
AcDbEntity
  8
0
  6
CONTINUOUS
 62
    7
370
   25
100
AcDbLine
 10
23.9389361452
 20
19.5677483529
 11
24.0278427452
 21
19.3351888529
  0
LINE
  5
3E5
100
AcDbEntity
  8
0
  6
CONTINUOUS
 62
    7
370
   25
100
AcDbLine
 10
24.0278427452
 20
19.3351888529
 11
24.0489276452
 21
19.2602542529
  0
LINE
  5
3E6
100
AcDbEntity
  8
0
  6
CONTINUOUS
 62
    7
370
   25
100
AcDbLine
 10
24.0489276452
 20
19.2602542529
 11
24.0617976452
 21
19.1930601529
  0
LINE
  5
3E7
100
AcDbEntity
  8
0
  6
CONTINUOUS
 62
    7
370
   25
100
AcDbLine
 10
24.0617976452
 20
19.1930601529
 11
24.0667741452
 21
19.1339176529
  0
LINE
  5
3E8
100
AcDbEntity
  8
0
  6
CONTINUOUS
 62
    7
370
   25
100
AcDbLine
 10
24.0667741452
 20
19.1339176529
 11
24.0642230452
 21
19.0831072529
  0
LINE
  5
3E9
100
AcDbEntity
  8
0
  6
CONTINUOUS
 62
    7
370
   25
100
AcDbLine
 10
24.0642230452
 20
19.0831072529
 11
24.0544877452
 21
19.0409425529
  0
LINE
  5
3EA
100
AcDbEntity
  8
0
  6
CONTINUOUS
 62
    7
370
   25
100
AcDbLine
 10
24.0544877452
 20
19.0409425529
 11
24.0379203452
 21
19.0076709529
  0
LINE
  5
3EB
100
AcDbEntity
  8
0
  6
CONTINUOUS
 62
    7
370
   25
100
AcDbLine
 10
24.0379203452
 20
19.0076709529
 11
24.0149088452
 21
18.9835756529
  0
LINE
  5
3EC
100
AcDbEntity
  8
0
  6
CONTINUOUS
 62
    7
370
   25
100
AcDbLine
 10
24.0149088452
 20
18.9835756529
 11
23.5274479452
 21
18.6665841529
  0
LINE
  5
3ED
100
AcDbEntity
  8
0
  6
CONTINUOUS
 62
    7
370
   25
100
AcDbLine
 10
23.5274479452
 20
18.6665841529
 11
23.0480427452
 21
18.3375363529
  0
LINE
  5
3EE
100
AcDbEntity
  8
0
  6
CONTINUOUS
 62
    7
370
   25
100
AcDbLine
 10
23.0480427452
 20
18.3375363529
 11
23.0169754452
 21
18.3254973529
  0
LINE
  5
3EF
100
AcDbEntity
  8
0
  6
CONTINUOUS
 62
    7
370
   25
100
AcDbLine
 10
23.0169754452
 20
18.3254973529
 11
22.9798964452
 21
18.3229235529
  0
LINE
  5
3F0
100
AcDbEntity
  8
0
  6
CONTINUOUS
 62
    7
370
   25
100
AcDbLine
 10
22.9798964452
 20
18.3229235529
 11
22.9372158452
 21
18.3300650529
  0
LINE
  5
3F1
100
AcDbEntity
  8
0
  6
CONTINUOUS
 62
    7
370
   25
100
AcDbLine
 10
22.9372158452
 20
18.3300650529
 11
22.8892968452
 21
18.3471524529
  0
LINE
  5
3F2
100
AcDbEntity
  8
0
  6
CONTINUOUS
 62
    7
370
   25
100
AcDbLine
 10
22.8892968452
 20
18.3471524529
 11
22.8365606452
 21
18.3743829529
  0
LINE
  5
3F3
100
AcDbEntity
  8
0
  6
CONTINUOUS
 62
    7
370
   25
100
AcDbLine
 10
22.8365606452
 20
18.3743829529
 11
22.7794066452
 21
18.4119873529
  0
LINE
  5
3F4
100
AcDbEntity
  8
0
  6
CONTINUOUS
 62
    7
370
   25
100
AcDbLine
 10
22.7794066452
 20
18.4119873529
 11
22.7182448452
 21
18.4601435529
  0
LINE
  5
3F5
100
AcDbEntity
  8
0
  6
CONTINUOUS
 62
    7
370
   25
100
AcDbLine
 10
22.7182448452
 20
18.4601435529
 11
22.5374110452
 21
18.6312791529
  0
LINE
  5
3F6
100
AcDbEntity
  8
0
  6
CONTINUOUS
 62
    7
370
   25
100
AcDbLine
 10
22.5374110452
 20
18.6312791529
 11
22.3831378452
 21
18.7690357529
  0
LINE
  5
3F7
100
AcDbEntity
  8
0
  6
CONTINUOUS
 62
    7
370
   25
100
AcDbLine
 10
22.3831378452
 20
18.7690357529
 11
22.1944692452
 21
18.9238355529
  0
LINE
  5
3F8
100
AcDbEntity
  8
0
  6
CONTINUOUS
 62
    7
370
   25
100
AcDbLine
 10
22.1944692452
 20
18.9238355529
 11
21.9664825452
 21
19.0955043529
  0
LINE
  5
3F9
100
AcDbEntity
  8
0
  6
CONTINUOUS
 62
    7
370
   25
100
AcDbLine
 10
21.9664825452
 20
19.0955043529
 11
21.6990766452
 21
19.2798372529
  0
LINE
  5
3FA
100
AcDbEntity
  8
0
  6
CONTINUOUS
 62
    7
370
   25
100
AcDbLine
 10
21.6990766452
 20
19.2798372529
 11
21.3901408452
 21
19.4742333529
  0
LINE
  5
3FB
100
AcDbEntity
  8
0
  6
CONTINUOUS
 62
    7
370
   25
100
AcDbLine
 10
21.3901408452
 20
19.4742333529
 11
21.0402842452
 21
19.6744332529
  0
LINE
  5
3FC
100
AcDbEntity
  8
0
  6
CONTINUOUS
 62
    7
370
   25
100
AcDbLine
 10
21.0402842452
 20
19.6744332529
 11
20.6451956452
 21
19.8790594529
  0
LINE
  5
3FD
100
AcDbEntity
  8
0
  6
CONTINUOUS
 62
    7
370
   25
100
AcDbLine
 10
20.6451956452
 20
19.8790594529
 11
20.2575125452
 21
20.0605874529
  0
ARC
  5
3FE
100
AcDbEntity
  8
0
  6
CONTINUOUS
 62
    7
370
   25
100
AcDbCircle
 10
36.0000116446
 20
9.15747e-05
 40
25.49999554458426
100
AcDbArc
 50
128.1230941237
 51
130.6269481667
  0
LINE
  5
3FF
100
AcDbEntity
  8
0
  6
CONTINUOUS
 62
    7
370
   25
100
AcDbLine
 10
19.3961675033
 20
19.3536993135
 11
19.4985742033
 21
18.9380511135
  0
LINE
  5
400
100
AcDbEntity
  8
0
  6
CONTINUOUS
 62
    7
370
   25
100
AcDbLine
 10
19.4985742033
 20
18.9380511135
 11
19.6221906033
 21
18.5106333135
  0
LINE
  5
401
100
AcDbEntity
  8
0
  6
CONTINUOUS
 62
    7
370
   25
100
AcDbLine
 10
19.6221906033
 20
18.5106333135
 11
19.7502901033
 21
18.1284421135
  0
LINE
  5
402
100
AcDbEntity
  8
0
  6
CONTINUOUS
 62
    7
370
   25
100
AcDbLine
 10
19.7502901033
 20
18.1284421135
 11
19.8806806033
 21
17.7875176135
  0
LINE
  5
403
100
AcDbEntity
  8
0
  6
CONTINUOUS
 62
    7
370
   25
100
AcDbLine
 10
19.8806806033
 20
17.7875176135
 11
20.0093033033
 21
17.4892883135
  0
LINE
  5
404
100
AcDbEntity
  8
0
  6
CONTINUOUS
 62
    7
370
   25
100
AcDbLine
 10
20.0093033033
 20
17.4892883135
 11
20.1331955033
 21
17.2321913135
  0
LINE
  5
405
100
AcDbEntity
  8
0
  6
CONTINUOUS
 62
    7
370
   25
100
AcDbLine
 10
20.1331955033
 20
17.2321913135
 11
20.2482135033
 21
17.0169480135
  0
LINE
  5
406
100
AcDbEntity
  8
0
  6
CONTINUOUS
 62
    7
370
   25
100
AcDbLine
 10
20.2482135033
 20
17.0169480135
 11
20.3532259033
 21
16.8387642135
  0
LINE
  5
407
100
AcDbEntity
  8
0
  6
CONTINUOUS
 62
    7
370
   25
100
AcDbLine
 10
20.3532259033
 20
16.8387642135
 11
20.4857943033
 21
16.6280181135
  0
LINE
  5
408
100
AcDbEntity
  8
0
  6
CONTINUOUS
 62
    7
370
   25
100
AcDbLine
 10
20.4857943033
 20
16.6280181135
 11
20.5210930033
 21
16.5586368135
  0
LINE
  5
409
100
AcDbEntity
  8
0
  6
CONTINUOUS
 62
    7
370
   25
100
AcDbLine
 10
20.5210930033
 20
16.5586368135
 11
20.5468247033
 21
16.4952446135
  0
LINE
  5
40A
100
AcDbEntity
  8
0
  6
CONTINUOUS
 62
    7
370
   25
100
AcDbLine
 10
20.5468247033
 20
16.4952446135
 11
20.5632437033
 21
16.4382094135
  0
LINE
  5
40B
100
AcDbEntity
  8
0
  6
CONTINUOUS
 62
    7
370
   25
100
AcDbLine
 10
20.5632437033
 20
16.4382094135
 11
20.5706542033
 21
16.3878776135
  0
LINE
  5
40C
100
AcDbEntity
  8
0
  6
CONTINUOUS
 62
    7
370
   25
100
AcDbLine
 10
20.5706542033
 20
16.3878776135
 11
20.5693319033
 21
16.3446238135
  0
LINE
  5
40D
100
AcDbEntity
  8
0
  6
CONTINUOUS
 62
    7
370
   25
100
AcDbLine
 10
20.5693319033
 20
16.3446238135
 11
20.5595738033
 21
16.3087594135
  0
LINE
  5
40E
100
AcDbEntity
  8
0
  6
CONTINUOUS
 62
    7
370
   25
100
AcDbLine
 10
20.5595738033
 20
16.3087594135
 11
20.5417052033
 21
16.2806377135
  0
LINE
  5
40F
100
AcDbEntity
  8
0
  6
CONTINUOUS
 62
    7
370
   25
100
AcDbLine
 10
20.5417052033
 20
16.2806377135
 11
20.1254527033
 21
15.8746382135
  0
LINE
  5
410
100
AcDbEntity
  8
0
  6
CONTINUOUS
 62
    7
370
   25
100
AcDbLine
 10
20.1254527033
 20
15.8746382135
 11
19.7194532033
 21
15.4583857135
  0
LINE
  5
411
100
AcDbEntity
  8
0
  6
CONTINUOUS
 62
    7
370
   25
100
AcDbLine
 10
19.7194532033
 20
15.4583857135
 11
19.6913315033
 21
15.4405171135
  0
LINE
  5
412
100
AcDbEntity
  8
0
  6
CONTINUOUS
 62
    7
370
   25
100
AcDbLine
 10
19.6913315033
 20
15.4405171135
 11
19.6554671033
 21
15.4307590135
  0
LINE
  5
413
100
AcDbEntity
  8
0
  6
CONTINUOUS
 62
    7
370
   25
100
AcDbLine
 10
19.6554671033
 20
15.4307590135
 11
19.6122133033
 21
15.4294367135
  0
LINE
  5
414
100
AcDbEntity
  8
0
  6
CONTINUOUS
 62
    7
370
   25
100
AcDbLine
 10
19.6122133033
 20
15.4294367135
 11
19.5618815033
 21
15.4368472135
  0
LINE
  5
415
100
AcDbEntity
  8
0
  6
CONTINUOUS
 62
    7
370
   25
100
AcDbLine
 10
19.5618815033
 20
15.4368472135
 11
19.5048463033
 21
15.4532662135
  0
LINE
  5
416
100
AcDbEntity
  8
0
  6
CONTINUOUS
 62
    7
370
   25
100
AcDbLine
 10
19.5048463033
 20
15.4532662135
 11
19.4414541033
 21
15.4789979135
  0
LINE
  5
417
100
AcDbEntity
  8
0
  6
CONTINUOUS
 62
    7
370
   25
100
AcDbLine
 10
19.4414541033
 20
15.4789979135
 11
19.3720728033
 21
15.5142966135
  0
LINE
  5
418
100
AcDbEntity
  8
0
  6
CONTINUOUS
 62
    7
370
   25
100
AcDbLine
 10
19.3720728033
 20
15.5142966135
 11
19.1613267033
 21
15.6468650135
  0
LINE
  5
419
100
AcDbEntity
  8
0
  6
CONTINUOUS
 62
    7
370
   25
100
AcDbLine
 10
19.1613267033
 20
15.6468650135
 11
18.9831429033
 21
15.7518774135
  0
LINE
  5
41A
100
AcDbEntity
  8
0
  6
CONTINUOUS
 62
    7
370
   25
100
AcDbLine
 10
18.9831429033
 20
15.7518774135
 11
18.7678996033
 21
15.8668954135
  0
LINE
  5
41B
100
AcDbEntity
  8
0
  6
CONTINUOUS
 62
    7
370
   25
100
AcDbLine
 10
18.7678996033
 20
15.8668954135
 11
18.5108026033
 21
15.9907876135
  0
LINE
  5
41C
100
AcDbEntity
  8
0
  6
CONTINUOUS
 62
    7
370
   25
100
AcDbLine
 10
18.5108026033
 20
15.9907876135
 11
18.2125733033
 21
16.1194103135
  0
LINE
  5
41D
100
AcDbEntity
  8
0
  6
CONTINUOUS
 62
    7
370
   25
100
AcDbLine
 10
18.2125733033
 20
16.1194103135
 11
17.8716488033
 21
16.2498008135
  0
LINE
  5
41E
100
AcDbEntity
  8
0
  6
CONTINUOUS
 62
    7
370
   25
100
AcDbLine
 10
17.8716488033
 20
16.2498008135
 11
17.4894576033
 21
16.3779003135
  0
LINE
  5
41F
100
AcDbEntity
  8
0
  6
CONTINUOUS
 62
    7
370
   25
100
AcDbLine
 10
17.4894576033
 20
16.3779003135
 11
17.0620398033
 21
16.5015167135
  0
LINE
  5
420
100
AcDbEntity
  8
0
  6
CONTINUOUS
 62
    7
370
   25
100
AcDbLine
 10
17.0620398033
 20
16.5015167135
 11
16.6463916033
 21
16.6039234135
  0
ARC
  5
421
100
AcDbEntity
  8
0
  6
CONTINUOUS
 62
    7
370
   25
100
AcDbCircle
 10
36.0000116446
 20
9.15747e-05
 40
25.49999687121954
100
AcDbArc
 50
139.3730908119
 51
141.8769445735
  0
LINE
  5
422
100
AcDbEntity
  8
0
  6
CONTINUOUS
 62
    7
370
   25
100
AcDbLine
 10
15.9395040904
 20
15.7425779444
 11
16.1210320904
 21
15.3548948444
  0
LINE
  5
423
100
AcDbEntity
  8
0
  6
CONTINUOUS
 62
    7
370
   25
100
AcDbLine
 10
16.1210320904
 20
15.3548948444
 11
16.3256582904
 21
14.9598062444
  0
LINE
  5
424
100
AcDbEntity
  8
0
  6
CONTINUOUS
 62
    7
370
   25
100
AcDbLine
 10
16.3256582904
 20
14.9598062444
 11
16.5258581904
 21
14.6099496444
  0
LINE
  5
425
100
AcDbEntity
  8
0
  6
CONTINUOUS
 62
    7
370
   25
100
AcDbLine
 10
16.5258581904
 20
14.6099496444
 11
16.7202542904
 21
14.3010138444
  0
LINE
  5
426
100
AcDbEntity
  8
0
  6
CONTINUOUS
 62
    7
370
   25
100
AcDbLine
 10
16.7202542904
 20
14.3010138444
 11
16.9045871904
 21
14.0336079444
  0
LINE
  5
427
100
AcDbEntity
  8
0
  6
CONTINUOUS
 62
    7
370
   25
100
AcDbLine
 10
16.9045871904
 20
14.0336079444
 11
17.0762559904
 21
13.8056212444
  0
LINE
  5
428
100
AcDbEntity
  8
0
  6
CONTINUOUS
 62
    7
370
   25
100
AcDbLine
 10
17.0762559904
 20
13.8056212444
 11
17.2310557904
 21
13.6169526444
  0
LINE
  5
429
100
AcDbEntity
  8
0
  6
CONTINUOUS
 62
    7
370
   25
100
AcDbLine
 10
17.2310557904
 20
13.6169526444
 11
17.3688123904
 21
13.4626794444
  0
LINE
  5
42A
100
AcDbEntity
  8
0
  6
CONTINUOUS
 62
    7
370
   25
100
AcDbLine
 10
17.3688123904
 20
13.4626794444
 11
17.5399479904
 21
13.2818456444
  0
LINE
  5
42B
100
AcDbEntity
  8
0
  6
CONTINUOUS
 62
    7
370
   25
100
AcDbLine
 10
17.5399479904
 20
13.2818456444
 11
17.5881041904
 21
13.2206838444
  0
LINE
  5
42C
100
AcDbEntity
  8
0
  6
CONTINUOUS
 62
    7
370
   25
100
AcDbLine
 10
17.5881041904
 20
13.2206838444
 11
17.6257085904
 21
13.1635298444
  0
LINE
  5
42D
100
AcDbEntity
  8
0
  6
CONTINUOUS
 62
    7
370
   25
100
AcDbLine
 10
17.6257085904
 20
13.1635298444
 11
17.6529390904
 21
13.1107936444
  0
LINE
  5
42E
100
AcDbEntity
  8
0
  6
CONTINUOUS
 62
    7
370
   25
100
AcDbLine
 10
17.6529390904
 20
13.1107936444
 11
17.6700264904
 21
13.0628746444
  0
LINE
  5
42F
100
AcDbEntity
  8
0
  6
CONTINUOUS
 62
    7
370
   25
100
AcDbLine
 10
17.6700264904
 20
13.0628746444
 11
17.6771679904
 21
13.0201940444
  0
LINE
  5
430
100
AcDbEntity
  8
0
  6
CONTINUOUS
 62
    7
370
   25
100
AcDbLine
 10
17.6771679904
 20
13.0201940444
 11
17.6745941904
 21
12.9831150444
  0
LINE
  5
431
100
AcDbEntity
  8
0
  6
CONTINUOUS
 62
    7
370
   25
100
AcDbLine
 10
17.6745941904
 20
12.9831150444
 11
17.6625551904
 21
12.9520477444
  0
LINE
  5
432
100
AcDbEntity
  8
0
  6
CONTINUOUS
 62
    7
370
   25
100
AcDbLine
 10
17.6625551904
 20
12.9520477444
 11
17.3335073904
 21
12.4726425444
  0
LINE
  5
433
100
AcDbEntity
  8
0
  6
CONTINUOUS
 62
    7
370
   25
100
AcDbLine
 10
17.3335073904
 20
12.4726425444
 11
17.0165158904
 21
11.9851816444
  0
LINE
  5
434
100
AcDbEntity
  8
0
  6
CONTINUOUS
 62
    7
370
   25
100
AcDbLine
 10
17.0165158904
 20
11.9851816444
 11
16.9924205904
 21
11.9621701444
  0
LINE
  5
435
100
AcDbEntity
  8
0
  6
CONTINUOUS
 62
    7
370
   25
100
AcDbLine
 10
16.9924205904
 20
11.9621701444
 11
16.9591489904
 21
11.9456027444
  0
LINE
  5
436
100
AcDbEntity
  8
0
  6
CONTINUOUS
 62
    7
370
   25
100
AcDbLine
 10
16.9591489904
 20
11.9456027444
 11
16.9169842904
 21
11.9358674444
  0
LINE
  5
437
100
AcDbEntity
  8
0
  6
CONTINUOUS
 62
    7
370
   25
100
AcDbLine
 10
16.9169842904
 20
11.9358674444
 11
16.8661738904
 21
11.9333163444
  0
LINE
  5
438
100
AcDbEntity
  8
0
  6
CONTINUOUS
 62
    7
370
   25
100
AcDbLine
 10
16.8661738904
 20
11.9333163444
 11
16.8070313904
 21
11.9382928444
  0
LINE
  5
439
100
AcDbEntity
  8
0
  6
CONTINUOUS
 62
    7
370
   25
100
AcDbLine
 10
16.8070313904
 20
11.9382928444
 11
16.7398372904
 21
11.9511628444
  0
LINE
  5
43A
100
AcDbEntity
  8
0
  6
CONTINUOUS
 62
    7
370
   25
100
AcDbLine
 10
16.7398372904
 20
11.9511628444
 11
16.6649026904
 21
11.9722477444
  0
LINE
  5
43B
100
AcDbEntity
  8
0
  6
CONTINUOUS
 62
    7
370
   25
100
AcDbLine
 10
16.6649026904
 20
11.9722477444
 11
16.4323431904
 21
12.0611543444
  0
LINE
  5
43C
100
AcDbEntity
  8
0
  6
CONTINUOUS
 62
    7
370
   25
100
AcDbLine
 10
16.4323431904
 20
12.0611543444
 11
16.2370961904
 21
12.1293870444
  0
LINE
  5
43D
100
AcDbEntity
  8
0
  6
CONTINUOUS
 62
    7
370
   25
100
AcDbLine
 10
16.2370961904
 20
12.1293870444
 11
16.0035498904
 21
12.2002030444
  0
LINE
  5
43E
100
AcDbEntity
  8
0
  6
CONTINUOUS
 62
    7
370
   25
100
AcDbLine
 10
16.0035498904
 20
12.2002030444
 11
15.7272227904
 21
12.2715575444
  0
LINE
  5
43F
100
AcDbEntity
  8
0
  6
CONTINUOUS
 62
    7
370
   25
100
AcDbLine
 10
15.7272227904
 20
12.2715575444
 11
15.4096307904
 21
12.3395271444
  0
LINE
  5
440
100
AcDbEntity
  8
0
  6
CONTINUOUS
 62
    7
370
   25
100
AcDbLine
 10
15.4096307904
 20
12.3395271444
 11
15.0498191904
 21
12.4009011444
  0
LINE
  5
441
100
AcDbEntity
  8
0
  6
CONTINUOUS
 62
    7
370
   25
100
AcDbLine
 10
15.0498191904
 20
12.4009011444
 11
14.6499806904
 21
12.4519774444
  0
LINE
  5
442
100
AcDbEntity
  8
0
  6
CONTINUOUS
 62
    7
370
   25
100
AcDbLine
 10
14.6499806904
 20
12.4519774444
 11
14.2066592904
 21
12.4898335444
  0
LINE
  5
443
100
AcDbEntity
  8
0
  6
CONTINUOUS
 62
    7
370
   25
100
AcDbLine
 10
14.2066592904
 20
12.4898335444
 11
13.7790189904
 21
12.5091835444
  0
ARC
  5
444
100
AcDbEntity
  8
0
  6
CONTINUOUS
 62
    7
370
   25
100
AcDbCircle
 10
36.0000116446
 20
9.15747e-05
 40
25.49999796949556
100
AcDbArc
 50
150.6230868637
 51
153.1269401873
  0
LINE
  5
445
100
AcDbEntity
  8
0
  6
CONTINUOUS
 62
    7
370
   25
100
AcDbLine
 10
13.2537542856
 20
11.5264818422
 11
13.5074273856
 21
11.1816623422
  0
LINE
  5
446
100
AcDbEntity
  8
0
  6
CONTINUOUS
 62
    7
370
   25
100
AcDbLine
 10
13.5074273856
 20
11.1816623422
 11
13.7851997856
 21
10.8340857422
  0
LINE
  5
447
100
AcDbEntity
  8
0
  6
CONTINUOUS
 62
    7
370
   25
100
AcDbLine
 10
13.7851997856
 20
10.8340857422
 11
14.0498064856
 21
10.5300086422
  0
LINE
  5
448
100
AcDbEntity
  8
0
  6
CONTINUOUS
 62
    7
370
   25
100
AcDbLine
 10
14.0498064856
 20
10.5300086422
 11
14.3007376856
 21
10.2649338422
  0
LINE
  5
449
100
AcDbEntity
  8
0
  6
CONTINUOUS
 62
    7
370
   25
100
AcDbLine
 10
14.3007376856
 20
10.2649338422
 11
14.5336970856
 21
10.0386276422
  0
LINE
  5
44A
100
AcDbEntity
  8
0
  6
CONTINUOUS
 62
    7
370
   25
100
AcDbLine
 10
14.5336970856
 20
10.0386276422
 11
14.7465451856
 21
9.848512442200001
  0
LINE
  5
44B
100
AcDbEntity
  8
0
  6
CONTINUOUS
 62
    7
370
   25
100
AcDbLine
 10
14.7465451856
 20
9.848512442200001
 11
14.9351780856
 21
9.6936690422
  0
LINE
  5
44C
100
AcDbEntity
  8
0
  6
CONTINUOUS
 62
    7
370
   25
100
AcDbLine
 10
14.9351780856
 20
9.6936690422
 11
15.1003848856
 21
9.5692351422
  0
LINE
  5
44D
100
AcDbEntity
  8
0
  6
CONTINUOUS
 62
    7
370
   25
100
AcDbLine
 10
15.1003848856
 20
9.5692351422
 11
15.3035111856
 21
9.4252628422
  0
LINE
  5
44E
100
AcDbEntity
  8
0
  6
CONTINUOUS
 62
    7
370
   25
100
AcDbLine
 10
15.3035111856
 20
9.4252628422
 11
15.3626739856
 21
9.3746711422
  0
LINE
  5
44F
100
AcDbEntity
  8
0
  6
CONTINUOUS
 62
    7
370
   25
100
AcDbLine
 10
15.3626739856
 20
9.3746711422
 11
15.4107060856
 21
9.3259515422
  0
LINE
  5
450
100
AcDbEntity
  8
0
  6
CONTINUOUS
 62
    7
370
   25
100
AcDbLine
 10
15.4107060856
 20
9.3259515422
 11
15.4477016856
 21
9.279541142199999
  0
LINE
  5
451
100
AcDbEntity
  8
0
  6
CONTINUOUS
 62
    7
370
   25
100
AcDbLine
 10
15.4477016856
 20
9.279541142199999
 11
15.4738092856
 21
9.2358764422
  0
LINE
  5
452
100
AcDbEntity
  8
0
  6
CONTINUOUS
 62
    7
370
   25
100
AcDbLine
 10
15.4738092856
 20
9.2358764422
 11
15.4891400856
 21
9.195409142200001
  0
LINE
  5
453
100
AcDbEntity
  8
0
  6
CONTINUOUS
 62
    7
370
   25
100
AcDbLine
 10
15.4891400856
 20
9.195409142200001
 11
15.4938495856
 21
9.158540542200001
  0
LINE
  5
454
100
AcDbEntity
  8
0
  6
CONTINUOUS
 62
    7
370
   25
100
AcDbLine
 10
15.4938495856
 20
9.158540542200001
 11
15.4881027856
 21
9.1257214422
  0
LINE
  5
455
100
AcDbEntity
  8
0
  6
CONTINUOUS
 62
    7
370
   25
100
AcDbLine
 10
15.4881027856
 20
9.1257214422
 11
15.2589048856
 21
8.5913339422
  0
LINE
  5
456
100
AcDbEntity
  8
0
  6
CONTINUOUS
 62
    7
370
   25
100
AcDbLine
 10
15.2589048856
 20
8.5913339422
 11
15.0431031856
 21
8.051397442200001
  0
LINE
  5
457
100
AcDbEntity
  8
0
  6
CONTINUOUS
 62
    7
370
   25
100
AcDbLine
 10
15.0431031856
 20
8.051397442200001
 11
15.0239601856
 21
8.0241273422
  0
LINE
  5
458
100
AcDbEntity
  8
0
  6
CONTINUOUS
 62
    7
370
   25
100
AcDbLine
 10
15.0239601856
 20
8.0241273422
 11
14.9945599856
 21
8.0013872422
  0
LINE
  5
459
100
AcDbEntity
  8
0
  6
CONTINUOUS
 62
    7
370
   25
100
AcDbLine
 10
14.9945599856
 20
8.0013872422
 11
14.9551047856
 21
7.9836131422
  0
LINE
  5
45A
100
AcDbEntity
  8
0
  6
CONTINUOUS
 62
    7
370
   25
100
AcDbLine
 10
14.9551047856
 20
7.9836131422
 11
14.9057683856
 21
7.9711983422
  0
LINE
  5
45B
100
AcDbEntity
  8
0
  6
CONTINUOUS
 62
    7
370
   25
100
AcDbLine
 10
14.9057683856
 20
7.9711983422
 11
14.8467913856
 21
7.9645411422
  0
LINE
  5
45C
100
AcDbEntity
  8
0
  6
CONTINUOUS
 62
    7
370
   25
100
AcDbLine
 10
14.8467913856
 20
7.9645411422
 11
14.7783776856
 21
7.9640549422
  0
LINE
  5
45D
100
AcDbEntity
  8
0
  6
CONTINUOUS
 62
    7
370
   25
100
AcDbLine
 10
14.7783776856
 20
7.9640549422
 11
14.7007693856
 21
7.9701156422
  0
LINE
  5
45E
100
AcDbEntity
  8
0
  6
CONTINUOUS
 62
    7
370
   25
100
AcDbLine
 10
14.7007693856
 20
7.9701156422
 11
14.4553336856
 21
8.011943842200001
  0
LINE
  5
45F
100
AcDbEntity
  8
0
  6
CONTINUOUS
 62
    7
370
   25
100
AcDbLine
 10
14.4553336856
 20
8.011943842200001
 11
14.2505267856
 21
8.040774642200001
  0
LINE
  5
460
100
AcDbEntity
  8
0
  6
CONTINUOUS
 62
    7
370
   25
100
AcDbLine
 10
14.2505267856
 20
8.040774642200001
 11
14.0076523856
 21
8.0646673422
  0
LINE
  5
461
100
AcDbEntity
  8
0
  6
CONTINUOUS
 62
    7
370
   25
100
AcDbLine
 10
14.0076523856
 20
8.0646673422
 11
13.7227142856
 21
8.080742042200001
  0
LINE
  5
462
100
AcDbEntity
  8
0
  6
CONTINUOUS
 62
    7
370
   25
100
AcDbLine
 10
13.7227142856
 20
8.080742042200001
 11
13.3979644856
 21
8.0854465422
  0
LINE
  5
463
100
AcDbEntity
  8
0
  6
CONTINUOUS
 62
    7
370
   25
100
AcDbLine
 10
13.3979644856
 20
8.0854465422
 11
13.0330930856
 21
8.075445542200001
  0
LINE
  5
464
100
AcDbEntity
  8
0
  6
CONTINUOUS
 62
    7
370
   25
100
AcDbLine
 10
13.0330930856
 20
8.075445542200001
 11
12.6309728856
 21
8.047535742199999
  0
LINE
  5
465
100
AcDbEntity
  8
0
  6
CONTINUOUS
 62
    7
370
   25
100
AcDbLine
 10
12.6309728856
 20
8.047535742199999
 11
12.1887844856
 21
7.9981767422
  0
LINE
  5
466
100
AcDbEntity
  8
0
  6
CONTINUOUS
 62
    7
370
   25
100
AcDbLine
 10
12.1887844856
 20
7.9981767422
 11
11.7655861856
 21
7.9337264422
  0
ARC
  5
467
100
AcDbEntity
  8
0
  6
CONTINUOUS
 62
    7
370
   25
100
AcDbCircle
 10
36.0000116446
 20
9.15747e-05
 40
25.49999881455765
100
AcDbArc
 50
161.8730822725
 51
164.3769353338
  0
LINE
  5
468
100
AcDbEntity
  8
0
  6
CONTINUOUS
 62
    7
370
   25
100
AcDbLine
 10
11.4421298215
 20
6.8674331203
 11
11.7581996215
 21
6.5787283203
  0
LINE
  5
469
100
AcDbEntity
  8
0
  6
CONTINUOUS
 62
    7
370
   25
100
AcDbLine
 10
11.7581996215
 20
6.5787283203
 11
12.0984435215
 21
6.2920210203
  0
LINE
  5
46A
100
AcDbEntity
  8
0
  6
CONTINUOUS
 62
    7
370
   25
100
AcDbLine
 10
12.0984435215
 20
6.2920210203
 11
12.4172883215
 21
6.0454089203
  0
LINE
  5
46B
100
AcDbEntity
  8
0
  6
CONTINUOUS
 62
    7
370
   25
100
AcDbLine
 10
12.4172883215
 20
6.0454089203
 11
12.7151115215
 21
5.8343816203
  0
LINE
  5
46C
100
AcDbEntity
  8
0
  6
CONTINUOUS
 62
    7
370
   25
100
AcDbLine
 10
12.7151115215
 20
5.8343816203
 11
12.9877448215
 21
5.6578720203
  0
LINE
  5
46D
100
AcDbEntity
  8
0
  6
CONTINUOUS
 62
    7
370
   25
100
AcDbLine
 10
12.9877448215
 20
5.6578720203
 11
13.2335928215
 21
5.5129345203
  0
LINE
  5
46E
100
AcDbEntity
  8
0
  6
CONTINUOUS
 62
    7
370
   25
100
AcDbLine
 10
13.2335928215
 20
5.5129345203
 11
13.4488095215
 21
5.3978668203
  0
LINE
  5
46F
100
AcDbEntity
  8
0
  6
CONTINUOUS
 62
    7
370
   25
100
AcDbLine
 10
13.4488095215
 20
5.3978668203
 11
13.6351178215
 21
5.3080541203
  0
LINE
  5
470
100
AcDbEntity
  8
0
  6
CONTINUOUS
 62
    7
370
   25
100
AcDbLine
 10
13.6351178215
 20
5.3080541203
 11
13.8624286215
 21
5.2064762203
  0
LINE
  5
471
100
AcDbEntity
  8
0
  6
CONTINUOUS
 62
    7
370
   25
100
AcDbLine
 10
13.8624286215
 20
5.2064762203
 11
13.9303247215
 21
5.1683986203
  0
LINE
  5
472
100
AcDbEntity
  8
0
  6
CONTINUOUS
 62
    7
370
   25
100
AcDbLine
 10
13.9303247215
 20
5.1683986203
 11
13.9869385215
 21
5.1299857203
  0
LINE
  5
473
100
AcDbEntity
  8
0
  6
CONTINUOUS
 62
    7
370
   25
100
AcDbLine
 10
13.9869385215
 20
5.1299857203
 11
14.0322775215
 21
5.0916846203
  0
LINE
  5
474
100
AcDbEntity
  8
0
  6
CONTINUOUS
 62
    7
370
   25
100
AcDbLine
 10
14.0322775215
 20
5.0916846203
 11
14.0664020215
 21
5.0539522203
  0
LINE
  5
475
100
AcDbEntity
  8
0
  6
CONTINUOUS
 62
    7
370
   25
100
AcDbLine
 10
14.0664020215
 20
5.0539522203
 11
14.0893330215
 21
5.0172534203
  0
LINE
  5
476
100
AcDbEntity
  8
0
  6
CONTINUOUS
 62
    7
370
   25
100
AcDbLine
 10
14.0893330215
 20
5.0172534203
 11
14.1011447215
 21
4.9820119203
  0
LINE
  5
477
100
AcDbEntity
  8
0
  6
CONTINUOUS
 62
    7
370
   25
100
AcDbLine
 10
14.1011447215
 20
4.9820119203
 11
14.1019111215
 21
4.9487024203
  0
LINE
  5
478
100
AcDbEntity
  8
0
  6
CONTINUOUS
 62
    7
370
   25
100
AcDbLine
 10
14.1019111215
 20
4.9487024203
 11
13.9813710215
 21
4.3798686203
  0
LINE
  5
479
100
AcDbEntity
  8
0
  6
CONTINUOUS
 62
    7
370
   25
100
AcDbLine
 10
13.9813710215
 20
4.3798686203
 11
13.8750522215
 21
3.8082060203
  0
LINE
  5
47A
100
AcDbEntity
  8
0
  6
CONTINUOUS
 62
    7
370
   25
100
AcDbLine
 10
13.8750522215
 20
3.8082060203
 11
13.8615972215
 21
3.7777253203
  0
LINE
  5
47B
100
AcDbEntity
  8
0
  6
CONTINUOUS
 62
    7
370
   25
100
AcDbLine
 10
13.8615972215
 20
3.7777253203
 11
13.8371983215
 21
3.7496865203
  0
LINE
  5
47C
100
AcDbEntity
  8
0
  6
CONTINUOUS
 62
    7
370
   25
100
AcDbLine
 10
13.8371983215
 20
3.7496865203
 11
13.8019688215
 21
3.7245566203
  0
LINE
  5
47D
100
AcDbEntity
  8
0
  6
CONTINUOUS
 62
    7
370
   25
100
AcDbLine
 10
13.8019688215
 20
3.7245566203
 11
13.7560023215
 21
3.7027553203
  0
LINE
  5
47E
100
AcDbEntity
  8
0
  6
CONTINUOUS
 62
    7
370
   25
100
AcDbLine
 10
13.7560023215
 20
3.7027553203
 11
13.6994573215
 21
3.6847202203
  0
LINE
  5
47F
100
AcDbEntity
  8
0
  6
CONTINUOUS
 62
    7
370
   25
100
AcDbLine
 10
13.6994573215
 20
3.6847202203
 11
13.6324530215
 21
3.6708964203
  0
LINE
  5
480
100
AcDbEntity
  8
0
  6
CONTINUOUS
 62
    7
370
   25
100
AcDbLine
 10
13.6324530215
 20
3.6708964203
 11
13.5551536215
 21
3.6617001203
  0
LINE
  5
481
100
AcDbEntity
  8
0
  6
CONTINUOUS
 62
    7
370
   25
100
AcDbLine
 10
13.5551536215
 20
3.6617001203
 11
13.3062736215
 21
3.6548424203
  0
LINE
  5
482
100
AcDbEntity
  8
0
  6
CONTINUOUS
 62
    7
370
   25
100
AcDbLine
 10
13.3062736215
 20
3.6548424203
 11
13.0997773215
 21
3.6431634203
  0
LINE
  5
483
100
AcDbEntity
  8
0
  6
CONTINUOUS
 62
    7
370
   25
100
AcDbLine
 10
13.0997773215
 20
3.6431634203
 11
12.8569085215
 21
3.6192146203
  0
LINE
  5
484
100
AcDbEntity
  8
0
  6
CONTINUOUS
 62
    7
370
   25
100
AcDbLine
 10
12.8569085215
 20
3.6192146203
 11
12.5743094215
 21
3.5793918203
  0
LINE
  5
485
100
AcDbEntity
  8
0
  6
CONTINUOUS
 62
    7
370
   25
100
AcDbLine
 10
12.5743094215
 20
3.5793918203
 11
12.2548818215
 21
3.5206503203
  0
LINE
  5
486
100
AcDbEntity
  8
0
  6
CONTINUOUS
 62
    7
370
   25
100
AcDbLine
 10
12.2548818215
 20
3.5206503203
 11
11.8989724215
 21
3.4396586203
  0
LINE
  5
487
100
AcDbEntity
  8
0
  6
CONTINUOUS
 62
    7
370
   25
100
AcDbLine
 10
11.8989724215
 20
3.4396586203
 11
11.5100237215
 21
3.3338353203
  0
LINE
  5
488
100
AcDbEntity
  8
0
  6
CONTINUOUS
 62
    7
370
   25
100
AcDbLine
 10
11.5100237215
 20
3.3338353203
 11
11.0859613215
 21
3.1991580203
  0
LINE
  5
489
100
AcDbEntity
  8
0
  6
CONTINUOUS
 62
    7
370
   25
100
AcDbLine
 10
11.0859613215
 20
3.1991580203
 11
10.6834683215
 21
3.0533843203
  0
ARC
  5
48A
100
AcDbEntity
  8
0
  6
CONTINUOUS
 62
    7
370
   25
100
AcDbCircle
 10
36.0000116446
 20
9.15747e-05
 40
25.49999926317376
100
AcDbArc
 50
173.1230771568
 51
175.6269303709
  0
LINE
  5
48B
100
AcDbEntity
  8
0
  6
CONTINUOUS
 62
    7
370
   25
100
AcDbLine
 10
10.5742504822
 20
1.9444762418
 11
10.9405705822
 21
1.7229810418
  0
LINE
  5
48C
100
AcDbEntity
  8
0
  6
CONTINUOUS
 62
    7
370
   25
100
AcDbLine
 10
10.9405705822
 20
1.7229810418
 11
11.3302105822
 21
1.5081610418
  0
LINE
  5
48D
100
AcDbEntity
  8
0
  6
CONTINUOUS
 62
    7
370
   25
100
AcDbLine
 10
11.3302105822
 20
1.5081610418
 11
11.6910405822
 21
1.3284910418
  0
LINE
  5
48E
100
AcDbEntity
  8
0
  6
CONTINUOUS
 62
    7
370
   25
100
AcDbLine
 10
11.6910405822
 20
1.3284910418
 11
12.0243105822
 21
1.1796210418
  0
LINE
  5
48F
100
AcDbEntity
  8
0
  6
CONTINUOUS
 62
    7
370
   25
100
AcDbLine
 10
12.0243105822
 20
1.1796210418
 11
12.3261405822
 21
1.0596910418
  0
LINE
  5
490
100
AcDbEntity
  8
0
  6
CONTINUOUS
 62
    7
370
   25
100
AcDbLine
 10
12.3261405822
 20
1.0596910418
 11
12.5955405822
 21
0.9655010418
  0
LINE
  5
491
100
AcDbEntity
  8
0
  6
CONTINUOUS
 62
    7
370
   25
100
AcDbLine
 10
12.5955405822
 20
0.9655010418
 11
12.8290705822
 21
0.8946310418
  0
LINE
  5
492
100
AcDbEntity
  8
0
  6
CONTINUOUS
 62
    7
370
   25
100
AcDbLine
 10
12.8290705822
 20
0.8946310418
 11
13.0293205822
 21
0.8428910418
  0
LINE
  5
493
100
AcDbEntity
  8
0
  6
CONTINUOUS
 62
    7
370
   25
100
AcDbLine
 10
13.0293205822
 20
0.8428910418
 11
13.2720805822
 21
0.7876110418
  0
LINE
  5
494
100
AcDbEntity
  8
0
  6
CONTINUOUS
 62
    7
370
   25
100
AcDbLine
 10
13.2720805822
 20
0.7876110418
 11
13.3461005822
 21
0.7635110418
  0
LINE
  5
495
100
AcDbEntity
  8
0
  6
CONTINUOUS
 62
    7
370
   25
100
AcDbLine
 10
13.3461005822
 20
0.7635110418
 11
13.4091205822
 21
0.7368810418
  0
LINE
  5
496
100
AcDbEntity
  8
0
  6
CONTINUOUS
 62
    7
370
   25
100
AcDbLine
 10
13.4091205822
 20
0.7368810418
 11
13.4610605822
 21
0.7081610417999999
  0
LINE
  5
497
100
AcDbEntity
  8
0
  6
CONTINUOUS
 62
    7
370
   25
100
AcDbLine
 10
13.4610605822
 20
0.7081610417999999
 11
13.5018905822
 21
0.6778110418
  0
LINE
  5
498
100
AcDbEntity
  8
0
  6
CONTINUOUS
 62
    7
370
   25
100
AcDbLine
 10
13.5018905822
 20
0.6778110418
 11
13.5315405822
 21
0.6462910418
  0
LINE
  5
499
100
AcDbEntity
  8
0
  6
CONTINUOUS
 62
    7
370
   25
100
AcDbLine
 10
13.5315405822
 20
0.6462910418
 11
13.5500005822
 21
0.6140310418
  0
LINE
  5
49A
100
AcDbEntity
  8
0
  6
CONTINUOUS
 62
    7
370
   25
100
AcDbLine
 10
13.5500005822
 20
0.6140310418
 11
13.5572505822
 21
0.5815110418
  0
LINE
  5
49B
100
AcDbEntity
  8
0
  6
CONTINUOUS
 62
    7
370
   25
100
AcDbLine
 10
13.5572505822
 20
0.5815110418
 11
13.5500005822
 21
9.10418e-05
  0
LINE
  5
49C
100
AcDbEntity
  8
0
  6
CONTINUOUS
 62
    7
370
   25
100
AcDbLine
 10
13.5500005822
 20
9.10418e-05
 11
13.5572505822
 21
-0.5813289582
  0
LINE
  5
49D
100
AcDbEntity
  8
0
  6
CONTINUOUS
 62
    7
370
   25
100
AcDbLine
 10
13.5572505822
 20
-0.5813289582
 11
13.5500005822
 21
-0.6138489582
  0
LINE
  5
49E
100
AcDbEntity
  8
0
  6
CONTINUOUS
 62
    7
370
   25
100
AcDbLine
 10
13.5500005822
 20
-0.6138489582
 11
13.5315405822
 21
-0.6461089582
  0
LINE
  5
49F
100
AcDbEntity
  8
0
  6
CONTINUOUS
 62
    7
370
   25
100
AcDbLine
 10
13.5315405822
 20
-0.6461089582
 11
13.5018905822
 21
-0.6776289582
  0
LINE
  5
4A0
100
AcDbEntity
  8
0
  6
CONTINUOUS
 62
    7
370
   25
100
AcDbLine
 10
13.5018905822
 20
-0.6776289582
 11
13.4610605822
 21
-0.7079789582
  0
LINE
  5
4A1
100
AcDbEntity
  8
0
  6
CONTINUOUS
 62
    7
370
   25
100
AcDbLine
 10
13.4610605822
 20
-0.7079789582
 11
13.4091205822
 21
-0.7366989582
  0
LINE
  5
4A2
100
AcDbEntity
  8
0
  6
CONTINUOUS
 62
    7
370
   25
100
AcDbLine
 10
13.4091205822
 20
-0.7366989582
 11
13.3461005822
 21
-0.7633289582
  0
LINE
  5
4A3
100
AcDbEntity
  8
0
  6
CONTINUOUS
 62
    7
370
   25
100
AcDbLine
 10
13.3461005822
 20
-0.7633289582
 11
13.2720805822
 21
-0.7874289582
  0
LINE
  5
4A4
100
AcDbEntity
  8
0
  6
CONTINUOUS
 62
    7
370
   25
100
AcDbLine
 10
13.2720805822
 20
-0.7874289582
 11
13.0293205822
 21
-0.8427089582
  0
LINE
  5
4A5
100
AcDbEntity
  8
0
  6
CONTINUOUS
 62
    7
370
   25
100
AcDbLine
 10
13.0293205822
 20
-0.8427089582
 11
12.8290705822
 21
-0.8944489582
  0
LINE
  5
4A6
100
AcDbEntity
  8
0
  6
CONTINUOUS
 62
    7
370
   25
100
AcDbLine
 10
12.8290705822
 20
-0.8944489582
 11
12.5955405822
 21
-0.9653189582
  0
LINE
  5
4A7
100
AcDbEntity
  8
0
  6
CONTINUOUS
 62
    7
370
   25
100
AcDbLine
 10
12.5955405822
 20
-0.9653189582
 11
12.3261405822
 21
-1.0595089582
  0
LINE
  5
4A8
100
AcDbEntity
  8
0
  6
CONTINUOUS
 62
    7
370
   25
100
AcDbLine
 10
12.3261405822
 20
-1.0595089582
 11
12.0243105822
 21
-1.1794389582
  0
LINE
  5
4A9
100
AcDbEntity
  8
0
  6
CONTINUOUS
 62
    7
370
   25
100
AcDbLine
 10
12.0243105822
 20
-1.1794389582
 11
11.6910405822
 21
-1.3283089582
  0
LINE
  5
4AA
100
AcDbEntity
  8
0
  6
CONTINUOUS
 62
    7
370
   25
100
AcDbLine
 10
11.6910405822
 20
-1.3283089582
 11
11.3302105822
 21
-1.5079789582
  0
LINE
  5
4AB
100
AcDbEntity
  8
0
  6
CONTINUOUS
 62
    7
370
   25
100
AcDbLine
 10
11.3302105822
 20
-1.5079789582
 11
10.9405705822
 21
-1.7227989582
  0
LINE
  5
4AC
100
AcDbEntity
  8
0
  6
CONTINUOUS
 62
    7
370
   25
100
AcDbLine
 10
10.9405705822
 20
-1.7227989582
 11
10.5742504822
 21
-1.9442941582
  0
LINE
  5
4AD
100
AcDbEntity
  8
0
  6
CONTINUOUS
 62
    7
370
   25
100
AcDbLine
 10
38.0500002469
 20
-3.4927582074
 11
38.0500002469
 21
3.4929414712
  0
ARC
  5
4AE
100
AcDbEntity
  8
0
  6
CONTINUOUS
 62
    7
370
   25
100
AcDbCircle
 10
36.0000002469
 20
9.16319e-05
 40
4.050000000000001
100
AcDbArc
 50
239.5907609469
 51
300.4092390531
  0
LINE
  5
4AF
100
AcDbEntity
  8
0
  6
CONTINUOUS
 62
    7
370
   25
100
AcDbLine
 10
33.9500002469
 20
3.4929414712
 11
33.9500002469
 21
-3.4927582074
  0
ARC
  5
4B0
100
AcDbEntity
  8
0
  6
CONTINUOUS
 62
    7
370
   25
100
AcDbCircle
 10
36.0000002469
 20
9.16319e-05
 40
4.049999999999997
100
AcDbArc
 50
59.59076094689999
 51
120.4092390531
  0
ENDSEC
  0
SECTION
  2
OBJECTS
  0
DICTIONARY
  5
C
330
0
100
AcDbDictionary
281
    1
  3
ACAD_GROUP
350
D
  0
DICTIONARY
  5
D
330
C
100
AcDbDictionary
281
    1
  0
PLOTSETTINGS
  5
4B1
100
AcDbPlotSettings
  6
1x1
 40
0
 41
0
 42
0
 43
0
  0
ENDSEC
  0
EOF
