999
dxfrw 0.6.3
  0
SECTION
  2
HEADER
  9
$ACADVER
  1
AC1021
  9
$DWGCODEPAGE
  3
ANSI_1250
  9
$INSBASE
 10
0
 20
0
 30
0
  9
$EXTMIN
 10
-13.3288617889
 20
-28.04368026346689
 30
0
  9
$EXTMAX
 10
98.51757579621091
 20
13.32886240381221
 30
0
  9
$LIMMIN
 10
0
 20
0
  9
$LIMMAX
 10
420
 20
297
  9
$ORTHOMODE
 70
    0
  9
$REGENMODE
 70
    1
  9
$FILLMODE
 70
    1
  9
$QTEXTMODE
 70
    0
  9
$MIRRTEXT
 70
    1
  9
$LTSCALE
 40
1
  9
$ATTMODE
 70
    1
  9
$TEXTSIZE
 40
3.5
  9
$TRACEWID
 40
1
  9
$TEXTSTYLE
  7
Standard
  9
$CLAYER
  8
0
  9
$CELTYPE
  6
ByLayer
  9
$CECOLOR
 62
  256
  9
$CELTSCALE
 40
1
  9
$DISPSILH
 70
    0
  9
$DIMSCALE
 40
1
  9
$DIMASZ
 40
3.302
  9
$DIMEXO
 40
0
  9
$DIMDLI
 40
3.75
  9
$DIMRND
 40
0
  9
$DIMDLE
 40
0
  9
$DIMEXE
 40
1
  9
$DIMTP
 40
0
  9
$DIMTM
 40
0
  9
$DIMTXT
 40
3.5
  9
$DIMCEN
 40
2.5
  9
$DIMTSZ
 40
0
  9
$DIMTOL
 70
    0
  9
$DIMLIM
 70
    0
  9
$DIMTIH
 70
    1
  9
$DIMTOH
 70
    1
  9
$DIMSE1
 70
    0
  9
$DIMSE2
 70
    0
  9
$DIMTAD
 70
    1
  9
$DIMZIN
 70
    1
  9
$DIMBLK
  1

  9
$DIMASO
 70
    1
  9
$DIMSHO
 70
    1
  9
$DIMPOST
  1

  9
$DIMAPOST
  1

  9
$DIMALT
 70
    0
  9
$DIMALTD
 70
    3
  9
$DIMALTF
 40
0.0393700787
  9
$DIMLFAC
 40
1
  9
$DIMTOFL
 70
    1
  9
$DIMTVP
 40
0
  9
$DIMTIX
 70
    0
  9
$DIMSOXD
 70
    0
  9
$DIMSAH
 70
    0
  9
$DIMBLK1
  1

  9
$DIMBLK2
  1

  9
$DIMSTYLE
  2
ISO-25
  9
$DIMCLRD
 70
    0
  9
$DIMCLRE
 70
    0
  9
$DIMCLRT
 70
    0
  9
$DIMTFAC
 40
1
  9
$DIMGAP
 40
1.524
  9
$DIMJUST
 70
    0
  9
$DIMSD1
 70
    0
  9
$DIMSD2
 70
    0
  9
$DIMTOLJ
 70
    0
  9
$DIMTZIN
 70
    1
  9
$DIMALTZ
 70
    0
  9
$DIMALTTZ
 70
    0
  9
$DIMUPT
 70
    0
  9
$DIMDEC
 70
    2
  9
$DIMTDEC
 70
    2
  9
$DIMALTU
 70
    2
  9
$DIMALTTD
 70
    3
  9
$DIMTXSTY
  7
Standard
  9
$DIMAUNIT
 70
    0
  9
$DIMADEC
 70
    0
  9
$DIMALTRND
 40
0
  9
$DIMAZIN
 70
    0
  9
$DIMDSEP
 70
   44
  9
$DIMATFIT
 70
    3
  9
$DIMFRAC
 70
    0
  9
$DIMLDRBLK
  1

  9
$DIMLUNIT
 70
    2
  9
$DIMLWD
 70
   -2
  9
$DIMLWE
 70
   -2
  9
$DIMTMOVE
 70
    0
  9
$DIMFXL
 40
1
  9
$DIMFXLON
 70
    0
  9
$DIMJOGANG
 40
0.7854
  9
$DIMTFILL
 70
    0
  9
$DIMTFILLCLR
 70
    0
  9
$DIMARCSYM
 70
    0
  9
$DIMLTYPE
  6

  9
$DIMLTEX1
  6

  9
$DIMLTEX2
  6

  9
$LUNITS
 70
    2
  9
$LUPREC
 70
    2
  9
$SKETCHINC
 40
1
  9
$FILLETRAD
 40
0
  9
$AUNITS
 70
    0
  9
$AUPREC
 70
    2
  9
$MENU
  1
.
  9
$ELEVATION
 40
0
  9
$PELEVATION
 40
0
  9
$THICKNESS
 40
0
  9
$LIMCHECK
 70
    0
  9
$CHAMFERA
 40
0
  9
$CHAMFERB
 40
0
  9
$CHAMFERC
 40
0
  9
$CHAMFERD
 40
0
  9
$SKPOLY
 70
    0
  9
$USRTIMER
 70
    1
  9
$ANGBASE
 50
0
  9
$ANGDIR
 70
    0
  9
$PDMODE
 70
    0
  9
$PDSIZE
 40
-1
  9
$PLINEWID
 40
0
  9
$SPLFRAME
 70
    0
  9
$SPLINETYPE
 70
    6
  9
$SPLINESEGS
 70
    8
  9
$HANDSEED
  5
20000
  9
$SURFTAB1
 70
    6
  9
$SURFTAB2
 70
    6
  9
$SURFTYPE
 70
    6
  9
$SURFU
 70
    6
  9
$SURFV
 70
    6
  9
$UCSBASE
  2

  9
$UCSNAME
  2

  9
$UCSORG
 10
0
 20
0
 30
0
  9
$UCSXDIR
 10
1
 20
0
 30
0
  9
$UCSYDIR
 10
0
 20
1
 30
0
  9
$UCSORTHOREF
  2

  9
$UCSORTHOVIEW
 70
    0
  9
$UCSORGTOP
 10
0
 20
0
 30
0
  9
$UCSORGBOTTOM
 10
0
 20
0
 30
0
  9
$UCSORGLEFT
 10
0
 20
0
 30
0
  9
$UCSORGRIGHT
 10
0
 20
0
 30
0
  9
$UCSORGFRONT
 10
0
 20
0
 30
0
  9
$UCSORGBACK
 10
0
 20
0
 30
0
  9
$PUCSBASE
  2

  9
$PUCSNAME
  2

  9
$PUCSORG
 10
0
 20
0
 30
0
  9
$PUCSXDIR
 10
1
 20
0
 30
0
  9
$PUCSYDIR
 10
0
 20
1
 30
0
  9
$PUCSORTHOREF
  2

  9
$PUCSORTHOVIEW
 70
    0
  9
$PUCSORGTOP
 10
0
 20
0
 30
0
  9
$PUCSORGBOTTOM
 10
0
 20
0
 30
0
  9
$PUCSORGLEFT
 10
0
 20
0
 30
0
  9
$PUCSORGRIGHT
 10
0
 20
0
 30
0
  9
$PUCSORGFRONT
 10
0
 20
0
 30
0
  9
$PUCSORGBACK
 10
0
 20
0
 30
0
  9
$USERI1
 70
    0
  9
$USERI2
 70
    0
  9
$USERI3
 70
    0
  9
$USERI4
 70
    0
  9
$USERI5
 70
    0
  9
$USERR1
 40
0
  9
$USERR2
 40
0
  9
$USERR3
 40
0
  9
$USERR4
 40
0
  9
$USERR5
 40
0
  9
$WORLDVIEW
 70
    1
  9
$SHADEDGE
 70
    3
  9
$SHADEDIF
 70
   70
  9
$TILEMODE
 70
    1
  9
$MAXACTVP
 70
   64
  9
$PINSBASE
 10
0
 20
0
 30
0
  9
$PLIMCHECK
 70
    0
  9
$PEXTMIN
 10
1e+20
 20
1e+20
 30
1e+20
  9
$PEXTMAX
 10
-1e+20
 20
-1e+20
 30
-1e+20
  9
$GRIDMODE
 70
    0
  9
$SNAPSTYLE
 70
    0
  9
$PLIMMIN
 10
0
 20
0
  9
$PLIMMAX
 10
420
 20
297
  9
$UNITMODE
 70
    0
  9
$VISRETAIN
 70
    1
  9
$PLINEGEN
 70
    0
  9
$PSLTSCALE
 70
    1
  9
$TREEDEPTH
 70
 3020
  9
$CMLSTYLE
  2
Standard
  9
$CMLJUST
 70
    0
  9
$CMLSCALE
 40
20
  9
$PROXYGRAPHICS
 70
    1
  9
$MEASUREMENT
 70
    1
  9
$CELWEIGHT
370
   -1
  9
$ENDCAPS
280
    0
  9
$JOINSTYLE
280
    0
  9
$LWDISPLAY
290
    1
  9
$INSUNITS
 70
    4
  9
$HYPERLINKBASE
  1

  9
$STYLESHEET
  1

  9
$XEDIT
290
    1
  9
$CEPSNTYPE
380
    0
  9
$PSTYLEMODE
290
    1
  9
$EXTNAMES
290
    1
  9
$PSVPSCALE
 40
0
  9
$OLESTARTUP
290
    0
  9
$SORTENTS
280
  127
  9
$INDEXCTL
280
    0
  9
$HIDETEXT
280
    1
  9
$XCLIPFRAME
290
    0
  9
$HALOGAP
280
    0
  9
$OBSCOLOR
 70
  257
  9
$OBSLTYPE
280
    0
  9
$INTERSECTIONDISPLAY
280
    0
  9
$INTERSECTIONCOLOR
 70
  257
  9
$DIMASSOC
280
    1
  9
$PROJECTNAME
  1

  9
$CAMERADISPLAY
290
    0
  9
$LENSLENGTH
 40
50
  9
$CAMERAHEIGHT
 40
0
  9
$STEPSPERSEC
 40
2
  9
$STEPSIZE
 40
50
  9
$3DDWFPREC
 40
2
  9
$PSOLWIDTH
 40
5
  9
$PSOLHEIGHT
 40
80
  9
$LOFTANG1
 40
1.570796326794897
  9
$LOFTANG2
 40
1.570796326794897
  9
$LOFTMAG1
 40
0
  9
$LOFTMAG2
 40
0
  9
$LOFTPARAM
 70
    7
  9
$LOFTNORMALS
280
    1
  9
$LATITUDE
 40
1
  9
$LONGITUDE
 40
1
  9
$NORTHDIRECTION
 40
0
  9
$TIMEZONE
 70
-8000
  9
$LIGHTGLYPHDISPLAY
280
    1
  9
$TILEMODELIGHTSYNCH
280
    1
  9
$SOLIDHIST
280
    1
  9
$SHOWHIST
280
    1
  9
$DWFFRAME
280
    2
  9
$DGNFRAME
280
    0
  9
$REALWORLDSCALE
290
    1
  9
$INTERFERECOLOR
 62
    1
  9
$CSHADOW
280
    0
  9
$SHADOWPLANELOCATION
 40
0
  0
ENDSEC
  0
SECTION
  2
CLASSES
  0
ENDSEC
  0
SECTION
  2
TABLES
  0
TABLE
  2
VPORT
  5
8
330
0
100
AcDbSymbolTable
 70
    1
  0
VPORT
  5
31
330
2
100
AcDbSymbolTableRecord
100
AcDbViewportTableRecord
  2
*ACTIVE
 70
    0
 10
0
 20
0
 11
1
 21
1
 12
14.79861848745207
 22
8.856534582356593
 13
0
 23
0
 14
10
 24
10
 15
10
 25
10
 16
0
 26
0
 36
1
 17
0
 27
0
 37
0
 40
45.44279405515874
 41
1.831880448318804
 42
50
 43
0
 44
0
 50
0
 51
0
 71
    0
 72
  100
 73
    1
 74
    3
 75
    0
 76
    0
 77
    0
 78
    0
281
    0
 65
    1
110
0
120
0
130
0
111
1
121
0
131
0
112
0
122
1
132
0
 79
    0
146
0
348
10020
 60
    7
 61
    5
292
1
282
    1
141
0
142
0
 63
  250
421
3358443
  0
ENDTAB
  0
TABLE
  2
LTYPE
  5
5
330
0
100
AcDbSymbolTable
 70
    4
  0
LTYPE
  5
14
330
5
100
AcDbSymbolTableRecord
100
AcDbLinetypeTableRecord
  2
ByBlock
 70
    0
  3

 72
   65
 73
    0
 40
0
  0
LTYPE
  5
15
330
5
100
AcDbSymbolTableRecord
100
AcDbLinetypeTableRecord
  2
ByLayer
 70
    0
  3

 72
   65
 73
    0
 40
0
  0
LTYPE
  5
16
330
5
100
AcDbSymbolTableRecord
100
AcDbLinetypeTableRecord
  2
Continuous
 70
    0
  3
Solid line
 72
   65
 73
    0
 40
0
  0
LTYPE
  5
32
330
5
100
AcDbSymbolTableRecord
100
AcDbLinetypeTableRecord
  2
DOT
 70
    0
  3
Dot . . . . . . . . . . . . . . . . . . . . . .
 72
   65
 73
    2
 40
6.35
 49
0
 74
    0
 49
-6.35
 74
    0
  0
LTYPE
  5
33
330
5
100
AcDbSymbolTableRecord
100
AcDbLinetypeTableRecord
  2
DOTTINY
 70
    0
  3
Dot (.15x) .....................................
 72
   65
 73
    2
 40
0.9525
 49
0
 74
    0
 49
-0.9525
 74
    0
  0
LTYPE
  5
34
330
5
100
AcDbSymbolTableRecord
100
AcDbLinetypeTableRecord
  2
DOT2
 70
    0
  3
Dot (.5x) .....................................
 72
   65
 73
    2
 40
3.175
 49
0
 74
    0
 49
-3.175
 74
    0
  0
LTYPE
  5
35
330
5
100
AcDbSymbolTableRecord
100
AcDbLinetypeTableRecord
  2
DOTX2
 70
    0
  3
Dot (2x) .  .  .  .  .  .  .  .  .  .  .  .  .
 72
   65
 73
    2
 40
12.7
 49
0
 74
    0
 49
-12.7
 74
    0
  0
LTYPE
  5
36
330
5
100
AcDbSymbolTableRecord
100
AcDbLinetypeTableRecord
  2
DASHED
 70
    0
  3
Dashed _ _ _ _ _ _ _ _ _ _ _ _ _ _ _ _ _
 72
   65
 73
    2
 40
19.05
 49
12.7
 74
    0
 49
-6.35
 74
    0
  0
LTYPE
  5
37
330
5
100
AcDbSymbolTableRecord
100
AcDbLinetypeTableRecord
  2
DASHEDTINY
 70
    0
  3
Dashed (.15x) _ _ _ _ _ _ _ _ _ _ _ _ _ _ _ _ _
 72
   65
 73
    2
 40
2.8575
 49
1.905
 74
    0
 49
-0.9525
 74
    0
  0
LTYPE
  5
38
330
5
100
AcDbSymbolTableRecord
100
AcDbLinetypeTableRecord
  2
DASHED2
 70
    0
  3
Dashed (.5x) _ _ _ _ _ _ _ _ _ _ _ _ _ _ _ _ _
 72
   65
 73
    2
 40
9.524999999999999
 49
6.35
 74
    0
 49
-3.175
 74
    0
  0
LTYPE
  5
39
330
5
100
AcDbSymbolTableRecord
100
AcDbLinetypeTableRecord
  2
DASHEDX2
 70
    0
  3
Dashed (2x) ____  ____  ____  ____  ____  ___
 72
   65
 73
    2
 40
38.09999999999999
 49
25.4
 74
    0
 49
-12.7
 74
    0
  0
LTYPE
  5
3A
330
5
100
AcDbSymbolTableRecord
100
AcDbLinetypeTableRecord
  2
DASHDOT
 70
    0
  3
Dash dot __ . __ . __ . __ . __ . __ . __ . __
 72
   65
 73
    4
 40
25.4
 49
12.7
 74
    0
 49
-6.35
 74
    0
 49
0
 74
    0
 49
-6.35
 74
    0
  0
LTYPE
  5
3B
330
5
100
AcDbSymbolTableRecord
100
AcDbLinetypeTableRecord
  2
DASHDOTTINY
 70
    0
  3
Dash dot (.15x) _._._._._._._._._._._._._._._.
 72
   65
 73
    4
 40
3.81
 49
1.905
 74
    0
 49
-0.9525
 74
    0
 49
0
 74
    0
 49
-0.9525
 74
    0
  0
LTYPE
  5
3C
330
5
100
AcDbSymbolTableRecord
100
AcDbLinetypeTableRecord
  2
DASHDOT2
 70
    0
  3
Dash dot (.5x) _._._._._._._._._._._._._._._.
 72
   65
 73
    4
 40
12.7
 49
6.35
 74
    0
 49
-3.175
 74
    0
 49
0
 74
    0
 49
-3.175
 74
    0
  0
LTYPE
  5
3D
330
5
100
AcDbSymbolTableRecord
100
AcDbLinetypeTableRecord
  2
DASHDOTX2
 70
    0
  3
Dash dot (2x) ____  .  ____  .  ____  .  ___
 72
   65
 73
    4
 40
50.8
 49
25.4
 74
    0
 49
-12.7
 74
    0
 49
0
 74
    0
 49
-12.7
 74
    0
  0
LTYPE
  5
3E
330
5
100
AcDbSymbolTableRecord
100
AcDbLinetypeTableRecord
  2
DIVIDE
 70
    0
  3
Divide ____ . . ____ . . ____ . . ____ . . ____
 72
   65
 73
    6
 40
31.75
 49
12.7
 74
    0
 49
-6.35
 74
    0
 49
0
 74
    0
 49
-6.35
 74
    0
 49
0
 74
    0
 49
-6.35
 74
    0
  0
LTYPE
  5
3F
330
5
100
AcDbSymbolTableRecord
100
AcDbLinetypeTableRecord
  2
DIVIDETINY
 70
    0
  3
Divide (.15x) __..__..__..__..__..__..__..__.._
 72
   65
 73
    6
 40
4.7625
 49
1.905
 74
    0
 49
-0.9525
 74
    0
 49
0
 74
    0
 49
-0.9525
 74
    0
 49
0
 74
    0
 49
-0.9525
 74
    0
  0
LTYPE
  5
40
330
5
100
AcDbSymbolTableRecord
100
AcDbLinetypeTableRecord
  2
DIVIDE2
 70
    0
  3
Divide (.5x) __..__..__..__..__..__..__..__.._
 72
   65
 73
    6
 40
15.875
 49
6.35
 74
    0
 49
-3.175
 74
    0
 49
0
 74
    0
 49
-3.175
 74
    0
 49
0
 74
    0
 49
-3.175
 74
    0
  0
LTYPE
  5
41
330
5
100
AcDbSymbolTableRecord
100
AcDbLinetypeTableRecord
  2
DIVIDEX2
 70
    0
  3
Divide (2x) ________  .  .  ________  .  .  _
 72
   65
 73
    6
 40
63.5
 49
25.4
 74
    0
 49
-12.7
 74
    0
 49
0
 74
    0
 49
-12.7
 74
    0
 49
0
 74
    0
 49
-12.7
 74
    0
  0
LTYPE
  5
42
330
5
100
AcDbSymbolTableRecord
100
AcDbLinetypeTableRecord
  2
BORDER
 70
    0
  3
Border __ __ . __ __ . __ __ . __ __ . __ __ .
 72
   65
 73
    6
 40
44.45
 49
12.7
 74
    0
 49
-6.35
 74
    0
 49
12.7
 74
    0
 49
-6.35
 74
    0
 49
0
 74
    0
 49
-6.35
 74
    0
  0
LTYPE
  5
43
330
5
100
AcDbSymbolTableRecord
100
AcDbLinetypeTableRecord
  2
BORDERTINY
 70
    0
  3
Border (.15x) __.__.__.__.__.__.__.__.__.__.__.
 72
   65
 73
    6
 40
6.6675
 49
1.905
 74
    0
 49
-0.9525
 74
    0
 49
1.905
 74
    0
 49
-0.9525
 74
    0
 49
0
 74
    0
 49
-0.9525
 74
    0
  0
LTYPE
  5
44
330
5
100
AcDbSymbolTableRecord
100
AcDbLinetypeTableRecord
  2
BORDER2
 70
    0
  3
Border (.5x) __.__.__.__.__.__.__.__.__.__.__.
 72
   65
 73
    6
 40
22.225
 49
6.35
 74
    0
 49
-3.175
 74
    0
 49
6.35
 74
    0
 49
-3.175
 74
    0
 49
0
 74
    0
 49
-3.175
 74
    0
  0
LTYPE
  5
45
330
5
100
AcDbSymbolTableRecord
100
AcDbLinetypeTableRecord
  2
BORDERX2
 70
    0
  3
Border (2x) ____  ____  .  ____  ____  .  ___
 72
   65
 73
    6
 40
88.89999999999999
 49
25.4
 74
    0
 49
-12.7
 74
    0
 49
25.4
 74
    0
 49
-12.7
 74
    0
 49
0
 74
    0
 49
-12.7
 74
    0
  0
LTYPE
  5
46
330
5
100
AcDbSymbolTableRecord
100
AcDbLinetypeTableRecord
  2
CENTER
 70
    0
  3
Center ____ _ ____ _ ____ _ ____ _ ____ _ ____
 72
   65
 73
    4
 40
50.8
 49
31.75
 74
    0
 49
-6.35
 74
    0
 49
6.35
 74
    0
 49
-6.35
 74
    0
  0
LTYPE
  5
47
330
5
100
AcDbSymbolTableRecord
100
AcDbLinetypeTableRecord
  2
CENTERTINY
 70
    0
  3
Center (.15x) ___ _ ___ _ ___ _ ___ _ ___ _ ___
 72
   65
 73
    4
 40
7.62
 49
4.7625
 74
    0
 49
-0.9525
 74
    0
 49
0.9525
 74
    0
 49
-0.9525
 74
    0
  0
LTYPE
  5
48
330
5
100
AcDbSymbolTableRecord
100
AcDbLinetypeTableRecord
  2
CENTER2
 70
    0
  3
Center (.5x) ___ _ ___ _ ___ _ ___ _ ___ _ ___
 72
   65
 73
    4
 40
28.575
 49
19.05
 74
    0
 49
-3.175
 74
    0
 49
3.175
 74
    0
 49
-3.175
 74
    0
  0
LTYPE
  5
49
330
5
100
AcDbSymbolTableRecord
100
AcDbLinetypeTableRecord
  2
CENTERX2
 70
    0
  3
Center (2x) ________  __  ________  __  _____
 72
   65
 73
    4
 40
101.6
 49
63.5
 74
    0
 49
-12.7
 74
    0
 49
12.7
 74
    0
 49
-12.7
 74
    0
  0
ENDTAB
  0
TABLE
  2
LAYER
  5
2
330
0
100
AcDbSymbolTable
 70
    1
  0
LAYER
  5
10
330
2
100
AcDbSymbolTableRecord
100
AcDbLayerTableRecord
  2
0
 70
    0
 62
    7
  6
CONTINUOUS
370
   -3
390
F
  0
ENDTAB
  0
TABLE
  2
STYLE
  5
3
330
0
100
AcDbSymbolTable
 70
    3
  0
STYLE
  5
4A
330
2
100
AcDbSymbolTableRecord
100
AcDbTextStyleTableRecord
  2
Standard
 70
    0
 40
0
 41
1
 50
0
 71
    0
 42
1
  3
txt
  4

  0
ENDTAB
  0
TABLE
  2
VIEW
  5
6
330
0
100
AcDbSymbolTable
 70
    0
  0
ENDTAB
  0
TABLE
  2
UCS
  5
7
330
0
100
AcDbSymbolTable
 70
    0
  0
ENDTAB
  0
TABLE
  2
APPID
  5
9
330
0
100
AcDbSymbolTable
 70
    1
  0
APPID
  5
12
330
9
100
AcDbSymbolTableRecord
100
AcDbRegAppTableRecord
  2
ACAD
 70
    0
  0
APPID
  5
4B
330
9
100
AcDbSymbolTableRecord
100
AcDbRegAppTableRecord
  2
LibreCad
 70
    0
  0
ENDTAB
  0
TABLE
  2
DIMSTYLE
  5
A
330
0
100
AcDbSymbolTable
 70
    1
100
AcDbDimStyleTable
 71
    1
  0
DIMSTYLE
105
4C
330
A
100
AcDbSymbolTableRecord
100
AcDbDimStyleTableRecord
  2
Standard
 70
    0
 40
1
 41
3.302
 42
0
 43
0.38
 44
1
 45
0
 46
0
 47
0
 48
0
 49
1
140
3.5
141
0.09
142
0
143
25.4
144
1
145
0
146
1
147
1.524
148
0
 71
    0
 72
    0
 73
    1
 74
    1
 75
    0
 76
    0
 77
    0
 78
    1
 79
    0
170
    0
171
    2
172
    0
173
    0
174
    0
175
    0
176
    0
177
    0
178
    0
179
    0
271
    2
272
    4
273
    2
274
    2
275
    0
276
    0
277
    2
278
   44
279
    0
280
    0
281
    0
282
    0
283
    1
284
    0
285
    0
286
    0
288
    0
289
    3
340
4A
  0
ENDTAB
  0
TABLE
  2
BLOCK_RECORD
  5
1
330
0
100
AcDbSymbolTable
 70
    2
  0
BLOCK_RECORD
  5
1F
330
1
100
AcDbSymbolTableRecord
100
AcDbBlockTableRecord
  2
*Model_Space
 70
    0
280
    1
281
    0
  0
BLOCK_RECORD
  5
1E
330
1
100
AcDbSymbolTableRecord
100
AcDbBlockTableRecord
  2
*Paper_Space
 70
    0
280
    1
281
    0
  0
ENDTAB
  0
ENDSEC
  0
SECTION
  2
BLOCKS
  0
BLOCK
  5
20
330
1F
100
AcDbEntity
  8
0
100
AcDbBlockBegin
  2
*Model_Space
 70
    0
 10
0
 20
0
 30
0
  3
*Model_Space
  1

  0
ENDBLK
  5
21
330
1F
100
AcDbEntity
  8
0
100
AcDbBlockEnd
  0
BLOCK
  5
1C
330
1B
100
AcDbEntity
  8
0
100
AcDbBlockBegin
  2
*Paper_Space
 70
    0
 10
0
 20
0
 30
0
  3
*Paper_Space
  1

  0
ENDBLK
  5
1D
330
1F
100
AcDbEntity
  8
0
100
AcDbBlockEnd
  0
ENDSEC
  0
SECTION
  2
ENTITIES
  0
CIRCLE
  5
4D
100
AcDbEntity
  8
0
  6
CONTINUOUS
 62
    7
370
   25
100
AcDbCircle
 10
6.9999820307
 20
1.87994e-05
 40
1.550000000000001
  0
CIRCLE
  5
4E
100
AcDbEntity
  8
0
  6
CONTINUOUS
 62
    7
370
   25
100
AcDbCircle
 10
-7.0000312068
 20
-5.0655e-06
 40
1.550000000000001
  0
ARC
  5
4F
100
AcDbEntity
  8
0
  6
CONTINUOUS
 62
    7
370
   25
100
AcDbCircle
 10
2.07616e-05
 20
7.873689999999999e-05
 40
13.5
100
AcDbArc
 50
189.1322481038
 51
193.3683609528
  0
LINE
  5
50
100
AcDbEntity
  8
0
  6
CONTINUOUS
 62
    7
370
   25
100
AcDbLine
 10
-13.1341792203
 20
-3.1212656585
 11
-12.8680399203
 21
-3.2125109585
  0
LINE
  5
51
100
AcDbEntity
  8
0
  6
CONTINUOUS
 62
    7
370
   25
100
AcDbLine
 10
-12.8680399203
 20
-3.2125109585
 11
-12.5975038203
 21
-3.2929763585
  0
LINE
  5
52
100
AcDbEntity
  8
0
  6
CONTINUOUS
 62
    7
370
   25
100
AcDbLine
 10
-12.5975038203
 20
-3.2929763585
 11
-12.3431891203
 21
-3.3571708585
  0
LINE
  5
53
100
AcDbEntity
  8
0
  6
CONTINUOUS
 62
    7
370
   25
100
AcDbLine
 10
-12.3431891203
 20
-3.3571708585
 11
-12.1045595203
 21
-3.4068855585
  0
LINE
  5
54
100
AcDbEntity
  8
0
  6
CONTINUOUS
 62
    7
370
   25
100
AcDbLine
 10
-12.1045595203
 20
-3.4068855585
 11
-11.8845995203
 21
-3.4431727585
  0
LINE
  5
55
100
AcDbEntity
  8
0
  6
CONTINUOUS
 62
    7
370
   25
100
AcDbLine
 10
-11.8845995203
 20
-3.4431727585
 11
-11.6815641203
 21
-3.4679721585
  0
LINE
  5
56
100
AcDbEntity
  8
0
  6
CONTINUOUS
 62
    7
370
   25
100
AcDbLine
 10
-11.6815641203
 20
-3.4679721585
 11
-11.4999363203
 21
-3.4824806585
  0
LINE
  5
57
100
AcDbEntity
  8
0
  6
CONTINUOUS
 62
    7
370
   25
100
AcDbLine
 10
-11.4999363203
 20
-3.4824806585
 11
-11.3357844203
 21
-3.4887171585
  0
LINE
  5
58
100
AcDbEntity
  8
0
  6
CONTINUOUS
 62
    7
370
   25
100
AcDbLine
 10
-11.3357844203
 20
-3.4887171585
 11
-11.1924345203
 21
-3.4881893585
  0
LINE
  5
59
100
AcDbEntity
  8
0
  6
CONTINUOUS
 62
    7
370
   25
100
AcDbLine
 10
-11.1924345203
 20
-3.4881893585
 11
-11.0687725203
 21
-3.4825680585
  0
LINE
  5
5A
100
AcDbEntity
  8
0
  6
CONTINUOUS
 62
    7
370
   25
100
AcDbLine
 10
-11.0687725203
 20
-3.4825680585
 11
-10.8789991203
 21
-3.4623888585
  0
LINE
  5
5B
100
AcDbEntity
  8
0
  6
CONTINUOUS
 62
    7
370
   25
100
AcDbLine
 10
-10.8789991203
 20
-3.4623888585
 11
-10.7701000203
 21
-3.4416135585
  0
LINE
  5
5C
100
AcDbEntity
  8
0
  6
CONTINUOUS
 62
    7
370
   25
100
AcDbLine
 10
-10.7701000203
 20
-3.4416135585
 11
-10.5974193203
 21
-3.3877731585
  0
LINE
  5
5D
100
AcDbEntity
  8
0
  6
CONTINUOUS
 62
    7
370
   25
100
AcDbLine
 10
-10.5974193203
 20
-3.3877731585
 11
-10.4388107203
 21
-3.3507587585
  0
LINE
  5
5E
100
AcDbEntity
  8
0
  6
CONTINUOUS
 62
    7
370
   25
100
AcDbLine
 10
-10.4388107203
 20
-3.3507587585
 11
-10.2962002203
 21
-3.3322447585
  0
LINE
  5
5F
100
AcDbEntity
  8
0
  6
CONTINUOUS
 62
    7
370
   25
100
AcDbLine
 10
-10.2962002203
 20
-3.3322447585
 11
-10.1708454203
 21
-3.3308146585
  0
LINE
  5
60
100
AcDbEntity
  8
0
  6
CONTINUOUS
 62
    7
370
   25
100
AcDbLine
 10
-10.1708454203
 20
-3.3308146585
 11
-10.0638732203
 21
-3.3449761585
  0
LINE
  5
61
100
AcDbEntity
  8
0
  6
CONTINUOUS
 62
    7
370
   25
100
AcDbLine
 10
-10.0638732203
 20
-3.3449761585
 11
-9.976346620299999
 21
-3.3731562585
  0
LINE
  5
62
100
AcDbEntity
  8
0
  6
CONTINUOUS
 62
    7
370
   25
100
AcDbLine
 10
-9.976346620299999
 20
-3.3731562585
 11
-9.940178320299999
 21
-3.3920104585
  0
LINE
  5
63
100
AcDbEntity
  8
0
  6
CONTINUOUS
 62
    7
370
   25
100
AcDbLine
 10
-9.940178320299999
 20
-3.3920104585
 11
-9.9092137203
 21
-3.4137452585
  0
LINE
  5
64
100
AcDbEntity
  8
0
  6
CONTINUOUS
 62
    7
370
   25
100
AcDbLine
 10
-9.9092137203
 20
-3.4137452585
 11
-9.8835739203
 21
-3.4381727585
  0
LINE
  5
65
100
AcDbEntity
  8
0
  6
CONTINUOUS
 62
    7
370
   25
100
AcDbLine
 10
-9.8835739203
 20
-3.4381727585
 11
-9.863341720299999
 21
-3.4650674585
  0
LINE
  5
66
100
AcDbEntity
  8
0
  6
CONTINUOUS
 62
    7
370
   25
100
AcDbLine
 10
-9.863341720299999
 20
-3.4650674585
 11
-9.8458009203
 21
-3.5018227585
  0
LINE
  5
67
100
AcDbEntity
  8
0
  6
CONTINUOUS
 62
    7
370
   25
100
AcDbLine
 10
-9.8458009203
 20
-3.5018227585
 11
-9.7062632203
 21
-3.8718831585
  0
LINE
  5
68
100
AcDbEntity
  8
0
  6
CONTINUOUS
 62
    7
370
   25
100
AcDbLine
 10
-9.7062632203
 20
-3.8718831585
 11
-9.6545360203
 21
-3.9990370585
  0
LINE
  5
69
100
AcDbEntity
  8
0
  6
CONTINUOUS
 62
    7
370
   25
100
AcDbLine
 10
-9.6545360203
 20
-3.9990370585
 11
-9.6012013203
 21
-4.1255250585
  0
LINE
  5
6A
100
AcDbEntity
  8
0
  6
CONTINUOUS
 62
    7
370
   25
100
AcDbLine
 10
-9.6012013203
 20
-4.1255250585
 11
-9.4381971203
 21
-4.4858652585
  0
LINE
  5
6B
100
AcDbEntity
  8
0
  6
CONTINUOUS
 62
    7
370
   25
100
AcDbLine
 10
-9.4381971203
 20
-4.4858652585
 11
-9.424610420300001
 21
-4.5242584585
  0
LINE
  5
6C
100
AcDbEntity
  8
0
  6
CONTINUOUS
 62
    7
370
   25
100
AcDbLine
 10
-9.424610420300001
 20
-4.5242584585
 11
-9.4198994203
 21
-4.5575821585
  0
LINE
  5
6D
100
AcDbEntity
  8
0
  6
CONTINUOUS
 62
    7
370
   25
100
AcDbLine
 10
-9.4198994203
 20
-4.5575821585
 11
-9.420756520299999
 21
-4.5929850585
  0
LINE
  5
6E
100
AcDbEntity
  8
0
  6
CONTINUOUS
 62
    7
370
   25
100
AcDbLine
 10
-9.420756520299999
 20
-4.5929850585
 11
-9.427283020300001
 21
-4.6302492585
  0
LINE
  5
6F
100
AcDbEntity
  8
0
  6
CONTINUOUS
 62
    7
370
   25
100
AcDbLine
 10
-9.427283020300001
 20
-4.6302492585
 11
-9.439525920299999
 21
-4.6691559585
  0
LINE
  5
70
100
AcDbEntity
  8
0
  6
CONTINUOUS
 62
    7
370
   25
100
AcDbLine
 10
-9.439525920299999
 20
-4.6691559585
 11
-9.481490320300001
 21
-4.7509729585
  0
LINE
  5
71
100
AcDbEntity
  8
0
  6
CONTINUOUS
 62
    7
370
   25
100
AcDbLine
 10
-9.481490320300001
 20
-4.7509729585
 11
-9.5471173203
 21
-4.8366274585
  0
LINE
  5
72
100
AcDbEntity
  8
0
  6
CONTINUOUS
 62
    7
370
   25
100
AcDbLine
 10
-9.5471173203
 20
-4.8366274585
 11
-9.6367677203
 21
-4.9242554585
  0
LINE
  5
73
100
AcDbEntity
  8
0
  6
CONTINUOUS
 62
    7
370
   25
100
AcDbLine
 10
-9.6367677203
 20
-4.9242554585
 11
-9.7507000203
 21
-5.0120049585
  0
LINE
  5
74
100
AcDbEntity
  8
0
  6
CONTINUOUS
 62
    7
370
   25
100
AcDbLine
 10
-9.7507000203
 20
-5.0120049585
 11
-9.889026320299999
 21
-5.0979850585
  0
LINE
  5
75
100
AcDbEntity
  8
0
  6
CONTINUOUS
 62
    7
370
   25
100
AcDbLine
 10
-9.889026320299999
 20
-5.0979850585
 11
-10.0492009203
 21
-5.1820177585
  0
LINE
  5
76
100
AcDbEntity
  8
0
  6
CONTINUOUS
 62
    7
370
   25
100
AcDbLine
 10
-10.0492009203
 20
-5.1820177585
 11
-10.1408946203
 21
-5.2443307585
  0
LINE
  5
77
100
AcDbEntity
  8
0
  6
CONTINUOUS
 62
    7
370
   25
100
AcDbLine
 10
-10.1408946203
 20
-5.2443307585
 11
-10.2893535203
 21
-5.3642519585
  0
LINE
  5
78
100
AcDbEntity
  8
0
  6
CONTINUOUS
 62
    7
370
   25
100
AcDbLine
 10
-10.2893535203
 20
-5.3642519585
 11
-10.3807706203
 21
-5.4477193585
  0
LINE
  5
79
100
AcDbEntity
  8
0
  6
CONTINUOUS
 62
    7
370
   25
100
AcDbLine
 10
-10.3807706203
 20
-5.4477193585
 11
-10.4825075203
 21
-5.5487098585
  0
LINE
  5
7A
100
AcDbEntity
  8
0
  6
CONTINUOUS
 62
    7
370
   25
100
AcDbLine
 10
-10.4825075203
 20
-5.5487098585
 11
-10.5941706203
 21
-5.6691926585
  0
LINE
  5
7B
100
AcDbEntity
  8
0
  6
CONTINUOUS
 62
    7
370
   25
100
AcDbLine
 10
-10.5941706203
 20
-5.6691926585
 11
-10.7123417203
 21
-5.8078818585
  0
LINE
  5
7C
100
AcDbEntity
  8
0
  6
CONTINUOUS
 62
    7
370
   25
100
AcDbLine
 10
-10.7123417203
 20
-5.8078818585
 11
-10.8383737203
 21
-5.9689854585
  0
LINE
  5
7D
100
AcDbEntity
  8
0
  6
CONTINUOUS
 62
    7
370
   25
100
AcDbLine
 10
-10.8383737203
 20
-5.9689854585
 11
-10.9682499203
 21
-6.1501795585
  0
LINE
  5
7E
100
AcDbEntity
  8
0
  6
CONTINUOUS
 62
    7
370
   25
100
AcDbLine
 10
-10.9682499203
 20
-6.1501795585
 11
-11.1018329203
 21
-6.3540697585
  0
LINE
  5
7F
100
AcDbEntity
  8
0
  6
CONTINUOUS
 62
    7
370
   25
100
AcDbLine
 10
-11.1018329203
 20
-6.3540697585
 11
-11.2362682203
 21
-6.5792897585
  0
LINE
  5
80
100
AcDbEntity
  8
0
  6
CONTINUOUS
 62
    7
370
   25
100
AcDbLine
 10
-11.2362682203
 20
-6.5792897585
 11
-11.3706685203
 21
-6.8274853585
  0
LINE
  5
81
100
AcDbEntity
  8
0
  6
CONTINUOUS
 62
    7
370
   25
100
AcDbLine
 10
-11.3706685203
 20
-6.8274853585
 11
-11.4943372203
 21
-7.0801943585
  0
ARC
  5
82
100
AcDbEntity
  8
0
  6
CONTINUOUS
 62
    7
370
   25
100
AcDbCircle
 10
2.41352e-05
 20
3.20457e-05
 40
13.49999810760213
100
AcDbArc
 50
211.631984547
 51
215.8681175671
  0
LINE
  5
83
100
AcDbEntity
  8
0
  6
CONTINUOUS
 62
    7
370
   25
100
AcDbLine
 10
-10.9399396843
 20
-7.9099073051
 11
-10.6591409843
 21
-7.8923600051
  0
LINE
  5
84
100
AcDbEntity
  8
0
  6
CONTINUOUS
 62
    7
370
   25
100
AcDbLine
 10
-10.6591409843
 20
-7.8923600051
 11
-10.3784054843
 21
-7.8631706051
  0
LINE
  5
85
100
AcDbEntity
  8
0
  6
CONTINUOUS
 62
    7
370
   25
100
AcDbLine
 10
-10.3784054843
 20
-7.8631706051
 11
-10.1188831843
 21
-7.8251565051
  0
LINE
  5
86
100
AcDbEntity
  8
0
  6
CONTINUOUS
 62
    7
370
   25
100
AcDbLine
 10
-10.1188831843
 20
-7.8251565051
 11
-9.8793931843
 21
-7.7797674051
  0
LINE
  5
87
100
AcDbEntity
  8
0
  6
CONTINUOUS
 62
    7
370
   25
100
AcDbLine
 10
-9.8793931843
 20
-7.7797674051
 11
-9.6622901843
 21
-7.7291173051
  0
LINE
  5
88
100
AcDbEntity
  8
0
  6
CONTINUOUS
 62
    7
370
   25
100
AcDbLine
 10
-9.6622901843
 20
-7.7291173051
 11
-9.4652194843
 21
-7.6743307051
  0
LINE
  5
89
100
AcDbEntity
  8
0
  6
CONTINUOUS
 62
    7
370
   25
100
AcDbLine
 10
-9.4652194843
 20
-7.6743307051
 11
-9.291865184300001
 21
-7.6182288051
  0
LINE
  5
8A
100
AcDbEntity
  8
0
  6
CONTINUOUS
 62
    7
370
   25
100
AcDbLine
 10
-9.291865184300001
 20
-7.6182288051
 11
-9.1378219843
 21
-7.5611724051
  0
LINE
  5
8B
100
AcDbEntity
  8
0
  6
CONTINUOUS
 62
    7
370
   25
100
AcDbLine
 10
-9.1378219843
 20
-7.5611724051
 11
-9.0055859843
 21
-7.5058271051
  0
LINE
  5
8C
100
AcDbEntity
  8
0
  6
CONTINUOUS
 62
    7
370
   25
100
AcDbLine
 10
-9.0055859843
 20
-7.5058271051
 11
-8.8934882843
 21
-7.4533103051
  0
LINE
  5
8D
100
AcDbEntity
  8
0
  6
CONTINUOUS
 62
    7
370
   25
100
AcDbLine
 10
-8.8934882843
 20
-7.4533103051
 11
-8.7258827843
 21
-7.3620440051
  0
LINE
  5
8E
100
AcDbEntity
  8
0
  6
CONTINUOUS
 62
    7
370
   25
100
AcDbLine
 10
-8.7258827843
 20
-7.3620440051
 11
-8.6332234843
 21
-7.3011763051
  0
LINE
  5
8F
100
AcDbEntity
  8
0
  6
CONTINUOUS
 62
    7
370
   25
100
AcDbLine
 10
-8.6332234843
 20
-7.3011763051
 11
-8.4942911843
 21
-7.1853522051
  0
LINE
  5
90
100
AcDbEntity
  8
0
  6
CONTINUOUS
 62
    7
370
   25
100
AcDbLine
 10
-8.4942911843
 20
-7.1853522051
 11
-8.361920784300001
 21
-7.0904585051
  0
LINE
  5
91
100
AcDbEntity
  8
0
  6
CONTINUOUS
 62
    7
370
   25
100
AcDbLine
 10
-8.361920784300001
 20
-7.0904585051
 11
-8.2372507843
 21
-7.0187790051
  0
LINE
  5
92
100
AcDbEntity
  8
0
  6
CONTINUOUS
 62
    7
370
   25
100
AcDbLine
 10
-8.2372507843
 20
-7.0187790051
 11
-8.121985284300001
 21
-6.9694866051
  0
LINE
  5
93
100
AcDbEntity
  8
0
  6
CONTINUOUS
 62
    7
370
   25
100
AcDbLine
 10
-8.121985284300001
 20
-6.9694866051
 11
-8.0177365843
 21
-6.9416337051
  0
LINE
  5
94
100
AcDbEntity
  8
0
  6
CONTINUOUS
 62
    7
370
   25
100
AcDbLine
 10
-8.0177365843
 20
-6.9416337051
 11
-7.9260884843
 21
-6.9341737051
  0
LINE
  5
95
100
AcDbEntity
  8
0
  6
CONTINUOUS
 62
    7
370
   25
100
AcDbLine
 10
-7.9260884843
 20
-6.9341737051
 11
-7.8854580843
 21
-6.9377517051
  0
LINE
  5
96
100
AcDbEntity
  8
0
  6
CONTINUOUS
 62
    7
370
   25
100
AcDbLine
 10
-7.8854580843
 20
-6.9377517051
 11
-7.8485329843
 21
-6.9459824051
  0
LINE
  5
97
100
AcDbEntity
  8
0
  6
CONTINUOUS
 62
    7
370
   25
100
AcDbLine
 10
-7.8485329843
 20
-6.9459824051
 11
-7.8154969843
 21
-6.9587386051
  0
LINE
  5
98
100
AcDbEntity
  8
0
  6
CONTINUOUS
 62
    7
370
   25
100
AcDbLine
 10
-7.8154969843
 20
-6.9587386051
 11
-7.7865126843
 21
-6.9758435051
  0
LINE
  5
99
100
AcDbEntity
  8
0
  6
CONTINUOUS
 62
    7
370
   25
100
AcDbLine
 10
-7.7865126843
 20
-6.9758435051
 11
-7.7562413843
 21
-7.0030883051
  0
LINE
  5
9A
100
AcDbEntity
  8
0
  6
CONTINUOUS
 62
    7
370
   25
100
AcDbLine
 10
-7.7562413843
 20
-7.0030883051
 11
-7.4857093843
 21
-7.2915808051
  0
LINE
  5
9B
100
AcDbEntity
  8
0
  6
CONTINUOUS
 62
    7
370
   25
100
AcDbLine
 10
-7.4857093843
 20
-7.2915808051
 11
-7.3892600843
 21
-7.3892606051
  0
LINE
  5
9C
100
AcDbEntity
  8
0
  6
CONTINUOUS
 62
    7
370
   25
100
AcDbLine
 10
-7.3892600843
 20
-7.3892606051
 11
-7.2915802843
 21
-7.4857099051
  0
LINE
  5
9D
100
AcDbEntity
  8
0
  6
CONTINUOUS
 62
    7
370
   25
100
AcDbLine
 10
-7.2915802843
 20
-7.4857099051
 11
-7.0030877843
 21
-7.7562419051
  0
LINE
  5
9E
100
AcDbEntity
  8
0
  6
CONTINUOUS
 62
    7
370
   25
100
AcDbLine
 10
-7.0030877843
 20
-7.7562419051
 11
-6.9758429843
 21
-7.7865132051
  0
LINE
  5
9F
100
AcDbEntity
  8
0
  6
CONTINUOUS
 62
    7
370
   25
100
AcDbLine
 10
-6.9758429843
 20
-7.7865132051
 11
-6.9587380843
 21
-7.8154975051
  0
LINE
  5
A0
100
AcDbEntity
  8
0
  6
CONTINUOUS
 62
    7
370
   25
100
AcDbLine
 10
-6.9587380843
 20
-7.8154975051
 11
-6.9459818843
 21
-7.8485335051
  0
LINE
  5
A1
100
AcDbEntity
  8
0
  6
CONTINUOUS
 62
    7
370
   25
100
AcDbLine
 10
-6.9459818843
 20
-7.8485335051
 11
-6.9377511843
 21
-7.8854586051
  0
LINE
  5
A2
100
AcDbEntity
  8
0
  6
CONTINUOUS
 62
    7
370
   25
100
AcDbLine
 10
-6.9377511843
 20
-7.8854586051
 11
-6.9341731843
 21
-7.9260890051
  0
LINE
  5
A3
100
AcDbEntity
  8
0
  6
CONTINUOUS
 62
    7
370
   25
100
AcDbLine
 10
-6.9341731843
 20
-7.9260890051
 11
-6.9416331843
 21
-8.0177371051
  0
LINE
  5
A4
100
AcDbEntity
  8
0
  6
CONTINUOUS
 62
    7
370
   25
100
AcDbLine
 10
-6.9416331843
 20
-8.0177371051
 11
-6.9694860843
 21
-8.1219858051
  0
LINE
  5
A5
100
AcDbEntity
  8
0
  6
CONTINUOUS
 62
    7
370
   25
100
AcDbLine
 10
-6.9694860843
 20
-8.1219858051
 11
-7.0187784843
 21
-8.237251305099999
  0
LINE
  5
A6
100
AcDbEntity
  8
0
  6
CONTINUOUS
 62
    7
370
   25
100
AcDbLine
 10
-7.0187784843
 20
-8.237251305099999
 11
-7.0904579843
 21
-8.361921305099999
  0
LINE
  5
A7
100
AcDbEntity
  8
0
  6
CONTINUOUS
 62
    7
370
   25
100
AcDbLine
 10
-7.0904579843
 20
-8.361921305099999
 11
-7.1853516843
 21
-8.4942917051
  0
LINE
  5
A8
100
AcDbEntity
  8
0
  6
CONTINUOUS
 62
    7
370
   25
100
AcDbLine
 10
-7.1853516843
 20
-8.4942917051
 11
-7.3011757843
 21
-8.633224005100001
  0
LINE
  5
A9
100
AcDbEntity
  8
0
  6
CONTINUOUS
 62
    7
370
   25
100
AcDbLine
 10
-7.3011757843
 20
-8.633224005100001
 11
-7.3620434843
 21
-8.7258833051
  0
LINE
  5
AA
100
AcDbEntity
  8
0
  6
CONTINUOUS
 62
    7
370
   25
100
AcDbLine
 10
-7.3620434843
 20
-8.7258833051
 11
-7.4533097843
 21
-8.893488805100001
  0
LINE
  5
AB
100
AcDbEntity
  8
0
  6
CONTINUOUS
 62
    7
370
   25
100
AcDbLine
 10
-7.4533097843
 20
-8.893488805100001
 11
-7.5058265843
 21
-9.0055865051
  0
LINE
  5
AC
100
AcDbEntity
  8
0
  6
CONTINUOUS
 62
    7
370
   25
100
AcDbLine
 10
-7.5058265843
 20
-9.0055865051
 11
-7.5611718843
 21
-9.137822505100001
  0
LINE
  5
AD
100
AcDbEntity
  8
0
  6
CONTINUOUS
 62
    7
370
   25
100
AcDbLine
 10
-7.5611718843
 20
-9.137822505100001
 11
-7.6182282843
 21
-9.291865705099999
  0
LINE
  5
AE
100
AcDbEntity
  8
0
  6
CONTINUOUS
 62
    7
370
   25
100
AcDbLine
 10
-7.6182282843
 20
-9.291865705099999
 11
-7.6743301843
 21
-9.465220005100001
  0
LINE
  5
AF
100
AcDbEntity
  8
0
  6
CONTINUOUS
 62
    7
370
   25
100
AcDbLine
 10
-7.6743301843
 20
-9.465220005100001
 11
-7.7291167843
 21
-9.6622907051
  0
LINE
  5
B0
100
AcDbEntity
  8
0
  6
CONTINUOUS
 62
    7
370
   25
100
AcDbLine
 10
-7.7291167843
 20
-9.6622907051
 11
-7.7797668843
 21
-9.8793937051
  0
LINE
  5
B1
100
AcDbEntity
  8
0
  6
CONTINUOUS
 62
    7
370
   25
100
AcDbLine
 10
-7.7797668843
 20
-9.8793937051
 11
-7.8251559843
 21
-10.1188837051
  0
LINE
  5
B2
100
AcDbEntity
  8
0
  6
CONTINUOUS
 62
    7
370
   25
100
AcDbLine
 10
-7.8251559843
 20
-10.1188837051
 11
-7.8631700843
 21
-10.3784060051
  0
LINE
  5
B3
100
AcDbEntity
  8
0
  6
CONTINUOUS
 62
    7
370
   25
100
AcDbLine
 10
-7.8631700843
 20
-10.3784060051
 11
-7.8923594843
 21
-10.6591415051
  0
LINE
  5
B4
100
AcDbEntity
  8
0
  6
CONTINUOUS
 62
    7
370
   25
100
AcDbLine
 10
-7.8923594843
 20
-10.6591415051
 11
-7.9099067843
 21
-10.9399402051
  0
ARC
  5
B5
100
AcDbEntity
  8
0
  6
CONTINUOUS
 62
    7
370
   25
100
AcDbCircle
 10
2.41352e-05
 20
3.20457e-05
 40
13.5
100
AcDbArc
 50
234.1319323976
 51
238.3680646879
  0
LINE
  5
B6
100
AcDbEntity
  8
0
  6
CONTINUOUS
 62
    7
370
   25
100
AcDbLine
 10
-7.0801933843
 20
-11.4943370051
 11
-6.8274843843
 21
-11.3706683051
  0
LINE
  5
B7
100
AcDbEntity
  8
0
  6
CONTINUOUS
 62
    7
370
   25
100
AcDbLine
 10
-6.8274843843
 20
-11.3706683051
 11
-6.5792887843
 21
-11.2362680051
  0
LINE
  5
B8
100
AcDbEntity
  8
0
  6
CONTINUOUS
 62
    7
370
   25
100
AcDbLine
 10
-6.5792887843
 20
-11.2362680051
 11
-6.3540687843
 21
-11.1018327051
  0
LINE
  5
B9
100
AcDbEntity
  8
0
  6
CONTINUOUS
 62
    7
370
   25
100
AcDbLine
 10
-6.3540687843
 20
-11.1018327051
 11
-6.1501785843
 21
-10.9682497051
  0
LINE
  5
BA
100
AcDbEntity
  8
0
  6
CONTINUOUS
 62
    7
370
   25
100
AcDbLine
 10
-6.1501785843
 20
-10.9682497051
 11
-5.9689844843
 21
-10.8383735051
  0
LINE
  5
BB
100
AcDbEntity
  8
0
  6
CONTINUOUS
 62
    7
370
   25
100
AcDbLine
 10
-5.9689844843
 20
-10.8383735051
 11
-5.8078808843
 21
-10.7123415051
  0
LINE
  5
BC
100
AcDbEntity
  8
0
  6
CONTINUOUS
 62
    7
370
   25
100
AcDbLine
 10
-5.8078808843
 20
-10.7123415051
 11
-5.6691916843
 21
-10.5941704051
  0
LINE
  5
BD
100
AcDbEntity
  8
0
  6
CONTINUOUS
 62
    7
370
   25
100
AcDbLine
 10
-5.6691916843
 20
-10.5941704051
 11
-5.5487088843
 21
-10.4825073051
  0
LINE
  5
BE
100
AcDbEntity
  8
0
  6
CONTINUOUS
 62
    7
370
   25
100
AcDbLine
 10
-5.5487088843
 20
-10.4825073051
 11
-5.4477183843
 21
-10.3807704051
  0
LINE
  5
BF
100
AcDbEntity
  8
0
  6
CONTINUOUS
 62
    7
370
   25
100
AcDbLine
 10
-5.4477183843
 20
-10.3807704051
 11
-5.3642509843
 21
-10.2893533051
  0
LINE
  5
C0
100
AcDbEntity
  8
0
  6
CONTINUOUS
 62
    7
370
   25
100
AcDbLine
 10
-5.3642509843
 20
-10.2893533051
 11
-5.2443297843
 21
-10.1408944051
  0
LINE
  5
C1
100
AcDbEntity
  8
0
  6
CONTINUOUS
 62
    7
370
   25
100
AcDbLine
 10
-5.2443297843
 20
-10.1408944051
 11
-5.1820167843
 21
-10.0492007051
  0
LINE
  5
C2
100
AcDbEntity
  8
0
  6
CONTINUOUS
 62
    7
370
   25
100
AcDbLine
 10
-5.1820167843
 20
-10.0492007051
 11
-5.0979840843
 21
-9.889026105099999
  0
LINE
  5
C3
100
AcDbEntity
  8
0
  6
CONTINUOUS
 62
    7
370
   25
100
AcDbLine
 10
-5.0979840843
 20
-9.889026105099999
 11
-5.0120039843
 21
-9.7506998051
  0
LINE
  5
C4
100
AcDbEntity
  8
0
  6
CONTINUOUS
 62
    7
370
   25
100
AcDbLine
 10
-5.0120039843
 20
-9.7506998051
 11
-4.9242544843
 21
-9.6367675051
  0
LINE
  5
C5
100
AcDbEntity
  8
0
  6
CONTINUOUS
 62
    7
370
   25
100
AcDbLine
 10
-4.9242544843
 20
-9.6367675051
 11
-4.8366264843
 21
-9.5471171051
  0
LINE
  5
C6
100
AcDbEntity
  8
0
  6
CONTINUOUS
 62
    7
370
   25
100
AcDbLine
 10
-4.8366264843
 20
-9.5471171051
 11
-4.7509719843
 21
-9.481490105100001
  0
LINE
  5
C7
100
AcDbEntity
  8
0
  6
CONTINUOUS
 62
    7
370
   25
100
AcDbLine
 10
-4.7509719843
 20
-9.481490105100001
 11
-4.6691549843
 21
-9.439525705099999
  0
LINE
  5
C8
100
AcDbEntity
  8
0
  6
CONTINUOUS
 62
    7
370
   25
100
AcDbLine
 10
-4.6691549843
 20
-9.439525705099999
 11
-4.6302482843
 21
-9.427282805100001
  0
LINE
  5
C9
100
AcDbEntity
  8
0
  6
CONTINUOUS
 62
    7
370
   25
100
AcDbLine
 10
-4.6302482843
 20
-9.427282805100001
 11
-4.5929840843
 21
-9.420756305099999
  0
LINE
  5
CA
100
AcDbEntity
  8
0
  6
CONTINUOUS
 62
    7
370
   25
100
AcDbLine
 10
-4.5929840843
 20
-9.420756305099999
 11
-4.5575811843
 21
-9.4198992051
  0
LINE
  5
CB
100
AcDbEntity
  8
0
  6
CONTINUOUS
 62
    7
370
   25
100
AcDbLine
 10
-4.5575811843
 20
-9.4198992051
 11
-4.5242574843
 21
-9.4246102051
  0
LINE
  5
CC
100
AcDbEntity
  8
0
  6
CONTINUOUS
 62
    7
370
   25
100
AcDbLine
 10
-4.5242574843
 20
-9.4246102051
 11
-4.4858642843
 21
-9.4381969051
  0
LINE
  5
CD
100
AcDbEntity
  8
0
  6
CONTINUOUS
 62
    7
370
   25
100
AcDbLine
 10
-4.4858642843
 20
-9.4381969051
 11
-4.1255240843
 21
-9.601201105099999
  0
LINE
  5
CE
100
AcDbEntity
  8
0
  6
CONTINUOUS
 62
    7
370
   25
100
AcDbLine
 10
-4.1255240843
 20
-9.601201105099999
 11
-3.9990360843
 21
-9.6545358051
  0
LINE
  5
CF
100
AcDbEntity
  8
0
  6
CONTINUOUS
 62
    7
370
   25
100
AcDbLine
 10
-3.9990360843
 20
-9.6545358051
 11
-3.8718821843
 21
-9.7062630051
  0
LINE
  5
D0
100
AcDbEntity
  8
0
  6
CONTINUOUS
 62
    7
370
   25
100
AcDbLine
 10
-3.8718821843
 20
-9.7062630051
 11
-3.5018217843
 21
-9.8458007051
  0
LINE
  5
D1
100
AcDbEntity
  8
0
  6
CONTINUOUS
 62
    7
370
   25
100
AcDbLine
 10
-3.5018217843
 20
-9.8458007051
 11
-3.4650664843
 21
-9.863341505099999
  0
LINE
  5
D2
100
AcDbEntity
  8
0
  6
CONTINUOUS
 62
    7
370
   25
100
AcDbLine
 10
-3.4650664843
 20
-9.863341505099999
 11
-3.4381717843
 21
-9.8835737051
  0
LINE
  5
D3
100
AcDbEntity
  8
0
  6
CONTINUOUS
 62
    7
370
   25
100
AcDbLine
 10
-3.4381717843
 20
-9.8835737051
 11
-3.4137442843
 21
-9.9092135051
  0
LINE
  5
D4
100
AcDbEntity
  8
0
  6
CONTINUOUS
 62
    7
370
   25
100
AcDbLine
 10
-3.4137442843
 20
-9.9092135051
 11
-3.3920094843
 21
-9.940178105099999
  0
LINE
  5
D5
100
AcDbEntity
  8
0
  6
CONTINUOUS
 62
    7
370
   25
100
AcDbLine
 10
-3.3920094843
 20
-9.940178105099999
 11
-3.3731552843
 21
-9.976346405099999
  0
LINE
  5
D6
100
AcDbEntity
  8
0
  6
CONTINUOUS
 62
    7
370
   25
100
AcDbLine
 10
-3.3731552843
 20
-9.976346405099999
 11
-3.3449751843
 21
-10.0638730051
  0
LINE
  5
D7
100
AcDbEntity
  8
0
  6
CONTINUOUS
 62
    7
370
   25
100
AcDbLine
 10
-3.3449751843
 20
-10.0638730051
 11
-3.3308136843
 21
-10.1708452051
  0
LINE
  5
D8
100
AcDbEntity
  8
0
  6
CONTINUOUS
 62
    7
370
   25
100
AcDbLine
 10
-3.3308136843
 20
-10.1708452051
 11
-3.3322437843
 21
-10.2962000051
  0
LINE
  5
D9
100
AcDbEntity
  8
0
  6
CONTINUOUS
 62
    7
370
   25
100
AcDbLine
 10
-3.3322437843
 20
-10.2962000051
 11
-3.3507577843
 21
-10.4388105051
  0
LINE
  5
DA
100
AcDbEntity
  8
0
  6
CONTINUOUS
 62
    7
370
   25
100
AcDbLine
 10
-3.3507577843
 20
-10.4388105051
 11
-3.3877721843
 21
-10.5974191051
  0
LINE
  5
DB
100
AcDbEntity
  8
0
  6
CONTINUOUS
 62
    7
370
   25
100
AcDbLine
 10
-3.3877721843
 20
-10.5974191051
 11
-3.4416125843
 21
-10.7700998051
  0
LINE
  5
DC
100
AcDbEntity
  8
0
  6
CONTINUOUS
 62
    7
370
   25
100
AcDbLine
 10
-3.4416125843
 20
-10.7700998051
 11
-3.4623878843
 21
-10.8789989051
  0
LINE
  5
DD
100
AcDbEntity
  8
0
  6
CONTINUOUS
 62
    7
370
   25
100
AcDbLine
 10
-3.4623878843
 20
-10.8789989051
 11
-3.4825670843
 21
-11.0687723051
  0
LINE
  5
DE
100
AcDbEntity
  8
0
  6
CONTINUOUS
 62
    7
370
   25
100
AcDbLine
 10
-3.4825670843
 20
-11.0687723051
 11
-3.4881883843
 21
-11.1924343051
  0
LINE
  5
DF
100
AcDbEntity
  8
0
  6
CONTINUOUS
 62
    7
370
   25
100
AcDbLine
 10
-3.4881883843
 20
-11.1924343051
 11
-3.4887161843
 21
-11.3357842051
  0
LINE
  5
E0
100
AcDbEntity
  8
0
  6
CONTINUOUS
 62
    7
370
   25
100
AcDbLine
 10
-3.4887161843
 20
-11.3357842051
 11
-3.4824796843
 21
-11.4999361051
  0
LINE
  5
E1
100
AcDbEntity
  8
0
  6
CONTINUOUS
 62
    7
370
   25
100
AcDbLine
 10
-3.4824796843
 20
-11.4999361051
 11
-3.4679711843
 21
-11.6815639051
  0
LINE
  5
E2
100
AcDbEntity
  8
0
  6
CONTINUOUS
 62
    7
370
   25
100
AcDbLine
 10
-3.4679711843
 20
-11.6815639051
 11
-3.4431717843
 21
-11.8845993051
  0
LINE
  5
E3
100
AcDbEntity
  8
0
  6
CONTINUOUS
 62
    7
370
   25
100
AcDbLine
 10
-3.4431717843
 20
-11.8845993051
 11
-3.4068845843
 21
-12.1045593051
  0
LINE
  5
E4
100
AcDbEntity
  8
0
  6
CONTINUOUS
 62
    7
370
   25
100
AcDbLine
 10
-3.4068845843
 20
-12.1045593051
 11
-3.3571698843
 21
-12.3431889051
  0
LINE
  5
E5
100
AcDbEntity
  8
0
  6
CONTINUOUS
 62
    7
370
   25
100
AcDbLine
 10
-3.3571698843
 20
-12.3431889051
 11
-3.2929753843
 21
-12.5975036051
  0
LINE
  5
E6
100
AcDbEntity
  8
0
  6
CONTINUOUS
 62
    7
370
   25
100
AcDbLine
 10
-3.2929753843
 20
-12.5975036051
 11
-3.2125099843
 21
-12.8680397051
  0
LINE
  5
E7
100
AcDbEntity
  8
0
  6
CONTINUOUS
 62
    7
370
   25
100
AcDbLine
 10
-3.2125099843
 20
-12.8680397051
 11
-3.1212646843
 21
-13.1341790051
  0
ARC
  5
E8
100
AcDbEntity
  8
0
  6
CONTINUOUS
 62
    7
370
   25
100
AcDbCircle
 10
1.13612e-05
 20
3.722e-05
 40
13.5
100
AcDbArc
 50
256.6319372122
 51
260.8680694389
  0
LINE
  5
E9
100
AcDbEntity
  8
0
  6
CONTINUOUS
 62
    7
370
   25
100
AcDbLine
 10
-2.1425509843
 20
-13.3288572051
 11
-1.9564041843
 21
-13.1178947051
  0
LINE
  5
EA
100
AcDbEntity
  8
0
  6
CONTINUOUS
 62
    7
370
   25
100
AcDbLine
 10
-1.9564041843
 20
-13.1178947051
 11
-1.7785341843
 21
-12.8987447051
  0
LINE
  5
EB
100
AcDbEntity
  8
0
  6
CONTINUOUS
 62
    7
370
   25
100
AcDbLine
 10
-1.7785341843
 20
-12.8987447051
 11
-1.6219041843
 21
-12.6883547051
  0
LINE
  5
EC
100
AcDbEntity
  8
0
  6
CONTINUOUS
 62
    7
370
   25
100
AcDbLine
 10
-1.6219041843
 20
-12.6883547051
 11
-1.4846541843
 21
-12.4869147051
  0
LINE
  5
ED
100
AcDbEntity
  8
0
  6
CONTINUOUS
 62
    7
370
   25
100
AcDbLine
 10
-1.4846541843
 20
-12.4869147051
 11
-1.3669541843
 21
-12.2975847051
  0
LINE
  5
EE
100
AcDbEntity
  8
0
  6
CONTINUOUS
 62
    7
370
   25
100
AcDbLine
 10
-1.3669541843
 20
-12.2975847051
 11
-1.2663441843
 21
-12.1194947051
  0
LINE
  5
EF
100
AcDbEntity
  8
0
  6
CONTINUOUS
 62
    7
370
   25
100
AcDbLine
 10
-1.2663441843
 20
-12.1194947051
 11
-1.1834341843
 21
-11.9572447051
  0
LINE
  5
F0
100
AcDbEntity
  8
0
  6
CONTINUOUS
 62
    7
370
   25
100
AcDbLine
 10
-1.1834341843
 20
-11.9572447051
 11
-1.1148541843
 21
-11.8079747051
  0
LINE
  5
F1
100
AcDbEntity
  8
0
  6
CONTINUOUS
 62
    7
370
   25
100
AcDbLine
 10
-1.1148541843
 20
-11.8079747051
 11
-1.0604841843
 21
-11.6753347051
  0
LINE
  5
F2
100
AcDbEntity
  8
0
  6
CONTINUOUS
 62
    7
370
   25
100
AcDbLine
 10
-1.0604841843
 20
-11.6753347051
 11
-1.0183541843
 21
-11.5589347051
  0
LINE
  5
F3
100
AcDbEntity
  8
0
  6
CONTINUOUS
 62
    7
370
   25
100
AcDbLine
 10
-1.0183541843
 20
-11.5589347051
 11
-0.9643741843
 21
-11.3758847051
  0
LINE
  5
F4
100
AcDbEntity
  8
0
  6
CONTINUOUS
 62
    7
370
   25
100
AcDbLine
 10
-0.9643741843
 20
-11.3758847051
 11
-0.9418941843
 21
-11.2673247051
  0
LINE
  5
F5
100
AcDbEntity
  8
0
  6
CONTINUOUS
 62
    7
370
   25
100
AcDbLine
 10
-0.9418941843
 20
-11.2673247051
 11
-0.9255541843
 21
-11.0871847051
  0
LINE
  5
F6
100
AcDbEntity
  8
0
  6
CONTINUOUS
 62
    7
370
   25
100
AcDbLine
 10
-0.9255541843
 20
-11.0871847051
 11
-0.8990541842999999
 21
-10.9264847051
  0
LINE
  5
F7
100
AcDbEntity
  8
0
  6
CONTINUOUS
 62
    7
370
   25
100
AcDbLine
 10
-0.8990541842999999
 20
-10.9264847051
 11
-0.8615841843000001
 21
-10.7876447051
  0
LINE
  5
F8
100
AcDbEntity
  8
0
  6
CONTINUOUS
 62
    7
370
   25
100
AcDbLine
 10
-0.8615841843000001
 20
-10.7876447051
 11
-0.8149341843
 21
-10.6712847051
  0
LINE
  5
F9
100
AcDbEntity
  8
0
  6
CONTINUOUS
 62
    7
370
   25
100
AcDbLine
 10
-0.8149341843
 20
-10.6712847051
 11
-0.7609141843
 21
-10.5778747051
  0
LINE
  5
FA
100
AcDbEntity
  8
0
  6
CONTINUOUS
 62
    7
370
   25
100
AcDbLine
 10
-0.7609141843
 20
-10.5778747051
 11
-0.7013841843
 21
-10.5077947051
  0
LINE
  5
FB
100
AcDbEntity
  8
0
  6
CONTINUOUS
 62
    7
370
   25
100
AcDbLine
 10
-0.7013841843
 20
-10.5077947051
 11
-0.6701241843
 21
-10.4815947051
  0
LINE
  5
FC
100
AcDbEntity
  8
0
  6
CONTINUOUS
 62
    7
370
   25
100
AcDbLine
 10
-0.6701241843
 20
-10.4815947051
 11
-0.6381941843
 21
-10.4613047051
  0
LINE
  5
FD
100
AcDbEntity
  8
0
  6
CONTINUOUS
 62
    7
370
   25
100
AcDbLine
 10
-0.6381941843
 20
-10.4613047051
 11
-0.6058141843
 21
-10.4469647051
  0
LINE
  5
FE
100
AcDbEntity
  8
0
  6
CONTINUOUS
 62
    7
370
   25
100
AcDbLine
 10
-0.6058141843
 20
-10.4469647051
 11
-0.5732241843
 21
-10.4385647051
  0
LINE
  5
FF
100
AcDbEntity
  8
0
  6
CONTINUOUS
 62
    7
370
   25
100
AcDbLine
 10
-0.5732241843
 20
-10.4385647051
 11
-0.5325541843
 21
-10.4364247051
  0
LINE
  5
100
100
AcDbEntity
  8
0
  6
CONTINUOUS
 62
    7
370
   25
100
AcDbLine
 10
-0.5325541843
 20
-10.4364247051
 11
-0.1372641843
 21
-10.4491247051
  0
LINE
  5
101
100
AcDbEntity
  8
0
  6
CONTINUOUS
 62
    7
370
   25
100
AcDbLine
 10
-0.1372641843
 20
-10.4491247051
 11
5.8157e-06
 21
-10.4499947051
  0
LINE
  5
102
100
AcDbEntity
  8
0
  6
CONTINUOUS
 62
    7
370
   25
100
AcDbLine
 10
5.8157e-06
 20
-10.4499947051
 11
0.1372758157
 21
-10.4491247051
  0
LINE
  5
103
100
AcDbEntity
  8
0
  6
CONTINUOUS
 62
    7
370
   25
100
AcDbLine
 10
0.1372758157
 20
-10.4491247051
 11
0.5325658156999999
 21
-10.4364247051
  0
LINE
  5
104
100
AcDbEntity
  8
0
  6
CONTINUOUS
 62
    7
370
   25
100
AcDbLine
 10
0.5325658156999999
 20
-10.4364247051
 11
0.5732358157
 21
-10.4385647051
  0
LINE
  5
105
100
AcDbEntity
  8
0
  6
CONTINUOUS
 62
    7
370
   25
100
AcDbLine
 10
0.5732358157
 20
-10.4385647051
 11
0.6058258157
 21
-10.4469647051
  0
LINE
  5
106
100
AcDbEntity
  8
0
  6
CONTINUOUS
 62
    7
370
   25
100
AcDbLine
 10
0.6058258157
 20
-10.4469647051
 11
0.6382058157
 21
-10.4613047051
  0
LINE
  5
107
100
AcDbEntity
  8
0
  6
CONTINUOUS
 62
    7
370
   25
100
AcDbLine
 10
0.6382058157
 20
-10.4613047051
 11
0.6701358157
 21
-10.4815947051
  0
LINE
  5
108
100
AcDbEntity
  8
0
  6
CONTINUOUS
 62
    7
370
   25
100
AcDbLine
 10
0.6701358157
 20
-10.4815947051
 11
0.7013958157
 21
-10.5077947051
  0
LINE
  5
109
100
AcDbEntity
  8
0
  6
CONTINUOUS
 62
    7
370
   25
100
AcDbLine
 10
0.7013958157
 20
-10.5077947051
 11
0.7609258157
 21
-10.5778747051
  0
LINE
  5
10A
100
AcDbEntity
  8
0
  6
CONTINUOUS
 62
    7
370
   25
100
AcDbLine
 10
0.7609258157
 20
-10.5778747051
 11
0.8149458157
 21
-10.6712847051
  0
LINE
  5
10B
100
AcDbEntity
  8
0
  6
CONTINUOUS
 62
    7
370
   25
100
AcDbLine
 10
0.8149458157
 20
-10.6712847051
 11
0.8615958157
 21
-10.7876447051
  0
LINE
  5
10C
100
AcDbEntity
  8
0
  6
CONTINUOUS
 62
    7
370
   25
100
AcDbLine
 10
0.8615958157
 20
-10.7876447051
 11
0.8990658157
 21
-10.9264847051
  0
LINE
  5
10D
100
AcDbEntity
  8
0
  6
CONTINUOUS
 62
    7
370
   25
100
AcDbLine
 10
0.8990658157
 20
-10.9264847051
 11
0.9255658157
 21
-11.0871847051
  0
LINE
  5
10E
100
AcDbEntity
  8
0
  6
CONTINUOUS
 62
    7
370
   25
100
AcDbLine
 10
0.9255658157
 20
-11.0871847051
 11
0.9419058157
 21
-11.2673247051
  0
LINE
  5
10F
100
AcDbEntity
  8
0
  6
CONTINUOUS
 62
    7
370
   25
100
AcDbLine
 10
0.9419058157
 20
-11.2673247051
 11
0.9643858157
 21
-11.3758847051
  0
LINE
  5
110
100
AcDbEntity
  8
0
  6
CONTINUOUS
 62
    7
370
   25
100
AcDbLine
 10
0.9643858157
 20
-11.3758847051
 11
1.0183658157
 21
-11.5589347051
  0
LINE
  5
111
100
AcDbEntity
  8
0
  6
CONTINUOUS
 62
    7
370
   25
100
AcDbLine
 10
1.0183658157
 20
-11.5589347051
 11
1.0604958157
 21
-11.6753347051
  0
LINE
  5
112
100
AcDbEntity
  8
0
  6
CONTINUOUS
 62
    7
370
   25
100
AcDbLine
 10
1.0604958157
 20
-11.6753347051
 11
1.1148658157
 21
-11.8079747051
  0
LINE
  5
113
100
AcDbEntity
  8
0
  6
CONTINUOUS
 62
    7
370
   25
100
AcDbLine
 10
1.1148658157
 20
-11.8079747051
 11
1.1834458157
 21
-11.9572447051
  0
LINE
  5
114
100
AcDbEntity
  8
0
  6
CONTINUOUS
 62
    7
370
   25
100
AcDbLine
 10
1.1834458157
 20
-11.9572447051
 11
1.2663558157
 21
-12.1194947051
  0
LINE
  5
115
100
AcDbEntity
  8
0
  6
CONTINUOUS
 62
    7
370
   25
100
AcDbLine
 10
1.2663558157
 20
-12.1194947051
 11
1.3669658157
 21
-12.2975847051
  0
LINE
  5
116
100
AcDbEntity
  8
0
  6
CONTINUOUS
 62
    7
370
   25
100
AcDbLine
 10
1.3669658157
 20
-12.2975847051
 11
1.4846658157
 21
-12.4869147051
  0
LINE
  5
117
100
AcDbEntity
  8
0
  6
CONTINUOUS
 62
    7
370
   25
100
AcDbLine
 10
1.4846658157
 20
-12.4869147051
 11
1.6219158157
 21
-12.6883547051
  0
LINE
  5
118
100
AcDbEntity
  8
0
  6
CONTINUOUS
 62
    7
370
   25
100
AcDbLine
 10
1.6219158157
 20
-12.6883547051
 11
1.7785458157
 21
-12.8987447051
  0
LINE
  5
119
100
AcDbEntity
  8
0
  6
CONTINUOUS
 62
    7
370
   25
100
AcDbLine
 10
1.7785458157
 20
-12.8987447051
 11
1.9564158157
 21
-13.1178947051
  0
LINE
  5
11A
100
AcDbEntity
  8
0
  6
CONTINUOUS
 62
    7
370
   25
100
AcDbLine
 10
1.9564158157
 20
-13.1178947051
 11
2.1425626157
 21
-13.3288572051
  0
ARC
  5
11B
100
AcDbEntity
  8
0
  6
CONTINUOUS
 62
    7
370
   25
100
AcDbCircle
 10
2.702e-07
 20
3.722e-05
 40
13.5
100
AcDbArc
 50
279.1319305611
 51
283.3680627878
  0
LINE
  5
11C
100
AcDbEntity
  8
0
  6
CONTINUOUS
 62
    7
370
   25
100
AcDbLine
 10
3.1212763157
 20
-13.1341790051
 11
3.2125216157
 21
-12.8680397051
  0
LINE
  5
11D
100
AcDbEntity
  8
0
  6
CONTINUOUS
 62
    7
370
   25
100
AcDbLine
 10
3.2125216157
 20
-12.8680397051
 11
3.2929870157
 21
-12.5975036051
  0
LINE
  5
11E
100
AcDbEntity
  8
0
  6
CONTINUOUS
 62
    7
370
   25
100
AcDbLine
 10
3.2929870157
 20
-12.5975036051
 11
3.3571815157
 21
-12.3431889051
  0
LINE
  5
11F
100
AcDbEntity
  8
0
  6
CONTINUOUS
 62
    7
370
   25
100
AcDbLine
 10
3.3571815157
 20
-12.3431889051
 11
3.4068962157
 21
-12.1045593051
  0
LINE
  5
120
100
AcDbEntity
  8
0
  6
CONTINUOUS
 62
    7
370
   25
100
AcDbLine
 10
3.4068962157
 20
-12.1045593051
 11
3.4431834157
 21
-11.8845993051
  0
LINE
  5
121
100
AcDbEntity
  8
0
  6
CONTINUOUS
 62
    7
370
   25
100
AcDbLine
 10
3.4431834157
 20
-11.8845993051
 11
3.4679828157
 21
-11.6815639051
  0
LINE
  5
122
100
AcDbEntity
  8
0
  6
CONTINUOUS
 62
    7
370
   25
100
AcDbLine
 10
3.4679828157
 20
-11.6815639051
 11
3.4824913157
 21
-11.4999361051
  0
LINE
  5
123
100
AcDbEntity
  8
0
  6
CONTINUOUS
 62
    7
370
   25
100
AcDbLine
 10
3.4824913157
 20
-11.4999361051
 11
3.4887278157
 21
-11.3357842051
  0
LINE
  5
124
100
AcDbEntity
  8
0
  6
CONTINUOUS
 62
    7
370
   25
100
AcDbLine
 10
3.4887278157
 20
-11.3357842051
 11
3.4882000157
 21
-11.1924343051
  0
LINE
  5
125
100
AcDbEntity
  8
0
  6
CONTINUOUS
 62
    7
370
   25
100
AcDbLine
 10
3.4882000157
 20
-11.1924343051
 11
3.4825787157
 21
-11.0687723051
  0
LINE
  5
126
100
AcDbEntity
  8
0
  6
CONTINUOUS
 62
    7
370
   25
100
AcDbLine
 10
3.4825787157
 20
-11.0687723051
 11
3.4623995157
 21
-10.8789989051
  0
LINE
  5
127
100
AcDbEntity
  8
0
  6
CONTINUOUS
 62
    7
370
   25
100
AcDbLine
 10
3.4623995157
 20
-10.8789989051
 11
3.4416242157
 21
-10.7700998051
  0
LINE
  5
128
100
AcDbEntity
  8
0
  6
CONTINUOUS
 62
    7
370
   25
100
AcDbLine
 10
3.4416242157
 20
-10.7700998051
 11
3.3877838157
 21
-10.5974191051
  0
LINE
  5
129
100
AcDbEntity
  8
0
  6
CONTINUOUS
 62
    7
370
   25
100
AcDbLine
 10
3.3877838157
 20
-10.5974191051
 11
3.3507694157
 21
-10.4388105051
  0
LINE
  5
12A
100
AcDbEntity
  8
0
  6
CONTINUOUS
 62
    7
370
   25
100
AcDbLine
 10
3.3507694157
 20
-10.4388105051
 11
3.3322554157
 21
-10.2962000051
  0
LINE
  5
12B
100
AcDbEntity
  8
0
  6
CONTINUOUS
 62
    7
370
   25
100
AcDbLine
 10
3.3322554157
 20
-10.2962000051
 11
3.3308253157
 21
-10.1708452051
  0
LINE
  5
12C
100
AcDbEntity
  8
0
  6
CONTINUOUS
 62
    7
370
   25
100
AcDbLine
 10
3.3308253157
 20
-10.1708452051
 11
3.3449868157
 21
-10.0638730051
  0
LINE
  5
12D
100
AcDbEntity
  8
0
  6
CONTINUOUS
 62
    7
370
   25
100
AcDbLine
 10
3.3449868157
 20
-10.0638730051
 11
3.3731669157
 21
-9.976346405099999
  0
LINE
  5
12E
100
AcDbEntity
  8
0
  6
CONTINUOUS
 62
    7
370
   25
100
AcDbLine
 10
3.3731669157
 20
-9.976346405099999
 11
3.3920211157
 21
-9.940178105099999
  0
LINE
  5
12F
100
AcDbEntity
  8
0
  6
CONTINUOUS
 62
    7
370
   25
100
AcDbLine
 10
3.3920211157
 20
-9.940178105099999
 11
3.4137559157
 21
-9.9092135051
  0
LINE
  5
130
100
AcDbEntity
  8
0
  6
CONTINUOUS
 62
    7
370
   25
100
AcDbLine
 10
3.4137559157
 20
-9.9092135051
 11
3.4381834157
 21
-9.8835737051
  0
LINE
  5
131
100
AcDbEntity
  8
0
  6
CONTINUOUS
 62
    7
370
   25
100
AcDbLine
 10
3.4381834157
 20
-9.8835737051
 11
3.4650781157
 21
-9.863341505099999
  0
LINE
  5
132
100
AcDbEntity
  8
0
  6
CONTINUOUS
 62
    7
370
   25
100
AcDbLine
 10
3.4650781157
 20
-9.863341505099999
 11
3.5018334157
 21
-9.8458007051
  0
LINE
  5
133
100
AcDbEntity
  8
0
  6
CONTINUOUS
 62
    7
370
   25
100
AcDbLine
 10
3.5018334157
 20
-9.8458007051
 11
3.8718938157
 21
-9.7062630051
  0
LINE
  5
134
100
AcDbEntity
  8
0
  6
CONTINUOUS
 62
    7
370
   25
100
AcDbLine
 10
3.8718938157
 20
-9.7062630051
 11
3.9990477157
 21
-9.6545358051
  0
LINE
  5
135
100
AcDbEntity
  8
0
  6
CONTINUOUS
 62
    7
370
   25
100
AcDbLine
 10
3.9990477157
 20
-9.6545358051
 11
4.1255357157
 21
-9.601201105099999
  0
LINE
  5
136
100
AcDbEntity
  8
0
  6
CONTINUOUS
 62
    7
370
   25
100
AcDbLine
 10
4.1255357157
 20
-9.601201105099999
 11
4.4858759157
 21
-9.4381969051
  0
LINE
  5
137
100
AcDbEntity
  8
0
  6
CONTINUOUS
 62
    7
370
   25
100
AcDbLine
 10
4.4858759157
 20
-9.4381969051
 11
4.5242691157
 21
-9.4246102051
  0
LINE
  5
138
100
AcDbEntity
  8
0
  6
CONTINUOUS
 62
    7
370
   25
100
AcDbLine
 10
4.5242691157
 20
-9.4246102051
 11
4.5575928157
 21
-9.4198992051
  0
LINE
  5
139
100
AcDbEntity
  8
0
  6
CONTINUOUS
 62
    7
370
   25
100
AcDbLine
 10
4.5575928157
 20
-9.4198992051
 11
4.5929957157
 21
-9.420756305099999
  0
LINE
  5
13A
100
AcDbEntity
  8
0
  6
CONTINUOUS
 62
    7
370
   25
100
AcDbLine
 10
4.5929957157
 20
-9.420756305099999
 11
4.6302599157
 21
-9.427282805100001
  0
LINE
  5
13B
100
AcDbEntity
  8
0
  6
CONTINUOUS
 62
    7
370
   25
100
AcDbLine
 10
4.6302599157
 20
-9.427282805100001
 11
4.6691666157
 21
-9.439525705099999
  0
LINE
  5
13C
100
AcDbEntity
  8
0
  6
CONTINUOUS
 62
    7
370
   25
100
AcDbLine
 10
4.6691666157
 20
-9.439525705099999
 11
4.7509836157
 21
-9.481490105100001
  0
LINE
  5
13D
100
AcDbEntity
  8
0
  6
CONTINUOUS
 62
    7
370
   25
100
AcDbLine
 10
4.7509836157
 20
-9.481490105100001
 11
4.8366381157
 21
-9.5471171051
  0
LINE
  5
13E
100
AcDbEntity
  8
0
  6
CONTINUOUS
 62
    7
370
   25
100
AcDbLine
 10
4.8366381157
 20
-9.5471171051
 11
4.9242661157
 21
-9.6367675051
  0
LINE
  5
13F
100
AcDbEntity
  8
0
  6
CONTINUOUS
 62
    7
370
   25
100
AcDbLine
 10
4.9242661157
 20
-9.6367675051
 11
5.0120156157
 21
-9.7506998051
  0
LINE
  5
140
100
AcDbEntity
  8
0
  6
CONTINUOUS
 62
    7
370
   25
100
AcDbLine
 10
5.0120156157
 20
-9.7506998051
 11
5.0979957157
 21
-9.889026105099999
  0
LINE
  5
141
100
AcDbEntity
  8
0
  6
CONTINUOUS
 62
    7
370
   25
100
AcDbLine
 10
5.0979957157
 20
-9.889026105099999
 11
5.1820284157
 21
-10.0492007051
  0
LINE
  5
142
100
AcDbEntity
  8
0
  6
CONTINUOUS
 62
    7
370
   25
100
AcDbLine
 10
5.1820284157
 20
-10.0492007051
 11
5.2443414157
 21
-10.1408944051
  0
LINE
  5
143
100
AcDbEntity
  8
0
  6
CONTINUOUS
 62
    7
370
   25
100
AcDbLine
 10
5.2443414157
 20
-10.1408944051
 11
5.3642626157
 21
-10.2893533051
  0
LINE
  5
144
100
AcDbEntity
  8
0
  6
CONTINUOUS
 62
    7
370
   25
100
AcDbLine
 10
5.3642626157
 20
-10.2893533051
 11
5.4477300157
 21
-10.3807704051
  0
LINE
  5
145
100
AcDbEntity
  8
0
  6
CONTINUOUS
 62
    7
370
   25
100
AcDbLine
 10
5.4477300157
 20
-10.3807704051
 11
5.5487205157
 21
-10.4825073051
  0
LINE
  5
146
100
AcDbEntity
  8
0
  6
CONTINUOUS
 62
    7
370
   25
100
AcDbLine
 10
5.5487205157
 20
-10.4825073051
 11
5.6692033157
 21
-10.5941704051
  0
LINE
  5
147
100
AcDbEntity
  8
0
  6
CONTINUOUS
 62
    7
370
   25
100
AcDbLine
 10
5.6692033157
 20
-10.5941704051
 11
5.8078925157
 21
-10.7123415051
  0
LINE
  5
148
100
AcDbEntity
  8
0
  6
CONTINUOUS
 62
    7
370
   25
100
AcDbLine
 10
5.8078925157
 20
-10.7123415051
 11
5.9689961157
 21
-10.8383735051
  0
LINE
  5
149
100
AcDbEntity
  8
0
  6
CONTINUOUS
 62
    7
370
   25
100
AcDbLine
 10
5.9689961157
 20
-10.8383735051
 11
6.1501902157
 21
-10.9682497051
  0
LINE
  5
14A
100
AcDbEntity
  8
0
  6
CONTINUOUS
 62
    7
370
   25
100
AcDbLine
 10
6.1501902157
 20
-10.9682497051
 11
6.3540804157
 21
-11.1018327051
  0
LINE
  5
14B
100
AcDbEntity
  8
0
  6
CONTINUOUS
 62
    7
370
   25
100
AcDbLine
 10
6.3540804157
 20
-11.1018327051
 11
6.5793004157
 21
-11.2362680051
  0
LINE
  5
14C
100
AcDbEntity
  8
0
  6
CONTINUOUS
 62
    7
370
   25
100
AcDbLine
 10
6.5793004157
 20
-11.2362680051
 11
6.8274960157
 21
-11.3706683051
  0
LINE
  5
14D
100
AcDbEntity
  8
0
  6
CONTINUOUS
 62
    7
370
   25
100
AcDbLine
 10
6.8274960157
 20
-11.3706683051
 11
7.0802050157
 21
-11.4943370051
  0
ARC
  5
14E
100
AcDbEntity
  8
0
  6
CONTINUOUS
 62
    7
370
   25
100
AcDbCircle
 10
-1.79693e-05
 20
1.87994e-05
 40
13.49999158808733
100
AcDbArc
 50
301.631984547
 51
305.8681084356
  0
LINE
  5
14F
100
AcDbEntity
  8
0
  6
CONTINUOUS
 62
    7
370
   25
100
AcDbLine
 10
7.9099158181
 20
-10.9399409975
 11
7.8923685181
 21
-10.6591422975
  0
LINE
  5
150
100
AcDbEntity
  8
0
  6
CONTINUOUS
 62
    7
370
   25
100
AcDbLine
 10
7.8923685181
 20
-10.6591422975
 11
7.8631791181
 21
-10.3784067975
  0
LINE
  5
151
100
AcDbEntity
  8
0
  6
CONTINUOUS
 62
    7
370
   25
100
AcDbLine
 10
7.8631791181
 20
-10.3784067975
 11
7.8251650181
 21
-10.1188844975
  0
LINE
  5
152
100
AcDbEntity
  8
0
  6
CONTINUOUS
 62
    7
370
   25
100
AcDbLine
 10
7.8251650181
 20
-10.1188844975
 11
7.7797759181
 21
-9.8793944975
  0
LINE
  5
153
100
AcDbEntity
  8
0
  6
CONTINUOUS
 62
    7
370
   25
100
AcDbLine
 10
7.7797759181
 20
-9.8793944975
 11
7.7291258181
 21
-9.6622914975
  0
LINE
  5
154
100
AcDbEntity
  8
0
  6
CONTINUOUS
 62
    7
370
   25
100
AcDbLine
 10
7.7291258181
 20
-9.6622914975
 11
7.6743392181
 21
-9.465220797500001
  0
LINE
  5
155
100
AcDbEntity
  8
0
  6
CONTINUOUS
 62
    7
370
   25
100
AcDbLine
 10
7.6743392181
 20
-9.465220797500001
 11
7.6182373181
 21
-9.291866497499999
  0
LINE
  5
156
100
AcDbEntity
  8
0
  6
CONTINUOUS
 62
    7
370
   25
100
AcDbLine
 10
7.6182373181
 20
-9.291866497499999
 11
7.5611809181
 21
-9.137823297500001
  0
LINE
  5
157
100
AcDbEntity
  8
0
  6
CONTINUOUS
 62
    7
370
   25
100
AcDbLine
 10
7.5611809181
 20
-9.137823297500001
 11
7.5058356181
 21
-9.0055872975
  0
LINE
  5
158
100
AcDbEntity
  8
0
  6
CONTINUOUS
 62
    7
370
   25
100
AcDbLine
 10
7.5058356181
 20
-9.0055872975
 11
7.4533188181
 21
-8.8934895975
  0
LINE
  5
159
100
AcDbEntity
  8
0
  6
CONTINUOUS
 62
    7
370
   25
100
AcDbLine
 10
7.4533188181
 20
-8.8934895975
 11
7.3620525181
 21
-8.7258840975
  0
LINE
  5
15A
100
AcDbEntity
  8
0
  6
CONTINUOUS
 62
    7
370
   25
100
AcDbLine
 10
7.3620525181
 20
-8.7258840975
 11
7.3011848181
 21
-8.6332247975
  0
LINE
  5
15B
100
AcDbEntity
  8
0
  6
CONTINUOUS
 62
    7
370
   25
100
AcDbLine
 10
7.3011848181
 20
-8.6332247975
 11
7.1853607181
 21
-8.4942924975
  0
LINE
  5
15C
100
AcDbEntity
  8
0
  6
CONTINUOUS
 62
    7
370
   25
100
AcDbLine
 10
7.1853607181
 20
-8.4942924975
 11
7.0904670181
 21
-8.361922097500001
  0
LINE
  5
15D
100
AcDbEntity
  8
0
  6
CONTINUOUS
 62
    7
370
   25
100
AcDbLine
 10
7.0904670181
 20
-8.361922097500001
 11
7.0187875181
 21
-8.237252097500001
  0
LINE
  5
15E
100
AcDbEntity
  8
0
  6
CONTINUOUS
 62
    7
370
   25
100
AcDbLine
 10
7.0187875181
 20
-8.237252097500001
 11
6.9694951181
 21
-8.121986597499999
  0
LINE
  5
15F
100
AcDbEntity
  8
0
  6
CONTINUOUS
 62
    7
370
   25
100
AcDbLine
 10
6.9694951181
 20
-8.121986597499999
 11
6.9416422181
 21
-8.0177378975
  0
LINE
  5
160
100
AcDbEntity
  8
0
  6
CONTINUOUS
 62
    7
370
   25
100
AcDbLine
 10
6.9416422181
 20
-8.0177378975
 11
6.9341822181
 21
-7.9260897975
  0
LINE
  5
161
100
AcDbEntity
  8
0
  6
CONTINUOUS
 62
    7
370
   25
100
AcDbLine
 10
6.9341822181
 20
-7.9260897975
 11
6.9377602181
 21
-7.8854593975
  0
LINE
  5
162
100
AcDbEntity
  8
0
  6
CONTINUOUS
 62
    7
370
   25
100
AcDbLine
 10
6.9377602181
 20
-7.8854593975
 11
6.9459909181
 21
-7.8485342975
  0
LINE
  5
163
100
AcDbEntity
  8
0
  6
CONTINUOUS
 62
    7
370
   25
100
AcDbLine
 10
6.9459909181
 20
-7.8485342975
 11
6.9587471181
 21
-7.8154982975
  0
LINE
  5
164
100
AcDbEntity
  8
0
  6
CONTINUOUS
 62
    7
370
   25
100
AcDbLine
 10
6.9587471181
 20
-7.8154982975
 11
6.9758520181
 21
-7.7865139975
  0
LINE
  5
165
100
AcDbEntity
  8
0
  6
CONTINUOUS
 62
    7
370
   25
100
AcDbLine
 10
6.9758520181
 20
-7.7865139975
 11
7.0030968181
 21
-7.7562426975
  0
LINE
  5
166
100
AcDbEntity
  8
0
  6
CONTINUOUS
 62
    7
370
   25
100
AcDbLine
 10
7.0030968181
 20
-7.7562426975
 11
7.2915893181
 21
-7.4857106975
  0
LINE
  5
167
100
AcDbEntity
  8
0
  6
CONTINUOUS
 62
    7
370
   25
100
AcDbLine
 10
7.2915893181
 20
-7.4857106975
 11
7.3892691181
 21
-7.3892613975
  0
LINE
  5
168
100
AcDbEntity
  8
0
  6
CONTINUOUS
 62
    7
370
   25
100
AcDbLine
 10
7.3892691181
 20
-7.3892613975
 11
7.4857184181
 21
-7.2915815975
  0
LINE
  5
169
100
AcDbEntity
  8
0
  6
CONTINUOUS
 62
    7
370
   25
100
AcDbLine
 10
7.4857184181
 20
-7.2915815975
 11
7.7562504181
 21
-7.0030890975
  0
LINE
  5
16A
100
AcDbEntity
  8
0
  6
CONTINUOUS
 62
    7
370
   25
100
AcDbLine
 10
7.7562504181
 20
-7.0030890975
 11
7.7865217181
 21
-6.9758442975
  0
LINE
  5
16B
100
AcDbEntity
  8
0
  6
CONTINUOUS
 62
    7
370
   25
100
AcDbLine
 10
7.7865217181
 20
-6.9758442975
 11
7.8155060181
 21
-6.9587393975
  0
LINE
  5
16C
100
AcDbEntity
  8
0
  6
CONTINUOUS
 62
    7
370
   25
100
AcDbLine
 10
7.8155060181
 20
-6.9587393975
 11
7.8485420181
 21
-6.9459831975
  0
LINE
  5
16D
100
AcDbEntity
  8
0
  6
CONTINUOUS
 62
    7
370
   25
100
AcDbLine
 10
7.8485420181
 20
-6.9459831975
 11
7.8854671181
 21
-6.9377524975
  0
LINE
  5
16E
100
AcDbEntity
  8
0
  6
CONTINUOUS
 62
    7
370
   25
100
AcDbLine
 10
7.8854671181
 20
-6.9377524975
 11
7.9260975181
 21
-6.9341744975
  0
LINE
  5
16F
100
AcDbEntity
  8
0
  6
CONTINUOUS
 62
    7
370
   25
100
AcDbLine
 10
7.9260975181
 20
-6.9341744975
 11
8.017745618099999
 21
-6.9416344975
  0
LINE
  5
170
100
AcDbEntity
  8
0
  6
CONTINUOUS
 62
    7
370
   25
100
AcDbLine
 10
8.017745618099999
 20
-6.9416344975
 11
8.1219943181
 21
-6.9694873975
  0
LINE
  5
171
100
AcDbEntity
  8
0
  6
CONTINUOUS
 62
    7
370
   25
100
AcDbLine
 10
8.1219943181
 20
-6.9694873975
 11
8.2372598181
 21
-7.0187797975
  0
LINE
  5
172
100
AcDbEntity
  8
0
  6
CONTINUOUS
 62
    7
370
   25
100
AcDbLine
 10
8.2372598181
 20
-7.0187797975
 11
8.3619298181
 21
-7.0904592975
  0
LINE
  5
173
100
AcDbEntity
  8
0
  6
CONTINUOUS
 62
    7
370
   25
100
AcDbLine
 10
8.3619298181
 20
-7.0904592975
 11
8.494300218099999
 21
-7.1853529975
  0
LINE
  5
174
100
AcDbEntity
  8
0
  6
CONTINUOUS
 62
    7
370
   25
100
AcDbLine
 10
8.494300218099999
 20
-7.1853529975
 11
8.6332325181
 21
-7.3011770975
  0
LINE
  5
175
100
AcDbEntity
  8
0
  6
CONTINUOUS
 62
    7
370
   25
100
AcDbLine
 10
8.6332325181
 20
-7.3011770975
 11
8.725891818099999
 21
-7.3620447975
  0
LINE
  5
176
100
AcDbEntity
  8
0
  6
CONTINUOUS
 62
    7
370
   25
100
AcDbLine
 10
8.725891818099999
 20
-7.3620447975
 11
8.8934973181
 21
-7.4533110975
  0
LINE
  5
177
100
AcDbEntity
  8
0
  6
CONTINUOUS
 62
    7
370
   25
100
AcDbLine
 10
8.8934973181
 20
-7.4533110975
 11
9.005595018099999
 21
-7.5058278975
  0
LINE
  5
178
100
AcDbEntity
  8
0
  6
CONTINUOUS
 62
    7
370
   25
100
AcDbLine
 10
9.005595018099999
 20
-7.5058278975
 11
9.1378310181
 21
-7.5611731975
  0
LINE
  5
179
100
AcDbEntity
  8
0
  6
CONTINUOUS
 62
    7
370
   25
100
AcDbLine
 10
9.1378310181
 20
-7.5611731975
 11
9.2918742181
 21
-7.6182295975
  0
LINE
  5
17A
100
AcDbEntity
  8
0
  6
CONTINUOUS
 62
    7
370
   25
100
AcDbLine
 10
9.2918742181
 20
-7.6182295975
 11
9.4652285181
 21
-7.6743314975
  0
LINE
  5
17B
100
AcDbEntity
  8
0
  6
CONTINUOUS
 62
    7
370
   25
100
AcDbLine
 10
9.4652285181
 20
-7.6743314975
 11
9.662299218099999
 21
-7.7291180975
  0
LINE
  5
17C
100
AcDbEntity
  8
0
  6
CONTINUOUS
 62
    7
370
   25
100
AcDbLine
 10
9.662299218099999
 20
-7.7291180975
 11
9.879402218099999
 21
-7.7797681975
  0
LINE
  5
17D
100
AcDbEntity
  8
0
  6
CONTINUOUS
 62
    7
370
   25
100
AcDbLine
 10
9.879402218099999
 20
-7.7797681975
 11
10.1188922181
 21
-7.8251572975
  0
LINE
  5
17E
100
AcDbEntity
  8
0
  6
CONTINUOUS
 62
    7
370
   25
100
AcDbLine
 10
10.1188922181
 20
-7.8251572975
 11
10.3784145181
 21
-7.8631713975
  0
LINE
  5
17F
100
AcDbEntity
  8
0
  6
CONTINUOUS
 62
    7
370
   25
100
AcDbLine
 10
10.3784145181
 20
-7.8631713975
 11
10.6591500181
 21
-7.8923607975
  0
LINE
  5
180
100
AcDbEntity
  8
0
  6
CONTINUOUS
 62
    7
370
   25
100
AcDbLine
 10
10.6591500181
 20
-7.8923607975
 11
10.9399487181
 21
-7.9099080975
  0
ARC
  5
181
100
AcDbEntity
  8
0
  6
CONTINUOUS
 62
    7
370
   25
100
AcDbCircle
 10
-1.79693e-05
 20
1.87994e-05
 40
13.49999313463246
100
AcDbArc
 50
324.1319323976
 51
328.3680467399
  0
LINE
  5
182
100
AcDbEntity
  8
0
  6
CONTINUOUS
 62
    7
370
   25
100
AcDbLine
 10
11.4943430183
 20
-7.0801987201
 11
11.3706743183
 21
-6.8274897201
  0
LINE
  5
183
100
AcDbEntity
  8
0
  6
CONTINUOUS
 62
    7
370
   25
100
AcDbLine
 10
11.3706743183
 20
-6.8274897201
 11
11.2362740183
 21
-6.5792941201
  0
LINE
  5
184
100
AcDbEntity
  8
0
  6
CONTINUOUS
 62
    7
370
   25
100
AcDbLine
 10
11.2362740183
 20
-6.5792941201
 11
11.1018387183
 21
-6.3540741201
  0
LINE
  5
185
100
AcDbEntity
  8
0
  6
CONTINUOUS
 62
    7
370
   25
100
AcDbLine
 10
11.1018387183
 20
-6.3540741201
 11
10.9682557183
 21
-6.1501839201
  0
LINE
  5
186
100
AcDbEntity
  8
0
  6
CONTINUOUS
 62
    7
370
   25
100
AcDbLine
 10
10.9682557183
 20
-6.1501839201
 11
10.8383795183
 21
-5.9689898201
  0
LINE
  5
187
100
AcDbEntity
  8
0
  6
CONTINUOUS
 62
    7
370
   25
100
AcDbLine
 10
10.8383795183
 20
-5.9689898201
 11
10.7123475183
 21
-5.8078862201
  0
LINE
  5
188
100
AcDbEntity
  8
0
  6
CONTINUOUS
 62
    7
370
   25
100
AcDbLine
 10
10.7123475183
 20
-5.8078862201
 11
10.5941764183
 21
-5.6691970201
  0
LINE
  5
189
100
AcDbEntity
  8
0
  6
CONTINUOUS
 62
    7
370
   25
100
AcDbLine
 10
10.5941764183
 20
-5.6691970201
 11
10.4825133183
 21
-5.5487142201
  0
LINE
  5
18A
100
AcDbEntity
  8
0
  6
CONTINUOUS
 62
    7
370
   25
100
AcDbLine
 10
10.4825133183
 20
-5.5487142201
 11
10.3807764183
 21
-5.4477237201
  0
LINE
  5
18B
100
AcDbEntity
  8
0
  6
CONTINUOUS
 62
    7
370
   25
100
AcDbLine
 10
10.3807764183
 20
-5.4477237201
 11
10.2893593183
 21
-5.3642563201
  0
LINE
  5
18C
100
AcDbEntity
  8
0
  6
CONTINUOUS
 62
    7
370
   25
100
AcDbLine
 10
10.2893593183
 20
-5.3642563201
 11
10.1409004183
 21
-5.2443351201
  0
LINE
  5
18D
100
AcDbEntity
  8
0
  6
CONTINUOUS
 62
    7
370
   25
100
AcDbLine
 10
10.1409004183
 20
-5.2443351201
 11
10.0492067183
 21
-5.1820221201
  0
LINE
  5
18E
100
AcDbEntity
  8
0
  6
CONTINUOUS
 62
    7
370
   25
100
AcDbLine
 10
10.0492067183
 20
-5.1820221201
 11
9.889032118299999
 21
-5.0979894201
  0
LINE
  5
18F
100
AcDbEntity
  8
0
  6
CONTINUOUS
 62
    7
370
   25
100
AcDbLine
 10
9.889032118299999
 20
-5.0979894201
 11
9.7507058183
 21
-5.0120093201
  0
LINE
  5
190
100
AcDbEntity
  8
0
  6
CONTINUOUS
 62
    7
370
   25
100
AcDbLine
 10
9.7507058183
 20
-5.0120093201
 11
9.6367735183
 21
-4.9242598201
  0
LINE
  5
191
100
AcDbEntity
  8
0
  6
CONTINUOUS
 62
    7
370
   25
100
AcDbLine
 10
9.6367735183
 20
-4.9242598201
 11
9.5471231183
 21
-4.8366318201
  0
LINE
  5
192
100
AcDbEntity
  8
0
  6
CONTINUOUS
 62
    7
370
   25
100
AcDbLine
 10
9.5471231183
 20
-4.8366318201
 11
9.481496118300001
 21
-4.7509773201
  0
LINE
  5
193
100
AcDbEntity
  8
0
  6
CONTINUOUS
 62
    7
370
   25
100
AcDbLine
 10
9.481496118300001
 20
-4.7509773201
 11
9.4395317183
 21
-4.6691603201
  0
LINE
  5
194
100
AcDbEntity
  8
0
  6
CONTINUOUS
 62
    7
370
   25
100
AcDbLine
 10
9.4395317183
 20
-4.6691603201
 11
9.427288818299999
 21
-4.6302536201
  0
LINE
  5
195
100
AcDbEntity
  8
0
  6
CONTINUOUS
 62
    7
370
   25
100
AcDbLine
 10
9.427288818299999
 20
-4.6302536201
 11
9.4207623183
 21
-4.5929894201
  0
LINE
  5
196
100
AcDbEntity
  8
0
  6
CONTINUOUS
 62
    7
370
   25
100
AcDbLine
 10
9.4207623183
 20
-4.5929894201
 11
9.4199052183
 21
-4.5575865201
  0
LINE
  5
197
100
AcDbEntity
  8
0
  6
CONTINUOUS
 62
    7
370
   25
100
AcDbLine
 10
9.4199052183
 20
-4.5575865201
 11
9.424616218300001
 21
-4.5242628201
  0
LINE
  5
198
100
AcDbEntity
  8
0
  6
CONTINUOUS
 62
    7
370
   25
100
AcDbLine
 10
9.424616218300001
 20
-4.5242628201
 11
9.4382029183
 21
-4.4858696201
  0
LINE
  5
199
100
AcDbEntity
  8
0
  6
CONTINUOUS
 62
    7
370
   25
100
AcDbLine
 10
9.4382029183
 20
-4.4858696201
 11
9.6012071183
 21
-4.1255294201
  0
LINE
  5
19A
100
AcDbEntity
  8
0
  6
CONTINUOUS
 62
    7
370
   25
100
AcDbLine
 10
9.6012071183
 20
-4.1255294201
 11
9.6545418183
 21
-3.9990414201
  0
LINE
  5
19B
100
AcDbEntity
  8
0
  6
CONTINUOUS
 62
    7
370
   25
100
AcDbLine
 10
9.6545418183
 20
-3.9990414201
 11
9.7062690183
 21
-3.8718875201
  0
LINE
  5
19C
100
AcDbEntity
  8
0
  6
CONTINUOUS
 62
    7
370
   25
100
AcDbLine
 10
9.7062690183
 20
-3.8718875201
 11
9.8458067183
 21
-3.5018271201
  0
LINE
  5
19D
100
AcDbEntity
  8
0
  6
CONTINUOUS
 62
    7
370
   25
100
AcDbLine
 10
9.8458067183
 20
-3.5018271201
 11
9.863347518299999
 21
-3.4650718201
  0
LINE
  5
19E
100
AcDbEntity
  8
0
  6
CONTINUOUS
 62
    7
370
   25
100
AcDbLine
 10
9.863347518299999
 20
-3.4650718201
 11
9.8835797183
 21
-3.4381771201
  0
LINE
  5
19F
100
AcDbEntity
  8
0
  6
CONTINUOUS
 62
    7
370
   25
100
AcDbLine
 10
9.8835797183
 20
-3.4381771201
 11
9.9092195183
 21
-3.4137496201
  0
LINE
  5
1A0
100
AcDbEntity
  8
0
  6
CONTINUOUS
 62
    7
370
   25
100
AcDbLine
 10
9.9092195183
 20
-3.4137496201
 11
9.940184118299999
 21
-3.3920148201
  0
LINE
  5
1A1
100
AcDbEntity
  8
0
  6
CONTINUOUS
 62
    7
370
   25
100
AcDbLine
 10
9.940184118299999
 20
-3.3920148201
 11
9.976352418299999
 21
-3.3731606201
  0
LINE
  5
1A2
100
AcDbEntity
  8
0
  6
CONTINUOUS
 62
    7
370
   25
100
AcDbLine
 10
9.976352418299999
 20
-3.3731606201
 11
10.0638790183
 21
-3.3449805201
  0
LINE
  5
1A3
100
AcDbEntity
  8
0
  6
CONTINUOUS
 62
    7
370
   25
100
AcDbLine
 10
10.0638790183
 20
-3.3449805201
 11
10.1708512183
 21
-3.3308190201
  0
LINE
  5
1A4
100
AcDbEntity
  8
0
  6
CONTINUOUS
 62
    7
370
   25
100
AcDbLine
 10
10.1708512183
 20
-3.3308190201
 11
10.2962060183
 21
-3.3322491201
  0
LINE
  5
1A5
100
AcDbEntity
  8
0
  6
CONTINUOUS
 62
    7
370
   25
100
AcDbLine
 10
10.2962060183
 20
-3.3322491201
 11
10.4388165183
 21
-3.3507631201
  0
LINE
  5
1A6
100
AcDbEntity
  8
0
  6
CONTINUOUS
 62
    7
370
   25
100
AcDbLine
 10
10.4388165183
 20
-3.3507631201
 11
10.5974251183
 21
-3.3877775201
  0
LINE
  5
1A7
100
AcDbEntity
  8
0
  6
CONTINUOUS
 62
    7
370
   25
100
AcDbLine
 10
10.5974251183
 20
-3.3877775201
 11
10.7701058183
 21
-3.4416179201
  0
LINE
  5
1A8
100
AcDbEntity
  8
0
  6
CONTINUOUS
 62
    7
370
   25
100
AcDbLine
 10
10.7701058183
 20
-3.4416179201
 11
10.8790049183
 21
-3.4623932201
  0
LINE
  5
1A9
100
AcDbEntity
  8
0
  6
CONTINUOUS
 62
    7
370
   25
100
AcDbLine
 10
10.8790049183
 20
-3.4623932201
 11
11.0687783183
 21
-3.4825724201
  0
LINE
  5
1AA
100
AcDbEntity
  8
0
  6
CONTINUOUS
 62
    7
370
   25
100
AcDbLine
 10
11.0687783183
 20
-3.4825724201
 11
11.1924403183
 21
-3.4881937201
  0
LINE
  5
1AB
100
AcDbEntity
  8
0
  6
CONTINUOUS
 62
    7
370
   25
100
AcDbLine
 10
11.1924403183
 20
-3.4881937201
 11
11.3357902183
 21
-3.4887215201
  0
LINE
  5
1AC
100
AcDbEntity
  8
0
  6
CONTINUOUS
 62
    7
370
   25
100
AcDbLine
 10
11.3357902183
 20
-3.4887215201
 11
11.4999421183
 21
-3.4824850201
  0
LINE
  5
1AD
100
AcDbEntity
  8
0
  6
CONTINUOUS
 62
    7
370
   25
100
AcDbLine
 10
11.4999421183
 20
-3.4824850201
 11
11.6815699183
 21
-3.4679765201
  0
LINE
  5
1AE
100
AcDbEntity
  8
0
  6
CONTINUOUS
 62
    7
370
   25
100
AcDbLine
 10
11.6815699183
 20
-3.4679765201
 11
11.8846053183
 21
-3.4431771201
  0
LINE
  5
1AF
100
AcDbEntity
  8
0
  6
CONTINUOUS
 62
    7
370
   25
100
AcDbLine
 10
11.8846053183
 20
-3.4431771201
 11
12.1045653183
 21
-3.4068899201
  0
LINE
  5
1B0
100
AcDbEntity
  8
0
  6
CONTINUOUS
 62
    7
370
   25
100
AcDbLine
 10
12.1045653183
 20
-3.4068899201
 11
12.3431949183
 21
-3.3571752201
  0
LINE
  5
1B1
100
AcDbEntity
  8
0
  6
CONTINUOUS
 62
    7
370
   25
100
AcDbLine
 10
12.3431949183
 20
-3.3571752201
 11
12.5975096183
 21
-3.2929807201
  0
LINE
  5
1B2
100
AcDbEntity
  8
0
  6
CONTINUOUS
 62
    7
370
   25
100
AcDbLine
 10
12.5975096183
 20
-3.2929807201
 11
12.8680457183
 21
-3.2125153201
  0
LINE
  5
1B3
100
AcDbEntity
  8
0
  6
CONTINUOUS
 62
    7
370
   25
100
AcDbLine
 10
12.8680457183
 20
-3.2125153201
 11
13.1341850183
 21
-3.1212700201
  0
ARC
  5
1B4
100
AcDbEntity
  8
0
  6
CONTINUOUS
 62
    7
370
   25
100
AcDbCircle
 10
-3.12068e-05
 20
6.0254e-06
 40
13.5
100
AcDbArc
 50
346.6319372122
 51
350.8680694389
  0
LINE
  5
1B5
100
AcDbEntity
  8
0
  6
CONTINUOUS
 62
    7
370
   25
100
AcDbLine
 10
13.3288632183
 20
-2.1425563201
 11
13.1179007183
 21
-1.9564095201
  0
LINE
  5
1B6
100
AcDbEntity
  8
0
  6
CONTINUOUS
 62
    7
370
   25
100
AcDbLine
 10
13.1179007183
 20
-1.9564095201
 11
12.8987507183
 21
-1.7785395201
  0
LINE
  5
1B7
100
AcDbEntity
  8
0
  6
CONTINUOUS
 62
    7
370
   25
100
AcDbLine
 10
12.8987507183
 20
-1.7785395201
 11
12.6883607183
 21
-1.6219095201
  0
LINE
  5
1B8
100
AcDbEntity
  8
0
  6
CONTINUOUS
 62
    7
370
   25
100
AcDbLine
 10
12.6883607183
 20
-1.6219095201
 11
12.4869207183
 21
-1.4846595201
  0
LINE
  5
1B9
100
AcDbEntity
  8
0
  6
CONTINUOUS
 62
    7
370
   25
100
AcDbLine
 10
12.4869207183
 20
-1.4846595201
 11
12.2975907183
 21
-1.3669595201
  0
LINE
  5
1BA
100
AcDbEntity
  8
0
  6
CONTINUOUS
 62
    7
370
   25
100
AcDbLine
 10
12.2975907183
 20
-1.3669595201
 11
12.1195007183
 21
-1.2663495201
  0
LINE
  5
1BB
100
AcDbEntity
  8
0
  6
CONTINUOUS
 62
    7
370
   25
100
AcDbLine
 10
12.1195007183
 20
-1.2663495201
 11
11.9572507183
 21
-1.1834395201
  0
LINE
  5
1BC
100
AcDbEntity
  8
0
  6
CONTINUOUS
 62
    7
370
   25
100
AcDbLine
 10
11.9572507183
 20
-1.1834395201
 11
11.8079807183
 21
-1.1148595201
  0
LINE
  5
1BD
100
AcDbEntity
  8
0
  6
CONTINUOUS
 62
    7
370
   25
100
AcDbLine
 10
11.8079807183
 20
-1.1148595201
 11
11.6753407183
 21
-1.0604895201
  0
LINE
  5
1BE
100
AcDbEntity
  8
0
  6
CONTINUOUS
 62
    7
370
   25
100
AcDbLine
 10
11.6753407183
 20
-1.0604895201
 11
11.5589407183
 21
-1.0183595201
  0
LINE
  5
1BF
100
AcDbEntity
  8
0
  6
CONTINUOUS
 62
    7
370
   25
100
AcDbLine
 10
11.5589407183
 20
-1.0183595201
 11
11.3758907183
 21
-0.9643795201000001
  0
LINE
  5
1C0
100
AcDbEntity
  8
0
  6
CONTINUOUS
 62
    7
370
   25
100
AcDbLine
 10
11.3758907183
 20
-0.9643795201000001
 11
11.2673307183
 21
-0.9418995201
  0
LINE
  5
1C1
100
AcDbEntity
  8
0
  6
CONTINUOUS
 62
    7
370
   25
100
AcDbLine
 10
11.2673307183
 20
-0.9418995201
 11
11.0871907183
 21
-0.9255595201
  0
LINE
  5
1C2
100
AcDbEntity
  8
0
  6
CONTINUOUS
 62
    7
370
   25
100
AcDbLine
 10
11.0871907183
 20
-0.9255595201
 11
10.9264907183
 21
-0.8990595201
  0
LINE
  5
1C3
100
AcDbEntity
  8
0
  6
CONTINUOUS
 62
    7
370
   25
100
AcDbLine
 10
10.9264907183
 20
-0.8990595201
 11
10.7876507183
 21
-0.8615895201
  0
LINE
  5
1C4
100
AcDbEntity
  8
0
  6
CONTINUOUS
 62
    7
370
   25
100
AcDbLine
 10
10.7876507183
 20
-0.8615895201
 11
10.6712907183
 21
-0.8149395201
  0
LINE
  5
1C5
100
AcDbEntity
  8
0
  6
CONTINUOUS
 62
    7
370
   25
100
AcDbLine
 10
10.6712907183
 20
-0.8149395201
 11
10.5778807183
 21
-0.7609195201
  0
LINE
  5
1C6
100
AcDbEntity
  8
0
  6
CONTINUOUS
 62
    7
370
   25
100
AcDbLine
 10
10.5778807183
 20
-0.7609195201
 11
10.5078007183
 21
-0.7013895201
  0
LINE
  5
1C7
100
AcDbEntity
  8
0
  6
CONTINUOUS
 62
    7
370
   25
100
AcDbLine
 10
10.5078007183
 20
-0.7013895201
 11
10.4816007183
 21
-0.6701295201
  0
LINE
  5
1C8
100
AcDbEntity
  8
0
  6
CONTINUOUS
 62
    7
370
   25
100
AcDbLine
 10
10.4816007183
 20
-0.6701295201
 11
10.4613107183
 21
-0.6381995201
  0
LINE
  5
1C9
100
AcDbEntity
  8
0
  6
CONTINUOUS
 62
    7
370
   25
100
AcDbLine
 10
10.4613107183
 20
-0.6381995201
 11
10.4469707183
 21
-0.6058195201
  0
LINE
  5
1CA
100
AcDbEntity
  8
0
  6
CONTINUOUS
 62
    7
370
   25
100
AcDbLine
 10
10.4469707183
 20
-0.6058195201
 11
10.4385707183
 21
-0.5732295200999999
  0
LINE
  5
1CB
100
AcDbEntity
  8
0
  6
CONTINUOUS
 62
    7
370
   25
100
AcDbLine
 10
10.4385707183
 20
-0.5732295200999999
 11
10.4364307183
 21
-0.5325595201
  0
LINE
  5
1CC
100
AcDbEntity
  8
0
  6
CONTINUOUS
 62
    7
370
   25
100
AcDbLine
 10
10.4364307183
 20
-0.5325595201
 11
10.4491307183
 21
-0.1372695201
  0
LINE
  5
1CD
100
AcDbEntity
  8
0
  6
CONTINUOUS
 62
    7
370
   25
100
AcDbLine
 10
10.4491307183
 20
-0.1372695201
 11
10.4500007183
 21
4.798999999999999e-07
  0
LINE
  5
1CE
100
AcDbEntity
  8
0
  6
CONTINUOUS
 62
    7
370
   25
100
AcDbLine
 10
10.4500007183
 20
4.798999999999999e-07
 11
10.4491307183
 21
0.1372704799
  0
LINE
  5
1CF
100
AcDbEntity
  8
0
  6
CONTINUOUS
 62
    7
370
   25
100
AcDbLine
 10
10.4491307183
 20
0.1372704799
 11
10.4364307183
 21
0.5325604799
  0
LINE
  5
1D0
100
AcDbEntity
  8
0
  6
CONTINUOUS
 62
    7
370
   25
100
AcDbLine
 10
10.4364307183
 20
0.5325604799
 11
10.4385707183
 21
0.5732304799
  0
LINE
  5
1D1
100
AcDbEntity
  8
0
  6
CONTINUOUS
 62
    7
370
   25
100
AcDbLine
 10
10.4385707183
 20
0.5732304799
 11
10.4469707183
 21
0.6058204799
  0
LINE
  5
1D2
100
AcDbEntity
  8
0
  6
CONTINUOUS
 62
    7
370
   25
100
AcDbLine
 10
10.4469707183
 20
0.6058204799
 11
10.4613107183
 21
0.6382004799
  0
LINE
  5
1D3
100
AcDbEntity
  8
0
  6
CONTINUOUS
 62
    7
370
   25
100
AcDbLine
 10
10.4613107183
 20
0.6382004799
 11
10.4816007183
 21
0.6701304799
  0
LINE
  5
1D4
100
AcDbEntity
  8
0
  6
CONTINUOUS
 62
    7
370
   25
100
AcDbLine
 10
10.4816007183
 20
0.6701304799
 11
10.5078007183
 21
0.7013904799
  0
LINE
  5
1D5
100
AcDbEntity
  8
0
  6
CONTINUOUS
 62
    7
370
   25
100
AcDbLine
 10
10.5078007183
 20
0.7013904799
 11
10.5778807183
 21
0.7609204799
  0
LINE
  5
1D6
100
AcDbEntity
  8
0
  6
CONTINUOUS
 62
    7
370
   25
100
AcDbLine
 10
10.5778807183
 20
0.7609204799
 11
10.6712907183
 21
0.8149404799
  0
LINE
  5
1D7
100
AcDbEntity
  8
0
  6
CONTINUOUS
 62
    7
370
   25
100
AcDbLine
 10
10.6712907183
 20
0.8149404799
 11
10.7876507183
 21
0.8615904799
  0
LINE
  5
1D8
100
AcDbEntity
  8
0
  6
CONTINUOUS
 62
    7
370
   25
100
AcDbLine
 10
10.7876507183
 20
0.8615904799
 11
10.9264907183
 21
0.8990604799
  0
LINE
  5
1D9
100
AcDbEntity
  8
0
  6
CONTINUOUS
 62
    7
370
   25
100
AcDbLine
 10
10.9264907183
 20
0.8990604799
 11
11.0871907183
 21
0.9255604799
  0
LINE
  5
1DA
100
AcDbEntity
  8
0
  6
CONTINUOUS
 62
    7
370
   25
100
AcDbLine
 10
11.0871907183
 20
0.9255604799
 11
11.2673307183
 21
0.9419004799
  0
LINE
  5
1DB
100
AcDbEntity
  8
0
  6
CONTINUOUS
 62
    7
370
   25
100
AcDbLine
 10
11.2673307183
 20
0.9419004799
 11
11.3758907183
 21
0.9643804799
  0
LINE
  5
1DC
100
AcDbEntity
  8
0
  6
CONTINUOUS
 62
    7
370
   25
100
AcDbLine
 10
11.3758907183
 20
0.9643804799
 11
11.5589407183
 21
1.0183604799
  0
LINE
  5
1DD
100
AcDbEntity
  8
0
  6
CONTINUOUS
 62
    7
370
   25
100
AcDbLine
 10
11.5589407183
 20
1.0183604799
 11
11.6753407183
 21
1.0604904799
  0
LINE
  5
1DE
100
AcDbEntity
  8
0
  6
CONTINUOUS
 62
    7
370
   25
100
AcDbLine
 10
11.6753407183
 20
1.0604904799
 11
11.8079807183
 21
1.1148604799
  0
LINE
  5
1DF
100
AcDbEntity
  8
0
  6
CONTINUOUS
 62
    7
370
   25
100
AcDbLine
 10
11.8079807183
 20
1.1148604799
 11
11.9572507183
 21
1.1834404799
  0
LINE
  5
1E0
100
AcDbEntity
  8
0
  6
CONTINUOUS
 62
    7
370
   25
100
AcDbLine
 10
11.9572507183
 20
1.1834404799
 11
12.1195007183
 21
1.2663504799
  0
LINE
  5
1E1
100
AcDbEntity
  8
0
  6
CONTINUOUS
 62
    7
370
   25
100
AcDbLine
 10
12.1195007183
 20
1.2663504799
 11
12.2975907183
 21
1.3669604799
  0
LINE
  5
1E2
100
AcDbEntity
  8
0
  6
CONTINUOUS
 62
    7
370
   25
100
AcDbLine
 10
12.2975907183
 20
1.3669604799
 11
12.4869207183
 21
1.4846604799
  0
LINE
  5
1E3
100
AcDbEntity
  8
0
  6
CONTINUOUS
 62
    7
370
   25
100
AcDbLine
 10
12.4869207183
 20
1.4846604799
 11
12.6883607183
 21
1.6219104799
  0
LINE
  5
1E4
100
AcDbEntity
  8
0
  6
CONTINUOUS
 62
    7
370
   25
100
AcDbLine
 10
12.6883607183
 20
1.6219104799
 11
12.8987507183
 21
1.7785404799
  0
LINE
  5
1E5
100
AcDbEntity
  8
0
  6
CONTINUOUS
 62
    7
370
   25
100
AcDbLine
 10
12.8987507183
 20
1.7785404799
 11
13.1179007183
 21
1.9564104799
  0
LINE
  5
1E6
100
AcDbEntity
  8
0
  6
CONTINUOUS
 62
    7
370
   25
100
AcDbLine
 10
13.1179007183
 20
1.9564104799
 11
13.3288632183
 21
2.1425572799
  0
ARC
  5
1E7
100
AcDbEntity
  8
0
  6
CONTINUOUS
 62
    7
370
   25
100
AcDbCircle
 10
-3.12068e-05
 20
-5.0655e-06
 40
13.5
100
AcDbArc
 50
9.131930561100001
 51
13.3680627878
  0
LINE
  5
1E8
100
AcDbEntity
  8
0
  6
CONTINUOUS
 62
    7
370
   25
100
AcDbLine
 10
13.1341850183
 20
3.1212709799
 11
12.8680457183
 21
3.2125162799
  0
LINE
  5
1E9
100
AcDbEntity
  8
0
  6
CONTINUOUS
 62
    7
370
   25
100
AcDbLine
 10
12.8680457183
 20
3.2125162799
 11
12.5975096183
 21
3.2929816799
  0
LINE
  5
1EA
100
AcDbEntity
  8
0
  6
CONTINUOUS
 62
    7
370
   25
100
AcDbLine
 10
12.5975096183
 20
3.2929816799
 11
12.3431949183
 21
3.3571761799
  0
LINE
  5
1EB
100
AcDbEntity
  8
0
  6
CONTINUOUS
 62
    7
370
   25
100
AcDbLine
 10
12.3431949183
 20
3.3571761799
 11
12.1045653183
 21
3.4068908799
  0
LINE
  5
1EC
100
AcDbEntity
  8
0
  6
CONTINUOUS
 62
    7
370
   25
100
AcDbLine
 10
12.1045653183
 20
3.4068908799
 11
11.8846053183
 21
3.4431780799
  0
LINE
  5
1ED
100
AcDbEntity
  8
0
  6
CONTINUOUS
 62
    7
370
   25
100
AcDbLine
 10
11.8846053183
 20
3.4431780799
 11
11.6815699183
 21
3.4679774799
  0
LINE
  5
1EE
100
AcDbEntity
  8
0
  6
CONTINUOUS
 62
    7
370
   25
100
AcDbLine
 10
11.6815699183
 20
3.4679774799
 11
11.4999421183
 21
3.4824859799
  0
LINE
  5
1EF
100
AcDbEntity
  8
0
  6
CONTINUOUS
 62
    7
370
   25
100
AcDbLine
 10
11.4999421183
 20
3.4824859799
 11
11.3357902183
 21
3.4887224799
  0
LINE
  5
1F0
100
AcDbEntity
  8
0
  6
CONTINUOUS
 62
    7
370
   25
100
AcDbLine
 10
11.3357902183
 20
3.4887224799
 11
11.1924403183
 21
3.4881946799
  0
LINE
  5
1F1
100
AcDbEntity
  8
0
  6
CONTINUOUS
 62
    7
370
   25
100
AcDbLine
 10
11.1924403183
 20
3.4881946799
 11
11.0687783183
 21
3.4825733799
  0
LINE
  5
1F2
100
AcDbEntity
  8
0
  6
CONTINUOUS
 62
    7
370
   25
100
AcDbLine
 10
11.0687783183
 20
3.4825733799
 11
10.8790049183
 21
3.4623941799
  0
LINE
  5
1F3
100
AcDbEntity
  8
0
  6
CONTINUOUS
 62
    7
370
   25
100
AcDbLine
 10
10.8790049183
 20
3.4623941799
 11
10.7701058183
 21
3.4416188799
  0
LINE
  5
1F4
100
AcDbEntity
  8
0
  6
CONTINUOUS
 62
    7
370
   25
100
AcDbLine
 10
10.7701058183
 20
3.4416188799
 11
10.5974251183
 21
3.3877784799
  0
LINE
  5
1F5
100
AcDbEntity
  8
0
  6
CONTINUOUS
 62
    7
370
   25
100
AcDbLine
 10
10.5974251183
 20
3.3877784799
 11
10.4388165183
 21
3.3507640799
  0
LINE
  5
1F6
100
AcDbEntity
  8
0
  6
CONTINUOUS
 62
    7
370
   25
100
AcDbLine
 10
10.4388165183
 20
3.3507640799
 11
10.2962060183
 21
3.3322500799
  0
LINE
  5
1F7
100
AcDbEntity
  8
0
  6
CONTINUOUS
 62
    7
370
   25
100
AcDbLine
 10
10.2962060183
 20
3.3322500799
 11
10.1708512183
 21
3.3308199799
  0
LINE
  5
1F8
100
AcDbEntity
  8
0
  6
CONTINUOUS
 62
    7
370
   25
100
AcDbLine
 10
10.1708512183
 20
3.3308199799
 11
10.0638790183
 21
3.3449814799
  0
LINE
  5
1F9
100
AcDbEntity
  8
0
  6
CONTINUOUS
 62
    7
370
   25
100
AcDbLine
 10
10.0638790183
 20
3.3449814799
 11
9.976352418299999
 21
3.3731615799
  0
LINE
  5
1FA
100
AcDbEntity
  8
0
  6
CONTINUOUS
 62
    7
370
   25
100
AcDbLine
 10
9.976352418299999
 20
3.3731615799
 11
9.940184118299999
 21
3.3920157799
  0
LINE
  5
1FB
100
AcDbEntity
  8
0
  6
CONTINUOUS
 62
    7
370
   25
100
AcDbLine
 10
9.940184118299999
 20
3.3920157799
 11
9.9092195183
 21
3.4137505799
  0
LINE
  5
1FC
100
AcDbEntity
  8
0
  6
CONTINUOUS
 62
    7
370
   25
100
AcDbLine
 10
9.9092195183
 20
3.4137505799
 11
9.8835797183
 21
3.4381780799
  0
LINE
  5
1FD
100
AcDbEntity
  8
0
  6
CONTINUOUS
 62
    7
370
   25
100
AcDbLine
 10
9.8835797183
 20
3.4381780799
 11
9.863347518299999
 21
3.4650727799
  0
LINE
  5
1FE
100
AcDbEntity
  8
0
  6
CONTINUOUS
 62
    7
370
   25
100
AcDbLine
 10
9.863347518299999
 20
3.4650727799
 11
9.8458067183
 21
3.5018280799
  0
LINE
  5
1FF
100
AcDbEntity
  8
0
  6
CONTINUOUS
 62
    7
370
   25
100
AcDbLine
 10
9.8458067183
 20
3.5018280799
 11
9.7062690183
 21
3.8718884799
  0
LINE
  5
200
100
AcDbEntity
  8
0
  6
CONTINUOUS
 62
    7
370
   25
100
AcDbLine
 10
9.7062690183
 20
3.8718884799
 11
9.6545418183
 21
3.9990423799
  0
LINE
  5
201
100
AcDbEntity
  8
0
  6
CONTINUOUS
 62
    7
370
   25
100
AcDbLine
 10
9.6545418183
 20
3.9990423799
 11
9.6012071183
 21
4.1255303799
  0
LINE
  5
202
100
AcDbEntity
  8
0
  6
CONTINUOUS
 62
    7
370
   25
100
AcDbLine
 10
9.6012071183
 20
4.1255303799
 11
9.4382029183
 21
4.4858705799
  0
LINE
  5
203
100
AcDbEntity
  8
0
  6
CONTINUOUS
 62
    7
370
   25
100
AcDbLine
 10
9.4382029183
 20
4.4858705799
 11
9.424616218300001
 21
4.5242637799
  0
LINE
  5
204
100
AcDbEntity
  8
0
  6
CONTINUOUS
 62
    7
370
   25
100
AcDbLine
 10
9.424616218300001
 20
4.5242637799
 11
9.4199052183
 21
4.5575874799
  0
LINE
  5
205
100
AcDbEntity
  8
0
  6
CONTINUOUS
 62
    7
370
   25
100
AcDbLine
 10
9.4199052183
 20
4.5575874799
 11
9.4207623183
 21
4.5929903799
  0
LINE
  5
206
100
AcDbEntity
  8
0
  6
CONTINUOUS
 62
    7
370
   25
100
AcDbLine
 10
9.4207623183
 20
4.5929903799
 11
9.427288818299999
 21
4.6302545799
  0
LINE
  5
207
100
AcDbEntity
  8
0
  6
CONTINUOUS
 62
    7
370
   25
100
AcDbLine
 10
9.427288818299999
 20
4.6302545799
 11
9.4395317183
 21
4.6691612799
  0
LINE
  5
208
100
AcDbEntity
  8
0
  6
CONTINUOUS
 62
    7
370
   25
100
AcDbLine
 10
9.4395317183
 20
4.6691612799
 11
9.481496118300001
 21
4.7509782799
  0
LINE
  5
209
100
AcDbEntity
  8
0
  6
CONTINUOUS
 62
    7
370
   25
100
AcDbLine
 10
9.481496118300001
 20
4.7509782799
 11
9.5471231183
 21
4.8366327799
  0
LINE
  5
20A
100
AcDbEntity
  8
0
  6
CONTINUOUS
 62
    7
370
   25
100
AcDbLine
 10
9.5471231183
 20
4.8366327799
 11
9.6367735183
 21
4.9242607799
  0
LINE
  5
20B
100
AcDbEntity
  8
0
  6
CONTINUOUS
 62
    7
370
   25
100
AcDbLine
 10
9.6367735183
 20
4.9242607799
 11
9.7507058183
 21
5.0120102799
  0
LINE
  5
20C
100
AcDbEntity
  8
0
  6
CONTINUOUS
 62
    7
370
   25
100
AcDbLine
 10
9.7507058183
 20
5.0120102799
 11
9.889032118299999
 21
5.0979903799
  0
LINE
  5
20D
100
AcDbEntity
  8
0
  6
CONTINUOUS
 62
    7
370
   25
100
AcDbLine
 10
9.889032118299999
 20
5.0979903799
 11
10.0492067183
 21
5.1820230799
  0
LINE
  5
20E
100
AcDbEntity
  8
0
  6
CONTINUOUS
 62
    7
370
   25
100
AcDbLine
 10
10.0492067183
 20
5.1820230799
 11
10.1409004183
 21
5.2443360799
  0
LINE
  5
20F
100
AcDbEntity
  8
0
  6
CONTINUOUS
 62
    7
370
   25
100
AcDbLine
 10
10.1409004183
 20
5.2443360799
 11
10.2893593183
 21
5.3642572799
  0
LINE
  5
210
100
AcDbEntity
  8
0
  6
CONTINUOUS
 62
    7
370
   25
100
AcDbLine
 10
10.2893593183
 20
5.3642572799
 11
10.3807764183
 21
5.4477246799
  0
LINE
  5
211
100
AcDbEntity
  8
0
  6
CONTINUOUS
 62
    7
370
   25
100
AcDbLine
 10
10.3807764183
 20
5.4477246799
 11
10.4825133183
 21
5.5487151799
  0
LINE
  5
212
100
AcDbEntity
  8
0
  6
CONTINUOUS
 62
    7
370
   25
100
AcDbLine
 10
10.4825133183
 20
5.5487151799
 11
10.5941764183
 21
5.6691979799
  0
LINE
  5
213
100
AcDbEntity
  8
0
  6
CONTINUOUS
 62
    7
370
   25
100
AcDbLine
 10
10.5941764183
 20
5.6691979799
 11
10.7123475183
 21
5.8078871799
  0
LINE
  5
214
100
AcDbEntity
  8
0
  6
CONTINUOUS
 62
    7
370
   25
100
AcDbLine
 10
10.7123475183
 20
5.8078871799
 11
10.8383795183
 21
5.9689907799
  0
LINE
  5
215
100
AcDbEntity
  8
0
  6
CONTINUOUS
 62
    7
370
   25
100
AcDbLine
 10
10.8383795183
 20
5.9689907799
 11
10.9682557183
 21
6.1501848799
  0
LINE
  5
216
100
AcDbEntity
  8
0
  6
CONTINUOUS
 62
    7
370
   25
100
AcDbLine
 10
10.9682557183
 20
6.1501848799
 11
11.1018387183
 21
6.3540750799
  0
LINE
  5
217
100
AcDbEntity
  8
0
  6
CONTINUOUS
 62
    7
370
   25
100
AcDbLine
 10
11.1018387183
 20
6.3540750799
 11
11.2362740183
 21
6.5792950799
  0
LINE
  5
218
100
AcDbEntity
  8
0
  6
CONTINUOUS
 62
    7
370
   25
100
AcDbLine
 10
11.2362740183
 20
6.5792950799
 11
11.3706743183
 21
6.8274906799
  0
LINE
  5
219
100
AcDbEntity
  8
0
  6
CONTINUOUS
 62
    7
370
   25
100
AcDbLine
 10
11.3706743183
 20
6.8274906799
 11
11.4943430183
 21
7.0801996799
  0
ARC
  5
21A
100
AcDbEntity
  8
0
  6
CONTINUOUS
 62
    7
370
   25
100
AcDbCircle
 10
-1.79692e-05
 20
-2.64976e-05
 40
13.49999767538118
100
AcDbArc
 50
31.631984547
 51
35.8681175671
  0
LINE
  5
21B
100
AcDbEntity
  8
0
  6
CONTINUOUS
 62
    7
370
   25
100
AcDbLine
 10
10.9399455
 20
7.9099126
 11
10.6591468
 21
7.8923653
  0
LINE
  5
21C
100
AcDbEntity
  8
0
  6
CONTINUOUS
 62
    7
370
   25
100
AcDbLine
 10
10.6591468
 20
7.8923653
 11
10.3784113
 21
7.8631759
  0
LINE
  5
21D
100
AcDbEntity
  8
0
  6
CONTINUOUS
 62
    7
370
   25
100
AcDbLine
 10
10.3784113
 20
7.8631759
 11
10.118889
 21
7.8251618
  0
LINE
  5
21E
100
AcDbEntity
  8
0
  6
CONTINUOUS
 62
    7
370
   25
100
AcDbLine
 10
10.118889
 20
7.8251618
 11
9.879398999999999
 21
7.7797727
  0
LINE
  5
21F
100
AcDbEntity
  8
0
  6
CONTINUOUS
 62
    7
370
   25
100
AcDbLine
 10
9.879398999999999
 20
7.7797727
 11
9.662296
 21
7.7291226
  0
LINE
  5
220
100
AcDbEntity
  8
0
  6
CONTINUOUS
 62
    7
370
   25
100
AcDbLine
 10
9.662296
 20
7.7291226
 11
9.4652253
 21
7.674336
  0
LINE
  5
221
100
AcDbEntity
  8
0
  6
CONTINUOUS
 62
    7
370
   25
100
AcDbLine
 10
9.4652253
 20
7.674336
 11
9.291871
 21
7.6182341
  0
LINE
  5
222
100
AcDbEntity
  8
0
  6
CONTINUOUS
 62
    7
370
   25
100
AcDbLine
 10
9.291871
 20
7.6182341
 11
9.1378278
 21
7.5611777
  0
LINE
  5
223
100
AcDbEntity
  8
0
  6
CONTINUOUS
 62
    7
370
   25
100
AcDbLine
 10
9.1378278
 20
7.5611777
 11
9.005591799999999
 21
7.5058324
  0
LINE
  5
224
100
AcDbEntity
  8
0
  6
CONTINUOUS
 62
    7
370
   25
100
AcDbLine
 10
9.005591799999999
 20
7.5058324
 11
8.8934941
 21
7.4533156
  0
LINE
  5
225
100
AcDbEntity
  8
0
  6
CONTINUOUS
 62
    7
370
   25
100
AcDbLine
 10
8.8934941
 20
7.4533156
 11
8.725888599999999
 21
7.3620493
  0
LINE
  5
226
100
AcDbEntity
  8
0
  6
CONTINUOUS
 62
    7
370
   25
100
AcDbLine
 10
8.725888599999999
 20
7.3620493
 11
8.6332293
 21
7.3011816
  0
LINE
  5
227
100
AcDbEntity
  8
0
  6
CONTINUOUS
 62
    7
370
   25
100
AcDbLine
 10
8.6332293
 20
7.3011816
 11
8.494297
 21
7.1853575
  0
LINE
  5
228
100
AcDbEntity
  8
0
  6
CONTINUOUS
 62
    7
370
   25
100
AcDbLine
 10
8.494297
 20
7.1853575
 11
8.3619266
 21
7.0904638
  0
LINE
  5
229
100
AcDbEntity
  8
0
  6
CONTINUOUS
 62
    7
370
   25
100
AcDbLine
 10
8.3619266
 20
7.0904638
 11
8.2372566
 21
7.0187843
  0
LINE
  5
22A
100
AcDbEntity
  8
0
  6
CONTINUOUS
 62
    7
370
   25
100
AcDbLine
 10
8.2372566
 20
7.0187843
 11
8.121991100000001
 21
6.9694919
  0
LINE
  5
22B
100
AcDbEntity
  8
0
  6
CONTINUOUS
 62
    7
370
   25
100
AcDbLine
 10
8.121991100000001
 20
6.9694919
 11
8.017742399999999
 21
6.941639
  0
LINE
  5
22C
100
AcDbEntity
  8
0
  6
CONTINUOUS
 62
    7
370
   25
100
AcDbLine
 10
8.017742399999999
 20
6.941639
 11
7.9260943
 21
6.934179
  0
LINE
  5
22D
100
AcDbEntity
  8
0
  6
CONTINUOUS
 62
    7
370
   25
100
AcDbLine
 10
7.9260943
 20
6.934179
 11
7.8854639
 21
6.937757
  0
LINE
  5
22E
100
AcDbEntity
  8
0
  6
CONTINUOUS
 62
    7
370
   25
100
AcDbLine
 10
7.8854639
 20
6.937757
 11
7.8485388
 21
6.9459877
  0
LINE
  5
22F
100
AcDbEntity
  8
0
  6
CONTINUOUS
 62
    7
370
   25
100
AcDbLine
 10
7.8485388
 20
6.9459877
 11
7.8155028
 21
6.9587439
  0
LINE
  5
230
100
AcDbEntity
  8
0
  6
CONTINUOUS
 62
    7
370
   25
100
AcDbLine
 10
7.8155028
 20
6.9587439
 11
7.7865185
 21
6.9758488
  0
LINE
  5
231
100
AcDbEntity
  8
0
  6
CONTINUOUS
 62
    7
370
   25
100
AcDbLine
 10
7.7865185
 20
6.9758488
 11
7.7562472
 21
7.0030936
  0
LINE
  5
232
100
AcDbEntity
  8
0
  6
CONTINUOUS
 62
    7
370
   25
100
AcDbLine
 10
7.7562472
 20
7.0030936
 11
7.4857152
 21
7.2915861
  0
LINE
  5
233
100
AcDbEntity
  8
0
  6
CONTINUOUS
 62
    7
370
   25
100
AcDbLine
 10
7.4857152
 20
7.2915861
 11
7.3892659
 21
7.3892659
  0
LINE
  5
234
100
AcDbEntity
  8
0
  6
CONTINUOUS
 62
    7
370
   25
100
AcDbLine
 10
7.3892659
 20
7.3892659
 11
7.2915861
 21
7.4857152
  0
LINE
  5
235
100
AcDbEntity
  8
0
  6
CONTINUOUS
 62
    7
370
   25
100
AcDbLine
 10
7.2915861
 20
7.4857152
 11
7.0030936
 21
7.7562472
  0
LINE
  5
236
100
AcDbEntity
  8
0
  6
CONTINUOUS
 62
    7
370
   25
100
AcDbLine
 10
7.0030936
 20
7.7562472
 11
6.9758488
 21
7.7865185
  0
LINE
  5
237
100
AcDbEntity
  8
0
  6
CONTINUOUS
 62
    7
370
   25
100
AcDbLine
 10
6.9758488
 20
7.7865185
 11
6.9587439
 21
7.8155028
  0
LINE
  5
238
100
AcDbEntity
  8
0
  6
CONTINUOUS
 62
    7
370
   25
100
AcDbLine
 10
6.9587439
 20
7.8155028
 11
6.9459877
 21
7.8485388
  0
LINE
  5
239
100
AcDbEntity
  8
0
  6
CONTINUOUS
 62
    7
370
   25
100
AcDbLine
 10
6.9459877
 20
7.8485388
 11
6.937757
 21
7.8854639
  0
LINE
  5
23A
100
AcDbEntity
  8
0
  6
CONTINUOUS
 62
    7
370
   25
100
AcDbLine
 10
6.937757
 20
7.8854639
 11
6.934179
 21
7.9260943
  0
LINE
  5
23B
100
AcDbEntity
  8
0
  6
CONTINUOUS
 62
    7
370
   25
100
AcDbLine
 10
6.934179
 20
7.9260943
 11
6.941639
 21
8.017742399999999
  0
LINE
  5
23C
100
AcDbEntity
  8
0
  6
CONTINUOUS
 62
    7
370
   25
100
AcDbLine
 10
6.941639
 20
8.017742399999999
 11
6.9694919
 21
8.121991100000001
  0
LINE
  5
23D
100
AcDbEntity
  8
0
  6
CONTINUOUS
 62
    7
370
   25
100
AcDbLine
 10
6.9694919
 20
8.121991100000001
 11
7.0187843
 21
8.2372566
  0
LINE
  5
23E
100
AcDbEntity
  8
0
  6
CONTINUOUS
 62
    7
370
   25
100
AcDbLine
 10
7.0187843
 20
8.2372566
 11
7.0904638
 21
8.3619266
  0
LINE
  5
23F
100
AcDbEntity
  8
0
  6
CONTINUOUS
 62
    7
370
   25
100
AcDbLine
 10
7.0904638
 20
8.3619266
 11
7.1853575
 21
8.494297
  0
LINE
  5
240
100
AcDbEntity
  8
0
  6
CONTINUOUS
 62
    7
370
   25
100
AcDbLine
 10
7.1853575
 20
8.494297
 11
7.3011816
 21
8.6332293
  0
LINE
  5
241
100
AcDbEntity
  8
0
  6
CONTINUOUS
 62
    7
370
   25
100
AcDbLine
 10
7.3011816
 20
8.6332293
 11
7.3620493
 21
8.725888599999999
  0
LINE
  5
242
100
AcDbEntity
  8
0
  6
CONTINUOUS
 62
    7
370
   25
100
AcDbLine
 10
7.3620493
 20
8.725888599999999
 11
7.4533156
 21
8.8934941
  0
LINE
  5
243
100
AcDbEntity
  8
0
  6
CONTINUOUS
 62
    7
370
   25
100
AcDbLine
 10
7.4533156
 20
8.8934941
 11
7.5058324
 21
9.005591799999999
  0
LINE
  5
244
100
AcDbEntity
  8
0
  6
CONTINUOUS
 62
    7
370
   25
100
AcDbLine
 10
7.5058324
 20
9.005591799999999
 11
7.5611777
 21
9.1378278
  0
LINE
  5
245
100
AcDbEntity
  8
0
  6
CONTINUOUS
 62
    7
370
   25
100
AcDbLine
 10
7.5611777
 20
9.1378278
 11
7.6182341
 21
9.291871
  0
LINE
  5
246
100
AcDbEntity
  8
0
  6
CONTINUOUS
 62
    7
370
   25
100
AcDbLine
 10
7.6182341
 20
9.291871
 11
7.674336
 21
9.4652253
  0
LINE
  5
247
100
AcDbEntity
  8
0
  6
CONTINUOUS
 62
    7
370
   25
100
AcDbLine
 10
7.674336
 20
9.4652253
 11
7.7291226
 21
9.662296
  0
LINE
  5
248
100
AcDbEntity
  8
0
  6
CONTINUOUS
 62
    7
370
   25
100
AcDbLine
 10
7.7291226
 20
9.662296
 11
7.7797727
 21
9.879398999999999
  0
LINE
  5
249
100
AcDbEntity
  8
0
  6
CONTINUOUS
 62
    7
370
   25
100
AcDbLine
 10
7.7797727
 20
9.879398999999999
 11
7.8251618
 21
10.118889
  0
LINE
  5
24A
100
AcDbEntity
  8
0
  6
CONTINUOUS
 62
    7
370
   25
100
AcDbLine
 10
7.8251618
 20
10.118889
 11
7.8631759
 21
10.3784113
  0
LINE
  5
24B
100
AcDbEntity
  8
0
  6
CONTINUOUS
 62
    7
370
   25
100
AcDbLine
 10
7.8631759
 20
10.3784113
 11
7.8923653
 21
10.6591468
  0
LINE
  5
24C
100
AcDbEntity
  8
0
  6
CONTINUOUS
 62
    7
370
   25
100
AcDbLine
 10
7.8923653
 20
10.6591468
 11
7.9099126
 21
10.9399455
  0
ARC
  5
24D
100
AcDbEntity
  8
0
  6
CONTINUOUS
 62
    7
370
   25
100
AcDbCircle
 10
-1.79692e-05
 20
-2.64976e-05
 40
13.49999958955278
100
AcDbArc
 50
54.1319329725
 51
58.3680646879
  0
LINE
  5
24E
100
AcDbEntity
  8
0
  6
CONTINUOUS
 62
    7
370
   25
100
AcDbLine
 10
7.080199335
 20
11.4943422038
 11
6.827490335
 21
11.3706735038
  0
LINE
  5
24F
100
AcDbEntity
  8
0
  6
CONTINUOUS
 62
    7
370
   25
100
AcDbLine
 10
6.827490335
 20
11.3706735038
 11
6.579294735
 21
11.2362732038
  0
LINE
  5
250
100
AcDbEntity
  8
0
  6
CONTINUOUS
 62
    7
370
   25
100
AcDbLine
 10
6.579294735
 20
11.2362732038
 11
6.354074735
 21
11.1018379038
  0
LINE
  5
251
100
AcDbEntity
  8
0
  6
CONTINUOUS
 62
    7
370
   25
100
AcDbLine
 10
6.354074735
 20
11.1018379038
 11
6.150184535
 21
10.9682549038
  0
LINE
  5
252
100
AcDbEntity
  8
0
  6
CONTINUOUS
 62
    7
370
   25
100
AcDbLine
 10
6.150184535
 20
10.9682549038
 11
5.968990435
 21
10.8383787038
  0
LINE
  5
253
100
AcDbEntity
  8
0
  6
CONTINUOUS
 62
    7
370
   25
100
AcDbLine
 10
5.968990435
 20
10.8383787038
 11
5.807886835
 21
10.7123467038
  0
LINE
  5
254
100
AcDbEntity
  8
0
  6
CONTINUOUS
 62
    7
370
   25
100
AcDbLine
 10
5.807886835
 20
10.7123467038
 11
5.669197635
 21
10.5941756038
  0
LINE
  5
255
100
AcDbEntity
  8
0
  6
CONTINUOUS
 62
    7
370
   25
100
AcDbLine
 10
5.669197635
 20
10.5941756038
 11
5.548714835
 21
10.4825125038
  0
LINE
  5
256
100
AcDbEntity
  8
0
  6
CONTINUOUS
 62
    7
370
   25
100
AcDbLine
 10
5.548714835
 20
10.4825125038
 11
5.447724335
 21
10.3807756038
  0
LINE
  5
257
100
AcDbEntity
  8
0
  6
CONTINUOUS
 62
    7
370
   25
100
AcDbLine
 10
5.447724335
 20
10.3807756038
 11
5.364256935
 21
10.2893585038
  0
LINE
  5
258
100
AcDbEntity
  8
0
  6
CONTINUOUS
 62
    7
370
   25
100
AcDbLine
 10
5.364256935
 20
10.2893585038
 11
5.244335735
 21
10.1408996038
  0
LINE
  5
259
100
AcDbEntity
  8
0
  6
CONTINUOUS
 62
    7
370
   25
100
AcDbLine
 10
5.244335735
 20
10.1408996038
 11
5.182022735
 21
10.0492059038
  0
LINE
  5
25A
100
AcDbEntity
  8
0
  6
CONTINUOUS
 62
    7
370
   25
100
AcDbLine
 10
5.182022735
 20
10.0492059038
 11
5.097990035
 21
9.8890313038
  0
LINE
  5
25B
100
AcDbEntity
  8
0
  6
CONTINUOUS
 62
    7
370
   25
100
AcDbLine
 10
5.097990035
 20
9.8890313038
 11
5.012009935
 21
9.7507050038
  0
LINE
  5
25C
100
AcDbEntity
  8
0
  6
CONTINUOUS
 62
    7
370
   25
100
AcDbLine
 10
5.012009935
 20
9.7507050038
 11
4.924260435
 21
9.6367727038
  0
LINE
  5
25D
100
AcDbEntity
  8
0
  6
CONTINUOUS
 62
    7
370
   25
100
AcDbLine
 10
4.924260435
 20
9.6367727038
 11
4.836632435
 21
9.5471223038
  0
LINE
  5
25E
100
AcDbEntity
  8
0
  6
CONTINUOUS
 62
    7
370
   25
100
AcDbLine
 10
4.836632435
 20
9.5471223038
 11
4.750977935
 21
9.481495303799999
  0
LINE
  5
25F
100
AcDbEntity
  8
0
  6
CONTINUOUS
 62
    7
370
   25
100
AcDbLine
 10
4.750977935
 20
9.481495303799999
 11
4.669160935
 21
9.4395309038
  0
LINE
  5
260
100
AcDbEntity
  8
0
  6
CONTINUOUS
 62
    7
370
   25
100
AcDbLine
 10
4.669160935
 20
9.4395309038
 11
4.630254235
 21
9.427288003799999
  0
LINE
  5
261
100
AcDbEntity
  8
0
  6
CONTINUOUS
 62
    7
370
   25
100
AcDbLine
 10
4.630254235
 20
9.427288003799999
 11
4.592990035
 21
9.4207615038
  0
LINE
  5
262
100
AcDbEntity
  8
0
  6
CONTINUOUS
 62
    7
370
   25
100
AcDbLine
 10
4.592990035
 20
9.4207615038
 11
4.557587135
 21
9.4199044038
  0
LINE
  5
263
100
AcDbEntity
  8
0
  6
CONTINUOUS
 62
    7
370
   25
100
AcDbLine
 10
4.557587135
 20
9.4199044038
 11
4.524263435
 21
9.424615403800001
  0
LINE
  5
264
100
AcDbEntity
  8
0
  6
CONTINUOUS
 62
    7
370
   25
100
AcDbLine
 10
4.524263435
 20
9.424615403800001
 11
4.485870235
 21
9.4382021038
  0
LINE
  5
265
100
AcDbEntity
  8
0
  6
CONTINUOUS
 62
    7
370
   25
100
AcDbLine
 10
4.485870235
 20
9.4382021038
 11
4.125530035
 21
9.6012063038
  0
LINE
  5
266
100
AcDbEntity
  8
0
  6
CONTINUOUS
 62
    7
370
   25
100
AcDbLine
 10
4.125530035
 20
9.6012063038
 11
3.999042035
 21
9.6545410038
  0
LINE
  5
267
100
AcDbEntity
  8
0
  6
CONTINUOUS
 62
    7
370
   25
100
AcDbLine
 10
3.999042035
 20
9.6545410038
 11
3.871888135
 21
9.706268203800001
  0
LINE
  5
268
100
AcDbEntity
  8
0
  6
CONTINUOUS
 62
    7
370
   25
100
AcDbLine
 10
3.871888135
 20
9.706268203800001
 11
3.501827735
 21
9.845805903800001
  0
LINE
  5
269
100
AcDbEntity
  8
0
  6
CONTINUOUS
 62
    7
370
   25
100
AcDbLine
 10
3.501827735
 20
9.845805903800001
 11
3.465072435
 21
9.8633467038
  0
LINE
  5
26A
100
AcDbEntity
  8
0
  6
CONTINUOUS
 62
    7
370
   25
100
AcDbLine
 10
3.465072435
 20
9.8633467038
 11
3.438177735
 21
9.8835789038
  0
LINE
  5
26B
100
AcDbEntity
  8
0
  6
CONTINUOUS
 62
    7
370
   25
100
AcDbLine
 10
3.438177735
 20
9.8835789038
 11
3.413750235
 21
9.909218703800001
  0
LINE
  5
26C
100
AcDbEntity
  8
0
  6
CONTINUOUS
 62
    7
370
   25
100
AcDbLine
 10
3.413750235
 20
9.909218703800001
 11
3.392015435
 21
9.9401833038
  0
LINE
  5
26D
100
AcDbEntity
  8
0
  6
CONTINUOUS
 62
    7
370
   25
100
AcDbLine
 10
3.392015435
 20
9.9401833038
 11
3.373161235
 21
9.9763516038
  0
LINE
  5
26E
100
AcDbEntity
  8
0
  6
CONTINUOUS
 62
    7
370
   25
100
AcDbLine
 10
3.373161235
 20
9.9763516038
 11
3.344981135
 21
10.0638782038
  0
LINE
  5
26F
100
AcDbEntity
  8
0
  6
CONTINUOUS
 62
    7
370
   25
100
AcDbLine
 10
3.344981135
 20
10.0638782038
 11
3.330819635
 21
10.1708504038
  0
LINE
  5
270
100
AcDbEntity
  8
0
  6
CONTINUOUS
 62
    7
370
   25
100
AcDbLine
 10
3.330819635
 20
10.1708504038
 11
3.332249735
 21
10.2962052038
  0
LINE
  5
271
100
AcDbEntity
  8
0
  6
CONTINUOUS
 62
    7
370
   25
100
AcDbLine
 10
3.332249735
 20
10.2962052038
 11
3.350763735
 21
10.4388157038
  0
LINE
  5
272
100
AcDbEntity
  8
0
  6
CONTINUOUS
 62
    7
370
   25
100
AcDbLine
 10
3.350763735
 20
10.4388157038
 11
3.387778135
 21
10.5974243038
  0
LINE
  5
273
100
AcDbEntity
  8
0
  6
CONTINUOUS
 62
    7
370
   25
100
AcDbLine
 10
3.387778135
 20
10.5974243038
 11
3.441618535
 21
10.7701050038
  0
LINE
  5
274
100
AcDbEntity
  8
0
  6
CONTINUOUS
 62
    7
370
   25
100
AcDbLine
 10
3.441618535
 20
10.7701050038
 11
3.462393835
 21
10.8790041038
  0
LINE
  5
275
100
AcDbEntity
  8
0
  6
CONTINUOUS
 62
    7
370
   25
100
AcDbLine
 10
3.462393835
 20
10.8790041038
 11
3.482573035
 21
11.0687775038
  0
LINE
  5
276
100
AcDbEntity
  8
0
  6
CONTINUOUS
 62
    7
370
   25
100
AcDbLine
 10
3.482573035
 20
11.0687775038
 11
3.488194335
 21
11.1924395038
  0
LINE
  5
277
100
AcDbEntity
  8
0
  6
CONTINUOUS
 62
    7
370
   25
100
AcDbLine
 10
3.488194335
 20
11.1924395038
 11
3.488722135
 21
11.3357894038
  0
LINE
  5
278
100
AcDbEntity
  8
0
  6
CONTINUOUS
 62
    7
370
   25
100
AcDbLine
 10
3.488722135
 20
11.3357894038
 11
3.482485635
 21
11.4999413038
  0
LINE
  5
279
100
AcDbEntity
  8
0
  6
CONTINUOUS
 62
    7
370
   25
100
AcDbLine
 10
3.482485635
 20
11.4999413038
 11
3.467977135
 21
11.6815691038
  0
LINE
  5
27A
100
AcDbEntity
  8
0
  6
CONTINUOUS
 62
    7
370
   25
100
AcDbLine
 10
3.467977135
 20
11.6815691038
 11
3.443177735
 21
11.8846045038
  0
LINE
  5
27B
100
AcDbEntity
  8
0
  6
CONTINUOUS
 62
    7
370
   25
100
AcDbLine
 10
3.443177735
 20
11.8846045038
 11
3.406890535
 21
12.1045645038
  0
LINE
  5
27C
100
AcDbEntity
  8
0
  6
CONTINUOUS
 62
    7
370
   25
100
AcDbLine
 10
3.406890535
 20
12.1045645038
 11
3.357175835
 21
12.3431941038
  0
LINE
  5
27D
100
AcDbEntity
  8
0
  6
CONTINUOUS
 62
    7
370
   25
100
AcDbLine
 10
3.357175835
 20
12.3431941038
 11
3.292981335
 21
12.5975088038
  0
LINE
  5
27E
100
AcDbEntity
  8
0
  6
CONTINUOUS
 62
    7
370
   25
100
AcDbLine
 10
3.292981335
 20
12.5975088038
 11
3.212515935
 21
12.8680449038
  0
LINE
  5
27F
100
AcDbEntity
  8
0
  6
CONTINUOUS
 62
    7
370
   25
100
AcDbLine
 10
3.212515935
 20
12.8680449038
 11
3.121270635
 21
13.1341842038
  0
ARC
  5
280
100
AcDbEntity
  8
0
  6
CONTINUOUS
 62
    7
370
   25
100
AcDbCircle
 10
-5.4105e-06
 20
-3.20213e-05
 40
13.5
100
AcDbArc
 50
76.6319372122
 51
80.86806943889999
  0
LINE
  5
281
100
AcDbEntity
  8
0
  6
CONTINUOUS
 62
    7
370
   25
100
AcDbLine
 10
2.142556935
 20
13.3288624038
 11
1.956410135
 21
13.1178999038
  0
LINE
  5
282
100
AcDbEntity
  8
0
  6
CONTINUOUS
 62
    7
370
   25
100
AcDbLine
 10
1.956410135
 20
13.1178999038
 11
1.778540135
 21
12.8987499038
  0
LINE
  5
283
100
AcDbEntity
  8
0
  6
CONTINUOUS
 62
    7
370
   25
100
AcDbLine
 10
1.778540135
 20
12.8987499038
 11
1.621910135
 21
12.6883599038
  0
LINE
  5
284
100
AcDbEntity
  8
0
  6
CONTINUOUS
 62
    7
370
   25
100
AcDbLine
 10
1.621910135
 20
12.6883599038
 11
1.484660135
 21
12.4869199038
  0
LINE
  5
285
100
AcDbEntity
  8
0
  6
CONTINUOUS
 62
    7
370
   25
100
AcDbLine
 10
1.484660135
 20
12.4869199038
 11
1.366960135
 21
12.2975899038
  0
LINE
  5
286
100
AcDbEntity
  8
0
  6
CONTINUOUS
 62
    7
370
   25
100
AcDbLine
 10
1.366960135
 20
12.2975899038
 11
1.266350135
 21
12.1194999038
  0
LINE
  5
287
100
AcDbEntity
  8
0
  6
CONTINUOUS
 62
    7
370
   25
100
AcDbLine
 10
1.266350135
 20
12.1194999038
 11
1.183440135
 21
11.9572499038
  0
LINE
  5
288
100
AcDbEntity
  8
0
  6
CONTINUOUS
 62
    7
370
   25
100
AcDbLine
 10
1.183440135
 20
11.9572499038
 11
1.114860135
 21
11.8079799038
  0
LINE
  5
289
100
AcDbEntity
  8
0
  6
CONTINUOUS
 62
    7
370
   25
100
AcDbLine
 10
1.114860135
 20
11.8079799038
 11
1.060490135
 21
11.6753399038
  0
LINE
  5
28A
100
AcDbEntity
  8
0
  6
CONTINUOUS
 62
    7
370
   25
100
AcDbLine
 10
1.060490135
 20
11.6753399038
 11
1.018360135
 21
11.5589399038
  0
LINE
  5
28B
100
AcDbEntity
  8
0
  6
CONTINUOUS
 62
    7
370
   25
100
AcDbLine
 10
1.018360135
 20
11.5589399038
 11
0.964380135
 21
11.3758899038
  0
LINE
  5
28C
100
AcDbEntity
  8
0
  6
CONTINUOUS
 62
    7
370
   25
100
AcDbLine
 10
0.964380135
 20
11.3758899038
 11
0.941900135
 21
11.2673299038
  0
LINE
  5
28D
100
AcDbEntity
  8
0
  6
CONTINUOUS
 62
    7
370
   25
100
AcDbLine
 10
0.941900135
 20
11.2673299038
 11
0.925560135
 21
11.0871899038
  0
LINE
  5
28E
100
AcDbEntity
  8
0
  6
CONTINUOUS
 62
    7
370
   25
100
AcDbLine
 10
0.925560135
 20
11.0871899038
 11
0.899060135
 21
10.9264899038
  0
LINE
  5
28F
100
AcDbEntity
  8
0
  6
CONTINUOUS
 62
    7
370
   25
100
AcDbLine
 10
0.899060135
 20
10.9264899038
 11
0.861590135
 21
10.7876499038
  0
LINE
  5
290
100
AcDbEntity
  8
0
  6
CONTINUOUS
 62
    7
370
   25
100
AcDbLine
 10
0.861590135
 20
10.7876499038
 11
0.814940135
 21
10.6712899038
  0
LINE
  5
291
100
AcDbEntity
  8
0
  6
CONTINUOUS
 62
    7
370
   25
100
AcDbLine
 10
0.814940135
 20
10.6712899038
 11
0.760920135
 21
10.5778799038
  0
LINE
  5
292
100
AcDbEntity
  8
0
  6
CONTINUOUS
 62
    7
370
   25
100
AcDbLine
 10
0.760920135
 20
10.5778799038
 11
0.701390135
 21
10.5077999038
  0
LINE
  5
293
100
AcDbEntity
  8
0
  6
CONTINUOUS
 62
    7
370
   25
100
AcDbLine
 10
0.701390135
 20
10.5077999038
 11
0.670130135
 21
10.4815999038
  0
LINE
  5
294
100
AcDbEntity
  8
0
  6
CONTINUOUS
 62
    7
370
   25
100
AcDbLine
 10
0.670130135
 20
10.4815999038
 11
0.6382001349999999
 21
10.4613099038
  0
LINE
  5
295
100
AcDbEntity
  8
0
  6
CONTINUOUS
 62
    7
370
   25
100
AcDbLine
 10
0.6382001349999999
 20
10.4613099038
 11
0.605820135
 21
10.4469699038
  0
LINE
  5
296
100
AcDbEntity
  8
0
  6
CONTINUOUS
 62
    7
370
   25
100
AcDbLine
 10
0.605820135
 20
10.4469699038
 11
0.573230135
 21
10.4385699038
  0
LINE
  5
297
100
AcDbEntity
  8
0
  6
CONTINUOUS
 62
    7
370
   25
100
AcDbLine
 10
0.573230135
 20
10.4385699038
 11
0.532560135
 21
10.4364299038
  0
LINE
  5
298
100
AcDbEntity
  8
0
  6
CONTINUOUS
 62
    7
370
   25
100
AcDbLine
 10
0.532560135
 20
10.4364299038
 11
0.137270135
 21
10.4491299038
  0
LINE
  5
299
100
AcDbEntity
  8
0
  6
CONTINUOUS
 62
    7
370
   25
100
AcDbLine
 10
0.137270135
 20
10.4491299038
 11
1.35e-07
 21
10.4499999038
  0
LINE
  5
29A
100
AcDbEntity
  8
0
  6
CONTINUOUS
 62
    7
370
   25
100
AcDbLine
 10
1.35e-07
 20
10.4499999038
 11
-0.137269865
 21
10.4491299038
  0
LINE
  5
29B
100
AcDbEntity
  8
0
  6
CONTINUOUS
 62
    7
370
   25
100
AcDbLine
 10
-0.137269865
 20
10.4491299038
 11
-0.532559865
 21
10.4364299038
  0
LINE
  5
29C
100
AcDbEntity
  8
0
  6
CONTINUOUS
 62
    7
370
   25
100
AcDbLine
 10
-0.532559865
 20
10.4364299038
 11
-0.5732298649999999
 21
10.4385699038
  0
LINE
  5
29D
100
AcDbEntity
  8
0
  6
CONTINUOUS
 62
    7
370
   25
100
AcDbLine
 10
-0.5732298649999999
 20
10.4385699038
 11
-0.605819865
 21
10.4469699038
  0
LINE
  5
29E
100
AcDbEntity
  8
0
  6
CONTINUOUS
 62
    7
370
   25
100
AcDbLine
 10
-0.605819865
 20
10.4469699038
 11
-0.638199865
 21
10.4613099038
  0
LINE
  5
29F
100
AcDbEntity
  8
0
  6
CONTINUOUS
 62
    7
370
   25
100
AcDbLine
 10
-0.638199865
 20
10.4613099038
 11
-0.670129865
 21
10.4815999038
  0
LINE
  5
2A0
100
AcDbEntity
  8
0
  6
CONTINUOUS
 62
    7
370
   25
100
AcDbLine
 10
-0.670129865
 20
10.4815999038
 11
-0.701389865
 21
10.5077999038
  0
LINE
  5
2A1
100
AcDbEntity
  8
0
  6
CONTINUOUS
 62
    7
370
   25
100
AcDbLine
 10
-0.701389865
 20
10.5077999038
 11
-0.760919865
 21
10.5778799038
  0
LINE
  5
2A2
100
AcDbEntity
  8
0
  6
CONTINUOUS
 62
    7
370
   25
100
AcDbLine
 10
-0.760919865
 20
10.5778799038
 11
-0.814939865
 21
10.6712899038
  0
LINE
  5
2A3
100
AcDbEntity
  8
0
  6
CONTINUOUS
 62
    7
370
   25
100
AcDbLine
 10
-0.814939865
 20
10.6712899038
 11
-0.861589865
 21
10.7876499038
  0
LINE
  5
2A4
100
AcDbEntity
  8
0
  6
CONTINUOUS
 62
    7
370
   25
100
AcDbLine
 10
-0.861589865
 20
10.7876499038
 11
-0.899059865
 21
10.9264899038
  0
LINE
  5
2A5
100
AcDbEntity
  8
0
  6
CONTINUOUS
 62
    7
370
   25
100
AcDbLine
 10
-0.899059865
 20
10.9264899038
 11
-0.925559865
 21
11.0871899038
  0
LINE
  5
2A6
100
AcDbEntity
  8
0
  6
CONTINUOUS
 62
    7
370
   25
100
AcDbLine
 10
-0.925559865
 20
11.0871899038
 11
-0.941899865
 21
11.2673299038
  0
LINE
  5
2A7
100
AcDbEntity
  8
0
  6
CONTINUOUS
 62
    7
370
   25
100
AcDbLine
 10
-0.941899865
 20
11.2673299038
 11
-0.9643798649999999
 21
11.3758899038
  0
LINE
  5
2A8
100
AcDbEntity
  8
0
  6
CONTINUOUS
 62
    7
370
   25
100
AcDbLine
 10
-0.9643798649999999
 20
11.3758899038
 11
-1.018359865
 21
11.5589399038
  0
LINE
  5
2A9
100
AcDbEntity
  8
0
  6
CONTINUOUS
 62
    7
370
   25
100
AcDbLine
 10
-1.018359865
 20
11.5589399038
 11
-1.060489865
 21
11.6753399038
  0
LINE
  5
2AA
100
AcDbEntity
  8
0
  6
CONTINUOUS
 62
    7
370
   25
100
AcDbLine
 10
-1.060489865
 20
11.6753399038
 11
-1.114859865
 21
11.8079799038
  0
LINE
  5
2AB
100
AcDbEntity
  8
0
  6
CONTINUOUS
 62
    7
370
   25
100
AcDbLine
 10
-1.114859865
 20
11.8079799038
 11
-1.183439865
 21
11.9572499038
  0
LINE
  5
2AC
100
AcDbEntity
  8
0
  6
CONTINUOUS
 62
    7
370
   25
100
AcDbLine
 10
-1.183439865
 20
11.9572499038
 11
-1.266349865
 21
12.1194999038
  0
LINE
  5
2AD
100
AcDbEntity
  8
0
  6
CONTINUOUS
 62
    7
370
   25
100
AcDbLine
 10
-1.266349865
 20
12.1194999038
 11
-1.366959865
 21
12.2975899038
  0
LINE
  5
2AE
100
AcDbEntity
  8
0
  6
CONTINUOUS
 62
    7
370
   25
100
AcDbLine
 10
-1.366959865
 20
12.2975899038
 11
-1.484659865
 21
12.4869199038
  0
LINE
  5
2AF
100
AcDbEntity
  8
0
  6
CONTINUOUS
 62
    7
370
   25
100
AcDbLine
 10
-1.484659865
 20
12.4869199038
 11
-1.621909865
 21
12.6883599038
  0
LINE
  5
2B0
100
AcDbEntity
  8
0
  6
CONTINUOUS
 62
    7
370
   25
100
AcDbLine
 10
-1.621909865
 20
12.6883599038
 11
-1.778539865
 21
12.8987499038
  0
LINE
  5
2B1
100
AcDbEntity
  8
0
  6
CONTINUOUS
 62
    7
370
   25
100
AcDbLine
 10
-1.778539865
 20
12.8987499038
 11
-1.956409865
 21
13.1178999038
  0
LINE
  5
2B2
100
AcDbEntity
  8
0
  6
CONTINUOUS
 62
    7
370
   25
100
AcDbLine
 10
-1.956409865
 20
13.1178999038
 11
-2.142556665
 21
13.3288624038
  0
ARC
  5
2B3
100
AcDbEntity
  8
0
  6
CONTINUOUS
 62
    7
370
   25
100
AcDbCircle
 10
5.6805e-06
 20
-3.20213e-05
 40
13.5
100
AcDbArc
 50
99.13193056110001
 51
103.3680627878
  0
LINE
  5
2B4
100
AcDbEntity
  8
0
  6
CONTINUOUS
 62
    7
370
   25
100
AcDbLine
 10
-3.121270365
 20
13.1341842038
 11
-3.212515665
 21
12.8680449038
  0
LINE
  5
2B5
100
AcDbEntity
  8
0
  6
CONTINUOUS
 62
    7
370
   25
100
AcDbLine
 10
-3.212515665
 20
12.8680449038
 11
-3.292981065
 21
12.5975088038
  0
LINE
  5
2B6
100
AcDbEntity
  8
0
  6
CONTINUOUS
 62
    7
370
   25
100
AcDbLine
 10
-3.292981065
 20
12.5975088038
 11
-3.357175565
 21
12.3431941038
  0
LINE
  5
2B7
100
AcDbEntity
  8
0
  6
CONTINUOUS
 62
    7
370
   25
100
AcDbLine
 10
-3.357175565
 20
12.3431941038
 11
-3.406890265
 21
12.1045645038
  0
LINE
  5
2B8
100
AcDbEntity
  8
0
  6
CONTINUOUS
 62
    7
370
   25
100
AcDbLine
 10
-3.406890265
 20
12.1045645038
 11
-3.443177465
 21
11.8846045038
  0
LINE
  5
2B9
100
AcDbEntity
  8
0
  6
CONTINUOUS
 62
    7
370
   25
100
AcDbLine
 10
-3.443177465
 20
11.8846045038
 11
-3.467976865
 21
11.6815691038
  0
LINE
  5
2BA
100
AcDbEntity
  8
0
  6
CONTINUOUS
 62
    7
370
   25
100
AcDbLine
 10
-3.467976865
 20
11.6815691038
 11
-3.482485365
 21
11.4999413038
  0
LINE
  5
2BB
100
AcDbEntity
  8
0
  6
CONTINUOUS
 62
    7
370
   25
100
AcDbLine
 10
-3.482485365
 20
11.4999413038
 11
-3.488721865
 21
11.3357894038
  0
LINE
  5
2BC
100
AcDbEntity
  8
0
  6
CONTINUOUS
 62
    7
370
   25
100
AcDbLine
 10
-3.488721865
 20
11.3357894038
 11
-3.488194065
 21
11.1924395038
  0
LINE
  5
2BD
100
AcDbEntity
  8
0
  6
CONTINUOUS
 62
    7
370
   25
100
AcDbLine
 10
-3.488194065
 20
11.1924395038
 11
-3.482572765
 21
11.0687775038
  0
LINE
  5
2BE
100
AcDbEntity
  8
0
  6
CONTINUOUS
 62
    7
370
   25
100
AcDbLine
 10
-3.482572765
 20
11.0687775038
 11
-3.462393565
 21
10.8790041038
  0
LINE
  5
2BF
100
AcDbEntity
  8
0
  6
CONTINUOUS
 62
    7
370
   25
100
AcDbLine
 10
-3.462393565
 20
10.8790041038
 11
-3.441618265
 21
10.7701050038
  0
LINE
  5
2C0
100
AcDbEntity
  8
0
  6
CONTINUOUS
 62
    7
370
   25
100
AcDbLine
 10
-3.441618265
 20
10.7701050038
 11
-3.387777865
 21
10.5974243038
  0
LINE
  5
2C1
100
AcDbEntity
  8
0
  6
CONTINUOUS
 62
    7
370
   25
100
AcDbLine
 10
-3.387777865
 20
10.5974243038
 11
-3.350763465
 21
10.4388157038
  0
LINE
  5
2C2
100
AcDbEntity
  8
0
  6
CONTINUOUS
 62
    7
370
   25
100
AcDbLine
 10
-3.350763465
 20
10.4388157038
 11
-3.332249465
 21
10.2962052038
  0
LINE
  5
2C3
100
AcDbEntity
  8
0
  6
CONTINUOUS
 62
    7
370
   25
100
AcDbLine
 10
-3.332249465
 20
10.2962052038
 11
-3.330819365
 21
10.1708504038
  0
LINE
  5
2C4
100
AcDbEntity
  8
0
  6
CONTINUOUS
 62
    7
370
   25
100
AcDbLine
 10
-3.330819365
 20
10.1708504038
 11
-3.344980865
 21
10.0638782038
  0
LINE
  5
2C5
100
AcDbEntity
  8
0
  6
CONTINUOUS
 62
    7
370
   25
100
AcDbLine
 10
-3.344980865
 20
10.0638782038
 11
-3.373160965
 21
9.9763516038
  0
LINE
  5
2C6
100
AcDbEntity
  8
0
  6
CONTINUOUS
 62
    7
370
   25
100
AcDbLine
 10
-3.373160965
 20
9.9763516038
 11
-3.392015165
 21
9.9401833038
  0
LINE
  5
2C7
100
AcDbEntity
  8
0
  6
CONTINUOUS
 62
    7
370
   25
100
AcDbLine
 10
-3.392015165
 20
9.9401833038
 11
-3.413749965
 21
9.909218703800001
  0
LINE
  5
2C8
100
AcDbEntity
  8
0
  6
CONTINUOUS
 62
    7
370
   25
100
AcDbLine
 10
-3.413749965
 20
9.909218703800001
 11
-3.438177465
 21
9.8835789038
  0
LINE
  5
2C9
100
AcDbEntity
  8
0
  6
CONTINUOUS
 62
    7
370
   25
100
AcDbLine
 10
-3.438177465
 20
9.8835789038
 11
-3.465072165
 21
9.8633467038
  0
LINE
  5
2CA
100
AcDbEntity
  8
0
  6
CONTINUOUS
 62
    7
370
   25
100
AcDbLine
 10
-3.465072165
 20
9.8633467038
 11
-3.501827465
 21
9.845805903800001
  0
LINE
  5
2CB
100
AcDbEntity
  8
0
  6
CONTINUOUS
 62
    7
370
   25
100
AcDbLine
 10
-3.501827465
 20
9.845805903800001
 11
-3.871887865
 21
9.706268203800001
  0
LINE
  5
2CC
100
AcDbEntity
  8
0
  6
CONTINUOUS
 62
    7
370
   25
100
AcDbLine
 10
-3.871887865
 20
9.706268203800001
 11
-3.999041765
 21
9.6545410038
  0
LINE
  5
2CD
100
AcDbEntity
  8
0
  6
CONTINUOUS
 62
    7
370
   25
100
AcDbLine
 10
-3.999041765
 20
9.6545410038
 11
-4.125529765
 21
9.6012063038
  0
LINE
  5
2CE
100
AcDbEntity
  8
0
  6
CONTINUOUS
 62
    7
370
   25
100
AcDbLine
 10
-4.125529765
 20
9.6012063038
 11
-4.485869965
 21
9.4382021038
  0
LINE
  5
2CF
100
AcDbEntity
  8
0
  6
CONTINUOUS
 62
    7
370
   25
100
AcDbLine
 10
-4.485869965
 20
9.4382021038
 11
-4.524263165
 21
9.424615403800001
  0
LINE
  5
2D0
100
AcDbEntity
  8
0
  6
CONTINUOUS
 62
    7
370
   25
100
AcDbLine
 10
-4.524263165
 20
9.424615403800001
 11
-4.557586865
 21
9.4199044038
  0
LINE
  5
2D1
100
AcDbEntity
  8
0
  6
CONTINUOUS
 62
    7
370
   25
100
AcDbLine
 10
-4.557586865
 20
9.4199044038
 11
-4.592989765
 21
9.4207615038
  0
LINE
  5
2D2
100
AcDbEntity
  8
0
  6
CONTINUOUS
 62
    7
370
   25
100
AcDbLine
 10
-4.592989765
 20
9.4207615038
 11
-4.630253965
 21
9.427288003799999
  0
LINE
  5
2D3
100
AcDbEntity
  8
0
  6
CONTINUOUS
 62
    7
370
   25
100
AcDbLine
 10
-4.630253965
 20
9.427288003799999
 11
-4.669160665
 21
9.4395309038
  0
LINE
  5
2D4
100
AcDbEntity
  8
0
  6
CONTINUOUS
 62
    7
370
   25
100
AcDbLine
 10
-4.669160665
 20
9.4395309038
 11
-4.750977665
 21
9.481495303799999
  0
LINE
  5
2D5
100
AcDbEntity
  8
0
  6
CONTINUOUS
 62
    7
370
   25
100
AcDbLine
 10
-4.750977665
 20
9.481495303799999
 11
-4.836632165
 21
9.5471223038
  0
LINE
  5
2D6
100
AcDbEntity
  8
0
  6
CONTINUOUS
 62
    7
370
   25
100
AcDbLine
 10
-4.836632165
 20
9.5471223038
 11
-4.924260165
 21
9.6367727038
  0
LINE
  5
2D7
100
AcDbEntity
  8
0
  6
CONTINUOUS
 62
    7
370
   25
100
AcDbLine
 10
-4.924260165
 20
9.6367727038
 11
-5.012009665
 21
9.7507050038
  0
LINE
  5
2D8
100
AcDbEntity
  8
0
  6
CONTINUOUS
 62
    7
370
   25
100
AcDbLine
 10
-5.012009665
 20
9.7507050038
 11
-5.097989765
 21
9.8890313038
  0
LINE
  5
2D9
100
AcDbEntity
  8
0
  6
CONTINUOUS
 62
    7
370
   25
100
AcDbLine
 10
-5.097989765
 20
9.8890313038
 11
-5.182022465
 21
10.0492059038
  0
LINE
  5
2DA
100
AcDbEntity
  8
0
  6
CONTINUOUS
 62
    7
370
   25
100
AcDbLine
 10
-5.182022465
 20
10.0492059038
 11
-5.244335465
 21
10.1408996038
  0
LINE
  5
2DB
100
AcDbEntity
  8
0
  6
CONTINUOUS
 62
    7
370
   25
100
AcDbLine
 10
-5.244335465
 20
10.1408996038
 11
-5.364256665
 21
10.2893585038
  0
LINE
  5
2DC
100
AcDbEntity
  8
0
  6
CONTINUOUS
 62
    7
370
   25
100
AcDbLine
 10
-5.364256665
 20
10.2893585038
 11
-5.447724065
 21
10.3807756038
  0
LINE
  5
2DD
100
AcDbEntity
  8
0
  6
CONTINUOUS
 62
    7
370
   25
100
AcDbLine
 10
-5.447724065
 20
10.3807756038
 11
-5.548714565
 21
10.4825125038
  0
LINE
  5
2DE
100
AcDbEntity
  8
0
  6
CONTINUOUS
 62
    7
370
   25
100
AcDbLine
 10
-5.548714565
 20
10.4825125038
 11
-5.669197365
 21
10.5941756038
  0
LINE
  5
2DF
100
AcDbEntity
  8
0
  6
CONTINUOUS
 62
    7
370
   25
100
AcDbLine
 10
-5.669197365
 20
10.5941756038
 11
-5.807886565
 21
10.7123467038
  0
LINE
  5
2E0
100
AcDbEntity
  8
0
  6
CONTINUOUS
 62
    7
370
   25
100
AcDbLine
 10
-5.807886565
 20
10.7123467038
 11
-5.968990165
 21
10.8383787038
  0
LINE
  5
2E1
100
AcDbEntity
  8
0
  6
CONTINUOUS
 62
    7
370
   25
100
AcDbLine
 10
-5.968990165
 20
10.8383787038
 11
-6.150184265
 21
10.9682549038
  0
LINE
  5
2E2
100
AcDbEntity
  8
0
  6
CONTINUOUS
 62
    7
370
   25
100
AcDbLine
 10
-6.150184265
 20
10.9682549038
 11
-6.354074465
 21
11.1018379038
  0
LINE
  5
2E3
100
AcDbEntity
  8
0
  6
CONTINUOUS
 62
    7
370
   25
100
AcDbLine
 10
-6.354074465
 20
11.1018379038
 11
-6.579294465
 21
11.2362732038
  0
LINE
  5
2E4
100
AcDbEntity
  8
0
  6
CONTINUOUS
 62
    7
370
   25
100
AcDbLine
 10
-6.579294465
 20
11.2362732038
 11
-6.827490065
 21
11.3706735038
  0
LINE
  5
2E5
100
AcDbEntity
  8
0
  6
CONTINUOUS
 62
    7
370
   25
100
AcDbLine
 10
-6.827490065
 20
11.3706735038
 11
-7.080199065
 21
11.4943422038
  0
ARC
  5
2E6
100
AcDbEntity
  8
0
  6
CONTINUOUS
 62
    7
370
   25
100
AcDbCircle
 10
2.71125e-05
 20
-1.87837e-05
 40
13.49999767538116
100
AcDbArc
 50
121.631984547
 51
125.8681175671
  0
LINE
  5
2E7
100
AcDbEntity
  8
0
  6
CONTINUOUS
 62
    7
370
   25
100
AcDbLine
 10
-7.9099119851
 20
10.9399446855
 11
-7.8923646851
 21
10.6591459855
  0
LINE
  5
2E8
100
AcDbEntity
  8
0
  6
CONTINUOUS
 62
    7
370
   25
100
AcDbLine
 10
-7.8923646851
 20
10.6591459855
 11
-7.8631752851
 21
10.3784104855
  0
LINE
  5
2E9
100
AcDbEntity
  8
0
  6
CONTINUOUS
 62
    7
370
   25
100
AcDbLine
 10
-7.8631752851
 20
10.3784104855
 11
-7.8251611851
 21
10.1188881855
  0
LINE
  5
2EA
100
AcDbEntity
  8
0
  6
CONTINUOUS
 62
    7
370
   25
100
AcDbLine
 10
-7.8251611851
 20
10.1188881855
 11
-7.7797720851
 21
9.879398185499999
  0
LINE
  5
2EB
100
AcDbEntity
  8
0
  6
CONTINUOUS
 62
    7
370
   25
100
AcDbLine
 10
-7.7797720851
 20
9.879398185499999
 11
-7.7291219851
 21
9.6622951855
  0
LINE
  5
2EC
100
AcDbEntity
  8
0
  6
CONTINUOUS
 62
    7
370
   25
100
AcDbLine
 10
-7.7291219851
 20
9.6622951855
 11
-7.6743353851
 21
9.4652244855
  0
LINE
  5
2ED
100
AcDbEntity
  8
0
  6
CONTINUOUS
 62
    7
370
   25
100
AcDbLine
 10
-7.6743353851
 20
9.4652244855
 11
-7.6182334851
 21
9.291870185500001
  0
LINE
  5
2EE
100
AcDbEntity
  8
0
  6
CONTINUOUS
 62
    7
370
   25
100
AcDbLine
 10
-7.6182334851
 20
9.291870185500001
 11
-7.5611770851
 21
9.1378269855
  0
LINE
  5
2EF
100
AcDbEntity
  8
0
  6
CONTINUOUS
 62
    7
370
   25
100
AcDbLine
 10
-7.5611770851
 20
9.1378269855
 11
-7.5058317851
 21
9.0055909855
  0
LINE
  5
2F0
100
AcDbEntity
  8
0
  6
CONTINUOUS
 62
    7
370
   25
100
AcDbLine
 10
-7.5058317851
 20
9.0055909855
 11
-7.4533149851
 21
8.8934932855
  0
LINE
  5
2F1
100
AcDbEntity
  8
0
  6
CONTINUOUS
 62
    7
370
   25
100
AcDbLine
 10
-7.4533149851
 20
8.8934932855
 11
-7.3620486851
 21
8.725887785499999
  0
LINE
  5
2F2
100
AcDbEntity
  8
0
  6
CONTINUOUS
 62
    7
370
   25
100
AcDbLine
 10
-7.3620486851
 20
8.725887785499999
 11
-7.3011809851
 21
8.6332284855
  0
LINE
  5
2F3
100
AcDbEntity
  8
0
  6
CONTINUOUS
 62
    7
370
   25
100
AcDbLine
 10
-7.3011809851
 20
8.6332284855
 11
-7.1853568851
 21
8.4942961855
  0
LINE
  5
2F4
100
AcDbEntity
  8
0
  6
CONTINUOUS
 62
    7
370
   25
100
AcDbLine
 10
-7.1853568851
 20
8.4942961855
 11
-7.0904631851
 21
8.3619257855
  0
LINE
  5
2F5
100
AcDbEntity
  8
0
  6
CONTINUOUS
 62
    7
370
   25
100
AcDbLine
 10
-7.0904631851
 20
8.3619257855
 11
-7.0187836851
 21
8.2372557855
  0
LINE
  5
2F6
100
AcDbEntity
  8
0
  6
CONTINUOUS
 62
    7
370
   25
100
AcDbLine
 10
-7.0187836851
 20
8.2372557855
 11
-6.9694912851
 21
8.121990285500001
  0
LINE
  5
2F7
100
AcDbEntity
  8
0
  6
CONTINUOUS
 62
    7
370
   25
100
AcDbLine
 10
-6.9694912851
 20
8.121990285500001
 11
-6.9416383851
 21
8.0177415855
  0
LINE
  5
2F8
100
AcDbEntity
  8
0
  6
CONTINUOUS
 62
    7
370
   25
100
AcDbLine
 10
-6.9416383851
 20
8.0177415855
 11
-6.9341783851
 21
7.9260934855
  0
LINE
  5
2F9
100
AcDbEntity
  8
0
  6
CONTINUOUS
 62
    7
370
   25
100
AcDbLine
 10
-6.9341783851
 20
7.9260934855
 11
-6.9377563851
 21
7.8854630855
  0
LINE
  5
2FA
100
AcDbEntity
  8
0
  6
CONTINUOUS
 62
    7
370
   25
100
AcDbLine
 10
-6.9377563851
 20
7.8854630855
 11
-6.9459870851
 21
7.8485379855
  0
LINE
  5
2FB
100
AcDbEntity
  8
0
  6
CONTINUOUS
 62
    7
370
   25
100
AcDbLine
 10
-6.9459870851
 20
7.8485379855
 11
-6.9587432851
 21
7.8155019855
  0
LINE
  5
2FC
100
AcDbEntity
  8
0
  6
CONTINUOUS
 62
    7
370
   25
100
AcDbLine
 10
-6.9587432851
 20
7.8155019855
 11
-6.9758481851
 21
7.7865176855
  0
LINE
  5
2FD
100
AcDbEntity
  8
0
  6
CONTINUOUS
 62
    7
370
   25
100
AcDbLine
 10
-6.9758481851
 20
7.7865176855
 11
-7.0030929851
 21
7.7562463855
  0
LINE
  5
2FE
100
AcDbEntity
  8
0
  6
CONTINUOUS
 62
    7
370
   25
100
AcDbLine
 10
-7.0030929851
 20
7.7562463855
 11
-7.2915854851
 21
7.4857143855
  0
LINE
  5
2FF
100
AcDbEntity
  8
0
  6
CONTINUOUS
 62
    7
370
   25
100
AcDbLine
 10
-7.2915854851
 20
7.4857143855
 11
-7.3892652851
 21
7.3892650855
  0
LINE
  5
300
100
AcDbEntity
  8
0
  6
CONTINUOUS
 62
    7
370
   25
100
AcDbLine
 10
-7.3892652851
 20
7.3892650855
 11
-7.4857145851
 21
7.2915852855
  0
LINE
  5
301
100
AcDbEntity
  8
0
  6
CONTINUOUS
 62
    7
370
   25
100
AcDbLine
 10
-7.4857145851
 20
7.2915852855
 11
-7.7562465851
 21
7.0030927855
  0
LINE
  5
302
100
AcDbEntity
  8
0
  6
CONTINUOUS
 62
    7
370
   25
100
AcDbLine
 10
-7.7562465851
 20
7.0030927855
 11
-7.7865178851
 21
6.9758479855
  0
LINE
  5
303
100
AcDbEntity
  8
0
  6
CONTINUOUS
 62
    7
370
   25
100
AcDbLine
 10
-7.7865178851
 20
6.9758479855
 11
-7.8155021851
 21
6.9587430855
  0
LINE
  5
304
100
AcDbEntity
  8
0
  6
CONTINUOUS
 62
    7
370
   25
100
AcDbLine
 10
-7.8155021851
 20
6.9587430855
 11
-7.8485381851
 21
6.9459868855
  0
LINE
  5
305
100
AcDbEntity
  8
0
  6
CONTINUOUS
 62
    7
370
   25
100
AcDbLine
 10
-7.8485381851
 20
6.9459868855
 11
-7.8854632851
 21
6.9377561855
  0
LINE
  5
306
100
AcDbEntity
  8
0
  6
CONTINUOUS
 62
    7
370
   25
100
AcDbLine
 10
-7.8854632851
 20
6.9377561855
 11
-7.9260936851
 21
6.9341781855
  0
LINE
  5
307
100
AcDbEntity
  8
0
  6
CONTINUOUS
 62
    7
370
   25
100
AcDbLine
 10
-7.9260936851
 20
6.9341781855
 11
-8.0177417851
 21
6.9416381855
  0
LINE
  5
308
100
AcDbEntity
  8
0
  6
CONTINUOUS
 62
    7
370
   25
100
AcDbLine
 10
-8.0177417851
 20
6.9416381855
 11
-8.1219904851
 21
6.9694910855
  0
LINE
  5
309
100
AcDbEntity
  8
0
  6
CONTINUOUS
 62
    7
370
   25
100
AcDbLine
 10
-8.1219904851
 20
6.9694910855
 11
-8.237255985099999
 21
7.0187834855
  0
LINE
  5
30A
100
AcDbEntity
  8
0
  6
CONTINUOUS
 62
    7
370
   25
100
AcDbLine
 10
-8.237255985099999
 20
7.0187834855
 11
-8.361925985099999
 21
7.0904629855
  0
LINE
  5
30B
100
AcDbEntity
  8
0
  6
CONTINUOUS
 62
    7
370
   25
100
AcDbLine
 10
-8.361925985099999
 20
7.0904629855
 11
-8.4942963851
 21
7.1853566855
  0
LINE
  5
30C
100
AcDbEntity
  8
0
  6
CONTINUOUS
 62
    7
370
   25
100
AcDbLine
 10
-8.4942963851
 20
7.1853566855
 11
-8.633228685100001
 21
7.3011807855
  0
LINE
  5
30D
100
AcDbEntity
  8
0
  6
CONTINUOUS
 62
    7
370
   25
100
AcDbLine
 10
-8.633228685100001
 20
7.3011807855
 11
-8.7258879851
 21
7.3620484855
  0
LINE
  5
30E
100
AcDbEntity
  8
0
  6
CONTINUOUS
 62
    7
370
   25
100
AcDbLine
 10
-8.7258879851
 20
7.3620484855
 11
-8.8934934851
 21
7.4533147855
  0
LINE
  5
30F
100
AcDbEntity
  8
0
  6
CONTINUOUS
 62
    7
370
   25
100
AcDbLine
 10
-8.8934934851
 20
7.4533147855
 11
-9.0055911851
 21
7.5058315855
  0
LINE
  5
310
100
AcDbEntity
  8
0
  6
CONTINUOUS
 62
    7
370
   25
100
AcDbLine
 10
-9.0055911851
 20
7.5058315855
 11
-9.137827185100001
 21
7.5611768855
  0
LINE
  5
311
100
AcDbEntity
  8
0
  6
CONTINUOUS
 62
    7
370
   25
100
AcDbLine
 10
-9.137827185100001
 20
7.5611768855
 11
-9.291870385099999
 21
7.6182332855
  0
LINE
  5
312
100
AcDbEntity
  8
0
  6
CONTINUOUS
 62
    7
370
   25
100
AcDbLine
 10
-9.291870385099999
 20
7.6182332855
 11
-9.465224685100001
 21
7.6743351855
  0
LINE
  5
313
100
AcDbEntity
  8
0
  6
CONTINUOUS
 62
    7
370
   25
100
AcDbLine
 10
-9.465224685100001
 20
7.6743351855
 11
-9.6622953851
 21
7.7291217855
  0
LINE
  5
314
100
AcDbEntity
  8
0
  6
CONTINUOUS
 62
    7
370
   25
100
AcDbLine
 10
-9.6622953851
 20
7.7291217855
 11
-9.8793983851
 21
7.7797718855
  0
LINE
  5
315
100
AcDbEntity
  8
0
  6
CONTINUOUS
 62
    7
370
   25
100
AcDbLine
 10
-9.8793983851
 20
7.7797718855
 11
-10.1188883851
 21
7.8251609855
  0
LINE
  5
316
100
AcDbEntity
  8
0
  6
CONTINUOUS
 62
    7
370
   25
100
AcDbLine
 10
-10.1188883851
 20
7.8251609855
 11
-10.3784106851
 21
7.8631750855
  0
LINE
  5
317
100
AcDbEntity
  8
0
  6
CONTINUOUS
 62
    7
370
   25
100
AcDbLine
 10
-10.3784106851
 20
7.8631750855
 11
-10.6591461851
 21
7.8923644855
  0
LINE
  5
318
100
AcDbEntity
  8
0
  6
CONTINUOUS
 62
    7
370
   25
100
AcDbLine
 10
-10.6591461851
 20
7.8923644855
 11
-10.9399448851
 21
7.9099117855
  0
ARC
  5
319
100
AcDbEntity
  8
0
  6
CONTINUOUS
 62
    7
370
   25
100
AcDbCircle
 10
2.71125e-05
 20
-1.87837e-05
 40
13.49999958955278
100
AcDbArc
 50
144.1319329725
 51
148.3680646879
  0
LINE
  5
31A
100
AcDbEntity
  8
0
  6
CONTINUOUS
 62
    7
370
   25
100
AcDbLine
 10
-11.4943415889
 20
7.0801985205
 11
-11.3706728889
 21
6.8274895205
  0
LINE
  5
31B
100
AcDbEntity
  8
0
  6
CONTINUOUS
 62
    7
370
   25
100
AcDbLine
 10
-11.3706728889
 20
6.8274895205
 11
-11.2362725889
 21
6.5792939205
  0
LINE
  5
31C
100
AcDbEntity
  8
0
  6
CONTINUOUS
 62
    7
370
   25
100
AcDbLine
 10
-11.2362725889
 20
6.5792939205
 11
-11.1018372889
 21
6.3540739205
  0
LINE
  5
31D
100
AcDbEntity
  8
0
  6
CONTINUOUS
 62
    7
370
   25
100
AcDbLine
 10
-11.1018372889
 20
6.3540739205
 11
-10.9682542889
 21
6.1501837205
  0
LINE
  5
31E
100
AcDbEntity
  8
0
  6
CONTINUOUS
 62
    7
370
   25
100
AcDbLine
 10
-10.9682542889
 20
6.1501837205
 11
-10.8383780889
 21
5.9689896205
  0
LINE
  5
31F
100
AcDbEntity
  8
0
  6
CONTINUOUS
 62
    7
370
   25
100
AcDbLine
 10
-10.8383780889
 20
5.9689896205
 11
-10.7123460889
 21
5.8078860205
  0
LINE
  5
320
100
AcDbEntity
  8
0
  6
CONTINUOUS
 62
    7
370
   25
100
AcDbLine
 10
-10.7123460889
 20
5.8078860205
 11
-10.5941749889
 21
5.6691968205
  0
LINE
  5
321
100
AcDbEntity
  8
0
  6
CONTINUOUS
 62
    7
370
   25
100
AcDbLine
 10
-10.5941749889
 20
5.6691968205
 11
-10.4825118889
 21
5.5487140205
  0
LINE
  5
322
100
AcDbEntity
  8
0
  6
CONTINUOUS
 62
    7
370
   25
100
AcDbLine
 10
-10.4825118889
 20
5.5487140205
 11
-10.3807749889
 21
5.4477235205
  0
LINE
  5
323
100
AcDbEntity
  8
0
  6
CONTINUOUS
 62
    7
370
   25
100
AcDbLine
 10
-10.3807749889
 20
5.4477235205
 11
-10.2893578889
 21
5.3642561205
  0
LINE
  5
324
100
AcDbEntity
  8
0
  6
CONTINUOUS
 62
    7
370
   25
100
AcDbLine
 10
-10.2893578889
 20
5.3642561205
 11
-10.1408989889
 21
5.2443349205
  0
LINE
  5
325
100
AcDbEntity
  8
0
  6
CONTINUOUS
 62
    7
370
   25
100
AcDbLine
 10
-10.1408989889
 20
5.2443349205
 11
-10.0492052889
 21
5.1820219205
  0
LINE
  5
326
100
AcDbEntity
  8
0
  6
CONTINUOUS
 62
    7
370
   25
100
AcDbLine
 10
-10.0492052889
 20
5.1820219205
 11
-9.8890306889
 21
5.0979892205
  0
LINE
  5
327
100
AcDbEntity
  8
0
  6
CONTINUOUS
 62
    7
370
   25
100
AcDbLine
 10
-9.8890306889
 20
5.0979892205
 11
-9.750704388899999
 21
5.0120091205
  0
LINE
  5
328
100
AcDbEntity
  8
0
  6
CONTINUOUS
 62
    7
370
   25
100
AcDbLine
 10
-9.750704388899999
 20
5.0120091205
 11
-9.636772088900001
 21
4.9242596205
  0
LINE
  5
329
100
AcDbEntity
  8
0
  6
CONTINUOUS
 62
    7
370
   25
100
AcDbLine
 10
-9.636772088900001
 20
4.9242596205
 11
-9.547121688900001
 21
4.8366316205
  0
LINE
  5
32A
100
AcDbEntity
  8
0
  6
CONTINUOUS
 62
    7
370
   25
100
AcDbLine
 10
-9.547121688900001
 20
4.8366316205
 11
-9.4814946889
 21
4.7509771205
  0
LINE
  5
32B
100
AcDbEntity
  8
0
  6
CONTINUOUS
 62
    7
370
   25
100
AcDbLine
 10
-9.4814946889
 20
4.7509771205
 11
-9.4395302889
 21
4.6691601205
  0
LINE
  5
32C
100
AcDbEntity
  8
0
  6
CONTINUOUS
 62
    7
370
   25
100
AcDbLine
 10
-9.4395302889
 20
4.6691601205
 11
-9.4272873889
 21
4.6302534205
  0
LINE
  5
32D
100
AcDbEntity
  8
0
  6
CONTINUOUS
 62
    7
370
   25
100
AcDbLine
 10
-9.4272873889
 20
4.6302534205
 11
-9.4207608889
 21
4.5929892205
  0
LINE
  5
32E
100
AcDbEntity
  8
0
  6
CONTINUOUS
 62
    7
370
   25
100
AcDbLine
 10
-9.4207608889
 20
4.5929892205
 11
-9.419903788899999
 21
4.5575863205
  0
LINE
  5
32F
100
AcDbEntity
  8
0
  6
CONTINUOUS
 62
    7
370
   25
100
AcDbLine
 10
-9.419903788899999
 20
4.5575863205
 11
-9.4246147889
 21
4.5242626205
  0
LINE
  5
330
100
AcDbEntity
  8
0
  6
CONTINUOUS
 62
    7
370
   25
100
AcDbLine
 10
-9.4246147889
 20
4.5242626205
 11
-9.438201488900001
 21
4.4858694205
  0
LINE
  5
331
100
AcDbEntity
  8
0
  6
CONTINUOUS
 62
    7
370
   25
100
AcDbLine
 10
-9.438201488900001
 20
4.4858694205
 11
-9.6012056889
 21
4.1255292205
  0
LINE
  5
332
100
AcDbEntity
  8
0
  6
CONTINUOUS
 62
    7
370
   25
100
AcDbLine
 10
-9.6012056889
 20
4.1255292205
 11
-9.654540388899999
 21
3.9990412205
  0
LINE
  5
333
100
AcDbEntity
  8
0
  6
CONTINUOUS
 62
    7
370
   25
100
AcDbLine
 10
-9.654540388899999
 20
3.9990412205
 11
-9.706267588899999
 21
3.8718873205
  0
LINE
  5
334
100
AcDbEntity
  8
0
  6
CONTINUOUS
 62
    7
370
   25
100
AcDbLine
 10
-9.706267588899999
 20
3.8718873205
 11
-9.845805288899999
 21
3.5018269205
  0
LINE
  5
335
100
AcDbEntity
  8
0
  6
CONTINUOUS
 62
    7
370
   25
100
AcDbLine
 10
-9.845805288899999
 20
3.5018269205
 11
-9.8633460889
 21
3.4650716205
  0
LINE
  5
336
100
AcDbEntity
  8
0
  6
CONTINUOUS
 62
    7
370
   25
100
AcDbLine
 10
-9.8633460889
 20
3.4650716205
 11
-9.883578288900001
 21
3.4381769205
  0
LINE
  5
337
100
AcDbEntity
  8
0
  6
CONTINUOUS
 62
    7
370
   25
100
AcDbLine
 10
-9.883578288900001
 20
3.4381769205
 11
-9.909218088899999
 21
3.4137494205
  0
LINE
  5
338
100
AcDbEntity
  8
0
  6
CONTINUOUS
 62
    7
370
   25
100
AcDbLine
 10
-9.909218088899999
 20
3.4137494205
 11
-9.9401826889
 21
3.3920146205
  0
LINE
  5
339
100
AcDbEntity
  8
0
  6
CONTINUOUS
 62
    7
370
   25
100
AcDbLine
 10
-9.9401826889
 20
3.3920146205
 11
-9.9763509889
 21
3.3731604205
  0
LINE
  5
33A
100
AcDbEntity
  8
0
  6
CONTINUOUS
 62
    7
370
   25
100
AcDbLine
 10
-9.9763509889
 20
3.3731604205
 11
-10.0638775889
 21
3.3449803205
  0
LINE
  5
33B
100
AcDbEntity
  8
0
  6
CONTINUOUS
 62
    7
370
   25
100
AcDbLine
 10
-10.0638775889
 20
3.3449803205
 11
-10.1708497889
 21
3.3308188205
  0
LINE
  5
33C
100
AcDbEntity
  8
0
  6
CONTINUOUS
 62
    7
370
   25
100
AcDbLine
 10
-10.1708497889
 20
3.3308188205
 11
-10.2962045889
 21
3.3322489205
  0
LINE
  5
33D
100
AcDbEntity
  8
0
  6
CONTINUOUS
 62
    7
370
   25
100
AcDbLine
 10
-10.2962045889
 20
3.3322489205
 11
-10.4388150889
 21
3.3507629205
  0
LINE
  5
33E
100
AcDbEntity
  8
0
  6
CONTINUOUS
 62
    7
370
   25
100
AcDbLine
 10
-10.4388150889
 20
3.3507629205
 11
-10.5974236889
 21
3.3877773205
  0
LINE
  5
33F
100
AcDbEntity
  8
0
  6
CONTINUOUS
 62
    7
370
   25
100
AcDbLine
 10
-10.5974236889
 20
3.3877773205
 11
-10.7701043889
 21
3.4416177205
  0
LINE
  5
340
100
AcDbEntity
  8
0
  6
CONTINUOUS
 62
    7
370
   25
100
AcDbLine
 10
-10.7701043889
 20
3.4416177205
 11
-10.8790034889
 21
3.4623930205
  0
LINE
  5
341
100
AcDbEntity
  8
0
  6
CONTINUOUS
 62
    7
370
   25
100
AcDbLine
 10
-10.8790034889
 20
3.4623930205
 11
-11.0687768889
 21
3.4825722205
  0
LINE
  5
342
100
AcDbEntity
  8
0
  6
CONTINUOUS
 62
    7
370
   25
100
AcDbLine
 10
-11.0687768889
 20
3.4825722205
 11
-11.1924388889
 21
3.4881935205
  0
LINE
  5
343
100
AcDbEntity
  8
0
  6
CONTINUOUS
 62
    7
370
   25
100
AcDbLine
 10
-11.1924388889
 20
3.4881935205
 11
-11.3357887889
 21
3.4887213205
  0
LINE
  5
344
100
AcDbEntity
  8
0
  6
CONTINUOUS
 62
    7
370
   25
100
AcDbLine
 10
-11.3357887889
 20
3.4887213205
 11
-11.4999406889
 21
3.4824848205
  0
LINE
  5
345
100
AcDbEntity
  8
0
  6
CONTINUOUS
 62
    7
370
   25
100
AcDbLine
 10
-11.4999406889
 20
3.4824848205
 11
-11.6815684889
 21
3.4679763205
  0
LINE
  5
346
100
AcDbEntity
  8
0
  6
CONTINUOUS
 62
    7
370
   25
100
AcDbLine
 10
-11.6815684889
 20
3.4679763205
 11
-11.8846038889
 21
3.4431769205
  0
LINE
  5
347
100
AcDbEntity
  8
0
  6
CONTINUOUS
 62
    7
370
   25
100
AcDbLine
 10
-11.8846038889
 20
3.4431769205
 11
-12.1045638889
 21
3.4068897205
  0
LINE
  5
348
100
AcDbEntity
  8
0
  6
CONTINUOUS
 62
    7
370
   25
100
AcDbLine
 10
-12.1045638889
 20
3.4068897205
 11
-12.3431934889
 21
3.3571750205
  0
LINE
  5
349
100
AcDbEntity
  8
0
  6
CONTINUOUS
 62
    7
370
   25
100
AcDbLine
 10
-12.3431934889
 20
3.3571750205
 11
-12.5975081889
 21
3.2929805205
  0
LINE
  5
34A
100
AcDbEntity
  8
0
  6
CONTINUOUS
 62
    7
370
   25
100
AcDbLine
 10
-12.5975081889
 20
3.2929805205
 11
-12.8680442889
 21
3.2125151205
  0
LINE
  5
34B
100
AcDbEntity
  8
0
  6
CONTINUOUS
 62
    7
370
   25
100
AcDbLine
 10
-12.8680442889
 20
3.2125151205
 11
-13.1341835889
 21
3.1212698205
  0
ARC
  5
34C
100
AcDbEntity
  8
0
  6
CONTINUOUS
 62
    7
370
   25
100
AcDbCircle
 10
3.26363e-05
 20
-6.225e-06
 40
13.5
100
AcDbArc
 50
166.6319372122
 51
170.8680694389
  0
LINE
  5
34D
100
AcDbEntity
  8
0
  6
CONTINUOUS
 62
    7
370
   25
100
AcDbLine
 10
-13.3288617889
 20
2.1425561205
 11
-13.1178992889
 21
1.9564093205
  0
LINE
  5
34E
100
AcDbEntity
  8
0
  6
CONTINUOUS
 62
    7
370
   25
100
AcDbLine
 10
-13.1178992889
 20
1.9564093205
 11
-12.8987492889
 21
1.7785393205
  0
LINE
  5
34F
100
AcDbEntity
  8
0
  6
CONTINUOUS
 62
    7
370
   25
100
AcDbLine
 10
-12.8987492889
 20
1.7785393205
 11
-12.6883592889
 21
1.6219093205
  0
LINE
  5
350
100
AcDbEntity
  8
0
  6
CONTINUOUS
 62
    7
370
   25
100
AcDbLine
 10
-12.6883592889
 20
1.6219093205
 11
-12.4869192889
 21
1.4846593205
  0
LINE
  5
351
100
AcDbEntity
  8
0
  6
CONTINUOUS
 62
    7
370
   25
100
AcDbLine
 10
-12.4869192889
 20
1.4846593205
 11
-12.2975892889
 21
1.3669593205
  0
LINE
  5
352
100
AcDbEntity
  8
0
  6
CONTINUOUS
 62
    7
370
   25
100
AcDbLine
 10
-12.2975892889
 20
1.3669593205
 11
-12.1194992889
 21
1.2663493205
  0
LINE
  5
353
100
AcDbEntity
  8
0
  6
CONTINUOUS
 62
    7
370
   25
100
AcDbLine
 10
-12.1194992889
 20
1.2663493205
 11
-11.9572492889
 21
1.1834393205
  0
LINE
  5
354
100
AcDbEntity
  8
0
  6
CONTINUOUS
 62
    7
370
   25
100
AcDbLine
 10
-11.9572492889
 20
1.1834393205
 11
-11.8079792889
 21
1.1148593205
  0
LINE
  5
355
100
AcDbEntity
  8
0
  6
CONTINUOUS
 62
    7
370
   25
100
AcDbLine
 10
-11.8079792889
 20
1.1148593205
 11
-11.6753392889
 21
1.0604893205
  0
LINE
  5
356
100
AcDbEntity
  8
0
  6
CONTINUOUS
 62
    7
370
   25
100
AcDbLine
 10
-11.6753392889
 20
1.0604893205
 11
-11.5589392889
 21
1.0183593205
  0
LINE
  5
357
100
AcDbEntity
  8
0
  6
CONTINUOUS
 62
    7
370
   25
100
AcDbLine
 10
-11.5589392889
 20
1.0183593205
 11
-11.3758892889
 21
0.9643793205
  0
LINE
  5
358
100
AcDbEntity
  8
0
  6
CONTINUOUS
 62
    7
370
   25
100
AcDbLine
 10
-11.3758892889
 20
0.9643793205
 11
-11.2673292889
 21
0.9418993205
  0
LINE
  5
359
100
AcDbEntity
  8
0
  6
CONTINUOUS
 62
    7
370
   25
100
AcDbLine
 10
-11.2673292889
 20
0.9418993205
 11
-11.0871892889
 21
0.9255593205
  0
LINE
  5
35A
100
AcDbEntity
  8
0
  6
CONTINUOUS
 62
    7
370
   25
100
AcDbLine
 10
-11.0871892889
 20
0.9255593205
 11
-10.9264892889
 21
0.8990593205
  0
LINE
  5
35B
100
AcDbEntity
  8
0
  6
CONTINUOUS
 62
    7
370
   25
100
AcDbLine
 10
-10.9264892889
 20
0.8990593205
 11
-10.7876492889
 21
0.8615893205
  0
LINE
  5
35C
100
AcDbEntity
  8
0
  6
CONTINUOUS
 62
    7
370
   25
100
AcDbLine
 10
-10.7876492889
 20
0.8615893205
 11
-10.6712892889
 21
0.8149393205
  0
LINE
  5
35D
100
AcDbEntity
  8
0
  6
CONTINUOUS
 62
    7
370
   25
100
AcDbLine
 10
-10.6712892889
 20
0.8149393205
 11
-10.5778792889
 21
0.7609193205
  0
LINE
  5
35E
100
AcDbEntity
  8
0
  6
CONTINUOUS
 62
    7
370
   25
100
AcDbLine
 10
-10.5778792889
 20
0.7609193205
 11
-10.5077992889
 21
0.7013893205
  0
LINE
  5
35F
100
AcDbEntity
  8
0
  6
CONTINUOUS
 62
    7
370
   25
100
AcDbLine
 10
-10.5077992889
 20
0.7013893205
 11
-10.4815992889
 21
0.6701293205
  0
LINE
  5
360
100
AcDbEntity
  8
0
  6
CONTINUOUS
 62
    7
370
   25
100
AcDbLine
 10
-10.4815992889
 20
0.6701293205
 11
-10.4613092889
 21
0.6381993204999999
  0
LINE
  5
361
100
AcDbEntity
  8
0
  6
CONTINUOUS
 62
    7
370
   25
100
AcDbLine
 10
-10.4613092889
 20
0.6381993204999999
 11
-10.4469692889
 21
0.6058193205
  0
LINE
  5
362
100
AcDbEntity
  8
0
  6
CONTINUOUS
 62
    7
370
   25
100
AcDbLine
 10
-10.4469692889
 20
0.6058193205
 11
-10.4385692889
 21
0.5732293205
  0
LINE
  5
363
100
AcDbEntity
  8
0
  6
CONTINUOUS
 62
    7
370
   25
100
AcDbLine
 10
-10.4385692889
 20
0.5732293205
 11
-10.4364292889
 21
0.5325593205
  0
LINE
  5
364
100
AcDbEntity
  8
0
  6
CONTINUOUS
 62
    7
370
   25
100
AcDbLine
 10
-10.4364292889
 20
0.5325593205
 11
-10.4491292889
 21
0.1372693205
  0
LINE
  5
365
100
AcDbEntity
  8
0
  6
CONTINUOUS
 62
    7
370
   25
100
AcDbLine
 10
-10.4491292889
 20
0.1372693205
 11
-10.4499992889
 21
-6.795e-07
  0
LINE
  5
366
100
AcDbEntity
  8
0
  6
CONTINUOUS
 62
    7
370
   25
100
AcDbLine
 10
-10.4499992889
 20
-6.795e-07
 11
-10.4491292889
 21
-0.1372706795
  0
LINE
  5
367
100
AcDbEntity
  8
0
  6
CONTINUOUS
 62
    7
370
   25
100
AcDbLine
 10
-10.4491292889
 20
-0.1372706795
 11
-10.4364292889
 21
-0.5325606795
  0
LINE
  5
368
100
AcDbEntity
  8
0
  6
CONTINUOUS
 62
    7
370
   25
100
AcDbLine
 10
-10.4364292889
 20
-0.5325606795
 11
-10.4385692889
 21
-0.5732306795
  0
LINE
  5
369
100
AcDbEntity
  8
0
  6
CONTINUOUS
 62
    7
370
   25
100
AcDbLine
 10
-10.4385692889
 20
-0.5732306795
 11
-10.4469692889
 21
-0.6058206795
  0
LINE
  5
36A
100
AcDbEntity
  8
0
  6
CONTINUOUS
 62
    7
370
   25
100
AcDbLine
 10
-10.4469692889
 20
-0.6058206795
 11
-10.4613092889
 21
-0.6382006795
  0
LINE
  5
36B
100
AcDbEntity
  8
0
  6
CONTINUOUS
 62
    7
370
   25
100
AcDbLine
 10
-10.4613092889
 20
-0.6382006795
 11
-10.4815992889
 21
-0.6701306795
  0
LINE
  5
36C
100
AcDbEntity
  8
0
  6
CONTINUOUS
 62
    7
370
   25
100
AcDbLine
 10
-10.4815992889
 20
-0.6701306795
 11
-10.5077992889
 21
-0.7013906795
  0
LINE
  5
36D
100
AcDbEntity
  8
0
  6
CONTINUOUS
 62
    7
370
   25
100
AcDbLine
 10
-10.5077992889
 20
-0.7013906795
 11
-10.5778792889
 21
-0.7609206795
  0
LINE
  5
36E
100
AcDbEntity
  8
0
  6
CONTINUOUS
 62
    7
370
   25
100
AcDbLine
 10
-10.5778792889
 20
-0.7609206795
 11
-10.6712892889
 21
-0.8149406795
  0
LINE
  5
36F
100
AcDbEntity
  8
0
  6
CONTINUOUS
 62
    7
370
   25
100
AcDbLine
 10
-10.6712892889
 20
-0.8149406795
 11
-10.7876492889
 21
-0.8615906795
  0
LINE
  5
370
100
AcDbEntity
  8
0
  6
CONTINUOUS
 62
    7
370
   25
100
AcDbLine
 10
-10.7876492889
 20
-0.8615906795
 11
-10.9264892889
 21
-0.8990606795
  0
LINE
  5
371
100
AcDbEntity
  8
0
  6
CONTINUOUS
 62
    7
370
   25
100
AcDbLine
 10
-10.9264892889
 20
-0.8990606795
 11
-11.0871892889
 21
-0.9255606795
  0
LINE
  5
372
100
AcDbEntity
  8
0
  6
CONTINUOUS
 62
    7
370
   25
100
AcDbLine
 10
-11.0871892889
 20
-0.9255606795
 11
-11.2673292889
 21
-0.9419006795
  0
LINE
  5
373
100
AcDbEntity
  8
0
  6
CONTINUOUS
 62
    7
370
   25
100
AcDbLine
 10
-11.2673292889
 20
-0.9419006795
 11
-11.3758892889
 21
-0.9643806794999999
  0
LINE
  5
374
100
AcDbEntity
  8
0
  6
CONTINUOUS
 62
    7
370
   25
100
AcDbLine
 10
-11.3758892889
 20
-0.9643806794999999
 11
-11.5589392889
 21
-1.0183606795
  0
LINE
  5
375
100
AcDbEntity
  8
0
  6
CONTINUOUS
 62
    7
370
   25
100
AcDbLine
 10
-11.5589392889
 20
-1.0183606795
 11
-11.6753392889
 21
-1.0604906795
  0
LINE
  5
376
100
AcDbEntity
  8
0
  6
CONTINUOUS
 62
    7
370
   25
100
AcDbLine
 10
-11.6753392889
 20
-1.0604906795
 11
-11.8079792889
 21
-1.1148606795
  0
LINE
  5
377
100
AcDbEntity
  8
0
  6
CONTINUOUS
 62
    7
370
   25
100
AcDbLine
 10
-11.8079792889
 20
-1.1148606795
 11
-11.9572492889
 21
-1.1834406795
  0
LINE
  5
378
100
AcDbEntity
  8
0
  6
CONTINUOUS
 62
    7
370
   25
100
AcDbLine
 10
-11.9572492889
 20
-1.1834406795
 11
-12.1194992889
 21
-1.2663506795
  0
LINE
  5
379
100
AcDbEntity
  8
0
  6
CONTINUOUS
 62
    7
370
   25
100
AcDbLine
 10
-12.1194992889
 20
-1.2663506795
 11
-12.2975892889
 21
-1.3669606795
  0
LINE
  5
37A
100
AcDbEntity
  8
0
  6
CONTINUOUS
 62
    7
370
   25
100
AcDbLine
 10
-12.2975892889
 20
-1.3669606795
 11
-12.4869192889
 21
-1.4846606795
  0
LINE
  5
37B
100
AcDbEntity
  8
0
  6
CONTINUOUS
 62
    7
370
   25
100
AcDbLine
 10
-12.4869192889
 20
-1.4846606795
 11
-12.6883592889
 21
-1.6219106795
  0
LINE
  5
37C
100
AcDbEntity
  8
0
  6
CONTINUOUS
 62
    7
370
   25
100
AcDbLine
 10
-12.6883592889
 20
-1.6219106795
 11
-12.8987492889
 21
-1.7785406795
  0
LINE
  5
37D
100
AcDbEntity
  8
0
  6
CONTINUOUS
 62
    7
370
   25
100
AcDbLine
 10
-12.8987492889
 20
-1.7785406795
 11
-13.1178992889
 21
-1.9564106795
  0
LINE
  5
37E
100
AcDbEntity
  8
0
  6
CONTINUOUS
 62
    7
370
   25
100
AcDbLine
 10
-13.1178992889
 20
-1.9564106795
 11
-13.3288617889
 21
-2.1425574795
  0
CIRCLE
  5
37F
100
AcDbEntity
  8
0
  6
CONTINUOUS
 62
    7
370
   25
100
AcDbCircle
 10
-3.12068e-05
 20
7.0000060254
 40
1.55
  0
CIRCLE
  5
380
100
AcDbEntity
  8
0
  6
CONTINUOUS
 62
    7
370
   25
100
AcDbCircle
 10
-6.507e-06
 20
-6.9999812006
 40
1.55
  0
CIRCLE
  5
381
100
AcDbEntity
  8
0
  6
CONTINUOUS
 62
    7
370
   25
100
AcDbCircle
 10
-3.12068e-05
 20
6.0254e-06
 40
2.55
  0
ENDSEC
  0
SECTION
  2
OBJECTS
  0
DICTIONARY
  5
C
330
0
100
AcDbDictionary
281
    1
  3
ACAD_GROUP
350
D
  0
DICTIONARY
  5
D
330
C
100
AcDbDictionary
281
    1
  0
PLOTSETTINGS
  5
382
100
AcDbPlotSettings
  6
1x1
 40
0
 41
0
 42
0
 43
0
  0
ENDSEC
  0
EOF
