999
dxfrw 0.6.3
  0
SECTION
  2
HEADER
  9
$ACADVER
  1
AC1021
  9
$DWGCODEPAGE
  3
ANSI_1250
  9
$INSBASE
 10
0
 20
0
 30
0
  9
$EXTMIN
 10
10.74736499997413
 20
-24.96745805836689
 30
0
  9
$EXTMAX
 10
122.5938025851109
 20
10.25263500002587
 30
0
  9
$LIMMIN
 10
0
 20
0
  9
$LIMMAX
 10
420
 20
297
  9
$ORTHOMODE
 70
    0
  9
$REGENMODE
 70
    1
  9
$FILLMODE
 70
    1
  9
$QTEXTMODE
 70
    0
  9
$MIRRTEXT
 70
    1
  9
$LTSCALE
 40
1
  9
$ATTMODE
 70
    1
  9
$TEXTSIZE
 40
3.5
  9
$TRACEWID
 40
1
  9
$TEXTSTYLE
  7
Standard
  9
$CLAYER
  8
0
  9
$CELTYPE
  6
ByLayer
  9
$CECOLOR
 62
  256
  9
$CELTSCALE
 40
1
  9
$DISPSILH
 70
    0
  9
$DIMSCALE
 40
1
  9
$DIMASZ
 40
3.302
  9
$DIMEXO
 40
0
  9
$DIMDLI
 40
3.75
  9
$DIMRND
 40
0
  9
$DIMDLE
 40
0
  9
$DIMEXE
 40
1
  9
$DIMTP
 40
0
  9
$DIMTM
 40
0
  9
$DIMTXT
 40
3.5
  9
$DIMCEN
 40
2.5
  9
$DIMTSZ
 40
0
  9
$DIMTOL
 70
    0
  9
$DIMLIM
 70
    0
  9
$DIMTIH
 70
    1
  9
$DIMTOH
 70
    1
  9
$DIMSE1
 70
    0
  9
$DIMSE2
 70
    0
  9
$DIMTAD
 70
    1
  9
$DIMZIN
 70
    1
  9
$DIMBLK
  1

  9
$DIMASO
 70
    1
  9
$DIMSHO
 70
    1
  9
$DIMPOST
  1

  9
$DIMAPOST
  1

  9
$DIMALT
 70
    0
  9
$DIMALTD
 70
    3
  9
$DIMALTF
 40
0.0393700787
  9
$DIMLFAC
 40
1
  9
$DIMTOFL
 70
    1
  9
$DIMTVP
 40
0
  9
$DIMTIX
 70
    0
  9
$DIMSOXD
 70
    0
  9
$DIMSAH
 70
    0
  9
$DIMBLK1
  1

  9
$DIMBLK2
  1

  9
$DIMSTYLE
  2
ISO-25
  9
$DIMCLRD
 70
    0
  9
$DIMCLRE
 70
    0
  9
$DIMCLRT
 70
    0
  9
$DIMTFAC
 40
1
  9
$DIMGAP
 40
1.524
  9
$DIMJUST
 70
    0
  9
$DIMSD1
 70
    0
  9
$DIMSD2
 70
    0
  9
$DIMTOLJ
 70
    0
  9
$DIMTZIN
 70
    1
  9
$DIMALTZ
 70
    0
  9
$DIMALTTZ
 70
    0
  9
$DIMUPT
 70
    0
  9
$DIMDEC
 70
    2
  9
$DIMTDEC
 70
    2
  9
$DIMALTU
 70
    2
  9
$DIMALTTD
 70
    3
  9
$DIMTXSTY
  7
Standard
  9
$DIMAUNIT
 70
    0
  9
$DIMADEC
 70
    0
  9
$DIMALTRND
 40
0
  9
$DIMAZIN
 70
    0
  9
$DIMDSEP
 70
   44
  9
$DIMATFIT
 70
    3
  9
$DIMFRAC
 70
    0
  9
$DIMLDRBLK
  1

  9
$DIMLUNIT
 70
    2
  9
$DIMLWD
 70
   -2
  9
$DIMLWE
 70
   -2
  9
$DIMTMOVE
 70
    0
  9
$DIMFXL
 40
1
  9
$DIMFXLON
 70
    0
  9
$DIMJOGANG
 40
0.7854
  9
$DIMTFILL
 70
    0
  9
$DIMTFILLCLR
 70
    0
  9
$DIMARCSYM
 70
    0
  9
$DIMLTYPE
  6

  9
$DIMLTEX1
  6

  9
$DIMLTEX2
  6

  9
$LUNITS
 70
    2
  9
$LUPREC
 70
    2
  9
$SKETCHINC
 40
1
  9
$FILLETRAD
 40
0
  9
$AUNITS
 70
    0
  9
$AUPREC
 70
    2
  9
$MENU
  1
.
  9
$ELEVATION
 40
0
  9
$PELEVATION
 40
0
  9
$THICKNESS
 40
0
  9
$LIMCHECK
 70
    0
  9
$CHAMFERA
 40
0
  9
$CHAMFERB
 40
0
  9
$CHAMFERC
 40
0
  9
$CHAMFERD
 40
0
  9
$SKPOLY
 70
    0
  9
$USRTIMER
 70
    1
  9
$ANGBASE
 50
0
  9
$ANGDIR
 70
    0
  9
$PDMODE
 70
    0
  9
$PDSIZE
 40
-1
  9
$PLINEWID
 40
0
  9
$SPLFRAME
 70
    0
  9
$SPLINETYPE
 70
    6
  9
$SPLINESEGS
 70
    8
  9
$HANDSEED
  5
20000
  9
$SURFTAB1
 70
    6
  9
$SURFTAB2
 70
    6
  9
$SURFTYPE
 70
    6
  9
$SURFU
 70
    6
  9
$SURFV
 70
    6
  9
$UCSBASE
  2

  9
$UCSNAME
  2

  9
$UCSORG
 10
0
 20
0
 30
0
  9
$UCSXDIR
 10
1
 20
0
 30
0
  9
$UCSYDIR
 10
0
 20
1
 30
0
  9
$UCSORTHOREF
  2

  9
$UCSORTHOVIEW
 70
    0
  9
$UCSORGTOP
 10
0
 20
0
 30
0
  9
$UCSORGBOTTOM
 10
0
 20
0
 30
0
  9
$UCSORGLEFT
 10
0
 20
0
 30
0
  9
$UCSORGRIGHT
 10
0
 20
0
 30
0
  9
$UCSORGFRONT
 10
0
 20
0
 30
0
  9
$UCSORGBACK
 10
0
 20
0
 30
0
  9
$PUCSBASE
  2

  9
$PUCSNAME
  2

  9
$PUCSORG
 10
0
 20
0
 30
0
  9
$PUCSXDIR
 10
1
 20
0
 30
0
  9
$PUCSYDIR
 10
0
 20
1
 30
0
  9
$PUCSORTHOREF
  2

  9
$PUCSORTHOVIEW
 70
    0
  9
$PUCSORGTOP
 10
0
 20
0
 30
0
  9
$PUCSORGBOTTOM
 10
0
 20
0
 30
0
  9
$PUCSORGLEFT
 10
0
 20
0
 30
0
  9
$PUCSORGRIGHT
 10
0
 20
0
 30
0
  9
$PUCSORGFRONT
 10
0
 20
0
 30
0
  9
$PUCSORGBACK
 10
0
 20
0
 30
0
  9
$USERI1
 70
    0
  9
$USERI2
 70
    0
  9
$USERI3
 70
    0
  9
$USERI4
 70
    0
  9
$USERI5
 70
    0
  9
$USERR1
 40
0
  9
$USERR2
 40
0
  9
$USERR3
 40
0
  9
$USERR4
 40
0
  9
$USERR5
 40
0
  9
$WORLDVIEW
 70
    1
  9
$SHADEDGE
 70
    3
  9
$SHADEDIF
 70
   70
  9
$TILEMODE
 70
    1
  9
$MAXACTVP
 70
   64
  9
$PINSBASE
 10
0
 20
0
 30
0
  9
$PLIMCHECK
 70
    0
  9
$PEXTMIN
 10
1e+20
 20
1e+20
 30
1e+20
  9
$PEXTMAX
 10
-1e+20
 20
-1e+20
 30
-1e+20
  9
$GRIDMODE
 70
    0
  9
$SNAPSTYLE
 70
    0
  9
$PLIMMIN
 10
0
 20
0
  9
$PLIMMAX
 10
420
 20
297
  9
$UNITMODE
 70
    0
  9
$VISRETAIN
 70
    1
  9
$PLINEGEN
 70
    0
  9
$PSLTSCALE
 70
    1
  9
$TREEDEPTH
 70
 3020
  9
$CMLSTYLE
  2
Standard
  9
$CMLJUST
 70
    0
  9
$CMLSCALE
 40
20
  9
$PROXYGRAPHICS
 70
    1
  9
$MEASUREMENT
 70
    1
  9
$CELWEIGHT
370
   -1
  9
$ENDCAPS
280
    0
  9
$JOINSTYLE
280
    0
  9
$LWDISPLAY
290
    1
  9
$INSUNITS
 70
    4
  9
$HYPERLINKBASE
  1

  9
$STYLESHEET
  1

  9
$XEDIT
290
    1
  9
$CEPSNTYPE
380
    0
  9
$PSTYLEMODE
290
    1
  9
$EXTNAMES
290
    1
  9
$PSVPSCALE
 40
0
  9
$OLESTARTUP
290
    0
  9
$SORTENTS
280
  127
  9
$INDEXCTL
280
    0
  9
$HIDETEXT
280
    1
  9
$XCLIPFRAME
290
    0
  9
$HALOGAP
280
    0
  9
$OBSCOLOR
 70
  257
  9
$OBSLTYPE
280
    0
  9
$INTERSECTIONDISPLAY
280
    0
  9
$INTERSECTIONCOLOR
 70
  257
  9
$DIMASSOC
280
    1
  9
$PROJECTNAME
  1

  9
$CAMERADISPLAY
290
    0
  9
$LENSLENGTH
 40
50
  9
$CAMERAHEIGHT
 40
0
  9
$STEPSPERSEC
 40
2
  9
$STEPSIZE
 40
50
  9
$3DDWFPREC
 40
2
  9
$PSOLWIDTH
 40
5
  9
$PSOLHEIGHT
 40
80
  9
$LOFTANG1
 40
1.570796326794897
  9
$LOFTANG2
 40
1.570796326794897
  9
$LOFTMAG1
 40
0
  9
$LOFTMAG2
 40
0
  9
$LOFTPARAM
 70
    7
  9
$LOFTNORMALS
280
    1
  9
$LATITUDE
 40
1
  9
$LONGITUDE
 40
1
  9
$NORTHDIRECTION
 40
0
  9
$TIMEZONE
 70
-8000
  9
$LIGHTGLYPHDISPLAY
280
    1
  9
$TILEMODELIGHTSYNCH
280
    1
  9
$SOLIDHIST
280
    1
  9
$SHOWHIST
280
    1
  9
$DWFFRAME
280
    2
  9
$DGNFRAME
280
    0
  9
$REALWORLDSCALE
290
    1
  9
$INTERFERECOLOR
 62
    1
  9
$CSHADOW
280
    0
  9
$SHADOWPLANELOCATION
 40
0
  0
ENDSEC
  0
SECTION
  2
CLASSES
  0
ENDSEC
  0
SECTION
  2
TABLES
  0
TABLE
  2
VPORT
  5
8
330
0
100
AcDbSymbolTable
 70
    1
  0
VPORT
  5
31
330
2
100
AcDbSymbolTableRecord
100
AcDbViewportTableRecord
  2
*ACTIVE
 70
    0
 10
0
 20
0
 11
1
 21
1
 12
41.24932964019336
 22
14.80465358338509
 13
0
 23
0
 14
10
 24
10
 15
10
 25
10
 16
0
 26
0
 36
1
 17
0
 27
0
 37
0
 40
58.41836278849253
 41
1.831880448318804
 42
50
 43
0
 44
0
 50
0
 51
0
 71
    0
 72
  100
 73
    1
 74
    3
 75
    0
 76
    0
 77
    0
 78
    0
281
    0
 65
    1
110
0
120
0
130
0
111
1
121
0
131
0
112
0
122
1
132
0
 79
    0
146
0
348
10020
 60
    7
 61
    5
292
1
282
    1
141
0
142
0
 63
  250
421
3358443
  0
ENDTAB
  0
TABLE
  2
LTYPE
  5
5
330
0
100
AcDbSymbolTable
 70
    4
  0
LTYPE
  5
14
330
5
100
AcDbSymbolTableRecord
100
AcDbLinetypeTableRecord
  2
ByBlock
 70
    0
  3

 72
   65
 73
    0
 40
0
  0
LTYPE
  5
15
330
5
100
AcDbSymbolTableRecord
100
AcDbLinetypeTableRecord
  2
ByLayer
 70
    0
  3

 72
   65
 73
    0
 40
0
  0
LTYPE
  5
16
330
5
100
AcDbSymbolTableRecord
100
AcDbLinetypeTableRecord
  2
Continuous
 70
    0
  3
Solid line
 72
   65
 73
    0
 40
0
  0
LTYPE
  5
32
330
5
100
AcDbSymbolTableRecord
100
AcDbLinetypeTableRecord
  2
DOT
 70
    0
  3
Dot . . . . . . . . . . . . . . . . . . . . . .
 72
   65
 73
    2
 40
6.35
 49
0
 74
    0
 49
-6.35
 74
    0
  0
LTYPE
  5
33
330
5
100
AcDbSymbolTableRecord
100
AcDbLinetypeTableRecord
  2
DOTTINY
 70
    0
  3
Dot (.15x) .....................................
 72
   65
 73
    2
 40
0.9525
 49
0
 74
    0
 49
-0.9525
 74
    0
  0
LTYPE
  5
34
330
5
100
AcDbSymbolTableRecord
100
AcDbLinetypeTableRecord
  2
DOT2
 70
    0
  3
Dot (.5x) .....................................
 72
   65
 73
    2
 40
3.175
 49
0
 74
    0
 49
-3.175
 74
    0
  0
LTYPE
  5
35
330
5
100
AcDbSymbolTableRecord
100
AcDbLinetypeTableRecord
  2
DOTX2
 70
    0
  3
Dot (2x) .  .  .  .  .  .  .  .  .  .  .  .  .
 72
   65
 73
    2
 40
12.7
 49
0
 74
    0
 49
-12.7
 74
    0
  0
LTYPE
  5
36
330
5
100
AcDbSymbolTableRecord
100
AcDbLinetypeTableRecord
  2
DASHED
 70
    0
  3
Dashed _ _ _ _ _ _ _ _ _ _ _ _ _ _ _ _ _
 72
   65
 73
    2
 40
19.05
 49
12.7
 74
    0
 49
-6.35
 74
    0
  0
LTYPE
  5
37
330
5
100
AcDbSymbolTableRecord
100
AcDbLinetypeTableRecord
  2
DASHEDTINY
 70
    0
  3
Dashed (.15x) _ _ _ _ _ _ _ _ _ _ _ _ _ _ _ _ _
 72
   65
 73
    2
 40
2.8575
 49
1.905
 74
    0
 49
-0.9525
 74
    0
  0
LTYPE
  5
38
330
5
100
AcDbSymbolTableRecord
100
AcDbLinetypeTableRecord
  2
DASHED2
 70
    0
  3
Dashed (.5x) _ _ _ _ _ _ _ _ _ _ _ _ _ _ _ _ _
 72
   65
 73
    2
 40
9.524999999999999
 49
6.35
 74
    0
 49
-3.175
 74
    0
  0
LTYPE
  5
39
330
5
100
AcDbSymbolTableRecord
100
AcDbLinetypeTableRecord
  2
DASHEDX2
 70
    0
  3
Dashed (2x) ____  ____  ____  ____  ____  ___
 72
   65
 73
    2
 40
38.09999999999999
 49
25.4
 74
    0
 49
-12.7
 74
    0
  0
LTYPE
  5
3A
330
5
100
AcDbSymbolTableRecord
100
AcDbLinetypeTableRecord
  2
DASHDOT
 70
    0
  3
Dash dot __ . __ . __ . __ . __ . __ . __ . __
 72
   65
 73
    4
 40
25.4
 49
12.7
 74
    0
 49
-6.35
 74
    0
 49
0
 74
    0
 49
-6.35
 74
    0
  0
LTYPE
  5
3B
330
5
100
AcDbSymbolTableRecord
100
AcDbLinetypeTableRecord
  2
DASHDOTTINY
 70
    0
  3
Dash dot (.15x) _._._._._._._._._._._._._._._.
 72
   65
 73
    4
 40
3.81
 49
1.905
 74
    0
 49
-0.9525
 74
    0
 49
0
 74
    0
 49
-0.9525
 74
    0
  0
LTYPE
  5
3C
330
5
100
AcDbSymbolTableRecord
100
AcDbLinetypeTableRecord
  2
DASHDOT2
 70
    0
  3
Dash dot (.5x) _._._._._._._._._._._._._._._.
 72
   65
 73
    4
 40
12.7
 49
6.35
 74
    0
 49
-3.175
 74
    0
 49
0
 74
    0
 49
-3.175
 74
    0
  0
LTYPE
  5
3D
330
5
100
AcDbSymbolTableRecord
100
AcDbLinetypeTableRecord
  2
DASHDOTX2
 70
    0
  3
Dash dot (2x) ____  .  ____  .  ____  .  ___
 72
   65
 73
    4
 40
50.8
 49
25.4
 74
    0
 49
-12.7
 74
    0
 49
0
 74
    0
 49
-12.7
 74
    0
  0
LTYPE
  5
3E
330
5
100
AcDbSymbolTableRecord
100
AcDbLinetypeTableRecord
  2
DIVIDE
 70
    0
  3
Divide ____ . . ____ . . ____ . . ____ . . ____
 72
   65
 73
    6
 40
31.75
 49
12.7
 74
    0
 49
-6.35
 74
    0
 49
0
 74
    0
 49
-6.35
 74
    0
 49
0
 74
    0
 49
-6.35
 74
    0
  0
LTYPE
  5
3F
330
5
100
AcDbSymbolTableRecord
100
AcDbLinetypeTableRecord
  2
DIVIDETINY
 70
    0
  3
Divide (.15x) __..__..__..__..__..__..__..__.._
 72
   65
 73
    6
 40
4.7625
 49
1.905
 74
    0
 49
-0.9525
 74
    0
 49
0
 74
    0
 49
-0.9525
 74
    0
 49
0
 74
    0
 49
-0.9525
 74
    0
  0
LTYPE
  5
40
330
5
100
AcDbSymbolTableRecord
100
AcDbLinetypeTableRecord
  2
DIVIDE2
 70
    0
  3
Divide (.5x) __..__..__..__..__..__..__..__.._
 72
   65
 73
    6
 40
15.875
 49
6.35
 74
    0
 49
-3.175
 74
    0
 49
0
 74
    0
 49
-3.175
 74
    0
 49
0
 74
    0
 49
-3.175
 74
    0
  0
LTYPE
  5
41
330
5
100
AcDbSymbolTableRecord
100
AcDbLinetypeTableRecord
  2
DIVIDEX2
 70
    0
  3
Divide (2x) ________  .  .  ________  .  .  _
 72
   65
 73
    6
 40
63.5
 49
25.4
 74
    0
 49
-12.7
 74
    0
 49
0
 74
    0
 49
-12.7
 74
    0
 49
0
 74
    0
 49
-12.7
 74
    0
  0
LTYPE
  5
42
330
5
100
AcDbSymbolTableRecord
100
AcDbLinetypeTableRecord
  2
BORDER
 70
    0
  3
Border __ __ . __ __ . __ __ . __ __ . __ __ .
 72
   65
 73
    6
 40
44.45
 49
12.7
 74
    0
 49
-6.35
 74
    0
 49
12.7
 74
    0
 49
-6.35
 74
    0
 49
0
 74
    0
 49
-6.35
 74
    0
  0
LTYPE
  5
43
330
5
100
AcDbSymbolTableRecord
100
AcDbLinetypeTableRecord
  2
BORDERTINY
 70
    0
  3
Border (.15x) __.__.__.__.__.__.__.__.__.__.__.
 72
   65
 73
    6
 40
6.6675
 49
1.905
 74
    0
 49
-0.9525
 74
    0
 49
1.905
 74
    0
 49
-0.9525
 74
    0
 49
0
 74
    0
 49
-0.9525
 74
    0
  0
LTYPE
  5
44
330
5
100
AcDbSymbolTableRecord
100
AcDbLinetypeTableRecord
  2
BORDER2
 70
    0
  3
Border (.5x) __.__.__.__.__.__.__.__.__.__.__.
 72
   65
 73
    6
 40
22.225
 49
6.35
 74
    0
 49
-3.175
 74
    0
 49
6.35
 74
    0
 49
-3.175
 74
    0
 49
0
 74
    0
 49
-3.175
 74
    0
  0
LTYPE
  5
45
330
5
100
AcDbSymbolTableRecord
100
AcDbLinetypeTableRecord
  2
BORDERX2
 70
    0
  3
Border (2x) ____  ____  .  ____  ____  .  ___
 72
   65
 73
    6
 40
88.89999999999999
 49
25.4
 74
    0
 49
-12.7
 74
    0
 49
25.4
 74
    0
 49
-12.7
 74
    0
 49
0
 74
    0
 49
-12.7
 74
    0
  0
LTYPE
  5
46
330
5
100
AcDbSymbolTableRecord
100
AcDbLinetypeTableRecord
  2
CENTER
 70
    0
  3
Center ____ _ ____ _ ____ _ ____ _ ____ _ ____
 72
   65
 73
    4
 40
50.8
 49
31.75
 74
    0
 49
-6.35
 74
    0
 49
6.35
 74
    0
 49
-6.35
 74
    0
  0
LTYPE
  5
47
330
5
100
AcDbSymbolTableRecord
100
AcDbLinetypeTableRecord
  2
CENTERTINY
 70
    0
  3
Center (.15x) ___ _ ___ _ ___ _ ___ _ ___ _ ___
 72
   65
 73
    4
 40
7.62
 49
4.7625
 74
    0
 49
-0.9525
 74
    0
 49
0.9525
 74
    0
 49
-0.9525
 74
    0
  0
LTYPE
  5
48
330
5
100
AcDbSymbolTableRecord
100
AcDbLinetypeTableRecord
  2
CENTER2
 70
    0
  3
Center (.5x) ___ _ ___ _ ___ _ ___ _ ___ _ ___
 72
   65
 73
    4
 40
28.575
 49
19.05
 74
    0
 49
-3.175
 74
    0
 49
3.175
 74
    0
 49
-3.175
 74
    0
  0
LTYPE
  5
49
330
5
100
AcDbSymbolTableRecord
100
AcDbLinetypeTableRecord
  2
CENTERX2
 70
    0
  3
Center (2x) ________  __  ________  __  _____
 72
   65
 73
    4
 40
101.6
 49
63.5
 74
    0
 49
-12.7
 74
    0
 49
12.7
 74
    0
 49
-12.7
 74
    0
  0
ENDTAB
  0
TABLE
  2
LAYER
  5
2
330
0
100
AcDbSymbolTable
 70
    1
  0
LAYER
  5
10
330
2
100
AcDbSymbolTableRecord
100
AcDbLayerTableRecord
  2
0
 70
    0
 62
    7
  6
CONTINUOUS
370
   -3
390
F
  0
ENDTAB
  0
TABLE
  2
STYLE
  5
3
330
0
100
AcDbSymbolTable
 70
    3
  0
STYLE
  5
4A
330
2
100
AcDbSymbolTableRecord
100
AcDbTextStyleTableRecord
  2
Standard
 70
    0
 40
0
 41
1
 50
0
 71
    0
 42
1
  3
txt
  4

  0
ENDTAB
  0
TABLE
  2
VIEW
  5
6
330
0
100
AcDbSymbolTable
 70
    0
  0
ENDTAB
  0
TABLE
  2
UCS
  5
7
330
0
100
AcDbSymbolTable
 70
    0
  0
ENDTAB
  0
TABLE
  2
APPID
  5
9
330
0
100
AcDbSymbolTable
 70
    1
  0
APPID
  5
12
330
9
100
AcDbSymbolTableRecord
100
AcDbRegAppTableRecord
  2
ACAD
 70
    0
  0
APPID
  5
4B
330
9
100
AcDbSymbolTableRecord
100
AcDbRegAppTableRecord
  2
LibreCad
 70
    0
  0
ENDTAB
  0
TABLE
  2
DIMSTYLE
  5
A
330
0
100
AcDbSymbolTable
 70
    1
100
AcDbDimStyleTable
 71
    1
  0
DIMSTYLE
105
4C
330
A
100
AcDbSymbolTableRecord
100
AcDbDimStyleTableRecord
  2
Standard
 70
    0
 40
1
 41
3.302
 42
0
 43
0.38
 44
1
 45
0
 46
0
 47
0
 48
0
 49
1
140
3.5
141
0.09
142
0
143
25.4
144
1
145
0
146
1
147
1.524
148
0
 71
    0
 72
    0
 73
    1
 74
    1
 75
    0
 76
    0
 77
    0
 78
    1
 79
    0
170
    0
171
    2
172
    0
173
    0
174
    0
175
    0
176
    0
177
    0
178
    0
179
    0
271
    2
272
    4
273
    2
274
    2
275
    0
276
    0
277
    2
278
   44
279
    0
280
    0
281
    0
282
    0
283
    1
284
    0
285
    0
286
    0
288
    0
289
    3
340
4A
  0
ENDTAB
  0
TABLE
  2
BLOCK_RECORD
  5
1
330
0
100
AcDbSymbolTable
 70
    2
  0
BLOCK_RECORD
  5
1F
330
1
100
AcDbSymbolTableRecord
100
AcDbBlockTableRecord
  2
*Model_Space
 70
    0
280
    1
281
    0
  0
BLOCK_RECORD
  5
1E
330
1
100
AcDbSymbolTableRecord
100
AcDbBlockTableRecord
  2
*Paper_Space
 70
    0
280
    1
281
    0
  0
ENDTAB
  0
ENDSEC
  0
SECTION
  2
BLOCKS
  0
BLOCK
  5
20
330
1F
100
AcDbEntity
  8
0
100
AcDbBlockBegin
  2
*Model_Space
 70
    0
 10
0
 20
0
 30
0
  3
*Model_Space
  1

  0
ENDBLK
  5
21
330
1F
100
AcDbEntity
  8
0
100
AcDbBlockEnd
  0
BLOCK
  5
1C
330
1B
100
AcDbEntity
  8
0
100
AcDbBlockBegin
  2
*Paper_Space
 70
    0
 10
0
 20
0
 30
0
  3
*Paper_Space
  1

  0
ENDBLK
  5
1D
330
1F
100
AcDbEntity
  8
0
100
AcDbBlockEnd
  0
ENDSEC
  0
SECTION
  2
ENTITIES
  0
ARC
  5
4D
100
AcDbEntity
  8
0
  6
CONTINUOUS
 62
    7
370
   25
100
AcDbCircle
 10
21.0000457301
 20
1.24045e-05
 40
10.5
100
AcDbArc
 50
192.4602891138
 51
197.5397125396
  0
LINE
  5
4E
100
AcDbEntity
  8
0
  6
CONTINUOUS
 62
    7
370
   25
100
AcDbLine
 10
10.9882086
 20
-3.1643386
 11
11.2144635
 21
-3.2367737
  0
LINE
  5
4F
100
AcDbEntity
  8
0
  6
CONTINUOUS
 62
    7
370
   25
100
AcDbLine
 10
11.2144635
 20
-3.2367737
 11
11.4455103
 21
-3.3002783
  0
LINE
  5
50
100
AcDbEntity
  8
0
  6
CONTINUOUS
 62
    7
370
   25
100
AcDbLine
 10
11.4455103
 20
-3.3002783
 11
11.6645455
 21
-3.3507184
  0
LINE
  5
51
100
AcDbEntity
  8
0
  6
CONTINUOUS
 62
    7
370
   25
100
AcDbLine
 10
11.6645455
 20
-3.3507184
 11
11.8708422
 21
-3.3891949
  0
LINE
  5
52
100
AcDbEntity
  8
0
  6
CONTINUOUS
 62
    7
370
   25
100
AcDbLine
 10
11.8708422
 20
-3.3891949
 11
12.0635871
 21
-3.4168587
  0
LINE
  5
53
100
AcDbEntity
  8
0
  6
CONTINUOUS
 62
    7
370
   25
100
AcDbLine
 10
12.0635871
 20
-3.4168587
 11
12.242139
 21
-3.4348998
  0
LINE
  5
54
100
AcDbEntity
  8
0
  6
CONTINUOUS
 62
    7
370
   25
100
AcDbLine
 10
12.242139
 20
-3.4348998
 11
12.408614
 21
-3.444683
  0
LINE
  5
55
100
AcDbEntity
  8
0
  6
CONTINUOUS
 62
    7
370
   25
100
AcDbLine
 10
12.408614
 20
-3.444683
 11
12.5576581
 21
-3.4471748
  0
LINE
  5
56
100
AcDbEntity
  8
0
  6
CONTINUOUS
 62
    7
370
   25
100
AcDbLine
 10
12.5576581
 20
-3.4471748
 11
12.6932094
 21
-3.4437966
  0
LINE
  5
57
100
AcDbEntity
  8
0
  6
CONTINUOUS
 62
    7
370
   25
100
AcDbLine
 10
12.6932094
 20
-3.4437966
 11
12.917979
 21
-3.424369
  0
LINE
  5
58
100
AcDbEntity
  8
0
  6
CONTINUOUS
 62
    7
370
   25
100
AcDbLine
 10
12.917979
 20
-3.424369
 11
13.0833431
 21
-3.396088
  0
LINE
  5
59
100
AcDbEntity
  8
0
  6
CONTINUOUS
 62
    7
370
   25
100
AcDbLine
 10
13.0833431
 20
-3.396088
 11
13.1883504
 21
-3.369006
  0
LINE
  5
5A
100
AcDbEntity
  8
0
  6
CONTINUOUS
 62
    7
370
   25
100
AcDbLine
 10
13.1883504
 20
-3.369006
 11
13.2322958
 21
-3.3496617
  0
LINE
  5
5B
100
AcDbEntity
  8
0
  6
CONTINUOUS
 62
    7
370
   25
100
AcDbLine
 10
13.2322958
 20
-3.3496617
 11
13.3842188
 21
-3.2677801
  0
LINE
  5
5C
100
AcDbEntity
  8
0
  6
CONTINUOUS
 62
    7
370
   25
100
AcDbLine
 10
13.3842188
 20
-3.2677801
 11
13.5288724
 21
-3.2040674
  0
LINE
  5
5D
100
AcDbEntity
  8
0
  6
CONTINUOUS
 62
    7
370
   25
100
AcDbLine
 10
13.5288724
 20
-3.2040674
 11
13.6650226
 21
-3.1577465
  0
LINE
  5
5E
100
AcDbEntity
  8
0
  6
CONTINUOUS
 62
    7
370
   25
100
AcDbLine
 10
13.6650226
 20
-3.1577465
 11
13.7914812
 21
-3.1279792
  0
LINE
  5
5F
100
AcDbEntity
  8
0
  6
CONTINUOUS
 62
    7
370
   25
100
AcDbLine
 10
13.7914812
 20
-3.1279792
 11
13.9071178
 21
-3.1138476
  0
LINE
  5
60
100
AcDbEntity
  8
0
  6
CONTINUOUS
 62
    7
370
   25
100
AcDbLine
 10
13.9071178
 20
-3.1138476
 11
14.01088
 21
-3.114389
  0
LINE
  5
61
100
AcDbEntity
  8
0
  6
CONTINUOUS
 62
    7
370
   25
100
AcDbLine
 10
14.01088
 20
-3.114389
 11
14.1017411
 21
-3.128545
  0
LINE
  5
62
100
AcDbEntity
  8
0
  6
CONTINUOUS
 62
    7
370
   25
100
AcDbLine
 10
14.1017411
 20
-3.128545
 11
14.1787895
 21
-3.1552368
  0
LINE
  5
63
100
AcDbEntity
  8
0
  6
CONTINUOUS
 62
    7
370
   25
100
AcDbLine
 10
14.1787895
 20
-3.1552368
 11
14.2411407
 21
-3.1933124
  0
LINE
  5
64
100
AcDbEntity
  8
0
  6
CONTINUOUS
 62
    7
370
   25
100
AcDbLine
 10
14.2411407
 20
-3.1933124
 11
14.2880055
 21
-3.2415645
  0
LINE
  5
65
100
AcDbEntity
  8
0
  6
CONTINUOUS
 62
    7
370
   25
100
AcDbLine
 10
14.2880055
 20
-3.2415645
 11
14.305399
 21
-3.269131
  0
LINE
  5
66
100
AcDbEntity
  8
0
  6
CONTINUOUS
 62
    7
370
   25
100
AcDbLine
 10
14.305399
 20
-3.269131
 11
14.4248697
 21
-3.5029402
  0
LINE
  5
67
100
AcDbEntity
  8
0
  6
CONTINUOUS
 62
    7
370
   25
100
AcDbLine
 10
14.4248697
 20
-3.5029402
 11
14.5481107
 21
-3.725
  0
LINE
  5
68
100
AcDbEntity
  8
0
  6
CONTINUOUS
 62
    7
370
   25
100
AcDbLine
 10
14.5481107
 20
-3.725
 11
14.6787997
 21
-3.9427598
  0
LINE
  5
69
100
AcDbEntity
  8
0
  6
CONTINUOUS
 62
    7
370
   25
100
AcDbLine
 10
14.6787997
 20
-3.9427598
 11
14.821549
 21
-4.163129
  0
LINE
  5
6A
100
AcDbEntity
  8
0
  6
CONTINUOUS
 62
    7
370
   25
100
AcDbLine
 10
14.821549
 20
-4.163129
 11
14.8367255
 21
-4.1919755
  0
LINE
  5
6B
100
AcDbEntity
  8
0
  6
CONTINUOUS
 62
    7
370
   25
100
AcDbLine
 10
14.8367255
 20
-4.1919755
 11
14.8550807
 21
-4.2566876
  0
LINE
  5
6C
100
AcDbEntity
  8
0
  6
CONTINUOUS
 62
    7
370
   25
100
AcDbLine
 10
14.8550807
 20
-4.2566876
 11
14.8568795
 21
-4.3297232
  0
LINE
  5
6D
100
AcDbEntity
  8
0
  6
CONTINUOUS
 62
    7
370
   25
100
AcDbLine
 10
14.8568795
 20
-4.3297232
 11
14.8414711
 21
-4.409795
  0
LINE
  5
6E
100
AcDbEntity
  8
0
  6
CONTINUOUS
 62
    7
370
   25
100
AcDbLine
 10
14.8414711
 20
-4.409795
 11
14.8083
 21
-4.495561
  0
LINE
  5
6F
100
AcDbEntity
  8
0
  6
CONTINUOUS
 62
    7
370
   25
100
AcDbLine
 10
14.8083
 20
-4.495561
 11
14.7568878
 21
-4.5856924
  0
LINE
  5
70
100
AcDbEntity
  8
0
  6
CONTINUOUS
 62
    7
370
   25
100
AcDbLine
 10
14.7568878
 20
-4.5856924
 11
14.6868312
 21
-4.6787708
  0
LINE
  5
71
100
AcDbEntity
  8
0
  6
CONTINUOUS
 62
    7
370
   25
100
AcDbLine
 10
14.6868312
 20
-4.6787708
 11
14.5978226
 21
-4.7734035
  0
LINE
  5
72
100
AcDbEntity
  8
0
  6
CONTINUOUS
 62
    7
370
   25
100
AcDbLine
 10
14.5978226
 20
-4.7734035
 11
14.4896324
 21
-4.8681526
  0
LINE
  5
73
100
AcDbEntity
  8
0
  6
CONTINUOUS
 62
    7
370
   25
100
AcDbLine
 10
14.4896324
 20
-4.8681526
 11
14.3621288
 21
-4.9615699
  0
LINE
  5
74
100
AcDbEntity
  8
0
  6
CONTINUOUS
 62
    7
370
   25
100
AcDbLine
 10
14.3621288
 20
-4.9615699
 11
14.2152558
 21
-5.0521983
  0
LINE
  5
75
100
AcDbEntity
  8
0
  6
CONTINUOUS
 62
    7
370
   25
100
AcDbLine
 10
14.2152558
 20
-5.0521983
 11
14.1765304
 21
-5.080584
  0
LINE
  5
76
100
AcDbEntity
  8
0
  6
CONTINUOUS
 62
    7
370
   25
100
AcDbLine
 10
14.1765304
 20
-5.080584
 11
14.1005731
 21
-5.157982
  0
LINE
  5
77
100
AcDbEntity
  8
0
  6
CONTINUOUS
 62
    7
370
   25
100
AcDbLine
 10
14.1005731
 20
-5.157982
 11
13.993399
 21
-5.287051
  0
LINE
  5
78
100
AcDbEntity
  8
0
  6
CONTINUOUS
 62
    7
370
   25
100
AcDbLine
 10
13.993399
 20
-5.287051
 11
13.8641894
 21
-5.4719934
  0
LINE
  5
79
100
AcDbEntity
  8
0
  6
CONTINUOUS
 62
    7
370
   25
100
AcDbLine
 10
13.8641894
 20
-5.4719934
 11
13.7934881
 21
-5.5876952
  0
LINE
  5
7A
100
AcDbEntity
  8
0
  6
CONTINUOUS
 62
    7
370
   25
100
AcDbLine
 10
13.7934881
 20
-5.5876952
 11
13.721124
 21
-5.718017
  0
LINE
  5
7B
100
AcDbEntity
  8
0
  6
CONTINUOUS
 62
    7
370
   25
100
AcDbLine
 10
13.721124
 20
-5.718017
 11
13.646359
 21
-5.8670802
  0
LINE
  5
7C
100
AcDbEntity
  8
0
  6
CONTINUOUS
 62
    7
370
   25
100
AcDbLine
 10
13.646359
 20
-5.8670802
 11
13.5727071
 21
-6.0307313
  0
LINE
  5
7D
100
AcDbEntity
  8
0
  6
CONTINUOUS
 62
    7
370
   25
100
AcDbLine
 10
13.5727071
 20
-6.0307313
 11
13.5002922
 21
-6.2114851
  0
LINE
  5
7E
100
AcDbEntity
  8
0
  6
CONTINUOUS
 62
    7
370
   25
100
AcDbLine
 10
13.5002922
 20
-6.2114851
 11
13.4304655
 21
-6.4093816
  0
LINE
  5
7F
100
AcDbEntity
  8
0
  6
CONTINUOUS
 62
    7
370
   25
100
AcDbLine
 10
13.4304655
 20
-6.4093816
 11
13.3646303
 21
-6.6242917
  0
LINE
  5
80
100
AcDbEntity
  8
0
  6
CONTINUOUS
 62
    7
370
   25
100
AcDbLine
 10
13.3646303
 20
-6.6242917
 11
13.3041035
 21
-6.8561363
  0
LINE
  5
81
100
AcDbEntity
  8
0
  6
CONTINUOUS
 62
    7
370
   25
100
AcDbLine
 10
13.3041035
 20
-6.8561363
 11
13.2537067
 21
-7.0882964
  0
ARC
  5
82
100
AcDbEntity
  8
0
  6
CONTINUOUS
 62
    7
370
   25
100
AcDbCircle
 10
21.0000335113
 20
3.35113e-05
 40
10.5
100
AcDbArc
 50
222.4602883506
 51
227.5397116494
  0
LINE
  5
83
100
AcDbEntity
  8
0
  6
CONTINUOUS
 62
    7
370
   25
100
AcDbLine
 10
13.9117036
 20
-7.7462933
 11
14.1438637
 21
-7.6958965
  0
LINE
  5
84
100
AcDbEntity
  8
0
  6
CONTINUOUS
 62
    7
370
   25
100
AcDbLine
 10
14.1438637
 20
-7.6958965
 11
14.3757083
 21
-7.6353697
  0
LINE
  5
85
100
AcDbEntity
  8
0
  6
CONTINUOUS
 62
    7
370
   25
100
AcDbLine
 10
14.3757083
 20
-7.6353697
 11
14.5906184
 21
-7.5695345
  0
LINE
  5
86
100
AcDbEntity
  8
0
  6
CONTINUOUS
 62
    7
370
   25
100
AcDbLine
 10
14.5906184
 20
-7.5695345
 11
14.7885149
 21
-7.4997078
  0
LINE
  5
87
100
AcDbEntity
  8
0
  6
CONTINUOUS
 62
    7
370
   25
100
AcDbLine
 10
14.7885149
 20
-7.4997078
 11
14.9692687
 21
-7.4272929
  0
LINE
  5
88
100
AcDbEntity
  8
0
  6
CONTINUOUS
 62
    7
370
   25
100
AcDbLine
 10
14.9692687
 20
-7.4272929
 11
15.1329198
 21
-7.353641
  0
LINE
  5
89
100
AcDbEntity
  8
0
  6
CONTINUOUS
 62
    7
370
   25
100
AcDbLine
 10
15.1329198
 20
-7.353641
 11
15.281983
 21
-7.278876
  0
LINE
  5
8A
100
AcDbEntity
  8
0
  6
CONTINUOUS
 62
    7
370
   25
100
AcDbLine
 10
15.281983
 20
-7.278876
 11
15.4123048
 21
-7.2065119
  0
LINE
  5
8B
100
AcDbEntity
  8
0
  6
CONTINUOUS
 62
    7
370
   25
100
AcDbLine
 10
15.4123048
 20
-7.2065119
 11
15.5280066
 21
-7.1358106
  0
LINE
  5
8C
100
AcDbEntity
  8
0
  6
CONTINUOUS
 62
    7
370
   25
100
AcDbLine
 10
15.5280066
 20
-7.1358106
 11
15.712949
 21
-7.006601
  0
LINE
  5
8D
100
AcDbEntity
  8
0
  6
CONTINUOUS
 62
    7
370
   25
100
AcDbLine
 10
15.712949
 20
-7.006601
 11
15.842018
 21
-6.8994269
  0
LINE
  5
8E
100
AcDbEntity
  8
0
  6
CONTINUOUS
 62
    7
370
   25
100
AcDbLine
 10
15.842018
 20
-6.8994269
 11
15.919416
 21
-6.8234696
  0
LINE
  5
8F
100
AcDbEntity
  8
0
  6
CONTINUOUS
 62
    7
370
   25
100
AcDbLine
 10
15.919416
 20
-6.8234696
 11
15.9478017
 21
-6.7847442
  0
LINE
  5
90
100
AcDbEntity
  8
0
  6
CONTINUOUS
 62
    7
370
   25
100
AcDbLine
 10
15.9478017
 20
-6.7847442
 11
16.0384301
 21
-6.6378712
  0
LINE
  5
91
100
AcDbEntity
  8
0
  6
CONTINUOUS
 62
    7
370
   25
100
AcDbLine
 10
16.0384301
 20
-6.6378712
 11
16.1318474
 21
-6.5103676
  0
LINE
  5
92
100
AcDbEntity
  8
0
  6
CONTINUOUS
 62
    7
370
   25
100
AcDbLine
 10
16.1318474
 20
-6.5103676
 11
16.2265965
 21
-6.4021774
  0
LINE
  5
93
100
AcDbEntity
  8
0
  6
CONTINUOUS
 62
    7
370
   25
100
AcDbLine
 10
16.2265965
 20
-6.4021774
 11
16.3212292
 21
-6.3131688
  0
LINE
  5
94
100
AcDbEntity
  8
0
  6
CONTINUOUS
 62
    7
370
   25
100
AcDbLine
 10
16.3212292
 20
-6.3131688
 11
16.4143076
 21
-6.2431122
  0
LINE
  5
95
100
AcDbEntity
  8
0
  6
CONTINUOUS
 62
    7
370
   25
100
AcDbLine
 10
16.4143076
 20
-6.2431122
 11
16.504439
 21
-6.1917
  0
LINE
  5
96
100
AcDbEntity
  8
0
  6
CONTINUOUS
 62
    7
370
   25
100
AcDbLine
 10
16.504439
 20
-6.1917
 11
16.590205
 21
-6.1585289
  0
LINE
  5
97
100
AcDbEntity
  8
0
  6
CONTINUOUS
 62
    7
370
   25
100
AcDbLine
 10
16.590205
 20
-6.1585289
 11
16.6702768
 21
-6.1431205
  0
LINE
  5
98
100
AcDbEntity
  8
0
  6
CONTINUOUS
 62
    7
370
   25
100
AcDbLine
 10
16.6702768
 20
-6.1431205
 11
16.7433124
 21
-6.1449193
  0
LINE
  5
99
100
AcDbEntity
  8
0
  6
CONTINUOUS
 62
    7
370
   25
100
AcDbLine
 10
16.7433124
 20
-6.1449193
 11
16.8080245
 21
-6.1632745
  0
LINE
  5
9A
100
AcDbEntity
  8
0
  6
CONTINUOUS
 62
    7
370
   25
100
AcDbLine
 10
16.8080245
 20
-6.1632745
 11
16.836871
 21
-6.178451
  0
LINE
  5
9B
100
AcDbEntity
  8
0
  6
CONTINUOUS
 62
    7
370
   25
100
AcDbLine
 10
16.836871
 20
-6.178451
 11
17.0572402
 21
-6.3212003
  0
LINE
  5
9C
100
AcDbEntity
  8
0
  6
CONTINUOUS
 62
    7
370
   25
100
AcDbLine
 10
17.0572402
 20
-6.3212003
 11
17.275
 21
-6.4518893
  0
LINE
  5
9D
100
AcDbEntity
  8
0
  6
CONTINUOUS
 62
    7
370
   25
100
AcDbLine
 10
17.275
 20
-6.4518893
 11
17.4970598
 21
-6.5751303
  0
LINE
  5
9E
100
AcDbEntity
  8
0
  6
CONTINUOUS
 62
    7
370
   25
100
AcDbLine
 10
17.4970598
 20
-6.5751303
 11
17.730869
 21
-6.694601
  0
LINE
  5
9F
100
AcDbEntity
  8
0
  6
CONTINUOUS
 62
    7
370
   25
100
AcDbLine
 10
17.730869
 20
-6.694601
 11
17.7584355
 21
-6.7119945
  0
LINE
  5
A0
100
AcDbEntity
  8
0
  6
CONTINUOUS
 62
    7
370
   25
100
AcDbLine
 10
17.7584355
 20
-6.7119945
 11
17.8066876
 21
-6.7588593
  0
LINE
  5
A1
100
AcDbEntity
  8
0
  6
CONTINUOUS
 62
    7
370
   25
100
AcDbLine
 10
17.8066876
 20
-6.7588593
 11
17.8447632
 21
-6.8212105
  0
LINE
  5
A2
100
AcDbEntity
  8
0
  6
CONTINUOUS
 62
    7
370
   25
100
AcDbLine
 10
17.8447632
 20
-6.8212105
 11
17.871455
 21
-6.8982589
  0
LINE
  5
A3
100
AcDbEntity
  8
0
  6
CONTINUOUS
 62
    7
370
   25
100
AcDbLine
 10
17.871455
 20
-6.8982589
 11
17.885611
 21
-6.98912
  0
LINE
  5
A4
100
AcDbEntity
  8
0
  6
CONTINUOUS
 62
    7
370
   25
100
AcDbLine
 10
17.885611
 20
-6.98912
 11
17.8861524
 21
-7.0928822
  0
LINE
  5
A5
100
AcDbEntity
  8
0
  6
CONTINUOUS
 62
    7
370
   25
100
AcDbLine
 10
17.8861524
 20
-7.0928822
 11
17.8720208
 21
-7.2085188
  0
LINE
  5
A6
100
AcDbEntity
  8
0
  6
CONTINUOUS
 62
    7
370
   25
100
AcDbLine
 10
17.8720208
 20
-7.2085188
 11
17.8422535
 21
-7.3349774
  0
LINE
  5
A7
100
AcDbEntity
  8
0
  6
CONTINUOUS
 62
    7
370
   25
100
AcDbLine
 10
17.8422535
 20
-7.3349774
 11
17.7959326
 21
-7.4711276
  0
LINE
  5
A8
100
AcDbEntity
  8
0
  6
CONTINUOUS
 62
    7
370
   25
100
AcDbLine
 10
17.7959326
 20
-7.4711276
 11
17.7322199
 21
-7.6157812
  0
LINE
  5
A9
100
AcDbEntity
  8
0
  6
CONTINUOUS
 62
    7
370
   25
100
AcDbLine
 10
17.7322199
 20
-7.6157812
 11
17.6503383
 21
-7.7677042
  0
LINE
  5
AA
100
AcDbEntity
  8
0
  6
CONTINUOUS
 62
    7
370
   25
100
AcDbLine
 10
17.6503383
 20
-7.7677042
 11
17.630994
 21
-7.8116496
  0
LINE
  5
AB
100
AcDbEntity
  8
0
  6
CONTINUOUS
 62
    7
370
   25
100
AcDbLine
 10
17.630994
 20
-7.8116496
 11
17.603912
 21
-7.9166569
  0
LINE
  5
AC
100
AcDbEntity
  8
0
  6
CONTINUOUS
 62
    7
370
   25
100
AcDbLine
 10
17.603912
 20
-7.9166569
 11
17.575631
 21
-8.082020999999999
  0
LINE
  5
AD
100
AcDbEntity
  8
0
  6
CONTINUOUS
 62
    7
370
   25
100
AcDbLine
 10
17.575631
 20
-8.082020999999999
 11
17.5562034
 21
-8.306790599999999
  0
LINE
  5
AE
100
AcDbEntity
  8
0
  6
CONTINUOUS
 62
    7
370
   25
100
AcDbLine
 10
17.5562034
 20
-8.306790599999999
 11
17.5528252
 21
-8.442341900000001
  0
LINE
  5
AF
100
AcDbEntity
  8
0
  6
CONTINUOUS
 62
    7
370
   25
100
AcDbLine
 10
17.5528252
 20
-8.442341900000001
 11
17.555317
 21
-8.591386
  0
LINE
  5
B0
100
AcDbEntity
  8
0
  6
CONTINUOUS
 62
    7
370
   25
100
AcDbLine
 10
17.555317
 20
-8.591386
 11
17.5651002
 21
-8.757861
  0
LINE
  5
B1
100
AcDbEntity
  8
0
  6
CONTINUOUS
 62
    7
370
   25
100
AcDbLine
 10
17.5651002
 20
-8.757861
 11
17.5831413
 21
-8.936412900000001
  0
LINE
  5
B2
100
AcDbEntity
  8
0
  6
CONTINUOUS
 62
    7
370
   25
100
AcDbLine
 10
17.5831413
 20
-8.936412900000001
 11
17.6108051
 21
-9.1291578
  0
LINE
  5
B3
100
AcDbEntity
  8
0
  6
CONTINUOUS
 62
    7
370
   25
100
AcDbLine
 10
17.6108051
 20
-9.1291578
 11
17.6492816
 21
-9.335454500000001
  0
LINE
  5
B4
100
AcDbEntity
  8
0
  6
CONTINUOUS
 62
    7
370
   25
100
AcDbLine
 10
17.6492816
 20
-9.335454500000001
 11
17.6997217
 21
-9.5544897
  0
LINE
  5
B5
100
AcDbEntity
  8
0
  6
CONTINUOUS
 62
    7
370
   25
100
AcDbLine
 10
17.6997217
 20
-9.5544897
 11
17.7632263
 21
-9.785536499999999
  0
LINE
  5
B6
100
AcDbEntity
  8
0
  6
CONTINUOUS
 62
    7
370
   25
100
AcDbLine
 10
17.7632263
 20
-9.785536499999999
 11
17.8356614
 21
-10.0117914
  0
ARC
  5
B7
100
AcDbEntity
  8
0
  6
CONTINUOUS
 62
    7
370
   25
100
AcDbCircle
 10
21.0000124045
 20
4.57301e-05
 40
10.5
100
AcDbArc
 50
252.4602874604
 51
257.5397108862
  0
LINE
  5
B8
100
AcDbEntity
  8
0
  6
CONTINUOUS
 62
    7
370
   25
100
AcDbLine
 10
18.7345019
 20
-10.252635
 11
18.91036
 21
-10.09291
  0
LINE
  5
B9
100
AcDbEntity
  8
0
  6
CONTINUOUS
 62
    7
370
   25
100
AcDbLine
 10
18.91036
 20
-10.09291
 11
19.08088
 21
-9.924569999999999
  0
LINE
  5
BA
100
AcDbEntity
  8
0
  6
CONTINUOUS
 62
    7
370
   25
100
AcDbLine
 10
19.08088
 20
-9.924569999999999
 11
19.23408
 21
-9.7601
  0
LINE
  5
BB
100
AcDbEntity
  8
0
  6
CONTINUOUS
 62
    7
370
   25
100
AcDbLine
 10
19.23408
 20
-9.7601
 11
19.37055
 21
-9.600680000000001
  0
LINE
  5
BC
100
AcDbEntity
  8
0
  6
CONTINUOUS
 62
    7
370
   25
100
AcDbLine
 10
19.37055
 20
-9.600680000000001
 11
19.49088
 21
-9.44759
  0
LINE
  5
BD
100
AcDbEntity
  8
0
  6
CONTINUOUS
 62
    7
370
   25
100
AcDbLine
 10
19.49088
 20
-9.44759
 11
19.59578
 21
-9.30198
  0
LINE
  5
BE
100
AcDbEntity
  8
0
  6
CONTINUOUS
 62
    7
370
   25
100
AcDbLine
 10
19.59578
 20
-9.30198
 11
19.68749
 21
-9.162699999999999
  0
LINE
  5
BF
100
AcDbEntity
  8
0
  6
CONTINUOUS
 62
    7
370
   25
100
AcDbLine
 10
19.68749
 20
-9.162699999999999
 11
19.76417
 21
-9.03487
  0
LINE
  5
C0
100
AcDbEntity
  8
0
  6
CONTINUOUS
 62
    7
370
   25
100
AcDbLine
 10
19.76417
 20
-9.03487
 11
19.82902
 21
-8.915789999999999
  0
LINE
  5
C1
100
AcDbEntity
  8
0
  6
CONTINUOUS
 62
    7
370
   25
100
AcDbLine
 10
19.82902
 20
-8.915789999999999
 11
19.92458
 21
-8.71142
  0
LINE
  5
C2
100
AcDbEntity
  8
0
  6
CONTINUOUS
 62
    7
370
   25
100
AcDbLine
 10
19.92458
 20
-8.71142
 11
19.98277
 21
-8.554069999999999
  0
LINE
  5
C3
100
AcDbEntity
  8
0
  6
CONTINUOUS
 62
    7
370
   25
100
AcDbLine
 10
19.98277
 20
-8.554069999999999
 11
20.01182
 21
-8.449590000000001
  0
LINE
  5
C4
100
AcDbEntity
  8
0
  6
CONTINUOUS
 62
    7
370
   25
100
AcDbLine
 10
20.01182
 20
-8.449590000000001
 11
20.01704
 21
-8.401859999999999
  0
LINE
  5
C5
100
AcDbEntity
  8
0
  6
CONTINUOUS
 62
    7
370
   25
100
AcDbLine
 10
20.01704
 20
-8.401859999999999
 11
20.02209
 21
-8.22935
  0
LINE
  5
C6
100
AcDbEntity
  8
0
  6
CONTINUOUS
 62
    7
370
   25
100
AcDbLine
 10
20.02209
 20
-8.22935
 11
20.03924
 21
-8.07222
  0
LINE
  5
C7
100
AcDbEntity
  8
0
  6
CONTINUOUS
 62
    7
370
   25
100
AcDbLine
 10
20.03924
 20
-8.07222
 11
20.0672
 21
-7.93115
  0
LINE
  5
C8
100
AcDbEntity
  8
0
  6
CONTINUOUS
 62
    7
370
   25
100
AcDbLine
 10
20.0672
 20
-7.93115
 11
20.10465
 21
-7.80675
  0
LINE
  5
C9
100
AcDbEntity
  8
0
  6
CONTINUOUS
 62
    7
370
   25
100
AcDbLine
 10
20.10465
 20
-7.80675
 11
20.15023
 21
-7.69954
  0
LINE
  5
CA
100
AcDbEntity
  8
0
  6
CONTINUOUS
 62
    7
370
   25
100
AcDbLine
 10
20.15023
 20
-7.69954
 11
20.20258
 21
-7.60995
  0
LINE
  5
CB
100
AcDbEntity
  8
0
  6
CONTINUOUS
 62
    7
370
   25
100
AcDbLine
 10
20.20258
 20
-7.60995
 11
20.26027
 21
-7.53834
  0
LINE
  5
CC
100
AcDbEntity
  8
0
  6
CONTINUOUS
 62
    7
370
   25
100
AcDbLine
 10
20.26027
 20
-7.53834
 11
20.32191
 21
-7.48496
  0
LINE
  5
CD
100
AcDbEntity
  8
0
  6
CONTINUOUS
 62
    7
370
   25
100
AcDbLine
 10
20.32191
 20
-7.48496
 11
20.38606
 21
-7.45
  0
LINE
  5
CE
100
AcDbEntity
  8
0
  6
CONTINUOUS
 62
    7
370
   25
100
AcDbLine
 10
20.38606
 20
-7.45
 11
20.45128
 21
-7.43354
  0
LINE
  5
CF
100
AcDbEntity
  8
0
  6
CONTINUOUS
 62
    7
370
   25
100
AcDbLine
 10
20.45128
 20
-7.43354
 11
20.48385
 21
-7.43226
  0
LINE
  5
D0
100
AcDbEntity
  8
0
  6
CONTINUOUS
 62
    7
370
   25
100
AcDbLine
 10
20.48385
 20
-7.43226
 11
20.74607
 21
-7.4457
  0
LINE
  5
D1
100
AcDbEntity
  8
0
  6
CONTINUOUS
 62
    7
370
   25
100
AcDbLine
 10
20.74607
 20
-7.4457
 11
21
 21
-7.45
  0
LINE
  5
D2
100
AcDbEntity
  8
0
  6
CONTINUOUS
 62
    7
370
   25
100
AcDbLine
 10
21
 20
-7.45
 11
21.25393
 21
-7.4457
  0
LINE
  5
D3
100
AcDbEntity
  8
0
  6
CONTINUOUS
 62
    7
370
   25
100
AcDbLine
 10
21.25393
 20
-7.4457
 11
21.51615
 21
-7.43226
  0
LINE
  5
D4
100
AcDbEntity
  8
0
  6
CONTINUOUS
 62
    7
370
   25
100
AcDbLine
 10
21.51615
 20
-7.43226
 11
21.54872
 21
-7.43354
  0
LINE
  5
D5
100
AcDbEntity
  8
0
  6
CONTINUOUS
 62
    7
370
   25
100
AcDbLine
 10
21.54872
 20
-7.43354
 11
21.61394
 21
-7.45
  0
LINE
  5
D6
100
AcDbEntity
  8
0
  6
CONTINUOUS
 62
    7
370
   25
100
AcDbLine
 10
21.61394
 20
-7.45
 11
21.67809
 21
-7.48496
  0
LINE
  5
D7
100
AcDbEntity
  8
0
  6
CONTINUOUS
 62
    7
370
   25
100
AcDbLine
 10
21.67809
 20
-7.48496
 11
21.73973
 21
-7.53834
  0
LINE
  5
D8
100
AcDbEntity
  8
0
  6
CONTINUOUS
 62
    7
370
   25
100
AcDbLine
 10
21.73973
 20
-7.53834
 11
21.79742
 21
-7.60995
  0
LINE
  5
D9
100
AcDbEntity
  8
0
  6
CONTINUOUS
 62
    7
370
   25
100
AcDbLine
 10
21.79742
 20
-7.60995
 11
21.84977
 21
-7.69954
  0
LINE
  5
DA
100
AcDbEntity
  8
0
  6
CONTINUOUS
 62
    7
370
   25
100
AcDbLine
 10
21.84977
 20
-7.69954
 11
21.89535
 21
-7.80675
  0
LINE
  5
DB
100
AcDbEntity
  8
0
  6
CONTINUOUS
 62
    7
370
   25
100
AcDbLine
 10
21.89535
 20
-7.80675
 11
21.9328
 21
-7.93115
  0
LINE
  5
DC
100
AcDbEntity
  8
0
  6
CONTINUOUS
 62
    7
370
   25
100
AcDbLine
 10
21.9328
 20
-7.93115
 11
21.96076
 21
-8.07222
  0
LINE
  5
DD
100
AcDbEntity
  8
0
  6
CONTINUOUS
 62
    7
370
   25
100
AcDbLine
 10
21.96076
 20
-8.07222
 11
21.97791
 21
-8.22935
  0
LINE
  5
DE
100
AcDbEntity
  8
0
  6
CONTINUOUS
 62
    7
370
   25
100
AcDbLine
 10
21.97791
 20
-8.22935
 11
21.98296
 21
-8.401859999999999
  0
LINE
  5
DF
100
AcDbEntity
  8
0
  6
CONTINUOUS
 62
    7
370
   25
100
AcDbLine
 10
21.98296
 20
-8.401859999999999
 11
21.98818
 21
-8.449590000000001
  0
LINE
  5
E0
100
AcDbEntity
  8
0
  6
CONTINUOUS
 62
    7
370
   25
100
AcDbLine
 10
21.98818
 20
-8.449590000000001
 11
22.01723
 21
-8.554069999999999
  0
LINE
  5
E1
100
AcDbEntity
  8
0
  6
CONTINUOUS
 62
    7
370
   25
100
AcDbLine
 10
22.01723
 20
-8.554069999999999
 11
22.07542
 21
-8.71142
  0
LINE
  5
E2
100
AcDbEntity
  8
0
  6
CONTINUOUS
 62
    7
370
   25
100
AcDbLine
 10
22.07542
 20
-8.71142
 11
22.17098
 21
-8.915789999999999
  0
LINE
  5
E3
100
AcDbEntity
  8
0
  6
CONTINUOUS
 62
    7
370
   25
100
AcDbLine
 10
22.17098
 20
-8.915789999999999
 11
22.23583
 21
-9.03487
  0
LINE
  5
E4
100
AcDbEntity
  8
0
  6
CONTINUOUS
 62
    7
370
   25
100
AcDbLine
 10
22.23583
 20
-9.03487
 11
22.31251
 21
-9.162699999999999
  0
LINE
  5
E5
100
AcDbEntity
  8
0
  6
CONTINUOUS
 62
    7
370
   25
100
AcDbLine
 10
22.31251
 20
-9.162699999999999
 11
22.40422
 21
-9.30198
  0
LINE
  5
E6
100
AcDbEntity
  8
0
  6
CONTINUOUS
 62
    7
370
   25
100
AcDbLine
 10
22.40422
 20
-9.30198
 11
22.50912
 21
-9.44759
  0
LINE
  5
E7
100
AcDbEntity
  8
0
  6
CONTINUOUS
 62
    7
370
   25
100
AcDbLine
 10
22.50912
 20
-9.44759
 11
22.62945
 21
-9.600680000000001
  0
LINE
  5
E8
100
AcDbEntity
  8
0
  6
CONTINUOUS
 62
    7
370
   25
100
AcDbLine
 10
22.62945
 20
-9.600680000000001
 11
22.76592
 21
-9.7601
  0
LINE
  5
E9
100
AcDbEntity
  8
0
  6
CONTINUOUS
 62
    7
370
   25
100
AcDbLine
 10
22.76592
 20
-9.7601
 11
22.91912
 21
-9.924569999999999
  0
LINE
  5
EA
100
AcDbEntity
  8
0
  6
CONTINUOUS
 62
    7
370
   25
100
AcDbLine
 10
22.91912
 20
-9.924569999999999
 11
23.08964
 21
-10.09291
  0
LINE
  5
EB
100
AcDbEntity
  8
0
  6
CONTINUOUS
 62
    7
370
   25
100
AcDbLine
 10
23.08964
 20
-10.09291
 11
23.2654981
 21
-10.252635
  0
ARC
  5
EC
100
AcDbEntity
  8
0
  6
CONTINUOUS
 62
    7
370
   25
100
AcDbCircle
 10
20.9999875955
 20
4.57301e-05
 40
10.5
100
AcDbArc
 50
282.4602891138
 51
287.5397125396
  0
LINE
  5
ED
100
AcDbEntity
  8
0
  6
CONTINUOUS
 62
    7
370
   25
100
AcDbLine
 10
24.1643386
 20
-10.0117914
 11
24.2367737
 21
-9.785536499999999
  0
LINE
  5
EE
100
AcDbEntity
  8
0
  6
CONTINUOUS
 62
    7
370
   25
100
AcDbLine
 10
24.2367737
 20
-9.785536499999999
 11
24.3002783
 21
-9.5544897
  0
LINE
  5
EF
100
AcDbEntity
  8
0
  6
CONTINUOUS
 62
    7
370
   25
100
AcDbLine
 10
24.3002783
 20
-9.5544897
 11
24.3507184
 21
-9.335454500000001
  0
LINE
  5
F0
100
AcDbEntity
  8
0
  6
CONTINUOUS
 62
    7
370
   25
100
AcDbLine
 10
24.3507184
 20
-9.335454500000001
 11
24.3891949
 21
-9.1291578
  0
LINE
  5
F1
100
AcDbEntity
  8
0
  6
CONTINUOUS
 62
    7
370
   25
100
AcDbLine
 10
24.3891949
 20
-9.1291578
 11
24.4168587
 21
-8.936412900000001
  0
LINE
  5
F2
100
AcDbEntity
  8
0
  6
CONTINUOUS
 62
    7
370
   25
100
AcDbLine
 10
24.4168587
 20
-8.936412900000001
 11
24.4348998
 21
-8.757861
  0
LINE
  5
F3
100
AcDbEntity
  8
0
  6
CONTINUOUS
 62
    7
370
   25
100
AcDbLine
 10
24.4348998
 20
-8.757861
 11
24.444683
 21
-8.591386
  0
LINE
  5
F4
100
AcDbEntity
  8
0
  6
CONTINUOUS
 62
    7
370
   25
100
AcDbLine
 10
24.444683
 20
-8.591386
 11
24.4471748
 21
-8.442341900000001
  0
LINE
  5
F5
100
AcDbEntity
  8
0
  6
CONTINUOUS
 62
    7
370
   25
100
AcDbLine
 10
24.4471748
 20
-8.442341900000001
 11
24.4437966
 21
-8.306790599999999
  0
LINE
  5
F6
100
AcDbEntity
  8
0
  6
CONTINUOUS
 62
    7
370
   25
100
AcDbLine
 10
24.4437966
 20
-8.306790599999999
 11
24.424369
 21
-8.082020999999999
  0
LINE
  5
F7
100
AcDbEntity
  8
0
  6
CONTINUOUS
 62
    7
370
   25
100
AcDbLine
 10
24.424369
 20
-8.082020999999999
 11
24.396088
 21
-7.9166569
  0
LINE
  5
F8
100
AcDbEntity
  8
0
  6
CONTINUOUS
 62
    7
370
   25
100
AcDbLine
 10
24.396088
 20
-7.9166569
 11
24.369006
 21
-7.8116496
  0
LINE
  5
F9
100
AcDbEntity
  8
0
  6
CONTINUOUS
 62
    7
370
   25
100
AcDbLine
 10
24.369006
 20
-7.8116496
 11
24.3496617
 21
-7.7677042
  0
LINE
  5
FA
100
AcDbEntity
  8
0
  6
CONTINUOUS
 62
    7
370
   25
100
AcDbLine
 10
24.3496617
 20
-7.7677042
 11
24.2677801
 21
-7.6157812
  0
LINE
  5
FB
100
AcDbEntity
  8
0
  6
CONTINUOUS
 62
    7
370
   25
100
AcDbLine
 10
24.2677801
 20
-7.6157812
 11
24.2040674
 21
-7.4711276
  0
LINE
  5
FC
100
AcDbEntity
  8
0
  6
CONTINUOUS
 62
    7
370
   25
100
AcDbLine
 10
24.2040674
 20
-7.4711276
 11
24.1577465
 21
-7.3349774
  0
LINE
  5
FD
100
AcDbEntity
  8
0
  6
CONTINUOUS
 62
    7
370
   25
100
AcDbLine
 10
24.1577465
 20
-7.3349774
 11
24.1279792
 21
-7.2085188
  0
LINE
  5
FE
100
AcDbEntity
  8
0
  6
CONTINUOUS
 62
    7
370
   25
100
AcDbLine
 10
24.1279792
 20
-7.2085188
 11
24.1138476
 21
-7.0928822
  0
LINE
  5
FF
100
AcDbEntity
  8
0
  6
CONTINUOUS
 62
    7
370
   25
100
AcDbLine
 10
24.1138476
 20
-7.0928822
 11
24.114389
 21
-6.98912
  0
LINE
  5
100
100
AcDbEntity
  8
0
  6
CONTINUOUS
 62
    7
370
   25
100
AcDbLine
 10
24.114389
 20
-6.98912
 11
24.128545
 21
-6.8982589
  0
LINE
  5
101
100
AcDbEntity
  8
0
  6
CONTINUOUS
 62
    7
370
   25
100
AcDbLine
 10
24.128545
 20
-6.8982589
 11
24.1552368
 21
-6.8212105
  0
LINE
  5
102
100
AcDbEntity
  8
0
  6
CONTINUOUS
 62
    7
370
   25
100
AcDbLine
 10
24.1552368
 20
-6.8212105
 11
24.1933124
 21
-6.7588593
  0
LINE
  5
103
100
AcDbEntity
  8
0
  6
CONTINUOUS
 62
    7
370
   25
100
AcDbLine
 10
24.1933124
 20
-6.7588593
 11
24.2415645
 21
-6.7119945
  0
LINE
  5
104
100
AcDbEntity
  8
0
  6
CONTINUOUS
 62
    7
370
   25
100
AcDbLine
 10
24.2415645
 20
-6.7119945
 11
24.269131
 21
-6.694601
  0
LINE
  5
105
100
AcDbEntity
  8
0
  6
CONTINUOUS
 62
    7
370
   25
100
AcDbLine
 10
24.269131
 20
-6.694601
 11
24.5029402
 21
-6.5751303
  0
LINE
  5
106
100
AcDbEntity
  8
0
  6
CONTINUOUS
 62
    7
370
   25
100
AcDbLine
 10
24.5029402
 20
-6.5751303
 11
24.725
 21
-6.4518893
  0
LINE
  5
107
100
AcDbEntity
  8
0
  6
CONTINUOUS
 62
    7
370
   25
100
AcDbLine
 10
24.725
 20
-6.4518893
 11
24.9427598
 21
-6.3212003
  0
LINE
  5
108
100
AcDbEntity
  8
0
  6
CONTINUOUS
 62
    7
370
   25
100
AcDbLine
 10
24.9427598
 20
-6.3212003
 11
25.163129
 21
-6.178451
  0
LINE
  5
109
100
AcDbEntity
  8
0
  6
CONTINUOUS
 62
    7
370
   25
100
AcDbLine
 10
25.163129
 20
-6.178451
 11
25.1919755
 21
-6.1632745
  0
LINE
  5
10A
100
AcDbEntity
  8
0
  6
CONTINUOUS
 62
    7
370
   25
100
AcDbLine
 10
25.1919755
 20
-6.1632745
 11
25.2566876
 21
-6.1449193
  0
LINE
  5
10B
100
AcDbEntity
  8
0
  6
CONTINUOUS
 62
    7
370
   25
100
AcDbLine
 10
25.2566876
 20
-6.1449193
 11
25.3297232
 21
-6.1431205
  0
LINE
  5
10C
100
AcDbEntity
  8
0
  6
CONTINUOUS
 62
    7
370
   25
100
AcDbLine
 10
25.3297232
 20
-6.1431205
 11
25.409795
 21
-6.1585289
  0
LINE
  5
10D
100
AcDbEntity
  8
0
  6
CONTINUOUS
 62
    7
370
   25
100
AcDbLine
 10
25.409795
 20
-6.1585289
 11
25.495561
 21
-6.1917
  0
LINE
  5
10E
100
AcDbEntity
  8
0
  6
CONTINUOUS
 62
    7
370
   25
100
AcDbLine
 10
25.495561
 20
-6.1917
 11
25.5856924
 21
-6.2431122
  0
LINE
  5
10F
100
AcDbEntity
  8
0
  6
CONTINUOUS
 62
    7
370
   25
100
AcDbLine
 10
25.5856924
 20
-6.2431122
 11
25.6787708
 21
-6.3131688
  0
LINE
  5
110
100
AcDbEntity
  8
0
  6
CONTINUOUS
 62
    7
370
   25
100
AcDbLine
 10
25.6787708
 20
-6.3131688
 11
25.7734035
 21
-6.4021774
  0
LINE
  5
111
100
AcDbEntity
  8
0
  6
CONTINUOUS
 62
    7
370
   25
100
AcDbLine
 10
25.7734035
 20
-6.4021774
 11
25.8681526
 21
-6.5103676
  0
LINE
  5
112
100
AcDbEntity
  8
0
  6
CONTINUOUS
 62
    7
370
   25
100
AcDbLine
 10
25.8681526
 20
-6.5103676
 11
25.9615699
 21
-6.6378712
  0
LINE
  5
113
100
AcDbEntity
  8
0
  6
CONTINUOUS
 62
    7
370
   25
100
AcDbLine
 10
25.9615699
 20
-6.6378712
 11
26.0521983
 21
-6.7847442
  0
LINE
  5
114
100
AcDbEntity
  8
0
  6
CONTINUOUS
 62
    7
370
   25
100
AcDbLine
 10
26.0521983
 20
-6.7847442
 11
26.080584
 21
-6.8234696
  0
LINE
  5
115
100
AcDbEntity
  8
0
  6
CONTINUOUS
 62
    7
370
   25
100
AcDbLine
 10
26.080584
 20
-6.8234696
 11
26.157982
 21
-6.8994269
  0
LINE
  5
116
100
AcDbEntity
  8
0
  6
CONTINUOUS
 62
    7
370
   25
100
AcDbLine
 10
26.157982
 20
-6.8994269
 11
26.287051
 21
-7.006601
  0
LINE
  5
117
100
AcDbEntity
  8
0
  6
CONTINUOUS
 62
    7
370
   25
100
AcDbLine
 10
26.287051
 20
-7.006601
 11
26.4719934
 21
-7.1358106
  0
LINE
  5
118
100
AcDbEntity
  8
0
  6
CONTINUOUS
 62
    7
370
   25
100
AcDbLine
 10
26.4719934
 20
-7.1358106
 11
26.5876952
 21
-7.2065119
  0
LINE
  5
119
100
AcDbEntity
  8
0
  6
CONTINUOUS
 62
    7
370
   25
100
AcDbLine
 10
26.5876952
 20
-7.2065119
 11
26.718017
 21
-7.278876
  0
LINE
  5
11A
100
AcDbEntity
  8
0
  6
CONTINUOUS
 62
    7
370
   25
100
AcDbLine
 10
26.718017
 20
-7.278876
 11
26.8670802
 21
-7.353641
  0
LINE
  5
11B
100
AcDbEntity
  8
0
  6
CONTINUOUS
 62
    7
370
   25
100
AcDbLine
 10
26.8670802
 20
-7.353641
 11
27.0307313
 21
-7.4272929
  0
LINE
  5
11C
100
AcDbEntity
  8
0
  6
CONTINUOUS
 62
    7
370
   25
100
AcDbLine
 10
27.0307313
 20
-7.4272929
 11
27.2114851
 21
-7.4997078
  0
LINE
  5
11D
100
AcDbEntity
  8
0
  6
CONTINUOUS
 62
    7
370
   25
100
AcDbLine
 10
27.2114851
 20
-7.4997078
 11
27.4093816
 21
-7.5695345
  0
LINE
  5
11E
100
AcDbEntity
  8
0
  6
CONTINUOUS
 62
    7
370
   25
100
AcDbLine
 10
27.4093816
 20
-7.5695345
 11
27.6242917
 21
-7.6353697
  0
LINE
  5
11F
100
AcDbEntity
  8
0
  6
CONTINUOUS
 62
    7
370
   25
100
AcDbLine
 10
27.6242917
 20
-7.6353697
 11
27.8561363
 21
-7.6958965
  0
LINE
  5
120
100
AcDbEntity
  8
0
  6
CONTINUOUS
 62
    7
370
   25
100
AcDbLine
 10
27.8561363
 20
-7.6958965
 11
28.0882964
 21
-7.7462933
  0
ARC
  5
121
100
AcDbEntity
  8
0
  6
CONTINUOUS
 62
    7
370
   25
100
AcDbCircle
 10
20.9999664887
 20
3.35113e-05
 40
10.5
100
AcDbArc
 50
312.4602883506
 51
317.5397116494
  0
LINE
  5
122
100
AcDbEntity
  8
0
  6
CONTINUOUS
 62
    7
370
   25
100
AcDbLine
 10
28.7462933
 20
-7.0882964
 11
28.6958965
 21
-6.8561363
  0
LINE
  5
123
100
AcDbEntity
  8
0
  6
CONTINUOUS
 62
    7
370
   25
100
AcDbLine
 10
28.6958965
 20
-6.8561363
 11
28.6353697
 21
-6.6242917
  0
LINE
  5
124
100
AcDbEntity
  8
0
  6
CONTINUOUS
 62
    7
370
   25
100
AcDbLine
 10
28.6353697
 20
-6.6242917
 11
28.5695345
 21
-6.4093816
  0
LINE
  5
125
100
AcDbEntity
  8
0
  6
CONTINUOUS
 62
    7
370
   25
100
AcDbLine
 10
28.5695345
 20
-6.4093816
 11
28.4997078
 21
-6.2114851
  0
LINE
  5
126
100
AcDbEntity
  8
0
  6
CONTINUOUS
 62
    7
370
   25
100
AcDbLine
 10
28.4997078
 20
-6.2114851
 11
28.4272929
 21
-6.0307313
  0
LINE
  5
127
100
AcDbEntity
  8
0
  6
CONTINUOUS
 62
    7
370
   25
100
AcDbLine
 10
28.4272929
 20
-6.0307313
 11
28.353641
 21
-5.8670802
  0
LINE
  5
128
100
AcDbEntity
  8
0
  6
CONTINUOUS
 62
    7
370
   25
100
AcDbLine
 10
28.353641
 20
-5.8670802
 11
28.278876
 21
-5.718017
  0
LINE
  5
129
100
AcDbEntity
  8
0
  6
CONTINUOUS
 62
    7
370
   25
100
AcDbLine
 10
28.278876
 20
-5.718017
 11
28.2065119
 21
-5.5876952
  0
LINE
  5
12A
100
AcDbEntity
  8
0
  6
CONTINUOUS
 62
    7
370
   25
100
AcDbLine
 10
28.2065119
 20
-5.5876952
 11
28.1358106
 21
-5.4719934
  0
LINE
  5
12B
100
AcDbEntity
  8
0
  6
CONTINUOUS
 62
    7
370
   25
100
AcDbLine
 10
28.1358106
 20
-5.4719934
 11
28.006601
 21
-5.287051
  0
LINE
  5
12C
100
AcDbEntity
  8
0
  6
CONTINUOUS
 62
    7
370
   25
100
AcDbLine
 10
28.006601
 20
-5.287051
 11
27.8994269
 21
-5.157982
  0
LINE
  5
12D
100
AcDbEntity
  8
0
  6
CONTINUOUS
 62
    7
370
   25
100
AcDbLine
 10
27.8994269
 20
-5.157982
 11
27.8234696
 21
-5.080584
  0
LINE
  5
12E
100
AcDbEntity
  8
0
  6
CONTINUOUS
 62
    7
370
   25
100
AcDbLine
 10
27.8234696
 20
-5.080584
 11
27.7847442
 21
-5.0521983
  0
LINE
  5
12F
100
AcDbEntity
  8
0
  6
CONTINUOUS
 62
    7
370
   25
100
AcDbLine
 10
27.7847442
 20
-5.0521983
 11
27.6378712
 21
-4.9615699
  0
LINE
  5
130
100
AcDbEntity
  8
0
  6
CONTINUOUS
 62
    7
370
   25
100
AcDbLine
 10
27.6378712
 20
-4.9615699
 11
27.5103676
 21
-4.8681526
  0
LINE
  5
131
100
AcDbEntity
  8
0
  6
CONTINUOUS
 62
    7
370
   25
100
AcDbLine
 10
27.5103676
 20
-4.8681526
 11
27.4021774
 21
-4.7734035
  0
LINE
  5
132
100
AcDbEntity
  8
0
  6
CONTINUOUS
 62
    7
370
   25
100
AcDbLine
 10
27.4021774
 20
-4.7734035
 11
27.3131688
 21
-4.6787708
  0
LINE
  5
133
100
AcDbEntity
  8
0
  6
CONTINUOUS
 62
    7
370
   25
100
AcDbLine
 10
27.3131688
 20
-4.6787708
 11
27.2431122
 21
-4.5856924
  0
LINE
  5
134
100
AcDbEntity
  8
0
  6
CONTINUOUS
 62
    7
370
   25
100
AcDbLine
 10
27.2431122
 20
-4.5856924
 11
27.1917
 21
-4.495561
  0
LINE
  5
135
100
AcDbEntity
  8
0
  6
CONTINUOUS
 62
    7
370
   25
100
AcDbLine
 10
27.1917
 20
-4.495561
 11
27.1585289
 21
-4.409795
  0
LINE
  5
136
100
AcDbEntity
  8
0
  6
CONTINUOUS
 62
    7
370
   25
100
AcDbLine
 10
27.1585289
 20
-4.409795
 11
27.1431205
 21
-4.3297232
  0
LINE
  5
137
100
AcDbEntity
  8
0
  6
CONTINUOUS
 62
    7
370
   25
100
AcDbLine
 10
27.1431205
 20
-4.3297232
 11
27.1449193
 21
-4.2566876
  0
LINE
  5
138
100
AcDbEntity
  8
0
  6
CONTINUOUS
 62
    7
370
   25
100
AcDbLine
 10
27.1449193
 20
-4.2566876
 11
27.1632745
 21
-4.1919755
  0
LINE
  5
139
100
AcDbEntity
  8
0
  6
CONTINUOUS
 62
    7
370
   25
100
AcDbLine
 10
27.1632745
 20
-4.1919755
 11
27.178451
 21
-4.163129
  0
LINE
  5
13A
100
AcDbEntity
  8
0
  6
CONTINUOUS
 62
    7
370
   25
100
AcDbLine
 10
27.178451
 20
-4.163129
 11
27.3212003
 21
-3.9427598
  0
LINE
  5
13B
100
AcDbEntity
  8
0
  6
CONTINUOUS
 62
    7
370
   25
100
AcDbLine
 10
27.3212003
 20
-3.9427598
 11
27.4518893
 21
-3.725
  0
LINE
  5
13C
100
AcDbEntity
  8
0
  6
CONTINUOUS
 62
    7
370
   25
100
AcDbLine
 10
27.4518893
 20
-3.725
 11
27.5751303
 21
-3.5029402
  0
LINE
  5
13D
100
AcDbEntity
  8
0
  6
CONTINUOUS
 62
    7
370
   25
100
AcDbLine
 10
27.5751303
 20
-3.5029402
 11
27.694601
 21
-3.269131
  0
LINE
  5
13E
100
AcDbEntity
  8
0
  6
CONTINUOUS
 62
    7
370
   25
100
AcDbLine
 10
27.694601
 20
-3.269131
 11
27.7119945
 21
-3.2415645
  0
LINE
  5
13F
100
AcDbEntity
  8
0
  6
CONTINUOUS
 62
    7
370
   25
100
AcDbLine
 10
27.7119945
 20
-3.2415645
 11
27.7588593
 21
-3.1933124
  0
LINE
  5
140
100
AcDbEntity
  8
0
  6
CONTINUOUS
 62
    7
370
   25
100
AcDbLine
 10
27.7588593
 20
-3.1933124
 11
27.8212105
 21
-3.1552368
  0
LINE
  5
141
100
AcDbEntity
  8
0
  6
CONTINUOUS
 62
    7
370
   25
100
AcDbLine
 10
27.8212105
 20
-3.1552368
 11
27.8982589
 21
-3.128545
  0
LINE
  5
142
100
AcDbEntity
  8
0
  6
CONTINUOUS
 62
    7
370
   25
100
AcDbLine
 10
27.8982589
 20
-3.128545
 11
27.98912
 21
-3.114389
  0
LINE
  5
143
100
AcDbEntity
  8
0
  6
CONTINUOUS
 62
    7
370
   25
100
AcDbLine
 10
27.98912
 20
-3.114389
 11
28.0928822
 21
-3.1138476
  0
LINE
  5
144
100
AcDbEntity
  8
0
  6
CONTINUOUS
 62
    7
370
   25
100
AcDbLine
 10
28.0928822
 20
-3.1138476
 11
28.2085188
 21
-3.1279792
  0
LINE
  5
145
100
AcDbEntity
  8
0
  6
CONTINUOUS
 62
    7
370
   25
100
AcDbLine
 10
28.2085188
 20
-3.1279792
 11
28.3349774
 21
-3.1577465
  0
LINE
  5
146
100
AcDbEntity
  8
0
  6
CONTINUOUS
 62
    7
370
   25
100
AcDbLine
 10
28.3349774
 20
-3.1577465
 11
28.4711276
 21
-3.2040674
  0
LINE
  5
147
100
AcDbEntity
  8
0
  6
CONTINUOUS
 62
    7
370
   25
100
AcDbLine
 10
28.4711276
 20
-3.2040674
 11
28.6157812
 21
-3.2677801
  0
LINE
  5
148
100
AcDbEntity
  8
0
  6
CONTINUOUS
 62
    7
370
   25
100
AcDbLine
 10
28.6157812
 20
-3.2677801
 11
28.7677042
 21
-3.3496617
  0
LINE
  5
149
100
AcDbEntity
  8
0
  6
CONTINUOUS
 62
    7
370
   25
100
AcDbLine
 10
28.7677042
 20
-3.3496617
 11
28.8116496
 21
-3.369006
  0
LINE
  5
14A
100
AcDbEntity
  8
0
  6
CONTINUOUS
 62
    7
370
   25
100
AcDbLine
 10
28.8116496
 20
-3.369006
 11
28.9166569
 21
-3.396088
  0
LINE
  5
14B
100
AcDbEntity
  8
0
  6
CONTINUOUS
 62
    7
370
   25
100
AcDbLine
 10
28.9166569
 20
-3.396088
 11
29.082021
 21
-3.424369
  0
LINE
  5
14C
100
AcDbEntity
  8
0
  6
CONTINUOUS
 62
    7
370
   25
100
AcDbLine
 10
29.082021
 20
-3.424369
 11
29.3067906
 21
-3.4437966
  0
LINE
  5
14D
100
AcDbEntity
  8
0
  6
CONTINUOUS
 62
    7
370
   25
100
AcDbLine
 10
29.3067906
 20
-3.4437966
 11
29.4423419
 21
-3.4471748
  0
LINE
  5
14E
100
AcDbEntity
  8
0
  6
CONTINUOUS
 62
    7
370
   25
100
AcDbLine
 10
29.4423419
 20
-3.4471748
 11
29.591386
 21
-3.444683
  0
LINE
  5
14F
100
AcDbEntity
  8
0
  6
CONTINUOUS
 62
    7
370
   25
100
AcDbLine
 10
29.591386
 20
-3.444683
 11
29.757861
 21
-3.4348998
  0
LINE
  5
150
100
AcDbEntity
  8
0
  6
CONTINUOUS
 62
    7
370
   25
100
AcDbLine
 10
29.757861
 20
-3.4348998
 11
29.9364129
 21
-3.4168587
  0
LINE
  5
151
100
AcDbEntity
  8
0
  6
CONTINUOUS
 62
    7
370
   25
100
AcDbLine
 10
29.9364129
 20
-3.4168587
 11
30.1291578
 21
-3.3891949
  0
LINE
  5
152
100
AcDbEntity
  8
0
  6
CONTINUOUS
 62
    7
370
   25
100
AcDbLine
 10
30.1291578
 20
-3.3891949
 11
30.3354545
 21
-3.3507184
  0
LINE
  5
153
100
AcDbEntity
  8
0
  6
CONTINUOUS
 62
    7
370
   25
100
AcDbLine
 10
30.3354545
 20
-3.3507184
 11
30.5544897
 21
-3.3002783
  0
LINE
  5
154
100
AcDbEntity
  8
0
  6
CONTINUOUS
 62
    7
370
   25
100
AcDbLine
 10
30.5544897
 20
-3.3002783
 11
30.7855365
 21
-3.2367737
  0
LINE
  5
155
100
AcDbEntity
  8
0
  6
CONTINUOUS
 62
    7
370
   25
100
AcDbLine
 10
30.7855365
 20
-3.2367737
 11
31.0117914
 21
-3.1643386
  0
ARC
  5
156
100
AcDbEntity
  8
0
  6
CONTINUOUS
 62
    7
370
   25
100
AcDbCircle
 10
20.9999542699
 20
1.24045e-05
 40
10.5
100
AcDbArc
 50
342.4602874604
 51
347.5397108862
  0
LINE
  5
157
100
AcDbEntity
  8
0
  6
CONTINUOUS
 62
    7
370
   25
100
AcDbLine
 10
31.252635
 20
-2.2654981
 11
31.09291
 21
-2.08964
  0
LINE
  5
158
100
AcDbEntity
  8
0
  6
CONTINUOUS
 62
    7
370
   25
100
AcDbLine
 10
31.09291
 20
-2.08964
 11
30.92457
 21
-1.91912
  0
LINE
  5
159
100
AcDbEntity
  8
0
  6
CONTINUOUS
 62
    7
370
   25
100
AcDbLine
 10
30.92457
 20
-1.91912
 11
30.7601
 21
-1.76592
  0
LINE
  5
15A
100
AcDbEntity
  8
0
  6
CONTINUOUS
 62
    7
370
   25
100
AcDbLine
 10
30.7601
 20
-1.76592
 11
30.60068
 21
-1.62945
  0
LINE
  5
15B
100
AcDbEntity
  8
0
  6
CONTINUOUS
 62
    7
370
   25
100
AcDbLine
 10
30.60068
 20
-1.62945
 11
30.44759
 21
-1.50912
  0
LINE
  5
15C
100
AcDbEntity
  8
0
  6
CONTINUOUS
 62
    7
370
   25
100
AcDbLine
 10
30.44759
 20
-1.50912
 11
30.30198
 21
-1.40422
  0
LINE
  5
15D
100
AcDbEntity
  8
0
  6
CONTINUOUS
 62
    7
370
   25
100
AcDbLine
 10
30.30198
 20
-1.40422
 11
30.1627
 21
-1.31251
  0
LINE
  5
15E
100
AcDbEntity
  8
0
  6
CONTINUOUS
 62
    7
370
   25
100
AcDbLine
 10
30.1627
 20
-1.31251
 11
30.03487
 21
-1.23583
  0
LINE
  5
15F
100
AcDbEntity
  8
0
  6
CONTINUOUS
 62
    7
370
   25
100
AcDbLine
 10
30.03487
 20
-1.23583
 11
29.91579
 21
-1.17098
  0
LINE
  5
160
100
AcDbEntity
  8
0
  6
CONTINUOUS
 62
    7
370
   25
100
AcDbLine
 10
29.91579
 20
-1.17098
 11
29.71142
 21
-1.07542
  0
LINE
  5
161
100
AcDbEntity
  8
0
  6
CONTINUOUS
 62
    7
370
   25
100
AcDbLine
 10
29.71142
 20
-1.07542
 11
29.55407
 21
-1.01723
  0
LINE
  5
162
100
AcDbEntity
  8
0
  6
CONTINUOUS
 62
    7
370
   25
100
AcDbLine
 10
29.55407
 20
-1.01723
 11
29.44959
 21
-0.9881799999999999
  0
LINE
  5
163
100
AcDbEntity
  8
0
  6
CONTINUOUS
 62
    7
370
   25
100
AcDbLine
 10
29.44959
 20
-0.9881799999999999
 11
29.40186
 21
-0.9829599999999999
  0
LINE
  5
164
100
AcDbEntity
  8
0
  6
CONTINUOUS
 62
    7
370
   25
100
AcDbLine
 10
29.40186
 20
-0.9829599999999999
 11
29.22935
 21
-0.9779099999999999
  0
LINE
  5
165
100
AcDbEntity
  8
0
  6
CONTINUOUS
 62
    7
370
   25
100
AcDbLine
 10
29.22935
 20
-0.9779099999999999
 11
29.07222
 21
-0.9607599999999999
  0
LINE
  5
166
100
AcDbEntity
  8
0
  6
CONTINUOUS
 62
    7
370
   25
100
AcDbLine
 10
29.07222
 20
-0.9607599999999999
 11
28.93115
 21
-0.9328
  0
LINE
  5
167
100
AcDbEntity
  8
0
  6
CONTINUOUS
 62
    7
370
   25
100
AcDbLine
 10
28.93115
 20
-0.9328
 11
28.80675
 21
-0.89535
  0
LINE
  5
168
100
AcDbEntity
  8
0
  6
CONTINUOUS
 62
    7
370
   25
100
AcDbLine
 10
28.80675
 20
-0.89535
 11
28.69954
 21
-0.84977
  0
LINE
  5
169
100
AcDbEntity
  8
0
  6
CONTINUOUS
 62
    7
370
   25
100
AcDbLine
 10
28.69954
 20
-0.84977
 11
28.60995
 21
-0.79742
  0
LINE
  5
16A
100
AcDbEntity
  8
0
  6
CONTINUOUS
 62
    7
370
   25
100
AcDbLine
 10
28.60995
 20
-0.79742
 11
28.53834
 21
-0.73973
  0
LINE
  5
16B
100
AcDbEntity
  8
0
  6
CONTINUOUS
 62
    7
370
   25
100
AcDbLine
 10
28.53834
 20
-0.73973
 11
28.48496
 21
-0.67809
  0
LINE
  5
16C
100
AcDbEntity
  8
0
  6
CONTINUOUS
 62
    7
370
   25
100
AcDbLine
 10
28.48496
 20
-0.67809
 11
28.45
 21
-0.61394
  0
LINE
  5
16D
100
AcDbEntity
  8
0
  6
CONTINUOUS
 62
    7
370
   25
100
AcDbLine
 10
28.45
 20
-0.61394
 11
28.43354
 21
-0.54872
  0
LINE
  5
16E
100
AcDbEntity
  8
0
  6
CONTINUOUS
 62
    7
370
   25
100
AcDbLine
 10
28.43354
 20
-0.54872
 11
28.43226
 21
-0.51615
  0
LINE
  5
16F
100
AcDbEntity
  8
0
  6
CONTINUOUS
 62
    7
370
   25
100
AcDbLine
 10
28.43226
 20
-0.51615
 11
28.4457
 21
-0.25393
  0
LINE
  5
170
100
AcDbEntity
  8
0
  6
CONTINUOUS
 62
    7
370
   25
100
AcDbLine
 10
28.4457
 20
-0.25393
 11
28.45
 21
0
  0
LINE
  5
171
100
AcDbEntity
  8
0
  6
CONTINUOUS
 62
    7
370
   25
100
AcDbLine
 10
28.45
 20
0
 11
28.4457
 21
0.25393
  0
LINE
  5
172
100
AcDbEntity
  8
0
  6
CONTINUOUS
 62
    7
370
   25
100
AcDbLine
 10
28.4457
 20
0.25393
 11
28.43226
 21
0.51615
  0
LINE
  5
173
100
AcDbEntity
  8
0
  6
CONTINUOUS
 62
    7
370
   25
100
AcDbLine
 10
28.43226
 20
0.51615
 11
28.43354
 21
0.54872
  0
LINE
  5
174
100
AcDbEntity
  8
0
  6
CONTINUOUS
 62
    7
370
   25
100
AcDbLine
 10
28.43354
 20
0.54872
 11
28.45
 21
0.61394
  0
LINE
  5
175
100
AcDbEntity
  8
0
  6
CONTINUOUS
 62
    7
370
   25
100
AcDbLine
 10
28.45
 20
0.61394
 11
28.48496
 21
0.67809
  0
LINE
  5
176
100
AcDbEntity
  8
0
  6
CONTINUOUS
 62
    7
370
   25
100
AcDbLine
 10
28.48496
 20
0.67809
 11
28.53834
 21
0.73973
  0
LINE
  5
177
100
AcDbEntity
  8
0
  6
CONTINUOUS
 62
    7
370
   25
100
AcDbLine
 10
28.53834
 20
0.73973
 11
28.60995
 21
0.79742
  0
LINE
  5
178
100
AcDbEntity
  8
0
  6
CONTINUOUS
 62
    7
370
   25
100
AcDbLine
 10
28.60995
 20
0.79742
 11
28.69954
 21
0.84977
  0
LINE
  5
179
100
AcDbEntity
  8
0
  6
CONTINUOUS
 62
    7
370
   25
100
AcDbLine
 10
28.69954
 20
0.84977
 11
28.80675
 21
0.89535
  0
LINE
  5
17A
100
AcDbEntity
  8
0
  6
CONTINUOUS
 62
    7
370
   25
100
AcDbLine
 10
28.80675
 20
0.89535
 11
28.93115
 21
0.9328
  0
LINE
  5
17B
100
AcDbEntity
  8
0
  6
CONTINUOUS
 62
    7
370
   25
100
AcDbLine
 10
28.93115
 20
0.9328
 11
29.07222
 21
0.9607599999999999
  0
LINE
  5
17C
100
AcDbEntity
  8
0
  6
CONTINUOUS
 62
    7
370
   25
100
AcDbLine
 10
29.07222
 20
0.9607599999999999
 11
29.22935
 21
0.9779099999999999
  0
LINE
  5
17D
100
AcDbEntity
  8
0
  6
CONTINUOUS
 62
    7
370
   25
100
AcDbLine
 10
29.22935
 20
0.9779099999999999
 11
29.40186
 21
0.9829599999999999
  0
LINE
  5
17E
100
AcDbEntity
  8
0
  6
CONTINUOUS
 62
    7
370
   25
100
AcDbLine
 10
29.40186
 20
0.9829599999999999
 11
29.44959
 21
0.9881799999999999
  0
LINE
  5
17F
100
AcDbEntity
  8
0
  6
CONTINUOUS
 62
    7
370
   25
100
AcDbLine
 10
29.44959
 20
0.9881799999999999
 11
29.55407
 21
1.01723
  0
LINE
  5
180
100
AcDbEntity
  8
0
  6
CONTINUOUS
 62
    7
370
   25
100
AcDbLine
 10
29.55407
 20
1.01723
 11
29.71142
 21
1.07542
  0
LINE
  5
181
100
AcDbEntity
  8
0
  6
CONTINUOUS
 62
    7
370
   25
100
AcDbLine
 10
29.71142
 20
1.07542
 11
29.91579
 21
1.17098
  0
LINE
  5
182
100
AcDbEntity
  8
0
  6
CONTINUOUS
 62
    7
370
   25
100
AcDbLine
 10
29.91579
 20
1.17098
 11
30.03487
 21
1.23583
  0
LINE
  5
183
100
AcDbEntity
  8
0
  6
CONTINUOUS
 62
    7
370
   25
100
AcDbLine
 10
30.03487
 20
1.23583
 11
30.1627
 21
1.31251
  0
LINE
  5
184
100
AcDbEntity
  8
0
  6
CONTINUOUS
 62
    7
370
   25
100
AcDbLine
 10
30.1627
 20
1.31251
 11
30.30198
 21
1.40422
  0
LINE
  5
185
100
AcDbEntity
  8
0
  6
CONTINUOUS
 62
    7
370
   25
100
AcDbLine
 10
30.30198
 20
1.40422
 11
30.44759
 21
1.50912
  0
LINE
  5
186
100
AcDbEntity
  8
0
  6
CONTINUOUS
 62
    7
370
   25
100
AcDbLine
 10
30.44759
 20
1.50912
 11
30.60068
 21
1.62945
  0
LINE
  5
187
100
AcDbEntity
  8
0
  6
CONTINUOUS
 62
    7
370
   25
100
AcDbLine
 10
30.60068
 20
1.62945
 11
30.7601
 21
1.76592
  0
LINE
  5
188
100
AcDbEntity
  8
0
  6
CONTINUOUS
 62
    7
370
   25
100
AcDbLine
 10
30.7601
 20
1.76592
 11
30.92457
 21
1.91912
  0
LINE
  5
189
100
AcDbEntity
  8
0
  6
CONTINUOUS
 62
    7
370
   25
100
AcDbLine
 10
30.92457
 20
1.91912
 11
31.09291
 21
2.08964
  0
LINE
  5
18A
100
AcDbEntity
  8
0
  6
CONTINUOUS
 62
    7
370
   25
100
AcDbLine
 10
31.09291
 20
2.08964
 11
31.252635
 21
2.2654981
  0
ARC
  5
18B
100
AcDbEntity
  8
0
  6
CONTINUOUS
 62
    7
370
   25
100
AcDbCircle
 10
20.9999542699
 20
-1.24045e-05
 40
10.5
100
AcDbArc
 50
12.4602891138
 51
17.5397125396
  0
LINE
  5
18C
100
AcDbEntity
  8
0
  6
CONTINUOUS
 62
    7
370
   25
100
AcDbLine
 10
31.0117914
 20
3.1643386
 11
30.7855365
 21
3.2367737
  0
LINE
  5
18D
100
AcDbEntity
  8
0
  6
CONTINUOUS
 62
    7
370
   25
100
AcDbLine
 10
30.7855365
 20
3.2367737
 11
30.5544897
 21
3.3002783
  0
LINE
  5
18E
100
AcDbEntity
  8
0
  6
CONTINUOUS
 62
    7
370
   25
100
AcDbLine
 10
30.5544897
 20
3.3002783
 11
30.3354545
 21
3.3507184
  0
LINE
  5
18F
100
AcDbEntity
  8
0
  6
CONTINUOUS
 62
    7
370
   25
100
AcDbLine
 10
30.3354545
 20
3.3507184
 11
30.1291578
 21
3.3891949
  0
LINE
  5
190
100
AcDbEntity
  8
0
  6
CONTINUOUS
 62
    7
370
   25
100
AcDbLine
 10
30.1291578
 20
3.3891949
 11
29.9364129
 21
3.4168587
  0
LINE
  5
191
100
AcDbEntity
  8
0
  6
CONTINUOUS
 62
    7
370
   25
100
AcDbLine
 10
29.9364129
 20
3.4168587
 11
29.757861
 21
3.4348998
  0
LINE
  5
192
100
AcDbEntity
  8
0
  6
CONTINUOUS
 62
    7
370
   25
100
AcDbLine
 10
29.757861
 20
3.4348998
 11
29.591386
 21
3.444683
  0
LINE
  5
193
100
AcDbEntity
  8
0
  6
CONTINUOUS
 62
    7
370
   25
100
AcDbLine
 10
29.591386
 20
3.444683
 11
29.4423419
 21
3.4471748
  0
LINE
  5
194
100
AcDbEntity
  8
0
  6
CONTINUOUS
 62
    7
370
   25
100
AcDbLine
 10
29.4423419
 20
3.4471748
 11
29.3067906
 21
3.4437966
  0
LINE
  5
195
100
AcDbEntity
  8
0
  6
CONTINUOUS
 62
    7
370
   25
100
AcDbLine
 10
29.3067906
 20
3.4437966
 11
29.082021
 21
3.424369
  0
LINE
  5
196
100
AcDbEntity
  8
0
  6
CONTINUOUS
 62
    7
370
   25
100
AcDbLine
 10
29.082021
 20
3.424369
 11
28.9166569
 21
3.396088
  0
LINE
  5
197
100
AcDbEntity
  8
0
  6
CONTINUOUS
 62
    7
370
   25
100
AcDbLine
 10
28.9166569
 20
3.396088
 11
28.8116496
 21
3.369006
  0
LINE
  5
198
100
AcDbEntity
  8
0
  6
CONTINUOUS
 62
    7
370
   25
100
AcDbLine
 10
28.8116496
 20
3.369006
 11
28.7677042
 21
3.3496617
  0
LINE
  5
199
100
AcDbEntity
  8
0
  6
CONTINUOUS
 62
    7
370
   25
100
AcDbLine
 10
28.7677042
 20
3.3496617
 11
28.6157812
 21
3.2677801
  0
LINE
  5
19A
100
AcDbEntity
  8
0
  6
CONTINUOUS
 62
    7
370
   25
100
AcDbLine
 10
28.6157812
 20
3.2677801
 11
28.4711276
 21
3.2040674
  0
LINE
  5
19B
100
AcDbEntity
  8
0
  6
CONTINUOUS
 62
    7
370
   25
100
AcDbLine
 10
28.4711276
 20
3.2040674
 11
28.3349774
 21
3.1577465
  0
LINE
  5
19C
100
AcDbEntity
  8
0
  6
CONTINUOUS
 62
    7
370
   25
100
AcDbLine
 10
28.3349774
 20
3.1577465
 11
28.2085188
 21
3.1279792
  0
LINE
  5
19D
100
AcDbEntity
  8
0
  6
CONTINUOUS
 62
    7
370
   25
100
AcDbLine
 10
28.2085188
 20
3.1279792
 11
28.0928822
 21
3.1138476
  0
LINE
  5
19E
100
AcDbEntity
  8
0
  6
CONTINUOUS
 62
    7
370
   25
100
AcDbLine
 10
28.0928822
 20
3.1138476
 11
27.98912
 21
3.114389
  0
LINE
  5
19F
100
AcDbEntity
  8
0
  6
CONTINUOUS
 62
    7
370
   25
100
AcDbLine
 10
27.98912
 20
3.114389
 11
27.8982589
 21
3.128545
  0
LINE
  5
1A0
100
AcDbEntity
  8
0
  6
CONTINUOUS
 62
    7
370
   25
100
AcDbLine
 10
27.8982589
 20
3.128545
 11
27.8212105
 21
3.1552368
  0
LINE
  5
1A1
100
AcDbEntity
  8
0
  6
CONTINUOUS
 62
    7
370
   25
100
AcDbLine
 10
27.8212105
 20
3.1552368
 11
27.7588593
 21
3.1933124
  0
LINE
  5
1A2
100
AcDbEntity
  8
0
  6
CONTINUOUS
 62
    7
370
   25
100
AcDbLine
 10
27.7588593
 20
3.1933124
 11
27.7119945
 21
3.2415645
  0
LINE
  5
1A3
100
AcDbEntity
  8
0
  6
CONTINUOUS
 62
    7
370
   25
100
AcDbLine
 10
27.7119945
 20
3.2415645
 11
27.694601
 21
3.269131
  0
LINE
  5
1A4
100
AcDbEntity
  8
0
  6
CONTINUOUS
 62
    7
370
   25
100
AcDbLine
 10
27.694601
 20
3.269131
 11
27.5751303
 21
3.5029402
  0
LINE
  5
1A5
100
AcDbEntity
  8
0
  6
CONTINUOUS
 62
    7
370
   25
100
AcDbLine
 10
27.5751303
 20
3.5029402
 11
27.4518893
 21
3.725
  0
LINE
  5
1A6
100
AcDbEntity
  8
0
  6
CONTINUOUS
 62
    7
370
   25
100
AcDbLine
 10
27.4518893
 20
3.725
 11
27.3212003
 21
3.9427598
  0
LINE
  5
1A7
100
AcDbEntity
  8
0
  6
CONTINUOUS
 62
    7
370
   25
100
AcDbLine
 10
27.3212003
 20
3.9427598
 11
27.178451
 21
4.163129
  0
LINE
  5
1A8
100
AcDbEntity
  8
0
  6
CONTINUOUS
 62
    7
370
   25
100
AcDbLine
 10
27.178451
 20
4.163129
 11
27.1632745
 21
4.1919755
  0
LINE
  5
1A9
100
AcDbEntity
  8
0
  6
CONTINUOUS
 62
    7
370
   25
100
AcDbLine
 10
27.1632745
 20
4.1919755
 11
27.1449193
 21
4.2566876
  0
LINE
  5
1AA
100
AcDbEntity
  8
0
  6
CONTINUOUS
 62
    7
370
   25
100
AcDbLine
 10
27.1449193
 20
4.2566876
 11
27.1431205
 21
4.3297232
  0
LINE
  5
1AB
100
AcDbEntity
  8
0
  6
CONTINUOUS
 62
    7
370
   25
100
AcDbLine
 10
27.1431205
 20
4.3297232
 11
27.1585289
 21
4.409795
  0
LINE
  5
1AC
100
AcDbEntity
  8
0
  6
CONTINUOUS
 62
    7
370
   25
100
AcDbLine
 10
27.1585289
 20
4.409795
 11
27.1917
 21
4.495561
  0
LINE
  5
1AD
100
AcDbEntity
  8
0
  6
CONTINUOUS
 62
    7
370
   25
100
AcDbLine
 10
27.1917
 20
4.495561
 11
27.2431122
 21
4.5856924
  0
LINE
  5
1AE
100
AcDbEntity
  8
0
  6
CONTINUOUS
 62
    7
370
   25
100
AcDbLine
 10
27.2431122
 20
4.5856924
 11
27.3131688
 21
4.6787708
  0
LINE
  5
1AF
100
AcDbEntity
  8
0
  6
CONTINUOUS
 62
    7
370
   25
100
AcDbLine
 10
27.3131688
 20
4.6787708
 11
27.4021774
 21
4.7734035
  0
LINE
  5
1B0
100
AcDbEntity
  8
0
  6
CONTINUOUS
 62
    7
370
   25
100
AcDbLine
 10
27.4021774
 20
4.7734035
 11
27.5103676
 21
4.8681526
  0
LINE
  5
1B1
100
AcDbEntity
  8
0
  6
CONTINUOUS
 62
    7
370
   25
100
AcDbLine
 10
27.5103676
 20
4.8681526
 11
27.6378712
 21
4.9615699
  0
LINE
  5
1B2
100
AcDbEntity
  8
0
  6
CONTINUOUS
 62
    7
370
   25
100
AcDbLine
 10
27.6378712
 20
4.9615699
 11
27.7847442
 21
5.0521983
  0
LINE
  5
1B3
100
AcDbEntity
  8
0
  6
CONTINUOUS
 62
    7
370
   25
100
AcDbLine
 10
27.7847442
 20
5.0521983
 11
27.8234696
 21
5.080584
  0
LINE
  5
1B4
100
AcDbEntity
  8
0
  6
CONTINUOUS
 62
    7
370
   25
100
AcDbLine
 10
27.8234696
 20
5.080584
 11
27.8994269
 21
5.157982
  0
LINE
  5
1B5
100
AcDbEntity
  8
0
  6
CONTINUOUS
 62
    7
370
   25
100
AcDbLine
 10
27.8994269
 20
5.157982
 11
28.006601
 21
5.287051
  0
LINE
  5
1B6
100
AcDbEntity
  8
0
  6
CONTINUOUS
 62
    7
370
   25
100
AcDbLine
 10
28.006601
 20
5.287051
 11
28.1358106
 21
5.4719934
  0
LINE
  5
1B7
100
AcDbEntity
  8
0
  6
CONTINUOUS
 62
    7
370
   25
100
AcDbLine
 10
28.1358106
 20
5.4719934
 11
28.2065119
 21
5.5876952
  0
LINE
  5
1B8
100
AcDbEntity
  8
0
  6
CONTINUOUS
 62
    7
370
   25
100
AcDbLine
 10
28.2065119
 20
5.5876952
 11
28.278876
 21
5.718017
  0
LINE
  5
1B9
100
AcDbEntity
  8
0
  6
CONTINUOUS
 62
    7
370
   25
100
AcDbLine
 10
28.278876
 20
5.718017
 11
28.353641
 21
5.8670802
  0
LINE
  5
1BA
100
AcDbEntity
  8
0
  6
CONTINUOUS
 62
    7
370
   25
100
AcDbLine
 10
28.353641
 20
5.8670802
 11
28.4272929
 21
6.0307313
  0
LINE
  5
1BB
100
AcDbEntity
  8
0
  6
CONTINUOUS
 62
    7
370
   25
100
AcDbLine
 10
28.4272929
 20
6.0307313
 11
28.4997078
 21
6.2114851
  0
LINE
  5
1BC
100
AcDbEntity
  8
0
  6
CONTINUOUS
 62
    7
370
   25
100
AcDbLine
 10
28.4997078
 20
6.2114851
 11
28.5695345
 21
6.4093816
  0
LINE
  5
1BD
100
AcDbEntity
  8
0
  6
CONTINUOUS
 62
    7
370
   25
100
AcDbLine
 10
28.5695345
 20
6.4093816
 11
28.6353697
 21
6.6242917
  0
LINE
  5
1BE
100
AcDbEntity
  8
0
  6
CONTINUOUS
 62
    7
370
   25
100
AcDbLine
 10
28.6353697
 20
6.6242917
 11
28.6958965
 21
6.8561363
  0
LINE
  5
1BF
100
AcDbEntity
  8
0
  6
CONTINUOUS
 62
    7
370
   25
100
AcDbLine
 10
28.6958965
 20
6.8561363
 11
28.7462933
 21
7.0882964
  0
ARC
  5
1C0
100
AcDbEntity
  8
0
  6
CONTINUOUS
 62
    7
370
   25
100
AcDbCircle
 10
20.9999664887
 20
-3.35113e-05
 40
10.5
100
AcDbArc
 50
42.4602883506
 51
47.5397116494
  0
LINE
  5
1C1
100
AcDbEntity
  8
0
  6
CONTINUOUS
 62
    7
370
   25
100
AcDbLine
 10
28.0882964
 20
7.7462933
 11
27.8561363
 21
7.6958965
  0
LINE
  5
1C2
100
AcDbEntity
  8
0
  6
CONTINUOUS
 62
    7
370
   25
100
AcDbLine
 10
27.8561363
 20
7.6958965
 11
27.6242917
 21
7.6353697
  0
LINE
  5
1C3
100
AcDbEntity
  8
0
  6
CONTINUOUS
 62
    7
370
   25
100
AcDbLine
 10
27.6242917
 20
7.6353697
 11
27.4093816
 21
7.5695345
  0
LINE
  5
1C4
100
AcDbEntity
  8
0
  6
CONTINUOUS
 62
    7
370
   25
100
AcDbLine
 10
27.4093816
 20
7.5695345
 11
27.2114851
 21
7.4997078
  0
LINE
  5
1C5
100
AcDbEntity
  8
0
  6
CONTINUOUS
 62
    7
370
   25
100
AcDbLine
 10
27.2114851
 20
7.4997078
 11
27.0307313
 21
7.4272929
  0
LINE
  5
1C6
100
AcDbEntity
  8
0
  6
CONTINUOUS
 62
    7
370
   25
100
AcDbLine
 10
27.0307313
 20
7.4272929
 11
26.8670802
 21
7.353641
  0
LINE
  5
1C7
100
AcDbEntity
  8
0
  6
CONTINUOUS
 62
    7
370
   25
100
AcDbLine
 10
26.8670802
 20
7.353641
 11
26.718017
 21
7.278876
  0
LINE
  5
1C8
100
AcDbEntity
  8
0
  6
CONTINUOUS
 62
    7
370
   25
100
AcDbLine
 10
26.718017
 20
7.278876
 11
26.5876952
 21
7.2065119
  0
LINE
  5
1C9
100
AcDbEntity
  8
0
  6
CONTINUOUS
 62
    7
370
   25
100
AcDbLine
 10
26.5876952
 20
7.2065119
 11
26.4719934
 21
7.1358106
  0
LINE
  5
1CA
100
AcDbEntity
  8
0
  6
CONTINUOUS
 62
    7
370
   25
100
AcDbLine
 10
26.4719934
 20
7.1358106
 11
26.287051
 21
7.006601
  0
LINE
  5
1CB
100
AcDbEntity
  8
0
  6
CONTINUOUS
 62
    7
370
   25
100
AcDbLine
 10
26.287051
 20
7.006601
 11
26.157982
 21
6.8994269
  0
LINE
  5
1CC
100
AcDbEntity
  8
0
  6
CONTINUOUS
 62
    7
370
   25
100
AcDbLine
 10
26.157982
 20
6.8994269
 11
26.080584
 21
6.8234696
  0
LINE
  5
1CD
100
AcDbEntity
  8
0
  6
CONTINUOUS
 62
    7
370
   25
100
AcDbLine
 10
26.080584
 20
6.8234696
 11
26.0521983
 21
6.7847442
  0
LINE
  5
1CE
100
AcDbEntity
  8
0
  6
CONTINUOUS
 62
    7
370
   25
100
AcDbLine
 10
26.0521983
 20
6.7847442
 11
25.9615699
 21
6.6378712
  0
LINE
  5
1CF
100
AcDbEntity
  8
0
  6
CONTINUOUS
 62
    7
370
   25
100
AcDbLine
 10
25.9615699
 20
6.6378712
 11
25.8681526
 21
6.5103676
  0
LINE
  5
1D0
100
AcDbEntity
  8
0
  6
CONTINUOUS
 62
    7
370
   25
100
AcDbLine
 10
25.8681526
 20
6.5103676
 11
25.7734035
 21
6.4021774
  0
LINE
  5
1D1
100
AcDbEntity
  8
0
  6
CONTINUOUS
 62
    7
370
   25
100
AcDbLine
 10
25.7734035
 20
6.4021774
 11
25.6787708
 21
6.3131688
  0
LINE
  5
1D2
100
AcDbEntity
  8
0
  6
CONTINUOUS
 62
    7
370
   25
100
AcDbLine
 10
25.6787708
 20
6.3131688
 11
25.5856924
 21
6.2431122
  0
LINE
  5
1D3
100
AcDbEntity
  8
0
  6
CONTINUOUS
 62
    7
370
   25
100
AcDbLine
 10
25.5856924
 20
6.2431122
 11
25.495561
 21
6.1917
  0
LINE
  5
1D4
100
AcDbEntity
  8
0
  6
CONTINUOUS
 62
    7
370
   25
100
AcDbLine
 10
25.495561
 20
6.1917
 11
25.409795
 21
6.1585289
  0
LINE
  5
1D5
100
AcDbEntity
  8
0
  6
CONTINUOUS
 62
    7
370
   25
100
AcDbLine
 10
25.409795
 20
6.1585289
 11
25.3297232
 21
6.1431205
  0
LINE
  5
1D6
100
AcDbEntity
  8
0
  6
CONTINUOUS
 62
    7
370
   25
100
AcDbLine
 10
25.3297232
 20
6.1431205
 11
25.2566876
 21
6.1449193
  0
LINE
  5
1D7
100
AcDbEntity
  8
0
  6
CONTINUOUS
 62
    7
370
   25
100
AcDbLine
 10
25.2566876
 20
6.1449193
 11
25.1919755
 21
6.1632745
  0
LINE
  5
1D8
100
AcDbEntity
  8
0
  6
CONTINUOUS
 62
    7
370
   25
100
AcDbLine
 10
25.1919755
 20
6.1632745
 11
25.163129
 21
6.178451
  0
LINE
  5
1D9
100
AcDbEntity
  8
0
  6
CONTINUOUS
 62
    7
370
   25
100
AcDbLine
 10
25.163129
 20
6.178451
 11
24.9427598
 21
6.3212003
  0
LINE
  5
1DA
100
AcDbEntity
  8
0
  6
CONTINUOUS
 62
    7
370
   25
100
AcDbLine
 10
24.9427598
 20
6.3212003
 11
24.725
 21
6.4518893
  0
LINE
  5
1DB
100
AcDbEntity
  8
0
  6
CONTINUOUS
 62
    7
370
   25
100
AcDbLine
 10
24.725
 20
6.4518893
 11
24.5029402
 21
6.5751303
  0
LINE
  5
1DC
100
AcDbEntity
  8
0
  6
CONTINUOUS
 62
    7
370
   25
100
AcDbLine
 10
24.5029402
 20
6.5751303
 11
24.269131
 21
6.694601
  0
LINE
  5
1DD
100
AcDbEntity
  8
0
  6
CONTINUOUS
 62
    7
370
   25
100
AcDbLine
 10
24.269131
 20
6.694601
 11
24.2415645
 21
6.7119945
  0
LINE
  5
1DE
100
AcDbEntity
  8
0
  6
CONTINUOUS
 62
    7
370
   25
100
AcDbLine
 10
24.2415645
 20
6.7119945
 11
24.1933124
 21
6.7588593
  0
LINE
  5
1DF
100
AcDbEntity
  8
0
  6
CONTINUOUS
 62
    7
370
   25
100
AcDbLine
 10
24.1933124
 20
6.7588593
 11
24.1552368
 21
6.8212105
  0
LINE
  5
1E0
100
AcDbEntity
  8
0
  6
CONTINUOUS
 62
    7
370
   25
100
AcDbLine
 10
24.1552368
 20
6.8212105
 11
24.128545
 21
6.8982589
  0
LINE
  5
1E1
100
AcDbEntity
  8
0
  6
CONTINUOUS
 62
    7
370
   25
100
AcDbLine
 10
24.128545
 20
6.8982589
 11
24.114389
 21
6.98912
  0
LINE
  5
1E2
100
AcDbEntity
  8
0
  6
CONTINUOUS
 62
    7
370
   25
100
AcDbLine
 10
24.114389
 20
6.98912
 11
24.1138476
 21
7.0928822
  0
LINE
  5
1E3
100
AcDbEntity
  8
0
  6
CONTINUOUS
 62
    7
370
   25
100
AcDbLine
 10
24.1138476
 20
7.0928822
 11
24.1279792
 21
7.2085188
  0
LINE
  5
1E4
100
AcDbEntity
  8
0
  6
CONTINUOUS
 62
    7
370
   25
100
AcDbLine
 10
24.1279792
 20
7.2085188
 11
24.1577465
 21
7.3349774
  0
LINE
  5
1E5
100
AcDbEntity
  8
0
  6
CONTINUOUS
 62
    7
370
   25
100
AcDbLine
 10
24.1577465
 20
7.3349774
 11
24.2040674
 21
7.4711276
  0
LINE
  5
1E6
100
AcDbEntity
  8
0
  6
CONTINUOUS
 62
    7
370
   25
100
AcDbLine
 10
24.2040674
 20
7.4711276
 11
24.2677801
 21
7.6157812
  0
LINE
  5
1E7
100
AcDbEntity
  8
0
  6
CONTINUOUS
 62
    7
370
   25
100
AcDbLine
 10
24.2677801
 20
7.6157812
 11
24.3496617
 21
7.7677042
  0
LINE
  5
1E8
100
AcDbEntity
  8
0
  6
CONTINUOUS
 62
    7
370
   25
100
AcDbLine
 10
24.3496617
 20
7.7677042
 11
24.369006
 21
7.8116496
  0
LINE
  5
1E9
100
AcDbEntity
  8
0
  6
CONTINUOUS
 62
    7
370
   25
100
AcDbLine
 10
24.369006
 20
7.8116496
 11
24.396088
 21
7.9166569
  0
LINE
  5
1EA
100
AcDbEntity
  8
0
  6
CONTINUOUS
 62
    7
370
   25
100
AcDbLine
 10
24.396088
 20
7.9166569
 11
24.424369
 21
8.082020999999999
  0
LINE
  5
1EB
100
AcDbEntity
  8
0
  6
CONTINUOUS
 62
    7
370
   25
100
AcDbLine
 10
24.424369
 20
8.082020999999999
 11
24.4437966
 21
8.306790599999999
  0
LINE
  5
1EC
100
AcDbEntity
  8
0
  6
CONTINUOUS
 62
    7
370
   25
100
AcDbLine
 10
24.4437966
 20
8.306790599999999
 11
24.4471748
 21
8.442341900000001
  0
LINE
  5
1ED
100
AcDbEntity
  8
0
  6
CONTINUOUS
 62
    7
370
   25
100
AcDbLine
 10
24.4471748
 20
8.442341900000001
 11
24.444683
 21
8.591386
  0
LINE
  5
1EE
100
AcDbEntity
  8
0
  6
CONTINUOUS
 62
    7
370
   25
100
AcDbLine
 10
24.444683
 20
8.591386
 11
24.4348998
 21
8.757861
  0
LINE
  5
1EF
100
AcDbEntity
  8
0
  6
CONTINUOUS
 62
    7
370
   25
100
AcDbLine
 10
24.4348998
 20
8.757861
 11
24.4168587
 21
8.936412900000001
  0
LINE
  5
1F0
100
AcDbEntity
  8
0
  6
CONTINUOUS
 62
    7
370
   25
100
AcDbLine
 10
24.4168587
 20
8.936412900000001
 11
24.3891949
 21
9.1291578
  0
LINE
  5
1F1
100
AcDbEntity
  8
0
  6
CONTINUOUS
 62
    7
370
   25
100
AcDbLine
 10
24.3891949
 20
9.1291578
 11
24.3507184
 21
9.335454500000001
  0
LINE
  5
1F2
100
AcDbEntity
  8
0
  6
CONTINUOUS
 62
    7
370
   25
100
AcDbLine
 10
24.3507184
 20
9.335454500000001
 11
24.3002783
 21
9.5544897
  0
LINE
  5
1F3
100
AcDbEntity
  8
0
  6
CONTINUOUS
 62
    7
370
   25
100
AcDbLine
 10
24.3002783
 20
9.5544897
 11
24.2367737
 21
9.785536499999999
  0
LINE
  5
1F4
100
AcDbEntity
  8
0
  6
CONTINUOUS
 62
    7
370
   25
100
AcDbLine
 10
24.2367737
 20
9.785536499999999
 11
24.1643386
 21
10.0117914
  0
ARC
  5
1F5
100
AcDbEntity
  8
0
  6
CONTINUOUS
 62
    7
370
   25
100
AcDbCircle
 10
20.9999875955
 20
-4.57301e-05
 40
10.5
100
AcDbArc
 50
72.4602874604
 51
77.5397108862
  0
LINE
  5
1F6
100
AcDbEntity
  8
0
  6
CONTINUOUS
 62
    7
370
   25
100
AcDbLine
 10
23.2654981
 20
10.252635
 11
23.08964
 21
10.09291
  0
LINE
  5
1F7
100
AcDbEntity
  8
0
  6
CONTINUOUS
 62
    7
370
   25
100
AcDbLine
 10
23.08964
 20
10.09291
 11
22.91912
 21
9.924569999999999
  0
LINE
  5
1F8
100
AcDbEntity
  8
0
  6
CONTINUOUS
 62
    7
370
   25
100
AcDbLine
 10
22.91912
 20
9.924569999999999
 11
22.76592
 21
9.7601
  0
LINE
  5
1F9
100
AcDbEntity
  8
0
  6
CONTINUOUS
 62
    7
370
   25
100
AcDbLine
 10
22.76592
 20
9.7601
 11
22.62945
 21
9.600680000000001
  0
LINE
  5
1FA
100
AcDbEntity
  8
0
  6
CONTINUOUS
 62
    7
370
   25
100
AcDbLine
 10
22.62945
 20
9.600680000000001
 11
22.50912
 21
9.44759
  0
LINE
  5
1FB
100
AcDbEntity
  8
0
  6
CONTINUOUS
 62
    7
370
   25
100
AcDbLine
 10
22.50912
 20
9.44759
 11
22.40422
 21
9.30198
  0
LINE
  5
1FC
100
AcDbEntity
  8
0
  6
CONTINUOUS
 62
    7
370
   25
100
AcDbLine
 10
22.40422
 20
9.30198
 11
22.31251
 21
9.162699999999999
  0
LINE
  5
1FD
100
AcDbEntity
  8
0
  6
CONTINUOUS
 62
    7
370
   25
100
AcDbLine
 10
22.31251
 20
9.162699999999999
 11
22.23583
 21
9.03487
  0
LINE
  5
1FE
100
AcDbEntity
  8
0
  6
CONTINUOUS
 62
    7
370
   25
100
AcDbLine
 10
22.23583
 20
9.03487
 11
22.17098
 21
8.915789999999999
  0
LINE
  5
1FF
100
AcDbEntity
  8
0
  6
CONTINUOUS
 62
    7
370
   25
100
AcDbLine
 10
22.17098
 20
8.915789999999999
 11
22.07542
 21
8.71142
  0
LINE
  5
200
100
AcDbEntity
  8
0
  6
CONTINUOUS
 62
    7
370
   25
100
AcDbLine
 10
22.07542
 20
8.71142
 11
22.01723
 21
8.554069999999999
  0
LINE
  5
201
100
AcDbEntity
  8
0
  6
CONTINUOUS
 62
    7
370
   25
100
AcDbLine
 10
22.01723
 20
8.554069999999999
 11
21.98818
 21
8.449590000000001
  0
LINE
  5
202
100
AcDbEntity
  8
0
  6
CONTINUOUS
 62
    7
370
   25
100
AcDbLine
 10
21.98818
 20
8.449590000000001
 11
21.98296
 21
8.401859999999999
  0
LINE
  5
203
100
AcDbEntity
  8
0
  6
CONTINUOUS
 62
    7
370
   25
100
AcDbLine
 10
21.98296
 20
8.401859999999999
 11
21.97791
 21
8.22935
  0
LINE
  5
204
100
AcDbEntity
  8
0
  6
CONTINUOUS
 62
    7
370
   25
100
AcDbLine
 10
21.97791
 20
8.22935
 11
21.96076
 21
8.07222
  0
LINE
  5
205
100
AcDbEntity
  8
0
  6
CONTINUOUS
 62
    7
370
   25
100
AcDbLine
 10
21.96076
 20
8.07222
 11
21.9328
 21
7.93115
  0
LINE
  5
206
100
AcDbEntity
  8
0
  6
CONTINUOUS
 62
    7
370
   25
100
AcDbLine
 10
21.9328
 20
7.93115
 11
21.89535
 21
7.80675
  0
LINE
  5
207
100
AcDbEntity
  8
0
  6
CONTINUOUS
 62
    7
370
   25
100
AcDbLine
 10
21.89535
 20
7.80675
 11
21.84977
 21
7.69954
  0
LINE
  5
208
100
AcDbEntity
  8
0
  6
CONTINUOUS
 62
    7
370
   25
100
AcDbLine
 10
21.84977
 20
7.69954
 11
21.79742
 21
7.60995
  0
LINE
  5
209
100
AcDbEntity
  8
0
  6
CONTINUOUS
 62
    7
370
   25
100
AcDbLine
 10
21.79742
 20
7.60995
 11
21.73973
 21
7.53834
  0
LINE
  5
20A
100
AcDbEntity
  8
0
  6
CONTINUOUS
 62
    7
370
   25
100
AcDbLine
 10
21.73973
 20
7.53834
 11
21.67809
 21
7.48496
  0
LINE
  5
20B
100
AcDbEntity
  8
0
  6
CONTINUOUS
 62
    7
370
   25
100
AcDbLine
 10
21.67809
 20
7.48496
 11
21.61394
 21
7.45
  0
LINE
  5
20C
100
AcDbEntity
  8
0
  6
CONTINUOUS
 62
    7
370
   25
100
AcDbLine
 10
21.61394
 20
7.45
 11
21.54872
 21
7.43354
  0
LINE
  5
20D
100
AcDbEntity
  8
0
  6
CONTINUOUS
 62
    7
370
   25
100
AcDbLine
 10
21.54872
 20
7.43354
 11
21.51615
 21
7.43226
  0
LINE
  5
20E
100
AcDbEntity
  8
0
  6
CONTINUOUS
 62
    7
370
   25
100
AcDbLine
 10
21.51615
 20
7.43226
 11
21.25393
 21
7.4457
  0
LINE
  5
20F
100
AcDbEntity
  8
0
  6
CONTINUOUS
 62
    7
370
   25
100
AcDbLine
 10
21.25393
 20
7.4457
 11
21
 21
7.45
  0
LINE
  5
210
100
AcDbEntity
  8
0
  6
CONTINUOUS
 62
    7
370
   25
100
AcDbLine
 10
21
 20
7.45
 11
20.74607
 21
7.4457
  0
LINE
  5
211
100
AcDbEntity
  8
0
  6
CONTINUOUS
 62
    7
370
   25
100
AcDbLine
 10
20.74607
 20
7.4457
 11
20.48385
 21
7.43226
  0
LINE
  5
212
100
AcDbEntity
  8
0
  6
CONTINUOUS
 62
    7
370
   25
100
AcDbLine
 10
20.48385
 20
7.43226
 11
20.45128
 21
7.43354
  0
LINE
  5
213
100
AcDbEntity
  8
0
  6
CONTINUOUS
 62
    7
370
   25
100
AcDbLine
 10
20.45128
 20
7.43354
 11
20.38606
 21
7.45
  0
LINE
  5
214
100
AcDbEntity
  8
0
  6
CONTINUOUS
 62
    7
370
   25
100
AcDbLine
 10
20.38606
 20
7.45
 11
20.32191
 21
7.48496
  0
LINE
  5
215
100
AcDbEntity
  8
0
  6
CONTINUOUS
 62
    7
370
   25
100
AcDbLine
 10
20.32191
 20
7.48496
 11
20.26027
 21
7.53834
  0
LINE
  5
216
100
AcDbEntity
  8
0
  6
CONTINUOUS
 62
    7
370
   25
100
AcDbLine
 10
20.26027
 20
7.53834
 11
20.20258
 21
7.60995
  0
LINE
  5
217
100
AcDbEntity
  8
0
  6
CONTINUOUS
 62
    7
370
   25
100
AcDbLine
 10
20.20258
 20
7.60995
 11
20.15023
 21
7.69954
  0
LINE
  5
218
100
AcDbEntity
  8
0
  6
CONTINUOUS
 62
    7
370
   25
100
AcDbLine
 10
20.15023
 20
7.69954
 11
20.10465
 21
7.80675
  0
LINE
  5
219
100
AcDbEntity
  8
0
  6
CONTINUOUS
 62
    7
370
   25
100
AcDbLine
 10
20.10465
 20
7.80675
 11
20.0672
 21
7.93115
  0
LINE
  5
21A
100
AcDbEntity
  8
0
  6
CONTINUOUS
 62
    7
370
   25
100
AcDbLine
 10
20.0672
 20
7.93115
 11
20.03924
 21
8.07222
  0
LINE
  5
21B
100
AcDbEntity
  8
0
  6
CONTINUOUS
 62
    7
370
   25
100
AcDbLine
 10
20.03924
 20
8.07222
 11
20.02209
 21
8.22935
  0
LINE
  5
21C
100
AcDbEntity
  8
0
  6
CONTINUOUS
 62
    7
370
   25
100
AcDbLine
 10
20.02209
 20
8.22935
 11
20.01704
 21
8.401859999999999
  0
LINE
  5
21D
100
AcDbEntity
  8
0
  6
CONTINUOUS
 62
    7
370
   25
100
AcDbLine
 10
20.01704
 20
8.401859999999999
 11
20.01182
 21
8.449590000000001
  0
LINE
  5
21E
100
AcDbEntity
  8
0
  6
CONTINUOUS
 62
    7
370
   25
100
AcDbLine
 10
20.01182
 20
8.449590000000001
 11
19.98277
 21
8.554069999999999
  0
LINE
  5
21F
100
AcDbEntity
  8
0
  6
CONTINUOUS
 62
    7
370
   25
100
AcDbLine
 10
19.98277
 20
8.554069999999999
 11
19.92458
 21
8.71142
  0
LINE
  5
220
100
AcDbEntity
  8
0
  6
CONTINUOUS
 62
    7
370
   25
100
AcDbLine
 10
19.92458
 20
8.71142
 11
19.82902
 21
8.915789999999999
  0
LINE
  5
221
100
AcDbEntity
  8
0
  6
CONTINUOUS
 62
    7
370
   25
100
AcDbLine
 10
19.82902
 20
8.915789999999999
 11
19.76417
 21
9.03487
  0
LINE
  5
222
100
AcDbEntity
  8
0
  6
CONTINUOUS
 62
    7
370
   25
100
AcDbLine
 10
19.76417
 20
9.03487
 11
19.68749
 21
9.162699999999999
  0
LINE
  5
223
100
AcDbEntity
  8
0
  6
CONTINUOUS
 62
    7
370
   25
100
AcDbLine
 10
19.68749
 20
9.162699999999999
 11
19.59578
 21
9.30198
  0
LINE
  5
224
100
AcDbEntity
  8
0
  6
CONTINUOUS
 62
    7
370
   25
100
AcDbLine
 10
19.59578
 20
9.30198
 11
19.49088
 21
9.44759
  0
LINE
  5
225
100
AcDbEntity
  8
0
  6
CONTINUOUS
 62
    7
370
   25
100
AcDbLine
 10
19.49088
 20
9.44759
 11
19.37055
 21
9.600680000000001
  0
LINE
  5
226
100
AcDbEntity
  8
0
  6
CONTINUOUS
 62
    7
370
   25
100
AcDbLine
 10
19.37055
 20
9.600680000000001
 11
19.23408
 21
9.7601
  0
LINE
  5
227
100
AcDbEntity
  8
0
  6
CONTINUOUS
 62
    7
370
   25
100
AcDbLine
 10
19.23408
 20
9.7601
 11
19.08088
 21
9.924569999999999
  0
LINE
  5
228
100
AcDbEntity
  8
0
  6
CONTINUOUS
 62
    7
370
   25
100
AcDbLine
 10
19.08088
 20
9.924569999999999
 11
18.91036
 21
10.09291
  0
LINE
  5
229
100
AcDbEntity
  8
0
  6
CONTINUOUS
 62
    7
370
   25
100
AcDbLine
 10
18.91036
 20
10.09291
 11
18.7345019
 21
10.252635
  0
ARC
  5
22A
100
AcDbEntity
  8
0
  6
CONTINUOUS
 62
    7
370
   25
100
AcDbCircle
 10
21.0000124045
 20
-4.57301e-05
 40
10.5
100
AcDbArc
 50
102.4602891138
 51
107.5397125396
  0
LINE
  5
22B
100
AcDbEntity
  8
0
  6
CONTINUOUS
 62
    7
370
   25
100
AcDbLine
 10
17.8356614
 20
10.0117914
 11
17.7632263
 21
9.785536499999999
  0
LINE
  5
22C
100
AcDbEntity
  8
0
  6
CONTINUOUS
 62
    7
370
   25
100
AcDbLine
 10
17.7632263
 20
9.785536499999999
 11
17.6997217
 21
9.5544897
  0
LINE
  5
22D
100
AcDbEntity
  8
0
  6
CONTINUOUS
 62
    7
370
   25
100
AcDbLine
 10
17.6997217
 20
9.5544897
 11
17.6492816
 21
9.335454500000001
  0
LINE
  5
22E
100
AcDbEntity
  8
0
  6
CONTINUOUS
 62
    7
370
   25
100
AcDbLine
 10
17.6492816
 20
9.335454500000001
 11
17.6108051
 21
9.1291578
  0
LINE
  5
22F
100
AcDbEntity
  8
0
  6
CONTINUOUS
 62
    7
370
   25
100
AcDbLine
 10
17.6108051
 20
9.1291578
 11
17.5831413
 21
8.936412900000001
  0
LINE
  5
230
100
AcDbEntity
  8
0
  6
CONTINUOUS
 62
    7
370
   25
100
AcDbLine
 10
17.5831413
 20
8.936412900000001
 11
17.5651002
 21
8.757861
  0
LINE
  5
231
100
AcDbEntity
  8
0
  6
CONTINUOUS
 62
    7
370
   25
100
AcDbLine
 10
17.5651002
 20
8.757861
 11
17.555317
 21
8.591386
  0
LINE
  5
232
100
AcDbEntity
  8
0
  6
CONTINUOUS
 62
    7
370
   25
100
AcDbLine
 10
17.555317
 20
8.591386
 11
17.5528252
 21
8.442341900000001
  0
LINE
  5
233
100
AcDbEntity
  8
0
  6
CONTINUOUS
 62
    7
370
   25
100
AcDbLine
 10
17.5528252
 20
8.442341900000001
 11
17.5562034
 21
8.306790599999999
  0
LINE
  5
234
100
AcDbEntity
  8
0
  6
CONTINUOUS
 62
    7
370
   25
100
AcDbLine
 10
17.5562034
 20
8.306790599999999
 11
17.575631
 21
8.082020999999999
  0
LINE
  5
235
100
AcDbEntity
  8
0
  6
CONTINUOUS
 62
    7
370
   25
100
AcDbLine
 10
17.575631
 20
8.082020999999999
 11
17.603912
 21
7.9166569
  0
LINE
  5
236
100
AcDbEntity
  8
0
  6
CONTINUOUS
 62
    7
370
   25
100
AcDbLine
 10
17.603912
 20
7.9166569
 11
17.630994
 21
7.8116496
  0
LINE
  5
237
100
AcDbEntity
  8
0
  6
CONTINUOUS
 62
    7
370
   25
100
AcDbLine
 10
17.630994
 20
7.8116496
 11
17.6503383
 21
7.7677042
  0
LINE
  5
238
100
AcDbEntity
  8
0
  6
CONTINUOUS
 62
    7
370
   25
100
AcDbLine
 10
17.6503383
 20
7.7677042
 11
17.7322199
 21
7.6157812
  0
LINE
  5
239
100
AcDbEntity
  8
0
  6
CONTINUOUS
 62
    7
370
   25
100
AcDbLine
 10
17.7322199
 20
7.6157812
 11
17.7959326
 21
7.4711276
  0
LINE
  5
23A
100
AcDbEntity
  8
0
  6
CONTINUOUS
 62
    7
370
   25
100
AcDbLine
 10
17.7959326
 20
7.4711276
 11
17.8422535
 21
7.3349774
  0
LINE
  5
23B
100
AcDbEntity
  8
0
  6
CONTINUOUS
 62
    7
370
   25
100
AcDbLine
 10
17.8422535
 20
7.3349774
 11
17.8720208
 21
7.2085188
  0
LINE
  5
23C
100
AcDbEntity
  8
0
  6
CONTINUOUS
 62
    7
370
   25
100
AcDbLine
 10
17.8720208
 20
7.2085188
 11
17.8861524
 21
7.0928822
  0
LINE
  5
23D
100
AcDbEntity
  8
0
  6
CONTINUOUS
 62
    7
370
   25
100
AcDbLine
 10
17.8861524
 20
7.0928822
 11
17.885611
 21
6.98912
  0
LINE
  5
23E
100
AcDbEntity
  8
0
  6
CONTINUOUS
 62
    7
370
   25
100
AcDbLine
 10
17.885611
 20
6.98912
 11
17.871455
 21
6.8982589
  0
LINE
  5
23F
100
AcDbEntity
  8
0
  6
CONTINUOUS
 62
    7
370
   25
100
AcDbLine
 10
17.871455
 20
6.8982589
 11
17.8447632
 21
6.8212105
  0
LINE
  5
240
100
AcDbEntity
  8
0
  6
CONTINUOUS
 62
    7
370
   25
100
AcDbLine
 10
17.8447632
 20
6.8212105
 11
17.8066876
 21
6.7588593
  0
LINE
  5
241
100
AcDbEntity
  8
0
  6
CONTINUOUS
 62
    7
370
   25
100
AcDbLine
 10
17.8066876
 20
6.7588593
 11
17.7584355
 21
6.7119945
  0
LINE
  5
242
100
AcDbEntity
  8
0
  6
CONTINUOUS
 62
    7
370
   25
100
AcDbLine
 10
17.7584355
 20
6.7119945
 11
17.730869
 21
6.694601
  0
LINE
  5
243
100
AcDbEntity
  8
0
  6
CONTINUOUS
 62
    7
370
   25
100
AcDbLine
 10
17.730869
 20
6.694601
 11
17.4970598
 21
6.5751303
  0
LINE
  5
244
100
AcDbEntity
  8
0
  6
CONTINUOUS
 62
    7
370
   25
100
AcDbLine
 10
17.4970598
 20
6.5751303
 11
17.275
 21
6.4518893
  0
LINE
  5
245
100
AcDbEntity
  8
0
  6
CONTINUOUS
 62
    7
370
   25
100
AcDbLine
 10
17.275
 20
6.4518893
 11
17.0572402
 21
6.3212003
  0
LINE
  5
246
100
AcDbEntity
  8
0
  6
CONTINUOUS
 62
    7
370
   25
100
AcDbLine
 10
17.0572402
 20
6.3212003
 11
16.836871
 21
6.178451
  0
LINE
  5
247
100
AcDbEntity
  8
0
  6
CONTINUOUS
 62
    7
370
   25
100
AcDbLine
 10
16.836871
 20
6.178451
 11
16.8080245
 21
6.1632745
  0
LINE
  5
248
100
AcDbEntity
  8
0
  6
CONTINUOUS
 62
    7
370
   25
100
AcDbLine
 10
16.8080245
 20
6.1632745
 11
16.7433124
 21
6.1449193
  0
LINE
  5
249
100
AcDbEntity
  8
0
  6
CONTINUOUS
 62
    7
370
   25
100
AcDbLine
 10
16.7433124
 20
6.1449193
 11
16.6702768
 21
6.1431205
  0
LINE
  5
24A
100
AcDbEntity
  8
0
  6
CONTINUOUS
 62
    7
370
   25
100
AcDbLine
 10
16.6702768
 20
6.1431205
 11
16.590205
 21
6.1585289
  0
LINE
  5
24B
100
AcDbEntity
  8
0
  6
CONTINUOUS
 62
    7
370
   25
100
AcDbLine
 10
16.590205
 20
6.1585289
 11
16.504439
 21
6.1917
  0
LINE
  5
24C
100
AcDbEntity
  8
0
  6
CONTINUOUS
 62
    7
370
   25
100
AcDbLine
 10
16.504439
 20
6.1917
 11
16.4143076
 21
6.2431122
  0
LINE
  5
24D
100
AcDbEntity
  8
0
  6
CONTINUOUS
 62
    7
370
   25
100
AcDbLine
 10
16.4143076
 20
6.2431122
 11
16.3212292
 21
6.3131688
  0
LINE
  5
24E
100
AcDbEntity
  8
0
  6
CONTINUOUS
 62
    7
370
   25
100
AcDbLine
 10
16.3212292
 20
6.3131688
 11
16.2265965
 21
6.4021774
  0
LINE
  5
24F
100
AcDbEntity
  8
0
  6
CONTINUOUS
 62
    7
370
   25
100
AcDbLine
 10
16.2265965
 20
6.4021774
 11
16.1318474
 21
6.5103676
  0
LINE
  5
250
100
AcDbEntity
  8
0
  6
CONTINUOUS
 62
    7
370
   25
100
AcDbLine
 10
16.1318474
 20
6.5103676
 11
16.0384301
 21
6.6378712
  0
LINE
  5
251
100
AcDbEntity
  8
0
  6
CONTINUOUS
 62
    7
370
   25
100
AcDbLine
 10
16.0384301
 20
6.6378712
 11
15.9478017
 21
6.7847442
  0
LINE
  5
252
100
AcDbEntity
  8
0
  6
CONTINUOUS
 62
    7
370
   25
100
AcDbLine
 10
15.9478017
 20
6.7847442
 11
15.919416
 21
6.8234696
  0
LINE
  5
253
100
AcDbEntity
  8
0
  6
CONTINUOUS
 62
    7
370
   25
100
AcDbLine
 10
15.919416
 20
6.8234696
 11
15.842018
 21
6.8994269
  0
LINE
  5
254
100
AcDbEntity
  8
0
  6
CONTINUOUS
 62
    7
370
   25
100
AcDbLine
 10
15.842018
 20
6.8994269
 11
15.712949
 21
7.006601
  0
LINE
  5
255
100
AcDbEntity
  8
0
  6
CONTINUOUS
 62
    7
370
   25
100
AcDbLine
 10
15.712949
 20
7.006601
 11
15.5280066
 21
7.1358106
  0
LINE
  5
256
100
AcDbEntity
  8
0
  6
CONTINUOUS
 62
    7
370
   25
100
AcDbLine
 10
15.5280066
 20
7.1358106
 11
15.4123048
 21
7.2065119
  0
LINE
  5
257
100
AcDbEntity
  8
0
  6
CONTINUOUS
 62
    7
370
   25
100
AcDbLine
 10
15.4123048
 20
7.2065119
 11
15.281983
 21
7.278876
  0
LINE
  5
258
100
AcDbEntity
  8
0
  6
CONTINUOUS
 62
    7
370
   25
100
AcDbLine
 10
15.281983
 20
7.278876
 11
15.1329198
 21
7.353641
  0
LINE
  5
259
100
AcDbEntity
  8
0
  6
CONTINUOUS
 62
    7
370
   25
100
AcDbLine
 10
15.1329198
 20
7.353641
 11
14.9692687
 21
7.4272929
  0
LINE
  5
25A
100
AcDbEntity
  8
0
  6
CONTINUOUS
 62
    7
370
   25
100
AcDbLine
 10
14.9692687
 20
7.4272929
 11
14.7885149
 21
7.4997078
  0
LINE
  5
25B
100
AcDbEntity
  8
0
  6
CONTINUOUS
 62
    7
370
   25
100
AcDbLine
 10
14.7885149
 20
7.4997078
 11
14.5906184
 21
7.5695345
  0
LINE
  5
25C
100
AcDbEntity
  8
0
  6
CONTINUOUS
 62
    7
370
   25
100
AcDbLine
 10
14.5906184
 20
7.5695345
 11
14.3757083
 21
7.6353697
  0
LINE
  5
25D
100
AcDbEntity
  8
0
  6
CONTINUOUS
 62
    7
370
   25
100
AcDbLine
 10
14.3757083
 20
7.6353697
 11
14.1438637
 21
7.6958965
  0
LINE
  5
25E
100
AcDbEntity
  8
0
  6
CONTINUOUS
 62
    7
370
   25
100
AcDbLine
 10
14.1438637
 20
7.6958965
 11
13.9117036
 21
7.7462933
  0
ARC
  5
25F
100
AcDbEntity
  8
0
  6
CONTINUOUS
 62
    7
370
   25
100
AcDbCircle
 10
21.0000335113
 20
-3.35113e-05
 40
10.5
100
AcDbArc
 50
132.4602883506
 51
137.5397116494
  0
LINE
  5
260
100
AcDbEntity
  8
0
  6
CONTINUOUS
 62
    7
370
   25
100
AcDbLine
 10
13.2537067
 20
7.0882964
 11
13.3041035
 21
6.8561363
  0
LINE
  5
261
100
AcDbEntity
  8
0
  6
CONTINUOUS
 62
    7
370
   25
100
AcDbLine
 10
13.3041035
 20
6.8561363
 11
13.3646303
 21
6.6242917
  0
LINE
  5
262
100
AcDbEntity
  8
0
  6
CONTINUOUS
 62
    7
370
   25
100
AcDbLine
 10
13.3646303
 20
6.6242917
 11
13.4304655
 21
6.4093816
  0
LINE
  5
263
100
AcDbEntity
  8
0
  6
CONTINUOUS
 62
    7
370
   25
100
AcDbLine
 10
13.4304655
 20
6.4093816
 11
13.5002922
 21
6.2114851
  0
LINE
  5
264
100
AcDbEntity
  8
0
  6
CONTINUOUS
 62
    7
370
   25
100
AcDbLine
 10
13.5002922
 20
6.2114851
 11
13.5727071
 21
6.0307313
  0
LINE
  5
265
100
AcDbEntity
  8
0
  6
CONTINUOUS
 62
    7
370
   25
100
AcDbLine
 10
13.5727071
 20
6.0307313
 11
13.646359
 21
5.8670802
  0
LINE
  5
266
100
AcDbEntity
  8
0
  6
CONTINUOUS
 62
    7
370
   25
100
AcDbLine
 10
13.646359
 20
5.8670802
 11
13.721124
 21
5.718017
  0
LINE
  5
267
100
AcDbEntity
  8
0
  6
CONTINUOUS
 62
    7
370
   25
100
AcDbLine
 10
13.721124
 20
5.718017
 11
13.7934881
 21
5.5876952
  0
LINE
  5
268
100
AcDbEntity
  8
0
  6
CONTINUOUS
 62
    7
370
   25
100
AcDbLine
 10
13.7934881
 20
5.5876952
 11
13.8641894
 21
5.4719934
  0
LINE
  5
269
100
AcDbEntity
  8
0
  6
CONTINUOUS
 62
    7
370
   25
100
AcDbLine
 10
13.8641894
 20
5.4719934
 11
13.993399
 21
5.287051
  0
LINE
  5
26A
100
AcDbEntity
  8
0
  6
CONTINUOUS
 62
    7
370
   25
100
AcDbLine
 10
13.993399
 20
5.287051
 11
14.1005731
 21
5.157982
  0
LINE
  5
26B
100
AcDbEntity
  8
0
  6
CONTINUOUS
 62
    7
370
   25
100
AcDbLine
 10
14.1005731
 20
5.157982
 11
14.1765304
 21
5.080584
  0
LINE
  5
26C
100
AcDbEntity
  8
0
  6
CONTINUOUS
 62
    7
370
   25
100
AcDbLine
 10
14.1765304
 20
5.080584
 11
14.2152558
 21
5.0521983
  0
LINE
  5
26D
100
AcDbEntity
  8
0
  6
CONTINUOUS
 62
    7
370
   25
100
AcDbLine
 10
14.2152558
 20
5.0521983
 11
14.3621288
 21
4.9615699
  0
LINE
  5
26E
100
AcDbEntity
  8
0
  6
CONTINUOUS
 62
    7
370
   25
100
AcDbLine
 10
14.3621288
 20
4.9615699
 11
14.4896324
 21
4.8681526
  0
LINE
  5
26F
100
AcDbEntity
  8
0
  6
CONTINUOUS
 62
    7
370
   25
100
AcDbLine
 10
14.4896324
 20
4.8681526
 11
14.5978226
 21
4.7734035
  0
LINE
  5
270
100
AcDbEntity
  8
0
  6
CONTINUOUS
 62
    7
370
   25
100
AcDbLine
 10
14.5978226
 20
4.7734035
 11
14.6868312
 21
4.6787708
  0
LINE
  5
271
100
AcDbEntity
  8
0
  6
CONTINUOUS
 62
    7
370
   25
100
AcDbLine
 10
14.6868312
 20
4.6787708
 11
14.7568878
 21
4.5856924
  0
LINE
  5
272
100
AcDbEntity
  8
0
  6
CONTINUOUS
 62
    7
370
   25
100
AcDbLine
 10
14.7568878
 20
4.5856924
 11
14.8083
 21
4.495561
  0
LINE
  5
273
100
AcDbEntity
  8
0
  6
CONTINUOUS
 62
    7
370
   25
100
AcDbLine
 10
14.8083
 20
4.495561
 11
14.8414711
 21
4.409795
  0
LINE
  5
274
100
AcDbEntity
  8
0
  6
CONTINUOUS
 62
    7
370
   25
100
AcDbLine
 10
14.8414711
 20
4.409795
 11
14.8568795
 21
4.3297232
  0
LINE
  5
275
100
AcDbEntity
  8
0
  6
CONTINUOUS
 62
    7
370
   25
100
AcDbLine
 10
14.8568795
 20
4.3297232
 11
14.8550807
 21
4.2566876
  0
LINE
  5
276
100
AcDbEntity
  8
0
  6
CONTINUOUS
 62
    7
370
   25
100
AcDbLine
 10
14.8550807
 20
4.2566876
 11
14.8367255
 21
4.1919755
  0
LINE
  5
277
100
AcDbEntity
  8
0
  6
CONTINUOUS
 62
    7
370
   25
100
AcDbLine
 10
14.8367255
 20
4.1919755
 11
14.821549
 21
4.163129
  0
LINE
  5
278
100
AcDbEntity
  8
0
  6
CONTINUOUS
 62
    7
370
   25
100
AcDbLine
 10
14.821549
 20
4.163129
 11
14.6787997
 21
3.9427598
  0
LINE
  5
279
100
AcDbEntity
  8
0
  6
CONTINUOUS
 62
    7
370
   25
100
AcDbLine
 10
14.6787997
 20
3.9427598
 11
14.5481107
 21
3.725
  0
LINE
  5
27A
100
AcDbEntity
  8
0
  6
CONTINUOUS
 62
    7
370
   25
100
AcDbLine
 10
14.5481107
 20
3.725
 11
14.4248697
 21
3.5029402
  0
LINE
  5
27B
100
AcDbEntity
  8
0
  6
CONTINUOUS
 62
    7
370
   25
100
AcDbLine
 10
14.4248697
 20
3.5029402
 11
14.305399
 21
3.269131
  0
LINE
  5
27C
100
AcDbEntity
  8
0
  6
CONTINUOUS
 62
    7
370
   25
100
AcDbLine
 10
14.305399
 20
3.269131
 11
14.2880055
 21
3.2415645
  0
LINE
  5
27D
100
AcDbEntity
  8
0
  6
CONTINUOUS
 62
    7
370
   25
100
AcDbLine
 10
14.2880055
 20
3.2415645
 11
14.2411407
 21
3.1933124
  0
LINE
  5
27E
100
AcDbEntity
  8
0
  6
CONTINUOUS
 62
    7
370
   25
100
AcDbLine
 10
14.2411407
 20
3.1933124
 11
14.1787895
 21
3.1552368
  0
LINE
  5
27F
100
AcDbEntity
  8
0
  6
CONTINUOUS
 62
    7
370
   25
100
AcDbLine
 10
14.1787895
 20
3.1552368
 11
14.1017411
 21
3.128545
  0
LINE
  5
280
100
AcDbEntity
  8
0
  6
CONTINUOUS
 62
    7
370
   25
100
AcDbLine
 10
14.1017411
 20
3.128545
 11
14.01088
 21
3.114389
  0
LINE
  5
281
100
AcDbEntity
  8
0
  6
CONTINUOUS
 62
    7
370
   25
100
AcDbLine
 10
14.01088
 20
3.114389
 11
13.9071178
 21
3.1138476
  0
LINE
  5
282
100
AcDbEntity
  8
0
  6
CONTINUOUS
 62
    7
370
   25
100
AcDbLine
 10
13.9071178
 20
3.1138476
 11
13.7914812
 21
3.1279792
  0
LINE
  5
283
100
AcDbEntity
  8
0
  6
CONTINUOUS
 62
    7
370
   25
100
AcDbLine
 10
13.7914812
 20
3.1279792
 11
13.6650226
 21
3.1577465
  0
LINE
  5
284
100
AcDbEntity
  8
0
  6
CONTINUOUS
 62
    7
370
   25
100
AcDbLine
 10
13.6650226
 20
3.1577465
 11
13.5288724
 21
3.2040674
  0
LINE
  5
285
100
AcDbEntity
  8
0
  6
CONTINUOUS
 62
    7
370
   25
100
AcDbLine
 10
13.5288724
 20
3.2040674
 11
13.3842188
 21
3.2677801
  0
LINE
  5
286
100
AcDbEntity
  8
0
  6
CONTINUOUS
 62
    7
370
   25
100
AcDbLine
 10
13.3842188
 20
3.2677801
 11
13.2322958
 21
3.3496617
  0
LINE
  5
287
100
AcDbEntity
  8
0
  6
CONTINUOUS
 62
    7
370
   25
100
AcDbLine
 10
13.2322958
 20
3.3496617
 11
13.1883504
 21
3.369006
  0
LINE
  5
288
100
AcDbEntity
  8
0
  6
CONTINUOUS
 62
    7
370
   25
100
AcDbLine
 10
13.1883504
 20
3.369006
 11
13.0833431
 21
3.396088
  0
LINE
  5
289
100
AcDbEntity
  8
0
  6
CONTINUOUS
 62
    7
370
   25
100
AcDbLine
 10
13.0833431
 20
3.396088
 11
12.917979
 21
3.424369
  0
LINE
  5
28A
100
AcDbEntity
  8
0
  6
CONTINUOUS
 62
    7
370
   25
100
AcDbLine
 10
12.917979
 20
3.424369
 11
12.6932094
 21
3.4437966
  0
LINE
  5
28B
100
AcDbEntity
  8
0
  6
CONTINUOUS
 62
    7
370
   25
100
AcDbLine
 10
12.6932094
 20
3.4437966
 11
12.5576581
 21
3.4471748
  0
LINE
  5
28C
100
AcDbEntity
  8
0
  6
CONTINUOUS
 62
    7
370
   25
100
AcDbLine
 10
12.5576581
 20
3.4471748
 11
12.408614
 21
3.444683
  0
LINE
  5
28D
100
AcDbEntity
  8
0
  6
CONTINUOUS
 62
    7
370
   25
100
AcDbLine
 10
12.408614
 20
3.444683
 11
12.242139
 21
3.4348998
  0
LINE
  5
28E
100
AcDbEntity
  8
0
  6
CONTINUOUS
 62
    7
370
   25
100
AcDbLine
 10
12.242139
 20
3.4348998
 11
12.0635871
 21
3.4168587
  0
LINE
  5
28F
100
AcDbEntity
  8
0
  6
CONTINUOUS
 62
    7
370
   25
100
AcDbLine
 10
12.0635871
 20
3.4168587
 11
11.8708422
 21
3.3891949
  0
LINE
  5
290
100
AcDbEntity
  8
0
  6
CONTINUOUS
 62
    7
370
   25
100
AcDbLine
 10
11.8708422
 20
3.3891949
 11
11.6645455
 21
3.3507184
  0
LINE
  5
291
100
AcDbEntity
  8
0
  6
CONTINUOUS
 62
    7
370
   25
100
AcDbLine
 10
11.6645455
 20
3.3507184
 11
11.4455103
 21
3.3002783
  0
LINE
  5
292
100
AcDbEntity
  8
0
  6
CONTINUOUS
 62
    7
370
   25
100
AcDbLine
 10
11.4455103
 20
3.3002783
 11
11.2144635
 21
3.2367737
  0
LINE
  5
293
100
AcDbEntity
  8
0
  6
CONTINUOUS
 62
    7
370
   25
100
AcDbLine
 10
11.2144635
 20
3.2367737
 11
10.9882086
 21
3.1643386
  0
ARC
  5
294
100
AcDbEntity
  8
0
  6
CONTINUOUS
 62
    7
370
   25
100
AcDbCircle
 10
21.0000457301
 20
-1.24045e-05
 40
10.5
100
AcDbArc
 50
162.4602874604
 51
167.5397108862
  0
LINE
  5
295
100
AcDbEntity
  8
0
  6
CONTINUOUS
 62
    7
370
   25
100
AcDbLine
 10
10.747365
 20
2.2654981
 11
10.90709
 21
2.08964
  0
LINE
  5
296
100
AcDbEntity
  8
0
  6
CONTINUOUS
 62
    7
370
   25
100
AcDbLine
 10
10.90709
 20
2.08964
 11
11.07543
 21
1.91912
  0
LINE
  5
297
100
AcDbEntity
  8
0
  6
CONTINUOUS
 62
    7
370
   25
100
AcDbLine
 10
11.07543
 20
1.91912
 11
11.2399
 21
1.76592
  0
LINE
  5
298
100
AcDbEntity
  8
0
  6
CONTINUOUS
 62
    7
370
   25
100
AcDbLine
 10
11.2399
 20
1.76592
 11
11.39932
 21
1.62945
  0
LINE
  5
299
100
AcDbEntity
  8
0
  6
CONTINUOUS
 62
    7
370
   25
100
AcDbLine
 10
11.39932
 20
1.62945
 11
11.55241
 21
1.50912
  0
LINE
  5
29A
100
AcDbEntity
  8
0
  6
CONTINUOUS
 62
    7
370
   25
100
AcDbLine
 10
11.55241
 20
1.50912
 11
11.69802
 21
1.40422
  0
LINE
  5
29B
100
AcDbEntity
  8
0
  6
CONTINUOUS
 62
    7
370
   25
100
AcDbLine
 10
11.69802
 20
1.40422
 11
11.8373
 21
1.31251
  0
LINE
  5
29C
100
AcDbEntity
  8
0
  6
CONTINUOUS
 62
    7
370
   25
100
AcDbLine
 10
11.8373
 20
1.31251
 11
11.96513
 21
1.23583
  0
LINE
  5
29D
100
AcDbEntity
  8
0
  6
CONTINUOUS
 62
    7
370
   25
100
AcDbLine
 10
11.96513
 20
1.23583
 11
12.08421
 21
1.17098
  0
LINE
  5
29E
100
AcDbEntity
  8
0
  6
CONTINUOUS
 62
    7
370
   25
100
AcDbLine
 10
12.08421
 20
1.17098
 11
12.28858
 21
1.07542
  0
LINE
  5
29F
100
AcDbEntity
  8
0
  6
CONTINUOUS
 62
    7
370
   25
100
AcDbLine
 10
12.28858
 20
1.07542
 11
12.44593
 21
1.01723
  0
LINE
  5
2A0
100
AcDbEntity
  8
0
  6
CONTINUOUS
 62
    7
370
   25
100
AcDbLine
 10
12.44593
 20
1.01723
 11
12.55041
 21
0.9881799999999999
  0
LINE
  5
2A1
100
AcDbEntity
  8
0
  6
CONTINUOUS
 62
    7
370
   25
100
AcDbLine
 10
12.55041
 20
0.9881799999999999
 11
12.59814
 21
0.9829599999999999
  0
LINE
  5
2A2
100
AcDbEntity
  8
0
  6
CONTINUOUS
 62
    7
370
   25
100
AcDbLine
 10
12.59814
 20
0.9829599999999999
 11
12.77065
 21
0.9779099999999999
  0
LINE
  5
2A3
100
AcDbEntity
  8
0
  6
CONTINUOUS
 62
    7
370
   25
100
AcDbLine
 10
12.77065
 20
0.9779099999999999
 11
12.92778
 21
0.9607599999999999
  0
LINE
  5
2A4
100
AcDbEntity
  8
0
  6
CONTINUOUS
 62
    7
370
   25
100
AcDbLine
 10
12.92778
 20
0.9607599999999999
 11
13.06885
 21
0.9328
  0
LINE
  5
2A5
100
AcDbEntity
  8
0
  6
CONTINUOUS
 62
    7
370
   25
100
AcDbLine
 10
13.06885
 20
0.9328
 11
13.19325
 21
0.89535
  0
LINE
  5
2A6
100
AcDbEntity
  8
0
  6
CONTINUOUS
 62
    7
370
   25
100
AcDbLine
 10
13.19325
 20
0.89535
 11
13.30046
 21
0.84977
  0
LINE
  5
2A7
100
AcDbEntity
  8
0
  6
CONTINUOUS
 62
    7
370
   25
100
AcDbLine
 10
13.30046
 20
0.84977
 11
13.39005
 21
0.79742
  0
LINE
  5
2A8
100
AcDbEntity
  8
0
  6
CONTINUOUS
 62
    7
370
   25
100
AcDbLine
 10
13.39005
 20
0.79742
 11
13.46166
 21
0.73973
  0
LINE
  5
2A9
100
AcDbEntity
  8
0
  6
CONTINUOUS
 62
    7
370
   25
100
AcDbLine
 10
13.46166
 20
0.73973
 11
13.51504
 21
0.67809
  0
LINE
  5
2AA
100
AcDbEntity
  8
0
  6
CONTINUOUS
 62
    7
370
   25
100
AcDbLine
 10
13.51504
 20
0.67809
 11
13.55
 21
0.61394
  0
LINE
  5
2AB
100
AcDbEntity
  8
0
  6
CONTINUOUS
 62
    7
370
   25
100
AcDbLine
 10
13.55
 20
0.61394
 11
13.56646
 21
0.54872
  0
LINE
  5
2AC
100
AcDbEntity
  8
0
  6
CONTINUOUS
 62
    7
370
   25
100
AcDbLine
 10
13.56646
 20
0.54872
 11
13.56774
 21
0.51615
  0
LINE
  5
2AD
100
AcDbEntity
  8
0
  6
CONTINUOUS
 62
    7
370
   25
100
AcDbLine
 10
13.56774
 20
0.51615
 11
13.5543
 21
0.25393
  0
LINE
  5
2AE
100
AcDbEntity
  8
0
  6
CONTINUOUS
 62
    7
370
   25
100
AcDbLine
 10
13.5543
 20
0.25393
 11
13.55
 21
0
  0
LINE
  5
2AF
100
AcDbEntity
  8
0
  6
CONTINUOUS
 62
    7
370
   25
100
AcDbLine
 10
13.55
 20
0
 11
13.5543
 21
-0.25393
  0
LINE
  5
2B0
100
AcDbEntity
  8
0
  6
CONTINUOUS
 62
    7
370
   25
100
AcDbLine
 10
13.5543
 20
-0.25393
 11
13.56774
 21
-0.51615
  0
LINE
  5
2B1
100
AcDbEntity
  8
0
  6
CONTINUOUS
 62
    7
370
   25
100
AcDbLine
 10
13.56774
 20
-0.51615
 11
13.56646
 21
-0.54872
  0
LINE
  5
2B2
100
AcDbEntity
  8
0
  6
CONTINUOUS
 62
    7
370
   25
100
AcDbLine
 10
13.56646
 20
-0.54872
 11
13.55
 21
-0.61394
  0
LINE
  5
2B3
100
AcDbEntity
  8
0
  6
CONTINUOUS
 62
    7
370
   25
100
AcDbLine
 10
13.55
 20
-0.61394
 11
13.51504
 21
-0.67809
  0
LINE
  5
2B4
100
AcDbEntity
  8
0
  6
CONTINUOUS
 62
    7
370
   25
100
AcDbLine
 10
13.51504
 20
-0.67809
 11
13.46166
 21
-0.73973
  0
LINE
  5
2B5
100
AcDbEntity
  8
0
  6
CONTINUOUS
 62
    7
370
   25
100
AcDbLine
 10
13.46166
 20
-0.73973
 11
13.39005
 21
-0.79742
  0
LINE
  5
2B6
100
AcDbEntity
  8
0
  6
CONTINUOUS
 62
    7
370
   25
100
AcDbLine
 10
13.39005
 20
-0.79742
 11
13.30046
 21
-0.84977
  0
LINE
  5
2B7
100
AcDbEntity
  8
0
  6
CONTINUOUS
 62
    7
370
   25
100
AcDbLine
 10
13.30046
 20
-0.84977
 11
13.19325
 21
-0.89535
  0
LINE
  5
2B8
100
AcDbEntity
  8
0
  6
CONTINUOUS
 62
    7
370
   25
100
AcDbLine
 10
13.19325
 20
-0.89535
 11
13.06885
 21
-0.9328
  0
LINE
  5
2B9
100
AcDbEntity
  8
0
  6
CONTINUOUS
 62
    7
370
   25
100
AcDbLine
 10
13.06885
 20
-0.9328
 11
12.92778
 21
-0.9607599999999999
  0
LINE
  5
2BA
100
AcDbEntity
  8
0
  6
CONTINUOUS
 62
    7
370
   25
100
AcDbLine
 10
12.92778
 20
-0.9607599999999999
 11
12.77065
 21
-0.9779099999999999
  0
LINE
  5
2BB
100
AcDbEntity
  8
0
  6
CONTINUOUS
 62
    7
370
   25
100
AcDbLine
 10
12.77065
 20
-0.9779099999999999
 11
12.59814
 21
-0.9829599999999999
  0
LINE
  5
2BC
100
AcDbEntity
  8
0
  6
CONTINUOUS
 62
    7
370
   25
100
AcDbLine
 10
12.59814
 20
-0.9829599999999999
 11
12.55041
 21
-0.9881799999999999
  0
LINE
  5
2BD
100
AcDbEntity
  8
0
  6
CONTINUOUS
 62
    7
370
   25
100
AcDbLine
 10
12.55041
 20
-0.9881799999999999
 11
12.44593
 21
-1.01723
  0
LINE
  5
2BE
100
AcDbEntity
  8
0
  6
CONTINUOUS
 62
    7
370
   25
100
AcDbLine
 10
12.44593
 20
-1.01723
 11
12.28858
 21
-1.07542
  0
LINE
  5
2BF
100
AcDbEntity
  8
0
  6
CONTINUOUS
 62
    7
370
   25
100
AcDbLine
 10
12.28858
 20
-1.07542
 11
12.08421
 21
-1.17098
  0
LINE
  5
2C0
100
AcDbEntity
  8
0
  6
CONTINUOUS
 62
    7
370
   25
100
AcDbLine
 10
12.08421
 20
-1.17098
 11
11.96513
 21
-1.23583
  0
LINE
  5
2C1
100
AcDbEntity
  8
0
  6
CONTINUOUS
 62
    7
370
   25
100
AcDbLine
 10
11.96513
 20
-1.23583
 11
11.8373
 21
-1.31251
  0
LINE
  5
2C2
100
AcDbEntity
  8
0
  6
CONTINUOUS
 62
    7
370
   25
100
AcDbLine
 10
11.8373
 20
-1.31251
 11
11.69802
 21
-1.40422
  0
LINE
  5
2C3
100
AcDbEntity
  8
0
  6
CONTINUOUS
 62
    7
370
   25
100
AcDbLine
 10
11.69802
 20
-1.40422
 11
11.55241
 21
-1.50912
  0
LINE
  5
2C4
100
AcDbEntity
  8
0
  6
CONTINUOUS
 62
    7
370
   25
100
AcDbLine
 10
11.55241
 20
-1.50912
 11
11.39932
 21
-1.62945
  0
LINE
  5
2C5
100
AcDbEntity
  8
0
  6
CONTINUOUS
 62
    7
370
   25
100
AcDbLine
 10
11.39932
 20
-1.62945
 11
11.2399
 21
-1.76592
  0
LINE
  5
2C6
100
AcDbEntity
  8
0
  6
CONTINUOUS
 62
    7
370
   25
100
AcDbLine
 10
11.2399
 20
-1.76592
 11
11.07543
 21
-1.91912
  0
LINE
  5
2C7
100
AcDbEntity
  8
0
  6
CONTINUOUS
 62
    7
370
   25
100
AcDbLine
 10
11.07543
 20
-1.91912
 11
10.90709
 21
-2.08964
  0
LINE
  5
2C8
100
AcDbEntity
  8
0
  6
CONTINUOUS
 62
    7
370
   25
100
AcDbLine
 10
10.90709
 20
-2.08964
 11
10.747365
 21
-2.2654981
  0
CIRCLE
  5
2C9
100
AcDbEntity
  8
0
  6
CONTINUOUS
 62
    7
370
   25
100
AcDbCircle
 10
21
 20
0
 40
3
  0
ENDSEC
  0
SECTION
  2
OBJECTS
  0
DICTIONARY
  5
C
330
0
100
AcDbDictionary
281
    1
  3
ACAD_GROUP
350
D
  0
DICTIONARY
  5
D
330
C
100
AcDbDictionary
281
    1
  0
PLOTSETTINGS
  5
2CA
100
AcDbPlotSettings
  6
1x1
 40
0
 41
0
 42
0
 43
0
  0
ENDSEC
  0
EOF
