0
SECTION
2
HEADER
0
ENDSEC
0
SECTION
2
TABLES
0
TABLE
2
LTYPE
0
LTYPE
72
65
70
64
2
CONTINUOUS
3
______
73
0
40
0
0
ENDTAB
0
TABLE
2
LAYER
0
ENDTAB
0
ENDSEC
0
SECTION
2
ENTITIES
0
CIRCLE
8
0
10
21
20
0
40
2
0
CIRCLE
8
0
10
21
20
0
40
2
0
LINE
8
layer0
10
13.3041035
20
-6.8561363
11
13.3646303
21
-6.6242917
0
LINE
8
layer0
10
13.3646303
20
-6.6242917
11
13.4304655
21
-6.4093816
0
LINE
8
layer0
10
13.4304655
20
-6.4093816
11
13.5002922
21
-6.2114851
0
LINE
8
layer0
10
13.5002922
20
-6.2114851
11
13.5727071
21
-6.0307313
0
LINE
8
layer0
10
13.5727071
20
-6.0307313
11
13.646359
21
-5.8670802
0
LINE
8
layer0
10
13.646359
20
-5.8670802
11
13.721124
21
-5.718017
0
LINE
8
layer0
10
13.721124
20
-5.718017
11
13.7934881
21
-5.5876952
0
LINE
8
layer0
10
13.7934881
20
-5.5876952
11
13.8641894
21
-5.4719934
0
LINE
8
layer0
10
13.8641894
20
-5.4719934
11
13.993399
21
-5.287051
0
LINE
8
layer0
10
13.993399
20
-5.287051
11
14.1005731
21
-5.157982
0
LINE
8
layer0
10
14.1005731
20
-5.157982
11
14.1765304
21
-5.080584
0
LINE
8
layer0
10
14.1765304
20
-5.080584
11
14.2152558
21
-5.0521983
0
LINE
8
layer0
10
14.2152558
20
-5.0521983
11
14.3621288
21
-4.9615699
0
LINE
8
layer0
10
14.3621288
20
-4.9615699
11
14.4896324
21
-4.8681526
0
LINE
8
layer0
10
14.4896324
20
-4.8681526
11
14.5978226
21
-4.7734035
0
LINE
8
layer0
10
14.5978226
20
-4.7734035
11
14.6868312
21
-4.6787708
0
LINE
8
layer0
10
14.6868312
20
-4.6787708
11
14.7568878
21
-4.5856924
0
LINE
8
layer0
10
14.7568878
20
-4.5856924
11
14.8083
21
-4.495561
0
LINE
8
layer0
10
14.8083
20
-4.495561
11
14.8414711
21
-4.409795
0
LINE
8
layer0
10
14.8414711
20
-4.409795
11
14.8568795
21
-4.3297232
0
LINE
8
layer0
10
14.8568795
20
-4.3297232
11
14.8550807
21
-4.2566876
0
LINE
8
layer0
10
14.8550807
20
-4.2566876
11
14.8367255
21
-4.1919755
0
LINE
8
layer0
10
14.8367255
20
-4.1919755
11
14.821549
21
-4.163129
0
LINE
8
layer0
10
14.821549
20
-4.163129
11
14.6787997
21
-3.9427598
0
LINE
8
layer0
10
14.6787997
20
-3.9427598
11
14.5481107
21
-3.725
0
LINE
8
layer0
10
14.5481107
20
-3.725
11
14.4248697
21
-3.5029402
0
LINE
8
layer0
10
14.4248697
20
-3.5029402
11
14.305399
21
-3.269131
0
LINE
8
layer0
10
14.305399
20
-3.269131
11
14.2880055
21
-3.2415645
0
LINE
8
layer0
10
14.2880055
20
-3.2415645
11
14.2411407
21
-3.1933124
0
LINE
8
layer0
10
14.2411407
20
-3.1933124
11
14.1787895
21
-3.1552368
0
LINE
8
layer0
10
14.1787895
20
-3.1552368
11
14.1017411
21
-3.128545
0
LINE
8
layer0
10
14.1017411
20
-3.128545
11
14.01088
21
-3.114389
0
LINE
8
layer0
10
14.01088
20
-3.114389
11
13.9071178
21
-3.1138476
0
LINE
8
layer0
10
13.9071178
20
-3.1138476
11
13.7914812
21
-3.1279792
0
LINE
8
layer0
10
13.7914812
20
-3.1279792
11
13.6650226
21
-3.1577465
0
LINE
8
layer0
10
13.6650226
20
-3.1577465
11
13.5288724
21
-3.2040674
0
LINE
8
layer0
10
13.5288724
20
-3.2040674
11
13.3842188
21
-3.2677801
0
LINE
8
layer0
10
13.3842188
20
-3.2677801
11
13.2322958
21
-3.3496617
0
LINE
8
layer0
10
13.2322958
20
-3.3496617
11
13.1883504
21
-3.369006
0
LINE
8
layer0
10
13.1883504
20
-3.369006
11
13.0833431
21
-3.396088
0
LINE
8
layer0
10
13.0833431
20
-3.396088
11
12.917979
21
-3.424369
0
LINE
8
layer0
10
12.917979
20
-3.424369
11
12.6932094
21
-3.4437966
0
LINE
8
layer0
10
12.6932094
20
-3.4437966
11
12.5576581
21
-3.4471748
0
LINE
8
layer0
10
12.5576581
20
-3.4471748
11
12.408614
21
-3.444683
0
LINE
8
layer0
10
12.408614
20
-3.444683
11
12.242139
21
-3.4348998
0
LINE
8
layer0
10
12.242139
20
-3.4348998
11
12.0635871
21
-3.4168587
0
LINE
8
layer0
10
12.0635871
20
-3.4168587
11
11.8708422
21
-3.3891949
0
LINE
8
layer0
10
11.8708422
20
-3.3891949
11
11.6645455
21
-3.3507184
0
LINE
8
layer0
10
11.6645455
20
-3.3507184
11
11.4455103
21
-3.3002783
0
LINE
8
layer0
10
11.4455103
20
-3.3002783
11
11.2144635
21
-3.2367737
0
LINE
8
layer0
10
11.2144635
20
-3.2367737
11
10.9882086
21
-3.1643386
0
ARC
8
layer0
10
21.0000457
20
0.0000127
40
10.5
50
192.4602913
51
197.5397141
0
LINE
8
layer0
10
10.747365
20
-2.2654981
11
10.90709
21
-2.08964
0
LINE
8
layer0
10
10.90709
20
-2.08964
11
11.07543
21
-1.91912
0
LINE
8
layer0
10
11.07543
20
-1.91912
11
11.2399
21
-1.76592
0
LINE
8
layer0
10
11.2399
20
-1.76592
11
11.39932
21
-1.62945
0
LINE
8
layer0
10
11.39932
20
-1.62945
11
11.55241
21
-1.50912
0
LINE
8
layer0
10
11.55241
20
-1.50912
11
11.69802
21
-1.40422
0
LINE
8
layer0
10
11.69802
20
-1.40422
11
11.8373
21
-1.31251
0
LINE
8
layer0
10
11.8373
20
-1.31251
11
11.96513
21
-1.23583
0
LINE
8
layer0
10
11.96513
20
-1.23583
11
12.08421
21
-1.17098
0
LINE
8
layer0
10
12.08421
20
-1.17098
11
12.28858
21
-1.07542
0
LINE
8
layer0
10
12.28858
20
-1.07542
11
12.44593
21
-1.01723
0
LINE
8
layer0
10
12.44593
20
-1.01723
11
12.55041
21
-0.98818
0
LINE
8
layer0
10
12.55041
20
-0.98818
11
12.59814
21
-0.98296
0
LINE
8
layer0
10
12.59814
20
-0.98296
11
12.77065
21
-0.97791
0
LINE
8
layer0
10
12.77065
20
-0.97791
11
12.92778
21
-0.96076
0
LINE
8
layer0
10
12.92778
20
-0.96076
11
13.06885
21
-0.9328
0
LINE
8
layer0
10
13.06885
20
-0.9328
11
13.19325
21
-0.89535
0
LINE
8
layer0
10
13.19325
20
-0.89535
11
13.30046
21
-0.84977
0
LINE
8
layer0
10
13.30046
20
-0.84977
11
13.39005
21
-0.79742
0
LINE
8
layer0
10
13.39005
20
-0.79742
11
13.46166
21
-0.73973
0
LINE
8
layer0
10
13.46166
20
-0.73973
11
13.51504
21
-0.67809
0
LINE
8
layer0
10
13.51504
20
-0.67809
11
13.55
21
-0.61394
0
LINE
8
layer0
10
13.55
20
-0.61394
11
13.56646
21
-0.54872
0
LINE
8
layer0
10
13.56646
20
-0.54872
11
13.56774
21
-0.51615
0
LINE
8
layer0
10
13.56774
20
-0.51615
11
13.5543
21
-0.25393
0
LINE
8
layer0
10
13.5543
20
-0.25393
11
13.55
21
0
0
LINE
8
layer0
10
13.55
20
0
11
13.5543
21
0.25393
0
LINE
8
layer0
10
13.5543
20
0.25393
11
13.56774
21
0.51615
0
LINE
8
layer0
10
13.56774
20
0.51615
11
13.56646
21
0.54872
0
LINE
8
layer0
10
13.56646
20
0.54872
11
13.55
21
0.61394
0
LINE
8
layer0
10
13.55
20
0.61394
11
13.51504
21
0.67809
0
LINE
8
layer0
10
13.51504
20
0.67809
11
13.46166
21
0.73973
0
LINE
8
layer0
10
13.46166
20
0.73973
11
13.39005
21
0.79742
0
LINE
8
layer0
10
13.39005
20
0.79742
11
13.30046
21
0.84977
0
LINE
8
layer0
10
13.30046
20
0.84977
11
13.19325
21
0.89535
0
LINE
8
layer0
10
13.19325
20
0.89535
11
13.06885
21
0.9328
0
LINE
8
layer0
10
13.06885
20
0.9328
11
12.92778
21
0.96076
0
LINE
8
layer0
10
12.92778
20
0.96076
11
12.77065
21
0.97791
0
LINE
8
layer0
10
12.77065
20
0.97791
11
12.59814
21
0.98296
0
LINE
8
layer0
10
12.59814
20
0.98296
11
12.55041
21
0.98818
0
LINE
8
layer0
10
12.55041
20
0.98818
11
12.44593
21
1.01723
0
LINE
8
layer0
10
12.44593
20
1.01723
11
12.28858
21
1.07542
0
LINE
8
layer0
10
12.28858
20
1.07542
11
12.08421
21
1.17098
0
LINE
8
layer0
10
12.08421
20
1.17098
11
11.96513
21
1.23583
0
LINE
8
layer0
10
11.96513
20
1.23583
11
11.8373
21
1.31251
0
LINE
8
layer0
10
11.8373
20
1.31251
11
11.69802
21
1.40422
0
LINE
8
layer0
10
11.69802
20
1.40422
11
11.55241
21
1.50912
0
LINE
8
layer0
10
11.55241
20
1.50912
11
11.39932
21
1.62945
0
LINE
8
layer0
10
11.39932
20
1.62945
11
11.2399
21
1.76592
0
LINE
8
layer0
10
11.2399
20
1.76592
11
11.07543
21
1.91912
0
LINE
8
layer0
10
11.07543
20
1.91912
11
10.90709
21
2.08964
0
LINE
8
layer0
10
10.90709
20
2.08964
11
10.747365
21
2.2654981
0
ARC
8
layer0
10
21.0000457
20
-0.0000127
40
10.5
50
162.4602864
51
167.5397093
0
LINE
8
layer0
10
10.9882086
20
3.1643386
11
11.2144635
21
3.2367737
0
LINE
8
layer0
10
11.2144635
20
3.2367737
11
11.4455103
21
3.3002783
0
LINE
8
layer0
10
11.4455103
20
3.3002783
11
11.6645455
21
3.3507184
0
LINE
8
layer0
10
11.6645455
20
3.3507184
11
11.8708422
21
3.3891949
0
LINE
8
layer0
10
11.8708422
20
3.3891949
11
12.0635871
21
3.4168587
0
LINE
8
layer0
10
12.0635871
20
3.4168587
11
12.242139
21
3.4348998
0
LINE
8
layer0
10
12.242139
20
3.4348998
11
12.408614
21
3.444683
0
LINE
8
layer0
10
12.408614
20
3.444683
11
12.5576581
21
3.4471748
0
LINE
8
layer0
10
12.5576581
20
3.4471748
11
12.6932094
21
3.4437966
0
LINE
8
layer0
10
12.6932094
20
3.4437966
11
12.917979
21
3.424369
0
LINE
8
layer0
10
12.917979
20
3.424369
11
13.0833431
21
3.396088
0
LINE
8
layer0
10
13.0833431
20
3.396088
11
13.1883504
21
3.369006
0
LINE
8
layer0
10
13.1883504
20
3.369006
11
13.2322958
21
3.3496617
0
LINE
8
layer0
10
13.2322958
20
3.3496617
11
13.3842188
21
3.2677801
0
LINE
8
layer0
10
13.3842188
20
3.2677801
11
13.5288724
21
3.2040674
0
LINE
8
layer0
10
13.5288724
20
3.2040674
11
13.6650226
21
3.1577465
0
LINE
8
layer0
10
13.6650226
20
3.1577465
11
13.7914812
21
3.1279792
0
LINE
8
layer0
10
13.7914812
20
3.1279792
11
13.9071178
21
3.1138476
0
LINE
8
layer0
10
13.9071178
20
3.1138476
11
14.01088
21
3.114389
0
LINE
8
layer0
10
14.01088
20
3.114389
11
14.1017411
21
3.128545
0
LINE
8
layer0
10
14.1017411
20
3.128545
11
14.1787895
21
3.1552368
0
LINE
8
layer0
10
14.1787895
20
3.1552368
11
14.2411407
21
3.1933124
0
LINE
8
layer0
10
14.2411407
20
3.1933124
11
14.2880055
21
3.2415645
0
LINE
8
layer0
10
14.2880055
20
3.2415645
11
14.305399
21
3.269131
0
LINE
8
layer0
10
14.305399
20
3.269131
11
14.4248697
21
3.5029402
0
LINE
8
layer0
10
14.4248697
20
3.5029402
11
14.5481107
21
3.725
0
LINE
8
layer0
10
14.5481107
20
3.725
11
14.6787997
21
3.9427598
0
LINE
8
layer0
10
14.6787997
20
3.9427598
11
14.821549
21
4.163129
0
LINE
8
layer0
10
14.821549
20
4.163129
11
14.8367255
21
4.1919755
0
LINE
8
layer0
10
14.8367255
20
4.1919755
11
14.8550807
21
4.2566876
0
LINE
8
layer0
10
14.8550807
20
4.2566876
11
14.8568795
21
4.3297232
0
LINE
8
layer0
10
14.8568795
20
4.3297232
11
14.8414711
21
4.409795
0
LINE
8
layer0
10
14.8414711
20
4.409795
11
14.8083
21
4.495561
0
LINE
8
layer0
10
14.8083
20
4.495561
11
14.7568878
21
4.5856924
0
LINE
8
layer0
10
14.7568878
20
4.5856924
11
14.6868312
21
4.6787708
0
LINE
8
layer0
10
14.6868312
20
4.6787708
11
14.5978226
21
4.7734035
0
LINE
8
layer0
10
14.5978226
20
4.7734035
11
14.4896324
21
4.8681526
0
LINE
8
layer0
10
14.4896324
20
4.8681526
11
14.3621288
21
4.9615699
0
LINE
8
layer0
10
14.3621288
20
4.9615699
11
14.2152558
21
5.0521983
0
LINE
8
layer0
10
14.2152558
20
5.0521983
11
14.1765304
21
5.080584
0
LINE
8
layer0
10
14.1765304
20
5.080584
11
14.1005731
21
5.157982
0
LINE
8
layer0
10
14.1005731
20
5.157982
11
13.993399
21
5.287051
0
LINE
8
layer0
10
13.993399
20
5.287051
11
13.8641894
21
5.4719934
0
LINE
8
layer0
10
13.8641894
20
5.4719934
11
13.7934881
21
5.5876952
0
LINE
8
layer0
10
13.7934881
20
5.5876952
11
13.721124
21
5.718017
0
LINE
8
layer0
10
13.721124
20
5.718017
11
13.646359
21
5.8670802
0
LINE
8
layer0
10
13.646359
20
5.8670802
11
13.5727071
21
6.0307313
0
LINE
8
layer0
10
13.5727071
20
6.0307313
11
13.5002922
21
6.2114851
0
LINE
8
layer0
10
13.5002922
20
6.2114851
11
13.4304655
21
6.4093816
0
LINE
8
layer0
10
13.4304655
20
6.4093816
11
13.3646303
21
6.6242917
0
LINE
8
layer0
10
13.3646303
20
6.6242917
11
13.3041035
21
6.8561363
0
LINE
8
layer0
10
13.3041035
20
6.8561363
11
13.2537067
21
7.0882964
0
ARC
8
layer0
10
21.0000335
20
-0.0000335
40
10.5
50
132.4602883
51
137.5397117
0
LINE
8
layer0
10
13.9117036
20
7.7462933
11
14.1438637
21
7.6958965
0
LINE
8
layer0
10
14.1438637
20
7.6958965
11
14.3757083
21
7.6353697
0
LINE
8
layer0
10
14.3757083
20
7.6353697
11
14.5906184
21
7.5695345
0
LINE
8
layer0
10
14.5906184
20
7.5695345
11
14.7885149
21
7.4997078
0
LINE
8
layer0
10
14.7885149
20
7.4997078
11
14.9692687
21
7.4272929
0
LINE
8
layer0
10
14.9692687
20
7.4272929
11
15.1329198
21
7.353641
0
LINE
8
layer0
10
15.1329198
20
7.353641
11
15.281983
21
7.278876
0
LINE
8
layer0
10
15.281983
20
7.278876
11
15.4123048
21
7.2065119
0
LINE
8
layer0
10
15.4123048
20
7.2065119
11
15.5280066
21
7.1358106
0
LINE
8
layer0
10
15.5280066
20
7.1358106
11
15.712949
21
7.006601
0
LINE
8
layer0
10
15.712949
20
7.006601
11
15.842018
21
6.8994269
0
LINE
8
layer0
10
15.842018
20
6.8994269
11
15.919416
21
6.8234696
0
LINE
8
layer0
10
15.919416
20
6.8234696
11
15.9478017
21
6.7847442
0
LINE
8
layer0
10
15.9478017
20
6.7847442
11
16.0384301
21
6.6378712
0
LINE
8
layer0
10
16.0384301
20
6.6378712
11
16.1318474
21
6.5103676
0
LINE
8
layer0
10
16.1318474
20
6.5103676
11
16.2265965
21
6.4021774
0
LINE
8
layer0
10
16.2265965
20
6.4021774
11
16.3212292
21
6.3131688
0
LINE
8
layer0
10
16.3212292
20
6.3131688
11
16.4143076
21
6.2431122
0
LINE
8
layer0
10
16.4143076
20
6.2431122
11
16.504439
21
6.1917
0
LINE
8
layer0
10
16.504439
20
6.1917
11
16.590205
21
6.1585289
0
LINE
8
layer0
10
16.590205
20
6.1585289
11
16.6702768
21
6.1431205
0
LINE
8
layer0
10
16.6702768
20
6.1431205
11
16.7433124
21
6.1449193
0
LINE
8
layer0
10
16.7433124
20
6.1449193
11
16.8080245
21
6.1632745
0
LINE
8
layer0
10
16.8080245
20
6.1632745
11
16.836871
21
6.178451
0
LINE
8
layer0
10
16.836871
20
6.178451
11
17.0572402
21
6.3212003
0
LINE
8
layer0
10
17.0572402
20
6.3212003
11
17.275
21
6.4518893
0
LINE
8
layer0
10
17.275
20
6.4518893
11
17.4970598
21
6.5751303
0
LINE
8
layer0
10
17.4970598
20
6.5751303
11
17.730869
21
6.694601
0
LINE
8
layer0
10
17.730869
20
6.694601
11
17.7584355
21
6.7119945
0
LINE
8
layer0
10
17.7584355
20
6.7119945
11
17.8066876
21
6.7588593
0
LINE
8
layer0
10
17.8066876
20
6.7588593
11
17.8447632
21
6.8212105
0
LINE
8
layer0
10
17.8447632
20
6.8212105
11
17.871455
21
6.8982589
0
LINE
8
layer0
10
17.871455
20
6.8982589
11
17.885611
21
6.98912
0
LINE
8
layer0
10
17.885611
20
6.98912
11
17.8861524
21
7.0928822
0
LINE
8
layer0
10
17.8861524
20
7.0928822
11
17.8720208
21
7.2085188
0
LINE
8
layer0
10
17.8720208
20
7.2085188
11
17.8422535
21
7.3349774
0
LINE
8
layer0
10
17.8422535
20
7.3349774
11
17.7959326
21
7.4711276
0
LINE
8
layer0
10
17.7959326
20
7.4711276
11
17.7322199
21
7.6157812
0
LINE
8
layer0
10
17.7322199
20
7.6157812
11
17.6503383
21
7.7677042
0
LINE
8
layer0
10
17.6503383
20
7.7677042
11
17.630994
21
7.8116496
0
LINE
8
layer0
10
17.630994
20
7.8116496
11
17.603912
21
7.9166569
0
LINE
8
layer0
10
17.603912
20
7.9166569
11
17.575631
21
8.082021
0
LINE
8
layer0
10
17.575631
20
8.082021
11
17.5562034
21
8.3067906
0
LINE
8
layer0
10
17.5562034
20
8.3067906
11
17.5528252
21
8.4423419
0
LINE
8
layer0
10
17.5528252
20
8.4423419
11
17.555317
21
8.591386
0
LINE
8
layer0
10
17.555317
20
8.591386
11
17.5651002
21
8.757861
0
LINE
8
layer0
10
17.5651002
20
8.757861
11
17.5831413
21
8.9364129
0
LINE
8
layer0
10
17.5831413
20
8.9364129
11
17.6108051
21
9.1291578
0
LINE
8
layer0
10
17.6108051
20
9.1291578
11
17.6492816
21
9.3354545
0
LINE
8
layer0
10
17.6492816
20
9.3354545
11
17.6997217
21
9.5544897
0
LINE
8
layer0
10
17.6997217
20
9.5544897
11
17.7632263
21
9.7855365
0
LINE
8
layer0
10
17.7632263
20
9.7855365
11
17.8356614
21
10.0117914
0
ARC
8
layer0
10
21.0000127
20
-0.0000457
40
10.5
50
102.4602913
51
107.5397141
0
LINE
8
layer0
10
18.7345019
20
10.252635
11
18.91036
21
10.09291
0
LINE
8
layer0
10
18.91036
20
10.09291
11
19.08088
21
9.92457
0
LINE
8
layer0
10
19.08088
20
9.92457
11
19.23408
21
9.7601
0
LINE
8
layer0
10
19.23408
20
9.7601
11
19.37055
21
9.60068
0
LINE
8
layer0
10
19.37055
20
9.60068
11
19.49088
21
9.44759
0
LINE
8
layer0
10
19.49088
20
9.44759
11
19.59578
21
9.30198
0
LINE
8
layer0
10
19.59578
20
9.30198
11
19.68749
21
9.1627
0
LINE
8
layer0
10
19.68749
20
9.1627
11
19.76417
21
9.03487
0
LINE
8
layer0
10
19.76417
20
9.03487
11
19.82902
21
8.91579
0
LINE
8
layer0
10
19.82902
20
8.91579
11
19.92458
21
8.71142
0
LINE
8
layer0
10
19.92458
20
8.71142
11
19.98277
21
8.55407
0
LINE
8
layer0
10
19.98277
20
8.55407
11
20.01182
21
8.44959
0
LINE
8
layer0
10
20.01182
20
8.44959
11
20.01704
21
8.40186
0
LINE
8
layer0
10
20.01704
20
8.40186
11
20.02209
21
8.22935
0
LINE
8
layer0
10
20.02209
20
8.22935
11
20.03924
21
8.07222
0
LINE
8
layer0
10
20.03924
20
8.07222
11
20.0672
21
7.93115
0
LINE
8
layer0
10
20.0672
20
7.93115
11
20.10465
21
7.80675
0
LINE
8
layer0
10
20.10465
20
7.80675
11
20.15023
21
7.69954
0
LINE
8
layer0
10
20.15023
20
7.69954
11
20.20258
21
7.60995
0
LINE
8
layer0
10
20.20258
20
7.60995
11
20.26027
21
7.53834
0
LINE
8
layer0
10
20.26027
20
7.53834
11
20.32191
21
7.48496
0
LINE
8
layer0
10
20.32191
20
7.48496
11
20.38606
21
7.45
0
LINE
8
layer0
10
20.38606
20
7.45
11
20.45128
21
7.43354
0
LINE
8
layer0
10
20.45128
20
7.43354
11
20.48385
21
7.43226
0
LINE
8
layer0
10
20.48385
20
7.43226
11
20.74607
21
7.4457
0
LINE
8
layer0
10
20.74607
20
7.4457
11
21
21
7.45
0
LINE
8
layer0
10
21
20
7.45
11
21.25393
21
7.4457
0
LINE
8
layer0
10
21.25393
20
7.4457
11
21.51615
21
7.43226
0
LINE
8
layer0
10
21.51615
20
7.43226
11
21.54872
21
7.43354
0
LINE
8
layer0
10
21.54872
20
7.43354
11
21.61394
21
7.45
0
LINE
8
layer0
10
21.61394
20
7.45
11
21.67809
21
7.48496
0
LINE
8
layer0
10
21.67809
20
7.48496
11
21.73973
21
7.53834
0
LINE
8
layer0
10
21.73973
20
7.53834
11
21.79742
21
7.60995
0
LINE
8
layer0
10
21.79742
20
7.60995
11
21.84977
21
7.69954
0
LINE
8
layer0
10
21.84977
20
7.69954
11
21.89535
21
7.80675
0
LINE
8
layer0
10
21.89535
20
7.80675
11
21.9328
21
7.93115
0
LINE
8
layer0
10
21.9328
20
7.93115
11
21.96076
21
8.07222
0
LINE
8
layer0
10
21.96076
20
8.07222
11
21.97791
21
8.22935
0
LINE
8
layer0
10
21.97791
20
8.22935
11
21.98296
21
8.40186
0
LINE
8
layer0
10
21.98296
20
8.40186
11
21.98818
21
8.44959
0
LINE
8
layer0
10
21.98818
20
8.44959
11
22.01723
21
8.55407
0
LINE
8
layer0
10
22.01723
20
8.55407
11
22.07542
21
8.71142
0
LINE
8
layer0
10
22.07542
20
8.71142
11
22.17098
21
8.91579
0
LINE
8
layer0
10
22.17098
20
8.91579
11
22.23583
21
9.03487
0
LINE
8
layer0
10
22.23583
20
9.03487
11
22.31251
21
9.1627
0
LINE
8
layer0
10
22.31251
20
9.1627
11
22.40422
21
9.30198
0
LINE
8
layer0
10
22.40422
20
9.30198
11
22.50912
21
9.44759
0
LINE
8
layer0
10
22.50912
20
9.44759
11
22.62945
21
9.60068
0
LINE
8
layer0
10
22.62945
20
9.60068
11
22.76592
21
9.7601
0
LINE
8
layer0
10
22.76592
20
9.7601
11
22.91912
21
9.92457
0
LINE
8
layer0
10
22.91912
20
9.92457
11
23.08964
21
10.09291
0
LINE
8
layer0
10
23.08964
20
10.09291
11
23.2654981
21
10.252635
0
ARC
8
layer0
10
20.9999873
20
-0.0000457
40
10.5
50
72.4602864
51
77.5397093
0
LINE
8
layer0
10
24.1643386
20
10.0117914
11
24.2367737
21
9.7855365
0
LINE
8
layer0
10
24.2367737
20
9.7855365
11
24.3002783
21
9.5544897
0
LINE
8
layer0
10
24.3002783
20
9.5544897
11
24.3507184
21
9.3354545
0
LINE
8
layer0
10
24.3507184
20
9.3354545
11
24.3891949
21
9.1291578
0
LINE
8
layer0
10
24.3891949
20
9.1291578
11
24.4168587
21
8.9364129
0
LINE
8
layer0
10
24.4168587
20
8.9364129
11
24.4348998
21
8.757861
0
LINE
8
layer0
10
24.4348998
20
8.757861
11
24.444683
21
8.591386
0
LINE
8
layer0
10
24.444683
20
8.591386
11
24.4471748
21
8.4423419
0
LINE
8
layer0
10
24.4471748
20
8.4423419
11
24.4437966
21
8.3067906
0
LINE
8
layer0
10
24.4437966
20
8.3067906
11
24.424369
21
8.082021
0
LINE
8
layer0
10
24.424369
20
8.082021
11
24.396088
21
7.9166569
0
LINE
8
layer0
10
24.396088
20
7.9166569
11
24.369006
21
7.8116496
0
LINE
8
layer0
10
24.369006
20
7.8116496
11
24.3496617
21
7.7677042
0
LINE
8
layer0
10
24.3496617
20
7.7677042
11
24.2677801
21
7.6157812
0
LINE
8
layer0
10
24.2677801
20
7.6157812
11
24.2040674
21
7.4711276
0
LINE
8
layer0
10
24.2040674
20
7.4711276
11
24.1577465
21
7.3349774
0
LINE
8
layer0
10
24.1577465
20
7.3349774
11
24.1279792
21
7.2085188
0
LINE
8
layer0
10
24.1279792
20
7.2085188
11
24.1138476
21
7.0928822
0
LINE
8
layer0
10
24.1138476
20
7.0928822
11
24.114389
21
6.98912
0
LINE
8
layer0
10
24.114389
20
6.98912
11
24.128545
21
6.8982589
0
LINE
8
layer0
10
24.128545
20
6.8982589
11
24.1552368
21
6.8212105
0
LINE
8
layer0
10
24.1552368
20
6.8212105
11
24.1933124
21
6.7588593
0
LINE
8
layer0
10
24.1933124
20
6.7588593
11
24.2415645
21
6.7119945
0
LINE
8
layer0
10
24.2415645
20
6.7119945
11
24.269131
21
6.694601
0
LINE
8
layer0
10
24.269131
20
6.694601
11
24.5029402
21
6.5751303
0
LINE
8
layer0
10
24.5029402
20
6.5751303
11
24.725
21
6.4518893
0
LINE
8
layer0
10
24.725
20
6.4518893
11
24.9427598
21
6.3212003
0
LINE
8
layer0
10
24.9427598
20
6.3212003
11
25.163129
21
6.178451
0
LINE
8
layer0
10
25.163129
20
6.178451
11
25.1919755
21
6.1632745
0
LINE
8
layer0
10
25.1919755
20
6.1632745
11
25.2566876
21
6.1449193
0
LINE
8
layer0
10
25.2566876
20
6.1449193
11
25.3297232
21
6.1431205
0
LINE
8
layer0
10
25.3297232
20
6.1431205
11
25.409795
21
6.1585289
0
LINE
8
layer0
10
25.409795
20
6.1585289
11
25.495561
21
6.1917
0
LINE
8
layer0
10
25.495561
20
6.1917
11
25.5856924
21
6.2431122
0
LINE
8
layer0
10
25.5856924
20
6.2431122
11
25.6787708
21
6.3131688
0
LINE
8
layer0
10
25.6787708
20
6.3131688
11
25.7734035
21
6.4021774
0
LINE
8
layer0
10
25.7734035
20
6.4021774
11
25.8681526
21
6.5103676
0
LINE
8
layer0
10
25.8681526
20
6.5103676
11
25.9615699
21
6.6378712
0
LINE
8
layer0
10
25.9615699
20
6.6378712
11
26.0521983
21
6.7847442
0
LINE
8
layer0
10
26.0521983
20
6.7847442
11
26.080584
21
6.8234696
0
LINE
8
layer0
10
26.080584
20
6.8234696
11
26.157982
21
6.8994269
0
LINE
8
layer0
10
26.157982
20
6.8994269
11
26.287051
21
7.006601
0
LINE
8
layer0
10
26.287051
20
7.006601
11
26.4719934
21
7.1358106
0
LINE
8
layer0
10
26.4719934
20
7.1358106
11
26.5876952
21
7.2065119
0
LINE
8
layer0
10
26.5876952
20
7.2065119
11
26.718017
21
7.278876
0
LINE
8
layer0
10
26.718017
20
7.278876
11
26.8670802
21
7.353641
0
LINE
8
layer0
10
26.8670802
20
7.353641
11
27.0307313
21
7.4272929
0
LINE
8
layer0
10
27.0307313
20
7.4272929
11
27.2114851
21
7.4997078
0
LINE
8
layer0
10
27.2114851
20
7.4997078
11
27.4093816
21
7.5695345
0
LINE
8
layer0
10
27.4093816
20
7.5695345
11
27.6242917
21
7.6353697
0
LINE
8
layer0
10
27.6242917
20
7.6353697
11
27.8561363
21
7.6958965
0
LINE
8
layer0
10
27.8561363
20
7.6958965
11
28.0882964
21
7.7462933
0
ARC
8
layer0
10
20.9999665
20
-0.0000335
40
10.5
50
42.4602883
51
47.5397117
0
LINE
8
layer0
10
28.7462933
20
7.0882964
11
28.6958965
21
6.8561363
0
LINE
8
layer0
10
28.6958965
20
6.8561363
11
28.6353697
21
6.6242917
0
LINE
8
layer0
10
28.6353697
20
6.6242917
11
28.5695345
21
6.4093816
0
LINE
8
layer0
10
28.5695345
20
6.4093816
11
28.4997078
21
6.2114851
0
LINE
8
layer0
10
28.4997078
20
6.2114851
11
28.4272929
21
6.0307313
0
LINE
8
layer0
10
28.4272929
20
6.0307313
11
28.353641
21
5.8670802
0
LINE
8
layer0
10
28.353641
20
5.8670802
11
28.278876
21
5.718017
0
LINE
8
layer0
10
28.278876
20
5.718017
11
28.2065119
21
5.5876952
0
LINE
8
layer0
10
28.2065119
20
5.5876952
11
28.1358106
21
5.4719934
0
LINE
8
layer0
10
28.1358106
20
5.4719934
11
28.006601
21
5.287051
0
LINE
8
layer0
10
28.006601
20
5.287051
11
27.8994269
21
5.157982
0
LINE
8
layer0
10
27.8994269
20
5.157982
11
27.8234696
21
5.080584
0
LINE
8
layer0
10
27.8234696
20
5.080584
11
27.7847442
21
5.0521983
0
LINE
8
layer0
10
27.7847442
20
5.0521983
11
27.6378712
21
4.9615699
0
LINE
8
layer0
10
27.6378712
20
4.9615699
11
27.5103676
21
4.8681526
0
LINE
8
layer0
10
27.5103676
20
4.8681526
11
27.4021774
21
4.7734035
0
LINE
8
layer0
10
27.4021774
20
4.7734035
11
27.3131688
21
4.6787708
0
LINE
8
layer0
10
27.3131688
20
4.6787708
11
27.2431122
21
4.5856924
0
LINE
8
layer0
10
27.2431122
20
4.5856924
11
27.1917
21
4.495561
0
LINE
8
layer0
10
27.1917
20
4.495561
11
27.1585289
21
4.409795
0
LINE
8
layer0
10
27.1585289
20
4.409795
11
27.1431205
21
4.3297232
0
LINE
8
layer0
10
27.1431205
20
4.3297232
11
27.1449193
21
4.2566876
0
LINE
8
layer0
10
27.1449193
20
4.2566876
11
27.1632745
21
4.1919755
0
LINE
8
layer0
10
27.1632745
20
4.1919755
11
27.178451
21
4.163129
0
LINE
8
layer0
10
27.178451
20
4.163129
11
27.3212003
21
3.9427598
0
LINE
8
layer0
10
27.3212003
20
3.9427598
11
27.4518893
21
3.725
0
LINE
8
layer0
10
27.4518893
20
3.725
11
27.5751303
21
3.5029402
0
LINE
8
layer0
10
27.5751303
20
3.5029402
11
27.694601
21
3.269131
0
LINE
8
layer0
10
27.694601
20
3.269131
11
27.7119945
21
3.2415645
0
LINE
8
layer0
10
27.7119945
20
3.2415645
11
27.7588593
21
3.1933124
0
LINE
8
layer0
10
27.7588593
20
3.1933124
11
27.8212105
21
3.1552368
0
LINE
8
layer0
10
27.8212105
20
3.1552368
11
27.8982589
21
3.128545
0
LINE
8
layer0
10
27.8982589
20
3.128545
11
27.98912
21
3.114389
0
LINE
8
layer0
10
27.98912
20
3.114389
11
28.0928822
21
3.1138476
0
LINE
8
layer0
10
28.0928822
20
3.1138476
11
28.2085188
21
3.1279792
0
LINE
8
layer0
10
28.2085188
20
3.1279792
11
28.3349774
21
3.1577465
0
LINE
8
layer0
10
28.3349774
20
3.1577465
11
28.4711276
21
3.2040674
0
LINE
8
layer0
10
28.4711276
20
3.2040674
11
28.6157812
21
3.2677801
0
LINE
8
layer0
10
28.6157812
20
3.2677801
11
28.7677042
21
3.3496617
0
LINE
8
layer0
10
28.7677042
20
3.3496617
11
28.8116496
21
3.369006
0
LINE
8
layer0
10
28.8116496
20
3.369006
11
28.9166569
21
3.396088
0
LINE
8
layer0
10
28.9166569
20
3.396088
11
29.082021
21
3.424369
0
LINE
8
layer0
10
29.082021
20
3.424369
11
29.3067906
21
3.4437966
0
LINE
8
layer0
10
29.3067906
20
3.4437966
11
29.4423419
21
3.4471748
0
LINE
8
layer0
10
29.4423419
20
3.4471748
11
29.591386
21
3.444683
0
LINE
8
layer0
10
29.591386
20
3.444683
11
29.757861
21
3.4348998
0
LINE
8
layer0
10
29.757861
20
3.4348998
11
29.9364129
21
3.4168587
0
LINE
8
layer0
10
29.9364129
20
3.4168587
11
30.1291578
21
3.3891949
0
LINE
8
layer0
10
30.1291578
20
3.3891949
11
30.3354545
21
3.3507184
0
LINE
8
layer0
10
30.3354545
20
3.3507184
11
30.5544897
21
3.3002783
0
LINE
8
layer0
10
30.5544897
20
3.3002783
11
30.7855365
21
3.2367737
0
LINE
8
layer0
10
30.7855365
20
3.2367737
11
31.0117914
21
3.1643386
0
ARC
8
layer0
10
20.9999543
20
-0.0000127
40
10.5
50
12.4602913
51
17.5397141
0
LINE
8
layer0
10
31.252635
20
2.2654981
11
31.09291
21
2.08964
0
LINE
8
layer0
10
31.09291
20
2.08964
11
30.92457
21
1.91912
0
LINE
8
layer0
10
30.92457
20
1.91912
11
30.7601
21
1.76592
0
LINE
8
layer0
10
30.7601
20
1.76592
11
30.60068
21
1.62945
0
LINE
8
layer0
10
30.60068
20
1.62945
11
30.44759
21
1.50912
0
LINE
8
layer0
10
30.44759
20
1.50912
11
30.30198
21
1.40422
0
LINE
8
layer0
10
30.30198
20
1.40422
11
30.1627
21
1.31251
0
LINE
8
layer0
10
30.1627
20
1.31251
11
30.03487
21
1.23583
0
LINE
8
layer0
10
30.03487
20
1.23583
11
29.91579
21
1.17098
0
LINE
8
layer0
10
29.91579
20
1.17098
11
29.71142
21
1.07542
0
LINE
8
layer0
10
29.71142
20
1.07542
11
29.55407
21
1.01723
0
LINE
8
layer0
10
29.55407
20
1.01723
11
29.44959
21
0.98818
0
LINE
8
layer0
10
29.44959
20
0.98818
11
29.40186
21
0.98296
0
LINE
8
layer0
10
29.40186
20
0.98296
11
29.22935
21
0.97791
0
LINE
8
layer0
10
29.22935
20
0.97791
11
29.07222
21
0.96076
0
LINE
8
layer0
10
29.07222
20
0.96076
11
28.93115
21
0.9328
0
LINE
8
layer0
10
28.93115
20
0.9328
11
28.80675
21
0.89535
0
LINE
8
layer0
10
28.80675
20
0.89535
11
28.69954
21
0.84977
0
LINE
8
layer0
10
28.69954
20
0.84977
11
28.60995
21
0.79742
0
LINE
8
layer0
10
28.60995
20
0.79742
11
28.53834
21
0.73973
0
LINE
8
layer0
10
28.53834
20
0.73973
11
28.48496
21
0.67809
0
LINE
8
layer0
10
28.48496
20
0.67809
11
28.45
21
0.61394
0
LINE
8
layer0
10
28.45
20
0.61394
11
28.43354
21
0.54872
0
LINE
8
layer0
10
28.43354
20
0.54872
11
28.43226
21
0.51615
0
LINE
8
layer0
10
28.43226
20
0.51615
11
28.4457
21
0.25393
0
LINE
8
layer0
10
28.4457
20
0.25393
11
28.45
21
0
0
LINE
8
layer0
10
28.45
20
0
11
28.4457
21
-0.25393
0
LINE
8
layer0
10
28.4457
20
-0.25393
11
28.43226
21
-0.51615
0
LINE
8
layer0
10
28.43226
20
-0.51615
11
28.43354
21
-0.54872
0
LINE
8
layer0
10
28.43354
20
-0.54872
11
28.45
21
-0.61394
0
LINE
8
layer0
10
28.45
20
-0.61394
11
28.48496
21
-0.67809
0
LINE
8
layer0
10
28.48496
20
-0.67809
11
28.53834
21
-0.73973
0
LINE
8
layer0
10
28.53834
20
-0.73973
11
28.60995
21
-0.79742
0
LINE
8
layer0
10
28.60995
20
-0.79742
11
28.69954
21
-0.84977
0
LINE
8
layer0
10
28.69954
20
-0.84977
11
28.80675
21
-0.89535
0
LINE
8
layer0
10
28.80675
20
-0.89535
11
28.93115
21
-0.9328
0
LINE
8
layer0
10
28.93115
20
-0.9328
11
29.07222
21
-0.96076
0
LINE
8
layer0
10
29.07222
20
-0.96076
11
29.22935
21
-0.97791
0
LINE
8
layer0
10
29.22935
20
-0.97791
11
29.40186
21
-0.98296
0
LINE
8
layer0
10
29.40186
20
-0.98296
11
29.44959
21
-0.98818
0
LINE
8
layer0
10
29.44959
20
-0.98818
11
29.55407
21
-1.01723
0
LINE
8
layer0
10
29.55407
20
-1.01723
11
29.71142
21
-1.07542
0
LINE
8
layer0
10
29.71142
20
-1.07542
11
29.91579
21
-1.17098
0
LINE
8
layer0
10
29.91579
20
-1.17098
11
30.03487
21
-1.23583
0
LINE
8
layer0
10
30.03487
20
-1.23583
11
30.1627
21
-1.31251
0
LINE
8
layer0
10
30.1627
20
-1.31251
11
30.30198
21
-1.40422
0
LINE
8
layer0
10
30.30198
20
-1.40422
11
30.44759
21
-1.50912
0
LINE
8
layer0
10
30.44759
20
-1.50912
11
30.60068
21
-1.62945
0
LINE
8
layer0
10
30.60068
20
-1.62945
11
30.7601
21
-1.76592
0
LINE
8
layer0
10
30.7601
20
-1.76592
11
30.92457
21
-1.91912
0
LINE
8
layer0
10
30.92457
20
-1.91912
11
31.09291
21
-2.08964
0
LINE
8
layer0
10
31.09291
20
-2.08964
11
31.252635
21
-2.2654981
0
ARC
8
layer0
10
20.9999543
20
0.0000127
40
10.5
50
342.4602864
51
347.5397093
0
LINE
8
layer0
10
31.0117914
20
-3.1643386
11
30.7855365
21
-3.2367737
0
LINE
8
layer0
10
30.7855365
20
-3.2367737
11
30.5544897
21
-3.3002783
0
LINE
8
layer0
10
30.5544897
20
-3.3002783
11
30.3354545
21
-3.3507184
0
LINE
8
layer0
10
30.3354545
20
-3.3507184
11
30.1291578
21
-3.3891949
0
LINE
8
layer0
10
30.1291578
20
-3.3891949
11
29.9364129
21
-3.4168587
0
LINE
8
layer0
10
29.9364129
20
-3.4168587
11
29.757861
21
-3.4348998
0
LINE
8
layer0
10
29.757861
20
-3.4348998
11
29.591386
21
-3.444683
0
LINE
8
layer0
10
29.591386
20
-3.444683
11
29.4423419
21
-3.4471748
0
LINE
8
layer0
10
29.4423419
20
-3.4471748
11
29.3067906
21
-3.4437966
0
LINE
8
layer0
10
29.3067906
20
-3.4437966
11
29.082021
21
-3.424369
0
LINE
8
layer0
10
29.082021
20
-3.424369
11
28.9166569
21
-3.396088
0
LINE
8
layer0
10
28.9166569
20
-3.396088
11
28.8116496
21
-3.369006
0
LINE
8
layer0
10
28.8116496
20
-3.369006
11
28.7677042
21
-3.3496617
0
LINE
8
layer0
10
28.7677042
20
-3.3496617
11
28.6157812
21
-3.2677801
0
LINE
8
layer0
10
28.6157812
20
-3.2677801
11
28.4711276
21
-3.2040674
0
LINE
8
layer0
10
28.4711276
20
-3.2040674
11
28.3349774
21
-3.1577465
0
LINE
8
layer0
10
28.3349774
20
-3.1577465
11
28.2085188
21
-3.1279792
0
LINE
8
layer0
10
28.2085188
20
-3.1279792
11
28.0928822
21
-3.1138476
0
LINE
8
layer0
10
28.0928822
20
-3.1138476
11
27.98912
21
-3.114389
0
LINE
8
layer0
10
27.98912
20
-3.114389
11
27.8982589
21
-3.128545
0
LINE
8
layer0
10
27.8982589
20
-3.128545
11
27.8212105
21
-3.1552368
0
LINE
8
layer0
10
27.8212105
20
-3.1552368
11
27.7588593
21
-3.1933124
0
LINE
8
layer0
10
27.7588593
20
-3.1933124
11
27.7119945
21
-3.2415645
0
LINE
8
layer0
10
27.7119945
20
-3.2415645
11
27.694601
21
-3.269131
0
LINE
8
layer0
10
27.694601
20
-3.269131
11
27.5751303
21
-3.5029402
0
LINE
8
layer0
10
27.5751303
20
-3.5029402
11
27.4518893
21
-3.725
0
LINE
8
layer0
10
27.4518893
20
-3.725
11
27.3212003
21
-3.9427598
0
LINE
8
layer0
10
27.3212003
20
-3.9427598
11
27.178451
21
-4.163129
0
LINE
8
layer0
10
27.178451
20
-4.163129
11
27.1632745
21
-4.1919755
0
LINE
8
layer0
10
27.1632745
20
-4.1919755
11
27.1449193
21
-4.2566876
0
LINE
8
layer0
10
27.1449193
20
-4.2566876
11
27.1431205
21
-4.3297232
0
LINE
8
layer0
10
27.1431205
20
-4.3297232
11
27.1585289
21
-4.409795
0
LINE
8
layer0
10
27.1585289
20
-4.409795
11
27.1917
21
-4.495561
0
LINE
8
layer0
10
27.1917
20
-4.495561
11
27.2431122
21
-4.5856924
0
LINE
8
layer0
10
27.2431122
20
-4.5856924
11
27.3131688
21
-4.6787708
0
LINE
8
layer0
10
27.3131688
20
-4.6787708
11
27.4021774
21
-4.7734035
0
LINE
8
layer0
10
27.4021774
20
-4.7734035
11
27.5103676
21
-4.8681526
0
LINE
8
layer0
10
27.5103676
20
-4.8681526
11
27.6378712
21
-4.9615699
0
LINE
8
layer0
10
27.6378712
20
-4.9615699
11
27.7847442
21
-5.0521983
0
LINE
8
layer0
10
27.7847442
20
-5.0521983
11
27.8234696
21
-5.080584
0
LINE
8
layer0
10
27.8234696
20
-5.080584
11
27.8994269
21
-5.157982
0
LINE
8
layer0
10
27.8994269
20
-5.157982
11
28.006601
21
-5.287051
0
LINE
8
layer0
10
28.006601
20
-5.287051
11
28.1358106
21
-5.4719934
0
LINE
8
layer0
10
28.1358106
20
-5.4719934
11
28.2065119
21
-5.5876952
0
LINE
8
layer0
10
28.2065119
20
-5.5876952
11
28.278876
21
-5.718017
0
LINE
8
layer0
10
28.278876
20
-5.718017
11
28.353641
21
-5.8670802
0
LINE
8
layer0
10
28.353641
20
-5.8670802
11
28.4272929
21
-6.0307313
0
LINE
8
layer0
10
28.4272929
20
-6.0307313
11
28.4997078
21
-6.2114851
0
LINE
8
layer0
10
28.4997078
20
-6.2114851
11
28.5695345
21
-6.4093816
0
LINE
8
layer0
10
28.5695345
20
-6.4093816
11
28.6353697
21
-6.6242917
0
LINE
8
layer0
10
28.6353697
20
-6.6242917
11
28.6958965
21
-6.8561363
0
LINE
8
layer0
10
28.6958965
20
-6.8561363
11
28.7462933
21
-7.0882964
0
ARC
8
layer0
10
20.9999665
20
0.0000335
40
10.5
50
312.4602883
51
317.5397117
0
LINE
8
layer0
10
28.0882964
20
-7.7462933
11
27.8561363
21
-7.6958965
0
LINE
8
layer0
10
27.8561363
20
-7.6958965
11
27.6242917
21
-7.6353697
0
LINE
8
layer0
10
27.6242917
20
-7.6353697
11
27.4093816
21
-7.5695345
0
LINE
8
layer0
10
27.4093816
20
-7.5695345
11
27.2114851
21
-7.4997078
0
LINE
8
layer0
10
27.2114851
20
-7.4997078
11
27.0307313
21
-7.4272929
0
LINE
8
layer0
10
27.0307313
20
-7.4272929
11
26.8670802
21
-7.353641
0
LINE
8
layer0
10
26.8670802
20
-7.353641
11
26.718017
21
-7.278876
0
LINE
8
layer0
10
26.718017
20
-7.278876
11
26.5876952
21
-7.2065119
0
LINE
8
layer0
10
26.5876952
20
-7.2065119
11
26.4719934
21
-7.1358106
0
LINE
8
layer0
10
26.4719934
20
-7.1358106
11
26.287051
21
-7.006601
0
LINE
8
layer0
10
26.287051
20
-7.006601
11
26.157982
21
-6.8994269
0
LINE
8
layer0
10
26.157982
20
-6.8994269
11
26.080584
21
-6.8234696
0
LINE
8
layer0
10
26.080584
20
-6.8234696
11
26.0521983
21
-6.7847442
0
LINE
8
layer0
10
26.0521983
20
-6.7847442
11
25.9615699
21
-6.6378712
0
LINE
8
layer0
10
25.9615699
20
-6.6378712
11
25.8681526
21
-6.5103676
0
LINE
8
layer0
10
25.8681526
20
-6.5103676
11
25.7734035
21
-6.4021774
0
LINE
8
layer0
10
25.7734035
20
-6.4021774
11
25.6787708
21
-6.3131688
0
LINE
8
layer0
10
25.6787708
20
-6.3131688
11
25.5856924
21
-6.2431122
0
LINE
8
layer0
10
25.5856924
20
-6.2431122
11
25.495561
21
-6.1917
0
LINE
8
layer0
10
25.495561
20
-6.1917
11
25.409795
21
-6.1585289
0
LINE
8
layer0
10
25.409795
20
-6.1585289
11
25.3297232
21
-6.1431205
0
LINE
8
layer0
10
25.3297232
20
-6.1431205
11
25.2566876
21
-6.1449193
0
LINE
8
layer0
10
25.2566876
20
-6.1449193
11
25.1919755
21
-6.1632745
0
LINE
8
layer0
10
25.1919755
20
-6.1632745
11
25.163129
21
-6.178451
0
LINE
8
layer0
10
25.163129
20
-6.178451
11
24.9427598
21
-6.3212003
0
LINE
8
layer0
10
24.9427598
20
-6.3212003
11
24.725
21
-6.4518893
0
LINE
8
layer0
10
24.725
20
-6.4518893
11
24.5029402
21
-6.5751303
0
LINE
8
layer0
10
24.5029402
20
-6.5751303
11
24.269131
21
-6.694601
0
LINE
8
layer0
10
24.269131
20
-6.694601
11
24.2415645
21
-6.7119945
0
LINE
8
layer0
10
24.2415645
20
-6.7119945
11
24.1933124
21
-6.7588593
0
LINE
8
layer0
10
24.1933124
20
-6.7588593
11
24.1552368
21
-6.8212105
0
LINE
8
layer0
10
24.1552368
20
-6.8212105
11
24.128545
21
-6.8982589
0
LINE
8
layer0
10
24.128545
20
-6.8982589
11
24.114389
21
-6.98912
0
LINE
8
layer0
10
24.114389
20
-6.98912
11
24.1138476
21
-7.0928822
0
LINE
8
layer0
10
24.1138476
20
-7.0928822
11
24.1279792
21
-7.2085188
0
LINE
8
layer0
10
24.1279792
20
-7.2085188
11
24.1577465
21
-7.3349774
0
LINE
8
layer0
10
24.1577465
20
-7.3349774
11
24.2040674
21
-7.4711276
0
LINE
8
layer0
10
24.2040674
20
-7.4711276
11
24.2677801
21
-7.6157812
0
LINE
8
layer0
10
24.2677801
20
-7.6157812
11
24.3496617
21
-7.7677042
0
LINE
8
layer0
10
24.3496617
20
-7.7677042
11
24.369006
21
-7.8116496
0
LINE
8
layer0
10
24.369006
20
-7.8116496
11
24.396088
21
-7.9166569
0
LINE
8
layer0
10
24.396088
20
-7.9166569
11
24.424369
21
-8.082021
0
LINE
8
layer0
10
24.424369
20
-8.082021
11
24.4437966
21
-8.3067906
0
LINE
8
layer0
10
24.4437966
20
-8.3067906
11
24.4471748
21
-8.4423419
0
LINE
8
layer0
10
24.4471748
20
-8.4423419
11
24.444683
21
-8.591386
0
LINE
8
layer0
10
24.444683
20
-8.591386
11
24.4348998
21
-8.757861
0
LINE
8
layer0
10
24.4348998
20
-8.757861
11
24.4168587
21
-8.9364129
0
LINE
8
layer0
10
24.4168587
20
-8.9364129
11
24.3891949
21
-9.1291578
0
LINE
8
layer0
10
24.3891949
20
-9.1291578
11
24.3507184
21
-9.3354545
0
LINE
8
layer0
10
24.3507184
20
-9.3354545
11
24.3002783
21
-9.5544897
0
LINE
8
layer0
10
24.3002783
20
-9.5544897
11
24.2367737
21
-9.7855365
0
LINE
8
layer0
10
24.2367737
20
-9.7855365
11
24.1643386
21
-10.0117914
0
ARC
8
layer0
10
20.9999873
20
0.0000457
40
10.5
50
282.4602913
51
287.5397141
0
LINE
8
layer0
10
23.2654981
20
-10.252635
11
23.08964
21
-10.09291
0
LINE
8
layer0
10
23.08964
20
-10.09291
11
22.91912
21
-9.92457
0
LINE
8
layer0
10
22.91912
20
-9.92457
11
22.76592
21
-9.7601
0
LINE
8
layer0
10
22.76592
20
-9.7601
11
22.62945
21
-9.60068
0
LINE
8
layer0
10
22.62945
20
-9.60068
11
22.50912
21
-9.44759
0
LINE
8
layer0
10
22.50912
20
-9.44759
11
22.40422
21
-9.30198
0
LINE
8
layer0
10
22.40422
20
-9.30198
11
22.31251
21
-9.1627
0
LINE
8
layer0
10
22.31251
20
-9.1627
11
22.23583
21
-9.03487
0
LINE
8
layer0
10
22.23583
20
-9.03487
11
22.17098
21
-8.91579
0
LINE
8
layer0
10
22.17098
20
-8.91579
11
22.07542
21
-8.71142
0
LINE
8
layer0
10
22.07542
20
-8.71142
11
22.01723
21
-8.55407
0
LINE
8
layer0
10
22.01723
20
-8.55407
11
21.98818
21
-8.44959
0
LINE
8
layer0
10
21.98818
20
-8.44959
11
21.98296
21
-8.40186
0
LINE
8
layer0
10
21.98296
20
-8.40186
11
21.97791
21
-8.22935
0
LINE
8
layer0
10
21.97791
20
-8.22935
11
21.96076
21
-8.07222
0
LINE
8
layer0
10
21.96076
20
-8.07222
11
21.9328
21
-7.93115
0
LINE
8
layer0
10
21.9328
20
-7.93115
11
21.89535
21
-7.80675
0
LINE
8
layer0
10
21.89535
20
-7.80675
11
21.84977
21
-7.69954
0
LINE
8
layer0
10
21.84977
20
-7.69954
11
21.79742
21
-7.60995
0
LINE
8
layer0
10
21.79742
20
-7.60995
11
21.73973
21
-7.53834
0
LINE
8
layer0
10
21.73973
20
-7.53834
11
21.67809
21
-7.48496
0
LINE
8
layer0
10
21.67809
20
-7.48496
11
21.61394
21
-7.45
0
LINE
8
layer0
10
21.61394
20
-7.45
11
21.54872
21
-7.43354
0
LINE
8
layer0
10
21.54872
20
-7.43354
11
21.51615
21
-7.43226
0
LINE
8
layer0
10
21.51615
20
-7.43226
11
21.25393
21
-7.4457
0
LINE
8
layer0
10
21.25393
20
-7.4457
11
21
21
-7.45
0
LINE
8
layer0
10
21
20
-7.45
11
20.74607
21
-7.4457
0
LINE
8
layer0
10
20.74607
20
-7.4457
11
20.48385
21
-7.43226
0
LINE
8
layer0
10
20.48385
20
-7.43226
11
20.45128
21
-7.43354
0
LINE
8
layer0
10
20.45128
20
-7.43354
11
20.38606
21
-7.45
0
LINE
8
layer0
10
20.38606
20
-7.45
11
20.32191
21
-7.48496
0
LINE
8
layer0
10
20.32191
20
-7.48496
11
20.26027
21
-7.53834
0
LINE
8
layer0
10
20.26027
20
-7.53834
11
20.20258
21
-7.60995
0
LINE
8
layer0
10
20.20258
20
-7.60995
11
20.15023
21
-7.69954
0
LINE
8
layer0
10
20.15023
20
-7.69954
11
20.10465
21
-7.80675
0
LINE
8
layer0
10
20.10465
20
-7.80675
11
20.0672
21
-7.93115
0
LINE
8
layer0
10
20.0672
20
-7.93115
11
20.03924
21
-8.07222
0
LINE
8
layer0
10
20.03924
20
-8.07222
11
20.02209
21
-8.22935
0
LINE
8
layer0
10
20.02209
20
-8.22935
11
20.01704
21
-8.40186
0
LINE
8
layer0
10
20.01704
20
-8.40186
11
20.01182
21
-8.44959
0
LINE
8
layer0
10
20.01182
20
-8.44959
11
19.98277
21
-8.55407
0
LINE
8
layer0
10
19.98277
20
-8.55407
11
19.92458
21
-8.71142
0
LINE
8
layer0
10
19.92458
20
-8.71142
11
19.82902
21
-8.91579
0
LINE
8
layer0
10
19.82902
20
-8.91579
11
19.76417
21
-9.03487
0
LINE
8
layer0
10
19.76417
20
-9.03487
11
19.68749
21
-9.1627
0
LINE
8
layer0
10
19.68749
20
-9.1627
11
19.59578
21
-9.30198
0
LINE
8
layer0
10
19.59578
20
-9.30198
11
19.49088
21
-9.44759
0
LINE
8
layer0
10
19.49088
20
-9.44759
11
19.37055
21
-9.60068
0
LINE
8
layer0
10
19.37055
20
-9.60068
11
19.23408
21
-9.7601
0
LINE
8
layer0
10
19.23408
20
-9.7601
11
19.08088
21
-9.92457
0
LINE
8
layer0
10
19.08088
20
-9.92457
11
18.91036
21
-10.09291
0
LINE
8
layer0
10
18.91036
20
-10.09291
11
18.7345019
21
-10.252635
0
ARC
8
layer0
10
21.0000127
20
0.0000457
40
10.5
50
252.4602864
51
257.5397093
0
LINE
8
layer0
10
17.8356614
20
-10.0117914
11
17.7632263
21
-9.7855365
0
LINE
8
layer0
10
17.7632263
20
-9.7855365
11
17.6997217
21
-9.5544897
0
LINE
8
layer0
10
17.6997217
20
-9.5544897
11
17.6492816
21
-9.3354545
0
LINE
8
layer0
10
17.6492816
20
-9.3354545
11
17.6108051
21
-9.1291578
0
LINE
8
layer0
10
17.6108051
20
-9.1291578
11
17.5831413
21
-8.9364129
0
LINE
8
layer0
10
17.5831413
20
-8.9364129
11
17.5651002
21
-8.757861
0
LINE
8
layer0
10
17.5651002
20
-8.757861
11
17.555317
21
-8.591386
0
LINE
8
layer0
10
17.555317
20
-8.591386
11
17.5528252
21
-8.4423419
0
LINE
8
layer0
10
17.5528252
20
-8.4423419
11
17.5562034
21
-8.3067906
0
LINE
8
layer0
10
17.5562034
20
-8.3067906
11
17.575631
21
-8.082021
0
LINE
8
layer0
10
17.575631
20
-8.082021
11
17.603912
21
-7.9166569
0
LINE
8
layer0
10
17.603912
20
-7.9166569
11
17.630994
21
-7.8116496
0
LINE
8
layer0
10
17.630994
20
-7.8116496
11
17.6503383
21
-7.7677042
0
LINE
8
layer0
10
17.6503383
20
-7.7677042
11
17.7322199
21
-7.6157812
0
LINE
8
layer0
10
17.7322199
20
-7.6157812
11
17.7959326
21
-7.4711276
0
LINE
8
layer0
10
17.7959326
20
-7.4711276
11
17.8422535
21
-7.3349774
0
LINE
8
layer0
10
17.8422535
20
-7.3349774
11
17.8720208
21
-7.2085188
0
LINE
8
layer0
10
17.8720208
20
-7.2085188
11
17.8861524
21
-7.0928822
0
LINE
8
layer0
10
17.8861524
20
-7.0928822
11
17.885611
21
-6.98912
0
LINE
8
layer0
10
17.885611
20
-6.98912
11
17.871455
21
-6.8982589
0
LINE
8
layer0
10
17.871455
20
-6.8982589
11
17.8447632
21
-6.8212105
0
LINE
8
layer0
10
17.8447632
20
-6.8212105
11
17.8066876
21
-6.7588593
0
LINE
8
layer0
10
17.8066876
20
-6.7588593
11
17.7584355
21
-6.7119945
0
LINE
8
layer0
10
17.7584355
20
-6.7119945
11
17.730869
21
-6.694601
0
LINE
8
layer0
10
17.730869
20
-6.694601
11
17.4970598
21
-6.5751303
0
LINE
8
layer0
10
17.4970598
20
-6.5751303
11
17.275
21
-6.4518893
0
LINE
8
layer0
10
17.275
20
-6.4518893
11
17.0572402
21
-6.3212003
0
LINE
8
layer0
10
17.0572402
20
-6.3212003
11
16.836871
21
-6.178451
0
LINE
8
layer0
10
16.836871
20
-6.178451
11
16.8080245
21
-6.1632745
0
LINE
8
layer0
10
16.8080245
20
-6.1632745
11
16.7433124
21
-6.1449193
0
LINE
8
layer0
10
16.7433124
20
-6.1449193
11
16.6702768
21
-6.1431205
0
LINE
8
layer0
10
16.6702768
20
-6.1431205
11
16.590205
21
-6.1585289
0
LINE
8
layer0
10
16.590205
20
-6.1585289
11
16.504439
21
-6.1917
0
LINE
8
layer0
10
16.504439
20
-6.1917
11
16.4143076
21
-6.2431122
0
LINE
8
layer0
10
16.4143076
20
-6.2431122
11
16.3212292
21
-6.3131688
0
LINE
8
layer0
10
16.3212292
20
-6.3131688
11
16.2265965
21
-6.4021774
0
LINE
8
layer0
10
16.2265965
20
-6.4021774
11
16.1318474
21
-6.5103676
0
LINE
8
layer0
10
16.1318474
20
-6.5103676
11
16.0384301
21
-6.6378712
0
LINE
8
layer0
10
16.0384301
20
-6.6378712
11
15.9478017
21
-6.7847442
0
LINE
8
layer0
10
15.9478017
20
-6.7847442
11
15.919416
21
-6.8234696
0
LINE
8
layer0
10
15.919416
20
-6.8234696
11
15.842018
21
-6.8994269
0
LINE
8
layer0
10
15.842018
20
-6.8994269
11
15.712949
21
-7.006601
0
LINE
8
layer0
10
15.712949
20
-7.006601
11
15.5280066
21
-7.1358106
0
LINE
8
layer0
10
15.5280066
20
-7.1358106
11
15.4123048
21
-7.2065119
0
LINE
8
layer0
10
15.4123048
20
-7.2065119
11
15.281983
21
-7.278876
0
LINE
8
layer0
10
15.281983
20
-7.278876
11
15.1329198
21
-7.353641
0
LINE
8
layer0
10
15.1329198
20
-7.353641
11
14.9692687
21
-7.4272929
0
LINE
8
layer0
10
14.9692687
20
-7.4272929
11
14.7885149
21
-7.4997078
0
LINE
8
layer0
10
14.7885149
20
-7.4997078
11
14.5906184
21
-7.5695345
0
LINE
8
layer0
10
14.5906184
20
-7.5695345
11
14.3757083
21
-7.6353697
0
LINE
8
layer0
10
14.3757083
20
-7.6353697
11
14.1438637
21
-7.6958965
0
LINE
8
layer0
10
14.1438637
20
-7.6958965
11
13.9117036
21
-7.7462933
0
ARC
8
layer0
10
21.0000335
20
0.0000335
40
10.5
50
222.4602883
51
227.5397117
0
LINE
8
layer0
10
13.2537067
20
-7.0882964
11
13.3041035
21
-6.8561363
0
LINE
8
layer1
10
13.3041035
20
-6.8561363
11
13.3646303
21
-6.6242917
0
LINE
8
layer1
10
13.3646303
20
-6.6242917
11
13.4304655
21
-6.4093816
0
LINE
8
layer1
10
13.4304655
20
-6.4093816
11
13.5002922
21
-6.2114851
0
LINE
8
layer1
10
13.5002922
20
-6.2114851
11
13.5727071
21
-6.0307313
0
LINE
8
layer1
10
13.5727071
20
-6.0307313
11
13.646359
21
-5.8670802
0
LINE
8
layer1
10
13.646359
20
-5.8670802
11
13.721124
21
-5.718017
0
LINE
8
layer1
10
13.721124
20
-5.718017
11
13.7934881
21
-5.5876952
0
LINE
8
layer1
10
13.7934881
20
-5.5876952
11
13.8641894
21
-5.4719934
0
LINE
8
layer1
10
13.8641894
20
-5.4719934
11
13.993399
21
-5.287051
0
LINE
8
layer1
10
13.993399
20
-5.287051
11
14.1005731
21
-5.157982
0
LINE
8
layer1
10
14.1005731
20
-5.157982
11
14.1765304
21
-5.080584
0
LINE
8
layer1
10
14.1765304
20
-5.080584
11
14.2152558
21
-5.0521983
0
LINE
8
layer1
10
14.2152558
20
-5.0521983
11
14.3621288
21
-4.9615699
0
LINE
8
layer1
10
14.3621288
20
-4.9615699
11
14.4896324
21
-4.8681526
0
LINE
8
layer1
10
14.4896324
20
-4.8681526
11
14.5978226
21
-4.7734035
0
LINE
8
layer1
10
14.5978226
20
-4.7734035
11
14.6868312
21
-4.6787708
0
LINE
8
layer1
10
14.6868312
20
-4.6787708
11
14.7568878
21
-4.5856924
0
LINE
8
layer1
10
14.7568878
20
-4.5856924
11
14.8083
21
-4.495561
0
LINE
8
layer1
10
14.8083
20
-4.495561
11
14.8414711
21
-4.409795
0
LINE
8
layer1
10
14.8414711
20
-4.409795
11
14.8568795
21
-4.3297232
0
LINE
8
layer1
10
14.8568795
20
-4.3297232
11
14.8550807
21
-4.2566876
0
LINE
8
layer1
10
14.8550807
20
-4.2566876
11
14.8367255
21
-4.1919755
0
LINE
8
layer1
10
14.8367255
20
-4.1919755
11
14.821549
21
-4.163129
0
LINE
8
layer1
10
14.821549
20
-4.163129
11
14.6787997
21
-3.9427598
0
LINE
8
layer1
10
14.6787997
20
-3.9427598
11
14.5481107
21
-3.725
0
LINE
8
layer1
10
14.5481107
20
-3.725
11
14.4248697
21
-3.5029402
0
LINE
8
layer1
10
14.4248697
20
-3.5029402
11
14.305399
21
-3.269131
0
LINE
8
layer1
10
14.305399
20
-3.269131
11
14.2880055
21
-3.2415645
0
LINE
8
layer1
10
14.2880055
20
-3.2415645
11
14.2411407
21
-3.1933124
0
LINE
8
layer1
10
14.2411407
20
-3.1933124
11
14.1787895
21
-3.1552368
0
LINE
8
layer1
10
14.1787895
20
-3.1552368
11
14.1017411
21
-3.128545
0
LINE
8
layer1
10
14.1017411
20
-3.128545
11
14.01088
21
-3.114389
0
LINE
8
layer1
10
14.01088
20
-3.114389
11
13.9071178
21
-3.1138476
0
LINE
8
layer1
10
13.9071178
20
-3.1138476
11
13.7914812
21
-3.1279792
0
LINE
8
layer1
10
13.7914812
20
-3.1279792
11
13.6650226
21
-3.1577465
0
LINE
8
layer1
10
13.6650226
20
-3.1577465
11
13.5288724
21
-3.2040674
0
LINE
8
layer1
10
13.5288724
20
-3.2040674
11
13.3842188
21
-3.2677801
0
LINE
8
layer1
10
13.3842188
20
-3.2677801
11
13.2322958
21
-3.3496617
0
LINE
8
layer1
10
13.2322958
20
-3.3496617
11
13.1883504
21
-3.369006
0
LINE
8
layer1
10
13.1883504
20
-3.369006
11
13.0833431
21
-3.396088
0
LINE
8
layer1
10
13.0833431
20
-3.396088
11
12.917979
21
-3.424369
0
LINE
8
layer1
10
12.917979
20
-3.424369
11
12.6932094
21
-3.4437966
0
LINE
8
layer1
10
12.6932094
20
-3.4437966
11
12.5576581
21
-3.4471748
0
LINE
8
layer1
10
12.5576581
20
-3.4471748
11
12.408614
21
-3.444683
0
LINE
8
layer1
10
12.408614
20
-3.444683
11
12.242139
21
-3.4348998
0
LINE
8
layer1
10
12.242139
20
-3.4348998
11
12.0635871
21
-3.4168587
0
LINE
8
layer1
10
12.0635871
20
-3.4168587
11
11.8708422
21
-3.3891949
0
LINE
8
layer1
10
11.8708422
20
-3.3891949
11
11.6645455
21
-3.3507184
0
LINE
8
layer1
10
11.6645455
20
-3.3507184
11
11.4455103
21
-3.3002783
0
LINE
8
layer1
10
11.4455103
20
-3.3002783
11
11.2144635
21
-3.2367737
0
LINE
8
layer1
10
11.2144635
20
-3.2367737
11
10.9882086
21
-3.1643386
0
ARC
8
layer1
10
21.0000457
20
0.0000127
40
10.5
50
192.4602913
51
197.5397141
0
LINE
8
layer1
10
10.747365
20
-2.2654981
11
10.90709
21
-2.08964
0
LINE
8
layer1
10
10.90709
20
-2.08964
11
11.07543
21
-1.91912
0
LINE
8
layer1
10
11.07543
20
-1.91912
11
11.2399
21
-1.76592
0
LINE
8
layer1
10
11.2399
20
-1.76592
11
11.39932
21
-1.62945
0
LINE
8
layer1
10
11.39932
20
-1.62945
11
11.55241
21
-1.50912
0
LINE
8
layer1
10
11.55241
20
-1.50912
11
11.69802
21
-1.40422
0
LINE
8
layer1
10
11.69802
20
-1.40422
11
11.8373
21
-1.31251
0
LINE
8
layer1
10
11.8373
20
-1.31251
11
11.96513
21
-1.23583
0
LINE
8
layer1
10
11.96513
20
-1.23583
11
12.08421
21
-1.17098
0
LINE
8
layer1
10
12.08421
20
-1.17098
11
12.28858
21
-1.07542
0
LINE
8
layer1
10
12.28858
20
-1.07542
11
12.44593
21
-1.01723
0
LINE
8
layer1
10
12.44593
20
-1.01723
11
12.55041
21
-0.98818
0
LINE
8
layer1
10
12.55041
20
-0.98818
11
12.59814
21
-0.98296
0
LINE
8
layer1
10
12.59814
20
-0.98296
11
12.77065
21
-0.97791
0
LINE
8
layer1
10
12.77065
20
-0.97791
11
12.92778
21
-0.96076
0
LINE
8
layer1
10
12.92778
20
-0.96076
11
13.06885
21
-0.9328
0
LINE
8
layer1
10
13.06885
20
-0.9328
11
13.19325
21
-0.89535
0
LINE
8
layer1
10
13.19325
20
-0.89535
11
13.30046
21
-0.84977
0
LINE
8
layer1
10
13.30046
20
-0.84977
11
13.39005
21
-0.79742
0
LINE
8
layer1
10
13.39005
20
-0.79742
11
13.46166
21
-0.73973
0
LINE
8
layer1
10
13.46166
20
-0.73973
11
13.51504
21
-0.67809
0
LINE
8
layer1
10
13.51504
20
-0.67809
11
13.55
21
-0.61394
0
LINE
8
layer1
10
13.55
20
-0.61394
11
13.56646
21
-0.54872
0
LINE
8
layer1
10
13.56646
20
-0.54872
11
13.56774
21
-0.51615
0
LINE
8
layer1
10
13.56774
20
-0.51615
11
13.5543
21
-0.25393
0
LINE
8
layer1
10
13.5543
20
-0.25393
11
13.55
21
0
0
LINE
8
layer1
10
13.55
20
0
11
13.5543
21
0.25393
0
LINE
8
layer1
10
13.5543
20
0.25393
11
13.56774
21
0.51615
0
LINE
8
layer1
10
13.56774
20
0.51615
11
13.56646
21
0.54872
0
LINE
8
layer1
10
13.56646
20
0.54872
11
13.55
21
0.61394
0
LINE
8
layer1
10
13.55
20
0.61394
11
13.51504
21
0.67809
0
LINE
8
layer1
10
13.51504
20
0.67809
11
13.46166
21
0.73973
0
LINE
8
layer1
10
13.46166
20
0.73973
11
13.39005
21
0.79742
0
LINE
8
layer1
10
13.39005
20
0.79742
11
13.30046
21
0.84977
0
LINE
8
layer1
10
13.30046
20
0.84977
11
13.19325
21
0.89535
0
LINE
8
layer1
10
13.19325
20
0.89535
11
13.06885
21
0.9328
0
LINE
8
layer1
10
13.06885
20
0.9328
11
12.92778
21
0.96076
0
LINE
8
layer1
10
12.92778
20
0.96076
11
12.77065
21
0.97791
0
LINE
8
layer1
10
12.77065
20
0.97791
11
12.59814
21
0.98296
0
LINE
8
layer1
10
12.59814
20
0.98296
11
12.55041
21
0.98818
0
LINE
8
layer1
10
12.55041
20
0.98818
11
12.44593
21
1.01723
0
LINE
8
layer1
10
12.44593
20
1.01723
11
12.28858
21
1.07542
0
LINE
8
layer1
10
12.28858
20
1.07542
11
12.08421
21
1.17098
0
LINE
8
layer1
10
12.08421
20
1.17098
11
11.96513
21
1.23583
0
LINE
8
layer1
10
11.96513
20
1.23583
11
11.8373
21
1.31251
0
LINE
8
layer1
10
11.8373
20
1.31251
11
11.69802
21
1.40422
0
LINE
8
layer1
10
11.69802
20
1.40422
11
11.55241
21
1.50912
0
LINE
8
layer1
10
11.55241
20
1.50912
11
11.39932
21
1.62945
0
LINE
8
layer1
10
11.39932
20
1.62945
11
11.2399
21
1.76592
0
LINE
8
layer1
10
11.2399
20
1.76592
11
11.07543
21
1.91912
0
LINE
8
layer1
10
11.07543
20
1.91912
11
10.90709
21
2.08964
0
LINE
8
layer1
10
10.90709
20
2.08964
11
10.747365
21
2.2654981
0
ARC
8
layer1
10
21.0000457
20
-0.0000127
40
10.5
50
162.4602864
51
167.5397093
0
LINE
8
layer1
10
10.9882086
20
3.1643386
11
11.2144635
21
3.2367737
0
LINE
8
layer1
10
11.2144635
20
3.2367737
11
11.4455103
21
3.3002783
0
LINE
8
layer1
10
11.4455103
20
3.3002783
11
11.6645455
21
3.3507184
0
LINE
8
layer1
10
11.6645455
20
3.3507184
11
11.8708422
21
3.3891949
0
LINE
8
layer1
10
11.8708422
20
3.3891949
11
12.0635871
21
3.4168587
0
LINE
8
layer1
10
12.0635871
20
3.4168587
11
12.242139
21
3.4348998
0
LINE
8
layer1
10
12.242139
20
3.4348998
11
12.408614
21
3.444683
0
LINE
8
layer1
10
12.408614
20
3.444683
11
12.5576581
21
3.4471748
0
LINE
8
layer1
10
12.5576581
20
3.4471748
11
12.6932094
21
3.4437966
0
LINE
8
layer1
10
12.6932094
20
3.4437966
11
12.917979
21
3.424369
0
LINE
8
layer1
10
12.917979
20
3.424369
11
13.0833431
21
3.396088
0
LINE
8
layer1
10
13.0833431
20
3.396088
11
13.1883504
21
3.369006
0
LINE
8
layer1
10
13.1883504
20
3.369006
11
13.2322958
21
3.3496617
0
LINE
8
layer1
10
13.2322958
20
3.3496617
11
13.3842188
21
3.2677801
0
LINE
8
layer1
10
13.3842188
20
3.2677801
11
13.5288724
21
3.2040674
0
LINE
8
layer1
10
13.5288724
20
3.2040674
11
13.6650226
21
3.1577465
0
LINE
8
layer1
10
13.6650226
20
3.1577465
11
13.7914812
21
3.1279792
0
LINE
8
layer1
10
13.7914812
20
3.1279792
11
13.9071178
21
3.1138476
0
LINE
8
layer1
10
13.9071178
20
3.1138476
11
14.01088
21
3.114389
0
LINE
8
layer1
10
14.01088
20
3.114389
11
14.1017411
21
3.128545
0
LINE
8
layer1
10
14.1017411
20
3.128545
11
14.1787895
21
3.1552368
0
LINE
8
layer1
10
14.1787895
20
3.1552368
11
14.2411407
21
3.1933124
0
LINE
8
layer1
10
14.2411407
20
3.1933124
11
14.2880055
21
3.2415645
0
LINE
8
layer1
10
14.2880055
20
3.2415645
11
14.305399
21
3.269131
0
LINE
8
layer1
10
14.305399
20
3.269131
11
14.4248697
21
3.5029402
0
LINE
8
layer1
10
14.4248697
20
3.5029402
11
14.5481107
21
3.725
0
LINE
8
layer1
10
14.5481107
20
3.725
11
14.6787997
21
3.9427598
0
LINE
8
layer1
10
14.6787997
20
3.9427598
11
14.821549
21
4.163129
0
LINE
8
layer1
10
14.821549
20
4.163129
11
14.8367255
21
4.1919755
0
LINE
8
layer1
10
14.8367255
20
4.1919755
11
14.8550807
21
4.2566876
0
LINE
8
layer1
10
14.8550807
20
4.2566876
11
14.8568795
21
4.3297232
0
LINE
8
layer1
10
14.8568795
20
4.3297232
11
14.8414711
21
4.409795
0
LINE
8
layer1
10
14.8414711
20
4.409795
11
14.8083
21
4.495561
0
LINE
8
layer1
10
14.8083
20
4.495561
11
14.7568878
21
4.5856924
0
LINE
8
layer1
10
14.7568878
20
4.5856924
11
14.6868312
21
4.6787708
0
LINE
8
layer1
10
14.6868312
20
4.6787708
11
14.5978226
21
4.7734035
0
LINE
8
layer1
10
14.5978226
20
4.7734035
11
14.4896324
21
4.8681526
0
LINE
8
layer1
10
14.4896324
20
4.8681526
11
14.3621288
21
4.9615699
0
LINE
8
layer1
10
14.3621288
20
4.9615699
11
14.2152558
21
5.0521983
0
LINE
8
layer1
10
14.2152558
20
5.0521983
11
14.1765304
21
5.080584
0
LINE
8
layer1
10
14.1765304
20
5.080584
11
14.1005731
21
5.157982
0
LINE
8
layer1
10
14.1005731
20
5.157982
11
13.993399
21
5.287051
0
LINE
8
layer1
10
13.993399
20
5.287051
11
13.8641894
21
5.4719934
0
LINE
8
layer1
10
13.8641894
20
5.4719934
11
13.7934881
21
5.5876952
0
LINE
8
layer1
10
13.7934881
20
5.5876952
11
13.721124
21
5.718017
0
LINE
8
layer1
10
13.721124
20
5.718017
11
13.646359
21
5.8670802
0
LINE
8
layer1
10
13.646359
20
5.8670802
11
13.5727071
21
6.0307313
0
LINE
8
layer1
10
13.5727071
20
6.0307313
11
13.5002922
21
6.2114851
0
LINE
8
layer1
10
13.5002922
20
6.2114851
11
13.4304655
21
6.4093816
0
LINE
8
layer1
10
13.4304655
20
6.4093816
11
13.3646303
21
6.6242917
0
LINE
8
layer1
10
13.3646303
20
6.6242917
11
13.3041035
21
6.8561363
0
LINE
8
layer1
10
13.3041035
20
6.8561363
11
13.2537067
21
7.0882964
0
ARC
8
layer1
10
21.0000335
20
-0.0000335
40
10.5
50
132.4602883
51
137.5397117
0
LINE
8
layer1
10
13.9117036
20
7.7462933
11
14.1438637
21
7.6958965
0
LINE
8
layer1
10
14.1438637
20
7.6958965
11
14.3757083
21
7.6353697
0
LINE
8
layer1
10
14.3757083
20
7.6353697
11
14.5906184
21
7.5695345
0
LINE
8
layer1
10
14.5906184
20
7.5695345
11
14.7885149
21
7.4997078
0
LINE
8
layer1
10
14.7885149
20
7.4997078
11
14.9692687
21
7.4272929
0
LINE
8
layer1
10
14.9692687
20
7.4272929
11
15.1329198
21
7.353641
0
LINE
8
layer1
10
15.1329198
20
7.353641
11
15.281983
21
7.278876
0
LINE
8
layer1
10
15.281983
20
7.278876
11
15.4123048
21
7.2065119
0
LINE
8
layer1
10
15.4123048
20
7.2065119
11
15.5280066
21
7.1358106
0
LINE
8
layer1
10
15.5280066
20
7.1358106
11
15.712949
21
7.006601
0
LINE
8
layer1
10
15.712949
20
7.006601
11
15.842018
21
6.8994269
0
LINE
8
layer1
10
15.842018
20
6.8994269
11
15.919416
21
6.8234696
0
LINE
8
layer1
10
15.919416
20
6.8234696
11
15.9478017
21
6.7847442
0
LINE
8
layer1
10
15.9478017
20
6.7847442
11
16.0384301
21
6.6378712
0
LINE
8
layer1
10
16.0384301
20
6.6378712
11
16.1318474
21
6.5103676
0
LINE
8
layer1
10
16.1318474
20
6.5103676
11
16.2265965
21
6.4021774
0
LINE
8
layer1
10
16.2265965
20
6.4021774
11
16.3212292
21
6.3131688
0
LINE
8
layer1
10
16.3212292
20
6.3131688
11
16.4143076
21
6.2431122
0
LINE
8
layer1
10
16.4143076
20
6.2431122
11
16.504439
21
6.1917
0
LINE
8
layer1
10
16.504439
20
6.1917
11
16.590205
21
6.1585289
0
LINE
8
layer1
10
16.590205
20
6.1585289
11
16.6702768
21
6.1431205
0
LINE
8
layer1
10
16.6702768
20
6.1431205
11
16.7433124
21
6.1449193
0
LINE
8
layer1
10
16.7433124
20
6.1449193
11
16.8080245
21
6.1632745
0
LINE
8
layer1
10
16.8080245
20
6.1632745
11
16.836871
21
6.178451
0
LINE
8
layer1
10
16.836871
20
6.178451
11
17.0572402
21
6.3212003
0
LINE
8
layer1
10
17.0572402
20
6.3212003
11
17.275
21
6.4518893
0
LINE
8
layer1
10
17.275
20
6.4518893
11
17.4970598
21
6.5751303
0
LINE
8
layer1
10
17.4970598
20
6.5751303
11
17.730869
21
6.694601
0
LINE
8
layer1
10
17.730869
20
6.694601
11
17.7584355
21
6.7119945
0
LINE
8
layer1
10
17.7584355
20
6.7119945
11
17.8066876
21
6.7588593
0
LINE
8
layer1
10
17.8066876
20
6.7588593
11
17.8447632
21
6.8212105
0
LINE
8
layer1
10
17.8447632
20
6.8212105
11
17.871455
21
6.8982589
0
LINE
8
layer1
10
17.871455
20
6.8982589
11
17.885611
21
6.98912
0
LINE
8
layer1
10
17.885611
20
6.98912
11
17.8861524
21
7.0928822
0
LINE
8
layer1
10
17.8861524
20
7.0928822
11
17.8720208
21
7.2085188
0
LINE
8
layer1
10
17.8720208
20
7.2085188
11
17.8422535
21
7.3349774
0
LINE
8
layer1
10
17.8422535
20
7.3349774
11
17.7959326
21
7.4711276
0
LINE
8
layer1
10
17.7959326
20
7.4711276
11
17.7322199
21
7.6157812
0
LINE
8
layer1
10
17.7322199
20
7.6157812
11
17.6503383
21
7.7677042
0
LINE
8
layer1
10
17.6503383
20
7.7677042
11
17.630994
21
7.8116496
0
LINE
8
layer1
10
17.630994
20
7.8116496
11
17.603912
21
7.9166569
0
LINE
8
layer1
10
17.603912
20
7.9166569
11
17.575631
21
8.082021
0
LINE
8
layer1
10
17.575631
20
8.082021
11
17.5562034
21
8.3067906
0
LINE
8
layer1
10
17.5562034
20
8.3067906
11
17.5528252
21
8.4423419
0
LINE
8
layer1
10
17.5528252
20
8.4423419
11
17.555317
21
8.591386
0
LINE
8
layer1
10
17.555317
20
8.591386
11
17.5651002
21
8.757861
0
LINE
8
layer1
10
17.5651002
20
8.757861
11
17.5831413
21
8.9364129
0
LINE
8
layer1
10
17.5831413
20
8.9364129
11
17.6108051
21
9.1291578
0
LINE
8
layer1
10
17.6108051
20
9.1291578
11
17.6492816
21
9.3354545
0
LINE
8
layer1
10
17.6492816
20
9.3354545
11
17.6997217
21
9.5544897
0
LINE
8
layer1
10
17.6997217
20
9.5544897
11
17.7632263
21
9.7855365
0
LINE
8
layer1
10
17.7632263
20
9.7855365
11
17.8356614
21
10.0117914
0
ARC
8
layer1
10
21.0000127
20
-0.0000457
40
10.5
50
102.4602913
51
107.5397141
0
LINE
8
layer1
10
18.7345019
20
10.252635
11
18.91036
21
10.09291
0
LINE
8
layer1
10
18.91036
20
10.09291
11
19.08088
21
9.92457
0
LINE
8
layer1
10
19.08088
20
9.92457
11
19.23408
21
9.7601
0
LINE
8
layer1
10
19.23408
20
9.7601
11
19.37055
21
9.60068
0
LINE
8
layer1
10
19.37055
20
9.60068
11
19.49088
21
9.44759
0
LINE
8
layer1
10
19.49088
20
9.44759
11
19.59578
21
9.30198
0
LINE
8
layer1
10
19.59578
20
9.30198
11
19.68749
21
9.1627
0
LINE
8
layer1
10
19.68749
20
9.1627
11
19.76417
21
9.03487
0
LINE
8
layer1
10
19.76417
20
9.03487
11
19.82902
21
8.91579
0
LINE
8
layer1
10
19.82902
20
8.91579
11
19.92458
21
8.71142
0
LINE
8
layer1
10
19.92458
20
8.71142
11
19.98277
21
8.55407
0
LINE
8
layer1
10
19.98277
20
8.55407
11
20.01182
21
8.44959
0
LINE
8
layer1
10
20.01182
20
8.44959
11
20.01704
21
8.40186
0
LINE
8
layer1
10
20.01704
20
8.40186
11
20.02209
21
8.22935
0
LINE
8
layer1
10
20.02209
20
8.22935
11
20.03924
21
8.07222
0
LINE
8
layer1
10
20.03924
20
8.07222
11
20.0672
21
7.93115
0
LINE
8
layer1
10
20.0672
20
7.93115
11
20.10465
21
7.80675
0
LINE
8
layer1
10
20.10465
20
7.80675
11
20.15023
21
7.69954
0
LINE
8
layer1
10
20.15023
20
7.69954
11
20.20258
21
7.60995
0
LINE
8
layer1
10
20.20258
20
7.60995
11
20.26027
21
7.53834
0
LINE
8
layer1
10
20.26027
20
7.53834
11
20.32191
21
7.48496
0
LINE
8
layer1
10
20.32191
20
7.48496
11
20.38606
21
7.45
0
LINE
8
layer1
10
20.38606
20
7.45
11
20.45128
21
7.43354
0
LINE
8
layer1
10
20.45128
20
7.43354
11
20.48385
21
7.43226
0
LINE
8
layer1
10
20.48385
20
7.43226
11
20.74607
21
7.4457
0
LINE
8
layer1
10
20.74607
20
7.4457
11
21
21
7.45
0
LINE
8
layer1
10
21
20
7.45
11
21.25393
21
7.4457
0
LINE
8
layer1
10
21.25393
20
7.4457
11
21.51615
21
7.43226
0
LINE
8
layer1
10
21.51615
20
7.43226
11
21.54872
21
7.43354
0
LINE
8
layer1
10
21.54872
20
7.43354
11
21.61394
21
7.45
0
LINE
8
layer1
10
21.61394
20
7.45
11
21.67809
21
7.48496
0
LINE
8
layer1
10
21.67809
20
7.48496
11
21.73973
21
7.53834
0
LINE
8
layer1
10
21.73973
20
7.53834
11
21.79742
21
7.60995
0
LINE
8
layer1
10
21.79742
20
7.60995
11
21.84977
21
7.69954
0
LINE
8
layer1
10
21.84977
20
7.69954
11
21.89535
21
7.80675
0
LINE
8
layer1
10
21.89535
20
7.80675
11
21.9328
21
7.93115
0
LINE
8
layer1
10
21.9328
20
7.93115
11
21.96076
21
8.07222
0
LINE
8
layer1
10
21.96076
20
8.07222
11
21.97791
21
8.22935
0
LINE
8
layer1
10
21.97791
20
8.22935
11
21.98296
21
8.40186
0
LINE
8
layer1
10
21.98296
20
8.40186
11
21.98818
21
8.44959
0
LINE
8
layer1
10
21.98818
20
8.44959
11
22.01723
21
8.55407
0
LINE
8
layer1
10
22.01723
20
8.55407
11
22.07542
21
8.71142
0
LINE
8
layer1
10
22.07542
20
8.71142
11
22.17098
21
8.91579
0
LINE
8
layer1
10
22.17098
20
8.91579
11
22.23583
21
9.03487
0
LINE
8
layer1
10
22.23583
20
9.03487
11
22.31251
21
9.1627
0
LINE
8
layer1
10
22.31251
20
9.1627
11
22.40422
21
9.30198
0
LINE
8
layer1
10
22.40422
20
9.30198
11
22.50912
21
9.44759
0
LINE
8
layer1
10
22.50912
20
9.44759
11
22.62945
21
9.60068
0
LINE
8
layer1
10
22.62945
20
9.60068
11
22.76592
21
9.7601
0
LINE
8
layer1
10
22.76592
20
9.7601
11
22.91912
21
9.92457
0
LINE
8
layer1
10
22.91912
20
9.92457
11
23.08964
21
10.09291
0
LINE
8
layer1
10
23.08964
20
10.09291
11
23.2654981
21
10.252635
0
ARC
8
layer1
10
20.9999873
20
-0.0000457
40
10.5
50
72.4602864
51
77.5397093
0
LINE
8
layer1
10
24.1643386
20
10.0117914
11
24.2367737
21
9.7855365
0
LINE
8
layer1
10
24.2367737
20
9.7855365
11
24.3002783
21
9.5544897
0
LINE
8
layer1
10
24.3002783
20
9.5544897
11
24.3507184
21
9.3354545
0
LINE
8
layer1
10
24.3507184
20
9.3354545
11
24.3891949
21
9.1291578
0
LINE
8
layer1
10
24.3891949
20
9.1291578
11
24.4168587
21
8.9364129
0
LINE
8
layer1
10
24.4168587
20
8.9364129
11
24.4348998
21
8.757861
0
LINE
8
layer1
10
24.4348998
20
8.757861
11
24.444683
21
8.591386
0
LINE
8
layer1
10
24.444683
20
8.591386
11
24.4471748
21
8.4423419
0
LINE
8
layer1
10
24.4471748
20
8.4423419
11
24.4437966
21
8.3067906
0
LINE
8
layer1
10
24.4437966
20
8.3067906
11
24.424369
21
8.082021
0
LINE
8
layer1
10
24.424369
20
8.082021
11
24.396088
21
7.9166569
0
LINE
8
layer1
10
24.396088
20
7.9166569
11
24.369006
21
7.8116496
0
LINE
8
layer1
10
24.369006
20
7.8116496
11
24.3496617
21
7.7677042
0
LINE
8
layer1
10
24.3496617
20
7.7677042
11
24.2677801
21
7.6157812
0
LINE
8
layer1
10
24.2677801
20
7.6157812
11
24.2040674
21
7.4711276
0
LINE
8
layer1
10
24.2040674
20
7.4711276
11
24.1577465
21
7.3349774
0
LINE
8
layer1
10
24.1577465
20
7.3349774
11
24.1279792
21
7.2085188
0
LINE
8
layer1
10
24.1279792
20
7.2085188
11
24.1138476
21
7.0928822
0
LINE
8
layer1
10
24.1138476
20
7.0928822
11
24.114389
21
6.98912
0
LINE
8
layer1
10
24.114389
20
6.98912
11
24.128545
21
6.8982589
0
LINE
8
layer1
10
24.128545
20
6.8982589
11
24.1552368
21
6.8212105
0
LINE
8
layer1
10
24.1552368
20
6.8212105
11
24.1933124
21
6.7588593
0
LINE
8
layer1
10
24.1933124
20
6.7588593
11
24.2415645
21
6.7119945
0
LINE
8
layer1
10
24.2415645
20
6.7119945
11
24.269131
21
6.694601
0
LINE
8
layer1
10
24.269131
20
6.694601
11
24.5029402
21
6.5751303
0
LINE
8
layer1
10
24.5029402
20
6.5751303
11
24.725
21
6.4518893
0
LINE
8
layer1
10
24.725
20
6.4518893
11
24.9427598
21
6.3212003
0
LINE
8
layer1
10
24.9427598
20
6.3212003
11
25.163129
21
6.178451
0
LINE
8
layer1
10
25.163129
20
6.178451
11
25.1919755
21
6.1632745
0
LINE
8
layer1
10
25.1919755
20
6.1632745
11
25.2566876
21
6.1449193
0
LINE
8
layer1
10
25.2566876
20
6.1449193
11
25.3297232
21
6.1431205
0
LINE
8
layer1
10
25.3297232
20
6.1431205
11
25.409795
21
6.1585289
0
LINE
8
layer1
10
25.409795
20
6.1585289
11
25.495561
21
6.1917
0
LINE
8
layer1
10
25.495561
20
6.1917
11
25.5856924
21
6.2431122
0
LINE
8
layer1
10
25.5856924
20
6.2431122
11
25.6787708
21
6.3131688
0
LINE
8
layer1
10
25.6787708
20
6.3131688
11
25.7734035
21
6.4021774
0
LINE
8
layer1
10
25.7734035
20
6.4021774
11
25.8681526
21
6.5103676
0
LINE
8
layer1
10
25.8681526
20
6.5103676
11
25.9615699
21
6.6378712
0
LINE
8
layer1
10
25.9615699
20
6.6378712
11
26.0521983
21
6.7847442
0
LINE
8
layer1
10
26.0521983
20
6.7847442
11
26.080584
21
6.8234696
0
LINE
8
layer1
10
26.080584
20
6.8234696
11
26.157982
21
6.8994269
0
LINE
8
layer1
10
26.157982
20
6.8994269
11
26.287051
21
7.006601
0
LINE
8
layer1
10
26.287051
20
7.006601
11
26.4719934
21
7.1358106
0
LINE
8
layer1
10
26.4719934
20
7.1358106
11
26.5876952
21
7.2065119
0
LINE
8
layer1
10
26.5876952
20
7.2065119
11
26.718017
21
7.278876
0
LINE
8
layer1
10
26.718017
20
7.278876
11
26.8670802
21
7.353641
0
LINE
8
layer1
10
26.8670802
20
7.353641
11
27.0307313
21
7.4272929
0
LINE
8
layer1
10
27.0307313
20
7.4272929
11
27.2114851
21
7.4997078
0
LINE
8
layer1
10
27.2114851
20
7.4997078
11
27.4093816
21
7.5695345
0
LINE
8
layer1
10
27.4093816
20
7.5695345
11
27.6242917
21
7.6353697
0
LINE
8
layer1
10
27.6242917
20
7.6353697
11
27.8561363
21
7.6958965
0
LINE
8
layer1
10
27.8561363
20
7.6958965
11
28.0882964
21
7.7462933
0
ARC
8
layer1
10
20.9999665
20
-0.0000335
40
10.5
50
42.4602883
51
47.5397117
0
LINE
8
layer1
10
28.7462933
20
7.0882964
11
28.6958965
21
6.8561363
0
LINE
8
layer1
10
28.6958965
20
6.8561363
11
28.6353697
21
6.6242917
0
LINE
8
layer1
10
28.6353697
20
6.6242917
11
28.5695345
21
6.4093816
0
LINE
8
layer1
10
28.5695345
20
6.4093816
11
28.4997078
21
6.2114851
0
LINE
8
layer1
10
28.4997078
20
6.2114851
11
28.4272929
21
6.0307313
0
LINE
8
layer1
10
28.4272929
20
6.0307313
11
28.353641
21
5.8670802
0
LINE
8
layer1
10
28.353641
20
5.8670802
11
28.278876
21
5.718017
0
LINE
8
layer1
10
28.278876
20
5.718017
11
28.2065119
21
5.5876952
0
LINE
8
layer1
10
28.2065119
20
5.5876952
11
28.1358106
21
5.4719934
0
LINE
8
layer1
10
28.1358106
20
5.4719934
11
28.006601
21
5.287051
0
LINE
8
layer1
10
28.006601
20
5.287051
11
27.8994269
21
5.157982
0
LINE
8
layer1
10
27.8994269
20
5.157982
11
27.8234696
21
5.080584
0
LINE
8
layer1
10
27.8234696
20
5.080584
11
27.7847442
21
5.0521983
0
LINE
8
layer1
10
27.7847442
20
5.0521983
11
27.6378712
21
4.9615699
0
LINE
8
layer1
10
27.6378712
20
4.9615699
11
27.5103676
21
4.8681526
0
LINE
8
layer1
10
27.5103676
20
4.8681526
11
27.4021774
21
4.7734035
0
LINE
8
layer1
10
27.4021774
20
4.7734035
11
27.3131688
21
4.6787708
0
LINE
8
layer1
10
27.3131688
20
4.6787708
11
27.2431122
21
4.5856924
0
LINE
8
layer1
10
27.2431122
20
4.5856924
11
27.1917
21
4.495561
0
LINE
8
layer1
10
27.1917
20
4.495561
11
27.1585289
21
4.409795
0
LINE
8
layer1
10
27.1585289
20
4.409795
11
27.1431205
21
4.3297232
0
LINE
8
layer1
10
27.1431205
20
4.3297232
11
27.1449193
21
4.2566876
0
LINE
8
layer1
10
27.1449193
20
4.2566876
11
27.1632745
21
4.1919755
0
LINE
8
layer1
10
27.1632745
20
4.1919755
11
27.178451
21
4.163129
0
LINE
8
layer1
10
27.178451
20
4.163129
11
27.3212003
21
3.9427598
0
LINE
8
layer1
10
27.3212003
20
3.9427598
11
27.4518893
21
3.725
0
LINE
8
layer1
10
27.4518893
20
3.725
11
27.5751303
21
3.5029402
0
LINE
8
layer1
10
27.5751303
20
3.5029402
11
27.694601
21
3.269131
0
LINE
8
layer1
10
27.694601
20
3.269131
11
27.7119945
21
3.2415645
0
LINE
8
layer1
10
27.7119945
20
3.2415645
11
27.7588593
21
3.1933124
0
LINE
8
layer1
10
27.7588593
20
3.1933124
11
27.8212105
21
3.1552368
0
LINE
8
layer1
10
27.8212105
20
3.1552368
11
27.8982589
21
3.128545
0
LINE
8
layer1
10
27.8982589
20
3.128545
11
27.98912
21
3.114389
0
LINE
8
layer1
10
27.98912
20
3.114389
11
28.0928822
21
3.1138476
0
LINE
8
layer1
10
28.0928822
20
3.1138476
11
28.2085188
21
3.1279792
0
LINE
8
layer1
10
28.2085188
20
3.1279792
11
28.3349774
21
3.1577465
0
LINE
8
layer1
10
28.3349774
20
3.1577465
11
28.4711276
21
3.2040674
0
LINE
8
layer1
10
28.4711276
20
3.2040674
11
28.6157812
21
3.2677801
0
LINE
8
layer1
10
28.6157812
20
3.2677801
11
28.7677042
21
3.3496617
0
LINE
8
layer1
10
28.7677042
20
3.3496617
11
28.8116496
21
3.369006
0
LINE
8
layer1
10
28.8116496
20
3.369006
11
28.9166569
21
3.396088
0
LINE
8
layer1
10
28.9166569
20
3.396088
11
29.082021
21
3.424369
0
LINE
8
layer1
10
29.082021
20
3.424369
11
29.3067906
21
3.4437966
0
LINE
8
layer1
10
29.3067906
20
3.4437966
11
29.4423419
21
3.4471748
0
LINE
8
layer1
10
29.4423419
20
3.4471748
11
29.591386
21
3.444683
0
LINE
8
layer1
10
29.591386
20
3.444683
11
29.757861
21
3.4348998
0
LINE
8
layer1
10
29.757861
20
3.4348998
11
29.9364129
21
3.4168587
0
LINE
8
layer1
10
29.9364129
20
3.4168587
11
30.1291578
21
3.3891949
0
LINE
8
layer1
10
30.1291578
20
3.3891949
11
30.3354545
21
3.3507184
0
LINE
8
layer1
10
30.3354545
20
3.3507184
11
30.5544897
21
3.3002783
0
LINE
8
layer1
10
30.5544897
20
3.3002783
11
30.7855365
21
3.2367737
0
LINE
8
layer1
10
30.7855365
20
3.2367737
11
31.0117914
21
3.1643386
0
ARC
8
layer1
10
20.9999543
20
-0.0000127
40
10.5
50
12.4602913
51
17.5397141
0
LINE
8
layer1
10
31.252635
20
2.2654981
11
31.09291
21
2.08964
0
LINE
8
layer1
10
31.09291
20
2.08964
11
30.92457
21
1.91912
0
LINE
8
layer1
10
30.92457
20
1.91912
11
30.7601
21
1.76592
0
LINE
8
layer1
10
30.7601
20
1.76592
11
30.60068
21
1.62945
0
LINE
8
layer1
10
30.60068
20
1.62945
11
30.44759
21
1.50912
0
LINE
8
layer1
10
30.44759
20
1.50912
11
30.30198
21
1.40422
0
LINE
8
layer1
10
30.30198
20
1.40422
11
30.1627
21
1.31251
0
LINE
8
layer1
10
30.1627
20
1.31251
11
30.03487
21
1.23583
0
LINE
8
layer1
10
30.03487
20
1.23583
11
29.91579
21
1.17098
0
LINE
8
layer1
10
29.91579
20
1.17098
11
29.71142
21
1.07542
0
LINE
8
layer1
10
29.71142
20
1.07542
11
29.55407
21
1.01723
0
LINE
8
layer1
10
29.55407
20
1.01723
11
29.44959
21
0.98818
0
LINE
8
layer1
10
29.44959
20
0.98818
11
29.40186
21
0.98296
0
LINE
8
layer1
10
29.40186
20
0.98296
11
29.22935
21
0.97791
0
LINE
8
layer1
10
29.22935
20
0.97791
11
29.07222
21
0.96076
0
LINE
8
layer1
10
29.07222
20
0.96076
11
28.93115
21
0.9328
0
LINE
8
layer1
10
28.93115
20
0.9328
11
28.80675
21
0.89535
0
LINE
8
layer1
10
28.80675
20
0.89535
11
28.69954
21
0.84977
0
LINE
8
layer1
10
28.69954
20
0.84977
11
28.60995
21
0.79742
0
LINE
8
layer1
10
28.60995
20
0.79742
11
28.53834
21
0.73973
0
LINE
8
layer1
10
28.53834
20
0.73973
11
28.48496
21
0.67809
0
LINE
8
layer1
10
28.48496
20
0.67809
11
28.45
21
0.61394
0
LINE
8
layer1
10
28.45
20
0.61394
11
28.43354
21
0.54872
0
LINE
8
layer1
10
28.43354
20
0.54872
11
28.43226
21
0.51615
0
LINE
8
layer1
10
28.43226
20
0.51615
11
28.4457
21
0.25393
0
LINE
8
layer1
10
28.4457
20
0.25393
11
28.45
21
0
0
LINE
8
layer1
10
28.45
20
0
11
28.4457
21
-0.25393
0
LINE
8
layer1
10
28.4457
20
-0.25393
11
28.43226
21
-0.51615
0
LINE
8
layer1
10
28.43226
20
-0.51615
11
28.43354
21
-0.54872
0
LINE
8
layer1
10
28.43354
20
-0.54872
11
28.45
21
-0.61394
0
LINE
8
layer1
10
28.45
20
-0.61394
11
28.48496
21
-0.67809
0
LINE
8
layer1
10
28.48496
20
-0.67809
11
28.53834
21
-0.73973
0
LINE
8
layer1
10
28.53834
20
-0.73973
11
28.60995
21
-0.79742
0
LINE
8
layer1
10
28.60995
20
-0.79742
11
28.69954
21
-0.84977
0
LINE
8
layer1
10
28.69954
20
-0.84977
11
28.80675
21
-0.89535
0
LINE
8
layer1
10
28.80675
20
-0.89535
11
28.93115
21
-0.9328
0
LINE
8
layer1
10
28.93115
20
-0.9328
11
29.07222
21
-0.96076
0
LINE
8
layer1
10
29.07222
20
-0.96076
11
29.22935
21
-0.97791
0
LINE
8
layer1
10
29.22935
20
-0.97791
11
29.40186
21
-0.98296
0
LINE
8
layer1
10
29.40186
20
-0.98296
11
29.44959
21
-0.98818
0
LINE
8
layer1
10
29.44959
20
-0.98818
11
29.55407
21
-1.01723
0
LINE
8
layer1
10
29.55407
20
-1.01723
11
29.71142
21
-1.07542
0
LINE
8
layer1
10
29.71142
20
-1.07542
11
29.91579
21
-1.17098
0
LINE
8
layer1
10
29.91579
20
-1.17098
11
30.03487
21
-1.23583
0
LINE
8
layer1
10
30.03487
20
-1.23583
11
30.1627
21
-1.31251
0
LINE
8
layer1
10
30.1627
20
-1.31251
11
30.30198
21
-1.40422
0
LINE
8
layer1
10
30.30198
20
-1.40422
11
30.44759
21
-1.50912
0
LINE
8
layer1
10
30.44759
20
-1.50912
11
30.60068
21
-1.62945
0
LINE
8
layer1
10
30.60068
20
-1.62945
11
30.7601
21
-1.76592
0
LINE
8
layer1
10
30.7601
20
-1.76592
11
30.92457
21
-1.91912
0
LINE
8
layer1
10
30.92457
20
-1.91912
11
31.09291
21
-2.08964
0
LINE
8
layer1
10
31.09291
20
-2.08964
11
31.252635
21
-2.2654981
0
ARC
8
layer1
10
20.9999543
20
0.0000127
40
10.5
50
342.4602864
51
347.5397093
0
LINE
8
layer1
10
31.0117914
20
-3.1643386
11
30.7855365
21
-3.2367737
0
LINE
8
layer1
10
30.7855365
20
-3.2367737
11
30.5544897
21
-3.3002783
0
LINE
8
layer1
10
30.5544897
20
-3.3002783
11
30.3354545
21
-3.3507184
0
LINE
8
layer1
10
30.3354545
20
-3.3507184
11
30.1291578
21
-3.3891949
0
LINE
8
layer1
10
30.1291578
20
-3.3891949
11
29.9364129
21
-3.4168587
0
LINE
8
layer1
10
29.9364129
20
-3.4168587
11
29.757861
21
-3.4348998
0
LINE
8
layer1
10
29.757861
20
-3.4348998
11
29.591386
21
-3.444683
0
LINE
8
layer1
10
29.591386
20
-3.444683
11
29.4423419
21
-3.4471748
0
LINE
8
layer1
10
29.4423419
20
-3.4471748
11
29.3067906
21
-3.4437966
0
LINE
8
layer1
10
29.3067906
20
-3.4437966
11
29.082021
21
-3.424369
0
LINE
8
layer1
10
29.082021
20
-3.424369
11
28.9166569
21
-3.396088
0
LINE
8
layer1
10
28.9166569
20
-3.396088
11
28.8116496
21
-3.369006
0
LINE
8
layer1
10
28.8116496
20
-3.369006
11
28.7677042
21
-3.3496617
0
LINE
8
layer1
10
28.7677042
20
-3.3496617
11
28.6157812
21
-3.2677801
0
LINE
8
layer1
10
28.6157812
20
-3.2677801
11
28.4711276
21
-3.2040674
0
LINE
8
layer1
10
28.4711276
20
-3.2040674
11
28.3349774
21
-3.1577465
0
LINE
8
layer1
10
28.3349774
20
-3.1577465
11
28.2085188
21
-3.1279792
0
LINE
8
layer1
10
28.2085188
20
-3.1279792
11
28.0928822
21
-3.1138476
0
LINE
8
layer1
10
28.0928822
20
-3.1138476
11
27.98912
21
-3.114389
0
LINE
8
layer1
10
27.98912
20
-3.114389
11
27.8982589
21
-3.128545
0
LINE
8
layer1
10
27.8982589
20
-3.128545
11
27.8212105
21
-3.1552368
0
LINE
8
layer1
10
27.8212105
20
-3.1552368
11
27.7588593
21
-3.1933124
0
LINE
8
layer1
10
27.7588593
20
-3.1933124
11
27.7119945
21
-3.2415645
0
LINE
8
layer1
10
27.7119945
20
-3.2415645
11
27.694601
21
-3.269131
0
LINE
8
layer1
10
27.694601
20
-3.269131
11
27.5751303
21
-3.5029402
0
LINE
8
layer1
10
27.5751303
20
-3.5029402
11
27.4518893
21
-3.725
0
LINE
8
layer1
10
27.4518893
20
-3.725
11
27.3212003
21
-3.9427598
0
LINE
8
layer1
10
27.3212003
20
-3.9427598
11
27.178451
21
-4.163129
0
LINE
8
layer1
10
27.178451
20
-4.163129
11
27.1632745
21
-4.1919755
0
LINE
8
layer1
10
27.1632745
20
-4.1919755
11
27.1449193
21
-4.2566876
0
LINE
8
layer1
10
27.1449193
20
-4.2566876
11
27.1431205
21
-4.3297232
0
LINE
8
layer1
10
27.1431205
20
-4.3297232
11
27.1585289
21
-4.409795
0
LINE
8
layer1
10
27.1585289
20
-4.409795
11
27.1917
21
-4.495561
0
LINE
8
layer1
10
27.1917
20
-4.495561
11
27.2431122
21
-4.5856924
0
LINE
8
layer1
10
27.2431122
20
-4.5856924
11
27.3131688
21
-4.6787708
0
LINE
8
layer1
10
27.3131688
20
-4.6787708
11
27.4021774
21
-4.7734035
0
LINE
8
layer1
10
27.4021774
20
-4.7734035
11
27.5103676
21
-4.8681526
0
LINE
8
layer1
10
27.5103676
20
-4.8681526
11
27.6378712
21
-4.9615699
0
LINE
8
layer1
10
27.6378712
20
-4.9615699
11
27.7847442
21
-5.0521983
0
LINE
8
layer1
10
27.7847442
20
-5.0521983
11
27.8234696
21
-5.080584
0
LINE
8
layer1
10
27.8234696
20
-5.080584
11
27.8994269
21
-5.157982
0
LINE
8
layer1
10
27.8994269
20
-5.157982
11
28.006601
21
-5.287051
0
LINE
8
layer1
10
28.006601
20
-5.287051
11
28.1358106
21
-5.4719934
0
LINE
8
layer1
10
28.1358106
20
-5.4719934
11
28.2065119
21
-5.5876952
0
LINE
8
layer1
10
28.2065119
20
-5.5876952
11
28.278876
21
-5.718017
0
LINE
8
layer1
10
28.278876
20
-5.718017
11
28.353641
21
-5.8670802
0
LINE
8
layer1
10
28.353641
20
-5.8670802
11
28.4272929
21
-6.0307313
0
LINE
8
layer1
10
28.4272929
20
-6.0307313
11
28.4997078
21
-6.2114851
0
LINE
8
layer1
10
28.4997078
20
-6.2114851
11
28.5695345
21
-6.4093816
0
LINE
8
layer1
10
28.5695345
20
-6.4093816
11
28.6353697
21
-6.6242917
0
LINE
8
layer1
10
28.6353697
20
-6.6242917
11
28.6958965
21
-6.8561363
0
LINE
8
layer1
10
28.6958965
20
-6.8561363
11
28.7462933
21
-7.0882964
0
ARC
8
layer1
10
20.9999665
20
0.0000335
40
10.5
50
312.4602883
51
317.5397117
0
LINE
8
layer1
10
28.0882964
20
-7.7462933
11
27.8561363
21
-7.6958965
0
LINE
8
layer1
10
27.8561363
20
-7.6958965
11
27.6242917
21
-7.6353697
0
LINE
8
layer1
10
27.6242917
20
-7.6353697
11
27.4093816
21
-7.5695345
0
LINE
8
layer1
10
27.4093816
20
-7.5695345
11
27.2114851
21
-7.4997078
0
LINE
8
layer1
10
27.2114851
20
-7.4997078
11
27.0307313
21
-7.4272929
0
LINE
8
layer1
10
27.0307313
20
-7.4272929
11
26.8670802
21
-7.353641
0
LINE
8
layer1
10
26.8670802
20
-7.353641
11
26.718017
21
-7.278876
0
LINE
8
layer1
10
26.718017
20
-7.278876
11
26.5876952
21
-7.2065119
0
LINE
8
layer1
10
26.5876952
20
-7.2065119
11
26.4719934
21
-7.1358106
0
LINE
8
layer1
10
26.4719934
20
-7.1358106
11
26.287051
21
-7.006601
0
LINE
8
layer1
10
26.287051
20
-7.006601
11
26.157982
21
-6.8994269
0
LINE
8
layer1
10
26.157982
20
-6.8994269
11
26.080584
21
-6.8234696
0
LINE
8
layer1
10
26.080584
20
-6.8234696
11
26.0521983
21
-6.7847442
0
LINE
8
layer1
10
26.0521983
20
-6.7847442
11
25.9615699
21
-6.6378712
0
LINE
8
layer1
10
25.9615699
20
-6.6378712
11
25.8681526
21
-6.5103676
0
LINE
8
layer1
10
25.8681526
20
-6.5103676
11
25.7734035
21
-6.4021774
0
LINE
8
layer1
10
25.7734035
20
-6.4021774
11
25.6787708
21
-6.3131688
0
LINE
8
layer1
10
25.6787708
20
-6.3131688
11
25.5856924
21
-6.2431122
0
LINE
8
layer1
10
25.5856924
20
-6.2431122
11
25.495561
21
-6.1917
0
LINE
8
layer1
10
25.495561
20
-6.1917
11
25.409795
21
-6.1585289
0
LINE
8
layer1
10
25.409795
20
-6.1585289
11
25.3297232
21
-6.1431205
0
LINE
8
layer1
10
25.3297232
20
-6.1431205
11
25.2566876
21
-6.1449193
0
LINE
8
layer1
10
25.2566876
20
-6.1449193
11
25.1919755
21
-6.1632745
0
LINE
8
layer1
10
25.1919755
20
-6.1632745
11
25.163129
21
-6.178451
0
LINE
8
layer1
10
25.163129
20
-6.178451
11
24.9427598
21
-6.3212003
0
LINE
8
layer1
10
24.9427598
20
-6.3212003
11
24.725
21
-6.4518893
0
LINE
8
layer1
10
24.725
20
-6.4518893
11
24.5029402
21
-6.5751303
0
LINE
8
layer1
10
24.5029402
20
-6.5751303
11
24.269131
21
-6.694601
0
LINE
8
layer1
10
24.269131
20
-6.694601
11
24.2415645
21
-6.7119945
0
LINE
8
layer1
10
24.2415645
20
-6.7119945
11
24.1933124
21
-6.7588593
0
LINE
8
layer1
10
24.1933124
20
-6.7588593
11
24.1552368
21
-6.8212105
0
LINE
8
layer1
10
24.1552368
20
-6.8212105
11
24.128545
21
-6.8982589
0
LINE
8
layer1
10
24.128545
20
-6.8982589
11
24.114389
21
-6.98912
0
LINE
8
layer1
10
24.114389
20
-6.98912
11
24.1138476
21
-7.0928822
0
LINE
8
layer1
10
24.1138476
20
-7.0928822
11
24.1279792
21
-7.2085188
0
LINE
8
layer1
10
24.1279792
20
-7.2085188
11
24.1577465
21
-7.3349774
0
LINE
8
layer1
10
24.1577465
20
-7.3349774
11
24.2040674
21
-7.4711276
0
LINE
8
layer1
10
24.2040674
20
-7.4711276
11
24.2677801
21
-7.6157812
0
LINE
8
layer1
10
24.2677801
20
-7.6157812
11
24.3496617
21
-7.7677042
0
LINE
8
layer1
10
24.3496617
20
-7.7677042
11
24.369006
21
-7.8116496
0
LINE
8
layer1
10
24.369006
20
-7.8116496
11
24.396088
21
-7.9166569
0
LINE
8
layer1
10
24.396088
20
-7.9166569
11
24.424369
21
-8.082021
0
LINE
8
layer1
10
24.424369
20
-8.082021
11
24.4437966
21
-8.3067906
0
LINE
8
layer1
10
24.4437966
20
-8.3067906
11
24.4471748
21
-8.4423419
0
LINE
8
layer1
10
24.4471748
20
-8.4423419
11
24.444683
21
-8.591386
0
LINE
8
layer1
10
24.444683
20
-8.591386
11
24.4348998
21
-8.757861
0
LINE
8
layer1
10
24.4348998
20
-8.757861
11
24.4168587
21
-8.9364129
0
LINE
8
layer1
10
24.4168587
20
-8.9364129
11
24.3891949
21
-9.1291578
0
LINE
8
layer1
10
24.3891949
20
-9.1291578
11
24.3507184
21
-9.3354545
0
LINE
8
layer1
10
24.3507184
20
-9.3354545
11
24.3002783
21
-9.5544897
0
LINE
8
layer1
10
24.3002783
20
-9.5544897
11
24.2367737
21
-9.7855365
0
LINE
8
layer1
10
24.2367737
20
-9.7855365
11
24.1643386
21
-10.0117914
0
ARC
8
layer1
10
20.9999873
20
0.0000457
40
10.5
50
282.4602913
51
287.5397141
0
LINE
8
layer1
10
23.2654981
20
-10.252635
11
23.08964
21
-10.09291
0
LINE
8
layer1
10
23.08964
20
-10.09291
11
22.91912
21
-9.92457
0
LINE
8
layer1
10
22.91912
20
-9.92457
11
22.76592
21
-9.7601
0
LINE
8
layer1
10
22.76592
20
-9.7601
11
22.62945
21
-9.60068
0
LINE
8
layer1
10
22.62945
20
-9.60068
11
22.50912
21
-9.44759
0
LINE
8
layer1
10
22.50912
20
-9.44759
11
22.40422
21
-9.30198
0
LINE
8
layer1
10
22.40422
20
-9.30198
11
22.31251
21
-9.1627
0
LINE
8
layer1
10
22.31251
20
-9.1627
11
22.23583
21
-9.03487
0
LINE
8
layer1
10
22.23583
20
-9.03487
11
22.17098
21
-8.91579
0
LINE
8
layer1
10
22.17098
20
-8.91579
11
22.07542
21
-8.71142
0
LINE
8
layer1
10
22.07542
20
-8.71142
11
22.01723
21
-8.55407
0
LINE
8
layer1
10
22.01723
20
-8.55407
11
21.98818
21
-8.44959
0
LINE
8
layer1
10
21.98818
20
-8.44959
11
21.98296
21
-8.40186
0
LINE
8
layer1
10
21.98296
20
-8.40186
11
21.97791
21
-8.22935
0
LINE
8
layer1
10
21.97791
20
-8.22935
11
21.96076
21
-8.07222
0
LINE
8
layer1
10
21.96076
20
-8.07222
11
21.9328
21
-7.93115
0
LINE
8
layer1
10
21.9328
20
-7.93115
11
21.89535
21
-7.80675
0
LINE
8
layer1
10
21.89535
20
-7.80675
11
21.84977
21
-7.69954
0
LINE
8
layer1
10
21.84977
20
-7.69954
11
21.79742
21
-7.60995
0
LINE
8
layer1
10
21.79742
20
-7.60995
11
21.73973
21
-7.53834
0
LINE
8
layer1
10
21.73973
20
-7.53834
11
21.67809
21
-7.48496
0
LINE
8
layer1
10
21.67809
20
-7.48496
11
21.61394
21
-7.45
0
LINE
8
layer1
10
21.61394
20
-7.45
11
21.54872
21
-7.43354
0
LINE
8
layer1
10
21.54872
20
-7.43354
11
21.51615
21
-7.43226
0
LINE
8
layer1
10
21.51615
20
-7.43226
11
21.25393
21
-7.4457
0
LINE
8
layer1
10
21.25393
20
-7.4457
11
21
21
-7.45
0
LINE
8
layer1
10
21
20
-7.45
11
20.74607
21
-7.4457
0
LINE
8
layer1
10
20.74607
20
-7.4457
11
20.48385
21
-7.43226
0
LINE
8
layer1
10
20.48385
20
-7.43226
11
20.45128
21
-7.43354
0
LINE
8
layer1
10
20.45128
20
-7.43354
11
20.38606
21
-7.45
0
LINE
8
layer1
10
20.38606
20
-7.45
11
20.32191
21
-7.48496
0
LINE
8
layer1
10
20.32191
20
-7.48496
11
20.26027
21
-7.53834
0
LINE
8
layer1
10
20.26027
20
-7.53834
11
20.20258
21
-7.60995
0
LINE
8
layer1
10
20.20258
20
-7.60995
11
20.15023
21
-7.69954
0
LINE
8
layer1
10
20.15023
20
-7.69954
11
20.10465
21
-7.80675
0
LINE
8
layer1
10
20.10465
20
-7.80675
11
20.0672
21
-7.93115
0
LINE
8
layer1
10
20.0672
20
-7.93115
11
20.03924
21
-8.07222
0
LINE
8
layer1
10
20.03924
20
-8.07222
11
20.02209
21
-8.22935
0
LINE
8
layer1
10
20.02209
20
-8.22935
11
20.01704
21
-8.40186
0
LINE
8
layer1
10
20.01704
20
-8.40186
11
20.01182
21
-8.44959
0
LINE
8
layer1
10
20.01182
20
-8.44959
11
19.98277
21
-8.55407
0
LINE
8
layer1
10
19.98277
20
-8.55407
11
19.92458
21
-8.71142
0
LINE
8
layer1
10
19.92458
20
-8.71142
11
19.82902
21
-8.91579
0
LINE
8
layer1
10
19.82902
20
-8.91579
11
19.76417
21
-9.03487
0
LINE
8
layer1
10
19.76417
20
-9.03487
11
19.68749
21
-9.1627
0
LINE
8
layer1
10
19.68749
20
-9.1627
11
19.59578
21
-9.30198
0
LINE
8
layer1
10
19.59578
20
-9.30198
11
19.49088
21
-9.44759
0
LINE
8
layer1
10
19.49088
20
-9.44759
11
19.37055
21
-9.60068
0
LINE
8
layer1
10
19.37055
20
-9.60068
11
19.23408
21
-9.7601
0
LINE
8
layer1
10
19.23408
20
-9.7601
11
19.08088
21
-9.92457
0
LINE
8
layer1
10
19.08088
20
-9.92457
11
18.91036
21
-10.09291
0
LINE
8
layer1
10
18.91036
20
-10.09291
11
18.7345019
21
-10.252635
0
ARC
8
layer1
10
21.0000127
20
0.0000457
40
10.5
50
252.4602864
51
257.5397093
0
LINE
8
layer1
10
17.8356614
20
-10.0117914
11
17.7632263
21
-9.7855365
0
LINE
8
layer1
10
17.7632263
20
-9.7855365
11
17.6997217
21
-9.5544897
0
LINE
8
layer1
10
17.6997217
20
-9.5544897
11
17.6492816
21
-9.3354545
0
LINE
8
layer1
10
17.6492816
20
-9.3354545
11
17.6108051
21
-9.1291578
0
LINE
8
layer1
10
17.6108051
20
-9.1291578
11
17.5831413
21
-8.9364129
0
LINE
8
layer1
10
17.5831413
20
-8.9364129
11
17.5651002
21
-8.757861
0
LINE
8
layer1
10
17.5651002
20
-8.757861
11
17.555317
21
-8.591386
0
LINE
8
layer1
10
17.555317
20
-8.591386
11
17.5528252
21
-8.4423419
0
LINE
8
layer1
10
17.5528252
20
-8.4423419
11
17.5562034
21
-8.3067906
0
LINE
8
layer1
10
17.5562034
20
-8.3067906
11
17.575631
21
-8.082021
0
LINE
8
layer1
10
17.575631
20
-8.082021
11
17.603912
21
-7.9166569
0
LINE
8
layer1
10
17.603912
20
-7.9166569
11
17.630994
21
-7.8116496
0
LINE
8
layer1
10
17.630994
20
-7.8116496
11
17.6503383
21
-7.7677042
0
LINE
8
layer1
10
17.6503383
20
-7.7677042
11
17.7322199
21
-7.6157812
0
LINE
8
layer1
10
17.7322199
20
-7.6157812
11
17.7959326
21
-7.4711276
0
LINE
8
layer1
10
17.7959326
20
-7.4711276
11
17.8422535
21
-7.3349774
0
LINE
8
layer1
10
17.8422535
20
-7.3349774
11
17.8720208
21
-7.2085188
0
LINE
8
layer1
10
17.8720208
20
-7.2085188
11
17.8861524
21
-7.0928822
0
LINE
8
layer1
10
17.8861524
20
-7.0928822
11
17.885611
21
-6.98912
0
LINE
8
layer1
10
17.885611
20
-6.98912
11
17.871455
21
-6.8982589
0
LINE
8
layer1
10
17.871455
20
-6.8982589
11
17.8447632
21
-6.8212105
0
LINE
8
layer1
10
17.8447632
20
-6.8212105
11
17.8066876
21
-6.7588593
0
LINE
8
layer1
10
17.8066876
20
-6.7588593
11
17.7584355
21
-6.7119945
0
LINE
8
layer1
10
17.7584355
20
-6.7119945
11
17.730869
21
-6.694601
0
LINE
8
layer1
10
17.730869
20
-6.694601
11
17.4970598
21
-6.5751303
0
LINE
8
layer1
10
17.4970598
20
-6.5751303
11
17.275
21
-6.4518893
0
LINE
8
layer1
10
17.275
20
-6.4518893
11
17.0572402
21
-6.3212003
0
LINE
8
layer1
10
17.0572402
20
-6.3212003
11
16.836871
21
-6.178451
0
LINE
8
layer1
10
16.836871
20
-6.178451
11
16.8080245
21
-6.1632745
0
LINE
8
layer1
10
16.8080245
20
-6.1632745
11
16.7433124
21
-6.1449193
0
LINE
8
layer1
10
16.7433124
20
-6.1449193
11
16.6702768
21
-6.1431205
0
LINE
8
layer1
10
16.6702768
20
-6.1431205
11
16.590205
21
-6.1585289
0
LINE
8
layer1
10
16.590205
20
-6.1585289
11
16.504439
21
-6.1917
0
LINE
8
layer1
10
16.504439
20
-6.1917
11
16.4143076
21
-6.2431122
0
LINE
8
layer1
10
16.4143076
20
-6.2431122
11
16.3212292
21
-6.3131688
0
LINE
8
layer1
10
16.3212292
20
-6.3131688
11
16.2265965
21
-6.4021774
0
LINE
8
layer1
10
16.2265965
20
-6.4021774
11
16.1318474
21
-6.5103676
0
LINE
8
layer1
10
16.1318474
20
-6.5103676
11
16.0384301
21
-6.6378712
0
LINE
8
layer1
10
16.0384301
20
-6.6378712
11
15.9478017
21
-6.7847442
0
LINE
8
layer1
10
15.9478017
20
-6.7847442
11
15.919416
21
-6.8234696
0
LINE
8
layer1
10
15.919416
20
-6.8234696
11
15.842018
21
-6.8994269
0
LINE
8
layer1
10
15.842018
20
-6.8994269
11
15.712949
21
-7.006601
0
LINE
8
layer1
10
15.712949
20
-7.006601
11
15.5280066
21
-7.1358106
0
LINE
8
layer1
10
15.5280066
20
-7.1358106
11
15.4123048
21
-7.2065119
0
LINE
8
layer1
10
15.4123048
20
-7.2065119
11
15.281983
21
-7.278876
0
LINE
8
layer1
10
15.281983
20
-7.278876
11
15.1329198
21
-7.353641
0
LINE
8
layer1
10
15.1329198
20
-7.353641
11
14.9692687
21
-7.4272929
0
LINE
8
layer1
10
14.9692687
20
-7.4272929
11
14.7885149
21
-7.4997078
0
LINE
8
layer1
10
14.7885149
20
-7.4997078
11
14.5906184
21
-7.5695345
0
LINE
8
layer1
10
14.5906184
20
-7.5695345
11
14.3757083
21
-7.6353697
0
LINE
8
layer1
10
14.3757083
20
-7.6353697
11
14.1438637
21
-7.6958965
0
LINE
8
layer1
10
14.1438637
20
-7.6958965
11
13.9117036
21
-7.7462933
0
ARC
8
layer1
10
21.0000335
20
0.0000335
40
10.5
50
222.4602883
51
227.5397117
0
LINE
8
layer1
10
13.2537067
20
-7.0882964
11
13.3041035
21
-6.8561363
0
ENDSEC
0
EOF