ISO-10303-21;
HEADER;
/* Generated by software containing ST-Developer
 * from STEP Tools, Inc. (www.steptools.com) 
 */
/* OPTION: using custom renumber hook */

FILE_DESCRIPTION(
/* description */ ('STEP AP214'),
/* implementation_level */ '2;1');

FILE_NAME(
/* name */ 'Cabinet U-Handle_ Stainless Steel GN 565.5-20-112-A-GS',
/* time_stamp */ '2025-12-16T00:23:03+01:00',
/* author */ ('License CC BY-ND 4.0'),
/* organization */ ('CADENAS'),
/* preprocessor_version */ 'ST-DEVELOPER v20',
/* originating_system */ 'PARTsolutions',
/* authorisation */ '  ');

FILE_SCHEMA (('AUTOMOTIVE_DESIGN {1 0 10303 214 3 1 1}'));
ENDSEC;

DATA;
#10=PROPERTY_DEFINITION_REPRESENTATION(#14,#12);
#11=PROPERTY_DEFINITION_REPRESENTATION(#15,#13);
#12=REPRESENTATION('',(#16),#729);
#13=REPRESENTATION('',(#17),#729);
#14=PROPERTY_DEFINITION('pmi validation property','',#734);
#15=PROPERTY_DEFINITION('pmi validation property','',#734);
#16=VALUE_REPRESENTATION_ITEM('number of annotations',COUNT_MEASURE(0.));
#17=VALUE_REPRESENTATION_ITEM('number of views',COUNT_MEASURE(0.));
#18=SHAPE_REPRESENTATION_RELATIONSHIP('','',#403,#19);
#19=ADVANCED_BREP_SHAPE_REPRESENTATION('',(#401),#729);
#20=VERTEX_LOOP('',#237);
#21=VERTEX_LOOP('',#240);
#22=CONICAL_SURFACE('',#461,9.62964972193618E-32,1.02974425867665);
#23=CONICAL_SURFACE('',#465,2.4585,0.785398163397448);
#24=CONICAL_SURFACE('',#466,9.62964972193618E-32,1.02974425867665);
#25=CONICAL_SURFACE('',#470,2.4585,0.785398163397448);
#26=DEGENERATE_TOROIDAL_SURFACE('',#423,11.8466144964179,14.1533855035822,
 .T.);
#27=DEGENERATE_TOROIDAL_SURFACE('',#439,11.8466144964178,14.1533855035821,
 .T.);
#28=TOROIDAL_SURFACE('',#419,19.5,5.0252994226716);
#29=TOROIDAL_SURFACE('',#426,19.5,5.0252994226716);
#30=TOROIDAL_SURFACE('',#429,27.1533855035821,14.1533855035822);
#31=TOROIDAL_SURFACE('',#443,19.5,5.0252994226716);
#32=TOROIDAL_SURFACE('',#446,27.1533855035821,14.1533855035821);
#33=TOROIDAL_SURFACE('',#449,19.5,5.0252994226716);
#34=PLANE('',#417);
#35=PLANE('',#459);
#36=LINE('',#622,#48);
#37=LINE('',#626,#49);
#38=LINE('',#630,#50);
#39=LINE('',#636,#51);
#40=LINE('',#662,#52);
#41=LINE('',#666,#53);
#42=LINE('',#668,#54);
#43=LINE('',#672,#55);
#44=LINE('',#697,#56);
#45=LINE('',#698,#57);
#46=LINE('',#702,#58);
#47=LINE('',#706,#59);
#48=VECTOR('',#477,1000.);
#49=VECTOR('',#480,1000.);
#50=VECTOR('',#485,1000.);
#51=VECTOR('',#492,1000.);
#52=VECTOR('',#531,1000.);
#53=VECTOR('',#534,1000.);
#54=VECTOR('',#537,1000.);
#55=VECTOR('',#542,1000.);
#56=VECTOR('',#577,1000.);
#57=VECTOR('',#578,1000.);
#58=VECTOR('',#583,1000.);
#59=VECTOR('',#588,1000.);
#60=ORIENTED_EDGE('',*,*,#160,.T.);
#61=ORIENTED_EDGE('',*,*,#161,.F.);
#62=ORIENTED_EDGE('',*,*,#162,.F.);
#63=ORIENTED_EDGE('',*,*,#163,.T.);
#64=ORIENTED_EDGE('',*,*,#164,.T.);
#65=ORIENTED_EDGE('',*,*,#165,.F.);
#66=ORIENTED_EDGE('',*,*,#166,.F.);
#67=ORIENTED_EDGE('',*,*,#161,.T.);
#68=ORIENTED_EDGE('',*,*,#167,.T.);
#69=ORIENTED_EDGE('',*,*,#168,.F.);
#70=ORIENTED_EDGE('',*,*,#169,.F.);
#71=ORIENTED_EDGE('',*,*,#165,.T.);
#72=ORIENTED_EDGE('',*,*,#170,.T.);
#73=ORIENTED_EDGE('',*,*,#163,.F.);
#74=ORIENTED_EDGE('',*,*,#171,.F.);
#75=ORIENTED_EDGE('',*,*,#168,.T.);
#76=ORIENTED_EDGE('',*,*,#172,.F.);
#77=ORIENTED_EDGE('',*,*,#160,.F.);
#78=ORIENTED_EDGE('',*,*,#170,.F.);
#79=ORIENTED_EDGE('',*,*,#167,.F.);
#80=ORIENTED_EDGE('',*,*,#164,.F.);
#81=ORIENTED_EDGE('',*,*,#173,.T.);
#82=ORIENTED_EDGE('',*,*,#174,.F.);
#83=ORIENTED_EDGE('',*,*,#175,.F.);
#84=ORIENTED_EDGE('',*,*,#162,.T.);
#85=ORIENTED_EDGE('',*,*,#176,.T.);
#86=ORIENTED_EDGE('',*,*,#177,.F.);
#87=ORIENTED_EDGE('',*,*,#173,.F.);
#88=ORIENTED_EDGE('',*,*,#166,.T.);
#89=ORIENTED_EDGE('',*,*,#178,.T.);
#90=ORIENTED_EDGE('',*,*,#179,.F.);
#91=ORIENTED_EDGE('',*,*,#176,.F.);
#92=ORIENTED_EDGE('',*,*,#169,.T.);
#93=ORIENTED_EDGE('',*,*,#171,.T.);
#94=ORIENTED_EDGE('',*,*,#175,.T.);
#95=ORIENTED_EDGE('',*,*,#180,.F.);
#96=ORIENTED_EDGE('',*,*,#178,.F.);
#97=ORIENTED_EDGE('',*,*,#177,.T.);
#98=ORIENTED_EDGE('',*,*,#181,.F.);
#99=ORIENTED_EDGE('',*,*,#182,.F.);
#100=ORIENTED_EDGE('',*,*,#183,.T.);
#101=ORIENTED_EDGE('',*,*,#179,.T.);
#102=ORIENTED_EDGE('',*,*,#184,.F.);
#103=ORIENTED_EDGE('',*,*,#185,.F.);
#104=ORIENTED_EDGE('',*,*,#181,.T.);
#105=ORIENTED_EDGE('',*,*,#180,.T.);
#106=ORIENTED_EDGE('',*,*,#186,.F.);
#107=ORIENTED_EDGE('',*,*,#187,.F.);
#108=ORIENTED_EDGE('',*,*,#184,.T.);
#109=ORIENTED_EDGE('',*,*,#174,.T.);
#110=ORIENTED_EDGE('',*,*,#183,.F.);
#111=ORIENTED_EDGE('',*,*,#188,.F.);
#112=ORIENTED_EDGE('',*,*,#186,.T.);
#113=ORIENTED_EDGE('',*,*,#189,.T.);
#114=ORIENTED_EDGE('',*,*,#190,.F.);
#115=ORIENTED_EDGE('',*,*,#191,.F.);
#116=ORIENTED_EDGE('',*,*,#182,.T.);
#117=ORIENTED_EDGE('',*,*,#192,.T.);
#118=ORIENTED_EDGE('',*,*,#193,.F.);
#119=ORIENTED_EDGE('',*,*,#189,.F.);
#120=ORIENTED_EDGE('',*,*,#185,.T.);
#121=ORIENTED_EDGE('',*,*,#194,.T.);
#122=ORIENTED_EDGE('',*,*,#195,.F.);
#123=ORIENTED_EDGE('',*,*,#192,.F.);
#124=ORIENTED_EDGE('',*,*,#187,.T.);
#125=ORIENTED_EDGE('',*,*,#188,.T.);
#126=ORIENTED_EDGE('',*,*,#191,.T.);
#127=ORIENTED_EDGE('',*,*,#196,.F.);
#128=ORIENTED_EDGE('',*,*,#194,.F.);
#129=ORIENTED_EDGE('',*,*,#197,.T.);
#130=ORIENTED_EDGE('',*,*,#198,.F.);
#131=ORIENTED_EDGE('',*,*,#196,.T.);
#132=ORIENTED_EDGE('',*,*,#199,.T.);
#133=ORIENTED_EDGE('',*,*,#200,.T.);
#134=ORIENTED_EDGE('',*,*,#201,.F.);
#135=ORIENTED_EDGE('',*,*,#195,.T.);
#136=ORIENTED_EDGE('',*,*,#198,.T.);
#137=ORIENTED_EDGE('',*,*,#202,.T.);
#138=ORIENTED_EDGE('',*,*,#203,.F.);
#139=ORIENTED_EDGE('',*,*,#193,.T.);
#140=ORIENTED_EDGE('',*,*,#201,.T.);
#141=ORIENTED_EDGE('',*,*,#204,.T.);
#142=ORIENTED_EDGE('',*,*,#199,.F.);
#143=ORIENTED_EDGE('',*,*,#190,.T.);
#144=ORIENTED_EDGE('',*,*,#203,.T.);
#145=ORIENTED_EDGE('',*,*,#205,.F.);
#146=ORIENTED_EDGE('',*,*,#197,.F.);
#147=ORIENTED_EDGE('',*,*,#204,.F.);
#148=ORIENTED_EDGE('',*,*,#202,.F.);
#149=ORIENTED_EDGE('',*,*,#200,.F.);
#150=ORIENTED_EDGE('',*,*,#206,.T.);
#151=ORIENTED_EDGE('',*,*,#207,.T.);
#152=ORIENTED_EDGE('',*,*,#206,.F.);
#153=ORIENTED_EDGE('',*,*,#172,.T.);
#154=ORIENTED_EDGE('',*,*,#207,.F.);
#155=ORIENTED_EDGE('',*,*,#208,.T.);
#156=ORIENTED_EDGE('',*,*,#209,.T.);
#157=ORIENTED_EDGE('',*,*,#208,.F.);
#158=ORIENTED_EDGE('',*,*,#205,.T.);
#159=ORIENTED_EDGE('',*,*,#209,.F.);
#160=EDGE_CURVE('',#210,#211,#242,.T.);
#161=EDGE_CURVE('',#212,#211,#36,.T.);
#162=EDGE_CURVE('',#213,#212,#243,.T.);
#163=EDGE_CURVE('',#213,#210,#37,.T.);
#164=EDGE_CURVE('',#211,#214,#244,.T.);
#165=EDGE_CURVE('',#215,#214,#38,.T.);
#166=EDGE_CURVE('',#212,#215,#245,.T.);
#167=EDGE_CURVE('',#214,#216,#246,.T.);
#168=EDGE_CURVE('',#217,#216,#39,.T.);
#169=EDGE_CURVE('',#215,#217,#247,.T.);
#170=EDGE_CURVE('',#216,#210,#248,.T.);
#171=EDGE_CURVE('',#217,#213,#249,.T.);
#172=EDGE_CURVE('',#218,#218,#250,.T.);
#173=EDGE_CURVE('',#212,#219,#251,.T.);
#174=EDGE_CURVE('',#220,#219,#252,.T.);
#175=EDGE_CURVE('',#213,#220,#253,.T.);
#176=EDGE_CURVE('',#215,#221,#254,.T.);
#177=EDGE_CURVE('',#219,#221,#255,.T.);
#178=EDGE_CURVE('',#217,#222,#256,.T.);
#179=EDGE_CURVE('',#221,#222,#257,.T.);
#180=EDGE_CURVE('',#222,#220,#258,.T.);
#181=EDGE_CURVE('',#223,#221,#40,.T.);
#182=EDGE_CURVE('',#224,#223,#259,.T.);
#183=EDGE_CURVE('',#224,#219,#41,.T.);
#184=EDGE_CURVE('',#225,#222,#42,.T.);
#185=EDGE_CURVE('',#223,#225,#260,.T.);
#186=EDGE_CURVE('',#226,#220,#43,.T.);
#187=EDGE_CURVE('',#225,#226,#261,.T.);
#188=EDGE_CURVE('',#226,#224,#262,.T.);
#189=EDGE_CURVE('',#223,#227,#263,.T.);
#190=EDGE_CURVE('',#228,#227,#264,.T.);
#191=EDGE_CURVE('',#224,#228,#265,.T.);
#192=EDGE_CURVE('',#225,#229,#266,.T.);
#193=EDGE_CURVE('',#227,#229,#267,.T.);
#194=EDGE_CURVE('',#226,#230,#268,.T.);
#195=EDGE_CURVE('',#229,#230,#269,.T.);
#196=EDGE_CURVE('',#230,#228,#270,.T.);
#197=EDGE_CURVE('',#231,#232,#271,.T.);
#198=EDGE_CURVE('',#230,#232,#44,.T.);
#199=EDGE_CURVE('',#228,#231,#45,.T.);
#200=EDGE_CURVE('',#232,#233,#272,.T.);
#201=EDGE_CURVE('',#229,#233,#46,.T.);
#202=EDGE_CURVE('',#233,#234,#273,.T.);
#203=EDGE_CURVE('',#227,#234,#47,.T.);
#204=EDGE_CURVE('',#234,#231,#274,.T.);
#205=EDGE_CURVE('',#235,#235,#275,.T.);
#206=EDGE_CURVE('',#236,#236,#276,.T.);
#207=EDGE_CURVE('',#238,#238,#277,.T.);
#208=EDGE_CURVE('',#239,#239,#278,.T.);
#209=EDGE_CURVE('',#241,#241,#279,.T.);
#210=VERTEX_POINT('',#620);
#211=VERTEX_POINT('',#621);
#212=VERTEX_POINT('',#623);
#213=VERTEX_POINT('',#625);
#214=VERTEX_POINT('',#629);
#215=VERTEX_POINT('',#631);
#216=VERTEX_POINT('',#635);
#217=VERTEX_POINT('',#637);
#218=VERTEX_POINT('',#644);
#219=VERTEX_POINT('',#647);
#220=VERTEX_POINT('',#649);
#221=VERTEX_POINT('',#653);
#222=VERTEX_POINT('',#657);
#223=VERTEX_POINT('',#663);
#224=VERTEX_POINT('',#665);
#225=VERTEX_POINT('',#669);
#226=VERTEX_POINT('',#673);
#227=VERTEX_POINT('',#679);
#228=VERTEX_POINT('',#681);
#229=VERTEX_POINT('',#685);
#230=VERTEX_POINT('',#689);
#231=VERTEX_POINT('',#695);
#232=VERTEX_POINT('',#696);
#233=VERTEX_POINT('',#701);
#234=VERTEX_POINT('',#705);
#235=VERTEX_POINT('',#711);
#236=VERTEX_POINT('',#714);
#237=VERTEX_POINT('',#715);
#238=VERTEX_POINT('',#718);
#239=VERTEX_POINT('',#722);
#240=VERTEX_POINT('',#723);
#241=VERTEX_POINT('',#726);
#242=CIRCLE('',#406,5.0252994226716);
#243=CIRCLE('',#407,5.0252994226716);
#244=CIRCLE('',#409,14.1533855035822);
#245=CIRCLE('',#410,14.1533855035822);
#246=CIRCLE('',#412,5.0252994226716);
#247=CIRCLE('',#413,5.0252994226716);
#248=CIRCLE('',#415,14.1533855035822);
#249=CIRCLE('',#416,14.1533855035822);
#250=CIRCLE('',#418,3.);
#251=CIRCLE('',#420,23.7134302209383);
#252=CIRCLE('',#421,5.0252994226716);
#253=CIRCLE('',#422,15.2865697790617);
#254=CIRCLE('',#424,23.7134302209383);
#255=CIRCLE('',#425,14.1533855035822);
#256=CIRCLE('',#427,15.2865697790617);
#257=CIRCLE('',#428,5.0252994226716);
#258=CIRCLE('',#430,14.1533855035822);
#259=CIRCLE('',#432,14.1533855035821);
#260=CIRCLE('',#434,5.0252994226716);
#261=CIRCLE('',#436,14.1533855035821);
#262=CIRCLE('',#438,5.0252994226716);
#263=CIRCLE('',#440,23.7134302209383);
#264=CIRCLE('',#441,14.1533855035821);
#265=CIRCLE('',#442,23.7134303128164);
#266=CIRCLE('',#444,15.2865698709399);
#267=CIRCLE('',#445,5.0252994226716);
#268=CIRCLE('',#447,15.2865697790617);
#269=CIRCLE('',#448,14.1533855035821);
#270=CIRCLE('',#450,5.0252994226716);
#271=CIRCLE('',#452,5.02529942267159);
#272=CIRCLE('',#454,14.1533855035822);
#273=CIRCLE('',#456,5.02529942267159);
#274=CIRCLE('',#458,14.1533855035822);
#275=CIRCLE('',#460,3.);
#276=CIRCLE('',#462,2.4585);
#277=CIRCLE('',#464,2.4585);
#278=CIRCLE('',#467,2.4585);
#279=CIRCLE('',#469,2.4585);
#280=EDGE_LOOP('',(#60,#61,#62,#63));
#281=EDGE_LOOP('',(#64,#65,#66,#67));
#282=EDGE_LOOP('',(#68,#69,#70,#71));
#283=EDGE_LOOP('',(#72,#73,#74,#75));
#284=EDGE_LOOP('',(#76));
#285=EDGE_LOOP('',(#77,#78,#79,#80));
#286=EDGE_LOOP('',(#81,#82,#83,#84));
#287=EDGE_LOOP('',(#85,#86,#87,#88));
#288=EDGE_LOOP('',(#89,#90,#91,#92));
#289=EDGE_LOOP('',(#93,#94,#95,#96));
#290=EDGE_LOOP('',(#97,#98,#99,#100));
#291=EDGE_LOOP('',(#101,#102,#103,#104));
#292=EDGE_LOOP('',(#105,#106,#107,#108));
#293=EDGE_LOOP('',(#109,#110,#111,#112));
#294=EDGE_LOOP('',(#113,#114,#115,#116));
#295=EDGE_LOOP('',(#117,#118,#119,#120));
#296=EDGE_LOOP('',(#121,#122,#123,#124));
#297=EDGE_LOOP('',(#125,#126,#127,#128));
#298=EDGE_LOOP('',(#129,#130,#131,#132));
#299=EDGE_LOOP('',(#133,#134,#135,#136));
#300=EDGE_LOOP('',(#137,#138,#139,#140));
#301=EDGE_LOOP('',(#141,#142,#143,#144));
#302=EDGE_LOOP('',(#145));
#303=EDGE_LOOP('',(#146,#147,#148,#149));
#304=EDGE_LOOP('',(#150));
#305=EDGE_LOOP('',(#151));
#306=EDGE_LOOP('',(#152));
#307=EDGE_LOOP('',(#153));
#308=EDGE_LOOP('',(#154));
#309=EDGE_LOOP('',(#155));
#310=EDGE_LOOP('',(#156));
#311=EDGE_LOOP('',(#157));
#312=EDGE_LOOP('',(#158));
#313=EDGE_LOOP('',(#159));
#314=FACE_BOUND('',#280,.T.);
#315=FACE_BOUND('',#281,.T.);
#316=FACE_BOUND('',#282,.T.);
#317=FACE_BOUND('',#283,.T.);
#318=FACE_BOUND('',#284,.T.);
#319=FACE_BOUND('',#285,.T.);
#320=FACE_BOUND('',#286,.T.);
#321=FACE_BOUND('',#287,.T.);
#322=FACE_BOUND('',#288,.T.);
#323=FACE_BOUND('',#289,.T.);
#324=FACE_BOUND('',#290,.T.);
#325=FACE_BOUND('',#291,.T.);
#326=FACE_BOUND('',#292,.T.);
#327=FACE_BOUND('',#293,.T.);
#328=FACE_BOUND('',#294,.T.);
#329=FACE_BOUND('',#295,.T.);
#330=FACE_BOUND('',#296,.T.);
#331=FACE_BOUND('',#297,.T.);
#332=FACE_BOUND('',#298,.T.);
#333=FACE_BOUND('',#299,.T.);
#334=FACE_BOUND('',#300,.T.);
#335=FACE_BOUND('',#301,.T.);
#336=FACE_BOUND('',#302,.T.);
#337=FACE_BOUND('',#303,.T.);
#338=FACE_BOUND('',#304,.T.);
#339=FACE_BOUND('',#20,.T.);
#340=FACE_BOUND('',#305,.T.);
#341=FACE_BOUND('',#306,.T.);
#342=FACE_BOUND('',#307,.T.);
#343=FACE_BOUND('',#308,.T.);
#344=FACE_BOUND('',#309,.T.);
#345=FACE_BOUND('',#21,.T.);
#346=FACE_BOUND('',#310,.T.);
#347=FACE_BOUND('',#311,.T.);
#348=FACE_BOUND('',#312,.T.);
#349=FACE_BOUND('',#313,.T.);
#350=CYLINDRICAL_SURFACE('',#405,5.0252994226716);
#351=CYLINDRICAL_SURFACE('',#408,14.1533855035822);
#352=CYLINDRICAL_SURFACE('',#411,5.0252994226716);
#353=CYLINDRICAL_SURFACE('',#414,14.1533855035822);
#354=CYLINDRICAL_SURFACE('',#431,14.1533855035821);
#355=CYLINDRICAL_SURFACE('',#433,5.0252994226716);
#356=CYLINDRICAL_SURFACE('',#435,14.1533855035821);
#357=CYLINDRICAL_SURFACE('',#437,5.0252994226716);
#358=CYLINDRICAL_SURFACE('',#451,5.02529942267159);
#359=CYLINDRICAL_SURFACE('',#453,14.1533855035822);
#360=CYLINDRICAL_SURFACE('',#455,5.02529942267159);
#361=CYLINDRICAL_SURFACE('',#457,14.1533855035822);
#362=CYLINDRICAL_SURFACE('',#463,2.4585);
#363=CYLINDRICAL_SURFACE('',#468,2.4585);
#364=ADVANCED_FACE('',(#314),#350,.T.);
#365=ADVANCED_FACE('',(#315),#351,.T.);
#366=ADVANCED_FACE('',(#316),#352,.T.);
#367=ADVANCED_FACE('',(#317),#353,.T.);
#368=ADVANCED_FACE('',(#318,#319),#34,.F.);
#369=ADVANCED_FACE('',(#320),#28,.T.);
#370=ADVANCED_FACE('',(#321),#26,.T.);
#371=ADVANCED_FACE('',(#322),#29,.T.);
#372=ADVANCED_FACE('',(#323),#30,.T.);
#373=ADVANCED_FACE('',(#324),#354,.T.);
#374=ADVANCED_FACE('',(#325),#355,.T.);
#375=ADVANCED_FACE('',(#326),#356,.T.);
#376=ADVANCED_FACE('',(#327),#357,.T.);
#377=ADVANCED_FACE('',(#328),#27,.T.);
#378=ADVANCED_FACE('',(#329),#31,.T.);
#379=ADVANCED_FACE('',(#330),#32,.T.);
#380=ADVANCED_FACE('',(#331),#33,.T.);
#381=ADVANCED_FACE('',(#332),#358,.T.);
#382=ADVANCED_FACE('',(#333),#359,.T.);
#383=ADVANCED_FACE('',(#334),#360,.T.);
#384=ADVANCED_FACE('',(#335),#361,.T.);
#385=ADVANCED_FACE('',(#336,#337),#35,.F.);
#386=ADVANCED_FACE('',(#338,#339),#22,.F.);
#387=ADVANCED_FACE('',(#340,#341),#362,.F.);
#388=ADVANCED_FACE('',(#342,#343),#23,.F.);
#389=ADVANCED_FACE('',(#344,#345),#24,.F.);
#390=ADVANCED_FACE('',(#346,#347),#363,.F.);
#391=ADVANCED_FACE('',(#348,#349),#25,.F.);
#392=CLOSED_SHELL('',(#364,#365,#366,#367,#368,#369,#370,#371,#372,#373,
#374,#375,#376,#377,#378,#379,#380,#381,#382,#383,#384,#385,#386,#387,#388,
#389,#390,#391));
#393=STYLED_ITEM('',(#394),#401);
#394=PRESENTATION_STYLE_ASSIGNMENT((#395));
#395=SURFACE_STYLE_USAGE(.BOTH.,#396);
#396=SURFACE_SIDE_STYLE('',(#397));
#397=SURFACE_STYLE_FILL_AREA(#398);
#398=FILL_AREA_STYLE('',(#399));
#399=FILL_AREA_STYLE_COLOUR('',#400);
#400=COLOUR_RGB('',0.749019622802734,0.749019622802734,0.749019622802734);
#401=MANIFOLD_SOLID_BREP(
'Cabinet U-Handle, Stainless Steel GN 565.5-20-112-A-GS',#392);
#402=SHAPE_DEFINITION_REPRESENTATION(#734,#403);
#403=SHAPE_REPRESENTATION(
'Cabinet U-Handle, Stainless Steel GN 565.5-20-112-A-GS',(#404),#729);
#404=AXIS2_PLACEMENT_3D('',#617,#471,#472);
#405=AXIS2_PLACEMENT_3D('',#618,#473,#474);
#406=AXIS2_PLACEMENT_3D('',#619,#475,#476);
#407=AXIS2_PLACEMENT_3D('',#624,#478,#479);
#408=AXIS2_PLACEMENT_3D('',#627,#481,#482);
#409=AXIS2_PLACEMENT_3D('',#628,#483,#484);
#410=AXIS2_PLACEMENT_3D('',#632,#486,#487);
#411=AXIS2_PLACEMENT_3D('',#633,#488,#489);
#412=AXIS2_PLACEMENT_3D('',#634,#490,#491);
#413=AXIS2_PLACEMENT_3D('',#638,#493,#494);
#414=AXIS2_PLACEMENT_3D('',#639,#495,#496);
#415=AXIS2_PLACEMENT_3D('',#640,#497,#498);
#416=AXIS2_PLACEMENT_3D('',#641,#499,#500);
#417=AXIS2_PLACEMENT_3D('',#642,#501,#502);
#418=AXIS2_PLACEMENT_3D('',#643,#503,#504);
#419=AXIS2_PLACEMENT_3D('',#645,#505,#506);
#420=AXIS2_PLACEMENT_3D('',#646,#507,#508);
#421=AXIS2_PLACEMENT_3D('',#648,#509,#510);
#422=AXIS2_PLACEMENT_3D('',#650,#511,#512);
#423=AXIS2_PLACEMENT_3D('',#651,#513,#514);
#424=AXIS2_PLACEMENT_3D('',#652,#515,#516);
#425=AXIS2_PLACEMENT_3D('',#654,#517,#518);
#426=AXIS2_PLACEMENT_3D('',#655,#519,#520);
#427=AXIS2_PLACEMENT_3D('',#656,#521,#522);
#428=AXIS2_PLACEMENT_3D('',#658,#523,#524);
#429=AXIS2_PLACEMENT_3D('',#659,#525,#526);
#430=AXIS2_PLACEMENT_3D('',#660,#527,#528);
#431=AXIS2_PLACEMENT_3D('',#661,#529,#530);
#432=AXIS2_PLACEMENT_3D('',#664,#532,#533);
#433=AXIS2_PLACEMENT_3D('',#667,#535,#536);
#434=AXIS2_PLACEMENT_3D('',#670,#538,#539);
#435=AXIS2_PLACEMENT_3D('',#671,#540,#541);
#436=AXIS2_PLACEMENT_3D('',#674,#543,#544);
#437=AXIS2_PLACEMENT_3D('',#675,#545,#546);
#438=AXIS2_PLACEMENT_3D('',#676,#547,#548);
#439=AXIS2_PLACEMENT_3D('',#677,#549,#550);
#440=AXIS2_PLACEMENT_3D('',#678,#551,#552);
#441=AXIS2_PLACEMENT_3D('',#680,#553,#554);
#442=AXIS2_PLACEMENT_3D('',#682,#555,#556);
#443=AXIS2_PLACEMENT_3D('',#683,#557,#558);
#444=AXIS2_PLACEMENT_3D('',#684,#559,#560);
#445=AXIS2_PLACEMENT_3D('',#686,#561,#562);
#446=AXIS2_PLACEMENT_3D('',#687,#563,#564);
#447=AXIS2_PLACEMENT_3D('',#688,#565,#566);
#448=AXIS2_PLACEMENT_3D('',#690,#567,#568);
#449=AXIS2_PLACEMENT_3D('',#691,#569,#570);
#450=AXIS2_PLACEMENT_3D('',#692,#571,#572);
#451=AXIS2_PLACEMENT_3D('',#693,#573,#574);
#452=AXIS2_PLACEMENT_3D('',#694,#575,#576);
#453=AXIS2_PLACEMENT_3D('',#699,#579,#580);
#454=AXIS2_PLACEMENT_3D('',#700,#581,#582);
#455=AXIS2_PLACEMENT_3D('',#703,#584,#585);
#456=AXIS2_PLACEMENT_3D('',#704,#586,#587);
#457=AXIS2_PLACEMENT_3D('',#707,#589,#590);
#458=AXIS2_PLACEMENT_3D('',#708,#591,#592);
#459=AXIS2_PLACEMENT_3D('',#709,#593,#594);
#460=AXIS2_PLACEMENT_3D('',#710,#595,#596);
#461=AXIS2_PLACEMENT_3D('',#712,#597,#598);
#462=AXIS2_PLACEMENT_3D('',#713,#599,#600);
#463=AXIS2_PLACEMENT_3D('',#716,#601,#602);
#464=AXIS2_PLACEMENT_3D('',#717,#603,#604);
#465=AXIS2_PLACEMENT_3D('',#719,#605,#606);
#466=AXIS2_PLACEMENT_3D('',#720,#607,#608);
#467=AXIS2_PLACEMENT_3D('',#721,#609,#610);
#468=AXIS2_PLACEMENT_3D('',#724,#611,#612);
#469=AXIS2_PLACEMENT_3D('',#725,#613,#614);
#470=AXIS2_PLACEMENT_3D('',#727,#615,#616);
#471=DIRECTION('',(0.,0.,1.));
#472=DIRECTION('',(1.,0.,0.));
#473=DIRECTION('',(0.,-1.,0.));
#474=DIRECTION('',(0.,0.,-1.));
#475=DIRECTION('',(0.,1.,0.));
#476=DIRECTION('',(1.,0.,0.));
#477=DIRECTION('',(0.,-1.,0.));
#478=DIRECTION('',(0.,1.,0.));
#479=DIRECTION('',(1.,0.,0.));
#480=DIRECTION('',(0.,-1.,0.));
#481=DIRECTION('',(0.,-1.,0.));
#482=DIRECTION('',(0.,0.,-1.));
#483=DIRECTION('',(0.,1.,0.));
#484=DIRECTION('',(1.,0.,0.));
#485=DIRECTION('',(0.,-1.,0.));
#486=DIRECTION('',(0.,1.,0.));
#487=DIRECTION('',(1.,0.,0.));
#488=DIRECTION('',(0.,-1.,0.));
#489=DIRECTION('',(0.,0.,-1.));
#490=DIRECTION('',(0.,1.,0.));
#491=DIRECTION('',(1.,0.,0.));
#492=DIRECTION('',(0.,-1.,0.));
#493=DIRECTION('',(0.,1.,0.));
#494=DIRECTION('',(1.,0.,0.));
#495=DIRECTION('',(0.,-1.,0.));
#496=DIRECTION('',(0.,0.,-1.));
#497=DIRECTION('',(0.,1.,0.));
#498=DIRECTION('',(1.,0.,0.));
#499=DIRECTION('',(0.,1.,0.));
#500=DIRECTION('',(1.,0.,0.));
#501=DIRECTION('',(0.,1.,0.));
#502=DIRECTION('',(0.,0.,1.));
#503=DIRECTION('',(3.29511091452291E-17,-1.,0.));
#504=DIRECTION('',(1.,3.29511091452291E-17,0.));
#505=DIRECTION('',(0.,0.,-1.));
#506=DIRECTION('',(-1.,0.,0.));
#507=DIRECTION('',(0.,0.,-1.));
#508=DIRECTION('',(-1.,0.,0.));
#509=DIRECTION('',(1.,6.12323399573677E-17,0.));
#510=DIRECTION('',(6.12323399573677E-17,-1.,0.));
#511=DIRECTION('',(0.,0.,-1.));
#512=DIRECTION('',(-1.,0.,0.));
#513=DIRECTION('',(0.,0.,-1.));
#514=DIRECTION('',(-1.,0.,0.));
#515=DIRECTION('',(0.,0.,-1.));
#516=DIRECTION('',(-1.,0.,0.));
#517=DIRECTION('',(1.,6.12323399573677E-17,0.));
#518=DIRECTION('',(6.12323399573677E-17,-1.,0.));
#519=DIRECTION('',(0.,0.,-1.));
#520=DIRECTION('',(-1.,0.,0.));
#521=DIRECTION('',(0.,0.,-1.));
#522=DIRECTION('',(-1.,0.,0.));
#523=DIRECTION('',(1.,6.12323399573677E-17,0.));
#524=DIRECTION('',(6.12323399573677E-17,-1.,0.));
#525=DIRECTION('',(0.,0.,-1.));
#526=DIRECTION('',(-1.,0.,0.));
#527=DIRECTION('',(1.,6.12323399573677E-17,0.));
#528=DIRECTION('',(6.12323399573677E-17,-1.,0.));
#529=DIRECTION('',(-1.,0.,0.));
#530=DIRECTION('',(0.,0.,1.));
#531=DIRECTION('',(-1.,0.,0.));
#532=DIRECTION('',(1.,0.,0.));
#533=DIRECTION('',(0.,0.,-1.));
#534=DIRECTION('',(-1.,0.,0.));
#535=DIRECTION('',(-1.,0.,0.));
#536=DIRECTION('',(0.,0.,1.));
#537=DIRECTION('',(-1.,0.,0.));
#538=DIRECTION('',(1.,0.,0.));
#539=DIRECTION('',(0.,0.,-1.));
#540=DIRECTION('',(-1.,0.,0.));
#541=DIRECTION('',(0.,0.,1.));
#542=DIRECTION('',(-1.,0.,0.));
#543=DIRECTION('',(1.,0.,0.));
#544=DIRECTION('',(0.,0.,-1.));
#545=DIRECTION('',(-1.,0.,0.));
#546=DIRECTION('',(0.,0.,1.));
#547=DIRECTION('',(1.,0.,0.));
#548=DIRECTION('',(0.,0.,-1.));
#549=DIRECTION('',(0.,0.,-1.));
#550=DIRECTION('',(-1.,0.,0.));
#551=DIRECTION('',(0.,0.,-1.));
#552=DIRECTION('',(-1.,0.,0.));
#553=DIRECTION('',(6.12323399573677E-17,-1.,0.));
#554=DIRECTION('',(0.,0.,-1.));
#555=DIRECTION('',(0.,0.,-1.));
#556=DIRECTION('',(-1.,0.,0.));
#557=DIRECTION('',(0.,0.,-1.));
#558=DIRECTION('',(-1.,0.,0.));
#559=DIRECTION('',(0.,0.,-1.));
#560=DIRECTION('',(-1.,0.,0.));
#561=DIRECTION('',(6.12323399573677E-17,-1.,0.));
#562=DIRECTION('',(0.,0.,-1.));
#563=DIRECTION('',(0.,0.,-1.));
#564=DIRECTION('',(-1.,0.,0.));
#565=DIRECTION('',(0.,0.,-1.));
#566=DIRECTION('',(-1.,0.,0.));
#567=DIRECTION('',(6.12323399573677E-17,-1.,0.));
#568=DIRECTION('',(0.,0.,-1.));
#569=DIRECTION('',(0.,0.,-1.));
#570=DIRECTION('',(-1.,0.,0.));
#571=DIRECTION('',(6.12323399573677E-17,-1.,0.));
#572=DIRECTION('',(0.,0.,-1.));
#573=DIRECTION('',(0.,-1.,0.));
#574=DIRECTION('',(0.,0.,-1.));
#575=DIRECTION('',(0.,1.,0.));
#576=DIRECTION('',(1.,0.,0.));
#577=DIRECTION('',(0.,-1.,0.));
#578=DIRECTION('',(0.,-1.,0.));
#579=DIRECTION('',(0.,-1.,0.));
#580=DIRECTION('',(0.,0.,-1.));
#581=DIRECTION('',(0.,1.,0.));
#582=DIRECTION('',(1.,0.,0.));
#583=DIRECTION('',(0.,-1.,0.));
#584=DIRECTION('',(0.,-1.,0.));
#585=DIRECTION('',(0.,0.,-1.));
#586=DIRECTION('',(0.,1.,0.));
#587=DIRECTION('',(1.,0.,0.));
#588=DIRECTION('',(0.,-1.,0.));
#589=DIRECTION('',(0.,-1.,0.));
#590=DIRECTION('',(0.,0.,-1.));
#591=DIRECTION('',(0.,1.,0.));
#592=DIRECTION('',(1.,0.,0.));
#593=DIRECTION('',(0.,1.,0.));
#594=DIRECTION('',(0.,0.,1.));
#595=DIRECTION('',(0.,-1.,-3.29511091452291E-17));
#596=DIRECTION('',(0.,3.29511091452291E-17,-1.));
#597=DIRECTION('',(3.29511091452291E-17,-1.,0.));
#598=DIRECTION('',(1.,3.29511091452291E-17,0.));
#599=DIRECTION('',(3.29511091452291E-17,-1.,0.));
#600=DIRECTION('',(1.,3.29511091452291E-17,0.));
#601=DIRECTION('',(3.29511091452291E-17,-1.,0.));
#602=DIRECTION('',(1.,3.29511091452291E-17,0.));
#603=DIRECTION('',(3.29511091452291E-17,-1.,0.));
#604=DIRECTION('',(1.,3.29511091452291E-17,0.));
#605=DIRECTION('',(3.29511091452291E-17,-1.,0.));
#606=DIRECTION('',(1.,3.29511091452291E-17,0.));
#607=DIRECTION('',(0.,-1.,-3.29511091452291E-17));
#608=DIRECTION('',(0.,3.29511091452291E-17,-1.));
#609=DIRECTION('',(0.,-1.,-3.29511091452291E-17));
#610=DIRECTION('',(0.,3.29511091452291E-17,-1.));
#611=DIRECTION('',(0.,-1.,-3.29511091452291E-17));
#612=DIRECTION('',(0.,3.29511091452291E-17,-1.));
#613=DIRECTION('',(0.,-1.,-3.29511091452291E-17));
#614=DIRECTION('',(0.,3.29511091452291E-17,-1.));
#615=DIRECTION('',(0.,-1.,-3.29511091452291E-17));
#616=DIRECTION('',(0.,3.29511091452291E-17,-1.));
#617=CARTESIAN_POINT('',(0.,0.,0.));
#618=CARTESIAN_POINT('',(-8.67361737988404E-16,23.,-4.9747005773284));
#619=CARTESIAN_POINT('',(-8.67361737988404E-16,0.,-4.9747005773284));
#620=CARTESIAN_POINT('',(4.21343022093828,0.,-7.71343022093828));
#621=CARTESIAN_POINT('',(-4.21343022093829,0.,-7.71343022093828));
#622=CARTESIAN_POINT('',(-4.21343022093829,23.,-7.71343022093828));
#623=CARTESIAN_POINT('',(-4.21343022093829,23.,-7.71343022093828));
#624=CARTESIAN_POINT('',(-8.67361737988404E-16,23.,-4.9747005773284));
#625=CARTESIAN_POINT('',(4.21343022093828,23.,-7.71343022093828));
#626=CARTESIAN_POINT('',(4.21343022093828,23.,-7.71343022093828));
#627=CARTESIAN_POINT('',(7.65338550358215,23.,-8.67361737988404E-16));
#628=CARTESIAN_POINT('',(7.65338550358215,0.,-8.67361737988404E-16));
#629=CARTESIAN_POINT('',(-4.21343022093829,0.,7.71343022093828));
#630=CARTESIAN_POINT('',(-4.21343022093829,23.,7.71343022093828));
#631=CARTESIAN_POINT('',(-4.21343022093829,23.,7.71343022093828));
#632=CARTESIAN_POINT('',(7.65338550358215,23.,-8.67361737988404E-16));
#633=CARTESIAN_POINT('',(1.30104260698261E-15,23.,4.9747005773284));
#634=CARTESIAN_POINT('',(1.30104260698261E-15,0.,4.9747005773284));
#635=CARTESIAN_POINT('',(4.21343022093829,0.,7.71343022093828));
#636=CARTESIAN_POINT('',(4.21343022093829,23.,7.71343022093828));
#637=CARTESIAN_POINT('',(4.21343022093829,23.,7.71343022093828));
#638=CARTESIAN_POINT('',(1.30104260698261E-15,23.,4.9747005773284));
#639=CARTESIAN_POINT('',(-7.65338550358215,23.,1.30104260698261E-15));
#640=CARTESIAN_POINT('',(-7.65338550358215,0.,1.30104260698261E-15));
#641=CARTESIAN_POINT('',(-7.65338550358215,23.,1.30104260698261E-15));
#642=CARTESIAN_POINT('',(3.82669275179107,0.,-2.4873502886642));
#643=CARTESIAN_POINT('',(3.2573267817024E-33,-9.88533274356872E-17,0.));
#644=CARTESIAN_POINT('',(3.,0.,0.));
#645=CARTESIAN_POINT('',(19.5,23.,-4.9747005773284));
#646=CARTESIAN_POINT('',(19.5,23.,-7.71343022093828));
#647=CARTESIAN_POINT('',(19.5,46.7134302209383,-7.71343022093828));
#648=CARTESIAN_POINT('',(19.5,42.5,-4.9747005773284));
#649=CARTESIAN_POINT('',(19.5,38.2865697790617,-7.71343022093827));
#650=CARTESIAN_POINT('',(19.5,23.,-7.71343022093828));
#651=CARTESIAN_POINT('',(19.5,23.,-8.67361737988404E-16));
#652=CARTESIAN_POINT('',(19.5,23.,7.71343022093828));
#653=CARTESIAN_POINT('',(19.5,46.7134302209383,7.71343022093828));
#654=CARTESIAN_POINT('',(19.5,34.8466144964178,-8.67361737988404E-16));
#655=CARTESIAN_POINT('',(19.5,23.,4.9747005773284));
#656=CARTESIAN_POINT('',(19.5,23.,7.71343022093828));
#657=CARTESIAN_POINT('',(19.5,38.2865697790617,7.71343022093828));
#658=CARTESIAN_POINT('',(19.5,42.5,4.9747005773284));
#659=CARTESIAN_POINT('',(19.5,23.,1.30104260698261E-15));
#660=CARTESIAN_POINT('',(19.5,50.1533855035821,1.30104260698261E-15));
#661=CARTESIAN_POINT('',(92.5,34.8466144964179,9.54097911787244E-15));
#662=CARTESIAN_POINT('',(92.5,46.7134302209383,7.71343022093828));
#663=CARTESIAN_POINT('',(92.5,46.7134302209383,7.71343022093828));
#664=CARTESIAN_POINT('',(92.5,34.8466144964179,9.54097911787244E-15));
#665=CARTESIAN_POINT('',(92.5,46.7134303128164,-7.71343007958726));
#666=CARTESIAN_POINT('',(92.5,46.7134303128164,-7.71343007958726));
#667=CARTESIAN_POINT('',(92.5,42.5,4.9747005773284));
#668=CARTESIAN_POINT('',(92.5,38.2865698709399,7.71343036228931));
#669=CARTESIAN_POINT('',(92.5,38.2865698709399,7.71343036228931));
#670=CARTESIAN_POINT('',(92.5,42.5,4.9747005773284));
#671=CARTESIAN_POINT('',(92.5,50.1533855035821,-4.77048955893622E-15));
#672=CARTESIAN_POINT('',(92.5,38.2865697790617,-7.71343022093827));
#673=CARTESIAN_POINT('',(92.5,38.2865697790617,-7.71343022093827));
#674=CARTESIAN_POINT('',(92.5,50.1533855035821,-4.77048955893622E-15));
#675=CARTESIAN_POINT('',(92.5,42.5,-4.9747005773284));
#676=CARTESIAN_POINT('',(92.5,42.5,-4.9747005773284));
#677=CARTESIAN_POINT('',(92.5,23.,9.54097911787244E-15));
#678=CARTESIAN_POINT('',(92.5,23.,7.71343022093828));
#679=CARTESIAN_POINT('',(116.213430220938,23.,7.71343022093828));
#680=CARTESIAN_POINT('',(104.346614496418,23.,9.54097911787244E-15));
#681=CARTESIAN_POINT('',(116.213430220938,23.,-7.71343022093829));
#682=CARTESIAN_POINT('',(92.5,23.,-7.71343007958726));
#683=CARTESIAN_POINT('',(92.5,23.,4.9747005773284));
#684=CARTESIAN_POINT('',(92.5,23.,7.71343036228931));
#685=CARTESIAN_POINT('',(107.78656987094,23.,7.71343036228931));
#686=CARTESIAN_POINT('',(112.,23.,4.9747005773284));
#687=CARTESIAN_POINT('',(92.5,23.,-4.77048955893622E-15));
#688=CARTESIAN_POINT('',(92.5,23.,-7.71343022093827));
#689=CARTESIAN_POINT('',(107.786569779062,23.,-7.71343022093827));
#690=CARTESIAN_POINT('',(119.653385503582,23.,-4.77048955893622E-15));
#691=CARTESIAN_POINT('',(92.5,23.,-4.9747005773284));
#692=CARTESIAN_POINT('',(112.,23.,-4.9747005773284));
#693=CARTESIAN_POINT('',(112.,23.,-4.97470057732843));
#694=CARTESIAN_POINT('',(112.,0.,-4.97470057732843));
#695=CARTESIAN_POINT('',(116.213430220938,0.,-7.71343022093829));
#696=CARTESIAN_POINT('',(107.786569779062,0.,-7.71343022093829));
#697=CARTESIAN_POINT('',(107.786569779062,23.,-7.71343022093829));
#698=CARTESIAN_POINT('',(116.213430220938,23.,-7.71343022093829));
#699=CARTESIAN_POINT('',(119.653385503582,23.,-8.67361737988404E-16));
#700=CARTESIAN_POINT('',(119.653385503582,0.,-8.67361737988404E-16));
#701=CARTESIAN_POINT('',(107.786569779062,0.,7.71343022093829));
#702=CARTESIAN_POINT('',(107.786569779062,23.,7.71343022093829));
#703=CARTESIAN_POINT('',(112.,23.,4.97470057732843));
#704=CARTESIAN_POINT('',(112.,0.,4.97470057732843));
#705=CARTESIAN_POINT('',(116.213430220938,0.,7.71343022093829));
#706=CARTESIAN_POINT('',(116.213430220938,23.,7.71343022093829));
#707=CARTESIAN_POINT('',(104.346614496418,23.,-1.30104260698261E-15));
#708=CARTESIAN_POINT('',(104.346614496418,0.,-1.30104260698261E-15));
#709=CARTESIAN_POINT('',(115.826692751791,0.,-2.48735028866422));
#710=CARTESIAN_POINT('',(112.,-9.88533274356872E-17,-3.2573267817024E-33));
#711=CARTESIAN_POINT('',(112.,0.,-3.));
#712=CARTESIAN_POINT('',(-4.44089209850063E-16,13.4772158318793,0.));
#713=CARTESIAN_POINT('',(-3.95413309742749E-16,12.,0.));
#714=CARTESIAN_POINT('',(2.4585,12.,0.));
#715=CARTESIAN_POINT('',(-4.44089209850063E-16,13.4772158318793,0.));
#716=CARTESIAN_POINT('',(0.,0.,0.));
#717=CARTESIAN_POINT('',(-1.78430256021416E-17,0.5415,0.));
#718=CARTESIAN_POINT('',(2.4585,0.5415,0.));
#719=CARTESIAN_POINT('',(-1.78430256021416E-17,0.5415,0.));
#720=CARTESIAN_POINT('',(112.,13.4772158318793,4.44089209850063E-16));
#721=CARTESIAN_POINT('',(112.,12.,3.95413309742749E-16));
#722=CARTESIAN_POINT('',(112.,12.,-2.4585));
#723=CARTESIAN_POINT('',(112.,13.4772158318793,4.44089209850063E-16));
#724=CARTESIAN_POINT('',(112.,0.,0.));
#725=CARTESIAN_POINT('',(112.,0.5415,1.78430256021416E-17));
#726=CARTESIAN_POINT('',(112.,0.5415,-2.4585));
#727=CARTESIAN_POINT('',(112.,0.5415,1.78430256021416E-17));
#728=MECHANICAL_DESIGN_GEOMETRIC_PRESENTATION_REPRESENTATION('',(#393),
#729);
#729=(
GEOMETRIC_REPRESENTATION_CONTEXT(3)
GLOBAL_UNCERTAINTY_ASSIGNED_CONTEXT((#730))
GLOBAL_UNIT_ASSIGNED_CONTEXT((#733,#732,#731))
REPRESENTATION_CONTEXT(
'Cabinet U-Handle, Stainless Steel GN 565.5-20-112-A-GS',
'TOP_LEVEL_ASSEMBLY_PART')
);
#730=UNCERTAINTY_MEASURE_WITH_UNIT(LENGTH_MEASURE(1.E-5),#733,
'DISTANCE_ACCURACY_VALUE','Maximum Tolerance applied to model');
#731=(
NAMED_UNIT(*)
SI_UNIT($,.STERADIAN.)
SOLID_ANGLE_UNIT()
);
#732=(
NAMED_UNIT(*)
PLANE_ANGLE_UNIT()
SI_UNIT($,.RADIAN.)
);
#733=(
LENGTH_UNIT()
NAMED_UNIT(*)
SI_UNIT(.MILLI.,.METRE.)
);
#734=PRODUCT_DEFINITION_SHAPE('','',#735);
#735=PRODUCT_DEFINITION('','',#737,#736);
#736=PRODUCT_DEFINITION_CONTEXT('',#743,'design');
#737=PRODUCT_DEFINITION_FORMATION_WITH_SPECIFIED_SOURCE('','',#739,
 .NOT_KNOWN.);
#738=PRODUCT_RELATED_PRODUCT_CATEGORY('','',(#739));
#739=PRODUCT('Cabinet U-Handle, Stainless Steel GN 565.5-20-112-A-GS',
'Cabinet U-Handle, Stainless Steel GN 565.5-20-112-A-GS',
'Cabinet U-Handle, Stainless Steel GN 565.5-20-112-A-GS',(#741));
#740=PRODUCT_CATEGORY('','');
#741=PRODUCT_CONTEXT('',#743,'mechanical');
#742=APPLICATION_PROTOCOL_DEFINITION('international standard',
'automotive_design',2010,#743);
#743=APPLICATION_CONTEXT(
'core data for automotive mechanical design processes');
ENDSEC;
END-ISO-10303-21;
