ISO-10303-21;
HEADER;
/* Generated by software containing ST-Developer
 * from STEP Tools, Inc. (www.steptools.com) 
 */
/* OPTION: using custom renumber hook */

FILE_DESCRIPTION(
/* description */ ('STEP AP214'),
/* implementation_level */ '2;1');

FILE_NAME(
/* name */ 'Sheet Metal Hinge_ Steel GN 136-ST-30-30-B (0)',
/* time_stamp */ '2026-01-13T16:57:28+01:00',
/* author */ ('License CC BY-ND 4.0'),
/* organization */ ('CADENAS'),
/* preprocessor_version */ 'ST-DEVELOPER v20',
/* originating_system */ 'PARTsolutions',
/* authorisation */ '  ');

FILE_SCHEMA (('AUTOMOTIVE_DESIGN {1 0 10303 214 3 1 1}'));
ENDSEC;

DATA;
#10=PROPERTY_DEFINITION_REPRESENTATION(#14,#12);
#11=PROPERTY_DEFINITION_REPRESENTATION(#15,#13);
#12=REPRESENTATION('',(#16),#1286);
#13=REPRESENTATION('',(#17),#1286);
#14=PROPERTY_DEFINITION('pmi validation property','',#1295);
#15=PROPERTY_DEFINITION('pmi validation property','',#1295);
#16=VALUE_REPRESENTATION_ITEM('number of annotations',COUNT_MEASURE(0.));
#17=VALUE_REPRESENTATION_ITEM('number of views',COUNT_MEASURE(0.));
#18=CONTEXT_DEPENDENT_SHAPE_REPRESENTATION(#22,#1297);
#19=CONTEXT_DEPENDENT_SHAPE_REPRESENTATION(#23,#1299);
#20=NEXT_ASSEMBLY_USAGE_OCCURRENCE('NAUO1',
'Sheet Metal Hinge, Steel GN 136-ST-30-30-B_2',
'Sheet Metal Hinge, Steel GN 136-ST-30-30-B_2',#1300,#1301,'');
#21=NEXT_ASSEMBLY_USAGE_OCCURRENCE('NAUO2',
'Sheet Metal Hinge, Steel GN 136-ST-30-30-B_1',
'Sheet Metal Hinge, Steel GN 136-ST-30-30-B_1',#1300,#1302,'');
#22=(
REPRESENTATION_RELATIONSHIP(' ',' ',#773,#772)
REPRESENTATION_RELATIONSHIP_WITH_TRANSFORMATION(#24)
SHAPE_REPRESENTATION_RELATIONSHIP()
);
#23=(
REPRESENTATION_RELATIONSHIP(' ',' ',#774,#772)
REPRESENTATION_RELATIONSHIP_WITH_TRANSFORMATION(#25)
SHAPE_REPRESENTATION_RELATIONSHIP()
);
#24=ITEM_DEFINED_TRANSFORMATION(' ',' ',#775,#817);
#25=ITEM_DEFINED_TRANSFORMATION(' ',' ',#775,#852);
#26=SHAPE_REPRESENTATION_RELATIONSHIP('','',#773,#28);
#27=SHAPE_REPRESENTATION_RELATIONSHIP('','',#774,#29);
#28=ADVANCED_BREP_SHAPE_REPRESENTATION('',(#767),#1287);
#29=ADVANCED_BREP_SHAPE_REPRESENTATION('',(#768),#1288);
#30=VERTEX_LOOP('',#513);
#31=VERTEX_LOOP('',#514);
#32=DEGENERATE_TOROIDAL_SURFACE('',#813,0.127406742358234,2.25,.T.);
#33=DEGENERATE_TOROIDAL_SURFACE('',#814,0.127406742358231,2.25000000000001,
 .T.);
#34=CYLINDRICAL_SURFACE('',#787,3.);
#35=CYLINDRICAL_SURFACE('',#790,3.);
#36=CYLINDRICAL_SURFACE('',#804,1.99999999999999);
#37=CYLINDRICAL_SURFACE('',#805,1.99999999999999);
#38=CYLINDRICAL_SURFACE('',#812,1.5);
#39=CYLINDRICAL_SURFACE('',#815,1.6);
#40=CYLINDRICAL_SURFACE('',#816,1.6);
#41=CYLINDRICAL_SURFACE('',#819,3.);
#42=CYLINDRICAL_SURFACE('',#837,1.5);
#43=CYLINDRICAL_SURFACE('',#842,2.);
#44=CYLINDRICAL_SURFACE('',#845,1.);
#45=CYLINDRICAL_SURFACE('',#848,1.);
#46=CYLINDRICAL_SURFACE('',#849,2.);
#47=CYLINDRICAL_SURFACE('',#850,1.6);
#48=CYLINDRICAL_SURFACE('',#851,1.6);
#49=LINE('',#1079,#113);
#50=LINE('',#1082,#114);
#51=LINE('',#1086,#115);
#52=LINE('',#1090,#116);
#53=LINE('',#1092,#117);
#54=LINE('',#1094,#118);
#55=LINE('',#1096,#119);
#56=LINE('',#1098,#120);
#57=LINE('',#1100,#121);
#58=LINE('',#1102,#122);
#59=LINE('',#1108,#123);
#60=LINE('',#1113,#124);
#61=LINE('',#1115,#125);
#62=LINE('',#1117,#126);
#63=LINE('',#1119,#127);
#64=LINE('',#1121,#128);
#65=LINE('',#1123,#129);
#66=LINE('',#1125,#130);
#67=LINE('',#1129,#131);
#68=LINE('',#1130,#132);
#69=LINE('',#1136,#133);
#70=LINE('',#1140,#134);
#71=LINE('',#1144,#135);
#72=LINE('',#1146,#136);
#73=LINE('',#1148,#137);
#74=LINE('',#1150,#138);
#75=LINE('',#1152,#139);
#76=LINE('',#1154,#140);
#77=LINE('',#1156,#141);
#78=LINE('',#1158,#142);
#79=LINE('',#1161,#143);
#80=LINE('',#1164,#144);
#81=LINE('',#1166,#145);
#82=LINE('',#1167,#146);
#83=LINE('',#1189,#147);
#84=LINE('',#1192,#148);
#85=LINE('',#1194,#149);
#86=LINE('',#1196,#150);
#87=LINE('',#1200,#151);
#88=LINE('',#1208,#152);
#89=LINE('',#1212,#153);
#90=LINE('',#1214,#154);
#91=LINE('',#1218,#155);
#92=LINE('',#1222,#156);
#93=LINE('',#1224,#157);
#94=LINE('',#1228,#158);
#95=LINE('',#1230,#159);
#96=LINE('',#1232,#160);
#97=LINE('',#1234,#161);
#98=LINE('',#1240,#162);
#99=LINE('',#1243,#163);
#100=LINE('',#1245,#164);
#101=LINE('',#1249,#165);
#102=LINE('',#1251,#166);
#103=LINE('',#1256,#167);
#104=LINE('',#1258,#168);
#105=LINE('',#1265,#169);
#106=LINE('',#1266,#170);
#107=LINE('',#1268,#171);
#108=LINE('',#1269,#172);
#109=LINE('',#1272,#173);
#110=LINE('',#1274,#174);
#111=LINE('',#1277,#175);
#112=LINE('',#1279,#176);
#113=VECTOR('',#861,1000.);
#114=VECTOR('',#862,1000.);
#115=VECTOR('',#865,1000.);
#116=VECTOR('',#868,1000.);
#117=VECTOR('',#869,1000.);
#118=VECTOR('',#870,1000.);
#119=VECTOR('',#871,1000.);
#120=VECTOR('',#872,1000.);
#121=VECTOR('',#873,1000.);
#122=VECTOR('',#874,1000.);
#123=VECTOR('',#881,1000.);
#124=VECTOR('',#884,1000.);
#125=VECTOR('',#885,1000.);
#126=VECTOR('',#886,1000.);
#127=VECTOR('',#887,1000.);
#128=VECTOR('',#888,1000.);
#129=VECTOR('',#889,1000.);
#130=VECTOR('',#890,1000.);
#131=VECTOR('',#895,1000.);
#132=VECTOR('',#896,1000.);
#133=VECTOR('',#903,1000.);
#134=VECTOR('',#908,1000.);
#135=VECTOR('',#913,1000.);
#136=VECTOR('',#914,1000.);
#137=VECTOR('',#915,1000.);
#138=VECTOR('',#916,1000.);
#139=VECTOR('',#919,1000.);
#140=VECTOR('',#920,1000.);
#141=VECTOR('',#921,1000.);
#142=VECTOR('',#922,1000.);
#143=VECTOR('',#927,1000.);
#144=VECTOR('',#932,1000.);
#145=VECTOR('',#935,1000.);
#146=VECTOR('',#936,1000.);
#147=VECTOR('',#975,1000.);
#148=VECTOR('',#976,1000.);
#149=VECTOR('',#977,1000.);
#150=VECTOR('',#978,1000.);
#151=VECTOR('',#983,1000.);
#152=VECTOR('',#992,1000.);
#153=VECTOR('',#995,1000.);
#154=VECTOR('',#996,1000.);
#155=VECTOR('',#999,1000.);
#156=VECTOR('',#1002,1000.);
#157=VECTOR('',#1003,1000.);
#158=VECTOR('',#1006,1000.);
#159=VECTOR('',#1009,1000.);
#160=VECTOR('',#1010,1000.);
#161=VECTOR('',#1011,1000.);
#162=VECTOR('',#1018,1000.);
#163=VECTOR('',#1019,1000.);
#164=VECTOR('',#1020,1000.);
#165=VECTOR('',#1023,1000.);
#166=VECTOR('',#1024,1000.);
#167=VECTOR('',#1029,1000.);
#168=VECTOR('',#1030,1000.);
#169=VECTOR('',#1041,1000.);
#170=VECTOR('',#1042,1000.);
#171=VECTOR('',#1045,1000.);
#172=VECTOR('',#1046,1000.);
#173=VECTOR('',#1051,1000.);
#174=VECTOR('',#1054,1000.);
#175=VECTOR('',#1059,1000.);
#176=VECTOR('',#1062,1000.);
#177=ORIENTED_EDGE('',*,*,#377,.T.);
#178=ORIENTED_EDGE('',*,*,#378,.T.);
#179=ORIENTED_EDGE('',*,*,#379,.T.);
#180=ORIENTED_EDGE('',*,*,#380,.T.);
#181=ORIENTED_EDGE('',*,*,#381,.T.);
#182=ORIENTED_EDGE('',*,*,#382,.F.);
#183=ORIENTED_EDGE('',*,*,#383,.T.);
#184=ORIENTED_EDGE('',*,*,#384,.F.);
#185=ORIENTED_EDGE('',*,*,#385,.F.);
#186=ORIENTED_EDGE('',*,*,#386,.T.);
#187=ORIENTED_EDGE('',*,*,#387,.F.);
#188=ORIENTED_EDGE('',*,*,#388,.F.);
#189=ORIENTED_EDGE('',*,*,#389,.F.);
#190=ORIENTED_EDGE('',*,*,#390,.T.);
#191=ORIENTED_EDGE('',*,*,#391,.F.);
#192=ORIENTED_EDGE('',*,*,#392,.F.);
#193=ORIENTED_EDGE('',*,*,#393,.T.);
#194=ORIENTED_EDGE('',*,*,#394,.T.);
#195=ORIENTED_EDGE('',*,*,#395,.T.);
#196=ORIENTED_EDGE('',*,*,#396,.F.);
#197=ORIENTED_EDGE('',*,*,#397,.F.);
#198=ORIENTED_EDGE('',*,*,#398,.F.);
#199=ORIENTED_EDGE('',*,*,#399,.F.);
#200=ORIENTED_EDGE('',*,*,#400,.F.);
#201=ORIENTED_EDGE('',*,*,#401,.F.);
#202=ORIENTED_EDGE('',*,*,#402,.T.);
#203=ORIENTED_EDGE('',*,*,#403,.T.);
#204=ORIENTED_EDGE('',*,*,#393,.F.);
#205=ORIENTED_EDGE('',*,*,#404,.F.);
#206=ORIENTED_EDGE('',*,*,#382,.T.);
#207=ORIENTED_EDGE('',*,*,#405,.F.);
#208=ORIENTED_EDGE('',*,*,#396,.T.);
#209=ORIENTED_EDGE('',*,*,#406,.T.);
#210=ORIENTED_EDGE('',*,*,#407,.F.);
#211=ORIENTED_EDGE('',*,*,#408,.F.);
#212=ORIENTED_EDGE('',*,*,#409,.F.);
#213=ORIENTED_EDGE('',*,*,#410,.F.);
#214=ORIENTED_EDGE('',*,*,#400,.T.);
#215=ORIENTED_EDGE('',*,*,#411,.F.);
#216=ORIENTED_EDGE('',*,*,#407,.T.);
#217=ORIENTED_EDGE('',*,*,#412,.T.);
#218=ORIENTED_EDGE('',*,*,#413,.T.);
#219=ORIENTED_EDGE('',*,*,#414,.F.);
#220=ORIENTED_EDGE('',*,*,#415,.F.);
#221=ORIENTED_EDGE('',*,*,#416,.F.);
#222=ORIENTED_EDGE('',*,*,#417,.F.);
#223=ORIENTED_EDGE('',*,*,#418,.F.);
#224=ORIENTED_EDGE('',*,*,#409,.T.);
#225=ORIENTED_EDGE('',*,*,#419,.F.);
#226=ORIENTED_EDGE('',*,*,#384,.T.);
#227=ORIENTED_EDGE('',*,*,#420,.F.);
#228=ORIENTED_EDGE('',*,*,#401,.T.);
#229=ORIENTED_EDGE('',*,*,#410,.T.);
#230=ORIENTED_EDGE('',*,*,#418,.T.);
#231=ORIENTED_EDGE('',*,*,#380,.F.);
#232=ORIENTED_EDGE('',*,*,#421,.T.);
#233=ORIENTED_EDGE('',*,*,#412,.F.);
#234=ORIENTED_EDGE('',*,*,#406,.F.);
#235=ORIENTED_EDGE('',*,*,#395,.F.);
#236=ORIENTED_EDGE('',*,*,#422,.T.);
#237=ORIENTED_EDGE('',*,*,#388,.T.);
#238=ORIENTED_EDGE('',*,*,#423,.T.);
#239=ORIENTED_EDGE('',*,*,#398,.T.);
#240=ORIENTED_EDGE('',*,*,#424,.F.);
#241=ORIENTED_EDGE('',*,*,#389,.T.);
#242=ORIENTED_EDGE('',*,*,#424,.T.);
#243=ORIENTED_EDGE('',*,*,#397,.T.);
#244=ORIENTED_EDGE('',*,*,#405,.T.);
#245=ORIENTED_EDGE('',*,*,#411,.T.);
#246=ORIENTED_EDGE('',*,*,#425,.F.);
#247=ORIENTED_EDGE('',*,*,#387,.T.);
#248=ORIENTED_EDGE('',*,*,#426,.F.);
#249=ORIENTED_EDGE('',*,*,#415,.T.);
#250=ORIENTED_EDGE('',*,*,#408,.T.);
#251=ORIENTED_EDGE('',*,*,#399,.T.);
#252=ORIENTED_EDGE('',*,*,#423,.F.);
#253=ORIENTED_EDGE('',*,*,#422,.F.);
#254=ORIENTED_EDGE('',*,*,#394,.F.);
#255=ORIENTED_EDGE('',*,*,#403,.F.);
#256=ORIENTED_EDGE('',*,*,#381,.F.);
#257=ORIENTED_EDGE('',*,*,#404,.T.);
#258=ORIENTED_EDGE('',*,*,#402,.F.);
#259=ORIENTED_EDGE('',*,*,#420,.T.);
#260=ORIENTED_EDGE('',*,*,#383,.F.);
#261=ORIENTED_EDGE('',*,*,#427,.F.);
#262=ORIENTED_EDGE('',*,*,#379,.F.);
#263=ORIENTED_EDGE('',*,*,#428,.T.);
#264=ORIENTED_EDGE('',*,*,#413,.F.);
#265=ORIENTED_EDGE('',*,*,#429,.F.);
#266=ORIENTED_EDGE('',*,*,#385,.T.);
#267=ORIENTED_EDGE('',*,*,#430,.T.);
#268=ORIENTED_EDGE('',*,*,#417,.T.);
#269=ORIENTED_EDGE('',*,*,#425,.T.);
#270=ORIENTED_EDGE('',*,*,#414,.T.);
#271=ORIENTED_EDGE('',*,*,#428,.F.);
#272=ORIENTED_EDGE('',*,*,#390,.F.);
#273=ORIENTED_EDGE('',*,*,#426,.T.);
#274=ORIENTED_EDGE('',*,*,#386,.F.);
#275=ORIENTED_EDGE('',*,*,#429,.T.);
#276=ORIENTED_EDGE('',*,*,#416,.T.);
#277=ORIENTED_EDGE('',*,*,#430,.F.);
#278=ORIENTED_EDGE('',*,*,#419,.T.);
#279=ORIENTED_EDGE('',*,*,#421,.F.);
#280=ORIENTED_EDGE('',*,*,#427,.T.);
#281=ORIENTED_EDGE('',*,*,#392,.T.);
#282=ORIENTED_EDGE('',*,*,#378,.F.);
#283=ORIENTED_EDGE('',*,*,#391,.T.);
#284=ORIENTED_EDGE('',*,*,#377,.F.);
#285=ORIENTED_EDGE('',*,*,#431,.F.);
#286=ORIENTED_EDGE('',*,*,#432,.F.);
#287=ORIENTED_EDGE('',*,*,#433,.F.);
#288=ORIENTED_EDGE('',*,*,#434,.T.);
#289=ORIENTED_EDGE('',*,*,#435,.F.);
#290=ORIENTED_EDGE('',*,*,#436,.F.);
#291=ORIENTED_EDGE('',*,*,#437,.F.);
#292=ORIENTED_EDGE('',*,*,#432,.T.);
#293=ORIENTED_EDGE('',*,*,#438,.F.);
#294=ORIENTED_EDGE('',*,*,#439,.F.);
#295=ORIENTED_EDGE('',*,*,#440,.F.);
#296=ORIENTED_EDGE('',*,*,#441,.F.);
#297=ORIENTED_EDGE('',*,*,#442,.F.);
#298=ORIENTED_EDGE('',*,*,#443,.T.);
#299=ORIENTED_EDGE('',*,*,#444,.T.);
#300=ORIENTED_EDGE('',*,*,#445,.F.);
#301=ORIENTED_EDGE('',*,*,#446,.T.);
#302=ORIENTED_EDGE('',*,*,#447,.F.);
#303=ORIENTED_EDGE('',*,*,#448,.F.);
#304=ORIENTED_EDGE('',*,*,#449,.F.);
#305=ORIENTED_EDGE('',*,*,#450,.F.);
#306=ORIENTED_EDGE('',*,*,#436,.T.);
#307=ORIENTED_EDGE('',*,*,#445,.T.);
#308=ORIENTED_EDGE('',*,*,#451,.F.);
#309=ORIENTED_EDGE('',*,*,#452,.F.);
#310=ORIENTED_EDGE('',*,*,#453,.T.);
#311=ORIENTED_EDGE('',*,*,#454,.T.);
#312=ORIENTED_EDGE('',*,*,#455,.T.);
#313=ORIENTED_EDGE('',*,*,#456,.F.);
#314=ORIENTED_EDGE('',*,*,#457,.F.);
#315=ORIENTED_EDGE('',*,*,#458,.F.);
#316=ORIENTED_EDGE('',*,*,#459,.F.);
#317=ORIENTED_EDGE('',*,*,#460,.F.);
#318=ORIENTED_EDGE('',*,*,#461,.F.);
#319=ORIENTED_EDGE('',*,*,#462,.T.);
#320=ORIENTED_EDGE('',*,*,#452,.T.);
#321=ORIENTED_EDGE('',*,*,#463,.T.);
#322=ORIENTED_EDGE('',*,*,#464,.T.);
#323=ORIENTED_EDGE('',*,*,#465,.F.);
#324=ORIENTED_EDGE('',*,*,#466,.F.);
#325=ORIENTED_EDGE('',*,*,#457,.T.);
#326=ORIENTED_EDGE('',*,*,#467,.T.);
#327=ORIENTED_EDGE('',*,*,#434,.F.);
#328=ORIENTED_EDGE('',*,*,#468,.T.);
#329=ORIENTED_EDGE('',*,*,#447,.T.);
#330=ORIENTED_EDGE('',*,*,#469,.T.);
#331=ORIENTED_EDGE('',*,*,#461,.T.);
#332=ORIENTED_EDGE('',*,*,#470,.T.);
#333=ORIENTED_EDGE('',*,*,#471,.F.);
#334=ORIENTED_EDGE('',*,*,#464,.F.);
#335=ORIENTED_EDGE('',*,*,#472,.F.);
#336=ORIENTED_EDGE('',*,*,#443,.F.);
#337=ORIENTED_EDGE('',*,*,#472,.T.);
#338=ORIENTED_EDGE('',*,*,#463,.F.);
#339=ORIENTED_EDGE('',*,*,#451,.T.);
#340=ORIENTED_EDGE('',*,*,#444,.F.);
#341=ORIENTED_EDGE('',*,*,#440,.T.);
#342=ORIENTED_EDGE('',*,*,#435,.T.);
#343=ORIENTED_EDGE('',*,*,#431,.T.);
#344=ORIENTED_EDGE('',*,*,#467,.F.);
#345=ORIENTED_EDGE('',*,*,#456,.T.);
#346=ORIENTED_EDGE('',*,*,#473,.T.);
#347=ORIENTED_EDGE('',*,*,#442,.T.);
#348=ORIENTED_EDGE('',*,*,#474,.F.);
#349=ORIENTED_EDGE('',*,*,#465,.T.);
#350=ORIENTED_EDGE('',*,*,#471,.T.);
#351=ORIENTED_EDGE('',*,*,#441,.T.);
#352=ORIENTED_EDGE('',*,*,#473,.F.);
#353=ORIENTED_EDGE('',*,*,#466,.T.);
#354=ORIENTED_EDGE('',*,*,#474,.T.);
#355=ORIENTED_EDGE('',*,*,#448,.T.);
#356=ORIENTED_EDGE('',*,*,#470,.F.);
#357=ORIENTED_EDGE('',*,*,#460,.T.);
#358=ORIENTED_EDGE('',*,*,#475,.T.);
#359=ORIENTED_EDGE('',*,*,#450,.T.);
#360=ORIENTED_EDGE('',*,*,#476,.F.);
#361=ORIENTED_EDGE('',*,*,#458,.T.);
#362=ORIENTED_EDGE('',*,*,#468,.F.);
#363=ORIENTED_EDGE('',*,*,#433,.T.);
#364=ORIENTED_EDGE('',*,*,#437,.T.);
#365=ORIENTED_EDGE('',*,*,#449,.T.);
#366=ORIENTED_EDGE('',*,*,#475,.F.);
#367=ORIENTED_EDGE('',*,*,#459,.T.);
#368=ORIENTED_EDGE('',*,*,#476,.T.);
#369=ORIENTED_EDGE('',*,*,#453,.F.);
#370=ORIENTED_EDGE('',*,*,#462,.F.);
#371=ORIENTED_EDGE('',*,*,#469,.F.);
#372=ORIENTED_EDGE('',*,*,#446,.F.);
#373=ORIENTED_EDGE('',*,*,#439,.T.);
#374=ORIENTED_EDGE('',*,*,#455,.F.);
#375=ORIENTED_EDGE('',*,*,#438,.T.);
#376=ORIENTED_EDGE('',*,*,#454,.F.);
#377=EDGE_CURVE('',#477,#477,#547,.T.);
#378=EDGE_CURVE('',#478,#478,#548,.T.);
#379=EDGE_CURVE('',#479,#480,#49,.T.);
#380=EDGE_CURVE('',#480,#481,#50,.T.);
#381=EDGE_CURVE('',#481,#482,#549,.F.);
#382=EDGE_CURVE('',#483,#482,#51,.T.);
#383=EDGE_CURVE('',#483,#484,#550,.F.);
#384=EDGE_CURVE('',#485,#484,#52,.T.);
#385=EDGE_CURVE('',#486,#485,#53,.T.);
#386=EDGE_CURVE('',#486,#487,#54,.T.);
#387=EDGE_CURVE('',#488,#487,#55,.T.);
#388=EDGE_CURVE('',#489,#488,#56,.T.);
#389=EDGE_CURVE('',#490,#489,#57,.T.);
#390=EDGE_CURVE('',#490,#479,#58,.T.);
#391=EDGE_CURVE('',#491,#491,#551,.T.);
#392=EDGE_CURVE('',#492,#492,#552,.T.);
#393=EDGE_CURVE('',#493,#494,#59,.T.);
#394=EDGE_CURVE('',#494,#495,#553,.F.);
#395=EDGE_CURVE('',#495,#496,#60,.T.);
#396=EDGE_CURVE('',#497,#496,#61,.T.);
#397=EDGE_CURVE('',#498,#497,#62,.T.);
#398=EDGE_CURVE('',#499,#498,#63,.T.);
#399=EDGE_CURVE('',#500,#499,#64,.T.);
#400=EDGE_CURVE('',#501,#500,#65,.T.);
#401=EDGE_CURVE('',#502,#501,#66,.T.);
#402=EDGE_CURVE('',#502,#493,#554,.F.);
#403=EDGE_CURVE('',#482,#494,#67,.T.);
#404=EDGE_CURVE('',#483,#493,#68,.T.);
#405=EDGE_CURVE('',#497,#503,#555,.T.);
#406=EDGE_CURVE('',#496,#504,#556,.T.);
#407=EDGE_CURVE('',#503,#504,#69,.T.);
#408=EDGE_CURVE('',#505,#500,#557,.T.);
#409=EDGE_CURVE('',#506,#505,#70,.T.);
#410=EDGE_CURVE('',#501,#506,#558,.T.);
#411=EDGE_CURVE('',#503,#507,#71,.T.);
#412=EDGE_CURVE('',#504,#508,#72,.T.);
#413=EDGE_CURVE('',#508,#509,#73,.T.);
#414=EDGE_CURVE('',#507,#509,#74,.T.);
#415=EDGE_CURVE('',#510,#505,#75,.T.);
#416=EDGE_CURVE('',#511,#510,#76,.T.);
#417=EDGE_CURVE('',#512,#511,#77,.T.);
#418=EDGE_CURVE('',#506,#512,#78,.T.);
#419=EDGE_CURVE('',#485,#512,#559,.T.);
#420=EDGE_CURVE('',#502,#484,#79,.F.);
#421=EDGE_CURVE('',#480,#508,#560,.T.);
#422=EDGE_CURVE('',#495,#481,#80,.F.);
#423=EDGE_CURVE('',#488,#499,#81,.T.);
#424=EDGE_CURVE('',#489,#498,#82,.T.);
#425=EDGE_CURVE('',#490,#507,#561,.T.);
#426=EDGE_CURVE('',#510,#487,#562,.T.);
#427=EDGE_CURVE('',#480,#508,#563,.T.);
#428=EDGE_CURVE('',#479,#509,#564,.T.);
#429=EDGE_CURVE('',#486,#511,#565,.T.);
#430=EDGE_CURVE('',#485,#512,#566,.T.);
#431=EDGE_CURVE('',#515,#516,#83,.T.);
#432=EDGE_CURVE('',#517,#515,#84,.T.);
#433=EDGE_CURVE('',#518,#517,#85,.T.);
#434=EDGE_CURVE('',#518,#516,#86,.T.);
#435=EDGE_CURVE('',#519,#515,#567,.T.);
#436=EDGE_CURVE('',#520,#519,#87,.T.);
#437=EDGE_CURVE('',#517,#520,#568,.T.);
#438=EDGE_CURVE('',#521,#521,#569,.T.);
#439=EDGE_CURVE('',#522,#522,#570,.T.);
#440=EDGE_CURVE('',#523,#519,#88,.T.);
#441=EDGE_CURVE('',#524,#523,#571,.F.);
#442=EDGE_CURVE('',#525,#524,#89,.T.);
#443=EDGE_CURVE('',#525,#526,#90,.T.);
#444=EDGE_CURVE('',#526,#527,#572,.F.);
#445=EDGE_CURVE('',#528,#527,#91,.T.);
#446=EDGE_CURVE('',#528,#529,#573,.F.);
#447=EDGE_CURVE('',#530,#529,#92,.T.);
#448=EDGE_CURVE('',#531,#530,#93,.T.);
#449=EDGE_CURVE('',#532,#531,#574,.F.);
#450=EDGE_CURVE('',#520,#532,#94,.T.);
#451=EDGE_CURVE('',#533,#527,#95,.T.);
#452=EDGE_CURVE('',#534,#533,#96,.T.);
#453=EDGE_CURVE('',#534,#528,#97,.T.);
#454=EDGE_CURVE('',#535,#535,#575,.T.);
#455=EDGE_CURVE('',#536,#536,#576,.T.);
#456=EDGE_CURVE('',#537,#538,#98,.T.);
#457=EDGE_CURVE('',#539,#537,#99,.T.);
#458=EDGE_CURVE('',#540,#539,#100,.T.);
#459=EDGE_CURVE('',#541,#540,#577,.F.);
#460=EDGE_CURVE('',#542,#541,#101,.T.);
#461=EDGE_CURVE('',#543,#542,#102,.T.);
#462=EDGE_CURVE('',#543,#534,#578,.F.);
#463=EDGE_CURVE('',#533,#544,#579,.F.);
#464=EDGE_CURVE('',#544,#545,#103,.T.);
#465=EDGE_CURVE('',#546,#545,#104,.T.);
#466=EDGE_CURVE('',#538,#546,#580,.F.);
#467=EDGE_CURVE('',#537,#516,#581,.T.);
#468=EDGE_CURVE('',#518,#539,#582,.T.);
#469=EDGE_CURVE('',#529,#543,#105,.F.);
#470=EDGE_CURVE('',#542,#530,#106,.T.);
#471=EDGE_CURVE('',#545,#525,#107,.T.);
#472=EDGE_CURVE('',#526,#544,#108,.F.);
#473=EDGE_CURVE('',#538,#523,#109,.T.);
#474=EDGE_CURVE('',#546,#524,#110,.T.);
#475=EDGE_CURVE('',#541,#531,#111,.T.);
#476=EDGE_CURVE('',#540,#532,#112,.T.);
#477=VERTEX_POINT('',#1076);
#478=VERTEX_POINT('',#1078);
#479=VERTEX_POINT('',#1080);
#480=VERTEX_POINT('',#1081);
#481=VERTEX_POINT('',#1083);
#482=VERTEX_POINT('',#1085);
#483=VERTEX_POINT('',#1087);
#484=VERTEX_POINT('',#1089);
#485=VERTEX_POINT('',#1091);
#486=VERTEX_POINT('',#1093);
#487=VERTEX_POINT('',#1095);
#488=VERTEX_POINT('',#1097);
#489=VERTEX_POINT('',#1099);
#490=VERTEX_POINT('',#1101);
#491=VERTEX_POINT('',#1105);
#492=VERTEX_POINT('',#1107);
#493=VERTEX_POINT('',#1109);
#494=VERTEX_POINT('',#1110);
#495=VERTEX_POINT('',#1112);
#496=VERTEX_POINT('',#1114);
#497=VERTEX_POINT('',#1116);
#498=VERTEX_POINT('',#1118);
#499=VERTEX_POINT('',#1120);
#500=VERTEX_POINT('',#1122);
#501=VERTEX_POINT('',#1124);
#502=VERTEX_POINT('',#1126);
#503=VERTEX_POINT('',#1133);
#504=VERTEX_POINT('',#1135);
#505=VERTEX_POINT('',#1139);
#506=VERTEX_POINT('',#1141);
#507=VERTEX_POINT('',#1145);
#508=VERTEX_POINT('',#1147);
#509=VERTEX_POINT('',#1149);
#510=VERTEX_POINT('',#1153);
#511=VERTEX_POINT('',#1155);
#512=VERTEX_POINT('',#1157);
#513=VERTEX_POINT('',#1182);
#514=VERTEX_POINT('',#1184);
#515=VERTEX_POINT('',#1190);
#516=VERTEX_POINT('',#1191);
#517=VERTEX_POINT('',#1193);
#518=VERTEX_POINT('',#1195);
#519=VERTEX_POINT('',#1199);
#520=VERTEX_POINT('',#1201);
#521=VERTEX_POINT('',#1205);
#522=VERTEX_POINT('',#1207);
#523=VERTEX_POINT('',#1209);
#524=VERTEX_POINT('',#1211);
#525=VERTEX_POINT('',#1213);
#526=VERTEX_POINT('',#1215);
#527=VERTEX_POINT('',#1217);
#528=VERTEX_POINT('',#1219);
#529=VERTEX_POINT('',#1221);
#530=VERTEX_POINT('',#1223);
#531=VERTEX_POINT('',#1225);
#532=VERTEX_POINT('',#1227);
#533=VERTEX_POINT('',#1231);
#534=VERTEX_POINT('',#1233);
#535=VERTEX_POINT('',#1237);
#536=VERTEX_POINT('',#1239);
#537=VERTEX_POINT('',#1241);
#538=VERTEX_POINT('',#1242);
#539=VERTEX_POINT('',#1244);
#540=VERTEX_POINT('',#1246);
#541=VERTEX_POINT('',#1248);
#542=VERTEX_POINT('',#1250);
#543=VERTEX_POINT('',#1252);
#544=VERTEX_POINT('',#1255);
#545=VERTEX_POINT('',#1257);
#546=VERTEX_POINT('',#1259);
#547=CIRCLE('',#777,1.6);
#548=CIRCLE('',#778,1.6);
#549=CIRCLE('',#779,1.99999999999999);
#550=CIRCLE('',#780,1.99999999999999);
#551=CIRCLE('',#782,1.6);
#552=CIRCLE('',#783,1.6);
#553=CIRCLE('',#784,1.99999999999999);
#554=CIRCLE('',#785,1.99999999999999);
#555=CIRCLE('',#788,3.);
#556=CIRCLE('',#789,3.);
#557=CIRCLE('',#791,3.);
#558=CIRCLE('',#792,3.);
#559=CIRCLE('',#796,2.25);
#560=CIRCLE('',#798,2.25);
#561=CIRCLE('',#801,1.5);
#562=CIRCLE('',#803,1.5);
#563=CIRCLE('',#807,2.25);
#564=CIRCLE('',#808,1.5);
#565=CIRCLE('',#810,1.5);
#566=CIRCLE('',#811,2.25);
#567=CIRCLE('',#820,3.);
#568=CIRCLE('',#821,3.);
#569=CIRCLE('',#823,1.6);
#570=CIRCLE('',#824,1.6);
#571=CIRCLE('',#825,1.);
#572=CIRCLE('',#826,2.);
#573=CIRCLE('',#827,2.);
#574=CIRCLE('',#828,1.);
#575=CIRCLE('',#831,1.6);
#576=CIRCLE('',#832,1.6);
#577=CIRCLE('',#833,1.);
#578=CIRCLE('',#834,2.);
#579=CIRCLE('',#835,2.);
#580=CIRCLE('',#836,1.);
#581=CIRCLE('',#838,1.5);
#582=CIRCLE('',#839,1.5);
#583=EDGE_LOOP('',(#177));
#584=EDGE_LOOP('',(#178));
#585=EDGE_LOOP('',(#179,#180,#181,#182,#183,#184,#185,#186,#187,#188,#189,
#190));
#586=EDGE_LOOP('',(#191));
#587=EDGE_LOOP('',(#192));
#588=EDGE_LOOP('',(#193,#194,#195,#196,#197,#198,#199,#200,#201,#202));
#589=EDGE_LOOP('',(#203,#204,#205,#206));
#590=EDGE_LOOP('',(#207,#208,#209,#210));
#591=EDGE_LOOP('',(#211,#212,#213,#214));
#592=EDGE_LOOP('',(#215,#216,#217,#218,#219));
#593=EDGE_LOOP('',(#220,#221,#222,#223,#224));
#594=EDGE_LOOP('',(#225,#226,#227,#228,#229,#230));
#595=EDGE_LOOP('',(#231,#232,#233,#234,#235,#236));
#596=EDGE_LOOP('',(#237,#238,#239,#240));
#597=EDGE_LOOP('',(#241,#242,#243,#244,#245,#246));
#598=EDGE_LOOP('',(#247,#248,#249,#250,#251,#252));
#599=EDGE_LOOP('',(#253,#254,#255,#256));
#600=EDGE_LOOP('',(#257,#258,#259,#260));
#601=EDGE_LOOP('',(#261,#262,#263,#264));
#602=EDGE_LOOP('',(#265,#266,#267,#268));
#603=EDGE_LOOP('',(#269,#270,#271,#272));
#604=EDGE_LOOP('',(#273,#274,#275,#276));
#605=EDGE_LOOP('',(#277,#278));
#606=EDGE_LOOP('',(#279,#280));
#607=EDGE_LOOP('',(#281));
#608=EDGE_LOOP('',(#282));
#609=EDGE_LOOP('',(#283));
#610=EDGE_LOOP('',(#284));
#611=EDGE_LOOP('',(#285,#286,#287,#288));
#612=EDGE_LOOP('',(#289,#290,#291,#292));
#613=EDGE_LOOP('',(#293));
#614=EDGE_LOOP('',(#294));
#615=EDGE_LOOP('',(#295,#296,#297,#298,#299,#300,#301,#302,#303,#304,#305,
#306));
#616=EDGE_LOOP('',(#307,#308,#309,#310));
#617=EDGE_LOOP('',(#311));
#618=EDGE_LOOP('',(#312));
#619=EDGE_LOOP('',(#313,#314,#315,#316,#317,#318,#319,#320,#321,#322,#323,
#324));
#620=EDGE_LOOP('',(#325,#326,#327,#328));
#621=EDGE_LOOP('',(#329,#330,#331,#332));
#622=EDGE_LOOP('',(#333,#334,#335,#336));
#623=EDGE_LOOP('',(#337,#338,#339,#340));
#624=EDGE_LOOP('',(#341,#342,#343,#344,#345,#346));
#625=EDGE_LOOP('',(#347,#348,#349,#350));
#626=EDGE_LOOP('',(#351,#352,#353,#354));
#627=EDGE_LOOP('',(#355,#356,#357,#358));
#628=EDGE_LOOP('',(#359,#360,#361,#362,#363,#364));
#629=EDGE_LOOP('',(#365,#366,#367,#368));
#630=EDGE_LOOP('',(#369,#370,#371,#372));
#631=EDGE_LOOP('',(#373));
#632=EDGE_LOOP('',(#374));
#633=EDGE_LOOP('',(#375));
#634=EDGE_LOOP('',(#376));
#635=FACE_BOUND('',#583,.T.);
#636=FACE_BOUND('',#584,.T.);
#637=FACE_BOUND('',#585,.T.);
#638=FACE_BOUND('',#586,.T.);
#639=FACE_BOUND('',#587,.T.);
#640=FACE_BOUND('',#588,.T.);
#641=FACE_BOUND('',#589,.T.);
#642=FACE_BOUND('',#590,.T.);
#643=FACE_BOUND('',#591,.T.);
#644=FACE_BOUND('',#592,.T.);
#645=FACE_BOUND('',#593,.T.);
#646=FACE_BOUND('',#594,.T.);
#647=FACE_BOUND('',#595,.T.);
#648=FACE_BOUND('',#596,.T.);
#649=FACE_BOUND('',#597,.T.);
#650=FACE_BOUND('',#598,.T.);
#651=FACE_BOUND('',#599,.T.);
#652=FACE_BOUND('',#600,.T.);
#653=FACE_BOUND('',#601,.T.);
#654=FACE_BOUND('',#602,.T.);
#655=FACE_BOUND('',#603,.T.);
#656=FACE_BOUND('',#604,.T.);
#657=FACE_BOUND('',#30,.T.);
#658=FACE_BOUND('',#605,.T.);
#659=FACE_BOUND('',#606,.T.);
#660=FACE_BOUND('',#31,.T.);
#661=FACE_BOUND('',#607,.T.);
#662=FACE_BOUND('',#608,.T.);
#663=FACE_BOUND('',#609,.T.);
#664=FACE_BOUND('',#610,.T.);
#665=FACE_BOUND('',#611,.T.);
#666=FACE_BOUND('',#612,.T.);
#667=FACE_BOUND('',#613,.T.);
#668=FACE_BOUND('',#614,.T.);
#669=FACE_BOUND('',#615,.T.);
#670=FACE_BOUND('',#616,.T.);
#671=FACE_BOUND('',#617,.T.);
#672=FACE_BOUND('',#618,.T.);
#673=FACE_BOUND('',#619,.T.);
#674=FACE_BOUND('',#620,.T.);
#675=FACE_BOUND('',#621,.T.);
#676=FACE_BOUND('',#622,.T.);
#677=FACE_BOUND('',#623,.T.);
#678=FACE_BOUND('',#624,.T.);
#679=FACE_BOUND('',#625,.T.);
#680=FACE_BOUND('',#626,.T.);
#681=FACE_BOUND('',#627,.T.);
#682=FACE_BOUND('',#628,.T.);
#683=FACE_BOUND('',#629,.T.);
#684=FACE_BOUND('',#630,.T.);
#685=FACE_BOUND('',#631,.T.);
#686=FACE_BOUND('',#632,.T.);
#687=FACE_BOUND('',#633,.T.);
#688=FACE_BOUND('',#634,.T.);
#689=PLANE('',#776);
#690=PLANE('',#781);
#691=PLANE('',#786);
#692=PLANE('',#793);
#693=PLANE('',#794);
#694=PLANE('',#795);
#695=PLANE('',#797);
#696=PLANE('',#799);
#697=PLANE('',#800);
#698=PLANE('',#802);
#699=PLANE('',#806);
#700=PLANE('',#809);
#701=PLANE('',#818);
#702=PLANE('',#822);
#703=PLANE('',#829);
#704=PLANE('',#830);
#705=PLANE('',#840);
#706=PLANE('',#841);
#707=PLANE('',#843);
#708=PLANE('',#844);
#709=PLANE('',#846);
#710=PLANE('',#847);
#711=ADVANCED_FACE('',(#635,#636,#637),#689,.F.);
#712=ADVANCED_FACE('',(#638,#639,#640),#690,.F.);
#713=ADVANCED_FACE('',(#641),#691,.F.);
#714=ADVANCED_FACE('',(#642),#34,.T.);
#715=ADVANCED_FACE('',(#643),#35,.T.);
#716=ADVANCED_FACE('',(#644),#692,.F.);
#717=ADVANCED_FACE('',(#645),#693,.F.);
#718=ADVANCED_FACE('',(#646),#694,.T.);
#719=ADVANCED_FACE('',(#647),#695,.F.);
#720=ADVANCED_FACE('',(#648),#696,.T.);
#721=ADVANCED_FACE('',(#649),#697,.T.);
#722=ADVANCED_FACE('',(#650),#698,.T.);
#723=ADVANCED_FACE('',(#651),#36,.T.);
#724=ADVANCED_FACE('',(#652),#37,.T.);
#725=ADVANCED_FACE('',(#653),#699,.F.);
#726=ADVANCED_FACE('',(#654),#700,.F.);
#727=ADVANCED_FACE('',(#655,#656),#38,.T.);
#728=ADVANCED_FACE('',(#657,#658),#32,.T.);
#729=ADVANCED_FACE('',(#659,#660),#33,.T.);
#730=ADVANCED_FACE('',(#661,#662),#39,.F.);
#731=ADVANCED_FACE('',(#663,#664),#40,.F.);
#732=ADVANCED_FACE('',(#665),#701,.F.);
#733=ADVANCED_FACE('',(#666),#41,.T.);
#734=ADVANCED_FACE('',(#667,#668,#669),#702,.F.);
#735=ADVANCED_FACE('',(#670),#703,.F.);
#736=ADVANCED_FACE('',(#671,#672,#673),#704,.F.);
#737=ADVANCED_FACE('',(#674),#42,.F.);
#738=ADVANCED_FACE('',(#675),#705,.T.);
#739=ADVANCED_FACE('',(#676),#706,.F.);
#740=ADVANCED_FACE('',(#677),#43,.T.);
#741=ADVANCED_FACE('',(#678),#707,.T.);
#742=ADVANCED_FACE('',(#679),#708,.T.);
#743=ADVANCED_FACE('',(#680),#44,.F.);
#744=ADVANCED_FACE('',(#681),#709,.T.);
#745=ADVANCED_FACE('',(#682),#710,.T.);
#746=ADVANCED_FACE('',(#683),#45,.F.);
#747=ADVANCED_FACE('',(#684),#46,.T.);
#748=ADVANCED_FACE('',(#685,#686),#47,.F.);
#749=ADVANCED_FACE('',(#687,#688),#48,.F.);
#750=CLOSED_SHELL('',(#711,#712,#713,#714,#715,#716,#717,#718,#719,#720,
#721,#722,#723,#724,#725,#726,#727,#728,#729,#730,#731));
#751=CLOSED_SHELL('',(#732,#733,#734,#735,#736,#737,#738,#739,#740,#741,
#742,#743,#744,#745,#746,#747,#748,#749));
#752=STYLED_ITEM('',(#754),#767);
#753=STYLED_ITEM('',(#755),#768);
#754=PRESENTATION_STYLE_ASSIGNMENT((#756));
#755=PRESENTATION_STYLE_ASSIGNMENT((#757));
#756=SURFACE_STYLE_USAGE(.BOTH.,#758);
#757=SURFACE_STYLE_USAGE(.BOTH.,#759);
#758=SURFACE_SIDE_STYLE('',(#760));
#759=SURFACE_SIDE_STYLE('',(#761));
#760=SURFACE_STYLE_FILL_AREA(#762);
#761=SURFACE_STYLE_FILL_AREA(#763);
#762=FILL_AREA_STYLE('',(#764));
#763=FILL_AREA_STYLE('',(#765));
#764=FILL_AREA_STYLE_COLOUR('',#766);
#765=FILL_AREA_STYLE_COLOUR('',#766);
#766=COLOUR_RGB('',0.749019622802734,0.749019622802734,0.749019622802734);
#767=MANIFOLD_SOLID_BREP('Sheet Metal Hinge, Steel GN 136-ST-30-30-B_2',
#750);
#768=MANIFOLD_SOLID_BREP('Sheet Metal Hinge, Steel GN 136-ST-30-30-B_1',
#751);
#769=SHAPE_DEFINITION_REPRESENTATION(#1295,#772);
#770=SHAPE_DEFINITION_REPRESENTATION(#1296,#773);
#771=SHAPE_DEFINITION_REPRESENTATION(#1298,#774);
#772=SHAPE_REPRESENTATION(
'Sheet Metal Hinge, Steel GN 136-ST-30-30-B (0)',(#775,#817,#852),#1286);
#773=SHAPE_REPRESENTATION(
'Sheet Metal Hinge, Steel GN 136-ST-30-30-B_2',(#775),#1287);
#774=SHAPE_REPRESENTATION(
'Sheet Metal Hinge, Steel GN 136-ST-30-30-B_1',(#775),#1288);
#775=AXIS2_PLACEMENT_3D('',#1073,#853,#854);
#776=AXIS2_PLACEMENT_3D('',#1074,#855,#856);
#777=AXIS2_PLACEMENT_3D('',#1075,#857,#858);
#778=AXIS2_PLACEMENT_3D('',#1077,#859,#860);
#779=AXIS2_PLACEMENT_3D('',#1084,#863,#864);
#780=AXIS2_PLACEMENT_3D('',#1088,#866,#867);
#781=AXIS2_PLACEMENT_3D('',#1103,#875,#876);
#782=AXIS2_PLACEMENT_3D('',#1104,#877,#878);
#783=AXIS2_PLACEMENT_3D('',#1106,#879,#880);
#784=AXIS2_PLACEMENT_3D('',#1111,#882,#883);
#785=AXIS2_PLACEMENT_3D('',#1127,#891,#892);
#786=AXIS2_PLACEMENT_3D('',#1128,#893,#894);
#787=AXIS2_PLACEMENT_3D('',#1131,#897,#898);
#788=AXIS2_PLACEMENT_3D('',#1132,#899,#900);
#789=AXIS2_PLACEMENT_3D('',#1134,#901,#902);
#790=AXIS2_PLACEMENT_3D('',#1137,#904,#905);
#791=AXIS2_PLACEMENT_3D('',#1138,#906,#907);
#792=AXIS2_PLACEMENT_3D('',#1142,#909,#910);
#793=AXIS2_PLACEMENT_3D('',#1143,#911,#912);
#794=AXIS2_PLACEMENT_3D('',#1151,#917,#918);
#795=AXIS2_PLACEMENT_3D('',#1159,#923,#924);
#796=AXIS2_PLACEMENT_3D('',#1160,#925,#926);
#797=AXIS2_PLACEMENT_3D('',#1162,#928,#929);
#798=AXIS2_PLACEMENT_3D('',#1163,#930,#931);
#799=AXIS2_PLACEMENT_3D('',#1165,#933,#934);
#800=AXIS2_PLACEMENT_3D('',#1168,#937,#938);
#801=AXIS2_PLACEMENT_3D('',#1169,#939,#940);
#802=AXIS2_PLACEMENT_3D('',#1170,#941,#942);
#803=AXIS2_PLACEMENT_3D('',#1171,#943,#944);
#804=AXIS2_PLACEMENT_3D('',#1172,#945,#946);
#805=AXIS2_PLACEMENT_3D('',#1173,#947,#948);
#806=AXIS2_PLACEMENT_3D('',#1174,#949,#950);
#807=AXIS2_PLACEMENT_3D('',#1175,#951,#952);
#808=AXIS2_PLACEMENT_3D('',#1176,#953,#954);
#809=AXIS2_PLACEMENT_3D('',#1177,#955,#956);
#810=AXIS2_PLACEMENT_3D('',#1178,#957,#958);
#811=AXIS2_PLACEMENT_3D('',#1179,#959,#960);
#812=AXIS2_PLACEMENT_3D('',#1180,#961,#962);
#813=AXIS2_PLACEMENT_3D('',#1181,#963,#964);
#814=AXIS2_PLACEMENT_3D('',#1183,#965,#966);
#815=AXIS2_PLACEMENT_3D('',#1185,#967,#968);
#816=AXIS2_PLACEMENT_3D('',#1186,#969,#970);
#817=AXIS2_PLACEMENT_3D('',#1187,#971,#972);
#818=AXIS2_PLACEMENT_3D('',#1188,#973,#974);
#819=AXIS2_PLACEMENT_3D('',#1197,#979,#980);
#820=AXIS2_PLACEMENT_3D('',#1198,#981,#982);
#821=AXIS2_PLACEMENT_3D('',#1202,#984,#985);
#822=AXIS2_PLACEMENT_3D('',#1203,#986,#987);
#823=AXIS2_PLACEMENT_3D('',#1204,#988,#989);
#824=AXIS2_PLACEMENT_3D('',#1206,#990,#991);
#825=AXIS2_PLACEMENT_3D('',#1210,#993,#994);
#826=AXIS2_PLACEMENT_3D('',#1216,#997,#998);
#827=AXIS2_PLACEMENT_3D('',#1220,#1000,#1001);
#828=AXIS2_PLACEMENT_3D('',#1226,#1004,#1005);
#829=AXIS2_PLACEMENT_3D('',#1229,#1007,#1008);
#830=AXIS2_PLACEMENT_3D('',#1235,#1012,#1013);
#831=AXIS2_PLACEMENT_3D('',#1236,#1014,#1015);
#832=AXIS2_PLACEMENT_3D('',#1238,#1016,#1017);
#833=AXIS2_PLACEMENT_3D('',#1247,#1021,#1022);
#834=AXIS2_PLACEMENT_3D('',#1253,#1025,#1026);
#835=AXIS2_PLACEMENT_3D('',#1254,#1027,#1028);
#836=AXIS2_PLACEMENT_3D('',#1260,#1031,#1032);
#837=AXIS2_PLACEMENT_3D('',#1261,#1033,#1034);
#838=AXIS2_PLACEMENT_3D('',#1262,#1035,#1036);
#839=AXIS2_PLACEMENT_3D('',#1263,#1037,#1038);
#840=AXIS2_PLACEMENT_3D('',#1264,#1039,#1040);
#841=AXIS2_PLACEMENT_3D('',#1267,#1043,#1044);
#842=AXIS2_PLACEMENT_3D('',#1270,#1047,#1048);
#843=AXIS2_PLACEMENT_3D('',#1271,#1049,#1050);
#844=AXIS2_PLACEMENT_3D('',#1273,#1052,#1053);
#845=AXIS2_PLACEMENT_3D('',#1275,#1055,#1056);
#846=AXIS2_PLACEMENT_3D('',#1276,#1057,#1058);
#847=AXIS2_PLACEMENT_3D('',#1278,#1060,#1061);
#848=AXIS2_PLACEMENT_3D('',#1280,#1063,#1064);
#849=AXIS2_PLACEMENT_3D('',#1281,#1065,#1066);
#850=AXIS2_PLACEMENT_3D('',#1282,#1067,#1068);
#851=AXIS2_PLACEMENT_3D('',#1283,#1069,#1070);
#852=AXIS2_PLACEMENT_3D('',#1284,#1071,#1072);
#853=DIRECTION('',(0.,0.,1.));
#854=DIRECTION('',(1.,0.,0.));
#855=DIRECTION('',(0.,-1.,0.));
#856=DIRECTION('',(0.,0.,-1.));
#857=DIRECTION('',(0.,-1.,0.));
#858=DIRECTION('',(0.,0.,-1.));
#859=DIRECTION('',(0.,-1.,0.));
#860=DIRECTION('',(0.,0.,-1.));
#861=DIRECTION('',(-1.,0.,0.));
#862=DIRECTION('',(-1.,0.,0.));
#863=DIRECTION('',(0.,-1.,0.));
#864=DIRECTION('',(0.,0.,-1.));
#865=DIRECTION('',(0.,0.,-1.));
#866=DIRECTION('',(0.,-1.,0.));
#867=DIRECTION('',(0.,0.,-1.));
#868=DIRECTION('',(-1.,0.,0.));
#869=DIRECTION('',(-1.,0.,0.));
#870=DIRECTION('',(0.,0.,-1.));
#871=DIRECTION('',(1.,0.,0.));
#872=DIRECTION('',(0.,0.,1.));
#873=DIRECTION('',(-1.,0.,0.));
#874=DIRECTION('',(0.,0.,-1.));
#875=DIRECTION('',(0.,1.,0.));
#876=DIRECTION('',(0.,0.,1.));
#877=DIRECTION('',(0.,-1.,0.));
#878=DIRECTION('',(0.,0.,-1.));
#879=DIRECTION('',(0.,-1.,0.));
#880=DIRECTION('',(0.,0.,-1.));
#881=DIRECTION('',(0.,0.,-1.));
#882=DIRECTION('',(0.,1.,0.));
#883=DIRECTION('',(0.,0.,1.));
#884=DIRECTION('',(1.,0.,0.));
#885=DIRECTION('',(0.,0.,-1.));
#886=DIRECTION('',(1.,0.,0.));
#887=DIRECTION('',(0.,0.,-1.));
#888=DIRECTION('',(-1.,0.,0.));
#889=DIRECTION('',(0.,0.,-1.));
#890=DIRECTION('',(1.,0.,0.));
#891=DIRECTION('',(0.,1.,0.));
#892=DIRECTION('',(0.,0.,1.));
#893=DIRECTION('',(1.,0.,0.));
#894=DIRECTION('',(0.,0.,-1.));
#895=DIRECTION('',(0.,-1.,0.));
#896=DIRECTION('',(0.,-1.,0.));
#897=DIRECTION('',(0.,0.,-1.));
#898=DIRECTION('',(-1.,0.,0.));
#899=DIRECTION('',(0.,0.,1.));
#900=DIRECTION('',(1.,0.,0.));
#901=DIRECTION('',(0.,0.,1.));
#902=DIRECTION('',(1.,0.,0.));
#903=DIRECTION('',(0.,0.,-1.));
#904=DIRECTION('',(0.,0.,-1.));
#905=DIRECTION('',(-1.,0.,0.));
#906=DIRECTION('',(0.,0.,-1.));
#907=DIRECTION('',(-1.,0.,0.));
#908=DIRECTION('',(0.,0.,-1.));
#909=DIRECTION('',(0.,0.,1.));
#910=DIRECTION('',(1.,0.,0.));
#911=DIRECTION('',(-0.422618261740701,0.906307787036649,0.));
#912=DIRECTION('',(-0.906307787036649,-0.422618261740701,0.));
#913=DIRECTION('',(0.906307787036649,0.422618261740701,0.));
#914=DIRECTION('',(0.906307787036649,0.422618261740701,0.));
#915=DIRECTION('',(0.906307787036649,0.422618261740701,0.));
#916=DIRECTION('',(0.,0.,-1.));
#917=DIRECTION('',(-0.422618261740701,0.906307787036649,0.));
#918=DIRECTION('',(-0.906307787036649,-0.422618261740701,0.));
#919=DIRECTION('',(-0.906307787036649,-0.422618261740701,0.));
#920=DIRECTION('',(0.,0.,-1.));
#921=DIRECTION('',(0.906307787036649,0.422618261740701,0.));
#922=DIRECTION('',(0.906307787036649,0.422618261740701,0.));
#923=DIRECTION('',(0.,0.,1.));
#924=DIRECTION('',(1.,0.,0.));
#925=DIRECTION('',(0.,0.,1.));
#926=DIRECTION('',(1.,0.,0.));
#927=DIRECTION('',(0.,-1.,0.));
#928=DIRECTION('',(0.,0.,1.));
#929=DIRECTION('',(1.,0.,0.));
#930=DIRECTION('',(0.,0.,1.));
#931=DIRECTION('',(1.,0.,0.));
#932=DIRECTION('',(0.,-1.,0.));
#933=DIRECTION('',(1.,0.,0.));
#934=DIRECTION('',(0.,0.,-1.));
#935=DIRECTION('',(0.,-1.,0.));
#936=DIRECTION('',(0.,-1.,0.));
#937=DIRECTION('',(0.,0.,1.));
#938=DIRECTION('',(1.,0.,0.));
#939=DIRECTION('',(0.,0.,1.));
#940=DIRECTION('',(1.,0.,0.));
#941=DIRECTION('',(0.,0.,-1.));
#942=DIRECTION('',(-1.,0.,0.));
#943=DIRECTION('',(0.,0.,-1.));
#944=DIRECTION('',(-1.,0.,0.));
#945=DIRECTION('',(0.,-1.,0.));
#946=DIRECTION('',(0.,0.,-1.));
#947=DIRECTION('',(0.,-1.,0.));
#948=DIRECTION('',(0.,0.,-1.));
#949=DIRECTION('',(0.,0.,-1.));
#950=DIRECTION('',(-1.,0.,0.));
#951=DIRECTION('',(0.,0.,-1.));
#952=DIRECTION('',(-1.,0.,0.));
#953=DIRECTION('',(0.,0.,-1.));
#954=DIRECTION('',(-1.,0.,0.));
#955=DIRECTION('',(0.,0.,1.));
#956=DIRECTION('',(1.,0.,0.));
#957=DIRECTION('',(0.,0.,-1.));
#958=DIRECTION('',(-1.,0.,0.));
#959=DIRECTION('',(0.,0.,-1.));
#960=DIRECTION('',(-1.,0.,0.));
#961=DIRECTION('',(0.,0.,-1.));
#962=DIRECTION('',(-1.,0.,0.));
#963=DIRECTION('',(0.,0.,-1.));
#964=DIRECTION('',(-1.,0.,0.));
#965=DIRECTION('',(0.,0.,-1.));
#966=DIRECTION('',(-1.,0.,0.));
#967=DIRECTION('',(0.,-1.,0.));
#968=DIRECTION('',(0.,0.,-1.));
#969=DIRECTION('',(0.,-1.,0.));
#970=DIRECTION('',(0.,0.,-1.));
#971=DIRECTION('',(0.,0.,1.));
#972=DIRECTION('',(-1.,0.,0.));
#973=DIRECTION('',(0.422618261740699,0.90630778703665,0.));
#974=DIRECTION('',(-0.90630778703665,0.422618261740699,0.));
#975=DIRECTION('',(-0.90630778703665,0.422618261740699,0.));
#976=DIRECTION('',(0.,0.,-1.));
#977=DIRECTION('',(0.90630778703665,-0.422618261740699,0.));
#978=DIRECTION('',(0.,0.,-1.));
#979=DIRECTION('',(0.,0.,-1.));
#980=DIRECTION('',(-1.,0.,0.));
#981=DIRECTION('',(0.,0.,-1.));
#982=DIRECTION('',(-1.,0.,0.));
#983=DIRECTION('',(0.,0.,-1.));
#984=DIRECTION('',(0.,0.,1.));
#985=DIRECTION('',(1.,0.,0.));
#986=DIRECTION('',(0.,1.,0.));
#987=DIRECTION('',(0.,0.,1.));
#988=DIRECTION('',(0.,-1.,0.));
#989=DIRECTION('',(0.,0.,-1.));
#990=DIRECTION('',(0.,-1.,0.));
#991=DIRECTION('',(0.,0.,-1.));
#992=DIRECTION('',(-1.,0.,0.));
#993=DIRECTION('',(0.,1.,0.));
#994=DIRECTION('',(0.,0.,1.));
#995=DIRECTION('',(0.,0.,1.));
#996=DIRECTION('',(1.,0.,0.));
#997=DIRECTION('',(0.,1.,0.));
#998=DIRECTION('',(0.,0.,1.));
#999=DIRECTION('',(0.,0.,-1.));
#1000=DIRECTION('',(0.,1.,0.));
#1001=DIRECTION('',(0.,0.,1.));
#1002=DIRECTION('',(1.,0.,0.));
#1003=DIRECTION('',(0.,0.,1.));
#1004=DIRECTION('',(0.,1.,0.));
#1005=DIRECTION('',(0.,0.,1.));
#1006=DIRECTION('',(1.,0.,0.));
#1007=DIRECTION('',(-1.,0.,0.));
#1008=DIRECTION('',(0.,0.,1.));
#1009=DIRECTION('',(0.,-1.,0.));
#1010=DIRECTION('',(0.,0.,-1.));
#1011=DIRECTION('',(0.,-1.,0.));
#1012=DIRECTION('',(0.,-1.,0.));
#1013=DIRECTION('',(0.,0.,-1.));
#1014=DIRECTION('',(0.,-1.,0.));
#1015=DIRECTION('',(0.,0.,-1.));
#1016=DIRECTION('',(0.,-1.,0.));
#1017=DIRECTION('',(0.,0.,-1.));
#1018=DIRECTION('',(1.,0.,0.));
#1019=DIRECTION('',(0.,0.,-1.));
#1020=DIRECTION('',(-1.,0.,0.));
#1021=DIRECTION('',(0.,-1.,0.));
#1022=DIRECTION('',(0.,0.,-1.));
#1023=DIRECTION('',(0.,0.,-1.));
#1024=DIRECTION('',(-1.,0.,0.));
#1025=DIRECTION('',(0.,-1.,0.));
#1026=DIRECTION('',(0.,0.,-1.));
#1027=DIRECTION('',(0.,-1.,0.));
#1028=DIRECTION('',(0.,0.,-1.));
#1029=DIRECTION('',(-1.,0.,0.));
#1030=DIRECTION('',(0.,0.,-1.));
#1031=DIRECTION('',(0.,-1.,0.));
#1032=DIRECTION('',(0.,0.,-1.));
#1033=DIRECTION('',(0.,0.,-1.));
#1034=DIRECTION('',(-1.,0.,0.));
#1035=DIRECTION('',(0.,0.,-1.));
#1036=DIRECTION('',(-1.,0.,0.));
#1037=DIRECTION('',(0.,0.,1.));
#1038=DIRECTION('',(1.,0.,0.));
#1039=DIRECTION('',(0.,0.,1.));
#1040=DIRECTION('',(1.,0.,0.));
#1041=DIRECTION('',(0.,-1.,0.));
#1042=DIRECTION('',(0.,-1.,0.));
#1043=DIRECTION('',(0.,0.,1.));
#1044=DIRECTION('',(1.,0.,0.));
#1045=DIRECTION('',(0.,-1.,0.));
#1046=DIRECTION('',(0.,-1.,0.));
#1047=DIRECTION('',(0.,-1.,0.));
#1048=DIRECTION('',(0.,0.,-1.));
#1049=DIRECTION('',(0.,0.,-1.));
#1050=DIRECTION('',(-1.,0.,0.));
#1051=DIRECTION('',(0.,-1.,0.));
#1052=DIRECTION('',(-1.,0.,0.));
#1053=DIRECTION('',(0.,0.,1.));
#1054=DIRECTION('',(0.,-1.,0.));
#1055=DIRECTION('',(0.,-1.,0.));
#1056=DIRECTION('',(0.,0.,-1.));
#1057=DIRECTION('',(-1.,0.,0.));
#1058=DIRECTION('',(0.,0.,1.));
#1059=DIRECTION('',(0.,-1.,0.));
#1060=DIRECTION('',(0.,0.,1.));
#1061=DIRECTION('',(1.,0.,0.));
#1062=DIRECTION('',(0.,-1.,0.));
#1063=DIRECTION('',(0.,-1.,0.));
#1064=DIRECTION('',(0.,0.,-1.));
#1065=DIRECTION('',(0.,-1.,0.));
#1066=DIRECTION('',(0.,0.,-1.));
#1067=DIRECTION('',(0.,-1.,0.));
#1068=DIRECTION('',(0.,0.,-1.));
#1069=DIRECTION('',(0.,-1.,0.));
#1070=DIRECTION('',(0.,0.,-1.));
#1071=DIRECTION('',(0.,0.,1.));
#1072=DIRECTION('',(-1.,0.,0.));
#1073=CARTESIAN_POINT('',(0.,0.,0.));
#1074=CARTESIAN_POINT('',(0.,1.5,15.));
#1075=CARTESIAN_POINT('',(-9.,1.5,-9.));
#1076=CARTESIAN_POINT('',(-9.,1.5,-10.6));
#1077=CARTESIAN_POINT('',(-9.,1.5,9.));
#1078=CARTESIAN_POINT('',(-9.,1.5,7.4));
#1079=CARTESIAN_POINT('',(0.,1.5,-15.));
#1080=CARTESIAN_POINT('',(-8.71856724675182E-16,1.5,-15.));
#1081=CARTESIAN_POINT('',(-1.67705098312484,1.5,-15.));
#1082=CARTESIAN_POINT('',(0.,1.5,-15.));
#1083=CARTESIAN_POINT('',(-13.,1.5,-15.));
#1084=CARTESIAN_POINT('',(-13.,1.5,-13.));
#1085=CARTESIAN_POINT('',(-15.,1.5,-13.));
#1086=CARTESIAN_POINT('',(-15.,1.5,15.));
#1087=CARTESIAN_POINT('',(-15.,1.5,13.));
#1088=CARTESIAN_POINT('',(-13.,1.5,13.));
#1089=CARTESIAN_POINT('',(-13.,1.5,15.));
#1090=CARTESIAN_POINT('',(0.,1.5,15.));
#1091=CARTESIAN_POINT('',(-1.67705098312484,1.5,15.));
#1092=CARTESIAN_POINT('',(0.,1.5,15.));
#1093=CARTESIAN_POINT('',(-8.71856724675182E-16,1.5,15.));
#1094=CARTESIAN_POINT('',(-8.71856724675182E-16,1.5,15.));
#1095=CARTESIAN_POINT('',(0.,1.5,7.6));
#1096=CARTESIAN_POINT('',(0.,1.5,7.6));
#1097=CARTESIAN_POINT('',(-4.5,1.5,7.6));
#1098=CARTESIAN_POINT('',(-4.5,1.5,15.));
#1099=CARTESIAN_POINT('',(-4.5,1.5,-7.6));
#1100=CARTESIAN_POINT('',(0.,1.5,-7.6));
#1101=CARTESIAN_POINT('',(-8.71856724675182E-16,1.5,-7.6));
#1102=CARTESIAN_POINT('',(-8.71856724675182E-16,1.5,15.));
#1103=CARTESIAN_POINT('',(-15.,0.,15.));
#1104=CARTESIAN_POINT('',(-9.,0.,-9.));
#1105=CARTESIAN_POINT('',(-9.,0.,-10.6));
#1106=CARTESIAN_POINT('',(-9.,0.,9.));
#1107=CARTESIAN_POINT('',(-9.,0.,7.4));
#1108=CARTESIAN_POINT('',(-15.,0.,15.));
#1109=CARTESIAN_POINT('',(-15.,0.,13.));
#1110=CARTESIAN_POINT('',(-15.,0.,-13.));
#1111=CARTESIAN_POINT('',(-13.,0.,-13.));
#1112=CARTESIAN_POINT('',(-13.,0.,-15.));
#1113=CARTESIAN_POINT('',(-15.,0.,-15.));
#1114=CARTESIAN_POINT('',(0.,0.,-15.));
#1115=CARTESIAN_POINT('',(0.,0.,15.));
#1116=CARTESIAN_POINT('',(0.,0.,-7.6));
#1117=CARTESIAN_POINT('',(-15.,0.,-7.6));
#1118=CARTESIAN_POINT('',(-4.5,0.,-7.6));
#1119=CARTESIAN_POINT('',(-4.5,0.,15.));
#1120=CARTESIAN_POINT('',(-4.5,0.,7.6));
#1121=CARTESIAN_POINT('',(-15.,0.,7.6));
#1122=CARTESIAN_POINT('',(0.,0.,7.6));
#1123=CARTESIAN_POINT('',(0.,0.,15.));
#1124=CARTESIAN_POINT('',(0.,0.,15.));
#1125=CARTESIAN_POINT('',(-15.,0.,15.));
#1126=CARTESIAN_POINT('',(-13.,0.,15.));
#1127=CARTESIAN_POINT('',(-13.,0.,13.));
#1128=CARTESIAN_POINT('',(-15.,1.5,15.));
#1129=CARTESIAN_POINT('',(-15.,15.,-13.));
#1130=CARTESIAN_POINT('',(-15.,15.,13.));
#1131=CARTESIAN_POINT('',(9.75781955236954E-16,3.,15.));
#1132=CARTESIAN_POINT('',(9.75781955236954E-16,3.,-7.6));
#1133=CARTESIAN_POINT('',(-2.7194619260825,1.73330081211533,-7.6));
#1134=CARTESIAN_POINT('',(9.75781955236954E-16,3.,-15.));
#1135=CARTESIAN_POINT('',(-2.7194619260825,1.73330081211533,-15.));
#1136=CARTESIAN_POINT('',(-2.7194619260825,1.73330081211533,15.));
#1137=CARTESIAN_POINT('',(9.75781955236954E-16,3.,15.));
#1138=CARTESIAN_POINT('',(9.75781955236954E-16,3.,7.6));
#1139=CARTESIAN_POINT('',(-2.7194619260825,1.73330081211533,7.6));
#1140=CARTESIAN_POINT('',(-2.7194619260825,1.73330081211533,15.));
#1141=CARTESIAN_POINT('',(-2.7194619260825,1.73330081211533,15.));
#1142=CARTESIAN_POINT('',(9.75781955236954E-16,3.,15.));
#1143=CARTESIAN_POINT('',(-2.7194619260825,1.73330081211533,15.));
#1144=CARTESIAN_POINT('',(-2.7194619260825,1.73330081211533,-7.6));
#1145=CARTESIAN_POINT('',(-1.36,2.36722831921775,-7.6));
#1146=CARTESIAN_POINT('',(-2.7194619260825,1.73330081211533,-15.));
#1147=CARTESIAN_POINT('',(-2.03973100396251,2.05026454658464,-15.));
#1148=CARTESIAN_POINT('',(-2.7194619260825,1.73330081211533,-15.));
#1149=CARTESIAN_POINT('',(-1.36,2.36722831921775,-15.));
#1150=CARTESIAN_POINT('',(-1.36,2.36722831921775,15.));
#1151=CARTESIAN_POINT('',(-2.7194619260825,1.73330081211533,15.));
#1152=CARTESIAN_POINT('',(-2.7194619260825,1.73330081211533,7.6));
#1153=CARTESIAN_POINT('',(-1.36,2.36722831921775,7.6));
#1154=CARTESIAN_POINT('',(-1.36,2.36722831921775,15.));
#1155=CARTESIAN_POINT('',(-1.36,2.36722831921775,15.));
#1156=CARTESIAN_POINT('',(-2.7194619260825,1.73330081211533,15.));
#1157=CARTESIAN_POINT('',(-2.03973100396251,2.05026454658464,15.));
#1158=CARTESIAN_POINT('',(-2.7194619260825,1.73330081211533,15.));
#1159=CARTESIAN_POINT('',(9.75781955236954E-16,3.,15.));
#1160=CARTESIAN_POINT('',(0.,3.,15.));
#1161=CARTESIAN_POINT('',(-13.,15.,15.));
#1162=CARTESIAN_POINT('',(9.75781955236954E-16,3.,-15.));
#1163=CARTESIAN_POINT('',(0.,3.,-15.));
#1164=CARTESIAN_POINT('',(-13.,15.,-15.));
#1165=CARTESIAN_POINT('',(-4.5,15.,-7.6));
#1166=CARTESIAN_POINT('',(-4.5,15.,7.6));
#1167=CARTESIAN_POINT('',(-4.5,15.,-7.6));
#1168=CARTESIAN_POINT('',(25.5,15.,-7.6));
#1169=CARTESIAN_POINT('',(-5.96311194867027E-16,3.,-7.6));
#1170=CARTESIAN_POINT('',(-4.5,15.,7.6));
#1171=CARTESIAN_POINT('',(-5.96311194867027E-16,3.,7.6));
#1172=CARTESIAN_POINT('',(-13.,15.,-13.));
#1173=CARTESIAN_POINT('',(-13.,15.,13.));
#1174=CARTESIAN_POINT('',(0.,4.5,-15.));
#1175=CARTESIAN_POINT('',(0.,3.,-15.));
#1176=CARTESIAN_POINT('',(0.,3.,-15.));
#1177=CARTESIAN_POINT('',(0.,5.25,15.));
#1178=CARTESIAN_POINT('',(0.,3.,15.));
#1179=CARTESIAN_POINT('',(0.,3.,15.));
#1180=CARTESIAN_POINT('',(0.,3.,-16.5));
#1181=CARTESIAN_POINT('',(0.,3.,14.2536101135374));
#1182=CARTESIAN_POINT('',(0.,3.,16.5));
#1183=CARTESIAN_POINT('',(0.,3.,-14.2536101135373));
#1184=CARTESIAN_POINT('',(0.,3.,-16.5));
#1185=CARTESIAN_POINT('',(-9.,0.,9.));
#1186=CARTESIAN_POINT('',(-9.,0.,-9.));
#1187=CARTESIAN_POINT('',(-3.67394039744206E-16,3.,-3.67394039744206E-16));
#1188=CARTESIAN_POINT('',(1.36105777397381,2.36950675189542,15.));
#1189=CARTESIAN_POINT('',(1.36105777397381,2.36950675189542,-7.5));
#1190=CARTESIAN_POINT('',(2.7205216207373,1.73557834916476,-7.5));
#1191=CARTESIAN_POINT('',(1.36105777397381,2.36950675189542,-7.5));
#1192=CARTESIAN_POINT('',(2.7205216207373,1.73557834916476,15.));
#1193=CARTESIAN_POINT('',(2.7205216207373,1.73557834916476,7.5));
#1194=CARTESIAN_POINT('',(1.36105777397381,2.36950675189542,7.5));
#1195=CARTESIAN_POINT('',(1.36105777397381,2.36950675189542,7.5));
#1196=CARTESIAN_POINT('',(1.36105777397381,2.36950675189542,15.));
#1197=CARTESIAN_POINT('',(9.75781955236954E-16,3.,15.));
#1198=CARTESIAN_POINT('',(9.75781955236954E-16,3.,-7.5));
#1199=CARTESIAN_POINT('',(4.24690895620645E-16,-4.33680868994202E-16,-7.5));
#1200=CARTESIAN_POINT('',(4.24690895620645E-16,0.,15.));
#1201=CARTESIAN_POINT('',(4.24690895620645E-16,-4.33680868994202E-16,7.5));
#1202=CARTESIAN_POINT('',(9.75781955236954E-16,3.,7.5));
#1203=CARTESIAN_POINT('',(0.,0.,15.));
#1204=CARTESIAN_POINT('',(9.,0.,-9.));
#1205=CARTESIAN_POINT('',(9.,0.,-10.6));
#1206=CARTESIAN_POINT('',(9.,0.,9.));
#1207=CARTESIAN_POINT('',(9.,0.,7.4));
#1208=CARTESIAN_POINT('',(0.,0.,-7.5));
#1209=CARTESIAN_POINT('',(3.5,0.,-7.5));
#1210=CARTESIAN_POINT('',(3.5,0.,-8.5));
#1211=CARTESIAN_POINT('',(4.5,0.,-8.5));
#1212=CARTESIAN_POINT('',(4.5,0.,15.));
#1213=CARTESIAN_POINT('',(4.5,0.,-15.));
#1214=CARTESIAN_POINT('',(0.,0.,-15.));
#1215=CARTESIAN_POINT('',(13.,0.,-15.));
#1216=CARTESIAN_POINT('',(13.,0.,-13.));
#1217=CARTESIAN_POINT('',(15.,0.,-13.));
#1218=CARTESIAN_POINT('',(15.,0.,15.));
#1219=CARTESIAN_POINT('',(15.,0.,13.));
#1220=CARTESIAN_POINT('',(13.,0.,13.));
#1221=CARTESIAN_POINT('',(13.,0.,15.));
#1222=CARTESIAN_POINT('',(0.,0.,15.));
#1223=CARTESIAN_POINT('',(4.5,0.,15.));
#1224=CARTESIAN_POINT('',(4.5,0.,15.));
#1225=CARTESIAN_POINT('',(4.5,0.,8.5));
#1226=CARTESIAN_POINT('',(3.5,0.,8.5));
#1227=CARTESIAN_POINT('',(3.5,0.,7.5));
#1228=CARTESIAN_POINT('',(0.,0.,7.5));
#1229=CARTESIAN_POINT('',(15.,0.,15.));
#1230=CARTESIAN_POINT('',(15.,15.,-13.));
#1231=CARTESIAN_POINT('',(15.,1.5,-13.));
#1232=CARTESIAN_POINT('',(15.,1.5,15.));
#1233=CARTESIAN_POINT('',(15.,1.5,13.));
#1234=CARTESIAN_POINT('',(15.,15.,13.));
#1235=CARTESIAN_POINT('',(15.,1.5,15.));
#1236=CARTESIAN_POINT('',(9.,1.5,-9.));
#1237=CARTESIAN_POINT('',(9.,1.5,-10.6));
#1238=CARTESIAN_POINT('',(9.,1.5,9.));
#1239=CARTESIAN_POINT('',(9.,1.5,7.4));
#1240=CARTESIAN_POINT('',(15.,1.5,-7.5));
#1241=CARTESIAN_POINT('',(0.,1.5,-7.5));
#1242=CARTESIAN_POINT('',(3.5,1.5,-7.5));
#1243=CARTESIAN_POINT('',(0.,1.5,15.));
#1244=CARTESIAN_POINT('',(0.,1.5,7.5));
#1245=CARTESIAN_POINT('',(15.,1.5,7.5));
#1246=CARTESIAN_POINT('',(3.5,1.5,7.5));
#1247=CARTESIAN_POINT('',(3.5,1.5,8.5));
#1248=CARTESIAN_POINT('',(4.5,1.5,8.5));
#1249=CARTESIAN_POINT('',(4.5,1.5,15.));
#1250=CARTESIAN_POINT('',(4.5,1.5,15.));
#1251=CARTESIAN_POINT('',(15.,1.5,15.));
#1252=CARTESIAN_POINT('',(13.,1.5,15.));
#1253=CARTESIAN_POINT('',(13.,1.5,13.));
#1254=CARTESIAN_POINT('',(13.,1.5,-13.));
#1255=CARTESIAN_POINT('',(13.,1.5,-15.));
#1256=CARTESIAN_POINT('',(15.,1.5,-15.));
#1257=CARTESIAN_POINT('',(4.5,1.5,-15.));
#1258=CARTESIAN_POINT('',(4.5,1.5,15.));
#1259=CARTESIAN_POINT('',(4.5,1.5,-8.5));
#1260=CARTESIAN_POINT('',(3.5,1.5,-8.5));
#1261=CARTESIAN_POINT('',(2.16840434497101E-16,3.,15.));
#1262=CARTESIAN_POINT('',(2.16840434497101E-16,3.,-7.5));
#1263=CARTESIAN_POINT('',(2.16840434497101E-16,3.,7.5));
#1264=CARTESIAN_POINT('',(9.75781955236954E-16,3.,15.));
#1265=CARTESIAN_POINT('',(13.,15.,15.));
#1266=CARTESIAN_POINT('',(4.5,3.,15.));
#1267=CARTESIAN_POINT('',(9.75781955236954E-16,3.,-15.));
#1268=CARTESIAN_POINT('',(4.5,3.,-15.));
#1269=CARTESIAN_POINT('',(13.,15.,-15.));
#1270=CARTESIAN_POINT('',(13.,15.,-13.));
#1271=CARTESIAN_POINT('',(-25.,15.,-7.5));
#1272=CARTESIAN_POINT('',(3.5,15.,-7.5));
#1273=CARTESIAN_POINT('',(4.5,15.,-8.5));
#1274=CARTESIAN_POINT('',(4.5,15.,-8.5));
#1275=CARTESIAN_POINT('',(3.5,15.,-8.5));
#1276=CARTESIAN_POINT('',(4.5,15.,15.));
#1277=CARTESIAN_POINT('',(4.5,15.,8.5));
#1278=CARTESIAN_POINT('',(3.5,15.,7.5));
#1279=CARTESIAN_POINT('',(3.5,15.,7.5));
#1280=CARTESIAN_POINT('',(3.5,15.,8.5));
#1281=CARTESIAN_POINT('',(13.,15.,13.));
#1282=CARTESIAN_POINT('',(9.,0.,9.));
#1283=CARTESIAN_POINT('',(9.,0.,-9.));
#1284=CARTESIAN_POINT('',(-3.67394039744206E-16,3.,-7.34788079488412E-16));
#1285=MECHANICAL_DESIGN_GEOMETRIC_PRESENTATION_REPRESENTATION('',(#752,
#753),#1286);
#1286=(
GEOMETRIC_REPRESENTATION_CONTEXT(3)
GLOBAL_UNCERTAINTY_ASSIGNED_CONTEXT((#1289))
GLOBAL_UNIT_ASSIGNED_CONTEXT((#1294,#1293,#1292))
REPRESENTATION_CONTEXT('Sheet Metal Hinge, Steel GN 136-ST-30-30-B (0)',
'TOP_LEVEL_ASSEMBLY_PART')
);
#1287=(
GEOMETRIC_REPRESENTATION_CONTEXT(3)
GLOBAL_UNCERTAINTY_ASSIGNED_CONTEXT((#1290))
GLOBAL_UNIT_ASSIGNED_CONTEXT((#1294,#1293,#1292))
REPRESENTATION_CONTEXT('Sheet Metal Hinge, Steel GN 136-ST-30-30-B_2',
'COMPONENT_PART')
);
#1288=(
GEOMETRIC_REPRESENTATION_CONTEXT(3)
GLOBAL_UNCERTAINTY_ASSIGNED_CONTEXT((#1291))
GLOBAL_UNIT_ASSIGNED_CONTEXT((#1294,#1293,#1292))
REPRESENTATION_CONTEXT('Sheet Metal Hinge, Steel GN 136-ST-30-30-B_1',
'COMPONENT_PART')
);
#1289=UNCERTAINTY_MEASURE_WITH_UNIT(LENGTH_MEASURE(1.E-5),#1294,
'DISTANCE_ACCURACY_VALUE','Maximum Tolerance applied to model');
#1290=UNCERTAINTY_MEASURE_WITH_UNIT(LENGTH_MEASURE(1.E-5),#1294,
'DISTANCE_ACCURACY_VALUE','Maximum Tolerance applied to model');
#1291=UNCERTAINTY_MEASURE_WITH_UNIT(LENGTH_MEASURE(1.E-5),#1294,
'DISTANCE_ACCURACY_VALUE','Maximum Tolerance applied to model');
#1292=(
NAMED_UNIT(*)
SI_UNIT($,.STERADIAN.)
SOLID_ANGLE_UNIT()
);
#1293=(
NAMED_UNIT(*)
PLANE_ANGLE_UNIT()
SI_UNIT($,.RADIAN.)
);
#1294=(
LENGTH_UNIT()
NAMED_UNIT(*)
SI_UNIT(.MILLI.,.METRE.)
);
#1295=PRODUCT_DEFINITION_SHAPE('','',#1300);
#1296=PRODUCT_DEFINITION_SHAPE('','',#1301);
#1297=PRODUCT_DEFINITION_SHAPE(' ','NAUO PRDDFN',#20);
#1298=PRODUCT_DEFINITION_SHAPE('','',#1302);
#1299=PRODUCT_DEFINITION_SHAPE(' ','NAUO PRDDFN',#21);
#1300=PRODUCT_DEFINITION('','',#1306,#1303);
#1301=PRODUCT_DEFINITION('','',#1307,#1304);
#1302=PRODUCT_DEFINITION('','',#1308,#1305);
#1303=PRODUCT_DEFINITION_CONTEXT('',#1322,'design');
#1304=PRODUCT_DEFINITION_CONTEXT('',#1322,'design');
#1305=PRODUCT_DEFINITION_CONTEXT('',#1322,'design');
#1306=PRODUCT_DEFINITION_FORMATION_WITH_SPECIFIED_SOURCE('','',#1312,
 .NOT_KNOWN.);
#1307=PRODUCT_DEFINITION_FORMATION_WITH_SPECIFIED_SOURCE('','',#1313,
 .NOT_KNOWN.);
#1308=PRODUCT_DEFINITION_FORMATION_WITH_SPECIFIED_SOURCE('','',#1314,
 .NOT_KNOWN.);
#1309=PRODUCT_RELATED_PRODUCT_CATEGORY('','',(#1312));
#1310=PRODUCT_RELATED_PRODUCT_CATEGORY('','',(#1313));
#1311=PRODUCT_RELATED_PRODUCT_CATEGORY('','',(#1314));
#1312=PRODUCT('Sheet Metal Hinge, Steel GN 136-ST-30-30-B (0)',
'Sheet Metal Hinge, Steel GN 136-ST-30-30-B (0)',
'Sheet Metal Hinge, Steel GN 136-ST-30-30-B (0)',(#1318));
#1313=PRODUCT('Sheet Metal Hinge, Steel GN 136-ST-30-30-B_2',
'Sheet Metal Hinge, Steel GN 136-ST-30-30-B_2',
'Sheet Metal Hinge, Steel GN 136-ST-30-30-B_2',(#1319));
#1314=PRODUCT('Sheet Metal Hinge, Steel GN 136-ST-30-30-B_1',
'Sheet Metal Hinge, Steel GN 136-ST-30-30-B_1',
'Sheet Metal Hinge, Steel GN 136-ST-30-30-B_1',(#1320));
#1315=PRODUCT_CATEGORY('','');
#1316=PRODUCT_CATEGORY('','');
#1317=PRODUCT_CATEGORY('','');
#1318=PRODUCT_CONTEXT('',#1322,'mechanical');
#1319=PRODUCT_CONTEXT('',#1322,'mechanical');
#1320=PRODUCT_CONTEXT('',#1322,'mechanical');
#1321=APPLICATION_PROTOCOL_DEFINITION('international standard',
'automotive_design',2010,#1322);
#1322=APPLICATION_CONTEXT(
'core data for automotive mechanical design processes');
ENDSEC;
END-ISO-10303-21;
