ISO-10303-21;
HEADER;
/* Generated by software containing ST-Developer
 * from STEP Tools, Inc. (www.steptools.com) 
 */
/* OPTION: using custom renumber hook */

FILE_DESCRIPTION(
/* description */ ('STEP AP214'),
/* implementation_level */ '2;1');

FILE_NAME(
/* name */ 'Socket Cap Screw_ Stainless Steel GN 912.3-M3-12-NI',
/* time_stamp */ '2026-01-13T17:02:13+01:00',
/* author */ ('License CC BY-ND 4.0'),
/* organization */ ('CADENAS'),
/* preprocessor_version */ 'ST-DEVELOPER v20',
/* originating_system */ 'PARTsolutions',
/* authorisation */ '  ');

FILE_SCHEMA (('AUTOMOTIVE_DESIGN {1 0 10303 214 3 1 1}'));
ENDSEC;

DATA;
#10=PROPERTY_DEFINITION_REPRESENTATION(#14,#12);
#11=PROPERTY_DEFINITION_REPRESENTATION(#15,#13);
#12=REPRESENTATION('',(#16),#371);
#13=REPRESENTATION('',(#17),#371);
#14=PROPERTY_DEFINITION('pmi validation property','',#376);
#15=PROPERTY_DEFINITION('pmi validation property','',#376);
#16=VALUE_REPRESENTATION_ITEM('number of annotations',COUNT_MEASURE(0.));
#17=VALUE_REPRESENTATION_ITEM('number of views',COUNT_MEASURE(0.));
#18=SHAPE_REPRESENTATION_RELATIONSHIP('','',#231,#19);
#19=ADVANCED_BREP_SHAPE_REPRESENTATION('',(#229),#371);
#20=LINE('',#333,#38);
#21=LINE('',#336,#39);
#22=LINE('',#338,#40);
#23=LINE('',#340,#41);
#24=LINE('',#342,#42);
#25=LINE('',#344,#43);
#26=LINE('',#346,#44);
#27=LINE('',#348,#45);
#28=LINE('',#350,#46);
#29=LINE('',#352,#47);
#30=LINE('',#354,#48);
#31=LINE('',#356,#49);
#32=LINE('',#358,#50);
#33=LINE('',#360,#51);
#34=LINE('',#362,#52);
#35=LINE('',#364,#53);
#36=LINE('',#366,#54);
#37=LINE('',#368,#55);
#38=VECTOR('',#281,1000.);
#39=VECTOR('',#282,1000.);
#40=VECTOR('',#283,1000.);
#41=VECTOR('',#284,1000.);
#42=VECTOR('',#285,1000.);
#43=VECTOR('',#286,1000.);
#44=VECTOR('',#289,1000.);
#45=VECTOR('',#290,1000.);
#46=VECTOR('',#291,1000.);
#47=VECTOR('',#294,1000.);
#48=VECTOR('',#295,1000.);
#49=VECTOR('',#298,1000.);
#50=VECTOR('',#299,1000.);
#51=VECTOR('',#302,1000.);
#52=VECTOR('',#303,1000.);
#53=VECTOR('',#306,1000.);
#54=VECTOR('',#307,1000.);
#55=VECTOR('',#310,1000.);
#56=TOROIDAL_SURFACE('',#243,1.95,0.3);
#57=CYLINDRICAL_SURFACE('',#237,1.5);
#58=CYLINDRICAL_SURFACE('',#241,2.25);
#59=CONICAL_SURFACE('',#235,1.1935,0.785398163397449);
#60=ORIENTED_EDGE('',*,*,#108,.F.);
#61=ORIENTED_EDGE('',*,*,#109,.F.);
#62=ORIENTED_EDGE('',*,*,#108,.T.);
#63=ORIENTED_EDGE('',*,*,#110,.F.);
#64=ORIENTED_EDGE('',*,*,#109,.T.);
#65=ORIENTED_EDGE('',*,*,#111,.F.);
#66=ORIENTED_EDGE('',*,*,#110,.T.);
#67=ORIENTED_EDGE('',*,*,#112,.F.);
#68=ORIENTED_EDGE('',*,*,#111,.T.);
#69=ORIENTED_EDGE('',*,*,#112,.T.);
#70=ORIENTED_EDGE('',*,*,#113,.F.);
#71=ORIENTED_EDGE('',*,*,#114,.F.);
#72=ORIENTED_EDGE('',*,*,#115,.F.);
#73=ORIENTED_EDGE('',*,*,#116,.F.);
#74=ORIENTED_EDGE('',*,*,#117,.F.);
#75=ORIENTED_EDGE('',*,*,#118,.F.);
#76=ORIENTED_EDGE('',*,*,#119,.F.);
#77=ORIENTED_EDGE('',*,*,#113,.T.);
#78=ORIENTED_EDGE('',*,*,#118,.T.);
#79=ORIENTED_EDGE('',*,*,#120,.F.);
#80=ORIENTED_EDGE('',*,*,#121,.F.);
#81=ORIENTED_EDGE('',*,*,#122,.T.);
#82=ORIENTED_EDGE('',*,*,#117,.T.);
#83=ORIENTED_EDGE('',*,*,#123,.F.);
#84=ORIENTED_EDGE('',*,*,#124,.F.);
#85=ORIENTED_EDGE('',*,*,#120,.T.);
#86=ORIENTED_EDGE('',*,*,#116,.T.);
#87=ORIENTED_EDGE('',*,*,#125,.F.);
#88=ORIENTED_EDGE('',*,*,#126,.F.);
#89=ORIENTED_EDGE('',*,*,#123,.T.);
#90=ORIENTED_EDGE('',*,*,#115,.T.);
#91=ORIENTED_EDGE('',*,*,#127,.F.);
#92=ORIENTED_EDGE('',*,*,#128,.F.);
#93=ORIENTED_EDGE('',*,*,#125,.T.);
#94=ORIENTED_EDGE('',*,*,#114,.T.);
#95=ORIENTED_EDGE('',*,*,#129,.F.);
#96=ORIENTED_EDGE('',*,*,#130,.F.);
#97=ORIENTED_EDGE('',*,*,#127,.T.);
#98=ORIENTED_EDGE('',*,*,#119,.T.);
#99=ORIENTED_EDGE('',*,*,#122,.F.);
#100=ORIENTED_EDGE('',*,*,#131,.F.);
#101=ORIENTED_EDGE('',*,*,#129,.T.);
#102=ORIENTED_EDGE('',*,*,#121,.T.);
#103=ORIENTED_EDGE('',*,*,#124,.T.);
#104=ORIENTED_EDGE('',*,*,#126,.T.);
#105=ORIENTED_EDGE('',*,*,#128,.T.);
#106=ORIENTED_EDGE('',*,*,#130,.T.);
#107=ORIENTED_EDGE('',*,*,#131,.T.);
#108=EDGE_CURVE('',#132,#132,#150,.T.);
#109=EDGE_CURVE('',#133,#133,#151,.T.);
#110=EDGE_CURVE('',#134,#134,#152,.T.);
#111=EDGE_CURVE('',#135,#135,#153,.T.);
#112=EDGE_CURVE('',#136,#136,#154,.T.);
#113=EDGE_CURVE('',#137,#137,#155,.T.);
#114=EDGE_CURVE('',#138,#139,#20,.T.);
#115=EDGE_CURVE('',#140,#138,#21,.T.);
#116=EDGE_CURVE('',#141,#140,#22,.T.);
#117=EDGE_CURVE('',#142,#141,#23,.T.);
#118=EDGE_CURVE('',#143,#142,#24,.T.);
#119=EDGE_CURVE('',#139,#143,#25,.T.);
#120=EDGE_CURVE('',#144,#142,#26,.T.);
#121=EDGE_CURVE('',#145,#144,#27,.T.);
#122=EDGE_CURVE('',#145,#143,#28,.T.);
#123=EDGE_CURVE('',#146,#141,#29,.T.);
#124=EDGE_CURVE('',#144,#146,#30,.T.);
#125=EDGE_CURVE('',#147,#140,#31,.T.);
#126=EDGE_CURVE('',#146,#147,#32,.T.);
#127=EDGE_CURVE('',#148,#138,#33,.T.);
#128=EDGE_CURVE('',#147,#148,#34,.T.);
#129=EDGE_CURVE('',#149,#139,#35,.T.);
#130=EDGE_CURVE('',#148,#149,#36,.T.);
#131=EDGE_CURVE('',#149,#145,#37,.T.);
#132=VERTEX_POINT('',#316);
#133=VERTEX_POINT('',#319);
#134=VERTEX_POINT('',#322);
#135=VERTEX_POINT('',#325);
#136=VERTEX_POINT('',#328);
#137=VERTEX_POINT('',#331);
#138=VERTEX_POINT('',#334);
#139=VERTEX_POINT('',#335);
#140=VERTEX_POINT('',#337);
#141=VERTEX_POINT('',#339);
#142=VERTEX_POINT('',#341);
#143=VERTEX_POINT('',#343);
#144=VERTEX_POINT('',#347);
#145=VERTEX_POINT('',#349);
#146=VERTEX_POINT('',#353);
#147=VERTEX_POINT('',#357);
#148=VERTEX_POINT('',#361);
#149=VERTEX_POINT('',#365);
#150=CIRCLE('',#234,1.1935);
#151=CIRCLE('',#236,1.5);
#152=CIRCLE('',#238,1.5);
#153=CIRCLE('',#240,2.25);
#154=CIRCLE('',#242,2.25);
#155=CIRCLE('',#244,1.95);
#156=EDGE_LOOP('',(#60));
#157=EDGE_LOOP('',(#61));
#158=EDGE_LOOP('',(#62));
#159=EDGE_LOOP('',(#63));
#160=EDGE_LOOP('',(#64));
#161=EDGE_LOOP('',(#65));
#162=EDGE_LOOP('',(#66));
#163=EDGE_LOOP('',(#67));
#164=EDGE_LOOP('',(#68));
#165=EDGE_LOOP('',(#69));
#166=EDGE_LOOP('',(#70));
#167=EDGE_LOOP('',(#71,#72,#73,#74,#75,#76));
#168=EDGE_LOOP('',(#77));
#169=EDGE_LOOP('',(#78,#79,#80,#81));
#170=EDGE_LOOP('',(#82,#83,#84,#85));
#171=EDGE_LOOP('',(#86,#87,#88,#89));
#172=EDGE_LOOP('',(#90,#91,#92,#93));
#173=EDGE_LOOP('',(#94,#95,#96,#97));
#174=EDGE_LOOP('',(#98,#99,#100,#101));
#175=EDGE_LOOP('',(#102,#103,#104,#105,#106,#107));
#176=FACE_BOUND('',#156,.T.);
#177=FACE_BOUND('',#157,.T.);
#178=FACE_BOUND('',#158,.T.);
#179=FACE_BOUND('',#159,.T.);
#180=FACE_BOUND('',#160,.T.);
#181=FACE_BOUND('',#161,.T.);
#182=FACE_BOUND('',#162,.T.);
#183=FACE_BOUND('',#163,.T.);
#184=FACE_BOUND('',#164,.T.);
#185=FACE_BOUND('',#165,.T.);
#186=FACE_BOUND('',#166,.T.);
#187=FACE_BOUND('',#167,.T.);
#188=FACE_BOUND('',#168,.T.);
#189=FACE_BOUND('',#169,.T.);
#190=FACE_BOUND('',#170,.T.);
#191=FACE_BOUND('',#171,.T.);
#192=FACE_BOUND('',#172,.T.);
#193=FACE_BOUND('',#173,.T.);
#194=FACE_BOUND('',#174,.T.);
#195=FACE_BOUND('',#175,.T.);
#196=PLANE('',#233);
#197=PLANE('',#239);
#198=PLANE('',#245);
#199=PLANE('',#246);
#200=PLANE('',#247);
#201=PLANE('',#248);
#202=PLANE('',#249);
#203=PLANE('',#250);
#204=PLANE('',#251);
#205=PLANE('',#252);
#206=ADVANCED_FACE('',(#176),#196,.F.);
#207=ADVANCED_FACE('',(#177,#178),#59,.T.);
#208=ADVANCED_FACE('',(#179,#180),#57,.T.);
#209=ADVANCED_FACE('',(#181,#182),#197,.F.);
#210=ADVANCED_FACE('',(#183,#184),#58,.T.);
#211=ADVANCED_FACE('',(#185,#186),#56,.T.);
#212=ADVANCED_FACE('',(#187,#188),#198,.F.);
#213=ADVANCED_FACE('',(#189),#199,.F.);
#214=ADVANCED_FACE('',(#190),#200,.F.);
#215=ADVANCED_FACE('',(#191),#201,.F.);
#216=ADVANCED_FACE('',(#192),#202,.F.);
#217=ADVANCED_FACE('',(#193),#203,.F.);
#218=ADVANCED_FACE('',(#194),#204,.F.);
#219=ADVANCED_FACE('',(#195),#205,.T.);
#220=CLOSED_SHELL('',(#206,#207,#208,#209,#210,#211,#212,#213,#214,#215,
#216,#217,#218,#219));
#221=STYLED_ITEM('',(#222),#229);
#222=PRESENTATION_STYLE_ASSIGNMENT((#223));
#223=SURFACE_STYLE_USAGE(.BOTH.,#224);
#224=SURFACE_SIDE_STYLE('',(#225));
#225=SURFACE_STYLE_FILL_AREA(#226);
#226=FILL_AREA_STYLE('',(#227));
#227=FILL_AREA_STYLE_COLOUR('',#228);
#228=COLOUR_RGB('',0.749019622802734,0.749019622802734,0.749019622802734);
#229=MANIFOLD_SOLID_BREP(
'Socket Cap Screw, Stainless Steel GN 912.3-M3-12-NI',#220);
#230=SHAPE_DEFINITION_REPRESENTATION(#376,#231);
#231=SHAPE_REPRESENTATION(
'Socket Cap Screw, Stainless Steel GN 912.3-M3-12-NI',(#232),#371);
#232=AXIS2_PLACEMENT_3D('',#313,#253,#254);
#233=AXIS2_PLACEMENT_3D('',#314,#255,#256);
#234=AXIS2_PLACEMENT_3D('',#315,#257,#258);
#235=AXIS2_PLACEMENT_3D('',#317,#259,#260);
#236=AXIS2_PLACEMENT_3D('',#318,#261,#262);
#237=AXIS2_PLACEMENT_3D('',#320,#263,#264);
#238=AXIS2_PLACEMENT_3D('',#321,#265,#266);
#239=AXIS2_PLACEMENT_3D('',#323,#267,#268);
#240=AXIS2_PLACEMENT_3D('',#324,#269,#270);
#241=AXIS2_PLACEMENT_3D('',#326,#271,#272);
#242=AXIS2_PLACEMENT_3D('',#327,#273,#274);
#243=AXIS2_PLACEMENT_3D('',#329,#275,#276);
#244=AXIS2_PLACEMENT_3D('',#330,#277,#278);
#245=AXIS2_PLACEMENT_3D('',#332,#279,#280);
#246=AXIS2_PLACEMENT_3D('',#345,#287,#288);
#247=AXIS2_PLACEMENT_3D('',#351,#292,#293);
#248=AXIS2_PLACEMENT_3D('',#355,#296,#297);
#249=AXIS2_PLACEMENT_3D('',#359,#300,#301);
#250=AXIS2_PLACEMENT_3D('',#363,#304,#305);
#251=AXIS2_PLACEMENT_3D('',#367,#308,#309);
#252=AXIS2_PLACEMENT_3D('',#369,#311,#312);
#253=DIRECTION('',(0.,0.,1.));
#254=DIRECTION('',(1.,0.,0.));
#255=DIRECTION('',(1.,0.,0.));
#256=DIRECTION('',(0.,0.,-1.));
#257=DIRECTION('',(1.,0.,0.));
#258=DIRECTION('',(0.,0.,-1.));
#259=DIRECTION('',(1.,0.,0.));
#260=DIRECTION('',(0.,0.,-1.));
#261=DIRECTION('',(1.,0.,0.));
#262=DIRECTION('',(0.,0.,-1.));
#263=DIRECTION('',(1.,0.,0.));
#264=DIRECTION('',(0.,0.,-1.));
#265=DIRECTION('',(1.,0.,0.));
#266=DIRECTION('',(0.,0.,-1.));
#267=DIRECTION('',(1.,0.,0.));
#268=DIRECTION('',(0.,0.,-1.));
#269=DIRECTION('',(1.,0.,0.));
#270=DIRECTION('',(0.,0.,-1.));
#271=DIRECTION('',(1.,0.,0.));
#272=DIRECTION('',(0.,0.,-1.));
#273=DIRECTION('',(1.,0.,0.));
#274=DIRECTION('',(0.,0.,-1.));
#275=DIRECTION('',(1.,0.,0.));
#276=DIRECTION('',(0.,0.,-1.));
#277=DIRECTION('',(1.,0.,0.));
#278=DIRECTION('',(0.,0.,-1.));
#279=DIRECTION('',(-1.,0.,0.));
#280=DIRECTION('',(0.,0.,1.));
#281=DIRECTION('',(0.,-0.5,0.866025403784439));
#282=DIRECTION('',(0.,0.5,0.866025403784439));
#283=DIRECTION('',(0.,1.,0.));
#284=DIRECTION('',(0.,0.5,-0.866025403784439));
#285=DIRECTION('',(0.,-0.5,-0.866025403784439));
#286=DIRECTION('',(0.,-1.,0.));
#287=DIRECTION('',(0.,-0.866025403784438,0.5));
#288=DIRECTION('',(0.,-0.5,-0.866025403784439));
#289=DIRECTION('',(1.,0.,0.));
#290=DIRECTION('',(0.,-0.5,-0.866025403784439));
#291=DIRECTION('',(1.,0.,0.));
#292=DIRECTION('',(0.,-0.866025403784439,-0.5));
#293=DIRECTION('',(0.,0.5,-0.866025403784439));
#294=DIRECTION('',(1.,0.,0.));
#295=DIRECTION('',(0.,0.5,-0.866025403784439));
#296=DIRECTION('',(0.,0.,-1.));
#297=DIRECTION('',(-1.,0.,0.));
#298=DIRECTION('',(1.,0.,0.));
#299=DIRECTION('',(0.,1.,0.));
#300=DIRECTION('',(0.,0.866025403784438,-0.5));
#301=DIRECTION('',(0.,0.5,0.866025403784439));
#302=DIRECTION('',(1.,0.,0.));
#303=DIRECTION('',(0.,0.5,0.866025403784439));
#304=DIRECTION('',(0.,0.866025403784439,0.5));
#305=DIRECTION('',(0.,-0.5,0.866025403784439));
#306=DIRECTION('',(1.,0.,0.));
#307=DIRECTION('',(0.,-0.5,0.866025403784439));
#308=DIRECTION('',(0.,0.,1.));
#309=DIRECTION('',(1.,0.,0.));
#310=DIRECTION('',(0.,-1.,0.));
#311=DIRECTION('',(1.,0.,0.));
#312=DIRECTION('',(0.,0.,-1.));
#313=CARTESIAN_POINT('',(0.,0.,0.));
#314=CARTESIAN_POINT('',(0.,0.,0.));
#315=CARTESIAN_POINT('',(0.,0.,0.));
#316=CARTESIAN_POINT('',(0.,0.,-1.1935));
#317=CARTESIAN_POINT('',(0.,0.,0.));
#318=CARTESIAN_POINT('',(0.306499999999999,0.,0.));
#319=CARTESIAN_POINT('',(0.306499999999999,0.,-1.5));
#320=CARTESIAN_POINT('',(15.,0.,0.));
#321=CARTESIAN_POINT('',(12.,0.,0.));
#322=CARTESIAN_POINT('',(12.,0.,-1.5));
#323=CARTESIAN_POINT('',(12.,1.5,0.));
#324=CARTESIAN_POINT('',(12.,0.,0.));
#325=CARTESIAN_POINT('',(12.,0.,-2.25));
#326=CARTESIAN_POINT('',(15.,0.,0.));
#327=CARTESIAN_POINT('',(14.7,0.,0.));
#328=CARTESIAN_POINT('',(14.7,0.,-2.25));
#329=CARTESIAN_POINT('',(14.7,0.,0.));
#330=CARTESIAN_POINT('',(15.,0.,0.));
#331=CARTESIAN_POINT('',(15.,0.,-1.95));
#332=CARTESIAN_POINT('',(15.,1.95,0.));
#333=CARTESIAN_POINT('',(15.,1.44337567297406,-2.22044604925031E-16));
#334=CARTESIAN_POINT('',(15.,1.44337567297406,-2.16840434497101E-16));
#335=CARTESIAN_POINT('',(15.,0.721687836487032,1.25));
#336=CARTESIAN_POINT('',(15.,0.721687836487032,-1.25));
#337=CARTESIAN_POINT('',(15.,0.721687836487032,-1.25));
#338=CARTESIAN_POINT('',(15.,-0.721687836487032,-1.25));
#339=CARTESIAN_POINT('',(15.,-0.721687836487032,-1.25));
#340=CARTESIAN_POINT('',(15.,-1.44337567297406,2.22044604925031E-16));
#341=CARTESIAN_POINT('',(15.,-1.44337567297406,2.22044604925031E-16));
#342=CARTESIAN_POINT('',(15.,-0.721687836487032,1.25));
#343=CARTESIAN_POINT('',(15.,-0.721687836487032,1.25));
#344=CARTESIAN_POINT('',(15.,0.721687836487032,1.25));
#345=CARTESIAN_POINT('',(13.5,-0.721687836487032,1.25));
#346=CARTESIAN_POINT('',(13.5,-1.44337567297406,2.22044604925031E-16));
#347=CARTESIAN_POINT('',(13.5,-1.44337567297406,2.22044604925031E-16));
#348=CARTESIAN_POINT('',(13.5,-0.721687836487032,1.25));
#349=CARTESIAN_POINT('',(13.5,-0.721687836487032,1.25));
#350=CARTESIAN_POINT('',(13.5,-0.721687836487032,1.25));
#351=CARTESIAN_POINT('',(13.5,-1.44337567297406,2.22044604925031E-16));
#352=CARTESIAN_POINT('',(13.5,-0.721687836487032,-1.25));
#353=CARTESIAN_POINT('',(13.5,-0.721687836487032,-1.25));
#354=CARTESIAN_POINT('',(13.5,-1.44337567297406,2.22044604925031E-16));
#355=CARTESIAN_POINT('',(13.5,-0.721687836487032,-1.25));
#356=CARTESIAN_POINT('',(13.5,0.721687836487032,-1.25));
#357=CARTESIAN_POINT('',(13.5,0.721687836487032,-1.25));
#358=CARTESIAN_POINT('',(13.5,-0.721687836487032,-1.25));
#359=CARTESIAN_POINT('',(13.5,0.721687836487032,-1.25));
#360=CARTESIAN_POINT('',(13.5,1.44337567297406,-2.16840434497101E-16));
#361=CARTESIAN_POINT('',(13.5,1.44337567297406,-2.16840434497101E-16));
#362=CARTESIAN_POINT('',(13.5,0.721687836487032,-1.25));
#363=CARTESIAN_POINT('',(13.5,1.44337567297406,-2.22044604925031E-16));
#364=CARTESIAN_POINT('',(13.5,0.721687836487032,1.25));
#365=CARTESIAN_POINT('',(13.5,0.721687836487032,1.25));
#366=CARTESIAN_POINT('',(13.5,1.44337567297406,-2.22044604925031E-16));
#367=CARTESIAN_POINT('',(13.5,0.721687836487032,1.25));
#368=CARTESIAN_POINT('',(13.5,0.721687836487032,1.25));
#369=CARTESIAN_POINT('',(13.5,0.,0.));
#370=MECHANICAL_DESIGN_GEOMETRIC_PRESENTATION_REPRESENTATION('',(#221),
#371);
#371=(
GEOMETRIC_REPRESENTATION_CONTEXT(3)
GLOBAL_UNCERTAINTY_ASSIGNED_CONTEXT((#372))
GLOBAL_UNIT_ASSIGNED_CONTEXT((#375,#374,#373))
REPRESENTATION_CONTEXT(
'Socket Cap Screw, Stainless Steel GN 912.3-M3-12-NI',
'TOP_LEVEL_ASSEMBLY_PART')
);
#372=UNCERTAINTY_MEASURE_WITH_UNIT(LENGTH_MEASURE(1.E-5),#375,
'DISTANCE_ACCURACY_VALUE','Maximum Tolerance applied to model');
#373=(
NAMED_UNIT(*)
SI_UNIT($,.STERADIAN.)
SOLID_ANGLE_UNIT()
);
#374=(
NAMED_UNIT(*)
PLANE_ANGLE_UNIT()
SI_UNIT($,.RADIAN.)
);
#375=(
LENGTH_UNIT()
NAMED_UNIT(*)
SI_UNIT(.MILLI.,.METRE.)
);
#376=PRODUCT_DEFINITION_SHAPE('','',#377);
#377=PRODUCT_DEFINITION('','',#379,#378);
#378=PRODUCT_DEFINITION_CONTEXT('',#385,'design');
#379=PRODUCT_DEFINITION_FORMATION_WITH_SPECIFIED_SOURCE('','',#381,
 .NOT_KNOWN.);
#380=PRODUCT_RELATED_PRODUCT_CATEGORY('','',(#381));
#381=PRODUCT('Socket Cap Screw, Stainless Steel GN 912.3-M3-12-NI',
'Socket Cap Screw, Stainless Steel GN 912.3-M3-12-NI',
'Socket Cap Screw, Stainless Steel GN 912.3-M3-12-NI',(#383));
#382=PRODUCT_CATEGORY('','');
#383=PRODUCT_CONTEXT('',#385,'mechanical');
#384=APPLICATION_PROTOCOL_DEFINITION('international standard',
'automotive_design',2010,#385);
#385=APPLICATION_CONTEXT(
'core data for automotive mechanical design processes');
ENDSEC;
END-ISO-10303-21;
